# Blender 4.0.2
# www.blender.org
mtllib train_carriage.mtl
o Abandoned_Train_Carriage
v -1.600000 -9.000000 -0.475000
v -1.600000 9.000000 -0.475000
v -1.600000 -9.000000 -0.725000
v -1.600000 9.000000 -0.725000
v 1.600000 -9.000000 -0.475000
v 1.600000 9.000000 -0.475000
v 1.600000 -9.000000 -0.725000
v 1.600000 9.000000 -0.725000
v -1.400000 -8.800000 -0.725000
v -1.400000 8.800000 -0.725000
v -1.400000 -8.800000 -0.775000
v -1.400000 8.800000 -0.775000
v 1.400000 -8.800000 -0.725000
v 1.400000 8.800000 -0.725000
v 1.400000 -8.800000 -0.775000
v 1.400000 8.800000 -0.775000
v -1.525000 -9.000000 -0.775000
v -1.525000 9.000000 -0.775000
v -1.525000 -9.000000 -1.825000
v -1.525000 9.000000 -1.825000
v -1.375000 -9.000000 -0.775000
v -1.375000 9.000000 -0.775000
v -1.375000 -9.000000 -1.825000
v -1.375000 9.000000 -1.825000
v 1.375000 -9.000000 -0.775000
v 1.375000 9.000000 -0.775000
v 1.375000 -9.000000 -1.825000
v 1.375000 9.000000 -1.825000
v 1.525000 -9.000000 -0.775000
v 1.525000 9.000000 -0.775000
v 1.525000 -9.000000 -1.825000
v 1.525000 9.000000 -1.825000
v -1.525000 -9.000000 -2.400000
v -1.525000 9.000000 -2.400000
v -1.525000 -9.000000 -3.000000
v -1.525000 9.000000 -3.000000
v -1.375000 -9.000000 -2.400000
v -1.375000 9.000000 -2.400000
v -1.375000 -9.000000 -3.000000
v -1.375000 9.000000 -3.000000
v 1.375000 -9.000000 -2.400000
v 1.375000 9.000000 -2.400000
v 1.375000 -9.000000 -3.000000
v 1.375000 9.000000 -3.000000
v 1.525000 -9.000000 -2.400000
v 1.525000 9.000000 -2.400000
v 1.525000 -9.000000 -3.000000
v 1.525000 9.000000 -3.000000
v -1.480000 -7.700000 -1.750000
v -1.480000 -6.300000 -1.750000
v -1.480000 -7.700000 -2.450000
v -1.480000 -6.300000 -2.450000
v -1.420000 -7.700000 -1.750000
v -1.420000 -6.300000 -1.750000
v -1.420000 -7.700000 -2.450000
v -1.420000 -6.300000 -2.450000
v 1.420000 -7.700000 -1.750000
v 1.420000 -6.300000 -1.750000
v 1.420000 -7.700000 -2.450000
v 1.420000 -6.300000 -2.450000
v 1.480000 -7.700000 -1.750000
v 1.480000 -6.300000 -1.750000
v 1.480000 -7.700000 -2.450000
v 1.480000 -6.300000 -2.450000
v -1.540000 -6.300000 -1.725000
v -1.540000 -6.000000 -1.725000
v -1.540000 -6.300000 -2.475000
v -1.540000 -6.000000 -2.475000
v -1.360000 -6.300000 -1.725000
v -1.360000 -6.000000 -1.725000
v -1.360000 -6.300000 -2.475000
v -1.360000 -6.000000 -2.475000
v 1.360000 -6.300000 -1.725000
v 1.360000 -6.000000 -1.725000
v 1.360000 -6.300000 -2.475000
v 1.360000 -6.000000 -2.475000
v 1.540000 -6.300000 -1.725000
v 1.540000 -6.000000 -1.725000
v 1.540000 -6.300000 -2.475000
v 1.540000 -6.000000 -2.475000
v -1.480000 -5.700000 -1.750000
v -1.480000 -4.300000 -1.750000
v -1.480000 -5.700000 -2.450000
v -1.480000 -4.300000 -2.450000
v -1.420000 -5.700000 -1.750000
v -1.420000 -4.300000 -1.750000
v -1.420000 -5.700000 -2.450000
v -1.420000 -4.300000 -2.450000
v 1.420000 -5.700000 -1.750000
v 1.420000 -4.300000 -1.750000
v 1.420000 -5.700000 -2.450000
v 1.420000 -4.300000 -2.450000
v 1.480000 -5.700000 -1.750000
v 1.480000 -4.300000 -1.750000
v 1.480000 -5.700000 -2.450000
v 1.480000 -4.300000 -2.450000
v -1.540000 -4.300000 -1.725000
v -1.540000 -4.000000 -1.725000
v -1.540000 -4.300000 -2.475000
v -1.540000 -4.000000 -2.475000
v -1.360000 -4.300000 -1.725000
v -1.360000 -4.000000 -1.725000
v -1.360000 -4.300000 -2.475000
v -1.360000 -4.000000 -2.475000
v 1.360000 -4.300000 -1.725000
v 1.360000 -4.000000 -1.725000
v 1.360000 -4.300000 -2.475000
v 1.360000 -4.000000 -2.475000
v 1.540000 -4.300000 -1.725000
v 1.540000 -4.000000 -1.725000
v 1.540000 -4.300000 -2.475000
v 1.540000 -4.000000 -2.475000
v -1.480000 -3.700000 -1.750000
v -1.480000 -2.300000 -1.750000
v -1.480000 -3.700000 -2.450000
v -1.480000 -2.300000 -2.450000
v -1.420000 -3.700000 -1.750000
v -1.420000 -2.300000 -1.750000
v -1.420000 -3.700000 -2.450000
v -1.420000 -2.300000 -2.450000
v 1.420000 -3.700000 -1.750000
v 1.420000 -2.300000 -1.750000
v 1.420000 -3.700000 -2.450000
v 1.420000 -2.300000 -2.450000
v 1.480000 -3.700000 -1.750000
v 1.480000 -2.300000 -1.750000
v 1.480000 -3.700000 -2.450000
v 1.480000 -2.300000 -2.450000
v -1.540000 -2.300000 -1.725000
v -1.540000 -2.000000 -1.725000
v -1.540000 -2.300000 -2.475000
v -1.540000 -2.000000 -2.475000
v -1.360000 -2.300000 -1.725000
v -1.360000 -2.000000 -1.725000
v -1.360000 -2.300000 -2.475000
v -1.360000 -2.000000 -2.475000
v 1.360000 -2.300000 -1.725000
v 1.360000 -2.000000 -1.725000
v 1.360000 -2.300000 -2.475000
v 1.360000 -2.000000 -2.475000
v 1.540000 -2.300000 -1.725000
v 1.540000 -2.000000 -1.725000
v 1.540000 -2.300000 -2.475000
v 1.540000 -2.000000 -2.475000
v -1.480000 -1.700000 -1.750000
v -1.480000 -0.300000 -1.750000
v -1.480000 -1.700000 -2.450000
v -1.480000 -0.300000 -2.450000
v -1.420000 -1.700000 -1.750000
v -1.420000 -0.300000 -1.750000
v -1.420000 -1.700000 -2.450000
v -1.420000 -0.300000 -2.450000
v 1.420000 -1.700000 -1.750000
v 1.420000 -0.300000 -1.750000
v 1.420000 -1.700000 -2.450000
v 1.420000 -0.300000 -2.450000
v 1.480000 -1.700000 -1.750000
v 1.480000 -0.300000 -1.750000
v 1.480000 -1.700000 -2.450000
v 1.480000 -0.300000 -2.450000
v -1.540000 -0.300000 -1.725000
v -1.540000 0.000000 -1.725000
v -1.540000 -0.300000 -2.475000
v -1.540000 0.000000 -2.475000
v -1.360000 -0.300000 -1.725000
v -1.360000 0.000000 -1.725000
v -1.360000 -0.300000 -2.475000
v -1.360000 0.000000 -2.475000
v 1.360000 -0.300000 -1.725000
v 1.360000 0.000000 -1.725000
v 1.360000 -0.300000 -2.475000
v 1.360000 0.000000 -2.475000
v 1.540000 -0.300000 -1.725000
v 1.540000 0.000000 -1.725000
v 1.540000 -0.300000 -2.475000
v 1.540000 0.000000 -2.475000
v -1.480000 0.300000 -1.750000
v -1.480000 1.700000 -1.750000
v -1.480000 0.300000 -2.450000
v -1.480000 1.700000 -2.450000
v -1.420000 0.300000 -1.750000
v -1.420000 1.700000 -1.750000
v -1.420000 0.300000 -2.450000
v -1.420000 1.700000 -2.450000
v 1.420000 0.300000 -1.750000
v 1.420000 1.700000 -1.750000
v 1.420000 0.300000 -2.450000
v 1.420000 1.700000 -2.450000
v 1.480000 0.300000 -1.750000
v 1.480000 1.700000 -1.750000
v 1.480000 0.300000 -2.450000
v 1.480000 1.700000 -2.450000
v -1.540000 1.700000 -1.725000
v -1.540000 2.000000 -1.725000
v -1.540000 1.700000 -2.475000
v -1.540000 2.000000 -2.475000
v -1.360000 1.700000 -1.725000
v -1.360000 2.000000 -1.725000
v -1.360000 1.700000 -2.475000
v -1.360000 2.000000 -2.475000
v 1.360000 1.700000 -1.725000
v 1.360000 2.000000 -1.725000
v 1.360000 1.700000 -2.475000
v 1.360000 2.000000 -2.475000
v 1.540000 1.700000 -1.725000
v 1.540000 2.000000 -1.725000
v 1.540000 1.700000 -2.475000
v 1.540000 2.000000 -2.475000
v -1.480000 2.300000 -1.750000
v -1.480000 3.700000 -1.750000
v -1.480000 2.300000 -2.450000
v -1.480000 3.700000 -2.450000
v -1.420000 2.300000 -1.750000
v -1.420000 3.700000 -1.750000
v -1.420000 2.300000 -2.450000
v -1.420000 3.700000 -2.450000
v 1.420000 2.300000 -1.750000
v 1.420000 3.700000 -1.750000
v 1.420000 2.300000 -2.450000
v 1.420000 3.700000 -2.450000
v 1.480000 2.300000 -1.750000
v 1.480000 3.700000 -1.750000
v 1.480000 2.300000 -2.450000
v 1.480000 3.700000 -2.450000
v -1.540000 3.700000 -1.725000
v -1.540000 4.000000 -1.725000
v -1.540000 3.700000 -2.475000
v -1.540000 4.000000 -2.475000
v -1.360000 3.700000 -1.725000
v -1.360000 4.000000 -1.725000
v -1.360000 3.700000 -2.475000
v -1.360000 4.000000 -2.475000
v 1.360000 3.700000 -1.725000
v 1.360000 4.000000 -1.725000
v 1.360000 3.700000 -2.475000
v 1.360000 4.000000 -2.475000
v 1.540000 3.700000 -1.725000
v 1.540000 4.000000 -1.725000
v 1.540000 3.700000 -2.475000
v 1.540000 4.000000 -2.475000
v -1.480000 4.300000 -1.750000
v -1.480000 5.700000 -1.750000
v -1.480000 4.300000 -2.450000
v -1.480000 5.700000 -2.450000
v -1.420000 4.300000 -1.750000
v -1.420000 5.700000 -1.750000
v -1.420000 4.300000 -2.450000
v -1.420000 5.700000 -2.450000
v 1.420000 4.300000 -1.750000
v 1.420000 5.700000 -1.750000
v 1.420000 4.300000 -2.450000
v 1.420000 5.700000 -2.450000
v 1.480000 4.300000 -1.750000
v 1.480000 5.700000 -1.750000
v 1.480000 4.300000 -2.450000
v 1.480000 5.700000 -2.450000
v -1.540000 5.700000 -1.725000
v -1.540000 6.000000 -1.725000
v -1.540000 5.700000 -2.475000
v -1.540000 6.000000 -2.475000
v -1.360000 5.700000 -1.725000
v -1.360000 6.000000 -1.725000
v -1.360000 5.700000 -2.475000
v -1.360000 6.000000 -2.475000
v 1.360000 5.700000 -1.725000
v 1.360000 6.000000 -1.725000
v 1.360000 5.700000 -2.475000
v 1.360000 6.000000 -2.475000
v 1.540000 5.700000 -1.725000
v 1.540000 6.000000 -1.725000
v 1.540000 5.700000 -2.475000
v 1.540000 6.000000 -2.475000
v -1.480000 6.300000 -1.750000
v -1.480000 7.700000 -1.750000
v -1.480000 6.300000 -2.450000
v -1.480000 7.700000 -2.450000
v -1.420000 6.300000 -1.750000
v -1.420000 7.700000 -1.750000
v -1.420000 6.300000 -2.450000
v -1.420000 7.700000 -2.450000
v 1.420000 6.300000 -1.750000
v 1.420000 7.700000 -1.750000
v 1.420000 6.300000 -2.450000
v 1.420000 7.700000 -2.450000
v 1.480000 6.300000 -1.750000
v 1.480000 7.700000 -1.750000
v 1.480000 6.300000 -2.450000
v 1.480000 7.700000 -2.450000
v -1.540000 7.700000 -1.725000
v -1.540000 8.000000 -1.725000
v -1.540000 7.700000 -2.475000
v -1.540000 8.000000 -2.475000
v -1.360000 7.700000 -1.725000
v -1.360000 8.000000 -1.725000
v -1.360000 7.700000 -2.475000
v -1.360000 8.000000 -2.475000
v 1.360000 7.700000 -1.725000
v 1.360000 8.000000 -1.725000
v 1.360000 7.700000 -2.475000
v 1.360000 8.000000 -2.475000
v 1.540000 7.700000 -1.725000
v 1.540000 8.000000 -1.725000
v 1.540000 7.700000 -2.475000
v 1.540000 8.000000 -2.475000
v -1.400000 -9.000000 -3.025000
v -1.400000 9.000000 -3.025000
v -1.400000 -9.000000 -3.175000
v -1.400000 9.000000 -3.175000
v 1.400000 -9.000000 -3.025000
v 1.400000 9.000000 -3.025000
v 1.400000 -9.000000 -3.175000
v 1.400000 9.000000 -3.175000
v -1.500000 8.900000 -0.750000
v -1.500000 9.100000 -0.750000
v -1.500000 8.900000 -3.050000
v -1.500000 9.100000 -3.050000
v 1.500000 8.900000 -0.750000
v 1.500000 9.100000 -0.750000
v 1.500000 8.900000 -3.050000
v 1.500000 9.100000 -3.050000
v -1.500000 -9.100000 -0.750000
v -1.500000 -8.900000 -0.750000
v -1.500000 -9.100000 -3.050000
v -1.500000 -8.900000 -3.050000
v 1.500000 -9.100000 -0.750000
v 1.500000 -8.900000 -0.750000
v 1.500000 -9.100000 -3.050000
v 1.500000 -8.900000 -3.050000
v -1.325000 -5.850000 -0.825000
v -1.325000 -5.150000 -0.825000
v -1.325000 -5.850000 -1.375000
v -1.325000 -5.150000 -1.375000
v -0.575000 -5.850000 -0.825000
v -0.575000 -5.150000 -0.825000
v -0.575000 -5.850000 -1.375000
v -0.575000 -5.150000 -1.375000
v 0.575000 -5.850000 -0.825000
v 0.575000 -5.150000 -0.825000
v 0.575000 -5.850000 -1.375000
v 0.575000 -5.150000 -1.375000
v 1.325000 -5.850000 -0.825000
v 1.325000 -5.150000 -0.825000
v 1.325000 -5.850000 -1.375000
v 1.325000 -5.150000 -1.375000
v -1.325000 -3.350000 -0.825000
v -1.325000 -2.650000 -0.825000
v -1.325000 -3.350000 -1.375000
v -1.325000 -2.650000 -1.375000
v -0.575000 -3.350000 -0.825000
v -0.575000 -2.650000 -0.825000
v -0.575000 -3.350000 -1.375000
v -0.575000 -2.650000 -1.375000
v 0.575000 -3.350000 -0.825000
v 0.575000 -2.650000 -0.825000
v 0.575000 -3.350000 -1.375000
v 0.575000 -2.650000 -1.375000
v 1.325000 -3.350000 -0.825000
v 1.325000 -2.650000 -0.825000
v 1.325000 -3.350000 -1.375000
v 1.325000 -2.650000 -1.375000
v -1.325000 -0.850000 -0.825000
v -1.325000 -0.150000 -0.825000
v -1.325000 -0.850000 -1.375000
v -1.325000 -0.150000 -1.375000
v -0.575000 -0.850000 -0.825000
v -0.575000 -0.150000 -0.825000
v -0.575000 -0.850000 -1.375000
v -0.575000 -0.150000 -1.375000
v 0.575000 -0.850000 -0.825000
v 0.575000 -0.150000 -0.825000
v 0.575000 -0.850000 -1.375000
v 0.575000 -0.150000 -1.375000
v 1.325000 -0.850000 -0.825000
v 1.325000 -0.150000 -0.825000
v 1.325000 -0.850000 -1.375000
v 1.325000 -0.150000 -1.375000
v -1.325000 1.650000 -0.825000
v -1.325000 2.350000 -0.825000
v -1.325000 1.650000 -1.375000
v -1.325000 2.350000 -1.375000
v -0.575000 1.650000 -0.825000
v -0.575000 2.350000 -0.825000
v -0.575000 1.650000 -1.375000
v -0.575000 2.350000 -1.375000
v 0.575000 1.650000 -0.825000
v 0.575000 2.350000 -0.825000
v 0.575000 1.650000 -1.375000
v 0.575000 2.350000 -1.375000
v 1.325000 1.650000 -0.825000
v 1.325000 2.350000 -0.825000
v 1.325000 1.650000 -1.375000
v 1.325000 2.350000 -1.375000
v -1.325000 4.150000 -0.825000
v -1.325000 4.850000 -0.825000
v -1.325000 4.150000 -1.375000
v -1.325000 4.850000 -1.375000
v -0.575000 4.150000 -0.825000
v -0.575000 4.850000 -0.825000
v -0.575000 4.150000 -1.375000
v -0.575000 4.850000 -1.375000
v 0.575000 4.150000 -0.825000
v 0.575000 4.850000 -0.825000
v 0.575000 4.150000 -1.375000
v 0.575000 4.850000 -1.375000
v 1.325000 4.150000 -0.825000
v 1.325000 4.850000 -0.825000
v 1.325000 4.150000 -1.375000
v 1.325000 4.850000 -1.375000
v -1.350000 -8.000000 -2.480000
v -1.350000 8.000000 -2.480000
v -1.350000 -8.000000 -2.520000
v -1.350000 8.000000 -2.520000
v -0.850000 -8.000000 -2.480000
v -0.850000 8.000000 -2.480000
v -0.850000 -8.000000 -2.520000
v -0.850000 8.000000 -2.520000
v 0.850000 -8.000000 -2.480000
v 0.850000 8.000000 -2.480000
v 0.850000 -8.000000 -2.520000
v 0.850000 8.000000 -2.520000
v 1.350000 -8.000000 -2.480000
v 1.350000 8.000000 -2.480000
v 1.350000 -8.000000 -2.520000
v 1.350000 8.000000 -2.520000
v -1.200000 -7.400000 -0.250000
v -1.200000 -4.600000 -0.250000
v -1.200000 -7.400000 -0.450000
v -1.200000 -4.600000 -0.450000
v 1.200000 -7.400000 -0.250000
v 1.200000 -4.600000 -0.250000
v 1.200000 -7.400000 -0.450000
v 1.200000 -4.600000 -0.450000
v -1.380000 -6.860000 -0.280000
v -1.380000 -6.740000 -0.280000
v -1.358686 -6.860000 -0.387151
v -1.358686 -6.740000 -0.387151
v -1.297990 -6.860000 -0.477990
v -1.297990 -6.740000 -0.477990
v -1.207151 -6.860000 -0.538686
v -1.207151 -6.740000 -0.538686
v -1.100000 -6.860000 -0.560000
v -1.100000 -6.740000 -0.560000
v -0.992849 -6.860000 -0.538686
v -0.992849 -6.740000 -0.538686
v -0.902010 -6.860000 -0.477990
v -0.902010 -6.740000 -0.477990
v -0.841314 -6.860000 -0.387151
v -0.841314 -6.740000 -0.387151
v -0.820000 -6.860000 -0.280000
v -0.820000 -6.740000 -0.280000
v -0.841314 -6.860000 -0.172849
v -0.841314 -6.740000 -0.172849
v -0.902010 -6.860000 -0.082010
v -0.902010 -6.740000 -0.082010
v -0.992849 -6.860000 -0.021314
v -0.992849 -6.740000 -0.021314
v -1.100000 -6.860000 0.000000
v -1.100000 -6.740000 0.000000
v -1.207151 -6.860000 -0.021314
v -1.207151 -6.740000 -0.021314
v -1.297990 -6.860000 -0.082010
v -1.297990 -6.740000 -0.082010
v -1.358686 -6.860000 -0.172849
v -1.358686 -6.740000 -0.172849
v -1.380000 -5.260000 -0.280000
v -1.380000 -5.140000 -0.280000
v -1.358686 -5.260000 -0.387151
v -1.358686 -5.140000 -0.387151
v -1.297990 -5.260000 -0.477990
v -1.297990 -5.140000 -0.477990
v -1.207151 -5.260000 -0.538686
v -1.207151 -5.140000 -0.538686
v -1.100000 -5.260000 -0.560000
v -1.100000 -5.140000 -0.560000
v -0.992849 -5.260000 -0.538686
v -0.992849 -5.140000 -0.538686
v -0.902010 -5.260000 -0.477990
v -0.902010 -5.140000 -0.477990
v -0.841314 -5.260000 -0.387151
v -0.841314 -5.140000 -0.387151
v -0.820000 -5.260000 -0.280000
v -0.820000 -5.140000 -0.280000
v -0.841314 -5.260000 -0.172849
v -0.841314 -5.140000 -0.172849
v -0.902010 -5.260000 -0.082010
v -0.902010 -5.140000 -0.082010
v -0.992849 -5.260000 -0.021314
v -0.992849 -5.140000 -0.021314
v -1.100000 -5.260000 0.000000
v -1.100000 -5.140000 0.000000
v -1.207151 -5.260000 -0.021314
v -1.207151 -5.140000 -0.021314
v -1.297990 -5.260000 -0.082010
v -1.297990 -5.140000 -0.082010
v -1.358686 -5.260000 -0.172849
v -1.358686 -5.140000 -0.172849
v 0.820000 -6.860000 -0.280000
v 0.820000 -6.740000 -0.280000
v 0.841314 -6.860000 -0.387151
v 0.841314 -6.740000 -0.387151
v 0.902010 -6.860000 -0.477990
v 0.902010 -6.740000 -0.477990
v 0.992849 -6.860000 -0.538686
v 0.992849 -6.740000 -0.538686
v 1.100000 -6.860000 -0.560000
v 1.100000 -6.740000 -0.560000
v 1.207151 -6.860000 -0.538686
v 1.207151 -6.740000 -0.538686
v 1.297990 -6.860000 -0.477990
v 1.297990 -6.740000 -0.477990
v 1.358686 -6.860000 -0.387151
v 1.358686 -6.740000 -0.387151
v 1.380000 -6.860000 -0.280000
v 1.380000 -6.740000 -0.280000
v 1.358686 -6.860000 -0.172849
v 1.358686 -6.740000 -0.172849
v 1.297990 -6.860000 -0.082010
v 1.297990 -6.740000 -0.082010
v 1.207151 -6.860000 -0.021314
v 1.207151 -6.740000 -0.021314
v 1.100000 -6.860000 0.000000
v 1.100000 -6.740000 0.000000
v 0.992849 -6.860000 -0.021314
v 0.992849 -6.740000 -0.021314
v 0.902010 -6.860000 -0.082010
v 0.902010 -6.740000 -0.082010
v 0.841314 -6.860000 -0.172849
v 0.841314 -6.740000 -0.172849
v 0.820000 -5.260000 -0.280000
v 0.820000 -5.140000 -0.280000
v 0.841314 -5.260000 -0.387151
v 0.841314 -5.140000 -0.387151
v 0.902010 -5.260000 -0.477990
v 0.902010 -5.140000 -0.477990
v 0.992849 -5.260000 -0.538686
v 0.992849 -5.140000 -0.538686
v 1.100000 -5.260000 -0.560000
v 1.100000 -5.140000 -0.560000
v 1.207151 -5.260000 -0.538686
v 1.207151 -5.140000 -0.538686
v 1.297990 -5.260000 -0.477990
v 1.297990 -5.140000 -0.477990
v 1.358686 -5.260000 -0.387151
v 1.358686 -5.140000 -0.387151
v 1.380000 -5.260000 -0.280000
v 1.380000 -5.140000 -0.280000
v 1.358686 -5.260000 -0.172849
v 1.358686 -5.140000 -0.172849
v 1.297990 -5.260000 -0.082010
v 1.297990 -5.140000 -0.082010
v 1.207151 -5.260000 -0.021314
v 1.207151 -5.140000 -0.021314
v 1.100000 -5.260000 0.000000
v 1.100000 -5.140000 0.000000
v 0.992849 -5.260000 -0.021314
v 0.992849 -5.140000 -0.021314
v 0.902010 -5.260000 -0.082010
v 0.902010 -5.140000 -0.082010
v 0.841314 -5.260000 -0.172849
v 0.841314 -5.140000 -0.172849
v -1.200000 4.600000 -0.250000
v -1.200000 7.400000 -0.250000
v -1.200000 4.600000 -0.450000
v -1.200000 7.400000 -0.450000
v 1.200000 4.600000 -0.250000
v 1.200000 7.400000 -0.250000
v 1.200000 4.600000 -0.450000
v 1.200000 7.400000 -0.450000
v -1.380000 5.140000 -0.280000
v -1.380000 5.260000 -0.280000
v -1.358686 5.140000 -0.387151
v -1.358686 5.260000 -0.387151
v -1.297990 5.140000 -0.477990
v -1.297990 5.260000 -0.477990
v -1.207151 5.140000 -0.538686
v -1.207151 5.260000 -0.538686
v -1.100000 5.140000 -0.560000
v -1.100000 5.260000 -0.560000
v -0.992849 5.140000 -0.538686
v -0.992849 5.260000 -0.538686
v -0.902010 5.140000 -0.477990
v -0.902010 5.260000 -0.477990
v -0.841314 5.140000 -0.387151
v -0.841314 5.260000 -0.387151
v -0.820000 5.140000 -0.280000
v -0.820000 5.260000 -0.280000
v -0.841314 5.140000 -0.172849
v -0.841314 5.260000 -0.172849
v -0.902010 5.140000 -0.082010
v -0.902010 5.260000 -0.082010
v -0.992849 5.140000 -0.021314
v -0.992849 5.260000 -0.021314
v -1.100000 5.140000 0.000000
v -1.100000 5.260000 0.000000
v -1.207151 5.140000 -0.021314
v -1.207151 5.260000 -0.021314
v -1.297990 5.140000 -0.082010
v -1.297990 5.260000 -0.082010
v -1.358686 5.140000 -0.172849
v -1.358686 5.260000 -0.172849
v -1.380000 6.740000 -0.280000
v -1.380000 6.860000 -0.280000
v -1.358686 6.740000 -0.387151
v -1.358686 6.860000 -0.387151
v -1.297990 6.740000 -0.477990
v -1.297990 6.860000 -0.477990
v -1.207151 6.740000 -0.538686
v -1.207151 6.860000 -0.538686
v -1.100000 6.740000 -0.560000
v -1.100000 6.860000 -0.560000
v -0.992849 6.740000 -0.538686
v -0.992849 6.860000 -0.538686
v -0.902010 6.740000 -0.477990
v -0.902010 6.860000 -0.477990
v -0.841314 6.740000 -0.387151
v -0.841314 6.860000 -0.387151
v -0.820000 6.740000 -0.280000
v -0.820000 6.860000 -0.280000
v -0.841314 6.740000 -0.172849
v -0.841314 6.860000 -0.172849
v -0.902010 6.740000 -0.082010
v -0.902010 6.860000 -0.082010
v -0.992849 6.740000 -0.021314
v -0.992849 6.860000 -0.021314
v -1.100000 6.740000 0.000000
v -1.100000 6.860000 0.000000
v -1.207151 6.740000 -0.021314
v -1.207151 6.860000 -0.021314
v -1.297990 6.740000 -0.082010
v -1.297990 6.860000 -0.082010
v -1.358686 6.740000 -0.172849
v -1.358686 6.860000 -0.172849
v 0.820000 5.140000 -0.280000
v 0.820000 5.260000 -0.280000
v 0.841314 5.140000 -0.387151
v 0.841314 5.260000 -0.387151
v 0.902010 5.140000 -0.477990
v 0.902010 5.260000 -0.477990
v 0.992849 5.140000 -0.538686
v 0.992849 5.260000 -0.538686
v 1.100000 5.140000 -0.560000
v 1.100000 5.260000 -0.560000
v 1.207151 5.140000 -0.538686
v 1.207151 5.260000 -0.538686
v 1.297990 5.140000 -0.477990
v 1.297990 5.260000 -0.477990
v 1.358686 5.140000 -0.387151
v 1.358686 5.260000 -0.387151
v 1.380000 5.140000 -0.280000
v 1.380000 5.260000 -0.280000
v 1.358686 5.140000 -0.172849
v 1.358686 5.260000 -0.172849
v 1.297990 5.140000 -0.082010
v 1.297990 5.260000 -0.082010
v 1.207151 5.140000 -0.021314
v 1.207151 5.260000 -0.021314
v 1.100000 5.140000 0.000000
v 1.100000 5.260000 0.000000
v 0.992849 5.140000 -0.021314
v 0.992849 5.260000 -0.021314
v 0.902010 5.140000 -0.082010
v 0.902010 5.260000 -0.082010
v 0.841314 5.140000 -0.172849
v 0.841314 5.260000 -0.172849
v 0.820000 6.740000 -0.280000
v 0.820000 6.860000 -0.280000
v 0.841314 6.740000 -0.387151
v 0.841314 6.860000 -0.387151
v 0.902010 6.740000 -0.477990
v 0.902010 6.860000 -0.477990
v 0.992849 6.740000 -0.538686
v 0.992849 6.860000 -0.538686
v 1.100000 6.740000 -0.560000
v 1.100000 6.860000 -0.560000
v 1.207151 6.740000 -0.538686
v 1.207151 6.860000 -0.538686
v 1.297990 6.740000 -0.477990
v 1.297990 6.860000 -0.477990
v 1.358686 6.740000 -0.387151
v 1.358686 6.860000 -0.387151
v 1.380000 6.740000 -0.280000
v 1.380000 6.860000 -0.280000
v 1.358686 6.740000 -0.172849
v 1.358686 6.860000 -0.172849
v 1.297990 6.740000 -0.082010
v 1.297990 6.860000 -0.082010
v 1.207151 6.740000 -0.021314
v 1.207151 6.860000 -0.021314
v 1.100000 6.740000 0.000000
v 1.100000 6.860000 0.000000
v 0.992849 6.740000 -0.021314
v 0.992849 6.860000 -0.021314
v 0.902010 6.740000 -0.082010
v 0.902010 6.860000 -0.082010
v 0.841314 6.740000 -0.172849
v 0.841314 6.860000 -0.172849
vn -1.0000 -0.0000 -0.0000
vn -0.0000 -0.0000 -1.0000
vn 1.0000 -0.0000 -0.0000
vn -0.0000 -0.0000 1.0000
vn -0.0000 -1.0000 -0.0000
vn -0.0000 1.0000 -0.0000
vn -0.9808 -0.0000 -0.1951
vn -0.8315 -0.0000 -0.5556
vn -0.5556 -0.0000 -0.8315
vn -0.1951 -0.0000 -0.9808
vn 0.1951 -0.0000 -0.9808
vn 0.5556 -0.0000 -0.8315
vn 0.8315 -0.0000 -0.5556
vn 0.9808 -0.0000 -0.1951
vn 0.9808 -0.0000 0.1951
vn 0.8315 -0.0000 0.5556
vn 0.5556 -0.0000 0.8315
vn 0.1951 -0.0000 0.9808
vn -0.1951 -0.0000 0.9808
vn -0.5556 -0.0000 0.8315
vn -0.8315 -0.0000 0.5556
vn -0.9808 -0.0000 0.1951
vt 0.375000 0.000000
vt 0.625000 0.000000
vt 0.625000 0.250000
vt 0.375000 0.250000
vt 0.625000 0.500000
vt 0.375000 0.500000
vt 0.625000 0.750000
vt 0.375000 0.750000
vt 0.625000 1.000000
vt 0.375000 1.000000
vt 0.125000 0.500000
vt 0.125000 0.750000
vt 0.875000 0.500000
vt 0.875000 0.750000
vt 1.000000 0.500000
vt 1.000000 1.000000
vt 0.937500 1.000000
vt 0.937500 0.500000
vt 0.875000 1.000000
vt 0.812500 1.000000
vt 0.812500 0.500000
vt 0.750000 1.000000
vt 0.750000 0.500000
vt 0.687500 1.000000
vt 0.687500 0.500000
vt 0.562500 1.000000
vt 0.562500 0.500000
vt 0.500000 1.000000
vt 0.500000 0.500000
vt 0.437500 1.000000
vt 0.437500 0.500000
vt 0.312500 1.000000
vt 0.312500 0.500000
vt 0.250000 1.000000
vt 0.250000 0.500000
vt 0.187500 1.000000
vt 0.187500 0.500000
vt 0.125000 1.000000
vt 0.341844 0.471731
vt 0.250000 0.490000
vt 0.158156 0.471731
vt 0.080294 0.419706
vt 0.028269 0.341844
vt 0.010000 0.250000
vt 0.028269 0.158156
vt 0.080294 0.080294
vt 0.158156 0.028269
vt 0.250000 0.010000
vt 0.341844 0.028269
vt 0.419706 0.080294
vt 0.471731 0.158156
vt 0.490000 0.250000
vt 0.471731 0.341844
vt 0.419706 0.419706
vt 0.062500 1.000000
vt 0.062500 0.500000
vt 0.000000 1.000000
vt 0.000000 0.500000
vt 0.750000 0.490000
vt 0.841844 0.471731
vt 0.919706 0.419706
vt 0.971731 0.341844
vt 0.990000 0.250000
vt 0.971731 0.158156
vt 0.919706 0.080294
vt 0.841844 0.028269
vt 0.750000 0.010000
vt 0.658156 0.028269
vt 0.580294 0.080294
vt 0.528269 0.158156
vt 0.510000 0.250000
vt 0.528269 0.341844
vt 0.580294 0.419706
vt 0.658156 0.471731
s 0
usemtl Mat_RustSteel
f 1/1/1 2/2/1 4/3/1 3/4/1
f 3/4/2 4/3/2 8/5/2 7/6/2
f 7/6/3 8/5/3 6/7/3 5/8/3
f 5/8/4 6/7/4 2/9/4 1/10/4
f 3/11/5 7/6/5 5/8/5 1/12/5
f 8/5/6 4/13/6 2/14/6 6/7/6
f 305/1/1 306/2/1 308/3/1 307/4/1
f 307/4/2 308/3/2 312/5/2 311/6/2
f 311/6/3 312/5/3 310/7/3 309/8/3
f 309/8/4 310/7/4 306/9/4 305/10/4
f 307/11/5 311/6/5 309/8/5 305/12/5
f 312/5/6 308/13/6 306/14/6 310/7/6
f 409/1/1 410/2/1 412/3/1 411/4/1
f 411/4/2 412/3/2 416/5/2 415/6/2
f 415/6/3 416/5/3 414/7/3 413/8/3
f 413/8/4 414/7/4 410/9/4 409/10/4
f 411/11/5 415/6/5 413/8/5 409/12/5
f 416/5/6 412/13/6 410/14/6 414/7/6
f 417/1/1 418/2/1 420/3/1 419/4/1
f 419/4/2 420/3/2 424/5/2 423/6/2
f 423/6/3 424/5/3 422/7/3 421/8/3
f 421/8/4 422/7/4 418/9/4 417/10/4
f 419/11/5 423/6/5 421/8/5 417/12/5
f 424/5/6 420/13/6 418/14/6 422/7/6
usemtl Mat_TrainFloor
f 9/1/1 10/2/1 12/3/1 11/4/1
f 11/4/2 12/3/2 16/5/2 15/6/2
f 15/6/3 16/5/3 14/7/3 13/8/3
f 13/8/4 14/7/4 10/9/4 9/10/4
f 11/11/5 15/6/5 13/8/5 9/12/5
f 16/5/6 12/13/6 10/14/6 14/7/6
usemtl Mat_TrainPaint
f 17/1/1 18/2/1 20/3/1 19/4/1
f 19/4/2 20/3/2 24/5/2 23/6/2
f 23/6/3 24/5/3 22/7/3 21/8/3
f 21/8/4 22/7/4 18/9/4 17/10/4
f 19/11/5 23/6/5 21/8/5 17/12/5
f 24/5/6 20/13/6 18/14/6 22/7/6
f 25/1/1 26/2/1 28/3/1 27/4/1
f 27/4/2 28/3/2 32/5/2 31/6/2
f 31/6/3 32/5/3 30/7/3 29/8/3
f 29/8/4 30/7/4 26/9/4 25/10/4
f 27/11/5 31/6/5 29/8/5 25/12/5
f 32/5/6 28/13/6 26/14/6 30/7/6
f 33/1/1 34/2/1 36/3/1 35/4/1
f 35/4/2 36/3/2 40/5/2 39/6/2
f 39/6/3 40/5/3 38/7/3 37/8/3
f 37/8/4 38/7/4 34/9/4 33/10/4
f 35/11/5 39/6/5 37/8/5 33/12/5
f 40/5/6 36/13/6 34/14/6 38/7/6
f 41/1/1 42/2/1 44/3/1 43/4/1
f 43/4/2 44/3/2 48/5/2 47/6/2
f 47/6/3 48/5/3 46/7/3 45/8/3
f 45/8/4 46/7/4 42/9/4 41/10/4
f 43/11/5 47/6/5 45/8/5 41/12/5
f 48/5/6 44/13/6 42/14/6 46/7/6
f 65/1/1 66/2/1 68/3/1 67/4/1
f 67/4/2 68/3/2 72/5/2 71/6/2
f 71/6/3 72/5/3 70/7/3 69/8/3
f 69/8/4 70/7/4 66/9/4 65/10/4
f 67/11/5 71/6/5 69/8/5 65/12/5
f 72/5/6 68/13/6 66/14/6 70/7/6
f 73/1/1 74/2/1 76/3/1 75/4/1
f 75/4/2 76/3/2 80/5/2 79/6/2
f 79/6/3 80/5/3 78/7/3 77/8/3
f 77/8/4 78/7/4 74/9/4 73/10/4
f 75/11/5 79/6/5 77/8/5 73/12/5
f 80/5/6 76/13/6 74/14/6 78/7/6
f 97/1/1 98/2/1 100/3/1 99/4/1
f 99/4/2 100/3/2 104/5/2 103/6/2
f 103/6/3 104/5/3 102/7/3 101/8/3
f 101/8/4 102/7/4 98/9/4 97/10/4
f 99/11/5 103/6/5 101/8/5 97/12/5
f 104/5/6 100/13/6 98/14/6 102/7/6
f 105/1/1 106/2/1 108/3/1 107/4/1
f 107/4/2 108/3/2 112/5/2 111/6/2
f 111/6/3 112/5/3 110/7/3 109/8/3
f 109/8/4 110/7/4 106/9/4 105/10/4
f 107/11/5 111/6/5 109/8/5 105/12/5
f 112/5/6 108/13/6 106/14/6 110/7/6
f 129/1/1 130/2/1 132/3/1 131/4/1
f 131/4/2 132/3/2 136/5/2 135/6/2
f 135/6/3 136/5/3 134/7/3 133/8/3
f 133/8/4 134/7/4 130/9/4 129/10/4
f 131/11/5 135/6/5 133/8/5 129/12/5
f 136/5/6 132/13/6 130/14/6 134/7/6
f 137/1/1 138/2/1 140/3/1 139/4/1
f 139/4/2 140/3/2 144/5/2 143/6/2
f 143/6/3 144/5/3 142/7/3 141/8/3
f 141/8/4 142/7/4 138/9/4 137/10/4
f 139/11/5 143/6/5 141/8/5 137/12/5
f 144/5/6 140/13/6 138/14/6 142/7/6
f 161/1/1 162/2/1 164/3/1 163/4/1
f 163/4/2 164/3/2 168/5/2 167/6/2
f 167/6/3 168/5/3 166/7/3 165/8/3
f 165/8/4 166/7/4 162/9/4 161/10/4
f 163/11/5 167/6/5 165/8/5 161/12/5
f 168/5/6 164/13/6 162/14/6 166/7/6
f 169/1/1 170/2/1 172/3/1 171/4/1
f 171/4/2 172/3/2 176/5/2 175/6/2
f 175/6/3 176/5/3 174/7/3 173/8/3
f 173/8/4 174/7/4 170/9/4 169/10/4
f 171/11/5 175/6/5 173/8/5 169/12/5
f 176/5/6 172/13/6 170/14/6 174/7/6
f 193/1/1 194/2/1 196/3/1 195/4/1
f 195/4/2 196/3/2 200/5/2 199/6/2
f 199/6/3 200/5/3 198/7/3 197/8/3
f 197/8/4 198/7/4 194/9/4 193/10/4
f 195/11/5 199/6/5 197/8/5 193/12/5
f 200/5/6 196/13/6 194/14/6 198/7/6
f 201/1/1 202/2/1 204/3/1 203/4/1
f 203/4/2 204/3/2 208/5/2 207/6/2
f 207/6/3 208/5/3 206/7/3 205/8/3
f 205/8/4 206/7/4 202/9/4 201/10/4
f 203/11/5 207/6/5 205/8/5 201/12/5
f 208/5/6 204/13/6 202/14/6 206/7/6
f 225/1/1 226/2/1 228/3/1 227/4/1
f 227/4/2 228/3/2 232/5/2 231/6/2
f 231/6/3 232/5/3 230/7/3 229/8/3
f 229/8/4 230/7/4 226/9/4 225/10/4
f 227/11/5 231/6/5 229/8/5 225/12/5
f 232/5/6 228/13/6 226/14/6 230/7/6
f 233/1/1 234/2/1 236/3/1 235/4/1
f 235/4/2 236/3/2 240/5/2 239/6/2
f 239/6/3 240/5/3 238/7/3 237/8/3
f 237/8/4 238/7/4 234/9/4 233/10/4
f 235/11/5 239/6/5 237/8/5 233/12/5
f 240/5/6 236/13/6 234/14/6 238/7/6
f 257/1/1 258/2/1 260/3/1 259/4/1
f 259/4/2 260/3/2 264/5/2 263/6/2
f 263/6/3 264/5/3 262/7/3 261/8/3
f 261/8/4 262/7/4 258/9/4 257/10/4
f 259/11/5 263/6/5 261/8/5 257/12/5
f 264/5/6 260/13/6 258/14/6 262/7/6
f 265/1/1 266/2/1 268/3/1 267/4/1
f 267/4/2 268/3/2 272/5/2 271/6/2
f 271/6/3 272/5/3 270/7/3 269/8/3
f 269/8/4 270/7/4 266/9/4 265/10/4
f 267/11/5 271/6/5 269/8/5 265/12/5
f 272/5/6 268/13/6 266/14/6 270/7/6
f 289/1/1 290/2/1 292/3/1 291/4/1
f 291/4/2 292/3/2 296/5/2 295/6/2
f 295/6/3 296/5/3 294/7/3 293/8/3
f 293/8/4 294/7/4 290/9/4 289/10/4
f 291/11/5 295/6/5 293/8/5 289/12/5
f 296/5/6 292/13/6 290/14/6 294/7/6
f 297/1/1 298/2/1 300/3/1 299/4/1
f 299/4/2 300/3/2 304/5/2 303/6/2
f 303/6/3 304/5/3 302/7/3 301/8/3
f 301/8/4 302/7/4 298/9/4 297/10/4
f 299/11/5 303/6/5 301/8/5 297/12/5
f 304/5/6 300/13/6 298/14/6 302/7/6
f 313/1/1 314/2/1 316/3/1 315/4/1
f 315/4/2 316/3/2 320/5/2 319/6/2
f 319/6/3 320/5/3 318/7/3 317/8/3
f 317/8/4 318/7/4 314/9/4 313/10/4
f 315/11/5 319/6/5 317/8/5 313/12/5
f 320/5/6 316/13/6 314/14/6 318/7/6
f 321/1/1 322/2/1 324/3/1 323/4/1
f 323/4/2 324/3/2 328/5/2 327/6/2
f 327/6/3 328/5/3 326/7/3 325/8/3
f 325/8/4 326/7/4 322/9/4 321/10/4
f 323/11/5 327/6/5 325/8/5 321/12/5
f 328/5/6 324/13/6 322/14/6 326/7/6
usemtl Mat_BrokenGlass
f 49/1/1 50/2/1 52/3/1 51/4/1
f 51/4/2 52/3/2 56/5/2 55/6/2
f 55/6/3 56/5/3 54/7/3 53/8/3
f 53/8/4 54/7/4 50/9/4 49/10/4
f 51/11/5 55/6/5 53/8/5 49/12/5
f 56/5/6 52/13/6 50/14/6 54/7/6
f 57/1/1 58/2/1 60/3/1 59/4/1
f 59/4/2 60/3/2 64/5/2 63/6/2
f 63/6/3 64/5/3 62/7/3 61/8/3
f 61/8/4 62/7/4 58/9/4 57/10/4
f 59/11/5 63/6/5 61/8/5 57/12/5
f 64/5/6 60/13/6 58/14/6 62/7/6
f 81/1/1 82/2/1 84/3/1 83/4/1
f 83/4/2 84/3/2 88/5/2 87/6/2
f 87/6/3 88/5/3 86/7/3 85/8/3
f 85/8/4 86/7/4 82/9/4 81/10/4
f 83/11/5 87/6/5 85/8/5 81/12/5
f 88/5/6 84/13/6 82/14/6 86/7/6
f 89/1/1 90/2/1 92/3/1 91/4/1
f 91/4/2 92/3/2 96/5/2 95/6/2
f 95/6/3 96/5/3 94/7/3 93/8/3
f 93/8/4 94/7/4 90/9/4 89/10/4
f 91/11/5 95/6/5 93/8/5 89/12/5
f 96/5/6 92/13/6 90/14/6 94/7/6
f 113/1/1 114/2/1 116/3/1 115/4/1
f 115/4/2 116/3/2 120/5/2 119/6/2
f 119/6/3 120/5/3 118/7/3 117/8/3
f 117/8/4 118/7/4 114/9/4 113/10/4
f 115/11/5 119/6/5 117/8/5 113/12/5
f 120/5/6 116/13/6 114/14/6 118/7/6
f 121/1/1 122/2/1 124/3/1 123/4/1
f 123/4/2 124/3/2 128/5/2 127/6/2
f 127/6/3 128/5/3 126/7/3 125/8/3
f 125/8/4 126/7/4 122/9/4 121/10/4
f 123/11/5 127/6/5 125/8/5 121/12/5
f 128/5/6 124/13/6 122/14/6 126/7/6
f 145/1/1 146/2/1 148/3/1 147/4/1
f 147/4/2 148/3/2 152/5/2 151/6/2
f 151/6/3 152/5/3 150/7/3 149/8/3
f 149/8/4 150/7/4 146/9/4 145/10/4
f 147/11/5 151/6/5 149/8/5 145/12/5
f 152/5/6 148/13/6 146/14/6 150/7/6
f 153/1/1 154/2/1 156/3/1 155/4/1
f 155/4/2 156/3/2 160/5/2 159/6/2
f 159/6/3 160/5/3 158/7/3 157/8/3
f 157/8/4 158/7/4 154/9/4 153/10/4
f 155/11/5 159/6/5 157/8/5 153/12/5
f 160/5/6 156/13/6 154/14/6 158/7/6
f 177/1/1 178/2/1 180/3/1 179/4/1
f 179/4/2 180/3/2 184/5/2 183/6/2
f 183/6/3 184/5/3 182/7/3 181/8/3
f 181/8/4 182/7/4 178/9/4 177/10/4
f 179/11/5 183/6/5 181/8/5 177/12/5
f 184/5/6 180/13/6 178/14/6 182/7/6
f 185/1/1 186/2/1 188/3/1 187/4/1
f 187/4/2 188/3/2 192/5/2 191/6/2
f 191/6/3 192/5/3 190/7/3 189/8/3
f 189/8/4 190/7/4 186/9/4 185/10/4
f 187/11/5 191/6/5 189/8/5 185/12/5
f 192/5/6 188/13/6 186/14/6 190/7/6
f 209/1/1 210/2/1 212/3/1 211/4/1
f 211/4/2 212/3/2 216/5/2 215/6/2
f 215/6/3 216/5/3 214/7/3 213/8/3
f 213/8/4 214/7/4 210/9/4 209/10/4
f 211/11/5 215/6/5 213/8/5 209/12/5
f 216/5/6 212/13/6 210/14/6 214/7/6
f 217/1/1 218/2/1 220/3/1 219/4/1
f 219/4/2 220/3/2 224/5/2 223/6/2
f 223/6/3 224/5/3 222/7/3 221/8/3
f 221/8/4 222/7/4 218/9/4 217/10/4
f 219/11/5 223/6/5 221/8/5 217/12/5
f 224/5/6 220/13/6 218/14/6 222/7/6
f 241/1/1 242/2/1 244/3/1 243/4/1
f 243/4/2 244/3/2 248/5/2 247/6/2
f 247/6/3 248/5/3 246/7/3 245/8/3
f 245/8/4 246/7/4 242/9/4 241/10/4
f 243/11/5 247/6/5 245/8/5 241/12/5
f 248/5/6 244/13/6 242/14/6 246/7/6
f 249/1/1 250/2/1 252/3/1 251/4/1
f 251/4/2 252/3/2 256/5/2 255/6/2
f 255/6/3 256/5/3 254/7/3 253/8/3
f 253/8/4 254/7/4 250/9/4 249/10/4
f 251/11/5 255/6/5 253/8/5 249/12/5
f 256/5/6 252/13/6 250/14/6 254/7/6
f 273/1/1 274/2/1 276/3/1 275/4/1
f 275/4/2 276/3/2 280/5/2 279/6/2
f 279/6/3 280/5/3 278/7/3 277/8/3
f 277/8/4 278/7/4 274/9/4 273/10/4
f 275/11/5 279/6/5 277/8/5 273/12/5
f 280/5/6 276/13/6 274/14/6 278/7/6
f 281/1/1 282/2/1 284/3/1 283/4/1
f 283/4/2 284/3/2 288/5/2 287/6/2
f 287/6/3 288/5/3 286/7/3 285/8/3
f 285/8/4 286/7/4 282/9/4 281/10/4
f 283/11/5 287/6/5 285/8/5 281/12/5
f 288/5/6 284/13/6 282/14/6 286/7/6
usemtl Mat_TrainSeat
f 329/1/1 330/2/1 332/3/1 331/4/1
f 331/4/2 332/3/2 336/5/2 335/6/2
f 335/6/3 336/5/3 334/7/3 333/8/3
f 333/8/4 334/7/4 330/9/4 329/10/4
f 331/11/5 335/6/5 333/8/5 329/12/5
f 336/5/6 332/13/6 330/14/6 334/7/6
f 337/1/1 338/2/1 340/3/1 339/4/1
f 339/4/2 340/3/2 344/5/2 343/6/2
f 343/6/3 344/5/3 342/7/3 341/8/3
f 341/8/4 342/7/4 338/9/4 337/10/4
f 339/11/5 343/6/5 341/8/5 337/12/5
f 344/5/6 340/13/6 338/14/6 342/7/6
f 345/1/1 346/2/1 348/3/1 347/4/1
f 347/4/2 348/3/2 352/5/2 351/6/2
f 351/6/3 352/5/3 350/7/3 349/8/3
f 349/8/4 350/7/4 346/9/4 345/10/4
f 347/11/5 351/6/5 349/8/5 345/12/5
f 352/5/6 348/13/6 346/14/6 350/7/6
f 353/1/1 354/2/1 356/3/1 355/4/1
f 355/4/2 356/3/2 360/5/2 359/6/2
f 359/6/3 360/5/3 358/7/3 357/8/3
f 357/8/4 358/7/4 354/9/4 353/10/4
f 355/11/5 359/6/5 357/8/5 353/12/5
f 360/5/6 356/13/6 354/14/6 358/7/6
f 361/1/1 362/2/1 364/3/1 363/4/1
f 363/4/2 364/3/2 368/5/2 367/6/2
f 367/6/3 368/5/3 366/7/3 365/8/3
f 365/8/4 366/7/4 362/9/4 361/10/4
f 363/11/5 367/6/5 365/8/5 361/12/5
f 368/5/6 364/13/6 362/14/6 366/7/6
f 369/1/1 370/2/1 372/3/1 371/4/1
f 371/4/2 372/3/2 376/5/2 375/6/2
f 375/6/3 376/5/3 374/7/3 373/8/3
f 373/8/4 374/7/4 370/9/4 369/10/4
f 371/11/5 375/6/5 373/8/5 369/12/5
f 376/5/6 372/13/6 370/14/6 374/7/6
f 377/1/1 378/2/1 380/3/1 379/4/1
f 379/4/2 380/3/2 384/5/2 383/6/2
f 383/6/3 384/5/3 382/7/3 381/8/3
f 381/8/4 382/7/4 378/9/4 377/10/4
f 379/11/5 383/6/5 381/8/5 377/12/5
f 384/5/6 380/13/6 378/14/6 382/7/6
f 385/1/1 386/2/1 388/3/1 387/4/1
f 387/4/2 388/3/2 392/5/2 391/6/2
f 391/6/3 392/5/3 390/7/3 389/8/3
f 389/8/4 390/7/4 386/9/4 385/10/4
f 387/11/5 391/6/5 389/8/5 385/12/5
f 392/5/6 388/13/6 386/14/6 390/7/6
f 393/1/1 394/2/1 396/3/1 395/4/1
f 395/4/2 396/3/2 400/5/2 399/6/2
f 399/6/3 400/5/3 398/7/3 397/8/3
f 397/8/4 398/7/4 394/9/4 393/10/4
f 395/11/5 399/6/5 397/8/5 393/12/5
f 400/5/6 396/13/6 394/14/6 398/7/6
f 401/1/1 402/2/1 404/3/1 403/4/1
f 403/4/2 404/3/2 408/5/2 407/6/2
f 407/6/3 408/5/3 406/7/3 405/8/3
f 405/8/4 406/7/4 402/9/4 401/10/4
f 403/11/5 407/6/5 405/8/5 401/12/5
f 408/5/6 404/13/6 402/14/6 406/7/6
usemtl Mat_WheelBogie
f 425/1/1 426/2/1 428/3/1 427/4/1
f 427/4/2 428/3/2 432/5/2 431/6/2
f 431/6/3 432/5/3 430/7/3 429/8/3
f 429/8/4 430/7/4 426/9/4 425/10/4
f 427/11/5 431/6/5 429/8/5 425/12/5
f 432/5/6 428/13/6 426/14/6 430/7/6
f 433/15/7 434/16/7 436/17/7 435/18/7
f 435/18/8 436/17/8 438/19/8 437/13/8
f 437/13/9 438/19/9 440/20/9 439/21/9
f 439/21/10 440/20/10 442/22/10 441/23/10
f 441/23/11 442/22/11 444/24/11 443/25/11
f 443/25/12 444/24/12 446/9/12 445/5/12
f 445/5/13 446/9/13 448/26/13 447/27/13
f 447/27/14 448/26/14 450/28/14 449/29/14
f 449/29/15 450/28/15 452/30/15 451/31/15
f 451/31/16 452/30/16 454/10/16 453/6/16
f 453/6/17 454/10/17 456/32/17 455/33/17
f 455/33/18 456/32/18 458/34/18 457/35/18
f 457/35/19 458/34/19 460/36/19 459/37/19
f 459/37/20 460/36/20 462/38/20 461/11/20
f 436/39/6 434/40/6 464/41/6 462/42/6 460/43/6 458/44/6 456/45/6 454/46/6 452/47/6 450/48/6 448/49/6 446/50/6 444/51/6 442/52/6 440/53/6 438/54/6
f 461/11/21 462/38/21 464/55/21 463/56/21
f 463/56/22 464/55/22 434/57/22 433/58/22
f 433/59/5 435/60/5 437/61/5 439/62/5 441/63/5 443/64/5 445/65/5 447/66/5 449/67/5 451/68/5 453/69/5 455/70/5 457/71/5 459/72/5 461/73/5 463/74/5
f 465/15/7 466/16/7 468/17/7 467/18/7
f 467/18/8 468/17/8 470/19/8 469/13/8
f 469/13/9 470/19/9 472/20/9 471/21/9
f 471/21/10 472/20/10 474/22/10 473/23/10
f 473/23/11 474/22/11 476/24/11 475/25/11
f 475/25/12 476/24/12 478/9/12 477/5/12
f 477/5/13 478/9/13 480/26/13 479/27/13
f 479/27/14 480/26/14 482/28/14 481/29/14
f 481/29/15 482/28/15 484/30/15 483/31/15
f 483/31/16 484/30/16 486/10/16 485/6/16
f 485/6/17 486/10/17 488/32/17 487/33/17
f 487/33/18 488/32/18 490/34/18 489/35/18
f 489/35/19 490/34/19 492/36/19 491/37/19
f 491/37/20 492/36/20 494/38/20 493/11/20
f 468/39/6 466/40/6 496/41/6 494/42/6 492/43/6 490/44/6 488/45/6 486/46/6 484/47/6 482/48/6 480/49/6 478/50/6 476/51/6 474/52/6 472/53/6 470/54/6
f 493/11/21 494/38/21 496/55/21 495/56/21
f 495/56/22 496/55/22 466/57/22 465/58/22
f 465/59/5 467/60/5 469/61/5 471/62/5 473/63/5 475/64/5 477/65/5 479/66/5 481/67/5 483/68/5 485/69/5 487/70/5 489/71/5 491/72/5 493/73/5 495/74/5
f 497/15/7 498/16/7 500/17/7 499/18/7
f 499/18/8 500/17/8 502/19/8 501/13/8
f 501/13/9 502/19/9 504/20/9 503/21/9
f 503/21/10 504/20/10 506/22/10 505/23/10
f 505/23/11 506/22/11 508/24/11 507/25/11
f 507/25/12 508/24/12 510/9/12 509/5/12
f 509/5/13 510/9/13 512/26/13 511/27/13
f 511/27/14 512/26/14 514/28/14 513/29/14
f 513/29/15 514/28/15 516/30/15 515/31/15
f 515/31/16 516/30/16 518/10/16 517/6/16
f 517/6/17 518/10/17 520/32/17 519/33/17
f 519/33/18 520/32/18 522/34/18 521/35/18
f 521/35/19 522/34/19 524/36/19 523/37/19
f 523/37/20 524/36/20 526/38/20 525/11/20
f 500/39/6 498/40/6 528/41/6 526/42/6 524/43/6 522/44/6 520/45/6 518/46/6 516/47/6 514/48/6 512/49/6 510/50/6 508/51/6 506/52/6 504/53/6 502/54/6
f 525/11/21 526/38/21 528/55/21 527/56/21
f 527/56/22 528/55/22 498/57/22 497/58/22
f 497/59/5 499/60/5 501/61/5 503/62/5 505/63/5 507/64/5 509/65/5 511/66/5 513/67/5 515/68/5 517/69/5 519/70/5 521/71/5 523/72/5 525/73/5 527/74/5
f 529/15/7 530/16/7 532/17/7 531/18/7
f 531/18/8 532/17/8 534/19/8 533/13/8
f 533/13/9 534/19/9 536/20/9 535/21/9
f 535/21/10 536/20/10 538/22/10 537/23/10
f 537/23/11 538/22/11 540/24/11 539/25/11
f 539/25/12 540/24/12 542/9/12 541/5/12
f 541/5/13 542/9/13 544/26/13 543/27/13
f 543/27/14 544/26/14 546/28/14 545/29/14
f 545/29/15 546/28/15 548/30/15 547/31/15
f 547/31/16 548/30/16 550/10/16 549/6/16
f 549/6/17 550/10/17 552/32/17 551/33/17
f 551/33/18 552/32/18 554/34/18 553/35/18
f 553/35/19 554/34/19 556/36/19 555/37/19
f 555/37/20 556/36/20 558/38/20 557/11/20
f 532/39/6 530/40/6 560/41/6 558/42/6 556/43/6 554/44/6 552/45/6 550/46/6 548/47/6 546/48/6 544/49/6 542/50/6 540/51/6 538/52/6 536/53/6 534/54/6
f 557/11/21 558/38/21 560/55/21 559/56/21
f 559/56/22 560/55/22 530/57/22 529/58/22
f 529/59/5 531/60/5 533/61/5 535/62/5 537/63/5 539/64/5 541/65/5 543/66/5 545/67/5 547/68/5 549/69/5 551/70/5 553/71/5 555/72/5 557/73/5 559/74/5
f 561/1/1 562/2/1 564/3/1 563/4/1
f 563/4/2 564/3/2 568/5/2 567/6/2
f 567/6/3 568/5/3 566/7/3 565/8/3
f 565/8/4 566/7/4 562/9/4 561/10/4
f 563/11/5 567/6/5 565/8/5 561/12/5
f 568/5/6 564/13/6 562/14/6 566/7/6
f 569/15/7 570/16/7 572/17/7 571/18/7
f 571/18/8 572/17/8 574/19/8 573/13/8
f 573/13/9 574/19/9 576/20/9 575/21/9
f 575/21/10 576/20/10 578/22/10 577/23/10
f 577/23/11 578/22/11 580/24/11 579/25/11
f 579/25/12 580/24/12 582/9/12 581/5/12
f 581/5/13 582/9/13 584/26/13 583/27/13
f 583/27/14 584/26/14 586/28/14 585/29/14
f 585/29/15 586/28/15 588/30/15 587/31/15
f 587/31/16 588/30/16 590/10/16 589/6/16
f 589/6/17 590/10/17 592/32/17 591/33/17
f 591/33/18 592/32/18 594/34/18 593/35/18
f 593/35/19 594/34/19 596/36/19 595/37/19
f 595/37/20 596/36/20 598/38/20 597/11/20
f 572/39/6 570/40/6 600/41/6 598/42/6 596/43/6 594/44/6 592/45/6 590/46/6 588/47/6 586/48/6 584/49/6 582/50/6 580/51/6 578/52/6 576/53/6 574/54/6
f 597/11/21 598/38/21 600/55/21 599/56/21
f 599/56/22 600/55/22 570/57/22 569/58/22
f 569/59/5 571/60/5 573/61/5 575/62/5 577/63/5 579/64/5 581/65/5 583/66/5 585/67/5 587/68/5 589/69/5 591/70/5 593/71/5 595/72/5 597/73/5 599/74/5
f 601/15/7 602/16/7 604/17/7 603/18/7
f 603/18/8 604/17/8 606/19/8 605/13/8
f 605/13/9 606/19/9 608/20/9 607/21/9
f 607/21/10 608/20/10 610/22/10 609/23/10
f 609/23/11 610/22/11 612/24/11 611/25/11
f 611/25/12 612/24/12 614/9/12 613/5/12
f 613/5/13 614/9/13 616/26/13 615/27/13
f 615/27/14 616/26/14 618/28/14 617/29/14
f 617/29/15 618/28/15 620/30/15 619/31/15
f 619/31/16 620/30/16 622/10/16 621/6/16
f 621/6/17 622/10/17 624/32/17 623/33/17
f 623/33/18 624/32/18 626/34/18 625/35/18
f 625/35/19 626/34/19 628/36/19 627/37/19
f 627/37/20 628/36/20 630/38/20 629/11/20
f 604/39/6 602/40/6 632/41/6 630/42/6 628/43/6 626/44/6 624/45/6 622/46/6 620/47/6 618/48/6 616/49/6 614/50/6 612/51/6 610/52/6 608/53/6 606/54/6
f 629/11/21 630/38/21 632/55/21 631/56/21
f 631/56/22 632/55/22 602/57/22 601/58/22
f 601/59/5 603/60/5 605/61/5 607/62/5 609/63/5 611/64/5 613/65/5 615/66/5 617/67/5 619/68/5 621/69/5 623/70/5 625/71/5 627/72/5 629/73/5 631/74/5
f 633/15/7 634/16/7 636/17/7 635/18/7
f 635/18/8 636/17/8 638/19/8 637/13/8
f 637/13/9 638/19/9 640/20/9 639/21/9
f 639/21/10 640/20/10 642/22/10 641/23/10
f 641/23/11 642/22/11 644/24/11 643/25/11
f 643/25/12 644/24/12 646/9/12 645/5/12
f 645/5/13 646/9/13 648/26/13 647/27/13
f 647/27/14 648/26/14 650/28/14 649/29/14
f 649/29/15 650/28/15 652/30/15 651/31/15
f 651/31/16 652/30/16 654/10/16 653/6/16
f 653/6/17 654/10/17 656/32/17 655/33/17
f 655/33/18 656/32/18 658/34/18 657/35/18
f 657/35/19 658/34/19 660/36/19 659/37/19
f 659/37/20 660/36/20 662/38/20 661/11/20
f 636/39/6 634/40/6 664/41/6 662/42/6 660/43/6 658/44/6 656/45/6 654/46/6 652/47/6 650/48/6 648/49/6 646/50/6 644/51/6 642/52/6 640/53/6 638/54/6
f 661/11/21 662/38/21 664/55/21 663/56/21
f 663/56/22 664/55/22 634/57/22 633/58/22
f 633/59/5 635/60/5 637/61/5 639/62/5 641/63/5 643/64/5 645/65/5 647/66/5 649/67/5 651/68/5 653/69/5 655/70/5 657/71/5 659/72/5 661/73/5 663/74/5
f 665/15/7 666/16/7 668/17/7 667/18/7
f 667/18/8 668/17/8 670/19/8 669/13/8
f 669/13/9 670/19/9 672/20/9 671/21/9
f 671/21/10 672/20/10 674/22/10 673/23/10
f 673/23/11 674/22/11 676/24/11 675/25/11
f 675/25/12 676/24/12 678/9/12 677/5/12
f 677/5/13 678/9/13 680/26/13 679/27/13
f 679/27/14 680/26/14 682/28/14 681/29/14
f 681/29/15 682/28/15 684/30/15 683/31/15
f 683/31/16 684/30/16 686/10/16 685/6/16
f 685/6/17 686/10/17 688/32/17 687/33/17
f 687/33/18 688/32/18 690/34/18 689/35/18
f 689/35/19 690/34/19 692/36/19 691/37/19
f 691/37/20 692/36/20 694/38/20 693/11/20
f 668/39/6 666/40/6 696/41/6 694/42/6 692/43/6 690/44/6 688/45/6 686/46/6 684/47/6 682/48/6 680/49/6 678/50/6 676/51/6 674/52/6 672/53/6 670/54/6
f 693/11/21 694/38/21 696/55/21 695/56/21
f 695/56/22 696/55/22 666/57/22 665/58/22
f 665/59/5 667/60/5 669/61/5 671/62/5 673/63/5 675/64/5 677/65/5 679/66/5 681/67/5 683/68/5 685/69/5 687/70/5 689/71/5 691/72/5 693/73/5 695/74/5
