# Blender 4.0.2
# www.blender.org
mtllib boss_arena.mtl
o BossArenaMesh
v -17.000000 -17.000000 0.100000
v -17.000000 17.000000 0.100000
v -17.000000 -17.000000 -0.100000
v -17.000000 17.000000 -0.100000
v 17.000000 -17.000000 0.100000
v 17.000000 17.000000 0.100000
v 17.000000 -17.000000 -0.100000
v 17.000000 17.000000 -0.100000
v -16.500000 -16.400000 -0.097500
v -16.500000 -15.600000 -0.097500
v -16.500000 -16.400000 -0.112500
v -16.500000 -15.600000 -0.112500
v 16.500000 -16.400000 -0.097500
v 16.500000 -15.600000 -0.097500
v 16.500000 -16.400000 -0.112500
v 16.500000 -15.600000 -0.112500
v -16.500000 15.600000 -0.097500
v -16.500000 16.400000 -0.097500
v -16.500000 15.600000 -0.112500
v -16.500000 16.400000 -0.112500
v 16.500000 15.600000 -0.097500
v 16.500000 16.400000 -0.097500
v 16.500000 15.600000 -0.112500
v 16.500000 16.400000 -0.112500
v -16.400000 -16.500000 -0.097500
v -16.400000 16.500000 -0.097500
v -16.400000 -16.500000 -0.112500
v -16.400000 16.500000 -0.112500
v -15.600000 -16.500000 -0.097500
v -15.600000 16.500000 -0.097500
v -15.600000 -16.500000 -0.112500
v -15.600000 16.500000 -0.112500
v 15.600000 -16.500000 -0.097500
v 15.600000 16.500000 -0.097500
v 15.600000 -16.500000 -0.112500
v 15.600000 16.500000 -0.112500
v 16.400000 -16.500000 -0.097500
v 16.400000 16.500000 -0.097500
v 16.400000 -16.500000 -0.112500
v 16.400000 16.500000 -0.112500
v -17.500000 -17.500000 0.000000
v -17.500000 -16.900002 0.000000
v -17.500000 -17.500000 -8.000000
v -17.500000 -16.900002 -8.000000
v 17.500000 -17.500000 0.000000
v 17.500000 -16.900002 0.000000
v 17.500000 -17.500000 -8.000000
v 17.500000 -16.900002 -8.000000
v -17.500000 16.900002 0.000000
v -17.500000 17.500000 0.000000
v -17.500000 16.900002 -8.000000
v -17.500000 17.500000 -8.000000
v 17.500000 16.900002 0.000000
v 17.500000 17.500000 0.000000
v 17.500000 16.900002 -8.000000
v 17.500000 17.500000 -8.000000
v -17.500000 -17.500000 0.000000
v -17.500000 17.500000 0.000000
v -17.500000 -17.500000 -8.000000
v -17.500000 17.500000 -8.000000
v -16.900002 -17.500000 0.000000
v -16.900002 17.500000 0.000000
v -16.900002 -17.500000 -8.000000
v -16.900002 17.500000 -8.000000
v 16.900002 -17.500000 0.000000
v 16.900002 17.500000 0.000000
v 16.900002 -17.500000 -8.000000
v 16.900002 17.500000 -8.000000
v 17.500000 -17.500000 0.000000
v 17.500000 17.500000 0.000000
v 17.500000 -17.500000 -8.000000
v 17.500000 17.500000 -8.000000
v -16.000000 -16.100000 -5.410000
v -16.000000 -13.900000 -5.410000
v -16.000000 -16.100000 -5.590000
v -16.000000 -13.900000 -5.590000
v 16.000000 -16.100000 -5.410000
v 16.000000 -13.900000 -5.410000
v 16.000000 -16.100000 -5.590000
v 16.000000 -13.900000 -5.590000
v -16.000000 -15.025000 -5.650000
v -16.000000 -14.975000 -5.650000
v -16.000000 -15.025000 -6.750000
v -16.000000 -14.975000 -6.750000
v 16.000000 -15.025000 -5.650000
v 16.000000 -14.975000 -5.650000
v 16.000000 -15.025000 -6.750000
v 16.000000 -14.975000 -6.750000
v -16.000000 13.900000 -5.410000
v -16.000000 16.100000 -5.410000
v -16.000000 13.900000 -5.590000
v -16.000000 16.100000 -5.590000
v 16.000000 13.900000 -5.410000
v 16.000000 16.100000 -5.410000
v 16.000000 13.900000 -5.590000
v 16.000000 16.100000 -5.590000
v -16.000000 14.975000 -5.650000
v -16.000000 15.025000 -5.650000
v -16.000000 14.975000 -6.750000
v -16.000000 15.025000 -6.750000
v 16.000000 14.975000 -5.650000
v 16.000000 15.025000 -5.650000
v 16.000000 14.975000 -6.750000
v 16.000000 15.025000 -6.750000
v 3.500000 -2.500000 -2.650000
v 3.500000 2.500000 -2.650000
v 3.588168 -2.500000 -2.621353
v 3.588168 2.500000 -2.621353
v 3.642658 -2.500000 -2.546353
v 3.642658 2.500000 -2.546353
v 3.642658 -2.500000 -2.453647
v 3.642658 2.500000 -2.453647
v 3.588168 -2.500000 -2.378647
v 3.588168 2.500000 -2.378647
v 3.500000 -2.500000 -2.350000
v 3.500000 2.500000 -2.350000
v 3.411832 -2.500000 -2.378647
v 3.411832 2.500000 -2.378647
v 3.357342 -2.500000 -2.453647
v 3.357342 2.500000 -2.453647
v 3.357342 -2.500000 -2.546353
v 3.357342 2.500000 -2.546353
v 3.411832 -2.500000 -2.621353
v 3.411832 2.500000 -2.621353
v 0.000000 1.000000 -2.650000
v 0.000000 6.000000 -2.650000
v 0.088168 1.000000 -2.621353
v 0.088168 6.000000 -2.621353
v 0.142658 1.000000 -2.546353
v 0.142658 6.000000 -2.546353
v 0.142658 1.000000 -2.453647
v 0.142658 6.000000 -2.453647
v 0.088168 1.000000 -2.378647
v 0.088168 6.000000 -2.378647
v 0.000000 1.000000 -2.350000
v 0.000000 6.000000 -2.350000
v -0.088168 1.000000 -2.378647
v -0.088168 6.000000 -2.378647
v -0.142658 1.000000 -2.453647
v -0.142658 6.000000 -2.453647
v -0.142658 1.000000 -2.546353
v -0.142658 6.000000 -2.546353
v -0.088168 1.000000 -2.621353
v -0.088168 6.000000 -2.621353
v -3.500000 -2.500000 -2.650000
v -3.500000 2.500000 -2.650000
v -3.411832 -2.500000 -2.621353
v -3.411832 2.500000 -2.621353
v -3.357342 -2.500000 -2.546353
v -3.357342 2.500000 -2.546353
v -3.357342 -2.500000 -2.453647
v -3.357342 2.500000 -2.453647
v -3.411832 -2.500000 -2.378647
v -3.411832 2.500000 -2.378647
v -3.500000 -2.500000 -2.350000
v -3.500000 2.500000 -2.350000
v -3.588168 -2.500000 -2.378647
v -3.588168 2.500000 -2.378647
v -3.642658 -2.500000 -2.453647
v -3.642658 2.500000 -2.453647
v -3.642658 -2.500000 -2.546353
v -3.642658 2.500000 -2.546353
v -3.588168 -2.500000 -2.621353
v -3.588168 2.500000 -2.621353
v -0.000000 -6.000000 -2.650000
v -0.000000 -1.000000 -2.650000
v 0.088168 -6.000000 -2.621353
v 0.088168 -1.000000 -2.621353
v 0.142658 -6.000000 -2.546353
v 0.142658 -1.000000 -2.546353
v 0.142658 -6.000000 -2.453647
v 0.142658 -1.000000 -2.453647
v 0.088168 -6.000000 -2.378647
v 0.088168 -1.000000 -2.378647
v -0.000000 -6.000000 -2.350000
v -0.000000 -1.000000 -2.350000
v -0.088168 -6.000000 -2.378647
v -0.088168 -1.000000 -2.378647
v -0.142658 -6.000000 -2.453647
v -0.142658 -1.000000 -2.453647
v -0.142658 -6.000000 -2.546353
v -0.142658 -1.000000 -2.546353
v -0.088168 -6.000000 -2.621353
v -0.088168 -1.000000 -2.621353
v 0.000000 -0.175000 -8.400000
v 0.000000 0.175000 -8.400000
v 1.377660 -0.175000 -8.125966
v 1.377660 0.175000 -8.125966
v 2.545584 -0.175000 -7.345584
v 2.545584 0.175000 -7.345584
v 3.325966 -0.175000 -6.177660
v 3.325966 0.175000 -6.177660
v 3.600000 -0.175000 -4.800000
v 3.600000 0.175000 -4.800000
v 3.325966 -0.175000 -3.422340
v 3.325966 0.175000 -3.422340
v 2.545584 -0.175000 -2.254416
v 2.545584 0.175000 -2.254416
v 1.377660 -0.175000 -1.474034
v 1.377660 0.175000 -1.474034
v 0.000000 -0.175000 -1.200000
v 0.000000 0.175000 -1.200000
v -1.377660 -0.175000 -1.474034
v -1.377660 0.175000 -1.474034
v -2.545584 -0.175000 -2.254416
v -2.545584 0.175000 -2.254416
v -3.325966 -0.175000 -3.422340
v -3.325966 0.175000 -3.422340
v -3.600000 -0.175000 -4.800000
v -3.600000 0.175000 -4.800000
v -3.325966 -0.175000 -6.177660
v -3.325966 0.175000 -6.177660
v -2.545584 -0.175000 -7.345584
v -2.545584 0.175000 -7.345584
v -1.377660 -0.175000 -8.125966
v -1.377660 0.175000 -8.125966
v -10.225000 -10.225000 -5.025000
v -10.225000 -9.775000 -5.025000
v -10.225000 -10.225000 -5.375000
v -10.225000 -9.775000 -5.375000
v -9.775000 -10.225000 -5.025000
v -9.775000 -9.775000 -5.025000
v -9.775000 -10.225000 -5.375000
v -9.775000 -9.775000 -5.375000
v -9.950502 -9.878757 -4.949498
v -9.914268 -9.930000 -4.985732
v -9.901005 -10.000000 -4.998995
v -9.914268 -10.070000 -4.985732
v -9.950502 -10.121243 -4.949498
v -9.930000 -9.878757 -4.900000
v -9.878757 -9.930000 -4.900000
v -9.860000 -10.000000 -4.900000
v -9.878757 -10.070000 -4.900000
v -9.930000 -10.121243 -4.900000
v -9.950502 -9.878757 -4.850502
v -9.914268 -9.930000 -4.814268
v -9.901005 -10.000000 -4.801005
v -9.914268 -10.070000 -4.814268
v -9.950502 -10.121243 -4.850502
v -10.000000 -9.878757 -4.830000
v -10.000000 -9.930000 -4.778757
v -10.000000 -10.000000 -4.760000
v -10.000000 -10.070000 -4.778757
v -10.000000 -10.121243 -4.830000
v -10.000000 -9.860000 -4.900000
v -10.049498 -9.878757 -4.850502
v -10.085732 -9.930000 -4.814268
v -10.098995 -10.000000 -4.801005
v -10.085732 -10.070000 -4.814268
v -10.049498 -10.121243 -4.850502
v -10.000000 -10.140000 -4.900000
v -10.070000 -9.878757 -4.900000
v -10.121243 -9.930000 -4.900000
v -10.140000 -10.000000 -4.900000
v -10.121243 -10.070000 -4.900000
v -10.070000 -10.121243 -4.900000
v -10.049498 -9.878757 -4.949498
v -10.085732 -9.930000 -4.985732
v -10.098995 -10.000000 -4.998995
v -10.085732 -10.070000 -4.985732
v -10.049498 -10.121243 -4.949498
v -10.000000 -9.878757 -4.970000
v -10.000000 -9.930000 -5.021244
v -10.000000 -10.000000 -5.040000
v -10.000000 -10.070000 -5.021244
v -10.000000 -10.121243 -4.970000
v 9.775000 -10.225000 -5.025000
v 9.775000 -9.775000 -5.025000
v 9.775000 -10.225000 -5.375000
v 9.775000 -9.775000 -5.375000
v 10.225000 -10.225000 -5.025000
v 10.225000 -9.775000 -5.025000
v 10.225000 -10.225000 -5.375000
v 10.225000 -9.775000 -5.375000
v 10.049498 -9.878757 -4.949498
v 10.085732 -9.930000 -4.985732
v 10.098995 -10.000000 -4.998995
v 10.085732 -10.070000 -4.985732
v 10.049498 -10.121243 -4.949498
v 10.070000 -9.878757 -4.900000
v 10.121243 -9.930000 -4.900000
v 10.140000 -10.000000 -4.900000
v 10.121243 -10.070000 -4.900000
v 10.070000 -10.121243 -4.900000
v 10.049498 -9.878757 -4.850502
v 10.085732 -9.930000 -4.814268
v 10.098995 -10.000000 -4.801005
v 10.085732 -10.070000 -4.814268
v 10.049498 -10.121243 -4.850502
v 10.000000 -9.878757 -4.830000
v 10.000000 -9.930000 -4.778757
v 10.000000 -10.000000 -4.760000
v 10.000000 -10.070000 -4.778757
v 10.000000 -10.121243 -4.830000
v 10.000000 -9.860000 -4.900000
v 9.950502 -9.878757 -4.850502
v 9.914268 -9.930000 -4.814268
v 9.901005 -10.000000 -4.801005
v 9.914268 -10.070000 -4.814268
v 9.950502 -10.121243 -4.850502
v 10.000000 -10.140000 -4.900000
v 9.930000 -9.878757 -4.900000
v 9.878757 -9.930000 -4.900000
v 9.860000 -10.000000 -4.900000
v 9.878757 -10.070000 -4.900000
v 9.930000 -10.121243 -4.900000
v 9.950502 -9.878757 -4.949498
v 9.914268 -9.930000 -4.985732
v 9.901005 -10.000000 -4.998995
v 9.914268 -10.070000 -4.985732
v 9.950502 -10.121243 -4.949498
v 10.000000 -9.878757 -4.970000
v 10.000000 -9.930000 -5.021244
v 10.000000 -10.000000 -5.040000
v 10.000000 -10.070000 -5.021244
v 10.000000 -10.121243 -4.970000
v -10.225000 9.775000 -5.025000
v -10.225000 10.225000 -5.025000
v -10.225000 9.775000 -5.375000
v -10.225000 10.225000 -5.375000
v -9.775000 9.775000 -5.025000
v -9.775000 10.225000 -5.025000
v -9.775000 9.775000 -5.375000
v -9.775000 10.225000 -5.375000
v -9.950502 10.121243 -4.949498
v -9.914268 10.070000 -4.985732
v -9.901005 10.000000 -4.998995
v -9.914268 9.930000 -4.985732
v -9.950502 9.878757 -4.949498
v -9.930000 10.121243 -4.900000
v -9.878757 10.070000 -4.900000
v -9.860000 10.000000 -4.900000
v -9.878757 9.930000 -4.900000
v -9.930000 9.878757 -4.900000
v -9.950502 10.121243 -4.850502
v -9.914268 10.070000 -4.814268
v -9.901005 10.000000 -4.801005
v -9.914268 9.930000 -4.814268
v -9.950502 9.878757 -4.850502
v -10.000000 10.121243 -4.830000
v -10.000000 10.070000 -4.778757
v -10.000000 10.000000 -4.760000
v -10.000000 9.930000 -4.778757
v -10.000000 9.878757 -4.830000
v -10.000000 10.140000 -4.900000
v -10.049498 10.121243 -4.850502
v -10.085732 10.070000 -4.814268
v -10.098995 10.000000 -4.801005
v -10.085732 9.930000 -4.814268
v -10.049498 9.878757 -4.850502
v -10.000000 9.860000 -4.900000
v -10.070000 10.121243 -4.900000
v -10.121243 10.070000 -4.900000
v -10.140000 10.000000 -4.900000
v -10.121243 9.930000 -4.900000
v -10.070000 9.878757 -4.900000
v -10.049498 10.121243 -4.949498
v -10.085732 10.070000 -4.985732
v -10.098995 10.000000 -4.998995
v -10.085732 9.930000 -4.985732
v -10.049498 9.878757 -4.949498
v -10.000000 10.121243 -4.970000
v -10.000000 10.070000 -5.021244
v -10.000000 10.000000 -5.040000
v -10.000000 9.930000 -5.021244
v -10.000000 9.878757 -4.970000
v 9.775000 9.775000 -5.025000
v 9.775000 10.225000 -5.025000
v 9.775000 9.775000 -5.375000
v 9.775000 10.225000 -5.375000
v 10.225000 9.775000 -5.025000
v 10.225000 10.225000 -5.025000
v 10.225000 9.775000 -5.375000
v 10.225000 10.225000 -5.375000
v 10.049498 10.121243 -4.949498
v 10.085732 10.070000 -4.985732
v 10.098995 10.000000 -4.998995
v 10.085732 9.930000 -4.985732
v 10.049498 9.878757 -4.949498
v 10.070000 10.121243 -4.900000
v 10.121243 10.070000 -4.900000
v 10.140000 10.000000 -4.900000
v 10.121243 9.930000 -4.900000
v 10.070000 9.878757 -4.900000
v 10.049498 10.121243 -4.850502
v 10.085732 10.070000 -4.814268
v 10.098995 10.000000 -4.801005
v 10.085732 9.930000 -4.814268
v 10.049498 9.878757 -4.850502
v 10.000000 10.121243 -4.830000
v 10.000000 10.070000 -4.778757
v 10.000000 10.000000 -4.760000
v 10.000000 9.930000 -4.778757
v 10.000000 9.878757 -4.830000
v 10.000000 10.140000 -4.900000
v 9.950502 10.121243 -4.850502
v 9.914268 10.070000 -4.814268
v 9.901005 10.000000 -4.801005
v 9.914268 9.930000 -4.814268
v 9.950502 9.878757 -4.850502
v 10.000000 9.860000 -4.900000
v 9.930000 10.121243 -4.900000
v 9.878757 10.070000 -4.900000
v 9.860000 10.000000 -4.900000
v 9.878757 9.930000 -4.900000
v 9.930000 9.878757 -4.900000
v 9.950502 10.121243 -4.949498
v 9.914268 10.070000 -4.985732
v 9.901005 10.000000 -4.998995
v 9.914268 9.930000 -4.985732
v 9.950502 9.878757 -4.949498
v 10.000000 10.121243 -4.970000
v 10.000000 10.070000 -5.021244
v 10.000000 10.000000 -5.040000
v 10.000000 9.930000 -5.021244
v 10.000000 9.878757 -4.970000
vn -1.0000 -0.0000 -0.0000
vn -0.0000 -0.0000 -1.0000
vn 1.0000 -0.0000 -0.0000
vn -0.0000 -0.0000 1.0000
vn -0.0000 -1.0000 -0.0000
vn -0.0000 1.0000 -0.0000
vn -0.0000 -0.6437 -0.7653
vn -0.0000 0.6437 -0.7653
vn 0.4498 0.6437 -0.6191
vn 0.4498 -0.6437 -0.6191
vn 0.7278 0.6437 -0.2365
vn 0.7278 -0.6437 -0.2365
vn 0.7278 0.6437 0.2365
vn 0.7278 -0.6437 0.2365
vn 0.4498 0.6437 0.6191
vn 0.4498 -0.6437 0.6191
vn -0.0000 0.6437 0.7653
vn -0.0000 -0.6437 0.7653
vn -0.4498 0.6437 0.6191
vn -0.4498 -0.6437 0.6191
vn -0.7278 0.6437 0.2365
vn -0.7278 -0.6437 0.2365
vn -0.7278 0.6437 -0.2365
vn -0.7278 -0.6437 -0.2365
vn -0.4498 0.6437 -0.6191
vn -0.4498 -0.6437 -0.6191
vn -0.0000 -0.6657 -0.7462
vn -0.0000 0.6657 -0.7462
vn 0.2856 0.6657 -0.6894
vn 0.2856 -0.6657 -0.6894
vn 0.5276 0.6657 -0.5276
vn 0.5276 -0.6657 -0.5276
vn 0.6894 0.6657 -0.2856
vn 0.6894 -0.6657 -0.2856
vn 0.7462 0.6657 -0.0000
vn 0.7462 -0.6657 -0.0000
vn 0.6894 0.6657 0.2856
vn 0.6894 -0.6657 0.2856
vn 0.5276 0.6657 0.5276
vn 0.5276 -0.6657 0.5276
vn 0.2856 0.6657 0.6894
vn 0.2856 -0.6657 0.6894
vn -0.0000 0.6657 0.7462
vn -0.0000 -0.6657 0.7462
vn -0.2856 0.6657 0.6894
vn -0.2856 -0.6657 0.6894
vn -0.5276 0.6657 0.5276
vn -0.5276 -0.6657 0.5276
vn -0.6894 0.6657 0.2856
vn -0.6894 -0.6657 0.2856
vn -0.7462 0.6657 -0.0000
vn -0.7462 -0.6657 -0.0000
vn -0.6894 0.6657 -0.2856
vn -0.6894 -0.6657 -0.2856
vn -0.5276 0.6657 -0.5276
vn -0.5276 -0.6657 -0.5276
vn -0.2856 0.6657 -0.6894
vn -0.2856 -0.6657 -0.6894
vn -0.0000 -0.4744 -0.8803
vn 0.7071 -0.0000 -0.7071
vn 0.6225 -0.4744 -0.6225
vn -0.0000 0.4744 -0.8803
vn -0.0000 0.8383 -0.5452
vn 0.3855 0.8383 -0.3855
vn 0.6225 0.4744 -0.6225
vn -0.0000 -0.8383 -0.5452
vn 0.3855 -0.8383 -0.3855
vn 0.8803 -0.4744 -0.0000
vn 0.5452 -0.8383 -0.0000
vn 0.8803 0.4744 -0.0000
vn 0.5452 0.8383 -0.0000
vn 0.6225 -0.4744 0.6225
vn 0.3855 -0.8383 0.3855
vn 0.6225 0.4744 0.6225
vn 0.7071 -0.0000 0.7071
vn 0.3855 0.8383 0.3855
vn -0.0000 -0.4744 0.8803
vn -0.0000 -0.8383 0.5452
vn -0.0000 0.4744 0.8803
vn -0.0000 0.8383 0.5452
vn -0.6225 0.4744 0.6225
vn -0.7071 -0.0000 0.7071
vn -0.3855 0.8383 0.3855
vn -0.3855 -0.8383 0.3855
vn -0.6225 -0.4744 0.6225
vn -0.5452 0.8383 -0.0000
vn -0.5452 -0.8383 -0.0000
vn -0.8803 -0.4744 -0.0000
vn -0.8803 0.4744 -0.0000
vn -0.3855 -0.8383 -0.3855
vn -0.7071 -0.0000 -0.7071
vn -0.6225 -0.4744 -0.6225
vn -0.3855 0.8383 -0.3855
vn -0.6225 0.4744 -0.6225
vt 0.375000 0.000000
vt 0.625000 0.000000
vt 0.625000 0.250000
vt 0.375000 0.250000
vt 0.625000 0.500000
vt 0.375000 0.500000
vt 0.625000 0.750000
vt 0.375000 0.750000
vt 0.625000 1.000000
vt 0.375000 1.000000
vt 0.125000 0.500000
vt 0.125000 0.750000
vt 0.875000 0.500000
vt 0.875000 0.750000
vt 1.000000 0.500000
vt 1.000000 1.000000
vt 0.900000 1.000000
vt 0.900000 0.500000
vt 0.800000 1.000000
vt 0.800000 0.500000
vt 0.700000 1.000000
vt 0.700000 0.500000
vt 0.600000 1.000000
vt 0.600000 0.500000
vt 0.500000 1.000000
vt 0.500000 0.500000
vt 0.400000 1.000000
vt 0.400000 0.500000
vt 0.300000 1.000000
vt 0.300000 0.500000
vt 0.200000 1.000000
vt 0.200000 0.500000
vt 0.391068 0.444164
vt 0.250000 0.490000
vt 0.108932 0.444164
vt 0.021746 0.324164
vt 0.021746 0.175836
vt 0.108932 0.055836
vt 0.250000 0.010000
vt 0.391068 0.055836
vt 0.478254 0.175836
vt 0.478254 0.324164
vt 0.100000 1.000000
vt 0.100000 0.500000
vt -0.000000 1.000000
vt -0.000000 0.500000
vt 0.750000 0.490000
vt 0.891068 0.444164
vt 0.978254 0.324164
vt 0.978254 0.175836
vt 0.891068 0.055836
vt 0.750000 0.010000
vt 0.608932 0.055836
vt 0.521746 0.175836
vt 0.521746 0.324164
vt 0.608932 0.444164
vt 0.937500 1.000000
vt 0.937500 0.500000
vt 0.875000 1.000000
vt 0.812500 1.000000
vt 0.812500 0.500000
vt 0.750000 1.000000
vt 0.750000 0.500000
vt 0.687500 1.000000
vt 0.687500 0.500000
vt 0.562500 1.000000
vt 0.562500 0.500000
vt 0.500000 1.000000
vt 0.500000 0.500000
vt 0.437500 1.000000
vt 0.437500 0.500000
vt 0.312500 1.000000
vt 0.312500 0.500000
vt 0.250000 1.000000
vt 0.250000 0.500000
vt 0.187500 1.000000
vt 0.187500 0.500000
vt 0.125000 1.000000
vt 0.341844 0.471731
vt 0.158156 0.471731
vt 0.080294 0.419706
vt 0.028269 0.341844
vt 0.010000 0.250000
vt 0.028269 0.158156
vt 0.080294 0.080294
vt 0.158156 0.028269
vt 0.250000 0.010000
vt 0.341844 0.028269
vt 0.419706 0.080294
vt 0.471731 0.158156
vt 0.490000 0.250000
vt 0.471731 0.341844
vt 0.419706 0.419706
vt 0.062500 1.000000
vt 0.062500 0.500000
vt 0.000000 1.000000
vt 0.000000 0.500000
vt 0.841844 0.471731
vt 0.919706 0.419706
vt 0.971731 0.341844
vt 0.990000 0.250000
vt 0.971731 0.158156
vt 0.919706 0.080294
vt 0.841844 0.028269
vt 0.750000 0.010000
vt 0.658156 0.028269
vt 0.580294 0.080294
vt 0.528269 0.158156
vt 0.510000 0.250000
vt 0.528269 0.341844
vt 0.580294 0.419706
vt 0.658156 0.471731
vt 0.750000 0.333333
vt 0.625000 0.333333
vt 0.750000 0.666667
vt 0.750000 0.833333
vt 0.625000 0.833333
vt 0.625000 0.666667
vt 0.750000 0.166667
vt 0.625000 0.166667
vt 0.687500 0.000000
vt 0.500000 0.333333
vt 0.500000 0.166667
vt 0.500000 0.666667
vt 0.500000 0.833333
vt 0.562500 0.000000
vt 0.375000 0.333333
vt 0.375000 0.166667
vt 0.375000 0.666667
vt 0.375000 0.833333
vt 0.437500 0.000000
vt 0.250000 0.333333
vt 0.250000 0.166667
vt 0.250000 0.666667
vt 0.250000 0.833333
vt 0.312500 0.000000
vt 0.125000 0.666667
vt 0.125000 0.833333
vt 0.187500 0.000000
vt 0.125000 0.166667
vt 0.125000 0.333333
vt 0.062500 1.000000
vt 0.000000 0.833333
vt 0.062500 0.000000
vt 0.000000 0.166667
vt 0.000000 0.333333
vt 0.000000 0.666667
vt 0.937500 0.000000
vt 1.000000 0.166667
vt 0.875000 0.166667
vt 1.000000 0.333333
vt 0.875000 0.333333
vt 1.000000 0.666667
vt 1.000000 0.833333
vt 0.875000 0.833333
vt 0.875000 0.666667
vt 0.812500 0.000000
s 0
usemtl Mat_ArenaFloor
f 1/1/1 2/2/1 4/3/1 3/4/1
f 3/4/2 4/3/2 8/5/2 7/6/2
f 7/6/3 8/5/3 6/7/3 5/8/3
f 5/8/4 6/7/4 2/9/4 1/10/4
f 3/11/5 7/6/5 5/8/5 1/12/5
f 8/5/6 4/13/6 2/14/6 6/7/6
usemtl Mat_HazardStripe
f 9/1/1 10/2/1 12/3/1 11/4/1
f 11/4/2 12/3/2 16/5/2 15/6/2
f 15/6/3 16/5/3 14/7/3 13/8/3
f 13/8/4 14/7/4 10/9/4 9/10/4
f 11/11/5 15/6/5 13/8/5 9/12/5
f 16/5/6 12/13/6 10/14/6 14/7/6
f 17/1/1 18/2/1 20/3/1 19/4/1
f 19/4/2 20/3/2 24/5/2 23/6/2
f 23/6/3 24/5/3 22/7/3 21/8/3
f 21/8/4 22/7/4 18/9/4 17/10/4
f 19/11/5 23/6/5 21/8/5 17/12/5
f 24/5/6 20/13/6 18/14/6 22/7/6
f 25/1/1 26/2/1 28/3/1 27/4/1
f 27/4/2 28/3/2 32/5/2 31/6/2
f 31/6/3 32/5/3 30/7/3 29/8/3
f 29/8/4 30/7/4 26/9/4 25/10/4
f 27/11/5 31/6/5 29/8/5 25/12/5
f 32/5/6 28/13/6 26/14/6 30/7/6
f 33/1/1 34/2/1 36/3/1 35/4/1
f 35/4/2 36/3/2 40/5/2 39/6/2
f 39/6/3 40/5/3 38/7/3 37/8/3
f 37/8/4 38/7/4 34/9/4 33/10/4
f 35/11/5 39/6/5 37/8/5 33/12/5
f 40/5/6 36/13/6 34/14/6 38/7/6
usemtl Mat_ReinforcedContainment
f 41/1/1 42/2/1 44/3/1 43/4/1
f 43/4/2 44/3/2 48/5/2 47/6/2
f 47/6/3 48/5/3 46/7/3 45/8/3
f 45/8/4 46/7/4 42/9/4 41/10/4
f 43/11/5 47/6/5 45/8/5 41/12/5
f 48/5/6 44/13/6 42/14/6 46/7/6
f 49/1/1 50/2/1 52/3/1 51/4/1
f 51/4/2 52/3/2 56/5/2 55/6/2
f 55/6/3 56/5/3 54/7/3 53/8/3
f 53/8/4 54/7/4 50/9/4 49/10/4
f 51/11/5 55/6/5 53/8/5 49/12/5
f 56/5/6 52/13/6 50/14/6 54/7/6
f 57/1/1 58/2/1 60/3/1 59/4/1
f 59/4/2 60/3/2 64/5/2 63/6/2
f 63/6/3 64/5/3 62/7/3 61/8/3
f 61/8/4 62/7/4 58/9/4 57/10/4
f 59/11/5 63/6/5 61/8/5 57/12/5
f 64/5/6 60/13/6 58/14/6 62/7/6
f 65/1/1 66/2/1 68/3/1 67/4/1
f 67/4/2 68/3/2 72/5/2 71/6/2
f 71/6/3 72/5/3 70/7/3 69/8/3
f 69/8/4 70/7/4 66/9/4 65/10/4
f 67/11/5 71/6/5 69/8/5 65/12/5
f 72/5/6 68/13/6 66/14/6 70/7/6
s 1
f 105/15/7 106/16/8 108/17/9 107/18/10
f 107/18/10 108/17/9 110/19/11 109/20/12
f 109/20/12 110/19/11 112/21/13 111/22/14
f 111/22/14 112/21/13 114/23/15 113/24/16
f 113/24/16 114/23/15 116/25/17 115/26/18
f 115/26/18 116/25/17 118/27/19 117/28/20
f 117/28/20 118/27/19 120/29/21 119/30/22
f 119/30/22 120/29/21 122/31/23 121/32/24
f 108/33/9 106/34/8 124/35/25 122/36/23 120/37/21 118/38/19 116/39/17 114/40/15 112/41/13 110/42/11
f 121/32/24 122/31/23 124/43/25 123/44/26
f 123/44/26 124/43/25 106/45/8 105/46/7
f 105/47/7 107/48/10 109/49/12 111/50/14 113/51/16 115/52/18 117/53/20 119/54/22 121/55/24 123/56/26
f 125/15/7 126/16/8 128/17/9 127/18/10
f 127/18/10 128/17/9 130/19/11 129/20/12
f 129/20/12 130/19/11 132/21/13 131/22/14
f 131/22/14 132/21/13 134/23/15 133/24/16
f 133/24/16 134/23/15 136/25/17 135/26/18
f 135/26/18 136/25/17 138/27/19 137/28/20
f 137/28/20 138/27/19 140/29/21 139/30/22
f 139/30/22 140/29/21 142/31/23 141/32/24
f 128/33/9 126/34/8 144/35/25 142/36/23 140/37/21 138/38/19 136/39/17 134/40/15 132/41/13 130/42/11
f 141/32/24 142/31/23 144/43/25 143/44/26
f 143/44/26 144/43/25 126/45/8 125/46/7
f 125/47/7 127/48/10 129/49/12 131/50/14 133/51/16 135/52/18 137/53/20 139/54/22 141/55/24 143/56/26
f 145/15/7 146/16/8 148/17/9 147/18/10
f 147/18/10 148/17/9 150/19/11 149/20/12
f 149/20/12 150/19/11 152/21/13 151/22/14
f 151/22/14 152/21/13 154/23/15 153/24/16
f 153/24/16 154/23/15 156/25/17 155/26/18
f 155/26/18 156/25/17 158/27/19 157/28/20
f 157/28/20 158/27/19 160/29/21 159/30/22
f 159/30/22 160/29/21 162/31/23 161/32/24
f 148/33/9 146/34/8 164/35/25 162/36/23 160/37/21 158/38/19 156/39/17 154/40/15 152/41/13 150/42/11
f 161/32/24 162/31/23 164/43/25 163/44/26
f 163/44/26 164/43/25 146/45/8 145/46/7
f 145/47/7 147/48/10 149/49/12 151/50/14 153/51/16 155/52/18 157/53/20 159/54/22 161/55/24 163/56/26
f 165/15/7 166/16/8 168/17/9 167/18/10
f 167/18/10 168/17/9 170/19/11 169/20/12
f 169/20/12 170/19/11 172/21/13 171/22/14
f 171/22/14 172/21/13 174/23/15 173/24/16
f 173/24/16 174/23/15 176/25/17 175/26/18
f 175/26/18 176/25/17 178/27/19 177/28/20
f 177/28/20 178/27/19 180/29/21 179/30/22
f 179/30/22 180/29/21 182/31/23 181/32/24
f 168/33/9 166/34/8 184/35/25 182/36/23 180/37/21 178/38/19 176/39/17 174/40/15 172/41/13 170/42/11
f 181/32/24 182/31/23 184/43/25 183/44/26
f 183/44/26 184/43/25 166/45/8 165/46/7
f 165/47/7 167/48/10 169/49/12 171/50/14 173/51/16 175/52/18 177/53/20 179/54/22 181/55/24 183/56/26
f 185/15/27 186/16/28 188/57/29 187/58/30
f 187/58/30 188/57/29 190/59/31 189/13/32
f 189/13/32 190/59/31 192/60/33 191/61/34
f 191/61/34 192/60/33 194/62/35 193/63/36
f 193/63/36 194/62/35 196/64/37 195/65/38
f 195/65/38 196/64/37 198/9/39 197/5/40
f 197/5/40 198/9/39 200/66/41 199/67/42
f 199/67/42 200/66/41 202/68/43 201/69/44
f 201/69/44 202/68/43 204/70/45 203/71/46
f 203/71/46 204/70/45 206/10/47 205/6/48
f 205/6/48 206/10/47 208/72/49 207/73/50
f 207/73/50 208/72/49 210/74/51 209/75/52
f 209/75/52 210/74/51 212/76/53 211/77/54
f 211/77/54 212/76/53 214/78/55 213/11/56
f 188/79/29 186/34/28 216/80/57 214/81/55 212/82/53 210/83/51 208/84/49 206/85/47 204/86/45 202/87/43 200/88/41 198/89/39 196/90/37 194/91/35 192/92/33 190/93/31
f 213/11/56 214/78/55 216/94/57 215/95/58
f 215/95/58 216/94/57 186/96/28 185/97/27
f 185/47/27 187/98/30 189/99/32 191/100/34 193/101/36 195/102/38 197/103/40 199/104/42 201/105/44 203/106/46 205/107/48 207/108/50 209/109/52 211/110/54 213/111/56 215/112/58
s 0
f 217/1/1 218/2/1 220/3/1 219/4/1
f 219/4/2 220/3/2 224/5/2 223/6/2
f 223/6/3 224/5/3 222/7/3 221/8/3
f 221/8/4 222/7/4 218/9/4 217/10/4
f 219/11/5 223/6/5 221/8/5 217/12/5
f 224/5/6 220/13/6 218/14/6 222/7/6
f 267/1/1 268/2/1 270/3/1 269/4/1
f 269/4/2 270/3/2 274/5/2 273/6/2
f 273/6/3 274/5/3 272/7/3 271/8/3
f 271/8/4 272/7/4 268/9/4 267/10/4
f 269/11/5 273/6/5 271/8/5 267/12/5
f 274/5/6 270/13/6 268/14/6 272/7/6
f 317/1/1 318/2/1 320/3/1 319/4/1
f 319/4/2 320/3/2 324/5/2 323/6/2
f 323/6/3 324/5/3 322/7/3 321/8/3
f 321/8/4 322/7/4 318/9/4 317/10/4
f 319/11/5 323/6/5 321/8/5 317/12/5
f 324/5/6 320/13/6 318/14/6 322/7/6
f 367/1/1 368/2/1 370/3/1 369/4/1
f 369/4/2 370/3/2 374/5/2 373/6/2
f 373/6/3 374/5/3 372/7/3 371/8/3
f 371/8/4 372/7/4 368/9/4 367/10/4
f 369/11/5 373/6/5 371/8/5 367/12/5
f 374/5/6 370/13/6 368/14/6 372/7/6
usemtl Mat_SteelCatwalk
f 73/1/1 74/2/1 76/3/1 75/4/1
f 75/4/2 76/3/2 80/5/2 79/6/2
f 79/6/3 80/5/3 78/7/3 77/8/3
f 77/8/4 78/7/4 74/9/4 73/10/4
f 75/11/5 79/6/5 77/8/5 73/12/5
f 80/5/6 76/13/6 74/14/6 78/7/6
f 81/1/1 82/2/1 84/3/1 83/4/1
f 83/4/2 84/3/2 88/5/2 87/6/2
f 87/6/3 88/5/3 86/7/3 85/8/3
f 85/8/4 86/7/4 82/9/4 81/10/4
f 83/11/5 87/6/5 85/8/5 81/12/5
f 88/5/6 84/13/6 82/14/6 86/7/6
f 89/1/1 90/2/1 92/3/1 91/4/1
f 91/4/2 92/3/2 96/5/2 95/6/2
f 95/6/3 96/5/3 94/7/3 93/8/3
f 93/8/4 94/7/4 90/9/4 89/10/4
f 91/11/5 95/6/5 93/8/5 89/12/5
f 96/5/6 92/13/6 90/14/6 94/7/6
f 97/1/1 98/2/1 100/3/1 99/4/1
f 99/4/2 100/3/2 104/5/2 103/6/2
f 103/6/3 104/5/3 102/7/3 101/8/3
f 101/8/4 102/7/4 98/9/4 97/10/4
f 99/11/5 103/6/5 101/8/5 97/12/5
f 104/5/6 100/13/6 98/14/6 102/7/6
s 1
usemtl Mat_AlarmLight
f 265/113/59 264/63/2 227/5/60 228/114/61
f 263/115/62 262/116/63 225/117/64 226/118/65
f 266/119/66 265/113/59 228/114/61 229/120/67
f 264/63/2 263/115/62 226/118/65 227/5/60
f 262/116/63 245/64/6 225/117/64
f 251/121/5 266/119/66 229/120/67
f 229/120/67 228/114/61 233/122/68 234/123/69
f 227/5/60 226/118/65 231/124/70 232/69/3
f 225/117/64 245/66/6 230/125/71
f 251/126/5 229/120/67 234/123/69
f 228/114/61 227/5/60 232/69/3 233/122/68
f 226/118/65 225/117/64 230/125/71 231/124/70
f 234/123/69 233/122/68 238/127/72 239/128/73
f 232/69/3 231/124/70 236/129/74 237/6/75
f 230/125/71 245/70/6 235/130/76
f 251/131/5 234/123/69 239/128/73
f 233/122/68 232/69/3 237/6/75 238/127/72
f 231/124/70 230/125/71 235/130/76 236/129/74
f 239/128/73 238/127/72 243/132/77 244/133/78
f 237/6/75 236/129/74 241/134/79 242/75/4
f 235/130/76 245/72/6 240/135/80
f 251/136/5 239/128/73 244/133/78
f 238/127/72 237/6/75 242/75/4 243/132/77
f 236/129/74 235/130/76 240/135/80 241/134/79
f 242/75/4 241/134/79 247/137/81 248/11/82
f 240/135/80 245/76/6 246/138/83
f 251/139/5 244/133/78 250/140/84
f 243/132/77 242/75/4 248/11/82 249/141/85
f 241/134/79 240/135/80 246/138/83 247/137/81
f 244/133/78 243/132/77 249/141/85 250/140/84
f 246/138/83 245/142/6 252/143/86
f 251/144/5 250/140/84 256/145/87
f 249/141/85 248/11/82 254/97/1 255/146/88
f 247/137/81 246/138/83 252/143/86 253/147/89
f 250/140/84 249/141/85 255/146/88 256/145/87
f 248/11/82 247/137/81 253/147/89 254/97/1
f 251/148/5 256/149/87 261/150/90
f 255/151/88 254/15/1 259/13/91 260/152/92
f 253/153/89 252/154/86 257/155/93 258/156/94
f 256/149/87 255/151/88 260/152/92 261/150/90
f 254/15/1 253/153/89 258/156/94 259/13/91
f 252/154/86 245/57/6 257/155/93
f 251/157/5 261/150/90 266/119/66
f 260/152/92 259/13/91 264/63/2 265/113/59
f 258/156/94 257/155/93 262/116/63 263/115/62
f 261/150/90 260/152/92 265/113/59 266/119/66
f 259/13/91 258/156/94 263/115/62 264/63/2
f 257/155/93 245/60/6 262/116/63
f 316/119/66 315/113/59 278/114/61 279/120/67
f 314/63/2 313/115/62 276/118/65 277/5/60
f 312/116/63 295/64/6 275/117/64
f 301/121/5 316/119/66 279/120/67
f 315/113/59 314/63/2 277/5/60 278/114/61
f 313/115/62 312/116/63 275/117/64 276/118/65
f 301/126/5 279/120/67 284/123/69
f 278/114/61 277/5/60 282/69/3 283/122/68
f 276/118/65 275/117/64 280/125/71 281/124/70
f 279/120/67 278/114/61 283/122/68 284/123/69
f 277/5/60 276/118/65 281/124/70 282/69/3
f 275/117/64 295/66/6 280/125/71
f 301/131/5 284/123/69 289/128/73
f 283/122/68 282/69/3 287/6/75 288/127/72
f 281/124/70 280/125/71 285/130/76 286/129/74
f 284/123/69 283/122/68 288/127/72 289/128/73
f 282/69/3 281/124/70 286/129/74 287/6/75
f 280/125/71 295/70/6 285/130/76
f 301/136/5 289/128/73 294/133/78
f 288/127/72 287/6/75 292/75/4 293/132/77
f 286/129/74 285/130/76 290/135/80 291/134/79
f 289/128/73 288/127/72 293/132/77 294/133/78
f 287/6/75 286/129/74 291/134/79 292/75/4
f 285/130/76 295/72/6 290/135/80
f 293/132/77 292/75/4 298/11/82 299/141/85
f 291/134/79 290/135/80 296/138/83 297/137/81
f 294/133/78 293/132/77 299/141/85 300/140/84
f 292/75/4 291/134/79 297/137/81 298/11/82
f 290/135/80 295/76/6 296/138/83
f 301/139/5 294/133/78 300/140/84
f 297/137/81 296/138/83 302/143/86 303/147/89
f 300/140/84 299/141/85 305/146/88 306/145/87
f 298/11/82 297/137/81 303/147/89 304/97/1
f 296/138/83 295/142/6 302/143/86
f 301/144/5 300/140/84 306/145/87
f 299/141/85 298/11/82 304/97/1 305/146/88
f 306/149/87 305/151/88 310/152/92 311/150/90
f 304/15/1 303/153/89 308/156/94 309/13/91
f 302/154/86 295/57/6 307/155/93
f 301/148/5 306/149/87 311/150/90
f 305/151/88 304/15/1 309/13/91 310/152/92
f 303/153/89 302/154/86 307/155/93 308/156/94
f 311/150/90 310/152/92 315/113/59 316/119/66
f 309/13/91 308/156/94 313/115/62 314/63/2
f 307/155/93 295/60/6 312/116/63
f 301/157/5 311/150/90 316/119/66
f 310/152/92 309/13/91 314/63/2 315/113/59
f 308/156/94 307/155/93 312/116/63 313/115/62
f 364/63/2 363/115/62 326/118/65 327/5/60
f 362/116/63 345/64/6 325/117/64
f 351/121/5 366/119/66 329/120/67
f 365/113/59 364/63/2 327/5/60 328/114/61
f 363/115/62 362/116/63 325/117/64 326/118/65
f 366/119/66 365/113/59 328/114/61 329/120/67
f 351/126/5 329/120/67 334/123/69
f 328/114/61 327/5/60 332/69/3 333/122/68
f 326/118/65 325/117/64 330/125/71 331/124/70
f 329/120/67 328/114/61 333/122/68 334/123/69
f 327/5/60 326/118/65 331/124/70 332/69/3
f 325/117/64 345/66/6 330/125/71
f 351/131/5 334/123/69 339/128/73
f 333/122/68 332/69/3 337/6/75 338/127/72
f 331/124/70 330/125/71 335/130/76 336/129/74
f 334/123/69 333/122/68 338/127/72 339/128/73
f 332/69/3 331/124/70 336/129/74 337/6/75
f 330/125/71 345/70/6 335/130/76
f 338/127/72 337/6/75 342/75/4 343/132/77
f 336/129/74 335/130/76 340/135/80 341/134/79
f 339/128/73 338/127/72 343/132/77 344/133/78
f 337/6/75 336/129/74 341/134/79 342/75/4
f 335/130/76 345/72/6 340/135/80
f 351/136/5 339/128/73 344/133/78
f 341/134/79 340/135/80 346/138/83 347/137/81
f 344/133/78 343/132/77 349/141/85 350/140/84
f 342/75/4 341/134/79 347/137/81 348/11/82
f 340/135/80 345/76/6 346/138/83
f 351/139/5 344/133/78 350/140/84
f 343/132/77 342/75/4 348/11/82 349/141/85
f 350/140/84 349/141/85 355/146/88 356/145/87
f 348/11/82 347/137/81 353/147/89 354/97/1
f 346/138/83 345/142/6 352/143/86
f 351/144/5 350/140/84 356/145/87
f 349/141/85 348/11/82 354/97/1 355/146/88
f 347/137/81 346/138/83 352/143/86 353/147/89
f 356/149/87 355/151/88 360/152/92 361/150/90
f 354/15/1 353/153/89 358/156/94 359/13/91
f 352/154/86 345/57/6 357/155/93
f 351/148/5 356/149/87 361/150/90
f 355/151/88 354/15/1 359/13/91 360/152/92
f 353/153/89 352/154/86 357/155/93 358/156/94
f 361/150/90 360/152/92 365/113/59 366/119/66
f 359/13/91 358/156/94 363/115/62 364/63/2
f 357/155/93 345/60/6 362/116/63
f 351/157/5 361/150/90 366/119/66
f 360/152/92 359/13/91 364/63/2 365/113/59
f 358/156/94 357/155/93 362/116/63 363/115/62
f 416/119/66 415/113/59 378/114/61 379/120/67
f 414/63/2 413/115/62 376/118/65 377/5/60
f 412/116/63 395/64/6 375/117/64
f 401/121/5 416/119/66 379/120/67
f 415/113/59 414/63/2 377/5/60 378/114/61
f 413/115/62 412/116/63 375/117/64 376/118/65
f 401/126/5 379/120/67 384/123/69
f 378/114/61 377/5/60 382/69/3 383/122/68
f 376/118/65 375/117/64 380/125/71 381/124/70
f 379/120/67 378/114/61 383/122/68 384/123/69
f 377/5/60 376/118/65 381/124/70 382/69/3
f 375/117/64 395/66/6 380/125/71
f 401/131/5 384/123/69 389/128/73
f 383/122/68 382/69/3 387/6/75 388/127/72
f 381/124/70 380/125/71 385/130/76 386/129/74
f 384/123/69 383/122/68 388/127/72 389/128/73
f 382/69/3 381/124/70 386/129/74 387/6/75
f 380/125/71 395/70/6 385/130/76
f 401/136/5 389/128/73 394/133/78
f 388/127/72 387/6/75 392/75/4 393/132/77
f 386/129/74 385/130/76 390/135/80 391/134/79
f 389/128/73 388/127/72 393/132/77 394/133/78
f 387/6/75 386/129/74 391/134/79 392/75/4
f 385/130/76 395/72/6 390/135/80
f 393/132/77 392/75/4 398/11/82 399/141/85
f 391/134/79 390/135/80 396/138/83 397/137/81
f 394/133/78 393/132/77 399/141/85 400/140/84
f 392/75/4 391/134/79 397/137/81 398/11/82
f 390/135/80 395/76/6 396/138/83
f 401/139/5 394/133/78 400/140/84
f 397/137/81 396/138/83 402/143/86 403/147/89
f 400/140/84 399/141/85 405/146/88 406/145/87
f 398/11/82 397/137/81 403/147/89 404/97/1
f 396/138/83 395/142/6 402/143/86
f 401/144/5 400/140/84 406/145/87
f 399/141/85 398/11/82 404/97/1 405/146/88
f 406/149/87 405/151/88 410/152/92 411/150/90
f 404/15/1 403/153/89 408/156/94 409/13/91
f 402/154/86 395/57/6 407/155/93
f 401/148/5 406/149/87 411/150/90
f 405/151/88 404/15/1 409/13/91 410/152/92
f 403/153/89 402/154/86 407/155/93 408/156/94
f 411/150/90 410/152/92 415/113/59 416/119/66
f 409/13/91 408/156/94 413/115/62 414/63/2
f 407/155/93 395/60/6 412/116/63
f 401/157/5 411/150/90 416/119/66
f 410/152/92 409/13/91 414/63/2 415/113/59
f 408/156/94 407/155/93 412/116/63 413/115/62
