# Blender 4.0.2
# www.blender.org
mtllib containment_vault.mtl
o Boss_Arena_Containment_Vault
v -14.000000 -14.000000 0.200000
v -14.000000 14.000000 0.200000
v -14.000000 -14.000000 0.000000
v -14.000000 14.000000 0.000000
v 14.000000 -14.000000 0.200000
v 14.000000 14.000000 0.200000
v 14.000000 -14.000000 0.000000
v 14.000000 14.000000 0.000000
v -13.000000 -13.400000 -0.010000
v -13.000000 -12.600000 -0.010000
v -13.000000 -13.400000 -0.030000
v -13.000000 -12.600000 -0.030000
v 13.000000 -13.400000 -0.010000
v 13.000000 -12.600000 -0.010000
v 13.000000 -13.400000 -0.030000
v 13.000000 -12.600000 -0.030000
v -13.000000 12.600000 -0.010000
v -13.000000 13.400000 -0.010000
v -13.000000 12.600000 -0.030000
v -13.000000 13.400000 -0.030000
v 13.000000 12.600000 -0.010000
v 13.000000 13.400000 -0.010000
v 13.000000 12.600000 -0.030000
v 13.000000 13.400000 -0.030000
v -13.400000 -13.000000 -0.010000
v -13.400000 13.000000 -0.010000
v -13.400000 -13.000000 -0.030000
v -13.400000 13.000000 -0.030000
v -12.600000 -13.000000 -0.010000
v -12.600000 13.000000 -0.010000
v -12.600000 -13.000000 -0.030000
v -12.600000 13.000000 -0.030000
v 12.600000 -13.000000 -0.010000
v 12.600000 13.000000 -0.010000
v 12.600000 -13.000000 -0.030000
v 12.600000 13.000000 -0.030000
v 13.400000 -13.000000 -0.010000
v 13.400000 13.000000 -0.010000
v 13.400000 -13.000000 -0.030000
v 13.400000 13.000000 -0.030000
v -14.000000 -14.750000 0.000000
v -14.000000 -13.250000 0.000000
v -14.000000 -14.750000 -10.000000
v -14.000000 -13.250000 -10.000000
v 14.000000 -14.750000 0.000000
v 14.000000 -13.250000 0.000000
v 14.000000 -14.750000 -10.000000
v 14.000000 -13.250000 -10.000000
v -14.000000 13.250000 0.000000
v -14.000000 14.750000 0.000000
v -14.000000 13.250000 -10.000000
v -14.000000 14.750000 -10.000000
v 14.000000 13.250000 0.000000
v 14.000000 14.750000 0.000000
v 14.000000 13.250000 -10.000000
v 14.000000 14.750000 -10.000000
v -14.750000 -14.000000 0.000000
v -14.750000 14.000000 0.000000
v -14.750000 -14.000000 -10.000000
v -14.750000 14.000000 -10.000000
v -13.250000 -14.000000 0.000000
v -13.250000 14.000000 0.000000
v -13.250000 -14.000000 -10.000000
v -13.250000 14.000000 -10.000000
v 13.250000 -14.000000 0.000000
v 13.250000 14.000000 0.000000
v 13.250000 -14.000000 -10.000000
v 13.250000 14.000000 -10.000000
v 14.750000 -14.000000 0.000000
v 14.750000 14.000000 0.000000
v 14.750000 -14.000000 -10.000000
v 14.750000 14.000000 -10.000000
v -3.000000 -7.000000 0.000000
v -3.000000 -1.000000 0.000000
v -3.000000 -7.000000 -0.500000
v -3.000000 -1.000000 -0.500000
v 3.000000 -7.000000 0.000000
v 3.000000 -1.000000 0.000000
v 3.000000 -7.000000 -0.500000
v 3.000000 -1.000000 -0.500000
v -1.800000 -5.200000 -2.100000
v -1.800000 -2.800000 -2.100000
v -1.608658 -5.200000 -2.061940
v -1.608658 -2.800000 -2.061940
v -1.446447 -5.200000 -1.953553
v -1.446447 -2.800000 -1.953553
v -1.338060 -5.200000 -1.791342
v -1.338060 -2.800000 -1.791342
v -1.300000 -5.200000 -1.600000
v -1.300000 -2.800000 -1.600000
v -1.338060 -5.200000 -1.408658
v -1.338060 -2.800000 -1.408658
v -1.446447 -5.200000 -1.246447
v -1.446447 -2.800000 -1.246447
v -1.608658 -5.200000 -1.138060
v -1.608658 -2.800000 -1.138060
v -1.800000 -5.200000 -1.100000
v -1.800000 -2.800000 -1.100000
v -1.991342 -5.200000 -1.138060
v -1.991342 -2.800000 -1.138060
v -2.153553 -5.200000 -1.246447
v -2.153553 -2.800000 -1.246447
v -2.261940 -5.200000 -1.408658
v -2.261940 -2.800000 -1.408658
v -2.300000 -5.200000 -1.600000
v -2.300000 -2.800000 -1.600000
v -2.261940 -5.200000 -1.791342
v -2.261940 -2.800000 -1.791342
v -2.153553 -5.200000 -1.953553
v -2.153553 -2.800000 -1.953553
v -1.991342 -5.200000 -2.061940
v -1.991342 -2.800000 -2.061940
v 1.800000 -5.200000 -2.100000
v 1.800000 -2.800000 -2.100000
v 1.991342 -5.200000 -2.061940
v 1.991342 -2.800000 -2.061940
v 2.153553 -5.200000 -1.953553
v 2.153553 -2.800000 -1.953553
v 2.261940 -5.200000 -1.791342
v 2.261940 -2.800000 -1.791342
v 2.300000 -5.200000 -1.600000
v 2.300000 -2.800000 -1.600000
v 2.261940 -5.200000 -1.408658
v 2.261940 -2.800000 -1.408658
v 2.153553 -5.200000 -1.246447
v 2.153553 -2.800000 -1.246447
v 1.991342 -5.200000 -1.138060
v 1.991342 -2.800000 -1.138060
v 1.800000 -5.200000 -1.100000
v 1.800000 -2.800000 -1.100000
v 1.608658 -5.200000 -1.138060
v 1.608658 -2.800000 -1.138060
v 1.446447 -5.200000 -1.246447
v 1.446447 -2.800000 -1.246447
v 1.338060 -5.200000 -1.408658
v 1.338060 -2.800000 -1.408658
v 1.300000 -5.200000 -1.600000
v 1.300000 -2.800000 -1.600000
v 1.338060 -5.200000 -1.791342
v 1.338060 -2.800000 -1.791342
v 1.446447 -5.200000 -1.953553
v 1.446447 -2.800000 -1.953553
v 1.608658 -5.200000 -2.061940
v 1.608658 -2.800000 -2.061940
v -12.000000 -13.250000 -4.350000
v -12.000000 -10.750000 -4.350000
v -12.000000 -13.250000 -4.650000
v -12.000000 -10.750000 -4.650000
v 12.000000 -13.250000 -4.350000
v 12.000000 -10.750000 -4.350000
v 12.000000 -13.250000 -4.650000
v 12.000000 -10.750000 -4.650000
v -12.000000 -10.840000 -4.650000
v -12.000000 -10.760000 -4.650000
v -12.000000 -10.840000 -5.750000
v -12.000000 -10.760000 -5.750000
v 12.000000 -10.840000 -4.650000
v 12.000000 -10.760000 -4.650000
v 12.000000 -10.840000 -5.750000
v 12.000000 -10.760000 -5.750000
v -12.000000 -15.000000 -3.300000
v -12.000000 -9.000000 -3.300000
v -11.885195 -15.000000 -3.277164
v -11.885195 -9.000000 -3.277164
v -11.787868 -15.000000 -3.212132
v -11.787868 -9.000000 -3.212132
v -11.722836 -15.000000 -3.114805
v -11.722836 -9.000000 -3.114805
v -11.700000 -15.000000 -3.000000
v -11.700000 -9.000000 -3.000000
v -11.722836 -15.000000 -2.885195
v -11.722836 -9.000000 -2.885195
v -11.787868 -15.000000 -2.787868
v -11.787868 -9.000000 -2.787868
v -11.885195 -15.000000 -2.722836
v -11.885195 -9.000000 -2.722836
v -12.000000 -15.000000 -2.700000
v -12.000000 -9.000000 -2.700000
v -12.114805 -15.000000 -2.722836
v -12.114805 -9.000000 -2.722836
v -12.212132 -15.000000 -2.787868
v -12.212132 -9.000000 -2.787868
v -12.277164 -15.000000 -2.885195
v -12.277164 -9.000000 -2.885195
v -12.300000 -15.000000 -3.000000
v -12.300000 -9.000000 -3.000000
v -12.277164 -15.000000 -3.114805
v -12.277164 -9.000000 -3.114805
v -12.212132 -15.000000 -3.212132
v -12.212132 -9.000000 -3.212132
v -12.114805 -15.000000 -3.277164
v -12.114805 -9.000000 -3.277164
v -12.000000 -12.175000 -6.420000
v -12.000000 -11.825000 -6.420000
v -11.915810 -12.175000 -6.403253
v -11.915810 -11.825000 -6.403253
v -11.844437 -12.175000 -6.355563
v -11.844437 -11.825000 -6.355563
v -11.796746 -12.175000 -6.284190
v -11.796746 -11.825000 -6.284190
v -11.780000 -12.175000 -6.200000
v -11.780000 -11.825000 -6.200000
v -11.796746 -12.175000 -6.115809
v -11.796746 -11.825000 -6.115809
v -11.844437 -12.175000 -6.044436
v -11.844437 -11.825000 -6.044436
v -11.915810 -12.175000 -5.996747
v -11.915810 -11.825000 -5.996747
v -12.000000 -12.175000 -5.980000
v -12.000000 -11.825000 -5.980000
v -12.084190 -12.175000 -5.996747
v -12.084190 -11.825000 -5.996747
v -12.155563 -12.175000 -6.044436
v -12.155563 -11.825000 -6.044436
v -12.203254 -12.175000 -6.115809
v -12.203254 -11.825000 -6.115809
v -12.220000 -12.175000 -6.200000
v -12.220000 -11.825000 -6.200000
v -12.203254 -12.175000 -6.284190
v -12.203254 -11.825000 -6.284190
v -12.155563 -12.175000 -6.355563
v -12.155563 -11.825000 -6.355563
v -12.084190 -12.175000 -6.403253
v -12.084190 -11.825000 -6.403253
v 12.000000 -15.000000 -3.300000
v 12.000000 -9.000000 -3.300000
v 12.114805 -15.000000 -3.277164
v 12.114805 -9.000000 -3.277164
v 12.212132 -15.000000 -3.212132
v 12.212132 -9.000000 -3.212132
v 12.277164 -15.000000 -3.114805
v 12.277164 -9.000000 -3.114805
v 12.300000 -15.000000 -3.000000
v 12.300000 -9.000000 -3.000000
v 12.277164 -15.000000 -2.885195
v 12.277164 -9.000000 -2.885195
v 12.212132 -15.000000 -2.787868
v 12.212132 -9.000000 -2.787868
v 12.114805 -15.000000 -2.722836
v 12.114805 -9.000000 -2.722836
v 12.000000 -15.000000 -2.700000
v 12.000000 -9.000000 -2.700000
v 11.885195 -15.000000 -2.722836
v 11.885195 -9.000000 -2.722836
v 11.787868 -15.000000 -2.787868
v 11.787868 -9.000000 -2.787868
v 11.722836 -15.000000 -2.885195
v 11.722836 -9.000000 -2.885195
v 11.700000 -15.000000 -3.000000
v 11.700000 -9.000000 -3.000000
v 11.722836 -15.000000 -3.114805
v 11.722836 -9.000000 -3.114805
v 11.787868 -15.000000 -3.212132
v 11.787868 -9.000000 -3.212132
v 11.885195 -15.000000 -3.277164
v 11.885195 -9.000000 -3.277164
v 12.000000 -12.175000 -6.420000
v 12.000000 -11.825000 -6.420000
v 12.084190 -12.175000 -6.403253
v 12.084190 -11.825000 -6.403253
v 12.155563 -12.175000 -6.355563
v 12.155563 -11.825000 -6.355563
v 12.203254 -12.175000 -6.284190
v 12.203254 -11.825000 -6.284190
v 12.220000 -12.175000 -6.200000
v 12.220000 -11.825000 -6.200000
v 12.203254 -12.175000 -6.115809
v 12.203254 -11.825000 -6.115809
v 12.155563 -12.175000 -6.044436
v 12.155563 -11.825000 -6.044436
v 12.084190 -12.175000 -5.996747
v 12.084190 -11.825000 -5.996747
v 12.000000 -12.175000 -5.980000
v 12.000000 -11.825000 -5.980000
v 11.915810 -12.175000 -5.996747
v 11.915810 -11.825000 -5.996747
v 11.844437 -12.175000 -6.044436
v 11.844437 -11.825000 -6.044436
v 11.796746 -12.175000 -6.115809
v 11.796746 -11.825000 -6.115809
v 11.780000 -12.175000 -6.200000
v 11.780000 -11.825000 -6.200000
v 11.796746 -12.175000 -6.284190
v 11.796746 -11.825000 -6.284190
v 11.844437 -12.175000 -6.355563
v 11.844437 -11.825000 -6.355563
v 11.915810 -12.175000 -6.403253
v 11.915810 -11.825000 -6.403253
v -12.000000 9.000000 -3.300000
v -12.000000 15.000000 -3.300000
v -11.885195 9.000000 -3.277164
v -11.885195 15.000000 -3.277164
v -11.787868 9.000000 -3.212132
v -11.787868 15.000000 -3.212132
v -11.722836 9.000000 -3.114805
v -11.722836 15.000000 -3.114805
v -11.700000 9.000000 -3.000000
v -11.700000 15.000000 -3.000000
v -11.722836 9.000000 -2.885195
v -11.722836 15.000000 -2.885195
v -11.787868 9.000000 -2.787868
v -11.787868 15.000000 -2.787868
v -11.885195 9.000000 -2.722836
v -11.885195 15.000000 -2.722836
v -12.000000 9.000000 -2.700000
v -12.000000 15.000000 -2.700000
v -12.114805 9.000000 -2.722836
v -12.114805 15.000000 -2.722836
v -12.212132 9.000000 -2.787868
v -12.212132 15.000000 -2.787868
v -12.277164 9.000000 -2.885195
v -12.277164 15.000000 -2.885195
v -12.300000 9.000000 -3.000000
v -12.300000 15.000000 -3.000000
v -12.277164 9.000000 -3.114805
v -12.277164 15.000000 -3.114805
v -12.212132 9.000000 -3.212132
v -12.212132 15.000000 -3.212132
v -12.114805 9.000000 -3.277164
v -12.114805 15.000000 -3.277164
v -12.000000 11.825000 -6.420000
v -12.000000 12.175000 -6.420000
v -11.915810 11.825000 -6.403253
v -11.915810 12.175000 -6.403253
v -11.844437 11.825000 -6.355563
v -11.844437 12.175000 -6.355563
v -11.796746 11.825000 -6.284190
v -11.796746 12.175000 -6.284190
v -11.780000 11.825000 -6.200000
v -11.780000 12.175000 -6.200000
v -11.796746 11.825000 -6.115809
v -11.796746 12.175000 -6.115809
v -11.844437 11.825000 -6.044436
v -11.844437 12.175000 -6.044436
v -11.915810 11.825000 -5.996747
v -11.915810 12.175000 -5.996747
v -12.000000 11.825000 -5.980000
v -12.000000 12.175000 -5.980000
v -12.084190 11.825000 -5.996747
v -12.084190 12.175000 -5.996747
v -12.155563 11.825000 -6.044436
v -12.155563 12.175000 -6.044436
v -12.203254 11.825000 -6.115809
v -12.203254 12.175000 -6.115809
v -12.220000 11.825000 -6.200000
v -12.220000 12.175000 -6.200000
v -12.203254 11.825000 -6.284190
v -12.203254 12.175000 -6.284190
v -12.155563 11.825000 -6.355563
v -12.155563 12.175000 -6.355563
v -12.084190 11.825000 -6.403253
v -12.084190 12.175000 -6.403253
v 12.000000 9.000000 -3.300000
v 12.000000 15.000000 -3.300000
v 12.114805 9.000000 -3.277164
v 12.114805 15.000000 -3.277164
v 12.212132 9.000000 -3.212132
v 12.212132 15.000000 -3.212132
v 12.277164 9.000000 -3.114805
v 12.277164 15.000000 -3.114805
v 12.300000 9.000000 -3.000000
v 12.300000 15.000000 -3.000000
v 12.277164 9.000000 -2.885195
v 12.277164 15.000000 -2.885195
v 12.212132 9.000000 -2.787868
v 12.212132 15.000000 -2.787868
v 12.114805 9.000000 -2.722836
v 12.114805 15.000000 -2.722836
v 12.000000 9.000000 -2.700000
v 12.000000 15.000000 -2.700000
v 11.885195 9.000000 -2.722836
v 11.885195 15.000000 -2.722836
v 11.787868 9.000000 -2.787868
v 11.787868 15.000000 -2.787868
v 11.722836 9.000000 -2.885195
v 11.722836 15.000000 -2.885195
v 11.700000 9.000000 -3.000000
v 11.700000 15.000000 -3.000000
v 11.722836 9.000000 -3.114805
v 11.722836 15.000000 -3.114805
v 11.787868 9.000000 -3.212132
v 11.787868 15.000000 -3.212132
v 11.885195 9.000000 -3.277164
v 11.885195 15.000000 -3.277164
v 12.000000 11.825000 -6.420000
v 12.000000 12.175000 -6.420000
v 12.084190 11.825000 -6.403253
v 12.084190 12.175000 -6.403253
v 12.155563 11.825000 -6.355563
v 12.155563 12.175000 -6.355563
v 12.203254 11.825000 -6.284190
v 12.203254 12.175000 -6.284190
v 12.220000 11.825000 -6.200000
v 12.220000 12.175000 -6.200000
v 12.203254 11.825000 -6.115809
v 12.203254 12.175000 -6.115809
v 12.155563 11.825000 -6.044436
v 12.155563 12.175000 -6.044436
v 12.084190 11.825000 -5.996747
v 12.084190 12.175000 -5.996747
v 12.000000 11.825000 -5.980000
v 12.000000 12.175000 -5.980000
v 11.915810 11.825000 -5.996747
v 11.915810 12.175000 -5.996747
v 11.844437 11.825000 -6.044436
v 11.844437 12.175000 -6.044436
v 11.796746 11.825000 -6.115809
v 11.796746 12.175000 -6.115809
v 11.780000 11.825000 -6.200000
v 11.780000 12.175000 -6.200000
v 11.796746 11.825000 -6.284190
v 11.796746 12.175000 -6.284190
v 11.844437 11.825000 -6.355563
v 11.844437 12.175000 -6.355563
v 11.915810 11.825000 -6.403253
v 11.915810 12.175000 -6.403253
vn -1.0000 -0.0000 -0.0000
vn -0.0000 -0.0000 -1.0000
vn 1.0000 -0.0000 -0.0000
vn -0.0000 -0.0000 1.0000
vn -0.0000 -1.0000 -0.0000
vn -0.0000 1.0000 -0.0000
vn 0.1951 -0.0000 -0.9808
vn 0.5556 -0.0000 -0.8315
vn 0.8315 -0.0000 -0.5556
vn 0.9808 -0.0000 -0.1951
vn 0.9808 -0.0000 0.1951
vn 0.8315 -0.0000 0.5556
vn 0.5556 -0.0000 0.8315
vn 0.1951 -0.0000 0.9808
vn -0.1951 -0.0000 0.9808
vn -0.5556 -0.0000 0.8315
vn -0.8315 -0.0000 0.5556
vn -0.9808 -0.0000 0.1951
vn -0.9808 -0.0000 -0.1951
vn -0.8315 -0.0000 -0.5556
vn -0.5556 -0.0000 -0.8315
vn -0.1951 -0.0000 -0.9808
vt 0.375000 0.000000
vt 0.625000 0.000000
vt 0.625000 0.250000
vt 0.375000 0.250000
vt 0.625000 0.500000
vt 0.375000 0.500000
vt 0.625000 0.750000
vt 0.375000 0.750000
vt 0.625000 1.000000
vt 0.375000 1.000000
vt 0.125000 0.500000
vt 0.125000 0.750000
vt 0.875000 0.500000
vt 0.875000 0.750000
vt 1.000000 0.500000
vt 1.000000 1.000000
vt 0.937500 1.000000
vt 0.937500 0.500000
vt 0.875000 1.000000
vt 0.812500 1.000000
vt 0.812500 0.500000
vt 0.750000 1.000000
vt 0.750000 0.500000
vt 0.687500 1.000000
vt 0.687500 0.500000
vt 0.562500 1.000000
vt 0.562500 0.500000
vt 0.500000 1.000000
vt 0.500000 0.500000
vt 0.437500 1.000000
vt 0.437500 0.500000
vt 0.312500 1.000000
vt 0.312500 0.500000
vt 0.250000 1.000000
vt 0.250000 0.500000
vt 0.187500 1.000000
vt 0.187500 0.500000
vt 0.125000 1.000000
vt 0.341844 0.471731
vt 0.250000 0.490000
vt 0.158156 0.471731
vt 0.080294 0.419706
vt 0.028269 0.341844
vt 0.010000 0.250000
vt 0.028269 0.158156
vt 0.080294 0.080294
vt 0.158156 0.028269
vt 0.250000 0.010000
vt 0.341844 0.028269
vt 0.419706 0.080294
vt 0.471731 0.158156
vt 0.490000 0.250000
vt 0.471731 0.341844
vt 0.419706 0.419706
vt 0.062500 1.000000
vt 0.062500 0.500000
vt 0.000000 1.000000
vt 0.000000 0.500000
vt 0.750000 0.490000
vt 0.841844 0.471731
vt 0.919706 0.419706
vt 0.971731 0.341844
vt 0.990000 0.250000
vt 0.971731 0.158156
vt 0.919706 0.080294
vt 0.841844 0.028269
vt 0.750000 0.010000
vt 0.658156 0.028269
vt 0.580294 0.080294
vt 0.528269 0.158156
vt 0.510000 0.250000
vt 0.528269 0.341844
vt 0.580294 0.419706
vt 0.658156 0.471731
vt 0.341844 0.471731
vt 0.158156 0.471731
vt 0.080294 0.419706
vt 0.028269 0.341844
vt 0.010000 0.250000
vt 0.028269 0.158156
vt 0.080294 0.080294
vt 0.158156 0.028269
vt 0.250000 0.010000
vt 0.341844 0.028269
vt 0.419706 0.080294
vt 0.471731 0.158156
vt 0.471731 0.341844
vt 0.841844 0.471731
vt 0.919706 0.080294
vt 0.841844 0.028269
vt 0.750000 0.010000
vt 0.658156 0.028269
vt 0.580294 0.080294
vt 0.658156 0.471731
s 0
usemtl Mat_ContainmentFloor
f 1/1/1 2/2/1 4/3/1 3/4/1
f 3/4/2 4/3/2 8/5/2 7/6/2
f 7/6/3 8/5/3 6/7/3 5/8/3
f 5/8/4 6/7/4 2/9/4 1/10/4
f 3/11/5 7/6/5 5/8/5 1/12/5
f 8/5/6 4/13/6 2/14/6 6/7/6
f 73/1/1 74/2/1 76/3/1 75/4/1
f 75/4/2 76/3/2 80/5/2 79/6/2
f 79/6/3 80/5/3 78/7/3 77/8/3
f 77/8/4 78/7/4 74/9/4 73/10/4
f 75/11/5 79/6/5 77/8/5 73/12/5
f 80/5/6 76/13/6 74/14/6 78/7/6
usemtl Mat_HazardYellowBlack
f 9/1/1 10/2/1 12/3/1 11/4/1
f 11/4/2 12/3/2 16/5/2 15/6/2
f 15/6/3 16/5/3 14/7/3 13/8/3
f 13/8/4 14/7/4 10/9/4 9/10/4
f 11/11/5 15/6/5 13/8/5 9/12/5
f 16/5/6 12/13/6 10/14/6 14/7/6
f 17/1/1 18/2/1 20/3/1 19/4/1
f 19/4/2 20/3/2 24/5/2 23/6/2
f 23/6/3 24/5/3 22/7/3 21/8/3
f 21/8/4 22/7/4 18/9/4 17/10/4
f 19/11/5 23/6/5 21/8/5 17/12/5
f 24/5/6 20/13/6 18/14/6 22/7/6
f 25/1/1 26/2/1 28/3/1 27/4/1
f 27/4/2 28/3/2 32/5/2 31/6/2
f 31/6/3 32/5/3 30/7/3 29/8/3
f 29/8/4 30/7/4 26/9/4 25/10/4
f 27/11/5 31/6/5 29/8/5 25/12/5
f 32/5/6 28/13/6 26/14/6 30/7/6
f 33/1/1 34/2/1 36/3/1 35/4/1
f 35/4/2 36/3/2 40/5/2 39/6/2
f 39/6/3 40/5/3 38/7/3 37/8/3
f 37/8/4 38/7/4 34/9/4 33/10/4
f 35/11/5 39/6/5 37/8/5 33/12/5
f 40/5/6 36/13/6 34/14/6 38/7/6
f 153/1/1 154/2/1 156/3/1 155/4/1
f 155/4/2 156/3/2 160/5/2 159/6/2
f 159/6/3 160/5/3 158/7/3 157/8/3
f 157/8/4 158/7/4 154/9/4 153/10/4
f 155/11/5 159/6/5 157/8/5 153/12/5
f 160/5/6 156/13/6 154/14/6 158/7/6
usemtl Mat_VaultBlastWall
f 41/1/1 42/2/1 44/3/1 43/4/1
f 43/4/2 44/3/2 48/5/2 47/6/2
f 47/6/3 48/5/3 46/7/3 45/8/3
f 45/8/4 46/7/4 42/9/4 41/10/4
f 43/11/5 47/6/5 45/8/5 41/12/5
f 48/5/6 44/13/6 42/14/6 46/7/6
f 49/1/1 50/2/1 52/3/1 51/4/1
f 51/4/2 52/3/2 56/5/2 55/6/2
f 55/6/3 56/5/3 54/7/3 53/8/3
f 53/8/4 54/7/4 50/9/4 49/10/4
f 51/11/5 55/6/5 53/8/5 49/12/5
f 56/5/6 52/13/6 50/14/6 54/7/6
f 57/1/1 58/2/1 60/3/1 59/4/1
f 59/4/2 60/3/2 64/5/2 63/6/2
f 63/6/3 64/5/3 62/7/3 61/8/3
f 61/8/4 62/7/4 58/9/4 57/10/4
f 59/11/5 63/6/5 61/8/5 57/12/5
f 64/5/6 60/13/6 58/14/6 62/7/6
f 65/1/1 66/2/1 68/3/1 67/4/1
f 67/4/2 68/3/2 72/5/2 71/6/2
f 71/6/3 72/5/3 70/7/3 69/8/3
f 69/8/4 70/7/4 66/9/4 65/10/4
f 67/11/5 71/6/5 69/8/5 65/12/5
f 72/5/6 68/13/6 66/14/6 70/7/6
f 81/15/7 82/16/7 84/17/7 83/18/7
f 83/18/8 84/17/8 86/19/8 85/13/8
f 85/13/9 86/19/9 88/20/9 87/21/9
f 87/21/10 88/20/10 90/22/10 89/23/10
f 89/23/11 90/22/11 92/24/11 91/25/11
f 91/25/12 92/24/12 94/9/12 93/5/12
f 93/5/13 94/9/13 96/26/13 95/27/13
f 95/27/14 96/26/14 98/28/14 97/29/14
f 97/29/15 98/28/15 100/30/15 99/31/15
f 99/31/16 100/30/16 102/10/16 101/6/16
f 101/6/17 102/10/17 104/32/17 103/33/17
f 103/33/18 104/32/18 106/34/18 105/35/18
f 105/35/19 106/34/19 108/36/19 107/37/19
f 107/37/20 108/36/20 110/38/20 109/11/20
f 84/39/6 82/40/6 112/41/6 110/42/6 108/43/6 106/44/6 104/45/6 102/46/6 100/47/6 98/48/6 96/49/6 94/50/6 92/51/6 90/52/6 88/53/6 86/54/6
f 109/11/21 110/38/21 112/55/21 111/56/21
f 111/56/22 112/55/22 82/57/22 81/58/22
f 81/59/5 83/60/5 85/61/5 87/62/5 89/63/5 91/64/5 93/65/5 95/66/5 97/67/5 99/68/5 101/69/5 103/70/5 105/71/5 107/72/5 109/73/5 111/74/5
f 113/15/7 114/16/7 116/17/7 115/18/7
f 115/18/8 116/17/8 118/19/8 117/13/8
f 117/13/9 118/19/9 120/20/9 119/21/9
f 119/21/10 120/20/10 122/22/10 121/23/10
f 121/23/11 122/22/11 124/24/11 123/25/11
f 123/25/12 124/24/12 126/9/12 125/5/12
f 125/5/13 126/9/13 128/26/13 127/27/13
f 127/27/14 128/26/14 130/28/14 129/29/14
f 129/29/15 130/28/15 132/30/15 131/31/15
f 131/31/16 132/30/16 134/10/16 133/6/16
f 133/6/17 134/10/17 136/32/17 135/33/17
f 135/33/18 136/32/18 138/34/18 137/35/18
f 137/35/19 138/34/19 140/36/19 139/37/19
f 139/37/20 140/36/20 142/38/20 141/11/20
f 116/39/6 114/40/6 144/41/6 142/42/6 140/43/6 138/44/6 136/45/6 134/46/6 132/47/6 130/48/6 128/49/6 126/50/6 124/51/6 122/52/6 120/53/6 118/54/6
f 141/11/21 142/38/21 144/55/21 143/56/21
f 143/56/22 144/55/22 114/57/22 113/58/22
f 113/59/5 115/60/5 117/61/5 119/62/5 121/63/5 123/64/5 125/65/5 127/66/5 129/67/5 131/68/5 133/69/5 135/70/5 137/71/5 139/72/5 141/73/5 143/74/5
f 161/15/7 162/16/7 164/17/7 163/18/7
f 163/18/8 164/17/8 166/19/8 165/13/8
f 165/13/9 166/19/9 168/20/9 167/21/9
f 167/21/10 168/20/10 170/22/10 169/23/10
f 169/23/11 170/22/11 172/24/11 171/25/11
f 171/25/12 172/24/12 174/9/12 173/5/12
f 173/5/13 174/9/13 176/26/13 175/27/13
f 175/27/14 176/26/14 178/28/14 177/29/14
f 177/29/15 178/28/15 180/30/15 179/31/15
f 179/31/16 180/30/16 182/10/16 181/6/16
f 181/6/17 182/10/17 184/32/17 183/33/17
f 183/33/18 184/32/18 186/34/18 185/35/18
f 185/35/19 186/34/19 188/36/19 187/37/19
f 187/37/20 188/36/20 190/38/20 189/11/20
f 164/39/6 162/40/6 192/41/6 190/42/6 188/43/6 186/44/6 184/45/6 182/46/6 180/47/6 178/48/6 176/49/6 174/50/6 172/51/6 170/52/6 168/53/6 166/54/6
f 189/11/21 190/38/21 192/55/21 191/56/21
f 191/56/22 192/55/22 162/57/22 161/58/22
f 161/59/5 163/60/5 165/61/5 167/62/5 169/63/5 171/64/5 173/65/5 175/66/5 177/67/5 179/68/5 181/69/5 183/70/5 185/71/5 187/72/5 189/73/5 191/74/5
f 225/15/7 226/16/7 228/17/7 227/18/7
f 227/18/8 228/17/8 230/19/8 229/13/8
f 229/13/9 230/19/9 232/20/9 231/21/9
f 231/21/10 232/20/10 234/22/10 233/23/10
f 233/23/11 234/22/11 236/24/11 235/25/11
f 235/25/12 236/24/12 238/9/12 237/5/12
f 237/5/13 238/9/13 240/26/13 239/27/13
f 239/27/14 240/26/14 242/28/14 241/29/14
f 241/29/15 242/28/15 244/30/15 243/31/15
f 243/31/16 244/30/16 246/10/16 245/6/16
f 245/6/17 246/10/17 248/32/17 247/33/17
f 247/33/18 248/32/18 250/34/18 249/35/18
f 249/35/19 250/34/19 252/36/19 251/37/19
f 251/37/20 252/36/20 254/38/20 253/11/20
f 228/39/6 226/40/6 256/41/6 254/42/6 252/43/6 250/44/6 248/45/6 246/46/6 244/47/6 242/48/6 240/49/6 238/50/6 236/51/6 234/52/6 232/53/6 230/54/6
f 253/11/21 254/38/21 256/55/21 255/56/21
f 255/56/22 256/55/22 226/57/22 225/58/22
f 225/59/5 227/60/5 229/61/5 231/62/5 233/63/5 235/64/5 237/65/5 239/66/5 241/67/5 243/68/5 245/69/5 247/70/5 249/71/5 251/72/5 253/73/5 255/74/5
f 289/15/7 290/16/7 292/17/7 291/18/7
f 291/18/8 292/17/8 294/19/8 293/13/8
f 293/13/9 294/19/9 296/20/9 295/21/9
f 295/21/10 296/20/10 298/22/10 297/23/10
f 297/23/11 298/22/11 300/24/11 299/25/11
f 299/25/12 300/24/12 302/9/12 301/5/12
f 301/5/13 302/9/13 304/26/13 303/27/13
f 303/27/14 304/26/14 306/28/14 305/29/14
f 305/29/15 306/28/15 308/30/15 307/31/15
f 307/31/16 308/30/16 310/10/16 309/6/16
f 309/6/17 310/10/17 312/32/17 311/33/17
f 311/33/18 312/32/18 314/34/18 313/35/18
f 313/35/19 314/34/19 316/36/19 315/37/19
f 315/37/20 316/36/20 318/38/20 317/11/20
f 292/39/6 290/40/6 320/41/6 318/42/6 316/43/6 314/44/6 312/45/6 310/46/6 308/47/6 306/48/6 304/49/6 302/50/6 300/51/6 298/52/6 296/53/6 294/54/6
f 317/11/21 318/38/21 320/55/21 319/56/21
f 319/56/22 320/55/22 290/57/22 289/58/22
f 289/59/5 291/60/5 293/61/5 295/62/5 297/63/5 299/64/5 301/65/5 303/66/5 305/67/5 307/68/5 309/69/5 311/70/5 313/71/5 315/72/5 317/73/5 319/74/5
f 353/15/7 354/16/7 356/17/7 355/18/7
f 355/18/8 356/17/8 358/19/8 357/13/8
f 357/13/9 358/19/9 360/20/9 359/21/9
f 359/21/10 360/20/10 362/22/10 361/23/10
f 361/23/11 362/22/11 364/24/11 363/25/11
f 363/25/12 364/24/12 366/9/12 365/5/12
f 365/5/13 366/9/13 368/26/13 367/27/13
f 367/27/14 368/26/14 370/28/14 369/29/14
f 369/29/15 370/28/15 372/30/15 371/31/15
f 371/31/16 372/30/16 374/10/16 373/6/16
f 373/6/17 374/10/17 376/32/17 375/33/17
f 375/33/18 376/32/18 378/34/18 377/35/18
f 377/35/19 378/34/19 380/36/19 379/37/19
f 379/37/20 380/36/20 382/38/20 381/11/20
f 356/39/6 354/40/6 384/41/6 382/42/6 380/43/6 378/44/6 376/45/6 374/46/6 372/47/6 370/48/6 368/49/6 366/50/6 364/51/6 362/52/6 360/53/6 358/54/6
f 381/11/21 382/38/21 384/55/21 383/56/21
f 383/56/22 384/55/22 354/57/22 353/58/22
f 353/59/5 355/60/5 357/61/5 359/62/5 361/63/5 363/64/5 365/65/5 367/66/5 369/67/5 371/68/5 373/69/5 375/70/5 377/71/5 379/72/5 381/73/5 383/74/5
usemtl Mat_SteelGrateCatwalk
f 145/1/1 146/2/1 148/3/1 147/4/1
f 147/4/2 148/3/2 152/5/2 151/6/2
f 151/6/3 152/5/3 150/7/3 149/8/3
f 149/8/4 150/7/4 146/9/4 145/10/4
f 147/11/5 151/6/5 149/8/5 145/12/5
f 152/5/6 148/13/6 146/14/6 150/7/6
usemtl Mat_EmergencySirenRed
f 193/15/7 194/16/7 196/17/7 195/18/7
f 195/18/8 196/17/8 198/19/8 197/13/8
f 197/13/9 198/19/9 200/20/9 199/21/9
f 199/21/10 200/20/10 202/22/10 201/23/10
f 201/23/11 202/22/11 204/24/11 203/25/11
f 203/25/12 204/24/12 206/9/12 205/5/12
f 205/5/13 206/9/13 208/26/13 207/27/13
f 207/27/14 208/26/14 210/28/14 209/29/14
f 209/29/15 210/28/15 212/30/15 211/31/15
f 211/31/16 212/30/16 214/10/16 213/6/16
f 213/6/17 214/10/17 216/32/17 215/33/17
f 215/33/18 216/32/18 218/34/18 217/35/18
f 217/35/19 218/34/19 220/36/19 219/37/19
f 219/37/20 220/36/20 222/38/20 221/11/20
f 196/75/6 194/40/6 224/76/6 222/77/6 220/78/6 218/79/6 216/80/6 214/81/6 212/82/6 210/83/6 208/84/6 206/85/6 204/86/6 202/52/6 200/87/6 198/54/6
f 221/11/21 222/38/21 224/55/21 223/56/21
f 223/56/22 224/55/22 194/57/22 193/58/22
f 193/59/5 195/88/5 197/61/5 199/62/5 201/63/5 203/64/5 205/89/5 207/90/5 209/91/5 211/92/5 213/93/5 215/70/5 217/71/5 219/72/5 221/73/5 223/94/5
f 257/15/7 258/16/7 260/17/7 259/18/7
f 259/18/8 260/17/8 262/19/8 261/13/8
f 261/13/9 262/19/9 264/20/9 263/21/9
f 263/21/10 264/20/10 266/22/10 265/23/10
f 265/23/11 266/22/11 268/24/11 267/25/11
f 267/25/12 268/24/12 270/9/12 269/5/12
f 269/5/13 270/9/13 272/26/13 271/27/13
f 271/27/14 272/26/14 274/28/14 273/29/14
f 273/29/15 274/28/15 276/30/15 275/31/15
f 275/31/16 276/30/16 278/10/16 277/6/16
f 277/6/17 278/10/17 280/32/17 279/33/17
f 279/33/18 280/32/18 282/34/18 281/35/18
f 281/35/19 282/34/19 284/36/19 283/37/19
f 283/37/20 284/36/20 286/38/20 285/11/20
f 260/75/6 258/40/6 288/76/6 286/77/6 284/78/6 282/79/6 280/80/6 278/81/6 276/82/6 274/83/6 272/84/6 270/85/6 268/86/6 266/52/6 264/87/6 262/54/6
f 285/11/21 286/38/21 288/55/21 287/56/21
f 287/56/22 288/55/22 258/57/22 257/58/22
f 257/59/5 259/88/5 261/61/5 263/62/5 265/63/5 267/64/5 269/89/5 271/90/5 273/91/5 275/92/5 277/93/5 279/70/5 281/71/5 283/72/5 285/73/5 287/94/5
f 321/15/7 322/16/7 324/17/7 323/18/7
f 323/18/8 324/17/8 326/19/8 325/13/8
f 325/13/9 326/19/9 328/20/9 327/21/9
f 327/21/10 328/20/10 330/22/10 329/23/10
f 329/23/11 330/22/11 332/24/11 331/25/11
f 331/25/12 332/24/12 334/9/12 333/5/12
f 333/5/13 334/9/13 336/26/13 335/27/13
f 335/27/14 336/26/14 338/28/14 337/29/14
f 337/29/15 338/28/15 340/30/15 339/31/15
f 339/31/16 340/30/16 342/10/16 341/6/16
f 341/6/17 342/10/17 344/32/17 343/33/17
f 343/33/18 344/32/18 346/34/18 345/35/18
f 345/35/19 346/34/19 348/36/19 347/37/19
f 347/37/20 348/36/20 350/38/20 349/11/20
f 324/75/6 322/40/6 352/76/6 350/77/6 348/78/6 346/79/6 344/80/6 342/81/6 340/82/6 338/83/6 336/84/6 334/85/6 332/86/6 330/52/6 328/87/6 326/54/6
f 349/11/21 350/38/21 352/55/21 351/56/21
f 351/56/22 352/55/22 322/57/22 321/58/22
f 321/59/5 323/88/5 325/61/5 327/62/5 329/63/5 331/64/5 333/89/5 335/90/5 337/91/5 339/92/5 341/93/5 343/70/5 345/71/5 347/72/5 349/73/5 351/94/5
f 385/15/7 386/16/7 388/17/7 387/18/7
f 387/18/8 388/17/8 390/19/8 389/13/8
f 389/13/9 390/19/9 392/20/9 391/21/9
f 391/21/10 392/20/10 394/22/10 393/23/10
f 393/23/11 394/22/11 396/24/11 395/25/11
f 395/25/12 396/24/12 398/9/12 397/5/12
f 397/5/13 398/9/13 400/26/13 399/27/13
f 399/27/14 400/26/14 402/28/14 401/29/14
f 401/29/15 402/28/15 404/30/15 403/31/15
f 403/31/16 404/30/16 406/10/16 405/6/16
f 405/6/17 406/10/17 408/32/17 407/33/17
f 407/33/18 408/32/18 410/34/18 409/35/18
f 409/35/19 410/34/19 412/36/19 411/37/19
f 411/37/20 412/36/20 414/38/20 413/11/20
f 388/75/6 386/40/6 416/76/6 414/77/6 412/78/6 410/79/6 408/80/6 406/81/6 404/82/6 402/83/6 400/84/6 398/85/6 396/86/6 394/52/6 392/87/6 390/54/6
f 413/11/21 414/38/21 416/55/21 415/56/21
f 415/56/22 416/55/22 386/57/22 385/58/22
f 385/59/5 387/88/5 389/61/5 391/62/5 393/63/5 395/64/5 397/89/5 399/90/5 401/91/5 403/92/5 405/93/5 407/70/5 409/71/5 411/72/5 413/73/5 415/94/5
