# Blender 4.0.2
# www.blender.org
mtllib ak47.mtl
o Weapon_AK47
v -0.021000 -0.110000 0.011000
v -0.021000 0.150000 0.011000
v -0.021000 -0.110000 -0.051000
v -0.021000 0.150000 -0.051000
v 0.021000 -0.110000 0.011000
v 0.021000 0.150000 0.011000
v 0.021000 -0.110000 -0.051000
v 0.021000 0.150000 -0.051000
v 0.000000 0.040000 -0.177000
v 0.000000 0.040000 0.073000
v 0.007654 0.038478 -0.177000
v 0.007654 0.038478 0.073000
v 0.014142 0.034142 -0.177000
v 0.014142 0.034142 0.073000
v 0.018478 0.027654 -0.177000
v 0.018478 0.027654 0.073000
v 0.020000 0.020000 -0.177000
v 0.020000 0.020000 0.073000
v 0.018478 0.012346 -0.177000
v 0.018478 0.012346 0.073000
v 0.014142 0.005858 -0.177000
v 0.014142 0.005858 0.073000
v 0.007654 0.001522 -0.177000
v 0.007654 0.001522 0.073000
v 0.000000 0.000000 -0.177000
v 0.000000 -0.000000 0.073000
v -0.007654 0.001522 -0.177000
v -0.007654 0.001522 0.073000
v -0.014142 0.005858 -0.177000
v -0.014142 0.005858 0.073000
v -0.018478 0.012346 -0.177000
v -0.018478 0.012346 0.073000
v -0.020000 0.020000 -0.177000
v -0.020000 0.020000 0.073000
v -0.018478 0.027654 -0.177000
v -0.018478 0.027654 0.073000
v -0.014142 0.034142 -0.177000
v -0.014142 0.034142 0.073000
v -0.007654 0.038478 -0.177000
v -0.007654 0.038478 0.073000
v 0.000000 -0.188000 -0.165000
v 0.000000 -0.188000 0.055000
v 0.004592 -0.188913 -0.165000
v 0.004592 -0.188913 0.055000
v 0.008485 -0.191515 -0.165000
v 0.008485 -0.191515 0.055000
v 0.011087 -0.195408 -0.165000
v 0.011087 -0.195408 0.055000
v 0.012000 -0.200000 -0.165000
v 0.012000 -0.200000 0.055000
v 0.011087 -0.204592 -0.165000
v 0.011087 -0.204592 0.055000
v 0.008485 -0.208485 -0.165000
v 0.008485 -0.208485 0.055000
v 0.004592 -0.211087 -0.165000
v 0.004592 -0.211087 0.055000
v 0.000000 -0.212000 -0.165000
v 0.000000 -0.212000 0.055000
v -0.004592 -0.211087 -0.165000
v -0.004592 -0.211087 0.055000
v -0.008485 -0.208485 -0.165000
v -0.008485 -0.208485 0.055000
v -0.011087 -0.204592 -0.165000
v -0.011087 -0.204592 0.055000
v -0.012000 -0.200000 -0.165000
v -0.012000 -0.200000 0.055000
v -0.011087 -0.195408 -0.165000
v -0.011087 -0.195408 0.055000
v -0.008485 -0.191515 -0.165000
v -0.008485 -0.191515 0.055000
v -0.004592 -0.188913 -0.165000
v -0.004592 -0.188913 0.055000
v 0.000000 -0.329000 -0.262000
v 0.000000 -0.329000 0.198000
v 0.004210 -0.329837 -0.262000
v 0.004210 -0.329837 0.198000
v 0.007778 -0.332222 -0.262000
v 0.007778 -0.332222 0.198000
v 0.010163 -0.335790 -0.262000
v 0.010163 -0.335790 0.198000
v 0.011000 -0.340000 -0.262000
v 0.011000 -0.340000 0.198000
v 0.010163 -0.344210 -0.262000
v 0.010163 -0.344210 0.198000
v 0.007778 -0.347778 -0.262000
v 0.007778 -0.347778 0.198000
v 0.004210 -0.350163 -0.262000
v 0.004210 -0.350163 0.198000
v 0.000000 -0.351000 -0.262000
v 0.000000 -0.351000 0.198000
v -0.004210 -0.350163 -0.262000
v -0.004210 -0.350163 0.198000
v -0.007778 -0.347778 -0.262000
v -0.007778 -0.347778 0.198000
v -0.010163 -0.344210 -0.262000
v -0.010163 -0.344210 0.198000
v -0.011000 -0.340000 -0.262000
v -0.011000 -0.340000 0.198000
v -0.010163 -0.335790 -0.262000
v -0.010163 -0.335790 0.198000
v -0.007778 -0.332222 -0.262000
v -0.007778 -0.332222 0.198000
v -0.004210 -0.329837 -0.262000
v -0.004210 -0.329837 0.198000
v 0.000000 -0.477500 -0.070000
v 0.000000 -0.442500 -0.070000
v 0.001913 -0.477500 -0.069619
v 0.001913 -0.442500 -0.069619
v 0.003536 -0.477500 -0.068536
v 0.003536 -0.442500 -0.068536
v 0.004619 -0.477500 -0.066913
v 0.004619 -0.442500 -0.066913
v 0.005000 -0.477500 -0.065000
v 0.005000 -0.442500 -0.065000
v 0.004619 -0.477500 -0.063087
v 0.004619 -0.442500 -0.063087
v 0.003536 -0.477500 -0.061464
v 0.003536 -0.442500 -0.061464
v 0.001913 -0.477500 -0.060381
v 0.001913 -0.442500 -0.060381
v 0.000000 -0.477500 -0.060000
v 0.000000 -0.442500 -0.060000
v -0.001913 -0.477500 -0.060381
v -0.001913 -0.442500 -0.060381
v -0.003536 -0.477500 -0.061464
v -0.003536 -0.442500 -0.061464
v -0.004619 -0.477500 -0.063087
v -0.004619 -0.442500 -0.063087
v -0.005000 -0.477500 -0.065000
v -0.005000 -0.442500 -0.065000
v -0.004619 -0.477500 -0.066913
v -0.004619 -0.442500 -0.066913
v -0.003536 -0.477500 -0.068536
v -0.003536 -0.442500 -0.068536
v -0.001913 -0.477500 -0.069619
v -0.001913 -0.442500 -0.069619
v 0.000000 -0.567000 -0.052000
v 0.000000 -0.567000 -0.012000
v 0.004975 -0.567990 -0.052000
v 0.004975 -0.567990 -0.012000
v 0.009192 -0.570808 -0.052000
v 0.009192 -0.570808 -0.012000
v 0.012010 -0.575025 -0.052000
v 0.012010 -0.575025 -0.012000
v 0.013000 -0.580000 -0.052000
v 0.013000 -0.580000 -0.012000
v 0.012010 -0.584975 -0.052000
v 0.012010 -0.584975 -0.012000
v 0.009192 -0.589192 -0.052000
v 0.009192 -0.589192 -0.012000
v 0.004975 -0.592010 -0.052000
v 0.004975 -0.592010 -0.012000
v 0.000000 -0.593000 -0.052000
v 0.000000 -0.593000 -0.012000
v -0.004975 -0.592010 -0.052000
v -0.004975 -0.592010 -0.012000
v -0.009192 -0.589192 -0.052000
v -0.009192 -0.589192 -0.012000
v -0.012010 -0.584975 -0.052000
v -0.012010 -0.584975 -0.012000
v -0.013000 -0.580000 -0.052000
v -0.013000 -0.580000 -0.012000
v -0.012010 -0.575025 -0.052000
v -0.012010 -0.575025 -0.012000
v -0.009192 -0.570808 -0.052000
v -0.009192 -0.570808 -0.012000
v -0.004975 -0.567990 -0.052000
v -0.004975 -0.567990 -0.012000
v -0.022000 -0.285000 -0.007000
v -0.022000 -0.095000 -0.007000
v -0.022000 -0.285000 -0.045000
v -0.022000 -0.095000 -0.045000
v 0.022000 -0.285000 -0.007000
v 0.022000 -0.095000 -0.007000
v 0.022000 -0.285000 -0.045000
v 0.022000 -0.095000 -0.045000
v -0.019000 -0.270000 -0.045000
v -0.019000 -0.110000 -0.045000
v -0.019000 -0.270000 -0.071000
v -0.019000 -0.110000 -0.071000
v 0.019000 -0.270000 -0.045000
v 0.019000 -0.110000 -0.045000
v 0.019000 -0.270000 -0.071000
v 0.019000 -0.110000 -0.071000
v -0.016000 0.077000 0.122500
v -0.016000 0.123000 0.122500
v -0.016000 0.077000 0.007500
v -0.016000 0.123000 0.007500
v 0.016000 0.077000 0.122500
v 0.016000 0.123000 0.122500
v 0.016000 0.077000 0.007500
v 0.016000 0.123000 0.007500
v -0.019000 0.165000 0.039500
v -0.019000 0.415000 0.039500
v -0.019000 0.165000 -0.055500
v -0.019000 0.415000 -0.055500
v 0.019000 0.165000 0.039500
v 0.019000 0.415000 0.039500
v 0.019000 0.165000 -0.055500
v 0.019000 0.415000 -0.055500
v -0.019000 0.412000 0.041000
v -0.019000 0.424000 0.041000
v -0.019000 0.412000 -0.057000
v -0.019000 0.424000 -0.057000
v 0.019000 0.412000 0.041000
v 0.019000 0.424000 0.041000
v 0.019000 0.412000 -0.057000
v 0.019000 0.424000 -0.057000
v -0.015000 -0.072500 0.200000
v -0.015000 0.012500 0.200000
v -0.015000 -0.072500 0.020000
v -0.015000 0.012500 0.020000
v 0.015000 -0.072500 0.200000
v 0.015000 0.012500 0.200000
v 0.015000 -0.072500 0.020000
v 0.015000 0.012500 0.020000
vn -1.0000 -0.0000 -0.0000
vn -0.0000 -0.0000 -1.0000
vn 1.0000 -0.0000 -0.0000
vn -0.0000 -0.0000 1.0000
vn -0.0000 -1.0000 -0.0000
vn -0.0000 1.0000 -0.0000
vn 0.1951 0.9808 -0.0000
vn 0.5556 0.8315 -0.0000
vn 0.8315 0.5556 -0.0000
vn 0.9808 0.1951 -0.0000
vn 0.9808 -0.1951 -0.0000
vn 0.8315 -0.5556 -0.0000
vn 0.5556 -0.8315 -0.0000
vn 0.1951 -0.9808 -0.0000
vn -0.1951 -0.9808 -0.0000
vn -0.5556 -0.8315 -0.0000
vn -0.8315 -0.5556 -0.0000
vn -0.9808 -0.1951 -0.0000
vn -0.9808 0.1951 -0.0000
vn -0.8315 0.5556 -0.0000
vn -0.5556 0.8315 -0.0000
vn -0.1951 0.9808 -0.0000
vn 0.1951 -0.0000 -0.9808
vn 0.5556 -0.0000 -0.8315
vn 0.8315 -0.0000 -0.5556
vn 0.9808 -0.0000 -0.1951
vn 0.9808 -0.0000 0.1951
vn 0.8315 -0.0000 0.5556
vn 0.5556 -0.0000 0.8315
vn 0.1951 -0.0000 0.9808
vn -0.1951 -0.0000 0.9808
vn -0.5556 -0.0000 0.8315
vn -0.8315 -0.0000 0.5556
vn -0.9808 -0.0000 0.1951
vn -0.9808 -0.0000 -0.1951
vn -0.8315 -0.0000 -0.5556
vn -0.5556 -0.0000 -0.8315
vn -0.1951 -0.0000 -0.9808
vt 0.375000 0.000000
vt 0.625000 0.000000
vt 0.625000 0.250000
vt 0.375000 0.250000
vt 0.625000 0.500000
vt 0.375000 0.500000
vt 0.625000 0.750000
vt 0.375000 0.750000
vt 0.625000 1.000000
vt 0.375000 1.000000
vt 0.125000 0.500000
vt 0.125000 0.750000
vt 0.875000 0.500000
vt 0.875000 0.750000
vt 1.000000 0.500000
vt 1.000000 1.000000
vt 0.937500 1.000000
vt 0.937500 0.500000
vt 0.875000 1.000000
vt 0.812500 1.000000
vt 0.812500 0.500000
vt 0.750000 1.000000
vt 0.750000 0.500000
vt 0.687500 1.000000
vt 0.687500 0.500000
vt 0.562500 1.000000
vt 0.562500 0.500000
vt 0.500000 1.000000
vt 0.500000 0.500000
vt 0.437500 1.000000
vt 0.437500 0.500000
vt 0.312500 1.000000
vt 0.312500 0.500000
vt 0.250000 1.000000
vt 0.250000 0.500000
vt 0.187500 1.000000
vt 0.187500 0.500000
vt 0.125000 1.000000
vt 0.341844 0.471731
vt 0.250000 0.490000
vt 0.158156 0.471731
vt 0.080294 0.419706
vt 0.028269 0.341844
vt 0.010000 0.250000
vt 0.028269 0.158156
vt 0.080294 0.080294
vt 0.158156 0.028269
vt 0.250000 0.010000
vt 0.341844 0.028269
vt 0.419706 0.080294
vt 0.471731 0.158156
vt 0.490000 0.250000
vt 0.471731 0.341844
vt 0.419706 0.419706
vt 0.062500 1.000000
vt 0.062500 0.500000
vt 0.000000 1.000000
vt 0.000000 0.500000
vt 0.750000 0.490000
vt 0.841844 0.471731
vt 0.919706 0.419706
vt 0.971731 0.341844
vt 0.990000 0.250000
vt 0.971731 0.158156
vt 0.919706 0.080294
vt 0.841844 0.028269
vt 0.750000 0.010000
vt 0.658156 0.028269
vt 0.580294 0.080294
vt 0.528269 0.158156
vt 0.510000 0.250000
vt 0.528269 0.341844
vt 0.580294 0.419706
vt 0.658156 0.471731
vt 0.158156 0.471731
vt 0.080294 0.419706
vt 0.028269 0.341844
vt 0.010000 0.250000
vt 0.028269 0.158156
vt 0.080294 0.080294
vt 0.158156 0.028269
vt 0.250000 0.010000
vt 0.341844 0.028269
vt 0.419706 0.080294
vt 0.471731 0.158156
vt 0.971731 0.158156
vt 0.919706 0.080294
vt 0.841844 0.028269
vt 0.750000 0.010000
vt 0.658156 0.028269
vt 0.580294 0.080294
vt 0.528269 0.158156
vt 0.028269 0.158156
vt 0.158156 0.028269
s 0
usemtl Mat_DarkMetal
f 1/1/1 2/2/1 4/3/1 3/4/1
f 3/4/2 4/3/2 8/5/2 7/6/2
f 7/6/3 8/5/3 6/7/3 5/8/3
f 5/8/4 6/7/4 2/9/4 1/10/4
f 3/11/5 7/6/5 5/8/5 1/12/5
f 8/5/6 4/13/6 2/14/6 6/7/6
f 9/15/7 10/16/7 12/17/7 11/18/7
f 11/18/8 12/17/8 14/19/8 13/13/8
f 13/13/9 14/19/9 16/20/9 15/21/9
f 15/21/10 16/20/10 18/22/10 17/23/10
f 17/23/11 18/22/11 20/24/11 19/25/11
f 19/25/12 20/24/12 22/9/12 21/5/12
f 21/5/13 22/9/13 24/26/13 23/27/13
f 23/27/14 24/26/14 26/28/14 25/29/14
f 25/29/15 26/28/15 28/30/15 27/31/15
f 27/31/16 28/30/16 30/10/16 29/6/16
f 29/6/17 30/10/17 32/32/17 31/33/17
f 31/33/18 32/32/18 34/34/18 33/35/18
f 33/35/19 34/34/19 36/36/19 35/37/19
f 35/37/20 36/36/20 38/38/20 37/11/20
f 12/39/4 10/40/4 40/41/4 38/42/4 36/43/4 34/44/4 32/45/4 30/46/4 28/47/4 26/48/4 24/49/4 22/50/4 20/51/4 18/52/4 16/53/4 14/54/4
f 37/11/21 38/38/21 40/55/21 39/56/21
f 39/56/22 40/55/22 10/57/22 9/58/22
f 9/59/2 11/60/2 13/61/2 15/62/2 17/63/2 19/64/2 21/65/2 23/66/2 25/67/2 27/68/2 29/69/2 31/70/2 33/71/2 35/72/2 37/73/2 39/74/2
f 41/15/7 42/16/7 44/17/7 43/18/7
f 43/18/8 44/17/8 46/19/8 45/13/8
f 45/13/9 46/19/9 48/20/9 47/21/9
f 47/21/10 48/20/10 50/22/10 49/23/10
f 49/23/11 50/22/11 52/24/11 51/25/11
f 51/25/12 52/24/12 54/9/12 53/5/12
f 53/5/13 54/9/13 56/26/13 55/27/13
f 55/27/14 56/26/14 58/28/14 57/29/14
f 57/29/15 58/28/15 60/30/15 59/31/15
f 59/31/16 60/30/16 62/10/16 61/6/16
f 61/6/17 62/10/17 64/32/17 63/33/17
f 63/33/18 64/32/18 66/34/18 65/35/18
f 65/35/19 66/34/19 68/36/19 67/37/19
f 67/37/20 68/36/20 70/38/20 69/11/20
f 44/39/4 42/40/4 72/75/4 70/76/4 68/77/4 66/78/4 64/79/4 62/80/4 60/81/4 58/82/4 56/83/4 54/84/4 52/85/4 50/52/4 48/53/4 46/54/4
f 69/11/21 70/38/21 72/55/21 71/56/21
f 71/56/22 72/55/22 42/57/22 41/58/22
f 41/59/2 43/60/2 45/61/2 47/62/2 49/63/2 51/86/2 53/87/2 55/88/2 57/89/2 59/90/2 61/91/2 63/92/2 65/71/2 67/72/2 69/73/2 71/74/2
f 73/15/7 74/16/7 76/17/7 75/18/7
f 75/18/8 76/17/8 78/19/8 77/13/8
f 77/13/9 78/19/9 80/20/9 79/21/9
f 79/21/10 80/20/10 82/22/10 81/23/10
f 81/23/11 82/22/11 84/24/11 83/25/11
f 83/25/12 84/24/12 86/9/12 85/5/12
f 85/5/13 86/9/13 88/26/13 87/27/13
f 87/27/14 88/26/14 90/28/14 89/29/14
f 89/29/15 90/28/15 92/30/15 91/31/15
f 91/31/16 92/30/16 94/10/16 93/6/16
f 93/6/17 94/10/17 96/32/17 95/33/17
f 95/33/18 96/32/18 98/34/18 97/35/18
f 97/35/19 98/34/19 100/36/19 99/37/19
f 99/37/20 100/36/20 102/38/20 101/11/20
f 76/39/4 74/40/4 104/41/4 102/76/4 100/77/4 98/44/4 96/93/4 94/80/4 92/94/4 90/48/4 88/83/4 86/84/4 84/51/4 82/52/4 80/53/4 78/54/4
f 101/11/21 102/38/21 104/55/21 103/56/21
f 103/56/22 104/55/22 74/57/22 73/58/22
f 73/59/2 75/60/2 77/61/2 79/62/2 81/63/2 83/64/2 85/87/2 87/88/2 89/67/2 91/90/2 93/91/2 95/70/2 97/71/2 99/72/2 101/73/2 103/74/2
f 105/15/23 106/16/23 108/17/23 107/18/23
f 107/18/24 108/17/24 110/19/24 109/13/24
f 109/13/25 110/19/25 112/20/25 111/21/25
f 111/21/26 112/20/26 114/22/26 113/23/26
f 113/23/27 114/22/27 116/24/27 115/25/27
f 115/25/28 116/24/28 118/9/28 117/5/28
f 117/5/29 118/9/29 120/26/29 119/27/29
f 119/27/30 120/26/30 122/28/30 121/29/30
f 121/29/31 122/28/31 124/30/31 123/31/31
f 123/31/32 124/30/32 126/10/32 125/6/32
f 125/6/33 126/10/33 128/32/33 127/33/33
f 127/33/34 128/32/34 130/34/34 129/35/34
f 129/35/35 130/34/35 132/36/35 131/37/35
f 131/37/36 132/36/36 134/38/36 133/11/36
f 108/39/6 106/40/6 136/41/6 134/42/6 132/43/6 130/44/6 128/45/6 126/46/6 124/47/6 122/48/6 120/49/6 118/50/6 116/51/6 114/52/6 112/53/6 110/54/6
f 133/11/37 134/38/37 136/55/37 135/56/37
f 135/56/38 136/55/38 106/57/38 105/58/38
f 105/59/5 107/60/5 109/61/5 111/62/5 113/63/5 115/64/5 117/65/5 119/66/5 121/67/5 123/68/5 125/69/5 127/70/5 129/71/5 131/72/5 133/73/5 135/74/5
f 137/15/7 138/16/7 140/17/7 139/18/7
f 139/18/8 140/17/8 142/19/8 141/13/8
f 141/13/9 142/19/9 144/20/9 143/21/9
f 143/21/10 144/20/10 146/22/10 145/23/10
f 145/23/11 146/22/11 148/24/11 147/25/11
f 147/25/12 148/24/12 150/9/12 149/5/12
f 149/5/13 150/9/13 152/26/13 151/27/13
f 151/27/14 152/26/14 154/28/14 153/29/14
f 153/29/15 154/28/15 156/30/15 155/31/15
f 155/31/16 156/30/16 158/10/16 157/6/16
f 157/6/17 158/10/17 160/32/17 159/33/17
f 159/33/18 160/32/18 162/34/18 161/35/18
f 161/35/19 162/34/19 164/36/19 163/37/19
f 163/37/20 164/36/20 166/38/20 165/11/20
f 140/39/4 138/40/4 168/41/4 166/42/4 164/77/4 162/78/4 160/93/4 158/46/4 156/94/4 154/82/4 152/83/4 150/50/4 148/51/4 146/52/4 144/53/4 142/54/4
f 165/11/21 166/38/21 168/55/21 167/56/21
f 167/56/22 168/55/22 138/57/22 137/58/22
f 137/59/2 139/60/2 141/61/2 143/62/2 145/63/2 147/64/2 149/65/2 151/88/2 153/89/2 155/90/2 157/69/2 159/70/2 161/71/2 163/72/2 165/73/2 167/74/2
f 201/1/1 202/2/1 204/3/1 203/4/1
f 203/4/2 204/3/2 208/5/2 207/6/2
f 207/6/3 208/5/3 206/7/3 205/8/3
f 205/8/4 206/7/4 202/9/4 201/10/4
f 203/11/5 207/6/5 205/8/5 201/12/5
f 208/5/6 204/13/6 202/14/6 206/7/6
usemtl Mat_Wood
f 169/1/1 170/2/1 172/3/1 171/4/1
f 171/4/2 172/3/2 176/5/2 175/6/2
f 175/6/3 176/5/3 174/7/3 173/8/3
f 173/8/4 174/7/4 170/9/4 169/10/4
f 171/11/5 175/6/5 173/8/5 169/12/5
f 176/5/6 172/13/6 170/14/6 174/7/6
f 177/1/1 178/2/1 180/3/1 179/4/1
f 179/4/2 180/3/2 184/5/2 183/6/2
f 183/6/3 184/5/3 182/7/3 181/8/3
f 181/8/4 182/7/4 178/9/4 177/10/4
f 179/11/5 183/6/5 181/8/5 177/12/5
f 184/5/6 180/13/6 178/14/6 182/7/6
f 185/1/1 186/2/1 188/3/1 187/4/1
f 187/4/2 188/3/2 192/5/2 191/6/2
f 191/6/3 192/5/3 190/7/3 189/8/3
f 189/8/4 190/7/4 186/9/4 185/10/4
f 187/11/5 191/6/5 189/8/5 185/12/5
f 192/5/6 188/13/6 186/14/6 190/7/6
f 193/1/1 194/2/1 196/3/1 195/4/1
f 195/4/2 196/3/2 200/5/2 199/6/2
f 199/6/3 200/5/3 198/7/3 197/8/3
f 197/8/4 198/7/4 194/9/4 193/10/4
f 195/11/5 199/6/5 197/8/5 193/12/5
f 200/5/6 196/13/6 194/14/6 198/7/6
usemtl Mat_Steel
f 209/1/1 210/2/1 212/3/1 211/4/1
f 211/4/2 212/3/2 216/5/2 215/6/2
f 215/6/3 216/5/3 214/7/3 213/8/3
f 213/8/4 214/7/4 210/9/4 209/10/4
f 211/11/5 215/6/5 213/8/5 209/12/5
f 216/5/6 212/13/6 210/14/6 214/7/6
