# Blender 4.0.2
# www.blender.org
mtllib awp.mtl
o Weapon_AWP
v -0.023000 -0.400000 0.006000
v -0.023000 0.000000 0.006000
v -0.023000 -0.400000 -0.046000
v -0.023000 0.000000 -0.046000
v 0.023000 -0.400000 0.006000
v 0.023000 0.000000 0.006000
v 0.023000 -0.400000 -0.046000
v 0.023000 0.000000 -0.046000
v -0.022000 0.040000 0.032500
v -0.022000 0.320000 0.032500
v -0.022000 0.040000 -0.052500
v -0.022000 0.320000 -0.052500
v 0.022000 0.040000 0.032500
v 0.022000 0.320000 0.032500
v 0.022000 0.040000 -0.052500
v 0.022000 0.320000 -0.052500
v -0.018000 0.090000 -0.050000
v -0.018000 0.230000 -0.050000
v -0.018000 0.090000 -0.080000
v -0.018000 0.230000 -0.080000
v 0.018000 0.090000 -0.050000
v 0.018000 0.230000 -0.050000
v 0.018000 0.090000 -0.080000
v 0.018000 0.230000 -0.080000
v -0.022000 0.312500 0.045000
v -0.022000 0.337500 0.045000
v -0.022000 0.312500 -0.065000
v -0.022000 0.337500 -0.065000
v 0.022000 0.312500 0.045000
v 0.022000 0.337500 0.045000
v 0.022000 0.312500 -0.065000
v 0.022000 0.337500 -0.065000
v 0.000000 -0.505000 -0.367000
v 0.000000 -0.505000 0.283000
v 0.005740 -0.506142 -0.367000
v 0.005740 -0.506142 0.283000
v 0.010607 -0.509393 -0.367000
v 0.010607 -0.509393 0.283000
v 0.013858 -0.514260 -0.367000
v 0.013858 -0.514260 0.283000
v 0.015000 -0.520000 -0.367000
v 0.015000 -0.520000 0.283000
v 0.013858 -0.525740 -0.367000
v 0.013858 -0.525740 0.283000
v 0.010607 -0.530607 -0.367000
v 0.010607 -0.530607 0.283000
v 0.005740 -0.533858 -0.367000
v 0.005740 -0.533858 0.283000
v 0.000000 -0.535000 -0.367000
v 0.000000 -0.535000 0.283000
v -0.005740 -0.533858 -0.367000
v -0.005740 -0.533858 0.283000
v -0.010607 -0.530607 -0.367000
v -0.010607 -0.530607 0.283000
v -0.013858 -0.525740 -0.367000
v -0.013858 -0.525740 0.283000
v -0.015000 -0.520000 -0.367000
v -0.015000 -0.520000 0.283000
v -0.013858 -0.514260 -0.367000
v -0.013858 -0.514260 0.283000
v -0.010607 -0.509393 -0.367000
v -0.010607 -0.509393 0.283000
v -0.005740 -0.506142 -0.367000
v -0.005740 -0.506142 0.283000
v -0.017000 -0.892500 -0.026000
v -0.017000 -0.827500 -0.026000
v -0.017000 -0.892500 -0.058000
v -0.017000 -0.827500 -0.058000
v 0.017000 -0.892500 -0.026000
v 0.017000 -0.827500 -0.026000
v 0.017000 -0.892500 -0.058000
v 0.017000 -0.827500 -0.058000
v 0.000000 -0.030000 -0.235000
v 0.000000 -0.030000 0.025000
v 0.007654 -0.031522 -0.235000
v 0.007654 -0.031522 0.025000
v 0.014142 -0.035858 -0.235000
v 0.014142 -0.035858 0.025000
v 0.018478 -0.042346 -0.235000
v 0.018478 -0.042346 0.025000
v 0.020000 -0.050000 -0.235000
v 0.020000 -0.050000 0.025000
v 0.018478 -0.057654 -0.235000
v 0.018478 -0.057654 0.025000
v 0.014142 -0.064142 -0.235000
v 0.014142 -0.064142 0.025000
v 0.007654 -0.068478 -0.235000
v 0.007654 -0.068478 0.025000
v 0.000000 -0.070000 -0.235000
v 0.000000 -0.070000 0.025000
v -0.007654 -0.068478 -0.235000
v -0.007654 -0.068478 0.025000
v -0.014142 -0.064142 -0.235000
v -0.014142 -0.064142 0.025000
v -0.018478 -0.057654 -0.235000
v -0.018478 -0.057654 0.025000
v -0.020000 -0.050000 -0.235000
v -0.020000 -0.050000 0.025000
v -0.018478 -0.042346 -0.235000
v -0.018478 -0.042346 0.025000
v -0.014142 -0.035858 -0.235000
v -0.014142 -0.035858 0.025000
v -0.007654 -0.031522 -0.235000
v -0.007654 -0.031522 0.025000
v 0.000000 -0.162000 -0.145000
v 0.000000 -0.162000 -0.065000
v 0.010715 -0.164131 -0.145000
v 0.010715 -0.164131 -0.065000
v 0.019799 -0.170201 -0.145000
v 0.019799 -0.170201 -0.065000
v 0.025869 -0.179285 -0.145000
v 0.025869 -0.179285 -0.065000
v 0.028000 -0.190000 -0.145000
v 0.028000 -0.190000 -0.065000
v 0.025869 -0.200715 -0.145000
v 0.025869 -0.200715 -0.065000
v 0.019799 -0.209799 -0.145000
v 0.019799 -0.209799 -0.065000
v 0.010715 -0.215869 -0.145000
v 0.010715 -0.215869 -0.065000
v 0.000000 -0.218000 -0.145000
v 0.000000 -0.218000 -0.065000
v -0.010715 -0.215869 -0.145000
v -0.010715 -0.215869 -0.065000
v -0.019799 -0.209799 -0.145000
v -0.019799 -0.209799 -0.065000
v -0.025869 -0.200715 -0.145000
v -0.025869 -0.200715 -0.065000
v -0.028000 -0.190000 -0.145000
v -0.028000 -0.190000 -0.065000
v -0.025869 -0.179285 -0.145000
v -0.025869 -0.179285 -0.065000
v -0.019799 -0.170201 -0.145000
v -0.019799 -0.170201 -0.065000
v -0.010715 -0.164131 -0.145000
v -0.010715 -0.164131 -0.065000
v 0.000000 0.114000 -0.135000
v 0.000000 0.114000 -0.075000
v 0.009184 0.112173 -0.135000
v 0.009184 0.112173 -0.075000
v 0.016971 0.106971 -0.135000
v 0.016971 0.106971 -0.075000
v 0.022173 0.099184 -0.135000
v 0.022173 0.099184 -0.075000
v 0.024000 0.090000 -0.135000
v 0.024000 0.090000 -0.075000
v 0.022173 0.080816 -0.135000
v 0.022173 0.080816 -0.075000
v 0.016971 0.073029 -0.135000
v 0.016971 0.073029 -0.075000
v 0.009184 0.067827 -0.135000
v 0.009184 0.067827 -0.075000
v 0.000000 0.066000 -0.135000
v 0.000000 0.066000 -0.075000
v -0.009184 0.067827 -0.135000
v -0.009184 0.067827 -0.075000
v -0.016971 0.073029 -0.135000
v -0.016971 0.073029 -0.075000
v -0.022173 0.080816 -0.135000
v -0.022173 0.080816 -0.075000
v -0.024000 0.090000 -0.135000
v -0.024000 0.090000 -0.075000
v -0.022173 0.099184 -0.135000
v -0.022173 0.099184 -0.075000
v -0.016971 0.106971 -0.135000
v -0.016971 0.106971 -0.075000
v -0.009184 0.112173 -0.135000
v -0.009184 0.112173 -0.075000
v 0.000000 -0.195000 -0.110000
v 0.000000 -0.195000 -0.100000
v 0.009567 -0.196903 -0.110000
v 0.009567 -0.196903 -0.100000
v 0.017678 -0.202322 -0.110000
v 0.017678 -0.202322 -0.100000
v 0.023097 -0.210433 -0.110000
v 0.023097 -0.210433 -0.100000
v 0.025000 -0.220000 -0.110000
v 0.025000 -0.220000 -0.100000
v 0.023097 -0.229567 -0.110000
v 0.023097 -0.229567 -0.100000
v 0.017678 -0.237678 -0.110000
v 0.017678 -0.237678 -0.100000
v 0.009567 -0.243097 -0.110000
v 0.009567 -0.243097 -0.100000
v 0.000000 -0.245000 -0.110000
v 0.000000 -0.245000 -0.100000
v -0.009567 -0.243097 -0.110000
v -0.009567 -0.243097 -0.100000
v -0.017678 -0.237678 -0.110000
v -0.017678 -0.237678 -0.100000
v -0.023097 -0.229567 -0.110000
v -0.023097 -0.229567 -0.100000
v -0.025000 -0.220000 -0.110000
v -0.025000 -0.220000 -0.100000
v -0.023097 -0.210433 -0.110000
v -0.023097 -0.210433 -0.100000
v -0.017678 -0.202322 -0.110000
v -0.017678 -0.202322 -0.100000
v -0.009567 -0.196903 -0.110000
v -0.009567 -0.196903 -0.100000
v -0.014000 -0.132500 -0.044000
v -0.014000 -0.107500 -0.044000
v -0.014000 -0.132500 -0.086000
v -0.014000 -0.107500 -0.086000
v 0.014000 -0.132500 -0.044000
v 0.014000 -0.107500 -0.044000
v 0.014000 -0.132500 -0.086000
v 0.014000 -0.107500 -0.086000
v -0.014000 0.007500 -0.044000
v -0.014000 0.032500 -0.044000
v -0.014000 0.007500 -0.086000
v -0.014000 0.032500 -0.086000
v 0.014000 0.007500 -0.044000
v 0.014000 0.032500 -0.044000
v 0.014000 0.007500 -0.086000
v 0.014000 0.032500 -0.086000
v 0.030757 0.025000 -0.049243
v 0.030757 0.075000 -0.049243
v 0.032704 0.025000 -0.050543
v 0.032704 0.075000 -0.050543
v 0.035000 0.025000 -0.051000
v 0.035000 0.075000 -0.051000
v 0.037296 0.025000 -0.050543
v 0.037296 0.075000 -0.050543
v 0.039243 0.025000 -0.049243
v 0.039243 0.075000 -0.049243
v 0.040543 0.025000 -0.047296
v 0.040543 0.075000 -0.047296
v 0.041000 0.025000 -0.045000
v 0.041000 0.075000 -0.045000
v 0.040543 0.025000 -0.042704
v 0.040543 0.075000 -0.042704
v 0.039243 0.025000 -0.040757
v 0.039243 0.075000 -0.040757
v 0.037296 0.025000 -0.039457
v 0.037296 0.075000 -0.039457
v 0.035000 0.025000 -0.039000
v 0.035000 0.075000 -0.039000
v 0.032704 0.025000 -0.039457
v 0.032704 0.075000 -0.039457
v 0.030757 0.025000 -0.040757
v 0.030757 0.075000 -0.040757
v 0.029457 0.025000 -0.042704
v 0.029457 0.075000 -0.042704
v 0.029000 0.025000 -0.045000
v 0.029000 0.075000 -0.045000
v 0.029457 0.025000 -0.047296
v 0.029457 0.075000 -0.047296
v 0.055000 0.061591 -0.058106
v 0.055000 0.060392 -0.061000
v 0.055000 0.056000 -0.065392
v 0.055000 0.053106 -0.066591
v 0.055000 0.050000 -0.067000
v 0.055000 0.046894 -0.066591
v 0.055000 0.044000 -0.065392
v 0.055000 0.039608 -0.061000
v 0.055000 0.038409 -0.058106
v 0.056189 0.061591 -0.057869
v 0.057296 0.060392 -0.060543
v 0.058247 0.058485 -0.062839
v 0.058977 0.056000 -0.064601
v 0.059436 0.053106 -0.065709
v 0.059592 0.050000 -0.066087
v 0.059436 0.046894 -0.065709
v 0.058977 0.044000 -0.064601
v 0.058247 0.041515 -0.062839
v 0.057296 0.039608 -0.060543
v 0.056189 0.038409 -0.057869
v 0.055000 0.062000 -0.055000
v 0.057196 0.061591 -0.057196
v 0.059243 0.060392 -0.059243
v 0.061000 0.058485 -0.061000
v 0.062348 0.056000 -0.062348
v 0.063196 0.053106 -0.063196
v 0.063485 0.050000 -0.063485
v 0.063196 0.046894 -0.063196
v 0.062348 0.044000 -0.062348
v 0.061000 0.041515 -0.061000
v 0.059243 0.039608 -0.059243
v 0.057196 0.038409 -0.057196
v 0.057869 0.061591 -0.056189
v 0.060543 0.060392 -0.057296
v 0.062839 0.058485 -0.058247
v 0.064601 0.056000 -0.058977
v 0.065709 0.053106 -0.059436
v 0.066087 0.050000 -0.059592
v 0.065709 0.046894 -0.059436
v 0.064601 0.044000 -0.058977
v 0.062839 0.041515 -0.058247
v 0.060543 0.039608 -0.057296
v 0.057869 0.038409 -0.056189
v 0.058106 0.061591 -0.055000
v 0.061000 0.060392 -0.055000
v 0.063485 0.058485 -0.055000
v 0.065392 0.056000 -0.055000
v 0.066591 0.053106 -0.055000
v 0.067000 0.050000 -0.055000
v 0.066591 0.046894 -0.055000
v 0.065392 0.044000 -0.055000
v 0.063485 0.041515 -0.055000
v 0.061000 0.039608 -0.055000
v 0.058106 0.038409 -0.055000
v 0.057869 0.061591 -0.053811
v 0.060543 0.060392 -0.052704
v 0.062839 0.058485 -0.051753
v 0.064601 0.056000 -0.051023
v 0.065709 0.053106 -0.050564
v 0.066087 0.050000 -0.050408
v 0.065709 0.046894 -0.050564
v 0.064601 0.044000 -0.051023
v 0.062839 0.041515 -0.051753
v 0.060543 0.039608 -0.052704
v 0.057869 0.038409 -0.053811
v 0.057196 0.061591 -0.052804
v 0.059243 0.060392 -0.050757
v 0.061000 0.058485 -0.049000
v 0.062348 0.056000 -0.047652
v 0.063196 0.053106 -0.046804
v 0.063485 0.050000 -0.046515
v 0.063196 0.046894 -0.046804
v 0.062348 0.044000 -0.047652
v 0.061000 0.041515 -0.049000
v 0.059243 0.039608 -0.050757
v 0.057196 0.038409 -0.052804
v 0.056189 0.061591 -0.052131
v 0.057296 0.060392 -0.049457
v 0.058247 0.058485 -0.047161
v 0.058977 0.056000 -0.045399
v 0.059436 0.053106 -0.044291
v 0.059592 0.050000 -0.043913
v 0.059436 0.046894 -0.044291
v 0.058977 0.044000 -0.045399
v 0.058247 0.041515 -0.047161
v 0.057296 0.039608 -0.049457
v 0.056189 0.038409 -0.052131
v 0.055000 0.061591 -0.051894
v 0.055000 0.060392 -0.049000
v 0.055000 0.058485 -0.046515
v 0.055000 0.056000 -0.044608
v 0.055000 0.053106 -0.043409
v 0.055000 0.050000 -0.043000
v 0.055000 0.046894 -0.043409
v 0.055000 0.044000 -0.044608
v 0.055000 0.041515 -0.046515
v 0.055000 0.039608 -0.049000
v 0.055000 0.038409 -0.051894
v 0.053811 0.061591 -0.052131
v 0.052704 0.060392 -0.049457
v 0.051753 0.058485 -0.047161
v 0.051023 0.056000 -0.045399
v 0.050564 0.053106 -0.044291
v 0.050408 0.050000 -0.043913
v 0.050564 0.046894 -0.044291
v 0.051023 0.044000 -0.045399
v 0.051753 0.041515 -0.047161
v 0.052704 0.039608 -0.049457
v 0.053811 0.038409 -0.052131
v 0.055000 0.038000 -0.055000
v 0.052804 0.061591 -0.052804
v 0.050757 0.060392 -0.050757
v 0.049000 0.058485 -0.049000
v 0.047652 0.056000 -0.047652
v 0.046804 0.053106 -0.046804
v 0.046515 0.050000 -0.046515
v 0.046804 0.046894 -0.046804
v 0.047652 0.044000 -0.047652
v 0.049000 0.041515 -0.049000
v 0.050757 0.039608 -0.050757
v 0.052804 0.038409 -0.052804
v 0.052131 0.061591 -0.053811
v 0.049457 0.060392 -0.052704
v 0.047161 0.058485 -0.051753
v 0.045399 0.056000 -0.051023
v 0.044291 0.053106 -0.050564
v 0.043913 0.050000 -0.050408
v 0.044291 0.046894 -0.050564
v 0.045399 0.044000 -0.051023
v 0.047161 0.041515 -0.051753
v 0.049457 0.039608 -0.052704
v 0.052131 0.038409 -0.053811
v 0.051894 0.061591 -0.055000
v 0.049000 0.060392 -0.055000
v 0.046515 0.058485 -0.055000
v 0.044608 0.056000 -0.055000
v 0.043409 0.053106 -0.055000
v 0.043000 0.050000 -0.055000
v 0.043409 0.046894 -0.055000
v 0.044608 0.044000 -0.055000
v 0.046515 0.041515 -0.055000
v 0.049000 0.039608 -0.055000
v 0.051894 0.038409 -0.055000
v 0.052131 0.061591 -0.056189
v 0.049457 0.060392 -0.057296
v 0.047161 0.058485 -0.058247
v 0.045399 0.056000 -0.058977
v 0.044291 0.053106 -0.059436
v 0.043913 0.050000 -0.059592
v 0.044291 0.046894 -0.059436
v 0.045399 0.044000 -0.058977
v 0.047161 0.041515 -0.058247
v 0.049457 0.039608 -0.057296
v 0.052131 0.038409 -0.056189
v 0.052804 0.061591 -0.057196
v 0.050757 0.060392 -0.059243
v 0.049000 0.058485 -0.061000
v 0.047652 0.056000 -0.062348
v 0.046804 0.053106 -0.063196
v 0.046515 0.050000 -0.063485
v 0.046804 0.046894 -0.063196
v 0.047652 0.044000 -0.062348
v 0.049000 0.041515 -0.061000
v 0.050757 0.039608 -0.059243
v 0.052804 0.038409 -0.057196
v 0.053811 0.061591 -0.057869
v 0.052704 0.060392 -0.060543
v 0.051753 0.058485 -0.062839
v 0.051023 0.056000 -0.064601
v 0.050564 0.053106 -0.065709
v 0.050408 0.050000 -0.066087
v 0.050564 0.046894 -0.065709
v 0.051023 0.044000 -0.064601
v 0.051753 0.041515 -0.062839
v 0.052704 0.039608 -0.060543
v 0.053811 0.038409 -0.057869
v 0.055000 0.058485 -0.063485
v 0.055000 0.041515 -0.063485
v -0.016000 -0.061000 0.087500
v -0.016000 0.021000 0.087500
v -0.016000 -0.061000 0.002500
v -0.016000 0.021000 0.002500
v 0.016000 -0.061000 0.087500
v 0.016000 0.021000 0.087500
v 0.016000 -0.061000 0.002500
v 0.016000 0.021000 0.002500
v -0.025021 -0.340122 -0.055257
v -0.022903 -0.328105 0.084211
v -0.022839 -0.340969 -0.055217
v -0.020720 -0.328952 0.084251
v -0.021147 -0.342583 -0.055103
v -0.019028 -0.330566 0.084364
v -0.020203 -0.344718 -0.054934
v -0.018084 -0.332702 0.084534
v -0.020151 -0.347050 -0.054734
v -0.018032 -0.335034 0.084734
v -0.020998 -0.349223 -0.054534
v -0.018879 -0.337207 0.084934
v -0.022615 -0.350907 -0.054364
v -0.020496 -0.338891 0.085103
v -0.024757 -0.351845 -0.054251
v -0.022638 -0.339829 0.085217
v -0.027097 -0.351895 -0.054211
v -0.024979 -0.339878 0.085257
v -0.029280 -0.351048 -0.054251
v -0.027161 -0.339031 0.085217
v -0.030972 -0.349434 -0.054364
v -0.028853 -0.337417 0.085103
v -0.031916 -0.347298 -0.054534
v -0.029797 -0.335282 0.084934
v -0.031968 -0.344966 -0.054734
v -0.029849 -0.332950 0.084734
v -0.031121 -0.342793 -0.054934
v -0.029002 -0.330777 0.084534
v -0.029504 -0.341109 -0.055103
v -0.027385 -0.329093 0.084364
v -0.027362 -0.340171 -0.055217
v -0.025243 -0.328155 0.084251
v 0.025021 -0.340122 -0.055257
v 0.022903 -0.328105 0.084211
v 0.027362 -0.340171 -0.055217
v 0.025243 -0.328155 0.084251
v 0.029504 -0.341109 -0.055103
v 0.027385 -0.329093 0.084364
v 0.031121 -0.342793 -0.054934
v 0.029002 -0.330777 0.084534
v 0.031968 -0.344966 -0.054734
v 0.029849 -0.332950 0.084734
v 0.031916 -0.347298 -0.054534
v 0.029797 -0.335282 0.084934
v 0.030972 -0.349434 -0.054364
v 0.028853 -0.337417 0.085103
v 0.029280 -0.351048 -0.054251
v 0.027161 -0.339031 0.085217
v 0.027097 -0.351895 -0.054211
v 0.024979 -0.339878 0.085257
v 0.024757 -0.351845 -0.054251
v 0.022638 -0.339829 0.085217
v 0.022615 -0.350907 -0.054364
v 0.020496 -0.338891 0.085103
v 0.020998 -0.349223 -0.054534
v 0.018879 -0.337207 0.084934
v 0.020151 -0.347050 -0.054734
v 0.018032 -0.335034 0.084734
v 0.020203 -0.344718 -0.054934
v 0.018084 -0.332702 0.084534
v 0.021147 -0.342583 -0.055103
v 0.019028 -0.330566 0.084364
v 0.022839 -0.340969 -0.055217
v 0.020720 -0.328952 0.084251
vn -1.0000 -0.0000 -0.0000
vn -0.0000 -0.0000 -1.0000
vn 1.0000 -0.0000 -0.0000
vn -0.0000 -0.0000 1.0000
vn -0.0000 -1.0000 -0.0000
vn -0.0000 1.0000 -0.0000
vn 0.1951 0.9808 -0.0000
vn 0.5556 0.8315 -0.0000
vn 0.8315 0.5556 -0.0000
vn 0.9808 0.1951 -0.0000
vn 0.9808 -0.1951 -0.0000
vn 0.8315 -0.5556 -0.0000
vn 0.5556 -0.8315 -0.0000
vn 0.1951 -0.9808 -0.0000
vn -0.1951 -0.9808 -0.0000
vn -0.5556 -0.8315 -0.0000
vn -0.8315 -0.5556 -0.0000
vn -0.9808 -0.1951 -0.0000
vn -0.9808 0.1951 -0.0000
vn -0.8315 0.5556 -0.0000
vn -0.5556 0.8315 -0.0000
vn -0.1951 0.9808 -0.0000
vn -0.5556 -0.0000 -0.8315
vn -0.1951 -0.0000 -0.9808
vn 0.1951 -0.0000 -0.9808
vn 0.5556 -0.0000 -0.8315
vn 0.8315 -0.0000 -0.5556
vn 0.9808 -0.0000 -0.1951
vn 0.9808 -0.0000 0.1951
vn 0.8315 -0.0000 0.5556
vn 0.5556 -0.0000 0.8315
vn 0.1951 -0.0000 0.9808
vn -0.1951 -0.0000 0.9808
vn -0.5556 -0.0000 0.8315
vn -0.8315 -0.0000 0.5556
vn -0.9808 -0.0000 0.1951
vn -0.9808 -0.0000 -0.1951
vn -0.8315 -0.0000 -0.5556
vn 0.1935 0.1281 -0.9727
vn 0.1202 0.7876 -0.6043
vn 0.1202 -0.7876 -0.6043
vn 0.1935 -0.1281 -0.9727
vn 0.1559 0.6013 -0.7837
vn 0.0759 -0.9212 -0.3816
vn 0.0259 0.9911 -0.1305
vn 0.1807 -0.3764 -0.9087
vn 0.1807 0.3764 -0.9087
vn 0.0259 -0.9911 -0.1305
vn 0.0759 0.9212 -0.3816
vn 0.1559 -0.6013 -0.7837
vn 0.2161 -0.9212 -0.3235
vn 0.0739 0.9911 -0.1106
vn 0.5147 -0.3764 -0.7703
vn 0.5147 0.3764 -0.7703
vn 0.0739 -0.9911 -0.1106
vn 0.2161 0.9212 -0.3235
vn 0.4439 -0.6013 -0.6644
vn 0.5510 0.1281 -0.8246
vn 0.3423 0.7876 -0.5123
vn 0.3423 -0.7876 -0.5123
vn 0.5510 -0.1281 -0.8246
vn 0.4439 0.6013 -0.6643
vn 0.5123 0.7876 -0.3423
vn 0.5123 -0.7876 -0.3423
vn 0.8246 -0.1281 -0.5510
vn 0.6644 0.6013 -0.4439
vn 0.3235 -0.9212 -0.2161
vn 0.1106 0.9911 -0.0739
vn 0.7703 -0.3764 -0.5147
vn 0.7703 0.3764 -0.5147
vn 0.1106 -0.9911 -0.0739
vn 0.3235 0.9212 -0.2161
vn 0.6644 -0.6013 -0.4439
vn 0.8246 0.1281 -0.5510
vn 0.1305 -0.9911 -0.0260
vn 0.3816 0.9212 -0.0759
vn 0.7837 -0.6013 -0.1559
vn 0.9727 0.1281 -0.1935
vn 0.6043 0.7876 -0.1202
vn 0.6043 -0.7876 -0.1202
vn 0.9727 -0.1281 -0.1935
vn 0.7837 0.6013 -0.1559
vn 0.3816 -0.9212 -0.0759
vn 0.1305 0.9911 -0.0260
vn 0.9087 -0.3764 -0.1807
vn 0.9087 0.3764 -0.1807
vn 0.7837 0.6013 0.1559
vn 0.3816 -0.9212 0.0759
vn 0.1305 0.9911 0.0260
vn 0.9087 -0.3764 0.1807
vn 0.9087 0.3764 0.1807
vn 0.1305 -0.9911 0.0260
vn 0.3816 0.9212 0.0759
vn 0.7837 -0.6013 0.1559
vn 0.9727 0.1281 0.1935
vn 0.6043 0.7876 0.1202
vn 0.6043 -0.7876 0.1202
vn 0.9727 -0.1281 0.1935
vn 0.5123 0.7876 0.3423
vn 0.5123 -0.7876 0.3423
vn 0.8246 -0.1281 0.5510
vn 0.6644 0.6013 0.4439
vn 0.3235 -0.9212 0.2161
vn 0.1106 0.9911 0.0739
vn 0.7703 -0.3764 0.5147
vn 0.7703 0.3764 0.5147
vn 0.1106 -0.9911 0.0739
vn 0.3235 0.9212 0.2161
vn 0.6644 -0.6013 0.4439
vn 0.8246 0.1281 0.5510
vn 0.5147 0.3764 0.7703
vn 0.0739 -0.9911 0.1106
vn 0.2161 0.9212 0.3235
vn 0.4439 -0.6013 0.6644
vn 0.5510 0.1281 0.8246
vn 0.3423 0.7876 0.5123
vn 0.3423 -0.7876 0.5123
vn 0.5510 -0.1281 0.8246
vn 0.4439 0.6013 0.6644
vn 0.2161 -0.9212 0.3235
vn 0.0739 0.9911 0.1106
vn 0.5147 -0.3764 0.7703
vn 0.1559 0.6013 0.7837
vn 0.0759 -0.9212 0.3816
vn 0.0259 0.9911 0.1305
vn 0.1807 -0.3764 0.9087
vn 0.1807 0.3764 0.9087
vn 0.0259 -0.9911 0.1305
vn 0.0759 0.9212 0.3816
vn 0.1559 -0.6013 0.7837
vn 0.1935 0.1281 0.9727
vn 0.1202 0.7876 0.6043
vn 0.1202 -0.7876 0.6043
vn 0.1935 -0.1281 0.9727
vn -0.1935 0.1281 0.9727
vn -0.1202 0.7876 0.6043
vn -0.1202 -0.7876 0.6043
vn -0.1935 -0.1281 0.9727
vn -0.1559 0.6013 0.7837
vn -0.0759 -0.9212 0.3816
vn -0.0259 0.9911 0.1305
vn -0.1807 -0.3764 0.9087
vn -0.1807 0.3764 0.9087
vn -0.0259 -0.9911 0.1305
vn -0.0759 0.9212 0.3816
vn -0.1559 -0.6013 0.7837
vn -0.5147 0.3764 0.7703
vn -0.0739 -0.9911 0.1106
vn -0.2161 0.9212 0.3235
vn -0.4439 -0.6013 0.6644
vn -0.5510 0.1281 0.8246
vn -0.3423 0.7876 0.5123
vn -0.3423 -0.7876 0.5123
vn -0.5510 -0.1281 0.8246
vn -0.4439 0.6013 0.6644
vn -0.2162 -0.9212 0.3235
vn -0.0739 0.9911 0.1106
vn -0.5147 -0.3764 0.7703
vn -0.8246 -0.1281 0.5510
vn -0.6643 0.6013 0.4439
vn -0.3235 -0.9212 0.2161
vn -0.1106 0.9911 0.0739
vn -0.7703 -0.3764 0.5147
vn -0.7703 0.3764 0.5147
vn -0.1106 -0.9911 0.0739
vn -0.3235 0.9212 0.2161
vn -0.6644 -0.6013 0.4439
vn -0.8246 0.1281 0.5510
vn -0.5123 0.7876 0.3423
vn -0.5123 -0.7876 0.3423
vn -0.9727 0.1281 0.1935
vn -0.6043 0.7876 0.1202
vn -0.6043 -0.7876 0.1202
vn -0.9727 -0.1281 0.1935
vn -0.7837 0.6013 0.1559
vn -0.3816 -0.9212 0.0759
vn -0.1305 0.9911 0.0260
vn -0.9087 -0.3764 0.1807
vn -0.9087 0.3764 0.1807
vn -0.1305 -0.9911 0.0260
vn -0.3816 0.9212 0.0759
vn -0.7837 -0.6013 0.1559
vn -0.9087 -0.3764 -0.1807
vn -0.9087 0.3764 -0.1807
vn -0.1305 -0.9911 -0.0260
vn -0.3816 0.9212 -0.0759
vn -0.7837 -0.6013 -0.1559
vn -0.9727 0.1281 -0.1935
vn -0.6043 0.7876 -0.1202
vn -0.6043 -0.7876 -0.1202
vn -0.9727 -0.1281 -0.1935
vn -0.7837 0.6013 -0.1559
vn -0.3816 -0.9212 -0.0759
vn -0.1305 0.9911 -0.0260
vn -0.8246 -0.1281 -0.5510
vn -0.6643 0.6013 -0.4439
vn -0.3235 -0.9212 -0.2161
vn -0.1106 0.9911 -0.0739
vn -0.7703 -0.3764 -0.5147
vn -0.7703 0.3764 -0.5147
vn -0.1106 -0.9911 -0.0739
vn -0.3235 0.9212 -0.2161
vn -0.6644 -0.6013 -0.4439
vn -0.8246 0.1281 -0.5510
vn -0.5123 0.7876 -0.3423
vn -0.5123 -0.7876 -0.3423
vn -0.4439 -0.6013 -0.6644
vn -0.5510 0.1281 -0.8246
vn -0.3423 0.7876 -0.5123
vn -0.3423 -0.7876 -0.5123
vn -0.5510 -0.1281 -0.8246
vn -0.4439 0.6013 -0.6643
vn -0.2161 -0.9212 -0.3235
vn -0.0739 0.9911 -0.1106
vn -0.5147 -0.3764 -0.7703
vn -0.5147 0.3764 -0.7703
vn -0.0739 -0.9911 -0.1106
vn -0.2161 0.9212 -0.3235
vn -0.0259 0.9911 -0.1305
vn -0.1807 -0.3764 -0.9087
vn -0.1807 0.3764 -0.9087
vn -0.0259 -0.9911 -0.1305
vn -0.0759 0.9212 -0.3816
vn -0.1559 -0.6013 -0.7837
vn -0.1935 0.1281 -0.9727
vn -0.1202 0.7876 -0.6043
vn -0.1202 -0.7876 -0.6043
vn -0.1935 -0.1281 -0.9727
vn -0.1559 0.6013 -0.7837
vn -0.0759 -0.9212 -0.3816
vn 0.3618 0.9283 -0.0855
vn 0.6910 0.7192 -0.0725
vn 0.9149 0.4007 -0.0484
vn 0.9996 0.0211 -0.0170
vn 0.9321 -0.3617 0.0170
vn 0.7227 -0.6894 0.0484
vn 0.4033 -0.9122 0.0725
vn 0.0225 -0.9961 0.0855
vn -0.3618 -0.9283 0.0855
vn -0.6910 -0.7192 0.0725
vn -0.9149 -0.4007 0.0484
vn -0.9996 -0.0211 0.0170
vn -0.9321 0.3617 -0.0170
vn -0.7227 0.6894 -0.0484
vn 0.0151 0.0858 0.9962
vn -0.4033 0.9122 -0.0725
vn -0.0225 0.9961 -0.0855
vn -0.0151 -0.0858 -0.9962
vn 0.0225 0.9961 -0.0855
vn 0.4033 0.9122 -0.0725
vn 0.7227 0.6894 -0.0484
vn 0.9321 0.3617 -0.0170
vn 0.9996 -0.0211 0.0170
vn 0.9149 -0.4007 0.0484
vn 0.6910 -0.7192 0.0725
vn 0.3618 -0.9283 0.0855
vn -0.0225 -0.9961 0.0855
vn -0.4033 -0.9122 0.0725
vn -0.7227 -0.6894 0.0484
vn -0.9321 -0.3617 0.0170
vn -0.9996 0.0211 -0.0170
vn -0.9149 0.4007 -0.0484
vn -0.0151 0.0858 0.9962
vn -0.6910 0.7192 -0.0725
vn -0.3618 0.9283 -0.0855
vn 0.0151 -0.0858 -0.9962
vt 0.375000 0.000000
vt 0.625000 0.000000
vt 0.625000 0.250000
vt 0.375000 0.250000
vt 0.625000 0.500000
vt 0.375000 0.500000
vt 0.625000 0.750000
vt 0.375000 0.750000
vt 0.625000 1.000000
vt 0.375000 1.000000
vt 0.125000 0.500000
vt 0.125000 0.750000
vt 0.875000 0.500000
vt 0.875000 0.750000
vt 1.000000 0.500000
vt 1.000000 1.000000
vt 0.937500 1.000000
vt 0.937500 0.500000
vt 0.875000 1.000000
vt 0.812500 1.000000
vt 0.812500 0.500000
vt 0.750000 1.000000
vt 0.750000 0.500000
vt 0.687500 1.000000
vt 0.687500 0.500000
vt 0.562500 1.000000
vt 0.562500 0.500000
vt 0.500000 1.000000
vt 0.500000 0.500000
vt 0.437500 1.000000
vt 0.437500 0.500000
vt 0.312500 1.000000
vt 0.312500 0.500000
vt 0.250000 1.000000
vt 0.250000 0.500000
vt 0.187500 1.000000
vt 0.187500 0.500000
vt 0.125000 1.000000
vt 0.341844 0.471731
vt 0.250000 0.490000
vt 0.158156 0.471731
vt 0.080294 0.419706
vt 0.028269 0.341844
vt 0.010000 0.250000
vt 0.028269 0.158156
vt 0.080294 0.080294
vt 0.158156 0.028269
vt 0.250000 0.010000
vt 0.341844 0.028269
vt 0.419706 0.080294
vt 0.471731 0.158156
vt 0.490000 0.250000
vt 0.471731 0.341844
vt 0.419706 0.419706
vt 0.062500 1.000000
vt 0.062500 0.500000
vt 0.000000 1.000000
vt 0.000000 0.500000
vt 0.750000 0.490000
vt 0.841844 0.471731
vt 0.919706 0.419706
vt 0.971731 0.341844
vt 0.990000 0.250000
vt 0.971731 0.158156
vt 0.919706 0.080294
vt 0.841844 0.028269
vt 0.750000 0.010000
vt 0.658156 0.028269
vt 0.580294 0.080294
vt 0.528269 0.158156
vt 0.510000 0.250000
vt 0.528269 0.341844
vt 0.580294 0.419706
vt 0.658156 0.471731
vt 0.080294 0.419706
vt 0.028269 0.341844
vt 0.028269 0.158156
vt 0.080294 0.080294
vt 0.158156 0.028269
vt 0.341844 0.028269
vt 0.419706 0.080294
vt 0.919706 0.080294
vt 0.841844 0.028269
vt 0.658156 0.028269
vt 0.580294 0.080294
vt 0.158156 0.471731
vt 0.010000 0.250000
vt 0.028269 0.158156
vt 0.158156 0.028269
vt 0.250000 0.010000
vt 0.471731 0.158156
vt 0.971731 0.158156
vt 0.750000 0.010000
vt 0.528269 0.158156
vt 0.750000 0.583333
vt 0.687500 0.583333
vt 0.750000 0.750000
vt 0.750000 0.833333
vt 0.687500 0.833333
vt 0.687500 0.750000
vt 0.750000 0.166667
vt 0.750000 0.250000
vt 0.687500 0.250000
vt 0.687500 0.166667
vt 0.750000 0.416667
vt 0.687500 0.416667
vt 0.750000 0.666667
vt 0.687500 0.666667
vt 0.750000 0.083333
vt 0.687500 0.083333
vt 0.750000 0.916667
vt 0.718750 1.000000
vt 0.687500 0.916667
vt 0.750000 0.333333
vt 0.687500 0.333333
vt 0.718750 0.000000
vt 0.625000 0.166667
vt 0.625000 0.083333
vt 0.656250 1.000000
vt 0.625000 0.916667
vt 0.625000 0.416667
vt 0.625000 0.333333
vt 0.625000 0.666667
vt 0.625000 0.583333
vt 0.656250 0.000000
vt 0.625000 0.833333
vt 0.562500 0.833333
vt 0.562500 0.750000
vt 0.562500 0.250000
vt 0.562500 0.166667
vt 0.562500 0.416667
vt 0.562500 0.666667
vt 0.562500 0.083333
vt 0.593750 1.000000
vt 0.562500 0.916667
vt 0.562500 0.333333
vt 0.562500 0.583333
vt 0.593750 0.000000
vt 0.531250 0.000000
vt 0.500000 0.083333
vt 0.500000 0.916667
vt 0.500000 0.833333
vt 0.500000 0.333333
vt 0.500000 0.250000
vt 0.500000 0.583333
vt 0.500000 0.500000
vt 0.500000 0.750000
vt 0.500000 0.166667
vt 0.500000 0.416667
vt 0.500000 0.666667
vt 0.531250 1.000000
vt 0.437500 0.750000
vt 0.437500 0.666667
vt 0.437500 0.166667
vt 0.437500 0.083333
vt 0.468750 1.000000
vt 0.437500 0.916667
vt 0.437500 0.416667
vt 0.437500 0.333333
vt 0.437500 0.583333
vt 0.468750 0.000000
vt 0.437500 0.833333
vt 0.437500 0.250000
vt 0.437500 0.500000
vt 0.375000 0.833333
vt 0.375000 0.750000
vt 0.375000 0.250000
vt 0.375000 0.166667
vt 0.375000 0.500000
vt 0.375000 0.416667
vt 0.375000 0.666667
vt 0.375000 0.083333
vt 0.406250 1.000000
vt 0.375000 0.916667
vt 0.375000 0.333333
vt 0.375000 0.583333
vt 0.406250 0.000000
vt 0.312500 0.666667
vt 0.312500 0.583333
vt 0.343750 0.000000
vt 0.312500 0.083333
vt 0.312500 0.916667
vt 0.312500 0.833333
vt 0.312500 0.333333
vt 0.312500 0.250000
vt 0.312500 0.500000
vt 0.312500 0.750000
vt 0.312500 0.166667
vt 0.312500 0.416667
vt 0.343750 1.000000
vt 0.250000 0.750000
vt 0.250000 0.666667
vt 0.250000 0.166667
vt 0.250000 0.083333
vt 0.281250 1.000000
vt 0.250000 0.916667
vt 0.250000 0.416667
vt 0.250000 0.333333
vt 0.250000 0.583333
vt 0.281250 0.000000
vt 0.250000 0.833333
vt 0.250000 0.250000
vt 0.250000 0.500000
vt 0.187500 0.583333
vt 0.187500 0.500000
vt 0.187500 0.833333
vt 0.187500 0.750000
vt 0.187500 0.250000
vt 0.187500 0.166667
vt 0.187500 0.416667
vt 0.187500 0.666667
vt 0.187500 0.083333
vt 0.218750 1.000000
vt 0.187500 0.916667
vt 0.187500 0.333333
vt 0.218750 0.000000
vt 0.125000 0.666667
vt 0.125000 0.583333
vt 0.156250 0.000000
vt 0.125000 0.083333
vt 0.125000 0.916667
vt 0.125000 0.833333
vt 0.125000 0.333333
vt 0.125000 0.250000
vt 0.125000 0.500000
vt 0.125000 0.750000
vt 0.125000 0.166667
vt 0.125000 0.416667
vt 0.156250 1.000000
vt 0.062500 0.500000
vt 0.062500 0.416667
vt 0.062500 0.750000
vt 0.062500 0.666667
vt 0.062500 0.166667
vt 0.062500 0.083333
vt 0.093750 1.000000
vt 0.062500 0.916667
vt 0.062500 0.333333
vt 0.062500 0.583333
vt 0.093750 0.000000
vt 0.062500 0.833333
vt 0.062500 0.250000
vt 0.000000 0.583333
vt 0.000000 0.833333
vt 0.000000 0.750000
vt 0.000000 0.250000
vt 0.000000 0.166667
vt 0.000000 0.416667
vt 0.000000 0.666667
vt 0.000000 0.083333
vt 0.031250 1.000000
vt 0.000000 0.916667
vt 0.000000 0.333333
vt 0.031250 0.000000
vt 1.000000 0.333333
vt 1.000000 0.416667
vt 0.937500 0.416667
vt 0.937500 0.333333
vt 1.000000 0.583333
vt 1.000000 0.666667
vt 0.937500 0.666667
vt 0.937500 0.583333
vt 0.968750 0.000000
vt 1.000000 0.083333
vt 0.937500 0.083333
vt 1.000000 0.833333
vt 1.000000 0.916667
vt 0.937500 0.916667
vt 0.937500 0.833333
vt 1.000000 0.250000
vt 0.937500 0.250000
vt 0.937500 0.500000
vt 1.000000 0.750000
vt 0.937500 0.750000
vt 1.000000 0.166667
vt 0.937500 0.166667
vt 0.968750 1.000000
vt 0.875000 0.500000
vt 0.875000 0.416667
vt 0.875000 0.750000
vt 0.875000 0.666667
vt 0.875000 0.166667
vt 0.875000 0.083333
vt 0.906250 1.000000
vt 0.875000 0.916667
vt 0.875000 0.333333
vt 0.875000 0.583333
vt 0.906250 0.000000
vt 0.875000 0.833333
vt 0.875000 0.250000
vt 0.812500 0.333333
vt 0.812500 0.250000
vt 0.812500 0.583333
vt 0.812500 0.500000
vt 0.812500 0.833333
vt 0.812500 0.750000
vt 0.812500 0.166667
vt 0.812500 0.416667
vt 0.812500 0.666667
vt 0.812500 0.083333
vt 0.843750 1.000000
vt 0.812500 0.916667
vt 0.843750 0.000000
vt 0.781250 1.000000
vt 0.781250 0.000000
s 0
usemtl Mat_PolymerOD
f 1/1/1 2/2/1 4/3/1 3/4/1
f 3/4/2 4/3/2 8/5/2 7/6/2
f 7/6/3 8/5/3 6/7/3 5/8/3
f 5/8/4 6/7/4 2/9/4 1/10/4
f 3/11/5 7/6/5 5/8/5 1/12/5
f 8/5/6 4/13/6 2/14/6 6/7/6
f 9/1/1 10/2/1 12/3/1 11/4/1
f 11/4/2 12/3/2 16/5/2 15/6/2
f 15/6/3 16/5/3 14/7/3 13/8/3
f 13/8/4 14/7/4 10/9/4 9/10/4
f 11/11/5 15/6/5 13/8/5 9/12/5
f 16/5/6 12/13/6 10/14/6 14/7/6
usemtl Mat_Rubber
f 17/1/1 18/2/1 20/3/1 19/4/1
f 19/4/2 20/3/2 24/5/2 23/6/2
f 23/6/3 24/5/3 22/7/3 21/8/3
f 21/8/4 22/7/4 18/9/4 17/10/4
f 19/11/5 23/6/5 21/8/5 17/12/5
f 24/5/6 20/13/6 18/14/6 22/7/6
f 25/1/1 26/2/1 28/3/1 27/4/1
f 27/4/2 28/3/2 32/5/2 31/6/2
f 31/6/3 32/5/3 30/7/3 29/8/3
f 29/8/4 30/7/4 26/9/4 25/10/4
f 27/11/5 31/6/5 29/8/5 25/12/5
f 32/5/6 28/13/6 26/14/6 30/7/6
usemtl Mat_DarkMetal
f 33/15/7 34/16/7 36/17/7 35/18/7
f 35/18/8 36/17/8 38/19/8 37/13/8
f 37/13/9 38/19/9 40/20/9 39/21/9
f 39/21/10 40/20/10 42/22/10 41/23/10
f 41/23/11 42/22/11 44/24/11 43/25/11
f 43/25/12 44/24/12 46/9/12 45/5/12
f 45/5/13 46/9/13 48/26/13 47/27/13
f 47/27/14 48/26/14 50/28/14 49/29/14
f 49/29/15 50/28/15 52/30/15 51/31/15
f 51/31/16 52/30/16 54/10/16 53/6/16
f 53/6/17 54/10/17 56/32/17 55/33/17
f 55/33/18 56/32/18 58/34/18 57/35/18
f 57/35/19 58/34/19 60/36/19 59/37/19
f 59/37/20 60/36/20 62/38/20 61/11/20
f 36/39/4 34/40/4 64/41/4 62/42/4 60/43/4 58/44/4 56/45/4 54/46/4 52/47/4 50/48/4 48/49/4 46/50/4 44/51/4 42/52/4 40/53/4 38/54/4
f 61/11/21 62/38/21 64/55/21 63/56/21
f 63/56/22 64/55/22 34/57/22 33/58/22
f 33/59/2 35/60/2 37/61/2 39/62/2 41/63/2 43/64/2 45/65/2 47/66/2 49/67/2 51/68/2 53/69/2 55/70/2 57/71/2 59/72/2 61/73/2 63/74/2
f 73/15/7 74/16/7 76/17/7 75/18/7
f 75/18/8 76/17/8 78/19/8 77/13/8
f 77/13/9 78/19/9 80/20/9 79/21/9
f 79/21/10 80/20/10 82/22/10 81/23/10
f 81/23/11 82/22/11 84/24/11 83/25/11
f 83/25/12 84/24/12 86/9/12 85/5/12
f 85/5/13 86/9/13 88/26/13 87/27/13
f 87/27/14 88/26/14 90/28/14 89/29/14
f 89/29/15 90/28/15 92/30/15 91/31/15
f 91/31/16 92/30/16 94/10/16 93/6/16
f 93/6/17 94/10/17 96/32/17 95/33/17
f 95/33/18 96/32/18 98/34/18 97/35/18
f 97/35/19 98/34/19 100/36/19 99/37/19
f 99/37/20 100/36/20 102/38/20 101/11/20
f 76/39/4 74/40/4 104/41/4 102/75/4 100/76/4 98/44/4 96/77/4 94/78/4 92/79/4 90/48/4 88/80/4 86/81/4 84/51/4 82/52/4 80/53/4 78/54/4
f 101/11/21 102/38/21 104/55/21 103/56/21
f 103/56/22 104/55/22 74/57/22 73/58/22
f 73/59/2 75/60/2 77/61/2 79/62/2 81/63/2 83/64/2 85/82/2 87/83/2 89/67/2 91/84/2 93/85/2 95/70/2 97/71/2 99/72/2 101/73/2 103/74/2
f 105/15/7 106/16/7 108/17/7 107/18/7
f 107/18/8 108/17/8 110/19/8 109/13/8
f 109/13/9 110/19/9 112/20/9 111/21/9
f 111/21/10 112/20/10 114/22/10 113/23/10
f 113/23/11 114/22/11 116/24/11 115/25/11
f 115/25/12 116/24/12 118/9/12 117/5/12
f 117/5/13 118/9/13 120/26/13 119/27/13
f 119/27/14 120/26/14 122/28/14 121/29/14
f 121/29/15 122/28/15 124/30/15 123/31/15
f 123/31/16 124/30/16 126/10/16 125/6/16
f 125/6/17 126/10/17 128/32/17 127/33/17
f 127/33/18 128/32/18 130/34/18 129/35/18
f 129/35/19 130/34/19 132/36/19 131/37/19
f 131/37/20 132/36/20 134/38/20 133/11/20
f 108/39/4 106/40/4 136/41/4 134/75/4 132/43/4 130/44/4 128/45/4 126/78/4 124/47/4 122/48/4 120/49/4 118/81/4 116/51/4 114/52/4 112/53/4 110/54/4
f 133/11/21 134/38/21 136/55/21 135/56/21
f 135/56/22 136/55/22 106/57/22 105/58/22
f 105/59/2 107/60/2 109/61/2 111/62/2 113/63/2 115/64/2 117/82/2 119/66/2 121/67/2 123/68/2 125/85/2 127/70/2 129/71/2 131/72/2 133/73/2 135/74/2
f 137/15/7 138/16/7 140/17/7 139/18/7
f 139/18/8 140/17/8 142/19/8 141/13/8
f 141/13/9 142/19/9 144/20/9 143/21/9
f 143/21/10 144/20/10 146/22/10 145/23/10
f 145/23/11 146/22/11 148/24/11 147/25/11
f 147/25/12 148/24/12 150/9/12 149/5/12
f 149/5/13 150/9/13 152/26/13 151/27/13
f 151/27/14 152/26/14 154/28/14 153/29/14
f 153/29/15 154/28/15 156/30/15 155/31/15
f 155/31/16 156/30/16 158/10/16 157/6/16
f 157/6/17 158/10/17 160/32/17 159/33/17
f 159/33/18 160/32/18 162/34/18 161/35/18
f 161/35/19 162/34/19 164/36/19 163/37/19
f 163/37/20 164/36/20 166/38/20 165/11/20
f 140/39/4 138/40/4 168/86/4 166/42/4 164/43/4 162/87/4 160/88/4 158/46/4 156/89/4 154/90/4 152/49/4 150/50/4 148/91/4 146/52/4 144/53/4 142/54/4
f 165/11/21 166/38/21 168/55/21 167/56/21
f 167/56/22 168/55/22 138/57/22 137/58/22
f 137/59/2 139/60/2 141/61/2 143/62/2 145/63/2 147/92/2 149/65/2 151/66/2 153/93/2 155/68/2 157/69/2 159/94/2 161/71/2 163/72/2 165/73/2 167/74/2
f 427/1/1 428/2/1 430/3/1 429/4/1
f 429/4/2 430/3/2 434/5/2 433/6/2
f 433/6/3 434/5/3 432/7/3 431/8/3
f 431/8/4 432/7/4 428/9/4 427/10/4
f 429/11/5 433/6/5 431/8/5 427/12/5
f 434/5/6 430/13/6 428/14/6 432/7/6
usemtl Mat_Steel
f 65/1/1 66/2/1 68/3/1 67/4/1
f 67/4/2 68/3/2 72/5/2 71/6/2
f 71/6/3 72/5/3 70/7/3 69/8/3
f 69/8/4 70/7/4 66/9/4 65/10/4
f 67/11/5 71/6/5 69/8/5 65/12/5
f 72/5/6 68/13/6 66/14/6 70/7/6
f 201/1/1 202/2/1 204/3/1 203/4/1
f 203/4/2 204/3/2 208/5/2 207/6/2
f 207/6/3 208/5/3 206/7/3 205/8/3
f 205/8/4 206/7/4 202/9/4 201/10/4
f 203/11/5 207/6/5 205/8/5 201/12/5
f 208/5/6 204/13/6 202/14/6 206/7/6
f 209/1/1 210/2/1 212/3/1 211/4/1
f 211/4/2 212/3/2 216/5/2 215/6/2
f 215/6/3 216/5/3 214/7/3 213/8/3
f 213/8/4 214/7/4 210/9/4 209/10/4
f 211/11/5 215/6/5 213/8/5 209/12/5
f 216/5/6 212/13/6 210/14/6 214/7/6
f 435/15/231 436/16/231 438/17/231 437/18/231
f 437/18/232 438/17/232 440/19/232 439/13/232
f 439/13/233 440/19/233 442/20/233 441/21/233
f 441/21/234 442/20/234 444/22/234 443/23/234
f 443/23/235 444/22/235 446/24/235 445/25/235
f 445/25/236 446/24/236 448/9/236 447/5/236
f 447/5/237 448/9/237 450/26/237 449/27/237
f 449/27/238 450/26/238 452/28/238 451/29/238
f 451/29/239 452/28/239 454/30/239 453/31/239
f 453/31/240 454/30/240 456/10/240 455/6/240
f 455/6/241 456/10/241 458/32/241 457/33/241
f 457/33/242 458/32/242 460/34/242 459/35/242
f 459/35/243 460/34/243 462/36/243 461/37/243
f 461/37/244 462/36/244 464/38/244 463/11/244
f 438/39/245 436/40/245 466/86/245 464/42/245 462/43/245 460/87/245 458/88/245 456/46/245 454/89/245 452/90/245 450/49/245 448/50/245 446/91/245 444/52/245 442/53/245 440/54/245
f 463/11/246 464/38/246 466/55/246 465/56/246
f 465/56/247 466/55/247 436/57/247 435/58/247
f 435/59/248 437/60/248 439/61/248 441/62/248 443/63/248 445/92/248 447/65/248 449/66/248 451/93/248 453/68/248 455/69/248 457/94/248 459/71/248 461/72/248 463/73/248 465/74/248
f 467/15/249 468/16/249 470/17/249 469/18/249
f 469/18/250 470/17/250 472/19/250 471/13/250
f 471/13/251 472/19/251 474/20/251 473/21/251
f 473/21/252 474/20/252 476/22/252 475/23/252
f 475/23/253 476/22/253 478/24/253 477/25/253
f 477/25/254 478/24/254 480/9/254 479/5/254
f 479/5/255 480/9/255 482/26/255 481/27/255
f 481/27/256 482/26/256 484/28/256 483/29/256
f 483/29/257 484/28/257 486/30/257 485/31/257
f 485/31/258 486/30/258 488/10/258 487/6/258
f 487/6/259 488/10/259 490/32/259 489/33/259
f 489/33/260 490/32/260 492/34/260 491/35/260
f 491/35/261 492/34/261 494/36/261 493/37/261
f 493/37/262 494/36/262 496/38/262 495/11/262
f 470/39/263 468/40/263 498/86/263 496/42/263 494/43/263 492/87/263 490/88/263 488/46/263 486/89/263 484/90/263 482/49/263 480/50/263 478/91/263 476/52/263 474/53/263 472/54/263
f 495/11/264 496/38/264 498/55/264 497/56/264
f 497/56/265 498/55/265 468/57/265 467/58/265
f 467/59/266 469/60/266 471/61/266 473/62/266 475/63/266 477/92/266 479/65/266 481/66/266 483/93/266 485/68/266 487/69/266 489/94/266 491/71/266 493/72/266 495/73/266 497/74/266
usemtl Mat_OpticGlass
f 169/15/7 170/16/7 172/17/7 171/18/7
f 171/18/8 172/17/8 174/19/8 173/13/8
f 173/13/9 174/19/9 176/20/9 175/21/9
f 175/21/10 176/20/10 178/22/10 177/23/10
f 177/23/11 178/22/11 180/24/11 179/25/11
f 179/25/12 180/24/12 182/9/12 181/5/12
f 181/5/13 182/9/13 184/26/13 183/27/13
f 183/27/14 184/26/14 186/28/14 185/29/14
f 185/29/15 186/28/15 188/30/15 187/31/15
f 187/31/16 188/30/16 190/10/16 189/6/16
f 189/6/17 190/10/17 192/32/17 191/33/17
f 191/33/18 192/32/18 194/34/18 193/35/18
f 193/35/19 194/34/19 196/36/19 195/37/19
f 195/37/20 196/36/20 198/38/20 197/11/20
f 172/39/4 170/40/4 200/41/4 198/75/4 196/76/4 194/44/4 192/77/4 190/78/4 188/79/4 186/48/4 184/80/4 182/81/4 180/51/4 178/52/4 176/53/4 174/54/4
f 197/11/21 198/38/21 200/55/21 199/56/21
f 199/56/22 200/55/22 170/57/22 169/58/22
f 169/59/2 171/60/2 173/61/2 175/62/2 177/63/2 179/64/2 181/82/2 183/83/2 185/67/2 187/84/2 189/85/2 191/70/2 193/71/2 195/72/2 197/73/2 199/74/2
usemtl Mat_PolishedSteel
f 217/15/23 218/16/23 220/17/23 219/18/23
f 219/18/24 220/17/24 222/19/24 221/13/24
f 221/13/25 222/19/25 224/20/25 223/21/25
f 223/21/26 224/20/26 226/22/26 225/23/26
f 225/23/27 226/22/27 228/24/27 227/25/27
f 227/25/28 228/24/28 230/9/28 229/5/28
f 229/5/29 230/9/29 232/26/29 231/27/29
f 231/27/30 232/26/30 234/28/30 233/29/30
f 233/29/31 234/28/31 236/30/31 235/31/31
f 235/31/32 236/30/32 238/10/32 237/6/32
f 237/6/33 238/10/33 240/32/33 239/33/33
f 239/33/34 240/32/34 242/34/34 241/35/34
f 241/35/35 242/34/35 244/36/35 243/37/35
f 243/37/36 244/36/36 246/38/36 245/11/36
f 220/39/6 218/40/6 248/86/6 246/42/6 244/43/6 242/87/6 240/88/6 238/46/6 236/89/6 234/90/6 232/49/6 230/50/6 228/91/6 226/52/6 224/53/6 222/54/6
f 245/11/37 246/38/37 248/55/37 247/56/37
f 247/56/38 248/55/38 218/57/38 217/58/38
f 217/59/5 219/60/5 221/61/5 223/62/5 225/63/5 227/92/5 229/65/5 231/66/5 233/93/5 235/68/5 237/69/5 239/94/5 241/71/5 243/72/5 245/73/5 247/74/5
usemtl Mat_PolymerBlack
f 253/23/39 252/95/39 262/96/39 263/25/39
f 425/97/40 250/98/40 259/99/40 260/100/40
f 256/101/41 426/102/41 266/103/41 267/104/41
f 254/105/42 253/23/42 263/25/42 264/106/42
f 251/107/43 425/97/43 260/100/43 261/108/43
f 257/109/44 256/101/44 267/104/44 268/110/44
f 249/111/45 269/112/45 258/113/45
f 255/114/46 254/105/46 264/106/46 265/115/46
f 252/95/47 251/107/47 261/108/47 262/96/47
f 358/116/48 257/109/48 268/110/48
f 250/98/49 249/111/49 258/113/49 259/99/49
f 426/102/50 255/114/50 265/115/50 266/103/50
f 268/110/51 267/104/51 279/117/51 280/118/51
f 258/113/52 269/119/52 270/120/52
f 265/115/53 264/106/53 276/121/53 277/122/53
f 262/96/54 261/108/54 273/123/54 274/124/54
f 358/125/55 268/110/55 280/118/55
f 259/99/56 258/113/56 270/120/56 271/126/56
f 266/103/57 265/115/57 277/122/57 278/3/57
f 263/25/58 262/96/58 274/124/58 275/5/58
f 260/100/59 259/99/59 271/126/59 272/7/59
f 267/104/60 266/103/60 278/3/60 279/117/60
f 264/106/61 263/25/61 275/5/61 276/121/61
f 261/108/62 260/100/62 272/7/62 273/123/62
f 272/7/63 271/126/63 282/127/63 283/128/63
f 279/117/64 278/3/64 289/129/64 290/130/64
f 276/121/65 275/5/65 286/27/65 287/131/65
f 273/123/66 272/7/66 283/128/66 284/132/66
f 280/118/67 279/117/67 290/130/67 291/133/67
f 270/120/68 269/134/68 281/135/68
f 277/122/69 276/121/69 287/131/69 288/136/69
f 274/124/70 273/123/70 284/132/70 285/137/70
f 358/138/71 280/118/71 291/133/71
f 271/126/72 270/120/72 281/135/72 282/127/72
f 278/3/73 277/122/73 288/136/73 289/129/73
f 275/5/74 274/124/74 285/137/74 286/27/74
f 358/139/75 291/133/75 302/140/75
f 282/127/76 281/135/76 292/141/76 293/142/76
f 289/129/77 288/136/77 299/143/77 300/144/77
f 286/27/78 285/137/78 296/145/78 297/146/78
f 283/128/79 282/127/79 293/142/79 294/147/79
f 290/130/80 289/129/80 300/144/80 301/148/80
f 287/131/81 286/27/81 297/146/81 298/149/81
f 284/132/82 283/128/82 294/147/82 295/150/82
f 291/133/83 290/130/83 301/148/83 302/140/83
f 281/135/84 269/151/84 292/141/84
f 288/136/85 287/131/85 298/149/85 299/143/85
f 285/137/86 284/132/86 295/150/86 296/145/86
f 295/150/87 294/147/87 305/152/87 306/153/87
f 302/140/88 301/148/88 312/154/88 313/155/88
f 292/141/89 269/156/89 303/157/89
f 299/143/90 298/149/90 309/158/90 310/159/90
f 296/145/91 295/150/91 306/153/91 307/160/91
f 358/161/92 302/140/92 313/155/92
f 293/142/93 292/141/93 303/157/93 304/162/93
f 300/144/94 299/143/94 310/159/94 311/163/94
f 297/146/95 296/145/95 307/160/95 308/164/95
f 294/147/96 293/142/96 304/162/96 305/152/96
f 301/148/97 300/144/97 311/163/97 312/154/97
f 298/149/98 297/146/98 308/164/98 309/158/98
f 305/152/99 304/162/99 315/165/99 316/166/99
f 312/154/100 311/163/100 322/167/100 323/168/100
f 309/158/101 308/164/101 319/169/101 320/170/101
f 306/153/102 305/152/102 316/166/102 317/171/102
f 313/155/103 312/154/103 323/168/103 324/172/103
f 303/157/104 269/173/104 314/174/104
f 310/159/105 309/158/105 320/170/105 321/175/105
f 307/160/106 306/153/106 317/171/106 318/176/106
f 358/177/107 313/155/107 324/172/107
f 304/162/108 303/157/108 314/174/108 315/165/108
f 311/163/109 310/159/109 321/175/109 322/167/109
f 308/164/110 307/160/110 318/176/110 319/169/110
f 318/176/111 317/171/111 328/178/111 329/179/111
f 358/180/112 324/172/112 335/181/112
f 315/165/113 314/174/113 325/182/113 326/183/113
f 322/167/114 321/175/114 332/184/114 333/185/114
f 319/169/115 318/176/115 329/179/115 330/186/115
f 316/166/116 315/165/116 326/183/116 327/187/116
f 323/168/117 322/167/117 333/185/117 334/188/117
f 320/170/118 319/169/118 330/186/118 331/189/118
f 317/171/119 316/166/119 327/187/119 328/178/119
f 324/172/120 323/168/120 334/188/120 335/181/120
f 314/174/121 269/190/121 325/182/121
f 321/175/122 320/170/122 331/189/122 332/184/122
f 328/178/123 327/187/123 338/191/123 339/192/123
f 335/181/124 334/188/124 345/193/124 346/194/124
f 325/182/125 269/195/125 336/196/125
f 332/184/126 331/189/126 342/197/126 343/198/126
f 329/179/127 328/178/127 339/192/127 340/199/127
f 358/200/128 335/181/128 346/194/128
f 326/183/129 325/182/129 336/196/129 337/201/129
f 333/185/130 332/184/130 343/198/130 344/202/130
f 330/186/131 329/179/131 340/199/131 341/203/131
f 327/187/132 326/183/132 337/201/132 338/191/132
f 334/188/133 333/185/133 344/202/133 345/193/133
f 331/189/134 330/186/134 341/203/134 342/197/134
f 341/203/135 340/199/135 351/204/135 352/205/135
f 338/191/136 337/201/136 348/206/136 349/207/136
f 345/193/137 344/202/137 355/208/137 356/209/137
f 342/197/138 341/203/138 352/205/138 353/210/138
f 339/192/139 338/191/139 349/207/139 350/211/139
f 346/194/140 345/193/140 356/209/140 357/212/140
f 336/196/141 269/213/141 347/214/141
f 343/198/142 342/197/142 353/210/142 354/215/142
f 340/199/143 339/192/143 350/211/143 351/204/143
f 358/216/144 346/194/144 357/212/144
f 337/201/145 336/196/145 347/214/145 348/206/145
f 344/202/146 343/198/146 354/215/146 355/208/146
f 351/204/147 350/211/147 362/217/147 363/218/147
f 358/219/148 357/212/148 369/220/148
f 348/206/149 347/214/149 359/221/149 360/222/149
f 355/208/150 354/215/150 366/223/150 367/224/150
f 352/205/151 351/204/151 363/218/151 364/225/151
f 349/207/152 348/206/152 360/222/152 361/226/152
f 356/209/153 355/208/153 367/224/153 368/227/153
f 353/210/154 352/205/154 364/225/154 365/228/154
f 350/211/155 349/207/155 361/226/155 362/217/155
f 357/212/156 356/209/156 368/227/156 369/220/156
f 347/214/157 269/229/157 359/221/157
f 354/215/158 353/210/158 365/228/158 366/223/158
f 365/228/159 364/225/159 375/230/159 376/231/159
f 362/217/160 361/226/160 372/232/160 373/233/160
f 369/220/161 368/227/161 379/234/161 380/235/161
f 359/221/162 269/236/162 370/237/162
f 366/223/163 365/228/163 376/231/163 377/238/163
f 363/218/164 362/217/164 373/233/164 374/239/164
f 358/240/165 369/220/165 380/235/165
f 360/222/166 359/221/166 370/237/166 371/241/166
f 367/224/167 366/223/167 377/238/167 378/242/167
f 364/225/168 363/218/168 374/239/168 375/230/168
f 361/226/169 360/222/169 371/241/169 372/232/169
f 368/227/170 367/224/170 378/242/170 379/234/170
f 375/230/171 374/239/171 385/243/171 386/58/171
f 372/232/172 371/241/172 382/244/172 383/245/172
f 379/234/173 378/242/173 389/246/173 390/247/173
f 376/231/174 375/230/174 386/58/174 387/248/174
f 373/233/175 372/232/175 383/245/175 384/249/175
f 380/235/176 379/234/176 390/247/176 391/250/176
f 370/237/177 269/251/177 381/252/177
f 377/238/178 376/231/178 387/248/178 388/253/178
f 374/239/179 373/233/179 384/249/179 385/243/179
f 358/254/180 380/235/180 391/250/180
f 371/241/181 370/237/181 381/252/181 382/244/181
f 378/242/182 377/238/182 388/253/182 389/246/182
f 388/255/183 387/256/183 398/257/183 399/258/183
f 385/259/184 384/260/184 395/261/184 396/262/184
f 358/263/185 391/264/185 402/265/185
f 382/266/186 381/267/186 392/268/186 393/269/186
f 389/270/187 388/255/187 399/258/187 400/271/187
f 386/15/188 385/259/188 396/262/188 397/272/188
f 383/273/189 382/266/189 393/269/189 394/274/189
f 390/275/190 389/270/190 400/271/190 401/276/190
f 387/256/191 386/15/191 397/272/191 398/257/191
f 384/260/192 383/273/192 394/274/192 395/261/192
f 391/264/193 390/275/193 401/276/193 402/265/193
f 381/267/194 269/277/194 392/268/194
f 398/257/195 397/272/195 408/278/195 409/279/195
f 395/261/196 394/274/196 405/280/196 406/281/196
f 402/265/197 401/276/197 412/282/197 413/283/197
f 392/268/198 269/284/198 403/285/198
f 399/258/199 398/257/199 409/279/199 410/286/199
f 396/262/200 395/261/200 406/281/200 407/287/200
f 358/288/201 402/265/201 413/283/201
f 393/269/202 392/268/202 403/285/202 404/289/202
f 400/271/203 399/258/203 410/286/203 411/290/203
f 397/272/204 396/262/204 407/287/204 408/278/204
f 394/274/205 393/269/205 404/289/205 405/280/205
f 401/276/206 400/271/206 411/290/206 412/282/206
f 411/290/207 410/286/207 421/291/207 422/292/207
f 408/278/208 407/287/208 418/293/208 419/294/208
f 405/280/209 404/289/209 415/295/209 416/296/209
f 412/282/210 411/290/210 422/292/210 423/297/210
f 409/279/211 408/278/211 419/294/211 420/298/211
f 406/281/212 405/280/212 416/296/212 417/299/212
f 413/283/213 412/282/213 423/297/213 424/300/213
f 403/285/214 269/301/214 414/302/214
f 410/286/215 409/279/215 420/298/215 421/291/215
f 407/287/216 406/281/216 417/299/216 418/293/216
f 358/303/217 413/283/217 424/300/217
f 404/289/218 403/285/218 414/302/218 415/295/218
f 414/302/219 269/304/219 249/111/219
f 421/291/220 420/298/220 254/105/220 255/114/220
f 418/293/221 417/299/221 251/107/221 252/95/221
f 358/305/222 424/300/222 257/109/222
f 415/295/223 414/302/223 249/111/223 250/98/223
f 422/292/224 421/291/224 255/114/224 426/102/224
f 419/294/225 418/293/225 252/95/225 253/23/225
f 416/296/226 415/295/226 250/98/226 425/97/226
f 423/297/227 422/292/227 426/102/227 256/101/227
f 420/298/228 419/294/228 253/23/228 254/105/228
f 417/299/229 416/296/229 425/97/229 251/107/229
f 424/300/230 423/297/230 256/101/230 257/109/230
