# Blender 4.0.2
# www.blender.org
mtllib combat_knife.mtl
o Weapon_CombatKnife
v -0.003000 -0.230000 0.006000
v -0.003000 -0.050000 0.006000
v -0.003000 -0.230000 -0.030000
v -0.003000 -0.050000 -0.030000
v 0.003000 -0.230000 0.006000
v 0.003000 -0.050000 0.006000
v 0.003000 -0.230000 -0.030000
v 0.003000 -0.050000 -0.030000
v -0.002500 -0.260000 -0.001000
v -0.002500 -0.200000 -0.001000
v -0.002500 -0.260000 -0.027000
v -0.002500 -0.200000 -0.027000
v 0.002500 -0.260000 -0.001000
v 0.002500 -0.200000 -0.001000
v 0.002500 -0.260000 -0.027000
v 0.002500 -0.200000 -0.027000
v -0.004000 -0.140000 -0.024000
v -0.004000 -0.060000 -0.024000
v -0.004000 -0.140000 -0.032000
v -0.004000 -0.060000 -0.032000
v 0.004000 -0.140000 -0.024000
v 0.004000 -0.060000 -0.024000
v 0.004000 -0.140000 -0.032000
v 0.004000 -0.060000 -0.032000
v -0.012000 -0.052000 0.022500
v -0.012000 -0.038000 0.022500
v -0.012000 -0.052000 -0.042500
v -0.012000 -0.038000 -0.042500
v 0.012000 -0.052000 0.022500
v 0.012000 -0.038000 0.022500
v 0.012000 -0.052000 -0.042500
v 0.012000 -0.038000 -0.042500
v -0.013000 -0.040000 0.016000
v -0.013000 0.080000 0.016000
v -0.013000 -0.040000 -0.026000
v -0.013000 0.080000 -0.026000
v 0.013000 -0.040000 0.016000
v 0.013000 0.080000 0.016000
v 0.013000 -0.040000 -0.026000
v 0.013000 0.080000 -0.026000
v -0.014000 -0.026000 0.017000
v -0.014000 -0.014000 0.017000
v -0.014000 -0.026000 -0.027000
v -0.014000 -0.014000 -0.027000
v 0.014000 -0.026000 0.017000
v 0.014000 -0.014000 0.017000
v 0.014000 -0.026000 -0.027000
v 0.014000 -0.014000 -0.027000
v -0.014000 0.004000 0.017000
v -0.014000 0.016000 0.017000
v -0.014000 0.004000 -0.027000
v -0.014000 0.016000 -0.027000
v 0.014000 0.004000 0.017000
v 0.014000 0.016000 0.017000
v 0.014000 0.004000 -0.027000
v 0.014000 0.016000 -0.027000
v -0.014000 0.034000 0.017000
v -0.014000 0.046000 0.017000
v -0.014000 0.034000 -0.027000
v -0.014000 0.046000 -0.027000
v 0.014000 0.034000 0.017000
v 0.014000 0.046000 0.017000
v 0.014000 0.034000 -0.027000
v 0.014000 0.046000 -0.027000
v -0.014000 0.064000 0.017000
v -0.014000 0.076000 0.017000
v -0.014000 0.064000 -0.027000
v -0.014000 0.076000 -0.027000
v 0.014000 0.064000 0.017000
v 0.014000 0.076000 0.017000
v 0.014000 0.064000 -0.027000
v 0.014000 0.076000 -0.027000
v 0.000000 0.080000 0.006000
v 0.005000 0.081340 0.006000
v 0.008660 0.085000 0.006000
v 0.010000 0.090000 0.006000
v 0.008660 0.095000 0.006000
v 0.005000 0.098660 0.006000
v 0.000000 0.100000 0.006000
v -0.005000 0.098660 0.006000
v -0.008660 0.095000 0.006000
v -0.010000 0.090000 0.006000
v -0.008660 0.085000 0.006000
v -0.005000 0.081340 0.006000
v 0.000000 0.090000 -0.016000
vn -1.0000 -0.0000 -0.0000
vn -0.0000 -0.0000 -1.0000
vn 1.0000 -0.0000 -0.0000
vn -0.0000 -0.0000 1.0000
vn -0.0000 -1.0000 -0.0000
vn -0.0000 1.0000 -0.0000
vn 0.2370 -0.8844 -0.4020
vn 0.6475 -0.6474 -0.4020
vn 0.8844 -0.2370 -0.4020
vn 0.8844 0.2370 -0.4020
vn 0.6475 0.6474 -0.4020
vn 0.2370 0.8844 -0.4020
vn -0.2370 0.8844 -0.4020
vn -0.6475 0.6474 -0.4020
vn -0.8844 0.2370 -0.4020
vn -0.8844 -0.2370 -0.4020
vn -0.6475 -0.6474 -0.4020
vn -0.2370 -0.8844 -0.4020
vt 0.375000 0.000000
vt 0.625000 0.000000
vt 0.625000 0.250000
vt 0.375000 0.250000
vt 0.625000 0.500000
vt 0.375000 0.500000
vt 0.625000 0.750000
vt 0.375000 0.750000
vt 0.625000 1.000000
vt 0.375000 1.000000
vt 0.125000 0.500000
vt 0.125000 0.750000
vt 0.875000 0.500000
vt 0.875000 0.750000
vt 0.250000 0.490000
vt 0.250000 0.250000
vt 0.370000 0.457846
vt 0.457846 0.370000
vt 0.490000 0.250000
vt 0.457846 0.130000
vt 0.370000 0.042154
vt 0.250000 0.010000
vt 0.130000 0.042154
vt 0.042154 0.130000
vt 0.010000 0.250000
vt 0.042154 0.370000
vt 0.750000 0.490000
vt 0.870000 0.457846
vt 0.957846 0.370000
vt 0.990000 0.250000
vt 0.957846 0.130000
vt 0.870000 0.042154
vt 0.750000 0.010000
vt 0.630000 0.042154
vt 0.542154 0.130000
vt 0.510000 0.250000
vt 0.542154 0.370000
vt 0.630000 0.457846
vt 0.130000 0.457846
s 0
usemtl Mat_DarkMetal
f 1/1/1 2/2/1 4/3/1 3/4/1
f 3/4/2 4/3/2 8/5/2 7/6/2
f 7/6/3 8/5/3 6/7/3 5/8/3
f 5/8/4 6/7/4 2/9/4 1/10/4
f 3/11/5 7/6/5 5/8/5 1/12/5
f 8/5/6 4/13/6 2/14/6 6/7/6
usemtl Mat_PolishedSteel
f 9/1/1 10/2/1 12/3/1 11/4/1
f 11/4/2 12/3/2 16/5/2 15/6/2
f 15/6/3 16/5/3 14/7/3 13/8/3
f 13/8/4 14/7/4 10/9/4 9/10/4
f 11/11/5 15/6/5 13/8/5 9/12/5
f 16/5/6 12/13/6 10/14/6 14/7/6
f 17/1/1 18/2/1 20/3/1 19/4/1
f 19/4/2 20/3/2 24/5/2 23/6/2
f 23/6/3 24/5/3 22/7/3 21/8/3
f 21/8/4 22/7/4 18/9/4 17/10/4
f 19/11/5 23/6/5 21/8/5 17/12/5
f 24/5/6 20/13/6 18/14/6 22/7/6
f 73/15/7 85/16/7 74/17/7
f 74/17/8 85/16/8 75/18/8
f 75/18/9 85/16/9 76/19/9
f 76/19/10 85/16/10 77/20/10
f 77/20/11 85/16/11 78/21/11
f 78/21/12 85/16/12 79/22/12
f 79/22/13 85/16/13 80/23/13
f 80/23/14 85/16/14 81/24/14
f 81/24/15 85/16/15 82/25/15
f 82/25/16 85/16/16 83/26/16
f 73/27/4 74/28/4 75/29/4 76/30/4 77/31/4 78/32/4 79/33/4 80/34/4 81/35/4 82/36/4 83/37/4 84/38/4
f 83/26/17 85/16/17 84/39/17
f 84/39/18 85/16/18 73/15/18
usemtl Mat_Steel
f 25/1/1 26/2/1 28/3/1 27/4/1
f 27/4/2 28/3/2 32/5/2 31/6/2
f 31/6/3 32/5/3 30/7/3 29/8/3
f 29/8/4 30/7/4 26/9/4 25/10/4
f 27/11/5 31/6/5 29/8/5 25/12/5
f 32/5/6 28/13/6 26/14/6 30/7/6
usemtl Mat_Rubber
f 33/1/1 34/2/1 36/3/1 35/4/1
f 35/4/2 36/3/2 40/5/2 39/6/2
f 39/6/3 40/5/3 38/7/3 37/8/3
f 37/8/4 38/7/4 34/9/4 33/10/4
f 35/11/5 39/6/5 37/8/5 33/12/5
f 40/5/6 36/13/6 34/14/6 38/7/6
usemtl Mat_PolymerBlack
f 41/1/1 42/2/1 44/3/1 43/4/1
f 43/4/2 44/3/2 48/5/2 47/6/2
f 47/6/3 48/5/3 46/7/3 45/8/3
f 45/8/4 46/7/4 42/9/4 41/10/4
f 43/11/5 47/6/5 45/8/5 41/12/5
f 48/5/6 44/13/6 42/14/6 46/7/6
f 49/1/1 50/2/1 52/3/1 51/4/1
f 51/4/2 52/3/2 56/5/2 55/6/2
f 55/6/3 56/5/3 54/7/3 53/8/3
f 53/8/4 54/7/4 50/9/4 49/10/4
f 51/11/5 55/6/5 53/8/5 49/12/5
f 56/5/6 52/13/6 50/14/6 54/7/6
f 57/1/1 58/2/1 60/3/1 59/4/1
f 59/4/2 60/3/2 64/5/2 63/6/2
f 63/6/3 64/5/3 62/7/3 61/8/3
f 61/8/4 62/7/4 58/9/4 57/10/4
f 59/11/5 63/6/5 61/8/5 57/12/5
f 64/5/6 60/13/6 58/14/6 62/7/6
f 65/1/1 66/2/1 68/3/1 67/4/1
f 67/4/2 68/3/2 72/5/2 71/6/2
f 71/6/3 72/5/3 70/7/3 69/8/3
f 69/8/4 70/7/4 66/9/4 65/10/4
f 67/11/5 71/6/5 69/8/5 65/12/5
f 72/5/6 68/13/6 66/14/6 70/7/6
