# Blender 4.0.2
# www.blender.org
mtllib crossbow.mtl
o Weapon_Crossbow
v -0.019000 -0.380000 -0.004000
v -0.019000 0.080000 -0.004000
v -0.019000 -0.380000 -0.046000
v -0.019000 0.080000 -0.046000
v 0.019000 -0.380000 -0.004000
v 0.019000 0.080000 -0.004000
v 0.019000 -0.380000 -0.046000
v 0.019000 0.080000 -0.046000
v -0.021000 0.030000 0.057500
v -0.021000 0.290000 0.057500
v -0.021000 0.030000 -0.027500
v -0.021000 0.290000 -0.027500
v 0.021000 0.030000 0.057500
v 0.021000 0.290000 0.057500
v 0.021000 0.030000 -0.027500
v 0.021000 0.290000 -0.027500
v -0.016000 0.037000 0.140000
v -0.016000 0.083000 0.140000
v -0.016000 0.037000 0.030000
v -0.016000 0.083000 0.030000
v 0.016000 0.037000 0.140000
v 0.016000 0.083000 0.140000
v 0.016000 0.037000 0.030000
v 0.016000 0.083000 0.030000
v -0.080000 -0.460000 -0.007000
v -0.080000 -0.380000 -0.007000
v -0.080000 -0.460000 -0.023000
v -0.080000 -0.380000 -0.023000
v 0.080000 -0.460000 -0.007000
v 0.080000 -0.380000 -0.007000
v 0.080000 -0.460000 -0.023000
v 0.080000 -0.380000 -0.023000
v -0.300000 -0.332500 -0.018000
v -0.300000 -0.307500 -0.018000
v -0.300000 -0.332500 -0.038000
v -0.300000 -0.307500 -0.038000
v -0.060000 -0.332500 -0.018000
v -0.060000 -0.307500 -0.018000
v -0.060000 -0.332500 -0.038000
v -0.060000 -0.307500 -0.038000
v 0.060000 -0.332500 -0.018000
v 0.060000 -0.307500 -0.018000
v 0.060000 -0.332500 -0.038000
v 0.060000 -0.307500 -0.038000
v 0.300000 -0.332500 -0.018000
v 0.300000 -0.307500 -0.018000
v 0.300000 -0.332500 -0.038000
v 0.300000 -0.307500 -0.038000
v -0.224853 -0.304853 -0.032500
v -0.055147 -0.135147 -0.032500
v -0.224176 -0.305529 -0.032310
v -0.054471 -0.135824 -0.032310
v -0.223603 -0.306103 -0.031768
v -0.053897 -0.136397 -0.031768
v -0.223220 -0.306486 -0.030957
v -0.053514 -0.136780 -0.030957
v -0.223085 -0.306621 -0.030000
v -0.053379 -0.136915 -0.030000
v -0.223220 -0.306486 -0.029043
v -0.053514 -0.136780 -0.029043
v -0.223603 -0.306103 -0.028232
v -0.053897 -0.136397 -0.028232
v -0.224176 -0.305529 -0.027690
v -0.054471 -0.135824 -0.027690
v -0.224853 -0.304853 -0.027500
v -0.055147 -0.135147 -0.027500
v -0.225529 -0.304176 -0.027690
v -0.055824 -0.134471 -0.027690
v -0.226103 -0.303603 -0.028232
v -0.056397 -0.133897 -0.028232
v -0.226486 -0.303220 -0.029043
v -0.056780 -0.133514 -0.029043
v -0.226621 -0.303085 -0.030000
v -0.056915 -0.133379 -0.030000
v -0.226486 -0.303220 -0.030957
v -0.056780 -0.133514 -0.030957
v -0.226103 -0.303603 -0.031768
v -0.056397 -0.133897 -0.031768
v -0.225529 -0.304176 -0.032310
v -0.055824 -0.134471 -0.032310
v 0.224853 -0.304853 -0.032500
v 0.055147 -0.135147 -0.032500
v 0.225529 -0.304176 -0.032310
v 0.055824 -0.134471 -0.032310
v 0.226103 -0.303603 -0.031768
v 0.056397 -0.133897 -0.031768
v 0.226486 -0.303220 -0.030957
v 0.056780 -0.133514 -0.030957
v 0.226621 -0.303085 -0.030000
v 0.056915 -0.133379 -0.030000
v 0.226486 -0.303220 -0.029043
v 0.056780 -0.133514 -0.029043
v 0.226103 -0.303603 -0.028232
v 0.056397 -0.133897 -0.028232
v 0.225529 -0.304176 -0.027690
v 0.055824 -0.134471 -0.027690
v 0.224853 -0.304853 -0.027500
v 0.055147 -0.135147 -0.027500
v 0.224176 -0.305529 -0.027690
v 0.054471 -0.135824 -0.027690
v 0.223603 -0.306103 -0.028232
v 0.053897 -0.136397 -0.028232
v 0.223220 -0.306486 -0.029043
v 0.053514 -0.136780 -0.029043
v 0.223085 -0.306621 -0.030000
v 0.053379 -0.136915 -0.030000
v 0.223220 -0.306486 -0.030957
v 0.053514 -0.136780 -0.030957
v 0.223603 -0.306103 -0.031768
v 0.053897 -0.136397 -0.031768
v 0.224176 -0.305529 -0.032310
v 0.054471 -0.135824 -0.032310
v 0.000000 -0.175000 -0.206000
v 0.000000 -0.175000 0.114000
v 0.001913 -0.175381 -0.206000
v 0.001913 -0.175381 0.114000
v 0.003536 -0.176464 -0.206000
v 0.003536 -0.176464 0.114000
v 0.004619 -0.178087 -0.206000
v 0.004619 -0.178087 0.114000
v 0.005000 -0.180000 -0.206000
v 0.005000 -0.180000 0.114000
v 0.004619 -0.181913 -0.206000
v 0.004619 -0.181913 0.114000
v 0.003536 -0.183536 -0.206000
v 0.003536 -0.183536 0.114000
v 0.001913 -0.184619 -0.206000
v 0.001913 -0.184619 0.114000
v 0.000000 -0.185000 -0.206000
v 0.000000 -0.185000 0.114000
v -0.001913 -0.184619 -0.206000
v -0.001913 -0.184619 0.114000
v -0.003536 -0.183536 -0.206000
v -0.003536 -0.183536 0.114000
v -0.004619 -0.181913 -0.206000
v -0.004619 -0.181913 0.114000
v -0.005000 -0.180000 -0.206000
v -0.005000 -0.180000 0.114000
v -0.004619 -0.178087 -0.206000
v -0.004619 -0.178087 0.114000
v -0.003536 -0.176464 -0.206000
v -0.003536 -0.176464 0.114000
v -0.001913 -0.175381 -0.206000
v -0.001913 -0.175381 0.114000
v 0.000000 -0.338000 -0.063500
v 0.006000 -0.339608 -0.063500
v 0.010392 -0.344000 -0.063500
v 0.012000 -0.350000 -0.063500
v 0.010392 -0.356000 -0.063500
v 0.006000 -0.360392 -0.063500
v 0.000000 -0.362000 -0.063500
v -0.006000 -0.360392 -0.063500
v -0.010392 -0.356000 -0.063500
v -0.012000 -0.350000 -0.063500
v -0.010392 -0.344000 -0.063500
v -0.006000 -0.339608 -0.063500
v 0.000000 -0.350000 -0.028500
v -0.015000 -0.070000 -0.057500
v -0.015000 0.030000 -0.057500
v -0.015000 -0.070000 -0.092500
v -0.015000 0.030000 -0.092500
v 0.015000 -0.070000 -0.057500
v 0.015000 0.030000 -0.057500
v 0.015000 -0.070000 -0.092500
v 0.015000 0.030000 -0.092500
v 0.000000 -0.010000 -0.120000
v 0.000000 -0.010000 -0.030000
v 0.003827 -0.010761 -0.120000
v 0.003827 -0.010761 -0.030000
v 0.007071 -0.012929 -0.120000
v 0.007071 -0.012929 -0.030000
v 0.009239 -0.016173 -0.120000
v 0.009239 -0.016173 -0.030000
v 0.010000 -0.020000 -0.120000
v 0.010000 -0.020000 -0.030000
v 0.009239 -0.023827 -0.120000
v 0.009239 -0.023827 -0.030000
v 0.007071 -0.027071 -0.120000
v 0.007071 -0.027071 -0.030000
v 0.003827 -0.029239 -0.120000
v 0.003827 -0.029239 -0.030000
v 0.000000 -0.030000 -0.120000
v 0.000000 -0.030000 -0.030000
v -0.003827 -0.029239 -0.120000
v -0.003827 -0.029239 -0.030000
v -0.007071 -0.027071 -0.120000
v -0.007071 -0.027071 -0.030000
v -0.009239 -0.023827 -0.120000
v -0.009239 -0.023827 -0.030000
v -0.010000 -0.020000 -0.120000
v -0.010000 -0.020000 -0.030000
v -0.009239 -0.016173 -0.120000
v -0.009239 -0.016173 -0.030000
v -0.007071 -0.012929 -0.120000
v -0.007071 -0.012929 -0.030000
v -0.003827 -0.010761 -0.120000
v -0.003827 -0.010761 -0.030000
vn -1.0000 -0.0000 -0.0000
vn -0.0000 -0.0000 -1.0000
vn 1.0000 -0.0000 -0.0000
vn -0.0000 -0.0000 1.0000
vn -0.0000 -1.0000 -0.0000
vn -0.0000 1.0000 -0.0000
vn 0.1379 -0.1379 -0.9808
vn 0.3929 -0.3929 -0.8315
vn 0.5879 -0.5879 -0.5556
vn 0.6935 -0.6935 -0.1951
vn 0.6935 -0.6935 0.1951
vn 0.5879 -0.5879 0.5556
vn 0.3929 -0.3929 0.8315
vn 0.1379 -0.1379 0.9808
vn -0.1379 0.1379 0.9808
vn -0.3928 0.3928 0.8315
vn -0.5879 0.5879 0.5556
vn -0.6935 0.6935 0.1951
vn -0.6935 0.6935 -0.1951
vn -0.5879 0.5879 -0.5556
vn 0.7071 0.7071 -0.0000
vn -0.3928 0.3928 -0.8315
vn -0.1379 0.1379 -0.9808
vn -0.7071 -0.7071 -0.0000
vn 0.1379 0.1379 -0.9808
vn 0.3928 0.3928 -0.8315
vn 0.5879 0.5879 -0.5556
vn 0.6935 0.6935 -0.1951
vn 0.6935 0.6935 0.1951
vn 0.5879 0.5879 0.5556
vn 0.3928 0.3928 0.8315
vn 0.1379 0.1379 0.9808
vn -0.1379 -0.1379 0.9808
vn -0.3929 -0.3929 0.8315
vn -0.5879 -0.5879 0.5556
vn -0.6935 -0.6935 0.1951
vn -0.6935 -0.6935 -0.1951
vn -0.5879 -0.5879 -0.5556
vn -0.7071 0.7071 -0.0000
vn -0.3929 -0.3929 -0.8315
vn -0.1379 -0.1379 -0.9808
vn 0.7071 -0.7071 -0.0000
vn 0.1951 0.9808 -0.0000
vn 0.5556 0.8315 -0.0000
vn 0.8315 0.5556 -0.0000
vn 0.9808 0.1951 -0.0000
vn 0.9808 -0.1951 -0.0000
vn 0.8315 -0.5556 -0.0000
vn 0.5556 -0.8315 -0.0000
vn 0.1951 -0.9808 -0.0000
vn -0.1951 -0.9808 -0.0000
vn -0.5556 -0.8315 -0.0000
vn -0.8315 -0.5556 -0.0000
vn -0.9808 -0.1951 -0.0000
vn -0.9808 0.1951 -0.0000
vn -0.8315 0.5556 -0.0000
vn -0.5556 0.8315 -0.0000
vn -0.1951 0.9808 -0.0000
vn 0.2457 0.9169 0.3144
vn 0.6713 0.6713 0.3144
vn 0.9169 0.2457 0.3144
vn 0.9169 -0.2457 0.3144
vn 0.6713 -0.6713 0.3144
vn 0.2457 -0.9170 0.3144
vn -0.2457 -0.9170 0.3144
vn -0.6713 -0.6713 0.3144
vn -0.9169 -0.2457 0.3144
vn -0.9169 0.2457 0.3144
vn -0.6713 0.6713 0.3144
vn -0.2457 0.9169 0.3144
vt 0.375000 0.000000
vt 0.625000 0.000000
vt 0.625000 0.250000
vt 0.375000 0.250000
vt 0.625000 0.500000
vt 0.375000 0.500000
vt 0.625000 0.750000
vt 0.375000 0.750000
vt 0.625000 1.000000
vt 0.375000 1.000000
vt 0.125000 0.500000
vt 0.125000 0.750000
vt 0.875000 0.500000
vt 0.875000 0.750000
vt 1.000000 0.500000
vt 1.000000 1.000000
vt 0.937500 1.000000
vt 0.937500 0.500000
vt 0.875000 1.000000
vt 0.812500 1.000000
vt 0.812500 0.500000
vt 0.750000 1.000000
vt 0.750000 0.500000
vt 0.687500 1.000000
vt 0.687500 0.500000
vt 0.562500 1.000000
vt 0.562500 0.500000
vt 0.500000 1.000000
vt 0.500000 0.500000
vt 0.437500 1.000000
vt 0.437500 0.500000
vt 0.312500 1.000000
vt 0.312500 0.500000
vt 0.250000 1.000000
vt 0.250000 0.500000
vt 0.187500 1.000000
vt 0.187500 0.500000
vt 0.125000 1.000000
vt 0.341844 0.471731
vt 0.250000 0.490000
vt 0.158156 0.471731
vt 0.080294 0.419706
vt 0.028269 0.341844
vt 0.010000 0.250000
vt 0.028269 0.158156
vt 0.080294 0.080294
vt 0.158156 0.028269
vt 0.250000 0.010000
vt 0.341844 0.028269
vt 0.419706 0.080294
vt 0.471731 0.158156
vt 0.490000 0.250000
vt 0.471731 0.341844
vt 0.419706 0.419706
vt 0.062500 1.000000
vt 0.062500 0.500000
vt 0.000000 1.000000
vt 0.000000 0.500000
vt 0.750000 0.490000
vt 0.841844 0.471731
vt 0.919706 0.419706
vt 0.971731 0.341844
vt 0.990000 0.250000
vt 0.971731 0.158156
vt 0.919706 0.080294
vt 0.841844 0.028269
vt 0.750000 0.010000
vt 0.658156 0.028269
vt 0.580294 0.080294
vt 0.528269 0.158156
vt 0.510000 0.250000
vt 0.528269 0.341844
vt 0.580294 0.419706
vt 0.658156 0.471731
vt 0.250000 0.250000
vt 0.370000 0.457846
vt 0.457846 0.370000
vt 0.457846 0.130000
vt 0.370000 0.042154
vt 0.250000 0.010000
vt 0.130000 0.042154
vt 0.042154 0.130000
vt 0.010000 0.250000
vt 0.042154 0.370000
vt 0.870000 0.457846
vt 0.957846 0.370000
vt 0.957846 0.130000
vt 0.870000 0.042154
vt 0.750000 0.010000
vt 0.630000 0.042154
vt 0.542154 0.130000
vt 0.542154 0.370000
vt 0.630000 0.457846
vt 0.130000 0.457846
s 0
usemtl Mat_DarkMetal
f 1/1/1 2/2/1 4/3/1 3/4/1
f 3/4/2 4/3/2 8/5/2 7/6/2
f 7/6/3 8/5/3 6/7/3 5/8/3
f 5/8/4 6/7/4 2/9/4 1/10/4
f 3/11/5 7/6/5 5/8/5 1/12/5
f 8/5/6 4/13/6 2/14/6 6/7/6
f 113/15/43 114/16/43 116/17/43 115/18/43
f 115/18/44 116/17/44 118/19/44 117/13/44
f 117/13/45 118/19/45 120/20/45 119/21/45
f 119/21/46 120/20/46 122/22/46 121/23/46
f 121/23/47 122/22/47 124/24/47 123/25/47
f 123/25/48 124/24/48 126/9/48 125/5/48
f 125/5/49 126/9/49 128/26/49 127/27/49
f 127/27/50 128/26/50 130/28/50 129/29/50
f 129/29/51 130/28/51 132/30/51 131/31/51
f 131/31/52 132/30/52 134/10/52 133/6/52
f 133/6/53 134/10/53 136/32/53 135/33/53
f 135/33/54 136/32/54 138/34/54 137/35/54
f 137/35/55 138/34/55 140/36/55 139/37/55
f 139/37/56 140/36/56 142/38/56 141/11/56
f 116/39/4 114/40/4 144/41/4 142/42/4 140/43/4 138/44/4 136/45/4 134/46/4 132/47/4 130/48/4 128/49/4 126/50/4 124/51/4 122/52/4 120/53/4 118/54/4
f 141/11/57 142/38/57 144/55/57 143/56/57
f 143/56/58 144/55/58 114/57/58 113/58/58
f 113/59/2 115/60/2 117/61/2 119/62/2 121/63/2 123/64/2 125/65/2 127/66/2 129/67/2 131/68/2 133/69/2 135/70/2 137/71/2 139/72/2 141/73/2 143/74/2
usemtl Mat_PolymerBlack
f 9/1/1 10/2/1 12/3/1 11/4/1
f 11/4/2 12/3/2 16/5/2 15/6/2
f 15/6/3 16/5/3 14/7/3 13/8/3
f 13/8/4 14/7/4 10/9/4 9/10/4
f 11/11/5 15/6/5 13/8/5 9/12/5
f 16/5/6 12/13/6 10/14/6 14/7/6
f 17/1/1 18/2/1 20/3/1 19/4/1
f 19/4/2 20/3/2 24/5/2 23/6/2
f 23/6/3 24/5/3 22/7/3 21/8/3
f 21/8/4 22/7/4 18/9/4 17/10/4
f 19/11/5 23/6/5 21/8/5 17/12/5
f 24/5/6 20/13/6 18/14/6 22/7/6
f 158/1/1 159/2/1 161/3/1 160/4/1
f 160/4/2 161/3/2 165/5/2 164/6/2
f 164/6/3 165/5/3 163/7/3 162/8/3
f 162/8/4 163/7/4 159/9/4 158/10/4
f 160/11/5 164/6/5 162/8/5 158/12/5
f 165/5/6 161/13/6 159/14/6 163/7/6
usemtl Mat_Steel
f 25/1/1 26/2/1 28/3/1 27/4/1
f 27/4/2 28/3/2 32/5/2 31/6/2
f 31/6/3 32/5/3 30/7/3 29/8/3
f 29/8/4 30/7/4 26/9/4 25/10/4
f 27/11/5 31/6/5 29/8/5 25/12/5
f 32/5/6 28/13/6 26/14/6 30/7/6
usemtl Mat_PolymerOD
f 33/1/1 34/2/1 36/3/1 35/4/1
f 35/4/2 36/3/2 40/5/2 39/6/2
f 39/6/3 40/5/3 38/7/3 37/8/3
f 37/8/4 38/7/4 34/9/4 33/10/4
f 35/11/5 39/6/5 37/8/5 33/12/5
f 40/5/6 36/13/6 34/14/6 38/7/6
f 41/1/1 42/2/1 44/3/1 43/4/1
f 43/4/2 44/3/2 48/5/2 47/6/2
f 47/6/3 48/5/3 46/7/3 45/8/3
f 45/8/4 46/7/4 42/9/4 41/10/4
f 43/11/5 47/6/5 45/8/5 41/12/5
f 48/5/6 44/13/6 42/14/6 46/7/6
usemtl Mat_PolishedSteel
f 49/15/7 50/16/7 52/17/7 51/18/7
f 51/18/8 52/17/8 54/19/8 53/13/8
f 53/13/9 54/19/9 56/20/9 55/21/9
f 55/21/10 56/20/10 58/22/10 57/23/10
f 57/23/11 58/22/11 60/24/11 59/25/11
f 59/25/12 60/24/12 62/9/12 61/5/12
f 61/5/13 62/9/13 64/26/13 63/27/13
f 63/27/14 64/26/14 66/28/14 65/29/14
f 65/29/15 66/28/15 68/30/15 67/31/15
f 67/31/16 68/30/16 70/10/16 69/6/16
f 69/6/17 70/10/17 72/32/17 71/33/17
f 71/33/18 72/32/18 74/34/18 73/35/18
f 73/35/19 74/34/19 76/36/19 75/37/19
f 75/37/20 76/36/20 78/38/20 77/11/20
f 52/39/21 50/40/21 80/41/21 78/42/21 76/43/21 74/44/21 72/45/21 70/46/21 68/47/21 66/48/21 64/49/21 62/50/21 60/51/21 58/52/21 56/53/21 54/54/21
f 77/11/22 78/38/22 80/55/22 79/56/22
f 79/56/23 80/55/23 50/57/23 49/58/23
f 49/59/24 51/60/24 53/61/24 55/62/24 57/63/24 59/64/24 61/65/24 63/66/24 65/67/24 67/68/24 69/69/24 71/70/24 73/71/24 75/72/24 77/73/24 79/74/24
f 81/15/25 82/16/25 84/17/25 83/18/25
f 83/18/26 84/17/26 86/19/26 85/13/26
f 85/13/27 86/19/27 88/20/27 87/21/27
f 87/21/28 88/20/28 90/22/28 89/23/28
f 89/23/29 90/22/29 92/24/29 91/25/29
f 91/25/30 92/24/30 94/9/30 93/5/30
f 93/5/31 94/9/31 96/26/31 95/27/31
f 95/27/32 96/26/32 98/28/32 97/29/32
f 97/29/33 98/28/33 100/30/33 99/31/33
f 99/31/34 100/30/34 102/10/34 101/6/34
f 101/6/35 102/10/35 104/32/35 103/33/35
f 103/33/36 104/32/36 106/34/36 105/35/36
f 105/35/37 106/34/37 108/36/37 107/37/37
f 107/37/38 108/36/38 110/38/38 109/11/38
f 84/39/39 82/40/39 112/41/39 110/42/39 108/43/39 106/44/39 104/45/39 102/46/39 100/47/39 98/48/39 96/49/39 94/50/39 92/51/39 90/52/39 88/53/39 86/54/39
f 109/11/40 110/38/40 112/55/40 111/56/40
f 111/56/41 112/55/41 82/57/41 81/58/41
f 81/59/42 83/60/42 85/61/42 87/62/42 89/63/42 91/64/42 93/65/42 95/66/42 97/67/42 99/68/42 101/69/42 103/70/42 105/71/42 107/72/42 109/73/42 111/74/42
f 145/40/59 157/75/59 146/76/59
f 146/76/60 157/75/60 147/77/60
f 147/77/61 157/75/61 148/52/61
f 148/52/62 157/75/62 149/78/62
f 149/78/63 157/75/63 150/79/63
f 150/79/64 157/75/64 151/80/64
f 151/80/65 157/75/65 152/81/65
f 152/81/66 157/75/66 153/82/66
f 153/82/67 157/75/67 154/83/67
f 154/83/68 157/75/68 155/84/68
f 145/59/2 146/85/2 147/86/2 148/63/2 149/87/2 150/88/2 151/89/2 152/90/2 153/91/2 154/71/2 155/92/2 156/93/2
f 155/84/69 157/75/69 156/94/69
f 156/94/70 157/75/70 145/40/70
usemtl Mat_Tritium
f 166/15/43 167/16/43 169/17/43 168/18/43
f 168/18/44 169/17/44 171/19/44 170/13/44
f 170/13/45 171/19/45 173/20/45 172/21/45
f 172/21/46 173/20/46 175/22/46 174/23/46
f 174/23/47 175/22/47 177/24/47 176/25/47
f 176/25/48 177/24/48 179/9/48 178/5/48
f 178/5/49 179/9/49 181/26/49 180/27/49
f 180/27/50 181/26/50 183/28/50 182/29/50
f 182/29/51 183/28/51 185/30/51 184/31/51
f 184/31/52 185/30/52 187/10/52 186/6/52
f 186/6/53 187/10/53 189/32/53 188/33/53
f 188/33/54 189/32/54 191/34/54 190/35/54
f 190/35/55 191/34/55 193/36/55 192/37/55
f 192/37/56 193/36/56 195/38/56 194/11/56
f 169/39/4 167/40/4 197/41/4 195/42/4 193/43/4 191/44/4 189/45/4 187/46/4 185/47/4 183/48/4 181/49/4 179/50/4 177/51/4 175/52/4 173/53/4 171/54/4
f 194/11/57 195/38/57 197/55/57 196/56/57
f 196/56/58 197/55/58 167/57/58 166/58/58
f 166/59/2 168/60/2 170/61/2 172/62/2 174/63/2 176/64/2 178/65/2 180/66/2 182/67/2 184/68/2 186/69/2 188/70/2 190/71/2 192/72/2 194/73/2 196/74/2
