# Blender 4.0.2
# www.blender.org
mtllib desert_eagle.mtl
o Weapon_DesertEagle
v -0.021000 -0.190000 -0.004000
v -0.021000 0.070000 -0.004000
v -0.021000 -0.190000 -0.052000
v -0.021000 0.070000 -0.052000
v 0.021000 -0.190000 -0.004000
v 0.021000 0.070000 -0.004000
v 0.021000 -0.190000 -0.052000
v 0.021000 0.070000 -0.052000
v -0.020000 -0.250000 -0.006000
v -0.020000 -0.130000 -0.006000
v -0.020000 -0.250000 -0.050000
v -0.020000 -0.130000 -0.050000
v 0.020000 -0.250000 -0.006000
v 0.020000 -0.130000 -0.006000
v 0.020000 -0.250000 -0.050000
v 0.020000 -0.130000 -0.050000
v 0.000000 -0.227000 -0.057000
v 0.000000 -0.227000 -0.007000
v 0.004975 -0.227990 -0.057000
v 0.004975 -0.227990 -0.007000
v 0.009192 -0.230808 -0.057000
v 0.009192 -0.230808 -0.007000
v 0.012010 -0.235025 -0.057000
v 0.012010 -0.235025 -0.007000
v 0.013000 -0.240000 -0.057000
v 0.013000 -0.240000 -0.007000
v 0.012010 -0.244975 -0.057000
v 0.012010 -0.244975 -0.007000
v 0.009192 -0.249192 -0.057000
v 0.009192 -0.249192 -0.007000
v 0.004975 -0.252010 -0.057000
v 0.004975 -0.252010 -0.007000
v 0.000000 -0.253000 -0.057000
v 0.000000 -0.253000 -0.007000
v -0.004975 -0.252010 -0.057000
v -0.004975 -0.252010 -0.007000
v -0.009192 -0.249192 -0.057000
v -0.009192 -0.249192 -0.007000
v -0.012010 -0.244975 -0.057000
v -0.012010 -0.244975 -0.007000
v -0.013000 -0.240000 -0.057000
v -0.013000 -0.240000 -0.007000
v -0.012010 -0.235025 -0.057000
v -0.012010 -0.235025 -0.007000
v -0.009192 -0.230808 -0.057000
v -0.009192 -0.230808 -0.007000
v -0.004975 -0.227990 -0.057000
v -0.004975 -0.227990 -0.007000
v -0.011000 -0.250000 -0.050000
v -0.011000 -0.030000 -0.050000
v -0.011000 -0.250000 -0.060000
v -0.011000 -0.030000 -0.060000
v 0.011000 -0.250000 -0.050000
v 0.011000 -0.030000 -0.050000
v 0.011000 -0.250000 -0.060000
v 0.011000 -0.030000 -0.060000
v -0.004000 -0.239000 -0.057000
v -0.004000 -0.221000 -0.057000
v -0.004000 -0.239000 -0.071000
v -0.004000 -0.221000 -0.071000
v 0.004000 -0.239000 -0.057000
v 0.004000 -0.221000 -0.057000
v 0.004000 -0.239000 -0.071000
v 0.004000 -0.221000 -0.071000
v -0.009000 0.037000 -0.057000
v -0.009000 0.053000 -0.057000
v -0.009000 0.037000 -0.071000
v -0.009000 0.053000 -0.071000
v 0.009000 0.037000 -0.057000
v 0.009000 0.053000 -0.057000
v 0.009000 0.037000 -0.071000
v 0.009000 0.053000 -0.071000
v -0.019000 -0.160000 0.010000
v -0.019000 0.040000 0.010000
v -0.019000 -0.160000 -0.014000
v -0.019000 0.040000 -0.014000
v 0.019000 -0.160000 0.010000
v 0.019000 0.040000 0.010000
v 0.019000 -0.160000 -0.014000
v 0.019000 0.040000 -0.014000
v -0.019000 -0.009000 0.126000
v -0.019000 0.053000 0.126000
v -0.019000 -0.009000 -0.002000
v -0.019000 0.053000 -0.002000
v 0.019000 -0.009000 0.126000
v 0.019000 0.053000 0.126000
v 0.019000 -0.009000 -0.002000
v 0.019000 0.053000 -0.002000
v -0.013000 0.043000 -0.006000
v -0.013000 0.077000 -0.006000
v -0.013000 0.043000 -0.024000
v -0.013000 0.077000 -0.024000
v 0.013000 0.043000 -0.006000
v 0.013000 0.077000 -0.006000
v 0.013000 0.043000 -0.024000
v 0.013000 0.077000 -0.024000
v -0.008000 -0.073000 0.050000
v -0.008000 -0.017000 0.050000
v -0.008000 -0.073000 0.010000
v -0.008000 -0.017000 0.010000
v 0.008000 -0.073000 0.050000
v 0.008000 -0.017000 0.050000
v 0.008000 -0.073000 0.010000
v 0.008000 -0.017000 0.010000
v -0.003500 -0.045000 0.038000
v -0.003500 -0.031000 0.038000
v -0.003500 -0.045000 0.014000
v -0.003500 -0.031000 0.014000
v 0.003500 -0.045000 0.038000
v 0.003500 -0.031000 0.038000
v 0.003500 -0.045000 0.014000
v 0.003500 -0.031000 0.014000
vn -1.0000 -0.0000 -0.0000
vn -0.0000 -0.0000 -1.0000
vn 1.0000 -0.0000 -0.0000
vn -0.0000 -0.0000 1.0000
vn -0.0000 -1.0000 -0.0000
vn -0.0000 1.0000 -0.0000
vn 0.1951 0.9808 -0.0000
vn 0.5556 0.8315 -0.0000
vn 0.8315 0.5556 -0.0000
vn 0.9808 0.1951 -0.0000
vn 0.9808 -0.1951 -0.0000
vn 0.8315 -0.5556 -0.0000
vn 0.5556 -0.8315 -0.0000
vn 0.1951 -0.9808 -0.0000
vn -0.1951 -0.9808 -0.0000
vn -0.5556 -0.8315 -0.0000
vn -0.8315 -0.5556 -0.0000
vn -0.9808 -0.1951 -0.0000
vn -0.9808 0.1951 -0.0000
vn -0.8315 0.5556 -0.0000
vn -0.5556 0.8315 -0.0000
vn -0.1951 0.9808 -0.0000
vt 0.375000 0.000000
vt 0.625000 0.000000
vt 0.625000 0.250000
vt 0.375000 0.250000
vt 0.625000 0.500000
vt 0.375000 0.500000
vt 0.625000 0.750000
vt 0.375000 0.750000
vt 0.625000 1.000000
vt 0.375000 1.000000
vt 0.125000 0.500000
vt 0.125000 0.750000
vt 0.875000 0.500000
vt 0.875000 0.750000
vt 1.000000 0.500000
vt 1.000000 1.000000
vt 0.937500 1.000000
vt 0.937500 0.500000
vt 0.875000 1.000000
vt 0.812500 1.000000
vt 0.812500 0.500000
vt 0.750000 1.000000
vt 0.750000 0.500000
vt 0.687500 1.000000
vt 0.687500 0.500000
vt 0.562500 1.000000
vt 0.562500 0.500000
vt 0.500000 1.000000
vt 0.500000 0.500000
vt 0.437500 1.000000
vt 0.437500 0.500000
vt 0.312500 1.000000
vt 0.312500 0.500000
vt 0.250000 1.000000
vt 0.250000 0.500000
vt 0.187500 1.000000
vt 0.187500 0.500000
vt 0.125000 1.000000
vt 0.341844 0.471731
vt 0.250000 0.490000
vt 0.158156 0.471731
vt 0.080294 0.419706
vt 0.028269 0.341844
vt 0.010000 0.250000
vt 0.028269 0.158156
vt 0.080294 0.080294
vt 0.158156 0.028269
vt 0.250000 0.010000
vt 0.341844 0.028269
vt 0.419706 0.080294
vt 0.471731 0.158156
vt 0.490000 0.250000
vt 0.471731 0.341844
vt 0.419706 0.419706
vt 0.062500 1.000000
vt 0.062500 0.500000
vt 0.000000 1.000000
vt 0.000000 0.500000
vt 0.750000 0.490000
vt 0.841844 0.471731
vt 0.919706 0.419706
vt 0.971731 0.341844
vt 0.990000 0.250000
vt 0.971731 0.158156
vt 0.919706 0.080294
vt 0.841844 0.028269
vt 0.750000 0.010000
vt 0.658156 0.028269
vt 0.580294 0.080294
vt 0.528269 0.158156
vt 0.510000 0.250000
vt 0.528269 0.341844
vt 0.580294 0.419706
vt 0.658156 0.471731
s 0
usemtl Mat_Chrome
f 1/1/1 2/2/1 4/3/1 3/4/1
f 3/4/2 4/3/2 8/5/2 7/6/2
f 7/6/3 8/5/3 6/7/3 5/8/3
f 5/8/4 6/7/4 2/9/4 1/10/4
f 3/11/5 7/6/5 5/8/5 1/12/5
f 8/5/6 4/13/6 2/14/6 6/7/6
f 9/1/1 10/2/1 12/3/1 11/4/1
f 11/4/2 12/3/2 16/5/2 15/6/2
f 15/6/3 16/5/3 14/7/3 13/8/3
f 13/8/4 14/7/4 10/9/4 9/10/4
f 11/11/5 15/6/5 13/8/5 9/12/5
f 16/5/6 12/13/6 10/14/6 14/7/6
f 49/1/1 50/2/1 52/3/1 51/4/1
f 51/4/2 52/3/2 56/5/2 55/6/2
f 55/6/3 56/5/3 54/7/3 53/8/3
f 53/8/4 54/7/4 50/9/4 49/10/4
f 51/11/5 55/6/5 53/8/5 49/12/5
f 56/5/6 52/13/6 50/14/6 54/7/6
f 73/1/1 74/2/1 76/3/1 75/4/1
f 75/4/2 76/3/2 80/5/2 79/6/2
f 79/6/3 80/5/3 78/7/3 77/8/3
f 77/8/4 78/7/4 74/9/4 73/10/4
f 75/11/5 79/6/5 77/8/5 73/12/5
f 80/5/6 76/13/6 74/14/6 78/7/6
f 89/1/1 90/2/1 92/3/1 91/4/1
f 91/4/2 92/3/2 96/5/2 95/6/2
f 95/6/3 96/5/3 94/7/3 93/8/3
f 93/8/4 94/7/4 90/9/4 89/10/4
f 91/11/5 95/6/5 93/8/5 89/12/5
f 96/5/6 92/13/6 90/14/6 94/7/6
f 97/1/1 98/2/1 100/3/1 99/4/1
f 99/4/2 100/3/2 104/5/2 103/6/2
f 103/6/3 104/5/3 102/7/3 101/8/3
f 101/8/4 102/7/4 98/9/4 97/10/4
f 99/11/5 103/6/5 101/8/5 97/12/5
f 104/5/6 100/13/6 98/14/6 102/7/6
usemtl Mat_DarkMetal
f 17/15/7 18/16/7 20/17/7 19/18/7
f 19/18/8 20/17/8 22/19/8 21/13/8
f 21/13/9 22/19/9 24/20/9 23/21/9
f 23/21/10 24/20/10 26/22/10 25/23/10
f 25/23/11 26/22/11 28/24/11 27/25/11
f 27/25/12 28/24/12 30/9/12 29/5/12
f 29/5/13 30/9/13 32/26/13 31/27/13
f 31/27/14 32/26/14 34/28/14 33/29/14
f 33/29/15 34/28/15 36/30/15 35/31/15
f 35/31/16 36/30/16 38/10/16 37/6/16
f 37/6/17 38/10/17 40/32/17 39/33/17
f 39/33/18 40/32/18 42/34/18 41/35/18
f 41/35/19 42/34/19 44/36/19 43/37/19
f 43/37/20 44/36/20 46/38/20 45/11/20
f 20/39/4 18/40/4 48/41/4 46/42/4 44/43/4 42/44/4 40/45/4 38/46/4 36/47/4 34/48/4 32/49/4 30/50/4 28/51/4 26/52/4 24/53/4 22/54/4
f 45/11/21 46/38/21 48/55/21 47/56/21
f 47/56/22 48/55/22 18/57/22 17/58/22
f 17/59/2 19/60/2 21/61/2 23/62/2 25/63/2 27/64/2 29/65/2 31/66/2 33/67/2 35/68/2 37/69/2 39/70/2 41/71/2 43/72/2 45/73/2 47/74/2
f 57/1/1 58/2/1 60/3/1 59/4/1
f 59/4/2 60/3/2 64/5/2 63/6/2
f 63/6/3 64/5/3 62/7/3 61/8/3
f 61/8/4 62/7/4 58/9/4 57/10/4
f 59/11/5 63/6/5 61/8/5 57/12/5
f 64/5/6 60/13/6 58/14/6 62/7/6
f 65/1/1 66/2/1 68/3/1 67/4/1
f 67/4/2 68/3/2 72/5/2 71/6/2
f 71/6/3 72/5/3 70/7/3 69/8/3
f 69/8/4 70/7/4 66/9/4 65/10/4
f 67/11/5 71/6/5 69/8/5 65/12/5
f 72/5/6 68/13/6 66/14/6 70/7/6
f 105/1/1 106/2/1 108/3/1 107/4/1
f 107/4/2 108/3/2 112/5/2 111/6/2
f 111/6/3 112/5/3 110/7/3 109/8/3
f 109/8/4 110/7/4 106/9/4 105/10/4
f 107/11/5 111/6/5 109/8/5 105/12/5
f 112/5/6 108/13/6 106/14/6 110/7/6
usemtl Mat_Rubber
f 81/1/1 82/2/1 84/3/1 83/4/1
f 83/4/2 84/3/2 88/5/2 87/6/2
f 87/6/3 88/5/3 86/7/3 85/8/3
f 85/8/4 86/7/4 82/9/4 81/10/4
f 83/11/5 87/6/5 85/8/5 81/12/5
f 88/5/6 84/13/6 82/14/6 86/7/6
