# Blender 4.0.2
# www.blender.org
mtllib grenade_launcher.mtl
o Weapon_GrenadeLauncher
v 0.000000 -0.208000 -0.225000
v 0.000000 -0.208000 0.135000
v 0.012246 -0.210436 -0.225000
v 0.012246 -0.210436 0.135000
v 0.022627 -0.217373 -0.225000
v 0.022627 -0.217373 0.135000
v 0.029564 -0.227754 -0.225000
v 0.029564 -0.227754 0.135000
v 0.032000 -0.240000 -0.225000
v 0.032000 -0.240000 0.135000
v 0.029564 -0.252246 -0.225000
v 0.029564 -0.252246 0.135000
v 0.022627 -0.262627 -0.225000
v 0.022627 -0.262627 0.135000
v 0.012246 -0.269564 -0.225000
v 0.012246 -0.269564 0.135000
v 0.000000 -0.272000 -0.225000
v 0.000000 -0.272000 0.135000
v -0.012246 -0.269564 -0.225000
v -0.012246 -0.269564 0.135000
v -0.022627 -0.262627 -0.225000
v -0.022627 -0.262627 0.135000
v -0.029564 -0.252246 -0.225000
v -0.029564 -0.252246 0.135000
v -0.032000 -0.240000 -0.225000
v -0.032000 -0.240000 0.135000
v -0.029564 -0.227754 -0.225000
v -0.029564 -0.227754 0.135000
v -0.022627 -0.217373 -0.225000
v -0.022627 -0.217373 0.135000
v -0.012246 -0.210436 -0.225000
v -0.012246 -0.210436 0.135000
v 0.000000 -0.355000 -0.085000
v 0.000000 -0.355000 -0.005000
v 0.009567 -0.356903 -0.085000
v 0.009567 -0.356903 -0.005000
v 0.017678 -0.362322 -0.085000
v 0.017678 -0.362322 -0.005000
v 0.023097 -0.370433 -0.085000
v 0.023097 -0.370433 -0.005000
v 0.025000 -0.380000 -0.085000
v 0.025000 -0.380000 -0.005000
v 0.023097 -0.389567 -0.085000
v 0.023097 -0.389567 -0.005000
v 0.017678 -0.397678 -0.085000
v 0.017678 -0.397678 -0.005000
v 0.009567 -0.403097 -0.085000
v 0.009567 -0.403097 -0.005000
v 0.000000 -0.405000 -0.085000
v 0.000000 -0.405000 -0.005000
v -0.009567 -0.403097 -0.085000
v -0.009567 -0.403097 -0.005000
v -0.017678 -0.397678 -0.085000
v -0.017678 -0.397678 -0.005000
v -0.023097 -0.389567 -0.085000
v -0.023097 -0.389567 -0.005000
v -0.025000 -0.380000 -0.085000
v -0.025000 -0.380000 -0.005000
v -0.023097 -0.370433 -0.085000
v -0.023097 -0.370433 -0.005000
v -0.017678 -0.362322 -0.085000
v -0.017678 -0.362322 -0.005000
v -0.009567 -0.356903 -0.085000
v -0.009567 -0.356903 -0.005000
v -0.034000 -0.070000 0.017500
v -0.034000 0.110000 0.017500
v -0.034000 -0.070000 -0.067500
v -0.034000 0.110000 -0.067500
v 0.034000 -0.070000 0.017500
v 0.034000 0.110000 0.017500
v 0.034000 -0.070000 -0.067500
v 0.034000 0.110000 -0.067500
v -0.012000 -0.096000 0.005000
v -0.012000 -0.024000 0.005000
v -0.011087 -0.096000 0.000408
v -0.011087 -0.024000 0.000408
v -0.008485 -0.096000 -0.003485
v -0.008485 -0.024000 -0.003485
v -0.004592 -0.096000 -0.006087
v -0.004592 -0.024000 -0.006087
v -0.000000 -0.096000 -0.007000
v -0.000000 -0.024000 -0.007000
v 0.004592 -0.096000 -0.006087
v 0.004592 -0.024000 -0.006087
v 0.008485 -0.096000 -0.003485
v 0.008485 -0.024000 -0.003485
v 0.011087 -0.096000 0.000408
v 0.011087 -0.024000 0.000408
v 0.012000 -0.096000 0.005000
v 0.012000 -0.024000 0.005000
v 0.011087 -0.096000 0.009592
v 0.011087 -0.024000 0.009592
v 0.008485 -0.096000 0.013485
v 0.008485 -0.024000 0.013485
v 0.004592 -0.096000 0.016087
v 0.004592 -0.024000 0.016087
v 0.000000 -0.096000 0.017000
v 0.000000 -0.024000 0.017000
v -0.004592 -0.096000 0.016087
v -0.004592 -0.024000 0.016087
v -0.008485 -0.096000 0.013485
v -0.008485 -0.024000 0.013485
v -0.011087 -0.096000 0.009592
v -0.011087 -0.024000 0.009592
v -0.006000 -0.166000 -0.072500
v -0.006000 -0.154000 -0.072500
v -0.006000 -0.166000 -0.137500
v -0.006000 -0.154000 -0.137500
v 0.006000 -0.166000 -0.072500
v 0.006000 -0.154000 -0.072500
v 0.006000 -0.166000 -0.137500
v 0.006000 -0.154000 -0.137500
v -0.012000 -0.166000 -0.119000
v -0.012000 -0.154000 -0.119000
v -0.012000 -0.166000 -0.131000
v -0.012000 -0.154000 -0.131000
v 0.012000 -0.166000 -0.119000
v 0.012000 -0.154000 -0.119000
v 0.012000 -0.166000 -0.131000
v 0.012000 -0.154000 -0.131000
v -0.031000 -0.310000 0.019000
v -0.031000 -0.090000 0.019000
v -0.031000 -0.310000 -0.029000
v -0.031000 -0.090000 -0.029000
v 0.031000 -0.310000 0.019000
v 0.031000 -0.090000 0.019000
v 0.031000 -0.310000 -0.029000
v 0.031000 -0.090000 -0.029000
v -0.018000 0.054000 0.122500
v -0.018000 0.106000 0.122500
v -0.018000 0.054000 0.007500
v -0.018000 0.106000 0.007500
v 0.018000 0.054000 0.122500
v 0.018000 0.106000 0.122500
v 0.018000 0.054000 0.007500
v 0.018000 0.106000 0.007500
v -0.027000 0.110000 0.047500
v -0.027000 0.370000 0.047500
v -0.027000 0.110000 -0.067500
v -0.027000 0.370000 -0.067500
v 0.027000 0.110000 0.047500
v 0.027000 0.370000 0.047500
v 0.027000 0.110000 -0.067500
v 0.027000 0.370000 -0.067500
v -0.028000 0.361000 0.055000
v -0.028000 0.389000 0.055000
v -0.028000 0.361000 -0.075000
v -0.028000 0.389000 -0.075000
v 0.028000 0.361000 0.055000
v 0.028000 0.389000 0.055000
v 0.028000 0.361000 -0.075000
v 0.028000 0.389000 -0.075000
v 0.000000 -0.018000 -0.075000
v 0.000000 -0.018000 -0.015000
v 0.008419 -0.019675 -0.075000
v 0.008419 -0.019675 -0.015000
v 0.015556 -0.024444 -0.075000
v 0.015556 -0.024444 -0.015000
v 0.020325 -0.031581 -0.075000
v 0.020325 -0.031581 -0.015000
v 0.022000 -0.040000 -0.075000
v 0.022000 -0.040000 -0.015000
v 0.020325 -0.048419 -0.075000
v 0.020325 -0.048419 -0.015000
v 0.015556 -0.055556 -0.075000
v 0.015556 -0.055556 -0.015000
v 0.008419 -0.060325 -0.075000
v 0.008419 -0.060325 -0.015000
v 0.000000 -0.062000 -0.075000
v 0.000000 -0.062000 -0.015000
v -0.008419 -0.060325 -0.075000
v -0.008419 -0.060325 -0.015000
v -0.015556 -0.055556 -0.075000
v -0.015556 -0.055556 -0.015000
v -0.020325 -0.048419 -0.075000
v -0.020325 -0.048419 -0.015000
v -0.022000 -0.040000 -0.075000
v -0.022000 -0.040000 -0.015000
v -0.020325 -0.031581 -0.075000
v -0.020325 -0.031581 -0.015000
v -0.015556 -0.024444 -0.075000
v -0.015556 -0.024444 -0.015000
v -0.008419 -0.019675 -0.075000
v -0.008419 -0.019675 -0.015000
vn 0.1951 0.9808 -0.0000
vn 0.5556 0.8315 -0.0000
vn 0.8315 0.5556 -0.0000
vn 0.9808 0.1951 -0.0000
vn 0.9808 -0.1951 -0.0000
vn 0.8315 -0.5556 -0.0000
vn 0.5556 -0.8315 -0.0000
vn 0.1951 -0.9808 -0.0000
vn -0.1951 -0.9808 -0.0000
vn -0.5556 -0.8315 -0.0000
vn -0.8315 -0.5556 -0.0000
vn -0.9808 -0.1951 -0.0000
vn -0.9808 0.1951 -0.0000
vn -0.8315 0.5556 -0.0000
vn -0.0000 -0.0000 1.0000
vn -0.5556 0.8315 -0.0000
vn -0.1951 0.9808 -0.0000
vn -0.0000 -0.0000 -1.0000
vn -1.0000 -0.0000 -0.0000
vn 1.0000 -0.0000 -0.0000
vn -0.0000 -1.0000 -0.0000
vn -0.0000 1.0000 -0.0000
vn -0.9808 -0.0000 -0.1951
vn -0.8315 -0.0000 -0.5556
vn -0.5556 -0.0000 -0.8315
vn -0.1951 -0.0000 -0.9808
vn 0.1951 -0.0000 -0.9808
vn 0.5556 -0.0000 -0.8315
vn 0.8315 -0.0000 -0.5556
vn 0.9808 -0.0000 -0.1951
vn 0.9808 -0.0000 0.1951
vn 0.8315 -0.0000 0.5556
vn 0.5556 -0.0000 0.8315
vn 0.1951 -0.0000 0.9808
vn -0.1951 -0.0000 0.9808
vn -0.5556 -0.0000 0.8315
vn -0.8315 -0.0000 0.5556
vn -0.9808 -0.0000 0.1951
vt 1.000000 0.500000
vt 1.000000 1.000000
vt 0.937500 1.000000
vt 0.937500 0.500000
vt 0.875000 1.000000
vt 0.875000 0.500000
vt 0.812500 1.000000
vt 0.812500 0.500000
vt 0.750000 1.000000
vt 0.750000 0.500000
vt 0.687500 1.000000
vt 0.687500 0.500000
vt 0.625000 1.000000
vt 0.625000 0.500000
vt 0.562500 1.000000
vt 0.562500 0.500000
vt 0.500000 1.000000
vt 0.500000 0.500000
vt 0.437500 1.000000
vt 0.437500 0.500000
vt 0.375000 1.000000
vt 0.375000 0.500000
vt 0.312500 1.000000
vt 0.312500 0.500000
vt 0.250000 1.000000
vt 0.250000 0.500000
vt 0.187500 1.000000
vt 0.187500 0.500000
vt 0.125000 1.000000
vt 0.125000 0.500000
vt 0.341844 0.471731
vt 0.250000 0.490000
vt 0.158156 0.471731
vt 0.080294 0.419706
vt 0.028269 0.341844
vt 0.010000 0.250000
vt 0.028269 0.158156
vt 0.080294 0.080294
vt 0.158156 0.028269
vt 0.250000 0.010000
vt 0.341844 0.028269
vt 0.419706 0.080294
vt 0.471731 0.158156
vt 0.490000 0.250000
vt 0.471731 0.341844
vt 0.419706 0.419706
vt 0.062500 1.000000
vt 0.062500 0.500000
vt 0.000000 1.000000
vt 0.000000 0.500000
vt 0.750000 0.490000
vt 0.841844 0.471731
vt 0.919706 0.419706
vt 0.971731 0.341844
vt 0.990000 0.250000
vt 0.971731 0.158156
vt 0.919706 0.080294
vt 0.841844 0.028269
vt 0.750000 0.010000
vt 0.658156 0.028269
vt 0.580294 0.080294
vt 0.528269 0.158156
vt 0.510000 0.250000
vt 0.528269 0.341844
vt 0.580294 0.419706
vt 0.658156 0.471731
vt 0.080294 0.419706
vt 0.028269 0.341844
vt 0.028269 0.158156
vt 0.080294 0.080294
vt 0.158156 0.028269
vt 0.341844 0.028269
vt 0.419706 0.080294
vt 0.919706 0.080294
vt 0.841844 0.028269
vt 0.658156 0.028269
vt 0.580294 0.080294
vt 0.375000 0.000000
vt 0.625000 0.000000
vt 0.625000 0.250000
vt 0.375000 0.250000
vt 0.625000 0.750000
vt 0.375000 0.750000
vt 0.125000 0.750000
vt 0.875000 0.750000
vt 0.158156 0.471731
vt 0.010000 0.250000
vt 0.028269 0.158156
vt 0.158156 0.028269
vt 0.250000 0.010000
vt 0.471731 0.158156
vt 0.971731 0.158156
vt 0.750000 0.010000
vt 0.528269 0.158156
s 0
usemtl Mat_DarkMetal
f 1/1/1 2/2/1 4/3/1 3/4/1
f 3/4/2 4/3/2 6/5/2 5/6/2
f 5/6/3 6/5/3 8/7/3 7/8/3
f 7/8/4 8/7/4 10/9/4 9/10/4
f 9/10/5 10/9/5 12/11/5 11/12/5
f 11/12/6 12/11/6 14/13/6 13/14/6
f 13/14/7 14/13/7 16/15/7 15/16/7
f 15/16/8 16/15/8 18/17/8 17/18/8
f 17/18/9 18/17/9 20/19/9 19/20/9
f 19/20/10 20/19/10 22/21/10 21/22/10
f 21/22/11 22/21/11 24/23/11 23/24/11
f 23/24/12 24/23/12 26/25/12 25/26/12
f 25/26/13 26/25/13 28/27/13 27/28/13
f 27/28/14 28/27/14 30/29/14 29/30/14
f 4/31/15 2/32/15 32/33/15 30/34/15 28/35/15 26/36/15 24/37/15 22/38/15 20/39/15 18/40/15 16/41/15 14/42/15 12/43/15 10/44/15 8/45/15 6/46/15
f 29/30/16 30/29/16 32/47/16 31/48/16
f 31/48/17 32/47/17 2/49/17 1/50/17
f 1/51/18 3/52/18 5/53/18 7/54/18 9/55/18 11/56/18 13/57/18 15/58/18 17/59/18 19/60/18 21/61/18 23/62/18 25/63/18 27/64/18 29/65/18 31/66/18
f 105/78/19 106/79/19 108/80/19 107/81/19
f 107/81/18 108/80/18 112/14/18 111/22/18
f 111/22/20 112/14/20 110/82/20 109/83/20
f 109/83/15 110/82/15 106/13/15 105/21/15
f 107/30/21 111/22/21 109/83/21 105/84/21
f 112/14/22 108/6/22 106/85/22 110/82/22
usemtl Mat_Steel
f 33/1/1 34/2/1 36/3/1 35/4/1
f 35/4/2 36/3/2 38/5/2 37/6/2
f 37/6/3 38/5/3 40/7/3 39/8/3
f 39/8/4 40/7/4 42/9/4 41/10/4
f 41/10/5 42/9/5 44/11/5 43/12/5
f 43/12/6 44/11/6 46/13/6 45/14/6
f 45/14/7 46/13/7 48/15/7 47/16/7
f 47/16/8 48/15/8 50/17/8 49/18/8
f 49/18/9 50/17/9 52/19/9 51/20/9
f 51/20/10 52/19/10 54/21/10 53/22/10
f 53/22/11 54/21/11 56/23/11 55/24/11
f 55/24/12 56/23/12 58/25/12 57/26/12
f 57/26/13 58/25/13 60/27/13 59/28/13
f 59/28/14 60/27/14 62/29/14 61/30/14
f 36/31/15 34/32/15 64/33/15 62/67/15 60/68/15 58/36/15 56/69/15 54/70/15 52/71/15 50/40/15 48/72/15 46/73/15 44/43/15 42/44/15 40/45/15 38/46/15
f 61/30/16 62/29/16 64/47/16 63/48/16
f 63/48/17 64/47/17 34/49/17 33/50/17
f 33/51/18 35/52/18 37/53/18 39/54/18 41/55/18 43/56/18 45/74/18 47/75/18 49/59/18 51/76/18 53/77/18 55/62/18 57/63/18 59/64/18 61/65/18 63/66/18
f 65/78/19 66/79/19 68/80/19 67/81/19
f 67/81/18 68/80/18 72/14/18 71/22/18
f 71/22/20 72/14/20 70/82/20 69/83/20
f 69/83/15 70/82/15 66/13/15 65/21/15
f 67/30/21 71/22/21 69/83/21 65/84/21
f 72/14/22 68/6/22 66/85/22 70/82/22
usemtl Mat_PolishedSteel
f 73/1/23 74/2/23 76/3/23 75/4/23
f 75/4/24 76/3/24 78/5/24 77/6/24
f 77/6/25 78/5/25 80/7/25 79/8/25
f 79/8/26 80/7/26 82/9/26 81/10/26
f 81/10/27 82/9/27 84/11/27 83/12/27
f 83/12/28 84/11/28 86/13/28 85/14/28
f 85/14/29 86/13/29 88/15/29 87/16/29
f 87/16/30 88/15/30 90/17/30 89/18/30
f 89/18/31 90/17/31 92/19/31 91/20/31
f 91/20/32 92/19/32 94/21/32 93/22/32
f 93/22/33 94/21/33 96/23/33 95/24/33
f 95/24/34 96/23/34 98/25/34 97/26/34
f 97/26/35 98/25/35 100/27/35 99/28/35
f 99/28/36 100/27/36 102/29/36 101/30/36
f 76/31/22 74/32/22 104/86/22 102/34/22 100/35/22 98/87/22 96/88/22 94/38/22 92/89/22 90/90/22 88/41/22 86/42/22 84/91/22 82/44/22 80/45/22 78/46/22
f 101/30/37 102/29/37 104/47/37 103/48/37
f 103/48/38 104/47/38 74/49/38 73/50/38
f 73/51/21 75/52/21 77/53/21 79/54/21 81/55/21 83/92/21 85/57/21 87/58/21 89/93/21 91/60/21 93/61/21 95/94/21 97/63/21 99/64/21 101/65/21 103/66/21
usemtl Mat_Tritium
f 113/78/19 114/79/19 116/80/19 115/81/19
f 115/81/18 116/80/18 120/14/18 119/22/18
f 119/22/20 120/14/20 118/82/20 117/83/20
f 117/83/15 118/82/15 114/13/15 113/21/15
f 115/30/21 119/22/21 117/83/21 113/84/21
f 120/14/22 116/6/22 114/85/22 118/82/22
usemtl Mat_Wood
f 121/78/19 122/79/19 124/80/19 123/81/19
f 123/81/18 124/80/18 128/14/18 127/22/18
f 127/22/20 128/14/20 126/82/20 125/83/20
f 125/83/15 126/82/15 122/13/15 121/21/15
f 123/30/21 127/22/21 125/83/21 121/84/21
f 128/14/22 124/6/22 122/85/22 126/82/22
f 129/78/19 130/79/19 132/80/19 131/81/19
f 131/81/18 132/80/18 136/14/18 135/22/18
f 135/22/20 136/14/20 134/82/20 133/83/20
f 133/83/15 134/82/15 130/13/15 129/21/15
f 131/30/21 135/22/21 133/83/21 129/84/21
f 136/14/22 132/6/22 130/85/22 134/82/22
f 137/78/19 138/79/19 140/80/19 139/81/19
f 139/81/18 140/80/18 144/14/18 143/22/18
f 143/22/20 144/14/20 142/82/20 141/83/20
f 141/83/15 142/82/15 138/13/15 137/21/15
f 139/30/21 143/22/21 141/83/21 137/84/21
f 144/14/22 140/6/22 138/85/22 142/82/22
usemtl Mat_Rubber
f 145/78/19 146/79/19 148/80/19 147/81/19
f 147/81/18 148/80/18 152/14/18 151/22/18
f 151/22/20 152/14/20 150/82/20 149/83/20
f 149/83/15 150/82/15 146/13/15 145/21/15
f 147/30/21 151/22/21 149/83/21 145/84/21
f 152/14/22 148/6/22 146/85/22 150/82/22
usemtl Mat_Brass
f 153/1/1 154/2/1 156/3/1 155/4/1
f 155/4/2 156/3/2 158/5/2 157/6/2
f 157/6/3 158/5/3 160/7/3 159/8/3
f 159/8/4 160/7/4 162/9/4 161/10/4
f 161/10/5 162/9/5 164/11/5 163/12/5
f 163/12/6 164/11/6 166/13/6 165/14/6
f 165/14/7 166/13/7 168/15/7 167/16/7
f 167/16/8 168/15/8 170/17/8 169/18/8
f 169/18/9 170/17/9 172/19/9 171/20/9
f 171/20/10 172/19/10 174/21/10 173/22/10
f 173/22/11 174/21/11 176/23/11 175/24/11
f 175/24/12 176/23/12 178/25/12 177/26/12
f 177/26/13 178/25/13 180/27/13 179/28/13
f 179/28/14 180/27/14 182/29/14 181/30/14
f 156/31/15 154/32/15 184/33/15 182/34/15 180/35/15 178/36/15 176/37/15 174/38/15 172/39/15 170/40/15 168/41/15 166/42/15 164/43/15 162/44/15 160/45/15 158/46/15
f 181/30/16 182/29/16 184/47/16 183/48/16
f 183/48/17 184/47/17 154/49/17 153/50/17
f 153/51/18 155/52/18 157/53/18 159/54/18 161/55/18 163/56/18 165/57/18 167/58/18 169/59/18 171/60/18 173/61/18 175/62/18 177/63/18 179/64/18 181/65/18 183/66/18
