# Blender 4.0.2
# www.blender.org
mtllib m4a1.mtl
o Weapon_M4A1
v -0.020000 -0.095000 0.020000
v -0.020000 0.135000 0.020000
v -0.020000 -0.095000 -0.040000
v -0.020000 0.135000 -0.040000
v 0.020000 -0.095000 0.020000
v 0.020000 0.135000 0.020000
v 0.020000 -0.095000 -0.040000
v 0.020000 0.135000 -0.040000
v -0.019000 -0.095000 -0.026000
v -0.019000 0.135000 -0.026000
v -0.019000 -0.095000 -0.070000
v -0.019000 0.135000 -0.070000
v 0.019000 -0.095000 -0.026000
v 0.019000 0.135000 -0.026000
v 0.019000 -0.095000 -0.070000
v 0.019000 0.135000 -0.070000
v -0.012000 -0.255000 -0.068000
v -0.012000 0.135000 -0.068000
v -0.012000 -0.255000 -0.080000
v -0.012000 0.135000 -0.080000
v 0.012000 -0.255000 -0.068000
v 0.012000 0.135000 -0.068000
v 0.012000 -0.255000 -0.080000
v 0.012000 0.135000 -0.080000
v -0.019000 -0.032500 -0.091500
v -0.019000 0.052500 -0.091500
v -0.019000 -0.032500 -0.136500
v -0.019000 0.052500 -0.136500
v 0.019000 -0.032500 -0.091500
v 0.019000 0.052500 -0.091500
v 0.019000 -0.032500 -0.136500
v 0.019000 0.052500 -0.136500
v 0.000000 0.024000 -0.149000
v 0.000000 0.024000 -0.079000
v 0.005358 0.022934 -0.149000
v 0.005358 0.022934 -0.079000
v 0.009899 0.019899 -0.149000
v 0.009899 0.019899 -0.079000
v 0.012934 0.015358 -0.149000
v 0.012934 0.015358 -0.079000
v 0.014000 0.010000 -0.149000
v 0.014000 0.010000 -0.079000
v 0.012934 0.004642 -0.149000
v 0.012934 0.004642 -0.079000
v 0.009899 0.000101 -0.149000
v 0.009899 0.000101 -0.079000
v 0.005358 -0.002934 -0.149000
v 0.005358 -0.002934 -0.079000
v 0.000000 -0.004000 -0.149000
v 0.000000 -0.004000 -0.079000
v -0.005358 -0.002934 -0.149000
v -0.005358 -0.002934 -0.079000
v -0.009899 0.000101 -0.149000
v -0.009899 0.000101 -0.079000
v -0.012934 0.004642 -0.149000
v -0.012934 0.004642 -0.079000
v -0.014000 0.010000 -0.149000
v -0.014000 0.010000 -0.079000
v -0.012934 0.015358 -0.149000
v -0.012934 0.015358 -0.079000
v -0.009899 0.019899 -0.149000
v -0.009899 0.019899 -0.079000
v -0.005358 0.022934 -0.149000
v -0.005358 0.022934 -0.079000
v -0.022000 -0.355000 -0.019000
v -0.022000 -0.085000 -0.019000
v -0.022000 -0.355000 -0.065000
v -0.022000 -0.085000 -0.065000
v 0.022000 -0.355000 -0.019000
v 0.022000 -0.085000 -0.019000
v 0.022000 -0.355000 -0.065000
v 0.022000 -0.085000 -0.065000
v -0.015000 -0.277500 0.018000
v -0.015000 -0.162500 0.018000
v -0.015000 -0.277500 -0.030000
v -0.015000 -0.162500 -0.030000
v 0.015000 -0.277500 0.018000
v 0.015000 -0.162500 0.018000
v 0.015000 -0.277500 -0.030000
v 0.015000 -0.162500 -0.030000
v 0.000000 -0.379000 -0.147000
v 0.000000 -0.379000 0.063000
v 0.004210 -0.379837 -0.147000
v 0.004210 -0.379837 0.063000
v 0.007778 -0.382222 -0.147000
v 0.007778 -0.382222 0.063000
v 0.010163 -0.385790 -0.147000
v 0.010163 -0.385790 0.063000
v 0.011000 -0.390000 -0.147000
v 0.011000 -0.390000 0.063000
v 0.010163 -0.394210 -0.147000
v 0.010163 -0.394210 0.063000
v 0.007778 -0.397778 -0.147000
v 0.007778 -0.397778 0.063000
v 0.004210 -0.400163 -0.147000
v 0.004210 -0.400163 0.063000
v 0.000000 -0.401000 -0.147000
v 0.000000 -0.401000 0.063000
v -0.004210 -0.400163 -0.147000
v -0.004210 -0.400163 0.063000
v -0.007778 -0.397778 -0.147000
v -0.007778 -0.397778 0.063000
v -0.010163 -0.394210 -0.147000
v -0.010163 -0.394210 0.063000
v -0.011000 -0.390000 -0.147000
v -0.011000 -0.390000 0.063000
v -0.010163 -0.385790 -0.147000
v -0.010163 -0.385790 0.063000
v -0.007778 -0.382222 -0.147000
v -0.007778 -0.382222 0.063000
v -0.004210 -0.379837 -0.147000
v -0.004210 -0.379837 0.063000
v 0.000000 -0.487000 -0.066000
v 0.000000 -0.487000 -0.018000
v 0.004975 -0.487990 -0.066000
v 0.004975 -0.487990 -0.018000
v 0.009192 -0.490808 -0.066000
v 0.009192 -0.490808 -0.018000
v 0.012010 -0.495025 -0.066000
v 0.012010 -0.495025 -0.018000
v 0.013000 -0.500000 -0.066000
v 0.013000 -0.500000 -0.018000
v 0.012010 -0.504975 -0.066000
v 0.012010 -0.504975 -0.018000
v 0.009192 -0.509192 -0.066000
v 0.009192 -0.509192 -0.018000
v 0.004975 -0.512010 -0.066000
v 0.004975 -0.512010 -0.018000
v 0.000000 -0.513000 -0.066000
v 0.000000 -0.513000 -0.018000
v -0.004975 -0.512010 -0.066000
v -0.004975 -0.512010 -0.018000
v -0.009192 -0.509192 -0.066000
v -0.009192 -0.509192 -0.018000
v -0.012010 -0.504975 -0.066000
v -0.012010 -0.504975 -0.018000
v -0.013000 -0.500000 -0.066000
v -0.013000 -0.500000 -0.018000
v -0.012010 -0.495025 -0.066000
v -0.012010 -0.495025 -0.018000
v -0.009192 -0.490808 -0.066000
v -0.009192 -0.490808 -0.018000
v -0.004975 -0.487990 -0.066000
v -0.004975 -0.487990 -0.018000
v -0.014000 -0.064000 0.185500
v -0.014000 0.004000 0.185500
v -0.014000 -0.064000 0.010500
v -0.014000 0.004000 0.010500
v 0.014000 -0.064000 0.185500
v 0.014000 0.004000 0.185500
v 0.014000 -0.064000 0.010500
v 0.014000 0.004000 0.010500
v -0.016000 0.066000 0.127000
v -0.016000 0.114000 0.127000
v -0.016000 0.066000 0.009000
v -0.016000 0.114000 0.009000
v 0.016000 0.066000 0.127000
v 0.016000 0.114000 0.127000
v 0.016000 0.066000 0.009000
v 0.016000 0.114000 0.009000
v 0.000000 0.236000 -0.139000
v 0.000000 0.236000 0.051000
v 0.006123 0.234782 -0.139000
v 0.006123 0.234782 0.051000
v 0.011314 0.231314 -0.139000
v 0.011314 0.231314 0.051000
v 0.014782 0.226123 -0.139000
v 0.014782 0.226123 0.051000
v 0.016000 0.220000 -0.139000
v 0.016000 0.220000 0.051000
v 0.014782 0.213877 -0.139000
v 0.014782 0.213877 0.051000
v 0.011314 0.208686 -0.139000
v 0.011314 0.208686 0.051000
v 0.006123 0.205218 -0.139000
v 0.006123 0.205218 0.051000
v 0.000000 0.204000 -0.139000
v 0.000000 0.204000 0.051000
v -0.006123 0.205218 -0.139000
v -0.006123 0.205218 0.051000
v -0.011314 0.208686 -0.139000
v -0.011314 0.208686 0.051000
v -0.014782 0.213877 -0.139000
v -0.014782 0.213877 0.051000
v -0.016000 0.220000 -0.139000
v -0.016000 0.220000 0.051000
v -0.014782 0.226123 -0.139000
v -0.014782 0.226123 0.051000
v -0.011314 0.231314 -0.139000
v -0.011314 0.231314 0.051000
v -0.006123 0.234782 -0.139000
v -0.006123 0.234782 0.051000
v -0.023000 0.165000 -0.018000
v -0.023000 0.355000 -0.018000
v -0.023000 0.165000 -0.086000
v -0.023000 0.355000 -0.086000
v 0.023000 0.165000 -0.018000
v 0.023000 0.355000 -0.018000
v 0.023000 0.165000 -0.086000
v 0.023000 0.355000 -0.086000
v -0.022000 0.340000 0.015500
v -0.022000 0.360000 0.015500
v -0.022000 0.340000 -0.109500
v -0.022000 0.360000 -0.109500
v 0.022000 0.340000 0.015500
v 0.022000 0.360000 0.015500
v 0.022000 0.340000 -0.109500
v 0.022000 0.360000 -0.109500
vn -1.0000 -0.0000 -0.0000
vn -0.0000 -0.0000 -1.0000
vn 1.0000 -0.0000 -0.0000
vn -0.0000 -0.0000 1.0000
vn -0.0000 -1.0000 -0.0000
vn -0.0000 1.0000 -0.0000
vn 0.1951 0.9808 -0.0000
vn 0.5556 0.8315 -0.0000
vn 0.8315 0.5556 -0.0000
vn 0.9808 0.1951 -0.0000
vn 0.9808 -0.1951 -0.0000
vn 0.8315 -0.5556 -0.0000
vn 0.5556 -0.8315 -0.0000
vn 0.1951 -0.9808 -0.0000
vn -0.1951 -0.9808 -0.0000
vn -0.5556 -0.8315 -0.0000
vn -0.8315 -0.5556 -0.0000
vn -0.9808 -0.1951 -0.0000
vn -0.9808 0.1951 -0.0000
vn -0.8315 0.5556 -0.0000
vn -0.5556 0.8315 -0.0000
vn -0.1951 0.9808 -0.0000
vt 0.375000 0.000000
vt 0.625000 0.000000
vt 0.625000 0.250000
vt 0.375000 0.250000
vt 0.625000 0.500000
vt 0.375000 0.500000
vt 0.625000 0.750000
vt 0.375000 0.750000
vt 0.625000 1.000000
vt 0.375000 1.000000
vt 0.125000 0.500000
vt 0.125000 0.750000
vt 0.875000 0.500000
vt 0.875000 0.750000
vt 1.000000 0.500000
vt 1.000000 1.000000
vt 0.937500 1.000000
vt 0.937500 0.500000
vt 0.875000 1.000000
vt 0.812500 1.000000
vt 0.812500 0.500000
vt 0.750000 1.000000
vt 0.750000 0.500000
vt 0.687500 1.000000
vt 0.687500 0.500000
vt 0.562500 1.000000
vt 0.562500 0.500000
vt 0.500000 1.000000
vt 0.500000 0.500000
vt 0.437500 1.000000
vt 0.437500 0.500000
vt 0.312500 1.000000
vt 0.312500 0.500000
vt 0.250000 1.000000
vt 0.250000 0.500000
vt 0.187500 1.000000
vt 0.187500 0.500000
vt 0.125000 1.000000
vt 0.341844 0.471731
vt 0.250000 0.490000
vt 0.158156 0.471731
vt 0.080294 0.419706
vt 0.028269 0.341844
vt 0.010000 0.250000
vt 0.028269 0.158156
vt 0.080294 0.080294
vt 0.158156 0.028269
vt 0.250000 0.010000
vt 0.341844 0.028269
vt 0.419706 0.080294
vt 0.471731 0.158156
vt 0.490000 0.250000
vt 0.471731 0.341844
vt 0.419706 0.419706
vt 0.062500 1.000000
vt 0.062500 0.500000
vt 0.000000 1.000000
vt 0.000000 0.500000
vt 0.750000 0.490000
vt 0.841844 0.471731
vt 0.919706 0.419706
vt 0.971731 0.341844
vt 0.990000 0.250000
vt 0.971731 0.158156
vt 0.919706 0.080294
vt 0.841844 0.028269
vt 0.750000 0.010000
vt 0.658156 0.028269
vt 0.580294 0.080294
vt 0.528269 0.158156
vt 0.510000 0.250000
vt 0.528269 0.341844
vt 0.580294 0.419706
vt 0.658156 0.471731
vt 0.080294 0.419706
vt 0.080294 0.080294
vt 0.419706 0.080294
vt 0.919706 0.080294
vt 0.580294 0.080294
vt 0.010000 0.250000
vt 0.250000 0.010000
vt 0.750000 0.010000
s 0
usemtl Mat_Steel
f 1/1/1 2/2/1 4/3/1 3/4/1
f 3/4/2 4/3/2 8/5/2 7/6/2
f 7/6/3 8/5/3 6/7/3 5/8/3
f 5/8/4 6/7/4 2/9/4 1/10/4
f 3/11/5 7/6/5 5/8/5 1/12/5
f 8/5/6 4/13/6 2/14/6 6/7/6
f 9/1/1 10/2/1 12/3/1 11/4/1
f 11/4/2 12/3/2 16/5/2 15/6/2
f 15/6/3 16/5/3 14/7/3 13/8/3
f 13/8/4 14/7/4 10/9/4 9/10/4
f 11/11/5 15/6/5 13/8/5 9/12/5
f 16/5/6 12/13/6 10/14/6 14/7/6
f 65/1/1 66/2/1 68/3/1 67/4/1
f 67/4/2 68/3/2 72/5/2 71/6/2
f 71/6/3 72/5/3 70/7/3 69/8/3
f 69/8/4 70/7/4 66/9/4 65/10/4
f 67/11/5 71/6/5 69/8/5 65/12/5
f 72/5/6 68/13/6 66/14/6 70/7/6
f 161/15/7 162/16/7 164/17/7 163/18/7
f 163/18/8 164/17/8 166/19/8 165/13/8
f 165/13/9 166/19/9 168/20/9 167/21/9
f 167/21/10 168/20/10 170/22/10 169/23/10
f 169/23/11 170/22/11 172/24/11 171/25/11
f 171/25/12 172/24/12 174/9/12 173/5/12
f 173/5/13 174/9/13 176/26/13 175/27/13
f 175/27/14 176/26/14 178/28/14 177/29/14
f 177/29/15 178/28/15 180/30/15 179/31/15
f 179/31/16 180/30/16 182/10/16 181/6/16
f 181/6/17 182/10/17 184/32/17 183/33/17
f 183/33/18 184/32/18 186/34/18 185/35/18
f 185/35/19 186/34/19 188/36/19 187/37/19
f 187/37/20 188/36/20 190/38/20 189/11/20
f 164/39/4 162/40/4 192/41/4 190/75/4 188/43/4 186/44/4 184/45/4 182/76/4 180/47/4 178/48/4 176/49/4 174/77/4 172/51/4 170/52/4 168/53/4 166/54/4
f 189/11/21 190/38/21 192/55/21 191/56/21
f 191/56/22 192/55/22 162/57/22 161/58/22
f 161/59/2 163/60/2 165/61/2 167/62/2 169/63/2 171/64/2 173/78/2 175/66/2 177/67/2 179/68/2 181/79/2 183/70/2 185/71/2 187/72/2 189/73/2 191/74/2
usemtl Mat_DarkMetal
f 17/1/1 18/2/1 20/3/1 19/4/1
f 19/4/2 20/3/2 24/5/2 23/6/2
f 23/6/3 24/5/3 22/7/3 21/8/3
f 21/8/4 22/7/4 18/9/4 17/10/4
f 19/11/5 23/6/5 21/8/5 17/12/5
f 24/5/6 20/13/6 18/14/6 22/7/6
f 113/15/7 114/16/7 116/17/7 115/18/7
f 115/18/8 116/17/8 118/19/8 117/13/8
f 117/13/9 118/19/9 120/20/9 119/21/9
f 119/21/10 120/20/10 122/22/10 121/23/10
f 121/23/11 122/22/11 124/24/11 123/25/11
f 123/25/12 124/24/12 126/9/12 125/5/12
f 125/5/13 126/9/13 128/26/13 127/27/13
f 127/27/14 128/26/14 130/28/14 129/29/14
f 129/29/15 130/28/15 132/30/15 131/31/15
f 131/31/16 132/30/16 134/10/16 133/6/16
f 133/6/17 134/10/17 136/32/17 135/33/17
f 135/33/18 136/32/18 138/34/18 137/35/18
f 137/35/19 138/34/19 140/36/19 139/37/19
f 139/37/20 140/36/20 142/38/20 141/11/20
f 116/39/4 114/40/4 144/41/4 142/42/4 140/43/4 138/80/4 136/45/4 134/46/4 132/47/4 130/81/4 128/49/4 126/50/4 124/51/4 122/52/4 120/53/4 118/54/4
f 141/11/21 142/38/21 144/55/21 143/56/21
f 143/56/22 144/55/22 114/57/22 113/58/22
f 113/59/2 115/60/2 117/61/2 119/62/2 121/63/2 123/64/2 125/65/2 127/66/2 129/82/2 131/68/2 133/69/2 135/70/2 137/71/2 139/72/2 141/73/2 143/74/2
usemtl Mat_PolymerBlack
f 25/1/1 26/2/1 28/3/1 27/4/1
f 27/4/2 28/3/2 32/5/2 31/6/2
f 31/6/3 32/5/3 30/7/3 29/8/3
f 29/8/4 30/7/4 26/9/4 25/10/4
f 27/11/5 31/6/5 29/8/5 25/12/5
f 32/5/6 28/13/6 26/14/6 30/7/6
f 73/1/1 74/2/1 76/3/1 75/4/1
f 75/4/2 76/3/2 80/5/2 79/6/2
f 79/6/3 80/5/3 78/7/3 77/8/3
f 77/8/4 78/7/4 74/9/4 73/10/4
f 75/11/5 79/6/5 77/8/5 73/12/5
f 80/5/6 76/13/6 74/14/6 78/7/6
f 145/1/1 146/2/1 148/3/1 147/4/1
f 147/4/2 148/3/2 152/5/2 151/6/2
f 151/6/3 152/5/3 150/7/3 149/8/3
f 149/8/4 150/7/4 146/9/4 145/10/4
f 147/11/5 151/6/5 149/8/5 145/12/5
f 152/5/6 148/13/6 146/14/6 150/7/6
f 153/1/1 154/2/1 156/3/1 155/4/1
f 155/4/2 156/3/2 160/5/2 159/6/2
f 159/6/3 160/5/3 158/7/3 157/8/3
f 157/8/4 158/7/4 154/9/4 153/10/4
f 155/11/5 159/6/5 157/8/5 153/12/5
f 160/5/6 156/13/6 154/14/6 158/7/6
f 193/1/1 194/2/1 196/3/1 195/4/1
f 195/4/2 196/3/2 200/5/2 199/6/2
f 199/6/3 200/5/3 198/7/3 197/8/3
f 197/8/4 198/7/4 194/9/4 193/10/4
f 195/11/5 199/6/5 197/8/5 193/12/5
f 200/5/6 196/13/6 194/14/6 198/7/6
usemtl Mat_RedDot
f 33/15/7 34/16/7 36/17/7 35/18/7
f 35/18/8 36/17/8 38/19/8 37/13/8
f 37/13/9 38/19/9 40/20/9 39/21/9
f 39/21/10 40/20/10 42/22/10 41/23/10
f 41/23/11 42/22/11 44/24/11 43/25/11
f 43/25/12 44/24/12 46/9/12 45/5/12
f 45/5/13 46/9/13 48/26/13 47/27/13
f 47/27/14 48/26/14 50/28/14 49/29/14
f 49/29/15 50/28/15 52/30/15 51/31/15
f 51/31/16 52/30/16 54/10/16 53/6/16
f 53/6/17 54/10/17 56/32/17 55/33/17
f 55/33/18 56/32/18 58/34/18 57/35/18
f 57/35/19 58/34/19 60/36/19 59/37/19
f 59/37/20 60/36/20 62/38/20 61/11/20
f 36/39/4 34/40/4 64/41/4 62/42/4 60/43/4 58/44/4 56/45/4 54/46/4 52/47/4 50/48/4 48/49/4 46/50/4 44/51/4 42/52/4 40/53/4 38/54/4
f 61/11/21 62/38/21 64/55/21 63/56/21
f 63/56/22 64/55/22 34/57/22 33/58/22
f 33/59/2 35/60/2 37/61/2 39/62/2 41/63/2 43/64/2 45/65/2 47/66/2 49/67/2 51/68/2 53/69/2 55/70/2 57/71/2 59/72/2 61/73/2 63/74/2
usemtl Mat_PolishedSteel
f 81/15/7 82/16/7 84/17/7 83/18/7
f 83/18/8 84/17/8 86/19/8 85/13/8
f 85/13/9 86/19/9 88/20/9 87/21/9
f 87/21/10 88/20/10 90/22/10 89/23/10
f 89/23/11 90/22/11 92/24/11 91/25/11
f 91/25/12 92/24/12 94/9/12 93/5/12
f 93/5/13 94/9/13 96/26/13 95/27/13
f 95/27/14 96/26/14 98/28/14 97/29/14
f 97/29/15 98/28/15 100/30/15 99/31/15
f 99/31/16 100/30/16 102/10/16 101/6/16
f 101/6/17 102/10/17 104/32/17 103/33/17
f 103/33/18 104/32/18 106/34/18 105/35/18
f 105/35/19 106/34/19 108/36/19 107/37/19
f 107/37/20 108/36/20 110/38/20 109/11/20
f 84/39/4 82/40/4 112/41/4 110/75/4 108/43/4 106/44/4 104/45/4 102/76/4 100/47/4 98/48/4 96/49/4 94/77/4 92/51/4 90/52/4 88/53/4 86/54/4
f 109/11/21 110/38/21 112/55/21 111/56/21
f 111/56/22 112/55/22 82/57/22 81/58/22
f 81/59/2 83/60/2 85/61/2 87/62/2 89/63/2 91/64/2 93/78/2 95/66/2 97/67/2 99/68/2 101/79/2 103/70/2 105/71/2 107/72/2 109/73/2 111/74/2
usemtl Mat_Rubber
f 201/1/1 202/2/1 204/3/1 203/4/1
f 203/4/2 204/3/2 208/5/2 207/6/2
f 207/6/3 208/5/3 206/7/3 205/8/3
f 205/8/4 206/7/4 202/9/4 201/10/4
f 203/11/5 207/6/5 205/8/5 201/12/5
f 208/5/6 204/13/6 202/14/6 206/7/6
