# Blender 4.0.2
# www.blender.org
mtllib mp5.mtl
o Weapon_MP5
v 0.000000 0.042000 -0.175000
v 0.000000 0.042000 0.105000
v 0.008419 0.040325 -0.175000
v 0.008419 0.040325 0.105000
v 0.015556 0.035556 -0.175000
v 0.015556 0.035556 0.105000
v 0.020325 0.028419 -0.175000
v 0.020325 0.028419 0.105000
v 0.022000 0.020000 -0.175000
v 0.022000 0.020000 0.105000
v 0.020325 0.011581 -0.175000
v 0.020325 0.011581 0.105000
v 0.015556 0.004444 -0.175000
v 0.015556 0.004444 0.105000
v 0.008419 -0.000325 -0.175000
v 0.008419 -0.000325 0.105000
v 0.000000 -0.002000 -0.175000
v 0.000000 -0.002000 0.105000
v -0.008419 -0.000325 -0.175000
v -0.008419 -0.000325 0.105000
v -0.015556 0.004444 -0.175000
v -0.015556 0.004444 0.105000
v -0.020325 0.011581 -0.175000
v -0.020325 0.011581 0.105000
v -0.022000 0.020000 -0.175000
v -0.022000 0.020000 0.105000
v -0.020325 0.028419 -0.175000
v -0.020325 0.028419 0.105000
v -0.015556 0.035556 -0.175000
v -0.015556 0.035556 0.105000
v -0.008419 0.040325 -0.175000
v -0.008419 0.040325 0.105000
v -0.018000 -0.040000 0.027500
v -0.018000 0.120000 0.027500
v -0.018000 -0.040000 -0.017500
v -0.018000 0.120000 -0.017500
v 0.018000 -0.040000 0.027500
v 0.018000 0.120000 0.027500
v 0.018000 -0.040000 -0.017500
v 0.018000 0.120000 -0.017500
v 0.000000 -0.266000 -0.070000
v 0.000000 -0.266000 -0.054000
v 0.005358 -0.267066 -0.070000
v 0.005358 -0.267066 -0.054000
v 0.009899 -0.270101 -0.070000
v 0.009899 -0.270101 -0.054000
v 0.012934 -0.274642 -0.070000
v 0.012934 -0.274642 -0.054000
v 0.014000 -0.280000 -0.070000
v 0.014000 -0.280000 -0.054000
v 0.012934 -0.285358 -0.070000
v 0.012934 -0.285358 -0.054000
v 0.009899 -0.289899 -0.070000
v 0.009899 -0.289899 -0.054000
v 0.005358 -0.292934 -0.070000
v 0.005358 -0.292934 -0.054000
v 0.000000 -0.294000 -0.070000
v 0.000000 -0.294000 -0.054000
v -0.005358 -0.292934 -0.070000
v -0.005358 -0.292934 -0.054000
v -0.009899 -0.289899 -0.070000
v -0.009899 -0.289899 -0.054000
v -0.012934 -0.285358 -0.070000
v -0.012934 -0.285358 -0.054000
v -0.014000 -0.280000 -0.070000
v -0.014000 -0.280000 -0.054000
v -0.012934 -0.274642 -0.070000
v -0.012934 -0.274642 -0.054000
v -0.009899 -0.270101 -0.070000
v -0.009899 -0.270101 -0.054000
v -0.005358 -0.267066 -0.070000
v -0.005358 -0.267066 -0.054000
v 0.000000 -0.286000 -0.064000
v 0.000000 -0.274000 -0.064000
v 0.000765 -0.286000 -0.063848
v 0.000765 -0.274000 -0.063848
v 0.001414 -0.286000 -0.063414
v 0.001414 -0.274000 -0.063414
v 0.001848 -0.286000 -0.062765
v 0.001848 -0.274000 -0.062765
v 0.002000 -0.286000 -0.062000
v 0.002000 -0.274000 -0.062000
v 0.001848 -0.286000 -0.061235
v 0.001848 -0.274000 -0.061235
v 0.001414 -0.286000 -0.060586
v 0.001414 -0.274000 -0.060586
v 0.000765 -0.286000 -0.060152
v 0.000765 -0.274000 -0.060152
v 0.000000 -0.286000 -0.060000
v 0.000000 -0.274000 -0.060000
v -0.000765 -0.286000 -0.060152
v -0.000765 -0.274000 -0.060152
v -0.001414 -0.286000 -0.060586
v -0.001414 -0.274000 -0.060586
v -0.001848 -0.286000 -0.061235
v -0.001848 -0.274000 -0.061235
v -0.002000 -0.286000 -0.062000
v -0.002000 -0.274000 -0.062000
v -0.001848 -0.286000 -0.062765
v -0.001848 -0.274000 -0.062765
v -0.001414 -0.286000 -0.063414
v -0.001414 -0.274000 -0.063414
v -0.000765 -0.286000 -0.063848
v -0.000765 -0.274000 -0.063848
v 0.000000 -0.250000 -0.135000
v 0.000000 -0.250000 0.065000
v 0.003827 -0.250761 -0.135000
v 0.003827 -0.250761 0.065000
v 0.007071 -0.252929 -0.135000
v 0.007071 -0.252929 0.065000
v 0.009239 -0.256173 -0.135000
v 0.009239 -0.256173 0.065000
v 0.010000 -0.260000 -0.135000
v 0.010000 -0.260000 0.065000
v 0.009239 -0.263827 -0.135000
v 0.009239 -0.263827 0.065000
v 0.007071 -0.267071 -0.135000
v 0.007071 -0.267071 0.065000
v 0.003827 -0.269239 -0.135000
v 0.003827 -0.269239 0.065000
v 0.000000 -0.270000 -0.135000
v 0.000000 -0.270000 0.065000
v -0.003827 -0.269239 -0.135000
v -0.003827 -0.269239 0.065000
v -0.007071 -0.267071 -0.135000
v -0.007071 -0.267071 0.065000
v -0.009239 -0.263827 -0.135000
v -0.009239 -0.263827 0.065000
v -0.010000 -0.260000 -0.135000
v -0.010000 -0.260000 0.065000
v -0.009239 -0.256173 -0.135000
v -0.009239 -0.256173 0.065000
v -0.007071 -0.252929 -0.135000
v -0.007071 -0.252929 0.065000
v -0.003827 -0.250761 -0.135000
v -0.003827 -0.250761 0.065000
v 0.000000 -0.328000 -0.055000
v 0.000000 -0.328000 -0.015000
v 0.004592 -0.328913 -0.055000
v 0.004592 -0.328913 -0.015000
v 0.008485 -0.331515 -0.055000
v 0.008485 -0.331515 -0.015000
v 0.011087 -0.335408 -0.055000
v 0.011087 -0.335408 -0.015000
v 0.012000 -0.340000 -0.055000
v 0.012000 -0.340000 -0.015000
v 0.011087 -0.344592 -0.055000
v 0.011087 -0.344592 -0.015000
v 0.008485 -0.348485 -0.055000
v 0.008485 -0.348485 -0.015000
v 0.004592 -0.351087 -0.055000
v 0.004592 -0.351087 -0.015000
v 0.000000 -0.352000 -0.055000
v 0.000000 -0.352000 -0.015000
v -0.004592 -0.351087 -0.055000
v -0.004592 -0.351087 -0.015000
v -0.008485 -0.348485 -0.055000
v -0.008485 -0.348485 -0.015000
v -0.011087 -0.344592 -0.055000
v -0.011087 -0.344592 -0.015000
v -0.012000 -0.340000 -0.055000
v -0.012000 -0.340000 -0.015000
v -0.011087 -0.335408 -0.055000
v -0.011087 -0.335408 -0.015000
v -0.008485 -0.331515 -0.055000
v -0.008485 -0.331515 -0.015000
v -0.004592 -0.328913 -0.055000
v -0.004592 -0.328913 -0.015000
v -0.022000 -0.240000 0.000000
v -0.022000 -0.080000 0.000000
v -0.022000 -0.240000 -0.048000
v -0.022000 -0.080000 -0.048000
v 0.022000 -0.240000 0.000000
v 0.022000 -0.080000 0.000000
v 0.022000 -0.240000 -0.048000
v 0.022000 -0.080000 -0.048000
v -0.012000 -0.064000 0.170000
v -0.012000 -0.016000 0.170000
v -0.012000 -0.064000 0.010000
v -0.012000 -0.016000 0.010000
v 0.012000 -0.064000 0.170000
v 0.012000 -0.016000 0.170000
v 0.012000 -0.064000 0.010000
v 0.012000 -0.016000 0.010000
v -0.015000 0.058000 0.120000
v -0.015000 0.102000 0.120000
v -0.015000 0.058000 0.010000
v -0.015000 0.102000 0.010000
v 0.015000 0.058000 0.120000
v 0.015000 0.102000 0.120000
v 0.015000 0.058000 0.010000
v 0.015000 0.102000 0.010000
v -0.023000 0.070000 -0.030000
v -0.023000 0.250000 -0.030000
v -0.023000 0.070000 -0.040000
v -0.023000 0.250000 -0.040000
v -0.017000 0.070000 -0.030000
v -0.017000 0.250000 -0.030000
v -0.017000 0.070000 -0.040000
v -0.017000 0.250000 -0.040000
v 0.017000 0.070000 -0.030000
v 0.017000 0.250000 -0.030000
v 0.017000 0.070000 -0.040000
v 0.017000 0.250000 -0.040000
v 0.023000 0.070000 -0.030000
v 0.023000 0.250000 -0.030000
v 0.023000 0.070000 -0.040000
v 0.023000 0.250000 -0.040000
v -0.022000 0.241000 0.012500
v -0.022000 0.259000 0.012500
v -0.022000 0.241000 -0.082500
v -0.022000 0.259000 -0.082500
v 0.022000 0.241000 0.012500
v 0.022000 0.259000 0.012500
v 0.022000 0.241000 -0.082500
v 0.022000 0.259000 -0.082500
vn 0.1951 0.9808 -0.0000
vn 0.5556 0.8315 -0.0000
vn 0.8315 0.5556 -0.0000
vn 0.9808 0.1951 -0.0000
vn 0.9808 -0.1951 -0.0000
vn 0.8315 -0.5556 -0.0000
vn 0.5556 -0.8315 -0.0000
vn 0.1951 -0.9808 -0.0000
vn -0.1951 -0.9808 -0.0000
vn -0.5556 -0.8315 -0.0000
vn -0.8315 -0.5556 -0.0000
vn -0.9808 -0.1951 -0.0000
vn -0.9808 0.1951 -0.0000
vn -0.8315 0.5556 -0.0000
vn -0.0000 -0.0000 1.0000
vn -0.5556 0.8315 -0.0000
vn -0.1951 0.9808 -0.0000
vn -0.0000 -0.0000 -1.0000
vn -1.0000 -0.0000 -0.0000
vn 1.0000 -0.0000 -0.0000
vn -0.0000 -1.0000 -0.0000
vn -0.0000 1.0000 -0.0000
vn 0.1951 -0.0000 -0.9808
vn 0.5556 -0.0000 -0.8315
vn 0.8315 -0.0000 -0.5556
vn 0.9808 -0.0000 -0.1951
vn 0.9808 -0.0000 0.1951
vn 0.8315 -0.0000 0.5556
vn 0.5556 -0.0000 0.8315
vn 0.1951 -0.0000 0.9808
vn -0.1951 -0.0000 0.9808
vn -0.5556 -0.0000 0.8315
vn -0.8315 -0.0000 0.5556
vn -0.9808 -0.0000 0.1951
vn -0.9808 -0.0000 -0.1951
vn -0.8315 -0.0000 -0.5556
vn -0.5556 -0.0000 -0.8315
vn -0.1951 -0.0000 -0.9808
vt 1.000000 0.500000
vt 1.000000 1.000000
vt 0.937500 1.000000
vt 0.937500 0.500000
vt 0.875000 1.000000
vt 0.875000 0.500000
vt 0.812500 1.000000
vt 0.812500 0.500000
vt 0.750000 1.000000
vt 0.750000 0.500000
vt 0.687500 1.000000
vt 0.687500 0.500000
vt 0.625000 1.000000
vt 0.625000 0.500000
vt 0.562500 1.000000
vt 0.562500 0.500000
vt 0.500000 1.000000
vt 0.500000 0.500000
vt 0.437500 1.000000
vt 0.437500 0.500000
vt 0.375000 1.000000
vt 0.375000 0.500000
vt 0.312500 1.000000
vt 0.312500 0.500000
vt 0.250000 1.000000
vt 0.250000 0.500000
vt 0.187500 1.000000
vt 0.187500 0.500000
vt 0.125000 1.000000
vt 0.125000 0.500000
vt 0.341844 0.471731
vt 0.250000 0.490000
vt 0.158156 0.471731
vt 0.080294 0.419706
vt 0.028269 0.341844
vt 0.010000 0.250000
vt 0.028269 0.158156
vt 0.080294 0.080294
vt 0.158156 0.028269
vt 0.250000 0.010000
vt 0.341844 0.028269
vt 0.419706 0.080294
vt 0.471731 0.158156
vt 0.490000 0.250000
vt 0.471731 0.341844
vt 0.419706 0.419706
vt 0.062500 1.000000
vt 0.062500 0.500000
vt 0.000000 1.000000
vt 0.000000 0.500000
vt 0.750000 0.490000
vt 0.841844 0.471731
vt 0.919706 0.419706
vt 0.971731 0.341844
vt 0.990000 0.250000
vt 0.971731 0.158156
vt 0.919706 0.080294
vt 0.841844 0.028269
vt 0.750000 0.010000
vt 0.658156 0.028269
vt 0.580294 0.080294
vt 0.528269 0.158156
vt 0.510000 0.250000
vt 0.528269 0.341844
vt 0.580294 0.419706
vt 0.658156 0.471731
vt 0.375000 0.000000
vt 0.625000 0.000000
vt 0.625000 0.250000
vt 0.375000 0.250000
vt 0.625000 0.750000
vt 0.375000 0.750000
vt 0.125000 0.750000
vt 0.875000 0.750000
vt 0.080294 0.419706
vt 0.080294 0.080294
vt 0.419706 0.080294
vt 0.919706 0.080294
vt 0.580294 0.080294
vt 0.028269 0.341844
vt 0.028269 0.158156
vt 0.158156 0.028269
vt 0.341844 0.028269
vt 0.841844 0.028269
vt 0.658156 0.028269
vt 0.158156 0.471731
vt 0.010000 0.250000
vt 0.028269 0.158156
vt 0.158156 0.028269
vt 0.250000 0.010000
vt 0.471731 0.158156
vt 0.971731 0.158156
vt 0.750000 0.010000
vt 0.528269 0.158156
s 0
usemtl Mat_DarkMetal
f 1/1/1 2/2/1 4/3/1 3/4/1
f 3/4/2 4/3/2 6/5/2 5/6/2
f 5/6/3 6/5/3 8/7/3 7/8/3
f 7/8/4 8/7/4 10/9/4 9/10/4
f 9/10/5 10/9/5 12/11/5 11/12/5
f 11/12/6 12/11/6 14/13/6 13/14/6
f 13/14/7 14/13/7 16/15/7 15/16/7
f 15/16/8 16/15/8 18/17/8 17/18/8
f 17/18/9 18/17/9 20/19/9 19/20/9
f 19/20/10 20/19/10 22/21/10 21/22/10
f 21/22/11 22/21/11 24/23/11 23/24/11
f 23/24/12 24/23/12 26/25/12 25/26/12
f 25/26/13 26/25/13 28/27/13 27/28/13
f 27/28/14 28/27/14 30/29/14 29/30/14
f 4/31/15 2/32/15 32/33/15 30/34/15 28/35/15 26/36/15 24/37/15 22/38/15 20/39/15 18/40/15 16/41/15 14/42/15 12/43/15 10/44/15 8/45/15 6/46/15
f 29/30/16 30/29/16 32/47/16 31/48/16
f 31/48/17 32/47/17 2/49/17 1/50/17
f 1/51/18 3/52/18 5/53/18 7/54/18 9/55/18 11/56/18 13/57/18 15/58/18 17/59/18 19/60/18 21/61/18 23/62/18 25/63/18 27/64/18 29/65/18 31/66/18
f 41/1/1 42/2/1 44/3/1 43/4/1
f 43/4/2 44/3/2 46/5/2 45/6/2
f 45/6/3 46/5/3 48/7/3 47/8/3
f 47/8/4 48/7/4 50/9/4 49/10/4
f 49/10/5 50/9/5 52/11/5 51/12/5
f 51/12/6 52/11/6 54/13/6 53/14/6
f 53/14/7 54/13/7 56/15/7 55/16/7
f 55/16/8 56/15/8 58/17/8 57/18/8
f 57/18/9 58/17/9 60/19/9 59/20/9
f 59/20/10 60/19/10 62/21/10 61/22/10
f 61/22/11 62/21/11 64/23/11 63/24/11
f 63/24/12 64/23/12 66/25/12 65/26/12
f 65/26/13 66/25/13 68/27/13 67/28/13
f 67/28/14 68/27/14 70/29/14 69/30/14
f 44/31/15 42/32/15 72/33/15 70/75/15 68/35/15 66/36/15 64/37/15 62/76/15 60/39/15 58/40/15 56/41/15 54/77/15 52/43/15 50/44/15 48/45/15 46/46/15
f 69/30/16 70/29/16 72/47/16 71/48/16
f 71/48/17 72/47/17 42/49/17 41/50/17
f 41/51/18 43/52/18 45/53/18 47/54/18 49/55/18 51/56/18 53/78/18 55/58/18 57/59/18 59/60/18 61/79/18 63/62/18 65/63/18 67/64/18 69/65/18 71/66/18
f 137/1/1 138/2/1 140/3/1 139/4/1
f 139/4/2 140/3/2 142/5/2 141/6/2
f 141/6/3 142/5/3 144/7/3 143/8/3
f 143/8/4 144/7/4 146/9/4 145/10/4
f 145/10/5 146/9/5 148/11/5 147/12/5
f 147/12/6 148/11/6 150/13/6 149/14/6
f 149/14/7 150/13/7 152/15/7 151/16/7
f 151/16/8 152/15/8 154/17/8 153/18/8
f 153/18/9 154/17/9 156/19/9 155/20/9
f 155/20/10 156/19/10 158/21/10 157/22/10
f 157/22/11 158/21/11 160/23/11 159/24/11
f 159/24/12 160/23/12 162/25/12 161/26/12
f 161/26/13 162/25/13 164/27/13 163/28/13
f 163/28/14 164/27/14 166/29/14 165/30/14
f 140/31/15 138/32/15 168/86/15 166/34/15 164/35/15 162/87/15 160/88/15 158/38/15 156/89/15 154/90/15 152/41/15 150/42/15 148/91/15 146/44/15 144/45/15 142/46/15
f 165/30/16 166/29/16 168/47/16 167/48/16
f 167/48/17 168/47/17 138/49/17 137/50/17
f 137/51/18 139/52/18 141/53/18 143/54/18 145/55/18 147/92/18 149/57/18 151/58/18 153/93/18 155/60/18 157/61/18 159/94/18 161/63/18 163/64/18 165/65/18 167/66/18
usemtl Mat_PolymerBlack
f 33/67/19 34/68/19 36/69/19 35/70/19
f 35/70/18 36/69/18 40/14/18 39/22/18
f 39/22/20 40/14/20 38/71/20 37/72/20
f 37/72/15 38/71/15 34/13/15 33/21/15
f 35/30/21 39/22/21 37/72/21 33/73/21
f 40/14/22 36/6/22 34/74/22 38/71/22
f 169/67/19 170/68/19 172/69/19 171/70/19
f 171/70/18 172/69/18 176/14/18 175/22/18
f 175/22/20 176/14/20 174/71/20 173/72/20
f 173/72/15 174/71/15 170/13/15 169/21/15
f 171/30/21 175/22/21 173/72/21 169/73/21
f 176/14/22 172/6/22 170/74/22 174/71/22
f 185/67/19 186/68/19 188/69/19 187/70/19
f 187/70/18 188/69/18 192/14/18 191/22/18
f 191/22/20 192/14/20 190/71/20 189/72/20
f 189/72/15 190/71/15 186/13/15 185/21/15
f 187/30/21 191/22/21 189/72/21 185/73/21
f 192/14/22 188/6/22 186/74/22 190/71/22
usemtl Mat_Tritium
f 73/1/23 74/2/23 76/3/23 75/4/23
f 75/4/24 76/3/24 78/5/24 77/6/24
f 77/6/25 78/5/25 80/7/25 79/8/25
f 79/8/26 80/7/26 82/9/26 81/10/26
f 81/10/27 82/9/27 84/11/27 83/12/27
f 83/12/28 84/11/28 86/13/28 85/14/28
f 85/14/29 86/13/29 88/15/29 87/16/29
f 87/16/30 88/15/30 90/17/30 89/18/30
f 89/18/31 90/17/31 92/19/31 91/20/31
f 91/20/32 92/19/32 94/21/32 93/22/32
f 93/22/33 94/21/33 96/23/33 95/24/33
f 95/24/34 96/23/34 98/25/34 97/26/34
f 97/26/35 98/25/35 100/27/35 99/28/35
f 99/28/36 100/27/36 102/29/36 101/30/36
f 76/31/22 74/32/22 104/33/22 102/34/22 100/35/22 98/36/22 96/37/22 94/38/22 92/39/22 90/40/22 88/41/22 86/42/22 84/43/22 82/44/22 80/45/22 78/46/22
f 101/30/37 102/29/37 104/47/37 103/48/37
f 103/48/38 104/47/38 74/49/38 73/50/38
f 73/51/21 75/52/21 77/53/21 79/54/21 81/55/21 83/56/21 85/57/21 87/58/21 89/59/21 91/60/21 93/61/21 95/62/21 97/63/21 99/64/21 101/65/21 103/66/21
usemtl Mat_Steel
f 105/1/1 106/2/1 108/3/1 107/4/1
f 107/4/2 108/3/2 110/5/2 109/6/2
f 109/6/3 110/5/3 112/7/3 111/8/3
f 111/8/4 112/7/4 114/9/4 113/10/4
f 113/10/5 114/9/5 116/11/5 115/12/5
f 115/12/6 116/11/6 118/13/6 117/14/6
f 117/14/7 118/13/7 120/15/7 119/16/7
f 119/16/8 120/15/8 122/17/8 121/18/8
f 121/18/9 122/17/9 124/19/9 123/20/9
f 123/20/10 124/19/10 126/21/10 125/22/10
f 125/22/11 126/21/11 128/23/11 127/24/11
f 127/24/12 128/23/12 130/25/12 129/26/12
f 129/26/13 130/25/13 132/27/13 131/28/13
f 131/28/14 132/27/14 134/29/14 133/30/14
f 108/31/15 106/32/15 136/33/15 134/75/15 132/80/15 130/36/15 128/81/15 126/76/15 124/82/15 122/40/15 120/83/15 118/77/15 116/43/15 114/44/15 112/45/15 110/46/15
f 133/30/16 134/29/16 136/47/16 135/48/16
f 135/48/17 136/47/17 106/49/17 105/50/17
f 105/51/18 107/52/18 109/53/18 111/54/18 113/55/18 115/56/18 117/78/18 119/84/18 121/59/18 123/85/18 125/79/18 127/62/18 129/63/18 131/64/18 133/65/18 135/66/18
f 177/67/19 178/68/19 180/69/19 179/70/19
f 179/70/18 180/69/18 184/14/18 183/22/18
f 183/22/20 184/14/20 182/71/20 181/72/20
f 181/72/15 182/71/15 178/13/15 177/21/15
f 179/30/21 183/22/21 181/72/21 177/73/21
f 184/14/22 180/6/22 178/74/22 182/71/22
f 193/67/19 194/68/19 196/69/19 195/70/19
f 195/70/18 196/69/18 200/14/18 199/22/18
f 199/22/20 200/14/20 198/71/20 197/72/20
f 197/72/15 198/71/15 194/13/15 193/21/15
f 195/30/21 199/22/21 197/72/21 193/73/21
f 200/14/22 196/6/22 194/74/22 198/71/22
f 201/67/19 202/68/19 204/69/19 203/70/19
f 203/70/18 204/69/18 208/14/18 207/22/18
f 207/22/20 208/14/20 206/71/20 205/72/20
f 205/72/15 206/71/15 202/13/15 201/21/15
f 203/30/21 207/22/21 205/72/21 201/73/21
f 208/14/22 204/6/22 202/74/22 206/71/22
usemtl Mat_Rubber
f 209/67/19 210/68/19 212/69/19 211/70/19
f 211/70/18 212/69/18 216/14/18 215/22/18
f 215/22/20 216/14/20 214/71/20 213/72/20
f 213/72/15 214/71/15 210/13/15 209/21/15
f 211/30/21 215/22/21 213/72/21 209/73/21
f 216/14/22 212/6/22 210/74/22 214/71/22
