# Blender 4.0.2
# www.blender.org
mtllib pistol.mtl
o Pistol_USP45
v -0.017000 -0.160000 -0.002000
v -0.017000 0.060000 -0.002000
v -0.017000 -0.160000 -0.042000
v -0.017000 0.060000 -0.042000
v 0.017000 -0.160000 -0.002000
v 0.017000 0.060000 -0.002000
v 0.017000 -0.160000 -0.042000
v 0.017000 0.060000 -0.042000
v -0.020000 -0.010000 -0.006000
v -0.020000 0.040000 -0.006000
v -0.020000 -0.010000 -0.038000
v -0.020000 0.040000 -0.038000
v -0.016000 -0.010000 -0.006000
v -0.016000 0.040000 -0.006000
v -0.016000 -0.010000 -0.038000
v -0.016000 0.040000 -0.038000
v 0.016000 -0.010000 -0.006000
v 0.016000 0.040000 -0.006000
v 0.016000 -0.010000 -0.038000
v 0.016000 0.040000 -0.038000
v 0.020000 -0.010000 -0.006000
v 0.020000 0.040000 -0.006000
v 0.020000 -0.010000 -0.038000
v 0.020000 0.040000 -0.038000
v -0.020000 -0.130000 -0.007000
v -0.020000 -0.090000 -0.007000
v -0.020000 -0.130000 -0.037000
v -0.020000 -0.090000 -0.037000
v -0.016000 -0.130000 -0.007000
v -0.016000 -0.090000 -0.007000
v -0.016000 -0.130000 -0.037000
v -0.016000 -0.090000 -0.037000
v 0.016000 -0.130000 -0.007000
v 0.016000 -0.090000 -0.007000
v 0.016000 -0.130000 -0.037000
v 0.016000 -0.090000 -0.037000
v 0.020000 -0.130000 -0.007000
v 0.020000 -0.090000 -0.007000
v 0.020000 -0.130000 -0.037000
v 0.020000 -0.090000 -0.037000
v 0.005500 -0.064000 -0.015500
v 0.005500 -0.016000 -0.015500
v 0.005500 -0.064000 -0.040500
v 0.005500 -0.016000 -0.040500
v 0.020500 -0.064000 -0.015500
v 0.020500 -0.016000 -0.015500
v 0.020500 -0.064000 -0.040500
v 0.020500 -0.016000 -0.040500
v 0.000000 -0.161000 -0.052000
v 0.000000 -0.161000 0.008000
v 0.003444 -0.161685 -0.052000
v 0.003444 -0.161685 0.008000
v 0.006364 -0.163636 -0.052000
v 0.006364 -0.163636 0.008000
v 0.008315 -0.166556 -0.052000
v 0.008315 -0.166556 0.008000
v 0.009000 -0.170000 -0.052000
v 0.009000 -0.170000 0.008000
v 0.008315 -0.173444 -0.052000
v 0.008315 -0.173444 0.008000
v 0.006364 -0.176364 -0.052000
v 0.006364 -0.176364 0.008000
v 0.003444 -0.178315 -0.052000
v 0.003444 -0.178315 0.008000
v 0.000000 -0.179000 -0.052000
v 0.000000 -0.179000 0.008000
v -0.003444 -0.178315 -0.052000
v -0.003444 -0.178315 0.008000
v -0.006364 -0.176364 -0.052000
v -0.006364 -0.176364 0.008000
v -0.008315 -0.173444 -0.052000
v -0.008315 -0.173444 0.008000
v -0.009000 -0.170000 -0.052000
v -0.009000 -0.170000 0.008000
v -0.008315 -0.166556 -0.052000
v -0.008315 -0.166556 0.008000
v -0.006364 -0.163636 -0.052000
v -0.006364 -0.163636 0.008000
v -0.003444 -0.161685 -0.052000
v -0.003444 -0.161685 0.008000
v 0.000000 -0.155000 -0.028500
v 0.000000 -0.155000 0.016500
v 0.001913 -0.155381 -0.028500
v 0.001913 -0.155381 0.016500
v 0.003536 -0.156464 -0.028500
v 0.003536 -0.156464 0.016500
v 0.004619 -0.158087 -0.028500
v 0.004619 -0.158087 0.016500
v 0.005000 -0.160000 -0.028500
v 0.005000 -0.160000 0.016500
v 0.004619 -0.161913 -0.028500
v 0.004619 -0.161913 0.016500
v 0.003536 -0.163536 -0.028500
v 0.003536 -0.163536 0.016500
v 0.001913 -0.164619 -0.028500
v 0.001913 -0.164619 0.016500
v 0.000000 -0.165000 -0.028500
v 0.000000 -0.165000 0.016500
v -0.001913 -0.164619 -0.028500
v -0.001913 -0.164619 0.016500
v -0.003536 -0.163536 -0.028500
v -0.003536 -0.163536 0.016500
v -0.004619 -0.161913 -0.028500
v -0.004619 -0.161913 0.016500
v -0.005000 -0.160000 -0.028500
v -0.005000 -0.160000 0.016500
v -0.004619 -0.158087 -0.028500
v -0.004619 -0.158087 0.016500
v -0.003536 -0.156464 -0.028500
v -0.003536 -0.156464 0.016500
v -0.001913 -0.155381 -0.028500
v -0.001913 -0.155381 0.016500
v -0.003500 -0.148000 -0.039000
v -0.003500 -0.132000 -0.039000
v -0.003500 -0.148000 -0.051000
v -0.003500 -0.132000 -0.051000
v 0.003500 -0.148000 -0.039000
v 0.003500 -0.132000 -0.039000
v 0.003500 -0.148000 -0.051000
v 0.003500 -0.132000 -0.051000
v 0.000000 -0.129102 -0.045776
v 0.000000 -0.129402 -0.046500
v 0.000000 -0.130500 -0.047598
v 0.000000 -0.131224 -0.047898
v 0.000000 -0.132000 -0.048000
v 0.000000 -0.132776 -0.047898
v 0.000000 -0.133500 -0.047598
v 0.000000 -0.134598 -0.046500
v 0.000000 -0.134898 -0.045776
v 0.000297 -0.129102 -0.045717
v 0.000574 -0.129402 -0.046386
v 0.000812 -0.129879 -0.046960
v 0.000994 -0.130500 -0.047400
v 0.001109 -0.131224 -0.047677
v 0.001148 -0.132000 -0.047772
v 0.001109 -0.132776 -0.047677
v 0.000994 -0.133500 -0.047400
v 0.000812 -0.134121 -0.046960
v 0.000574 -0.134598 -0.046386
v 0.000297 -0.134898 -0.045717
v 0.000000 -0.129000 -0.045000
v 0.000549 -0.129102 -0.045549
v 0.001061 -0.129402 -0.046061
v 0.001500 -0.129879 -0.046500
v 0.001837 -0.130500 -0.046837
v 0.002049 -0.131224 -0.047049
v 0.002121 -0.132000 -0.047121
v 0.002049 -0.132776 -0.047049
v 0.001837 -0.133500 -0.046837
v 0.001500 -0.134121 -0.046500
v 0.001061 -0.134598 -0.046061
v 0.000549 -0.134898 -0.045549
v 0.000717 -0.129102 -0.045297
v 0.001386 -0.129402 -0.045574
v 0.001960 -0.129879 -0.045812
v 0.002400 -0.130500 -0.045994
v 0.002677 -0.131224 -0.046109
v 0.002772 -0.132000 -0.046148
v 0.002677 -0.132776 -0.046109
v 0.002400 -0.133500 -0.045994
v 0.001960 -0.134121 -0.045812
v 0.001386 -0.134598 -0.045574
v 0.000717 -0.134898 -0.045297
v 0.000776 -0.129102 -0.045000
v 0.001500 -0.129402 -0.045000
v 0.002121 -0.129879 -0.045000
v 0.002598 -0.130500 -0.045000
v 0.002898 -0.131224 -0.045000
v 0.003000 -0.132000 -0.045000
v 0.002898 -0.132776 -0.045000
v 0.002598 -0.133500 -0.045000
v 0.002121 -0.134121 -0.045000
v 0.001500 -0.134598 -0.045000
v 0.000776 -0.134898 -0.045000
v 0.000717 -0.129102 -0.044703
v 0.001386 -0.129402 -0.044426
v 0.001960 -0.129879 -0.044188
v 0.002400 -0.130500 -0.044006
v 0.002677 -0.131224 -0.043891
v 0.002772 -0.132000 -0.043852
v 0.002677 -0.132776 -0.043891
v 0.002400 -0.133500 -0.044006
v 0.001960 -0.134121 -0.044188
v 0.001386 -0.134598 -0.044426
v 0.000717 -0.134898 -0.044703
v 0.000549 -0.129102 -0.044451
v 0.001061 -0.129402 -0.043939
v 0.001500 -0.129879 -0.043500
v 0.001837 -0.130500 -0.043163
v 0.002049 -0.131224 -0.042951
v 0.002121 -0.132000 -0.042879
v 0.002049 -0.132776 -0.042951
v 0.001837 -0.133500 -0.043163
v 0.001500 -0.134121 -0.043500
v 0.001061 -0.134598 -0.043939
v 0.000549 -0.134898 -0.044451
v 0.000297 -0.129102 -0.044283
v 0.000574 -0.129402 -0.043614
v 0.000812 -0.129879 -0.043040
v 0.000994 -0.130500 -0.042600
v 0.001109 -0.131224 -0.042323
v 0.001148 -0.132000 -0.042228
v 0.001109 -0.132776 -0.042323
v 0.000994 -0.133500 -0.042600
v 0.000812 -0.134121 -0.043040
v 0.000574 -0.134598 -0.043614
v 0.000297 -0.134898 -0.044283
v -0.000000 -0.129102 -0.044224
v -0.000000 -0.129402 -0.043500
v -0.000000 -0.129879 -0.042879
v -0.000000 -0.130500 -0.042402
v -0.000000 -0.131224 -0.042102
v -0.000000 -0.132000 -0.042000
v -0.000000 -0.132776 -0.042102
v -0.000000 -0.133500 -0.042402
v -0.000000 -0.134121 -0.042879
v -0.000000 -0.134598 -0.043500
v -0.000000 -0.134898 -0.044224
v -0.000297 -0.129102 -0.044283
v -0.000574 -0.129402 -0.043614
v -0.000812 -0.129879 -0.043040
v -0.000994 -0.130500 -0.042600
v -0.001109 -0.131224 -0.042323
v -0.001148 -0.132000 -0.042228
v -0.001109 -0.132776 -0.042323
v -0.000994 -0.133500 -0.042600
v -0.000812 -0.134121 -0.043040
v -0.000574 -0.134598 -0.043614
v -0.000297 -0.134898 -0.044283
v 0.000000 -0.135000 -0.045000
v -0.000549 -0.129102 -0.044451
v -0.001061 -0.129402 -0.043939
v -0.001500 -0.129879 -0.043500
v -0.001837 -0.130500 -0.043163
v -0.002049 -0.131224 -0.042951
v -0.002121 -0.132000 -0.042879
v -0.002049 -0.132776 -0.042951
v -0.001837 -0.133500 -0.043163
v -0.001500 -0.134121 -0.043500
v -0.001061 -0.134598 -0.043939
v -0.000549 -0.134898 -0.044451
v -0.000717 -0.129102 -0.044703
v -0.001386 -0.129402 -0.044426
v -0.001960 -0.129879 -0.044188
v -0.002400 -0.130500 -0.044006
v -0.002677 -0.131224 -0.043891
v -0.002772 -0.132000 -0.043852
v -0.002677 -0.132776 -0.043891
v -0.002400 -0.133500 -0.044006
v -0.001960 -0.134121 -0.044188
v -0.001386 -0.134598 -0.044426
v -0.000717 -0.134898 -0.044703
v -0.000776 -0.129102 -0.045000
v -0.001500 -0.129402 -0.045000
v -0.002121 -0.129879 -0.045000
v -0.002598 -0.130500 -0.045000
v -0.002898 -0.131224 -0.045000
v -0.003000 -0.132000 -0.045000
v -0.002898 -0.132776 -0.045000
v -0.002598 -0.133500 -0.045000
v -0.002121 -0.134121 -0.045000
v -0.001500 -0.134598 -0.045000
v -0.000776 -0.134898 -0.045000
v -0.000717 -0.129102 -0.045297
v -0.001386 -0.129402 -0.045574
v -0.001960 -0.129879 -0.045812
v -0.002400 -0.130500 -0.045994
v -0.002677 -0.131224 -0.046109
v -0.002772 -0.132000 -0.046148
v -0.002677 -0.132776 -0.046109
v -0.002400 -0.133500 -0.045994
v -0.001960 -0.134121 -0.045812
v -0.001386 -0.134598 -0.045574
v -0.000717 -0.134898 -0.045297
v -0.000549 -0.129102 -0.045549
v -0.001061 -0.129402 -0.046061
v -0.001500 -0.129879 -0.046500
v -0.001837 -0.130500 -0.046837
v -0.002049 -0.131224 -0.047049
v -0.002121 -0.132000 -0.047121
v -0.002049 -0.132776 -0.047049
v -0.001837 -0.133500 -0.046837
v -0.001500 -0.134121 -0.046500
v -0.001061 -0.134598 -0.046061
v -0.000549 -0.134898 -0.045549
v -0.000297 -0.129102 -0.045717
v -0.000574 -0.129402 -0.046386
v -0.000812 -0.129879 -0.046960
v -0.000994 -0.130500 -0.047400
v -0.001109 -0.131224 -0.047677
v -0.001148 -0.132000 -0.047772
v -0.001109 -0.132776 -0.047677
v -0.000994 -0.133500 -0.047400
v -0.000812 -0.134121 -0.046960
v -0.000574 -0.134598 -0.046386
v -0.000297 -0.134898 -0.045717
v 0.000000 -0.129879 -0.047121
v 0.000000 -0.134121 -0.047121
v -0.008000 0.031000 -0.039000
v -0.008000 0.045000 -0.039000
v -0.008000 0.031000 -0.051000
v -0.008000 0.045000 -0.051000
v 0.008000 0.031000 -0.039000
v 0.008000 0.045000 -0.039000
v 0.008000 0.031000 -0.051000
v 0.008000 0.045000 -0.051000
v -0.005000 0.043415 -0.045647
v -0.005000 0.043165 -0.046250
v -0.005000 0.042250 -0.047165
v -0.005000 0.041647 -0.047415
v -0.005000 0.041000 -0.047500
v -0.005000 0.039750 -0.047165
v -0.005000 0.038835 -0.046250
v -0.005000 0.038585 -0.045647
v -0.004752 0.043415 -0.045598
v -0.004522 0.043165 -0.046155
v -0.004324 0.042768 -0.046633
v -0.004171 0.042250 -0.047000
v -0.004076 0.041647 -0.047231
v -0.004043 0.041000 -0.047310
v -0.004076 0.040353 -0.047231
v -0.004171 0.039750 -0.047000
v -0.004324 0.039232 -0.046633
v -0.004522 0.038835 -0.046155
v -0.004752 0.038585 -0.045598
v -0.005000 0.043500 -0.045000
v -0.004542 0.043415 -0.045458
v -0.004116 0.043165 -0.045884
v -0.003750 0.042768 -0.046250
v -0.003469 0.042250 -0.046531
v -0.003292 0.041647 -0.046708
v -0.003232 0.041000 -0.046768
v -0.003292 0.040353 -0.046708
v -0.003469 0.039750 -0.046531
v -0.003750 0.039232 -0.046250
v -0.004116 0.038835 -0.045884
v -0.004542 0.038585 -0.045458
v -0.004402 0.043415 -0.045248
v -0.003845 0.043165 -0.045478
v -0.003367 0.042768 -0.045676
v -0.003000 0.042250 -0.045829
v -0.002769 0.041647 -0.045924
v -0.002690 0.041000 -0.045957
v -0.002769 0.040353 -0.045924
v -0.003000 0.039750 -0.045829
v -0.003367 0.039232 -0.045676
v -0.003845 0.038835 -0.045478
v -0.004402 0.038585 -0.045248
v -0.004353 0.043415 -0.045000
v -0.003750 0.043165 -0.045000
v -0.003232 0.042768 -0.045000
v -0.002835 0.042250 -0.045000
v -0.002585 0.041647 -0.045000
v -0.002500 0.041000 -0.045000
v -0.002585 0.040353 -0.045000
v -0.002835 0.039750 -0.045000
v -0.003232 0.039232 -0.045000
v -0.003750 0.038835 -0.045000
v -0.004353 0.038585 -0.045000
v -0.004402 0.043415 -0.044752
v -0.003845 0.043165 -0.044522
v -0.003367 0.042768 -0.044324
v -0.003000 0.042250 -0.044171
v -0.002769 0.041647 -0.044076
v -0.002690 0.041000 -0.044043
v -0.002769 0.040353 -0.044076
v -0.003000 0.039750 -0.044171
v -0.003367 0.039232 -0.044324
v -0.003845 0.038835 -0.044522
v -0.004402 0.038585 -0.044752
v -0.004542 0.043415 -0.044542
v -0.004116 0.043165 -0.044116
v -0.003750 0.042768 -0.043750
v -0.003469 0.042250 -0.043469
v -0.003292 0.041647 -0.043292
v -0.003232 0.041000 -0.043232
v -0.003292 0.040353 -0.043292
v -0.003469 0.039750 -0.043469
v -0.003750 0.039232 -0.043750
v -0.004116 0.038835 -0.044116
v -0.004542 0.038585 -0.044542
v -0.004752 0.043415 -0.044402
v -0.004522 0.043165 -0.043845
v -0.004324 0.042768 -0.043367
v -0.004171 0.042250 -0.043000
v -0.004076 0.041647 -0.042769
v -0.004043 0.041000 -0.042690
v -0.004076 0.040353 -0.042769
v -0.004171 0.039750 -0.043000
v -0.004324 0.039232 -0.043367
v -0.004522 0.038835 -0.043845
v -0.004752 0.038585 -0.044402
v -0.005000 0.043415 -0.044353
v -0.005000 0.043165 -0.043750
v -0.005000 0.042768 -0.043232
v -0.005000 0.042250 -0.042835
v -0.005000 0.041647 -0.042585
v -0.005000 0.041000 -0.042500
v -0.005000 0.040353 -0.042585
v -0.005000 0.039750 -0.042835
v -0.005000 0.039232 -0.043232
v -0.005000 0.038835 -0.043750
v -0.005000 0.038585 -0.044353
v -0.005248 0.043415 -0.044402
v -0.005478 0.043165 -0.043845
v -0.005676 0.042768 -0.043367
v -0.005829 0.042250 -0.043000
v -0.005924 0.041647 -0.042769
v -0.005957 0.041000 -0.042690
v -0.005924 0.040353 -0.042769
v -0.005829 0.039750 -0.043000
v -0.005676 0.039232 -0.043367
v -0.005478 0.038835 -0.043845
v -0.005248 0.038585 -0.044402
v -0.005000 0.038500 -0.045000
v -0.005458 0.043415 -0.044542
v -0.005884 0.043165 -0.044116
v -0.006250 0.042768 -0.043750
v -0.006531 0.042250 -0.043469
v -0.006708 0.041647 -0.043292
v -0.006768 0.041000 -0.043232
v -0.006708 0.040353 -0.043292
v -0.006531 0.039750 -0.043469
v -0.006250 0.039232 -0.043750
v -0.005884 0.038835 -0.044116
v -0.005458 0.038585 -0.044542
v -0.005598 0.043415 -0.044752
v -0.006155 0.043165 -0.044522
v -0.006633 0.042768 -0.044324
v -0.007000 0.042250 -0.044171
v -0.007231 0.041647 -0.044076
v -0.007310 0.041000 -0.044043
v -0.007231 0.040353 -0.044076
v -0.007000 0.039750 -0.044171
v -0.006633 0.039232 -0.044324
v -0.006155 0.038835 -0.044522
v -0.005598 0.038585 -0.044752
v -0.005647 0.043415 -0.045000
v -0.006250 0.043165 -0.045000
v -0.006768 0.042768 -0.045000
v -0.007165 0.042250 -0.045000
v -0.007415 0.041647 -0.045000
v -0.007500 0.041000 -0.045000
v -0.007415 0.040353 -0.045000
v -0.007165 0.039750 -0.045000
v -0.006768 0.039232 -0.045000
v -0.006250 0.038835 -0.045000
v -0.005647 0.038585 -0.045000
v -0.005598 0.043415 -0.045248
v -0.006155 0.043165 -0.045478
v -0.006633 0.042768 -0.045676
v -0.007000 0.042250 -0.045829
v -0.007231 0.041647 -0.045924
v -0.007310 0.041000 -0.045957
v -0.007231 0.040353 -0.045924
v -0.007000 0.039750 -0.045829
v -0.006633 0.039232 -0.045676
v -0.006155 0.038835 -0.045478
v -0.005598 0.038585 -0.045248
v -0.005458 0.043415 -0.045458
v -0.005884 0.043165 -0.045884
v -0.006250 0.042768 -0.046250
v -0.006531 0.042250 -0.046531
v -0.006708 0.041647 -0.046708
v -0.006768 0.041000 -0.046768
v -0.006708 0.040353 -0.046708
v -0.006531 0.039750 -0.046531
v -0.006250 0.039232 -0.046250
v -0.005884 0.038835 -0.045884
v -0.005458 0.038585 -0.045458
v -0.005248 0.043415 -0.045598
v -0.005478 0.043165 -0.046155
v -0.005676 0.042768 -0.046633
v -0.005829 0.042250 -0.047000
v -0.005924 0.041647 -0.047231
v -0.005957 0.041000 -0.047310
v -0.005924 0.040353 -0.047231
v -0.005829 0.039750 -0.047000
v -0.005676 0.039232 -0.046633
v -0.005478 0.038835 -0.046155
v -0.005248 0.038585 -0.045598
v -0.005000 0.042768 -0.046768
v -0.005000 0.040353 -0.047415
v -0.005000 0.039232 -0.046768
v 0.005000 0.043415 -0.045647
v 0.005000 0.043165 -0.046250
v 0.005000 0.042250 -0.047165
v 0.005000 0.041647 -0.047415
v 0.005000 0.041000 -0.047500
v 0.005000 0.039750 -0.047165
v 0.005000 0.038835 -0.046250
v 0.005000 0.038585 -0.045647
v 0.005248 0.043415 -0.045598
v 0.005478 0.043165 -0.046155
v 0.005676 0.042768 -0.046633
v 0.005829 0.042250 -0.047000
v 0.005924 0.041647 -0.047231
v 0.005957 0.041000 -0.047310
v 0.005924 0.040353 -0.047231
v 0.005829 0.039750 -0.047000
v 0.005676 0.039232 -0.046633
v 0.005478 0.038835 -0.046155
v 0.005248 0.038585 -0.045598
v 0.005000 0.043500 -0.045000
v 0.005458 0.043415 -0.045458
v 0.005884 0.043165 -0.045884
v 0.006250 0.042768 -0.046250
v 0.006531 0.042250 -0.046531
v 0.006708 0.041647 -0.046708
v 0.006768 0.041000 -0.046768
v 0.006708 0.040353 -0.046708
v 0.006531 0.039750 -0.046531
v 0.006250 0.039232 -0.046250
v 0.005884 0.038835 -0.045884
v 0.005458 0.038585 -0.045458
v 0.005598 0.043415 -0.045248
v 0.006155 0.043165 -0.045478
v 0.006633 0.042768 -0.045676
v 0.007000 0.042250 -0.045829
v 0.007231 0.041647 -0.045924
v 0.007310 0.041000 -0.045957
v 0.007231 0.040353 -0.045924
v 0.007000 0.039750 -0.045829
v 0.006633 0.039232 -0.045676
v 0.006155 0.038835 -0.045478
v 0.005598 0.038585 -0.045248
v 0.005647 0.043415 -0.045000
v 0.006250 0.043165 -0.045000
v 0.006768 0.042768 -0.045000
v 0.007165 0.042250 -0.045000
v 0.007415 0.041647 -0.045000
v 0.007500 0.041000 -0.045000
v 0.007415 0.040353 -0.045000
v 0.007165 0.039750 -0.045000
v 0.006768 0.039232 -0.045000
v 0.006250 0.038835 -0.045000
v 0.005647 0.038585 -0.045000
v 0.005598 0.043415 -0.044752
v 0.006155 0.043165 -0.044522
v 0.006633 0.042768 -0.044324
v 0.007000 0.042250 -0.044171
v 0.007231 0.041647 -0.044076
v 0.007310 0.041000 -0.044043
v 0.007231 0.040353 -0.044076
v 0.007000 0.039750 -0.044171
v 0.006633 0.039232 -0.044324
v 0.006155 0.038835 -0.044522
v 0.005598 0.038585 -0.044752
v 0.005458 0.043415 -0.044542
v 0.005884 0.043165 -0.044116
v 0.006250 0.042768 -0.043750
v 0.006531 0.042250 -0.043469
v 0.006708 0.041647 -0.043292
v 0.006768 0.041000 -0.043232
v 0.006708 0.040353 -0.043292
v 0.006531 0.039750 -0.043469
v 0.006250 0.039232 -0.043750
v 0.005884 0.038835 -0.044116
v 0.005458 0.038585 -0.044542
v 0.005248 0.043415 -0.044402
v 0.005478 0.043165 -0.043845
v 0.005676 0.042768 -0.043367
v 0.005829 0.042250 -0.043000
v 0.005924 0.041647 -0.042769
v 0.005957 0.041000 -0.042690
v 0.005924 0.040353 -0.042769
v 0.005829 0.039750 -0.043000
v 0.005676 0.039232 -0.043367
v 0.005478 0.038835 -0.043845
v 0.005248 0.038585 -0.044402
v 0.005000 0.043415 -0.044353
v 0.005000 0.043165 -0.043750
v 0.005000 0.042768 -0.043232
v 0.005000 0.042250 -0.042835
v 0.005000 0.041647 -0.042585
v 0.005000 0.041000 -0.042500
v 0.005000 0.040353 -0.042585
v 0.005000 0.039750 -0.042835
v 0.005000 0.039232 -0.043232
v 0.005000 0.038835 -0.043750
v 0.005000 0.038585 -0.044353
v 0.004752 0.043415 -0.044402
v 0.004522 0.043165 -0.043845
v 0.004324 0.042768 -0.043367
v 0.004171 0.042250 -0.043000
v 0.004076 0.041647 -0.042769
v 0.004043 0.041000 -0.042690
v 0.004076 0.040353 -0.042769
v 0.004171 0.039750 -0.043000
v 0.004324 0.039232 -0.043367
v 0.004522 0.038835 -0.043845
v 0.004752 0.038585 -0.044402
v 0.005000 0.038500 -0.045000
v 0.004542 0.043415 -0.044542
v 0.004116 0.043165 -0.044116
v 0.003750 0.042768 -0.043750
v 0.003469 0.042250 -0.043469
v 0.003292 0.041647 -0.043292
v 0.003232 0.041000 -0.043232
v 0.003292 0.040353 -0.043292
v 0.003469 0.039750 -0.043469
v 0.003750 0.039232 -0.043750
v 0.004116 0.038835 -0.044116
v 0.004542 0.038585 -0.044542
v 0.004402 0.043415 -0.044752
v 0.003845 0.043165 -0.044522
v 0.003367 0.042768 -0.044324
v 0.003000 0.042250 -0.044171
v 0.002769 0.041647 -0.044076
v 0.002690 0.041000 -0.044043
v 0.002769 0.040353 -0.044076
v 0.003000 0.039750 -0.044171
v 0.003367 0.039232 -0.044324
v 0.003845 0.038835 -0.044522
v 0.004402 0.038585 -0.044752
v 0.004353 0.043415 -0.045000
v 0.003750 0.043165 -0.045000
v 0.003232 0.042768 -0.045000
v 0.002835 0.042250 -0.045000
v 0.002585 0.041647 -0.045000
v 0.002500 0.041000 -0.045000
v 0.002585 0.040353 -0.045000
v 0.002835 0.039750 -0.045000
v 0.003232 0.039232 -0.045000
v 0.003750 0.038835 -0.045000
v 0.004353 0.038585 -0.045000
v 0.004402 0.043415 -0.045248
v 0.003845 0.043165 -0.045478
v 0.003367 0.042768 -0.045676
v 0.003000 0.042250 -0.045829
v 0.002769 0.041647 -0.045924
v 0.002690 0.041000 -0.045957
v 0.002769 0.040353 -0.045924
v 0.003000 0.039750 -0.045829
v 0.003367 0.039232 -0.045676
v 0.003845 0.038835 -0.045478
v 0.004402 0.038585 -0.045248
v 0.004542 0.043415 -0.045458
v 0.004116 0.043165 -0.045884
v 0.003750 0.042768 -0.046250
v 0.003469 0.042250 -0.046531
v 0.003292 0.041647 -0.046708
v 0.003232 0.041000 -0.046768
v 0.003292 0.040353 -0.046708
v 0.003469 0.039750 -0.046531
v 0.003750 0.039232 -0.046250
v 0.004116 0.038835 -0.045884
v 0.004542 0.038585 -0.045458
v 0.004752 0.043415 -0.045598
v 0.004522 0.043165 -0.046155
v 0.004324 0.042768 -0.046633
v 0.004171 0.042250 -0.047000
v 0.004076 0.041647 -0.047231
v 0.004043 0.041000 -0.047310
v 0.004076 0.040353 -0.047231
v 0.004171 0.039750 -0.047000
v 0.004324 0.039232 -0.046633
v 0.004522 0.038835 -0.046155
v 0.004752 0.038585 -0.045598
v 0.005000 0.042768 -0.046768
v 0.005000 0.040353 -0.047415
v 0.005000 0.039232 -0.046768
v -0.016000 -0.155000 0.012000
v -0.016000 0.015000 0.012000
v -0.016000 -0.155000 -0.008000
v -0.016000 0.015000 -0.008000
v 0.016000 -0.155000 0.012000
v 0.016000 0.015000 0.012000
v 0.016000 -0.155000 -0.008000
v 0.016000 0.015000 -0.008000
v -0.016000 -0.011000 0.114000
v -0.016000 0.041000 0.114000
v -0.016000 -0.011000 -0.004000
v -0.016000 0.041000 -0.004000
v 0.016000 -0.011000 0.114000
v 0.016000 0.041000 0.114000
v 0.016000 -0.011000 -0.004000
v 0.016000 0.041000 -0.004000
v -0.017000 -0.006500 0.096000
v -0.017000 0.038500 0.096000
v -0.017000 -0.006500 0.014000
v -0.017000 0.038500 0.014000
v 0.017000 -0.006500 0.096000
v 0.017000 0.038500 0.096000
v 0.017000 -0.006500 0.014000
v 0.017000 0.038500 0.014000
v -0.007000 -0.065000 0.046000
v -0.007000 -0.015000 0.046000
v -0.007000 -0.065000 0.010000
v -0.007000 -0.015000 0.010000
v 0.007000 -0.065000 0.046000
v 0.007000 -0.015000 0.046000
v 0.007000 -0.065000 0.010000
v 0.007000 -0.015000 0.010000
v -0.003000 -0.041000 0.035000
v -0.003000 -0.029000 0.035000
v -0.003000 -0.041000 0.013000
v -0.003000 -0.029000 0.013000
v 0.003000 -0.041000 0.035000
v 0.003000 -0.029000 0.035000
v 0.003000 -0.041000 0.013000
v 0.003000 -0.029000 0.013000
v -0.004500 0.041000 -0.014000
v -0.004500 0.055000 -0.014000
v -0.004500 0.041000 -0.038000
v -0.004500 0.055000 -0.038000
v 0.004500 0.041000 -0.014000
v 0.004500 0.055000 -0.014000
v 0.004500 0.041000 -0.038000
v 0.004500 0.055000 -0.038000
v -0.011000 0.030000 -0.001000
v -0.011000 0.058000 -0.001000
v -0.011000 0.030000 -0.015000
v -0.011000 0.058000 -0.015000
v 0.011000 0.030000 -0.001000
v 0.011000 0.058000 -0.001000
v 0.011000 0.030000 -0.015000
v 0.011000 0.058000 -0.015000
v -0.018000 -0.009000 0.125000
v -0.018000 0.049000 0.125000
v -0.018000 -0.009000 0.111000
v -0.018000 0.049000 0.111000
v 0.018000 -0.009000 0.125000
v 0.018000 0.049000 0.125000
v 0.018000 -0.009000 0.111000
v 0.018000 0.049000 0.111000
vn -1.0000 -0.0000 -0.0000
vn -0.0000 -0.0000 -1.0000
vn 1.0000 -0.0000 -0.0000
vn -0.0000 -0.0000 1.0000
vn -0.0000 -1.0000 -0.0000
vn -0.0000 1.0000 -0.0000
vn 0.1951 0.9808 -0.0000
vn 0.5556 0.8315 -0.0000
vn 0.8315 0.5556 -0.0000
vn 0.9808 0.1951 -0.0000
vn 0.9808 -0.1951 -0.0000
vn 0.8315 -0.5556 -0.0000
vn 0.5556 -0.8315 -0.0000
vn 0.1951 -0.9808 -0.0000
vn -0.1951 -0.9808 -0.0000
vn -0.5556 -0.8315 -0.0000
vn -0.8315 -0.5556 -0.0000
vn -0.9808 -0.1951 -0.0000
vn -0.9808 0.1951 -0.0000
vn -0.8315 0.5556 -0.0000
vn -0.5556 0.8315 -0.0000
vn -0.1951 0.9808 -0.0000
vn 0.1935 -0.1281 -0.9727
vn 0.1559 0.6013 -0.7837
vn 0.0759 -0.9212 -0.3816
vn 0.0259 0.9911 -0.1305
vn 0.1807 -0.3764 -0.9087
vn 0.1807 0.3764 -0.9087
vn 0.0260 -0.9911 -0.1305
vn 0.0759 0.9212 -0.3816
vn 0.1559 -0.6013 -0.7837
vn 0.1935 0.1281 -0.9727
vn 0.1202 0.7876 -0.6043
vn 0.1202 -0.7876 -0.6043
vn 0.5147 0.3764 -0.7703
vn 0.0739 -0.9911 -0.1106
vn 0.2161 0.9212 -0.3235
vn 0.4439 -0.6013 -0.6644
vn 0.5510 0.1281 -0.8246
vn 0.3423 0.7876 -0.5123
vn 0.3423 -0.7876 -0.5123
vn 0.5510 -0.1281 -0.8246
vn 0.4439 0.6013 -0.6643
vn 0.2161 -0.9212 -0.3235
vn 0.0739 0.9911 -0.1106
vn 0.5147 -0.3764 -0.7703
vn 0.6644 0.6013 -0.4439
vn 0.3235 -0.9212 -0.2161
vn 0.1106 0.9911 -0.0739
vn 0.7703 -0.3764 -0.5147
vn 0.7703 0.3764 -0.5147
vn 0.1106 -0.9911 -0.0739
vn 0.3235 0.9212 -0.2161
vn 0.6644 -0.6013 -0.4439
vn 0.8246 0.1281 -0.5510
vn 0.5123 0.7876 -0.3423
vn 0.5124 -0.7876 -0.3423
vn 0.8246 -0.1281 -0.5510
vn 0.9727 0.1281 -0.1935
vn 0.6043 0.7876 -0.1202
vn 0.6043 -0.7876 -0.1202
vn 0.9727 -0.1281 -0.1935
vn 0.7837 0.6013 -0.1559
vn 0.3816 -0.9212 -0.0759
vn 0.1305 0.9911 -0.0260
vn 0.9087 -0.3764 -0.1807
vn 0.9087 0.3764 -0.1807
vn 0.1305 -0.9911 -0.0260
vn 0.3816 0.9212 -0.0759
vn 0.7837 -0.6013 -0.1559
vn 0.9087 0.3764 0.1807
vn 0.1305 -0.9911 0.0260
vn 0.3816 0.9212 0.0759
vn 0.7837 -0.6013 0.1559
vn 0.9727 0.1281 0.1935
vn 0.6043 0.7876 0.1202
vn 0.6044 -0.7876 0.1202
vn 0.9727 -0.1281 0.1935
vn 0.7837 0.6013 0.1559
vn 0.3816 -0.9212 0.0759
vn 0.1305 0.9911 0.0260
vn 0.9087 -0.3764 0.1807
vn 0.8246 -0.1281 0.5510
vn 0.6644 0.6013 0.4439
vn 0.3235 -0.9212 0.2161
vn 0.1106 0.9911 0.0739
vn 0.7703 -0.3764 0.5147
vn 0.7703 0.3764 0.5147
vn 0.1106 -0.9911 0.0739
vn 0.3235 0.9212 0.2161
vn 0.6643 -0.6013 0.4439
vn 0.8246 0.1281 0.5510
vn 0.5123 0.7876 0.3423
vn 0.5123 -0.7876 0.3423
vn 0.5510 0.1281 0.8246
vn 0.3423 0.7876 0.5123
vn 0.3423 -0.7876 0.5123
vn 0.5510 -0.1281 0.8246
vn 0.4439 0.6013 0.6643
vn 0.2161 -0.9212 0.3235
vn 0.0739 0.9911 0.1106
vn 0.5147 -0.3764 0.7703
vn 0.5147 0.3764 0.7703
vn 0.0739 -0.9911 0.1106
vn 0.2162 0.9212 0.3235
vn 0.4439 -0.6013 0.6643
vn 0.1807 -0.3764 0.9087
vn 0.1807 0.3764 0.9087
vn 0.0260 -0.9911 0.1305
vn 0.0759 0.9212 0.3816
vn 0.1559 -0.6013 0.7837
vn 0.1935 0.1281 0.9727
vn 0.1202 0.7876 0.6043
vn 0.1202 -0.7876 0.6043
vn 0.1935 -0.1281 0.9727
vn 0.1559 0.6013 0.7837
vn 0.0759 -0.9212 0.3816
vn 0.0259 0.9911 0.1305
vn -0.1935 -0.1281 0.9727
vn -0.1559 0.6013 0.7837
vn -0.0759 -0.9212 0.3816
vn -0.0259 0.9911 0.1305
vn -0.1807 -0.3764 0.9087
vn -0.1807 0.3764 0.9087
vn -0.0260 -0.9911 0.1305
vn -0.0759 0.9212 0.3816
vn -0.1559 -0.6013 0.7837
vn -0.1935 0.1281 0.9727
vn -0.1202 0.7876 0.6043
vn -0.1202 -0.7876 0.6043
vn -0.4439 -0.6013 0.6644
vn -0.5510 0.1281 0.8246
vn -0.3423 0.7876 0.5123
vn -0.3423 -0.7876 0.5123
vn -0.5510 -0.1281 0.8246
vn -0.4439 0.6013 0.6643
vn -0.2161 -0.9212 0.3235
vn -0.0739 0.9911 0.1106
vn -0.5147 -0.3764 0.7703
vn -0.5147 0.3764 0.7703
vn -0.0739 -0.9911 0.1106
vn -0.2161 0.9212 0.3235
vn -0.1106 0.9911 0.0739
vn -0.7703 -0.3764 0.5147
vn -0.7703 0.3764 0.5147
vn -0.1106 -0.9911 0.0739
vn -0.3235 0.9212 0.2161
vn -0.6643 -0.6013 0.4439
vn -0.8246 0.1281 0.5510
vn -0.5123 0.7876 0.3423
vn -0.5123 -0.7876 0.3423
vn -0.8246 -0.1281 0.5510
vn -0.6644 0.6013 0.4439
vn -0.3235 -0.9212 0.2161
vn -0.6043 -0.7876 0.1202
vn -0.9727 -0.1281 0.1935
vn -0.7837 0.6013 0.1559
vn -0.3816 -0.9212 0.0759
vn -0.1305 0.9911 0.0260
vn -0.9087 -0.3764 0.1807
vn -0.9087 0.3764 0.1807
vn -0.1305 -0.9911 0.0260
vn -0.3816 0.9212 0.0759
vn -0.7837 -0.6013 0.1559
vn -0.9727 0.1281 0.1935
vn -0.6044 0.7876 0.1202
vn -0.3816 0.9212 -0.0759
vn -0.7837 -0.6013 -0.1559
vn -0.9727 0.1281 -0.1935
vn -0.6043 0.7876 -0.1202
vn -0.6044 -0.7876 -0.1202
vn -0.9727 -0.1281 -0.1935
vn -0.7837 0.6013 -0.1559
vn -0.3816 -0.9212 -0.0759
vn -0.1305 0.9911 -0.0260
vn -0.9087 -0.3764 -0.1807
vn -0.9087 0.3764 -0.1807
vn -0.1305 -0.9911 -0.0260
vn -0.3235 -0.9212 -0.2161
vn -0.1106 0.9911 -0.0739
vn -0.7703 -0.3764 -0.5147
vn -0.7703 0.3764 -0.5147
vn -0.1106 -0.9911 -0.0739
vn -0.3235 0.9212 -0.2161
vn -0.6643 -0.6013 -0.4439
vn -0.8246 0.1281 -0.5510
vn -0.5123 0.7876 -0.3423
vn -0.5123 -0.7876 -0.3423
vn -0.8246 -0.1281 -0.5510
vn -0.6644 0.6013 -0.4439
vn -0.3423 0.7876 -0.5123
vn -0.3423 -0.7876 -0.5123
vn -0.5510 -0.1281 -0.8246
vn -0.4439 0.6013 -0.6643
vn -0.2161 -0.9212 -0.3235
vn -0.0739 0.9911 -0.1106
vn -0.5147 -0.3764 -0.7703
vn -0.5147 0.3764 -0.7703
vn -0.0739 -0.9911 -0.1106
vn -0.2162 0.9212 -0.3235
vn -0.4439 -0.6013 -0.6643
vn -0.5510 0.1281 -0.8246
vn -0.0260 -0.9911 -0.1305
vn -0.0759 0.9212 -0.3816
vn -0.1559 -0.6013 -0.7837
vn -0.1935 0.1281 -0.9727
vn -0.1202 0.7876 -0.6043
vn -0.1202 -0.7876 -0.6043
vn -0.1935 -0.1281 -0.9727
vn -0.1559 0.6013 -0.7837
vn -0.0759 -0.9212 -0.3816
vn -0.0259 0.9911 -0.1305
vn -0.1807 -0.3764 -0.9087
vn -0.1807 0.3764 -0.9087
vn 0.0260 0.9911 -0.1305
vn 0.4439 0.6013 -0.6644
vn 0.2162 -0.9212 -0.3235
vn 0.6643 -0.6013 -0.4439
vn 0.5123 -0.7876 -0.3423
vn 0.6043 -0.7876 0.1202
vn 0.6643 0.6013 0.4439
vn 0.4439 0.6013 0.6644
vn 0.4439 -0.6013 0.6644
vn 0.0260 0.9911 0.1305
vn -0.0260 0.9911 0.1305
vn -0.4439 0.6013 0.6644
vn -0.2162 -0.9212 0.3235
vn -0.6043 0.7876 0.1202
vn -0.6043 -0.7876 -0.1202
vn -0.4439 -0.6013 -0.6644
vn -0.4439 0.6013 -0.6644
vn -0.0260 0.9911 -0.1305
vn -0.6644 -0.6013 0.4439
vt 0.375000 0.000000
vt 0.625000 0.000000
vt 0.625000 0.250000
vt 0.375000 0.250000
vt 0.625000 0.500000
vt 0.375000 0.500000
vt 0.625000 0.750000
vt 0.375000 0.750000
vt 0.625000 1.000000
vt 0.375000 1.000000
vt 0.125000 0.500000
vt 0.125000 0.750000
vt 0.875000 0.500000
vt 0.875000 0.750000
vt 1.000000 0.500000
vt 1.000000 1.000000
vt 0.937500 1.000000
vt 0.937500 0.500000
vt 0.875000 1.000000
vt 0.812500 1.000000
vt 0.812500 0.500000
vt 0.750000 1.000000
vt 0.750000 0.500000
vt 0.687500 1.000000
vt 0.687500 0.500000
vt 0.562500 1.000000
vt 0.562500 0.500000
vt 0.500000 1.000000
vt 0.500000 0.500000
vt 0.437500 1.000000
vt 0.437500 0.500000
vt 0.312500 1.000000
vt 0.312500 0.500000
vt 0.250000 1.000000
vt 0.250000 0.500000
vt 0.187500 1.000000
vt 0.187500 0.500000
vt 0.125000 1.000000
vt 0.341844 0.471731
vt 0.250000 0.490000
vt 0.158156 0.471731
vt 0.080294 0.419706
vt 0.028269 0.341844
vt 0.010000 0.250000
vt 0.028269 0.158156
vt 0.080294 0.080294
vt 0.158156 0.028269
vt 0.250000 0.010000
vt 0.341844 0.028269
vt 0.419706 0.080294
vt 0.471731 0.158156
vt 0.490000 0.250000
vt 0.471731 0.341844
vt 0.419706 0.419706
vt 0.062500 1.000000
vt 0.062500 0.500000
vt 0.000000 1.000000
vt 0.000000 0.500000
vt 0.750000 0.490000
vt 0.841844 0.471731
vt 0.919706 0.419706
vt 0.971731 0.341844
vt 0.990000 0.250000
vt 0.971731 0.158156
vt 0.919706 0.080294
vt 0.841844 0.028269
vt 0.750000 0.010000
vt 0.658156 0.028269
vt 0.580294 0.080294
vt 0.528269 0.158156
vt 0.510000 0.250000
vt 0.528269 0.341844
vt 0.580294 0.419706
vt 0.658156 0.471731
vt 0.080294 0.419706
vt 0.028269 0.341844
vt 0.028269 0.158156
vt 0.080294 0.080294
vt 0.158156 0.028269
vt 0.341844 0.028269
vt 0.419706 0.080294
vt 0.919706 0.080294
vt 0.841844 0.028269
vt 0.658156 0.028269
vt 0.580294 0.080294
vt 0.750000 0.416667
vt 0.687500 0.416667
vt 0.750000 0.666667
vt 0.750000 0.750000
vt 0.687500 0.750000
vt 0.687500 0.666667
vt 0.750000 0.083333
vt 0.750000 0.166667
vt 0.687500 0.166667
vt 0.687500 0.083333
vt 0.750000 0.916667
vt 0.718750 1.000000
vt 0.687500 0.916667
vt 0.750000 0.333333
vt 0.687500 0.333333
vt 0.750000 0.583333
vt 0.687500 0.583333
vt 0.718750 0.000000
vt 0.750000 0.833333
vt 0.687500 0.833333
vt 0.750000 0.250000
vt 0.687500 0.250000
vt 0.625000 0.666667
vt 0.625000 0.583333
vt 0.656250 0.000000
vt 0.625000 0.083333
vt 0.625000 0.916667
vt 0.625000 0.833333
vt 0.625000 0.333333
vt 0.625000 0.166667
vt 0.625000 0.416667
vt 0.656250 1.000000
vt 0.562500 0.750000
vt 0.562500 0.666667
vt 0.562500 0.166667
vt 0.562500 0.083333
vt 0.593750 1.000000
vt 0.562500 0.916667
vt 0.562500 0.416667
vt 0.562500 0.333333
vt 0.562500 0.583333
vt 0.593750 0.000000
vt 0.562500 0.833333
vt 0.562500 0.250000
vt 0.500000 0.583333
vt 0.500000 0.500000
vt 0.500000 0.833333
vt 0.500000 0.750000
vt 0.500000 0.250000
vt 0.500000 0.166667
vt 0.500000 0.416667
vt 0.500000 0.666667
vt 0.500000 0.083333
vt 0.531250 1.000000
vt 0.500000 0.916667
vt 0.500000 0.333333
vt 0.531250 0.000000
vt 0.437500 0.666667
vt 0.437500 0.583333
vt 0.468750 0.000000
vt 0.437500 0.083333
vt 0.437500 0.916667
vt 0.437500 0.833333
vt 0.437500 0.333333
vt 0.437500 0.250000
vt 0.437500 0.500000
vt 0.437500 0.750000
vt 0.437500 0.166667
vt 0.437500 0.416667
vt 0.468750 1.000000
vt 0.375000 0.500000
vt 0.375000 0.416667
vt 0.375000 0.750000
vt 0.375000 0.666667
vt 0.375000 0.166667
vt 0.375000 0.083333
vt 0.406250 1.000000
vt 0.375000 0.916667
vt 0.375000 0.333333
vt 0.375000 0.583333
vt 0.406250 0.000000
vt 0.375000 0.833333
vt 0.375000 0.250000
vt 0.312500 0.583333
vt 0.312500 0.500000
vt 0.312500 0.833333
vt 0.312500 0.750000
vt 0.312500 0.250000
vt 0.312500 0.166667
vt 0.312500 0.416667
vt 0.312500 0.666667
vt 0.312500 0.083333
vt 0.343750 1.000000
vt 0.312500 0.916667
vt 0.312500 0.333333
vt 0.343750 0.000000
vt 0.250000 0.416667
vt 0.250000 0.333333
vt 0.250000 0.666667
vt 0.250000 0.583333
vt 0.281250 0.000000
vt 0.250000 0.083333
vt 0.250000 0.916667
vt 0.250000 0.833333
vt 0.250000 0.250000
vt 0.250000 0.500000
vt 0.250000 0.750000
vt 0.250000 0.166667
vt 0.281250 1.000000
vt 0.187500 0.500000
vt 0.187500 0.416667
vt 0.187500 0.750000
vt 0.187500 0.666667
vt 0.187500 0.166667
vt 0.187500 0.083333
vt 0.218750 1.000000
vt 0.187500 0.916667
vt 0.187500 0.333333
vt 0.187500 0.583333
vt 0.218750 0.000000
vt 0.187500 0.833333
vt 0.187500 0.250000
vt 0.125000 0.333333
vt 0.125000 0.250000
vt 0.125000 0.583333
vt 0.125000 0.500000
vt 0.125000 0.833333
vt 0.125000 0.750000
vt 0.125000 0.166667
vt 0.125000 0.416667
vt 0.125000 0.666667
vt 0.125000 0.083333
vt 0.156250 1.000000
vt 0.125000 0.916667
vt 0.156250 0.000000
vt 0.093750 1.000000
vt 0.062500 0.916667
vt 0.062500 0.416667
vt 0.062500 0.333333
vt 0.062500 0.666667
vt 0.062500 0.583333
vt 0.093750 0.000000
vt 0.062500 0.083333
vt 0.062500 0.833333
vt 0.062500 0.250000
vt 0.062500 0.500000
vt 0.062500 0.750000
vt 0.062500 0.166667
vt 0.000000 0.250000
vt 0.000000 0.166667
vt 0.000000 0.416667
vt 0.000000 0.750000
vt 0.000000 0.666667
vt 0.000000 0.083333
vt 0.031250 1.000000
vt 0.000000 0.916667
vt 0.000000 0.333333
vt 0.000000 0.583333
vt 0.031250 0.000000
vt 0.000000 0.833333
vt 1.000000 0.833333
vt 1.000000 0.916667
vt 0.937500 0.916667
vt 0.937500 0.833333
vt 1.000000 0.250000
vt 1.000000 0.333333
vt 0.937500 0.333333
vt 0.937500 0.250000
vt 1.000000 0.583333
vt 0.937500 0.583333
vt 0.937500 0.500000
vt 1.000000 0.750000
vt 0.937500 0.750000
vt 1.000000 0.166667
vt 0.937500 0.166667
vt 1.000000 0.416667
vt 0.937500 0.416667
vt 1.000000 0.666667
vt 0.937500 0.666667
vt 1.000000 0.083333
vt 0.937500 0.083333
vt 0.968750 1.000000
vt 0.968750 0.000000
vt 0.875000 0.166667
vt 0.875000 0.083333
vt 0.906250 1.000000
vt 0.875000 0.916667
vt 0.875000 0.416667
vt 0.875000 0.333333
vt 0.875000 0.666667
vt 0.875000 0.583333
vt 0.906250 0.000000
vt 0.875000 0.833333
vt 0.875000 0.250000
vt 0.875000 0.500000
vt 0.875000 0.750000
vt 0.812500 0.833333
vt 0.812500 0.750000
vt 0.812500 0.250000
vt 0.812500 0.166667
vt 0.812500 0.500000
vt 0.812500 0.416667
vt 0.812500 0.666667
vt 0.812500 0.083333
vt 0.843750 1.000000
vt 0.812500 0.916667
vt 0.812500 0.333333
vt 0.812500 0.583333
vt 0.843750 0.000000
vt 0.781250 0.000000
vt 0.781250 1.000000
vt 0.750000 0.666667
vt 0.687500 0.666667
vt 0.750000 0.250000
vt 0.750000 0.416667
vt 0.625000 0.666667
vt 0.562500 0.666667
vt 0.500000 0.166667
vt 0.500000 0.083333
vt 0.500000 0.916667
vt 0.500000 0.833333
vt 0.437500 0.416667
vt 0.437500 0.083333
vt 0.437500 0.916667
vt 0.437500 0.583333
vt 0.375000 0.583333
vt 0.406250 0.000000
vt 0.375000 0.083333
vt 0.375000 0.916667
vt 0.375000 0.833333
vt 0.375000 0.250000
vt 0.375000 0.750000
vt 0.375000 0.166667
vt 0.375000 0.416667
vt 0.406250 1.000000
vt 0.312500 0.750000
vt 0.312500 0.166667
vt 0.343750 1.000000
vt 0.312500 0.416667
vt 0.312500 0.583333
vt 0.343750 0.000000
vt 0.312500 0.833333
vt 0.312500 0.500000
vt 0.250000 0.500000
vt 0.250000 0.833333
vt 0.250000 0.750000
vt 0.250000 0.166667
vt 0.250000 0.416667
vt 0.281250 1.000000
vt 0.281250 0.000000
vt 0.187500 0.833333
vt 0.187500 0.500000
vt 0.187500 0.750000
vt 0.187500 0.166667
vt 0.187500 0.416667
vt 0.125000 0.500000
vt 0.125000 0.416667
vt 0.125000 0.750000
vt 0.125000 0.666667
vt 0.125000 0.166667
vt 0.125000 0.083333
vt 0.156250 1.000000
vt 0.125000 0.916667
vt 0.125000 0.583333
vt 0.156250 0.000000
vt 0.125000 0.833333
vt 0.125000 0.250000
vt 0.062500 0.833333
vt 0.062500 0.750000
vt 0.062500 0.250000
vt 0.062500 0.166667
vt 0.062500 0.416667
vt 0.062500 0.666667
vt 0.062500 0.083333
vt 0.062500 0.916667
vt 0.000000 0.416667
vt 0.031250 0.000000
vt 0.000000 0.250000
vt 0.000000 0.166667
vt 0.031250 1.000000
vt 1.000000 0.416667
vt 0.937500 0.500000
vt 0.937500 0.416667
vt 0.937500 0.666667
vt 1.000000 0.166667
vt 0.937500 0.166667
vt 0.968750 1.000000
vt 0.937500 0.333333
vt 0.937500 0.583333
vt 0.968750 0.000000
vt 0.937500 0.833333
vt 1.000000 0.250000
vt 0.937500 0.250000
vt 0.875000 0.250000
vt 0.875000 0.166667
vt 0.875000 0.416667
vt 0.875000 0.666667
vt 0.843750 1.000000
vt 0.812500 0.916667
vt 0.812500 0.416667
vt 0.812500 0.666667
vt 0.843750 0.000000
vt 0.812500 0.083333
vt 0.812500 0.833333
vt 0.812500 0.250000
vt 0.812500 0.500000
vt 0.812500 0.166667
s 0
usemtl Mat_PistolSteel
f 1/1/1 2/2/1 4/3/1 3/4/1
f 3/4/2 4/3/2 8/5/2 7/6/2
f 7/6/3 8/5/3 6/7/3 5/8/3
f 5/8/4 6/7/4 2/9/4 1/10/4
f 3/11/5 7/6/5 5/8/5 1/12/5
f 8/5/6 4/13/6 2/14/6 6/7/6
f 9/1/1 10/2/1 12/3/1 11/4/1
f 11/4/2 12/3/2 16/5/2 15/6/2
f 15/6/3 16/5/3 14/7/3 13/8/3
f 13/8/4 14/7/4 10/9/4 9/10/4
f 11/11/5 15/6/5 13/8/5 9/12/5
f 16/5/6 12/13/6 10/14/6 14/7/6
f 17/1/1 18/2/1 20/3/1 19/4/1
f 19/4/2 20/3/2 24/5/2 23/6/2
f 23/6/3 24/5/3 22/7/3 21/8/3
f 21/8/4 22/7/4 18/9/4 17/10/4
f 19/11/5 23/6/5 21/8/5 17/12/5
f 24/5/6 20/13/6 18/14/6 22/7/6
f 25/1/1 26/2/1 28/3/1 27/4/1
f 27/4/2 28/3/2 32/5/2 31/6/2
f 31/6/3 32/5/3 30/7/3 29/8/3
f 29/8/4 30/7/4 26/9/4 25/10/4
f 27/11/5 31/6/5 29/8/5 25/12/5
f 32/5/6 28/13/6 26/14/6 30/7/6
f 33/1/1 34/2/1 36/3/1 35/4/1
f 35/4/2 36/3/2 40/5/2 39/6/2
f 39/6/3 40/5/3 38/7/3 37/8/3
f 37/8/4 38/7/4 34/9/4 33/10/4
f 35/11/5 39/6/5 37/8/5 33/12/5
f 40/5/6 36/13/6 34/14/6 38/7/6
f 81/15/7 82/16/7 84/17/7 83/18/7
f 83/18/8 84/17/8 86/19/8 85/13/8
f 85/13/9 86/19/9 88/20/9 87/21/9
f 87/21/10 88/20/10 90/22/10 89/23/10
f 89/23/11 90/22/11 92/24/11 91/25/11
f 91/25/12 92/24/12 94/9/12 93/5/12
f 93/5/13 94/9/13 96/26/13 95/27/13
f 95/27/14 96/26/14 98/28/14 97/29/14
f 97/29/15 98/28/15 100/30/15 99/31/15
f 99/31/16 100/30/16 102/10/16 101/6/16
f 101/6/17 102/10/17 104/32/17 103/33/17
f 103/33/18 104/32/18 106/34/18 105/35/18
f 105/35/19 106/34/19 108/36/19 107/37/19
f 107/37/20 108/36/20 110/38/20 109/11/20
f 84/39/4 82/40/4 112/41/4 110/75/4 108/76/4 106/44/4 104/77/4 102/78/4 100/79/4 98/48/4 96/80/4 94/81/4 92/51/4 90/52/4 88/53/4 86/54/4
f 109/11/21 110/38/21 112/55/21 111/56/21
f 111/56/22 112/55/22 82/57/22 81/58/22
f 81/59/2 83/60/2 85/61/2 87/62/2 89/63/2 91/64/2 93/82/2 95/83/2 97/67/2 99/84/2 101/85/2 103/70/2 105/71/2 107/72/2 109/73/2 111/74/2
f 113/1/1 114/2/1 116/3/1 115/4/1
f 115/4/2 116/3/2 120/5/2 119/6/2
f 119/6/3 120/5/3 118/7/3 117/8/3
f 117/8/4 118/7/4 114/9/4 113/10/4
f 115/11/5 119/6/5 117/8/5 113/12/5
f 120/5/6 116/13/6 114/14/6 118/7/6
f 299/1/1 300/2/1 302/3/1 301/4/1
f 301/4/2 302/3/2 306/5/2 305/6/2
f 305/6/3 306/5/3 304/7/3 303/8/3
f 303/8/4 304/7/4 300/9/4 299/10/4
f 301/11/5 305/6/5 303/8/5 299/12/5
f 306/5/6 302/13/6 300/14/6 304/7/6
f 695/1/1 696/2/1 698/3/1 697/4/1
f 697/4/2 698/3/2 702/5/2 701/6/2
f 701/6/3 702/5/3 700/7/3 699/8/3
f 699/8/4 700/7/4 696/9/4 695/10/4
f 697/11/5 701/6/5 699/8/5 695/12/5
f 702/5/6 698/13/6 696/14/6 700/7/6
f 703/1/1 704/2/1 706/3/1 705/4/1
f 705/4/2 706/3/2 710/5/2 709/6/2
f 709/6/3 710/5/3 708/7/3 707/8/3
f 707/8/4 708/7/4 704/9/4 703/10/4
f 705/11/5 709/6/5 707/8/5 703/12/5
f 710/5/6 706/13/6 704/14/6 708/7/6
usemtl Mat_PistolBarrel
f 41/1/1 42/2/1 44/3/1 43/4/1
f 43/4/2 44/3/2 48/5/2 47/6/2
f 47/6/3 48/5/3 46/7/3 45/8/3
f 45/8/4 46/7/4 42/9/4 41/10/4
f 43/11/5 47/6/5 45/8/5 41/12/5
f 48/5/6 44/13/6 42/14/6 46/7/6
f 49/15/7 50/16/7 52/17/7 51/18/7
f 51/18/8 52/17/8 54/19/8 53/13/8
f 53/13/9 54/19/9 56/20/9 55/21/9
f 55/21/10 56/20/10 58/22/10 57/23/10
f 57/23/11 58/22/11 60/24/11 59/25/11
f 59/25/12 60/24/12 62/9/12 61/5/12
f 61/5/13 62/9/13 64/26/13 63/27/13
f 63/27/14 64/26/14 66/28/14 65/29/14
f 65/29/15 66/28/15 68/30/15 67/31/15
f 67/31/16 68/30/16 70/10/16 69/6/16
f 69/6/17 70/10/17 72/32/17 71/33/17
f 71/33/18 72/32/18 74/34/18 73/35/18
f 73/35/19 74/34/19 76/36/19 75/37/19
f 75/37/20 76/36/20 78/38/20 77/11/20
f 52/39/4 50/40/4 80/41/4 78/42/4 76/43/4 74/44/4 72/45/4 70/46/4 68/47/4 66/48/4 64/49/4 62/50/4 60/51/4 58/52/4 56/53/4 54/54/4
f 77/11/21 78/38/21 80/55/21 79/56/21
f 79/56/22 80/55/22 50/57/22 49/58/22
f 49/59/2 51/60/2 53/61/2 55/62/2 57/63/2 59/64/2 61/65/2 63/66/2 65/67/2 67/68/2 69/69/2 71/70/2 73/71/2 75/72/2 77/73/2 79/74/2
usemtl Mat_TritiumDot
f 126/86/23 125/23/23 135/25/23 136/87/23
f 123/88/24 297/89/24 132/90/24 133/91/24
f 129/92/25 128/93/25 139/94/25 140/95/25
f 121/96/26 141/97/26 130/98/26
f 127/99/27 126/86/27 136/87/27 137/100/27
f 124/101/28 123/88/28 133/91/28 134/102/28
f 230/103/29 129/92/29 140/95/29
f 122/104/30 121/96/30 130/98/30 131/105/30
f 298/106/31 127/99/31 137/100/31 138/107/31
f 125/23/32 124/101/32 134/102/32 135/25/32
f 297/89/33 122/104/33 131/105/33 132/90/33
f 128/93/34 298/106/34 138/107/34 139/94/34
f 134/102/35 133/91/35 145/108/35 146/109/35
f 230/110/36 140/95/36 152/111/36
f 131/105/37 130/98/37 142/112/37 143/113/37
f 138/107/38 137/100/38 149/114/38 150/3/38
f 135/25/39 134/102/39 146/109/39 147/5/39
f 132/90/40 131/105/40 143/113/40 144/7/40
f 139/94/41 138/107/41 150/3/41 151/115/41
f 136/87/42 135/25/42 147/5/42 148/116/42
f 133/91/43 132/90/43 144/7/43 145/108/43
f 140/95/44 139/94/44 151/115/44 152/111/44
f 130/98/45 141/117/45 142/112/45
f 137/100/46 136/87/46 148/116/46 149/114/46
f 145/108/47 144/7/47 155/118/47 156/119/47
f 152/111/48 151/115/48 162/120/48 163/121/48
f 142/112/49 141/122/49 153/123/49
f 149/114/50 148/116/50 159/124/50 160/125/50
f 146/109/51 145/108/51 156/119/51 157/126/51
f 230/127/52 152/111/52 163/121/52
f 143/113/53 142/112/53 153/123/53 154/128/53
f 150/3/54 149/114/54 160/125/54 161/129/54
f 147/5/55 146/109/55 157/126/55 158/27/55
f 144/7/56 143/113/56 154/128/56 155/118/56
f 151/115/57 150/3/57 161/129/57 162/120/57
f 148/116/58 147/5/58 158/27/58 159/124/58
f 158/27/59 157/126/59 168/130/59 169/131/59
f 155/118/60 154/128/60 165/132/60 166/133/60
f 162/120/61 161/129/61 172/134/61 173/135/61
f 159/124/62 158/27/62 169/131/62 170/136/62
f 156/119/63 155/118/63 166/133/63 167/137/63
f 163/121/64 162/120/64 173/135/64 174/138/64
f 153/123/65 141/139/65 164/140/65
f 160/125/66 159/124/66 170/136/66 171/141/66
f 157/126/67 156/119/67 167/137/67 168/130/67
f 230/142/68 163/121/68 174/138/68
f 154/128/69 153/123/69 164/140/69 165/132/69
f 161/129/70 160/125/70 171/141/70 172/134/70
f 168/130/71 167/137/71 178/143/71 179/144/71
f 230/145/72 174/138/72 185/146/72
f 165/132/73 164/140/73 175/147/73 176/148/73
f 172/134/74 171/141/74 182/149/74 183/150/74
f 169/131/75 168/130/75 179/144/75 180/151/75
f 166/133/76 165/132/76 176/148/76 177/152/76
f 173/135/77 172/134/77 183/150/77 184/153/77
f 170/136/78 169/131/78 180/151/78 181/154/78
f 167/137/79 166/133/79 177/152/79 178/143/79
f 174/138/80 173/135/80 184/153/80 185/146/80
f 164/140/81 141/155/81 175/147/81
f 171/141/82 170/136/82 181/154/82 182/149/82
f 181/154/83 180/151/83 191/156/83 192/157/83
f 178/143/84 177/152/84 188/158/84 189/159/84
f 185/146/85 184/153/85 195/160/85 196/161/85
f 175/147/86 141/162/86 186/163/86
f 182/149/87 181/154/87 192/157/87 193/164/87
f 179/144/88 178/143/88 189/159/88 190/165/88
f 230/166/89 185/146/89 196/161/89
f 176/148/90 175/147/90 186/163/90 187/167/90
f 183/150/91 182/149/91 193/164/91 194/168/91
f 180/151/92 179/144/92 190/165/92 191/156/92
f 177/152/93 176/148/93 187/167/93 188/158/93
f 184/153/94 183/150/94 194/168/94 195/160/94
f 191/156/95 190/165/95 201/169/95 202/170/95
f 188/158/96 187/167/96 198/171/96 199/172/96
f 195/160/97 194/168/97 205/173/97 206/174/97
f 192/157/98 191/156/98 202/170/98 203/175/98
f 189/159/99 188/158/99 199/172/99 200/176/99
f 196/161/100 195/160/100 206/174/100 207/177/100
f 186/163/101 141/178/101 197/179/101
f 193/164/102 192/157/102 203/175/102 204/180/102
f 190/165/103 189/159/103 200/176/103 201/169/103
f 230/181/104 196/161/104 207/177/104
f 187/167/105 186/163/105 197/179/105 198/171/105
f 194/168/106 193/164/106 204/180/106 205/173/106
f 204/180/107 203/175/107 214/182/107 215/183/107
f 201/169/108 200/176/108 211/184/108 212/185/108
f 230/186/109 207/177/109 218/187/109
f 198/171/110 197/179/110 208/188/110 209/189/110
f 205/173/111 204/180/111 215/183/111 216/190/111
f 202/170/112 201/169/112 212/185/112 213/191/112
f 199/172/113 198/171/113 209/189/113 210/192/113
f 206/174/114 205/173/114 216/190/114 217/193/114
f 203/175/115 202/170/115 213/191/115 214/182/115
f 200/176/116 199/172/116 210/192/116 211/184/116
f 207/177/117 206/174/117 217/193/117 218/187/117
f 197/179/118 141/194/118 208/188/118
f 214/182/119 213/191/119 224/195/119 225/196/119
f 211/184/120 210/192/120 221/197/120 222/198/120
f 218/187/121 217/193/121 228/199/121 229/200/121
f 208/188/122 141/201/122 219/202/122
f 215/183/123 214/182/123 225/196/123 226/203/123
f 212/185/124 211/184/124 222/198/124 223/204/124
f 230/205/125 218/187/125 229/200/125
f 209/189/126 208/188/126 219/202/126 220/206/126
f 216/190/127 215/183/127 226/203/127 227/207/127
f 213/191/128 212/185/128 223/204/128 224/195/128
f 210/192/129 209/189/129 220/206/129 221/197/129
f 217/193/130 216/190/130 227/207/130 228/199/130
f 227/207/131 226/203/131 238/208/131 239/209/131
f 224/195/132 223/204/132 235/210/132 236/211/132
f 221/197/133 220/206/133 232/212/133 233/213/133
f 228/199/134 227/207/134 239/209/134 240/214/134
f 225/196/135 224/195/135 236/211/135 237/215/135
f 222/198/136 221/197/136 233/213/136 234/216/136
f 229/200/137 228/199/137 240/214/137 241/217/137
f 219/202/138 141/218/138 231/219/138
f 226/203/139 225/196/139 237/215/139 238/208/139
f 223/204/140 222/198/140 234/216/140 235/210/140
f 230/220/141 229/200/141 241/217/141
f 220/206/142 219/202/142 231/219/142 232/212/142
f 231/219/143 141/221/143 242/222/143
f 238/208/144 237/215/144 248/223/144 249/224/144
f 235/210/145 234/216/145 245/225/145 246/226/145
f 230/227/146 241/217/146 252/228/146
f 232/212/147 231/219/147 242/222/147 243/229/147
f 239/209/148 238/208/148 249/224/148 250/230/148
f 236/211/149 235/210/149 246/226/149 247/231/149
f 233/213/150 232/212/150 243/229/150 244/232/150
f 240/214/151 239/209/151 250/230/151 251/233/151
f 237/215/152 236/211/152 247/231/152 248/223/152
f 234/216/153 233/213/153 244/232/153 245/225/153
f 241/217/154 240/214/154 251/233/154 252/228/154
f 251/233/155 250/230/155 261/234/155 262/235/155
f 248/223/156 247/231/156 258/58/156 259/236/156
f 245/225/157 244/232/157 255/237/157 256/238/157
f 252/228/158 251/233/158 262/235/158 263/239/158
f 242/222/159 141/240/159 253/241/159
f 249/224/160 248/223/160 259/236/160 260/242/160
f 246/226/161 245/225/161 256/238/161 257/243/161
f 230/244/162 252/228/162 263/239/162
f 243/229/163 242/222/163 253/241/163 254/245/163
f 250/230/164 249/224/164 260/242/164 261/234/164
f 247/231/165 246/226/165 257/243/165 258/58/165
f 244/232/166 243/229/166 254/245/166 255/237/166
f 254/246/167 253/247/167 264/248/167 265/249/167
f 261/250/168 260/251/168 271/252/168 272/253/168
f 258/15/169 257/254/169 268/255/169 269/256/169
f 255/257/170 254/246/170 265/249/170 266/258/170
f 262/259/171 261/250/171 272/253/171 273/260/171
f 259/261/172 258/15/172 269/256/172 270/262/172
f 256/263/173 255/257/173 266/258/173 267/264/173
f 263/265/174 262/259/174 273/260/174 274/266/174
f 253/247/175 141/267/175 264/248/175
f 260/251/176 259/261/176 270/262/176 271/252/176
f 257/254/177 256/263/177 267/264/177 268/255/177
f 230/268/178 263/265/178 274/266/178
f 274/266/179 273/260/179 284/269/179 285/270/179
f 264/248/180 141/271/180 275/272/180
f 271/252/181 270/262/181 281/273/181 282/274/181
f 268/255/182 267/264/182 278/275/182 279/276/182
f 230/277/183 274/266/183 285/270/183
f 265/249/184 264/248/184 275/272/184 276/278/184
f 272/253/185 271/252/185 282/274/185 283/279/185
f 269/256/186 268/255/186 279/276/186 280/280/186
f 266/258/187 265/249/187 276/278/187 277/281/187
f 273/260/188 272/253/188 283/279/188 284/269/188
f 270/262/189 269/256/189 280/280/189 281/273/189
f 267/264/190 266/258/190 277/281/190 278/275/190
f 277/281/191 276/278/191 287/282/191 288/283/191
f 284/269/192 283/279/192 294/284/192 295/285/192
f 281/273/193 280/280/193 291/286/193 292/287/193
f 278/275/194 277/281/194 288/283/194 289/288/194
f 285/270/195 284/269/195 295/285/195 296/289/195
f 275/272/196 141/290/196 286/291/196
f 282/274/197 281/273/197 292/287/197 293/292/197
f 279/276/198 278/275/198 289/288/198 290/293/198
f 230/294/199 285/270/199 296/289/199
f 276/278/200 275/272/200 286/291/200 287/282/200
f 283/279/201 282/274/201 293/292/201 294/284/201
f 280/280/202 279/276/202 290/293/202 291/286/202
f 230/295/203 296/289/203 129/92/203
f 287/282/204 286/291/204 121/96/204 122/104/204
f 294/284/205 293/292/205 127/99/205 298/106/205
f 291/286/206 290/293/206 124/101/206 125/23/206
f 288/283/207 287/282/207 122/104/207 297/89/207
f 295/285/208 294/284/208 298/106/208 128/93/208
f 292/287/209 291/286/209 125/23/209 126/86/209
f 289/288/210 288/283/210 297/89/210 123/88/210
f 296/289/211 295/285/211 128/93/211 129/92/211
f 286/291/212 141/296/212 121/96/212
f 293/292/213 292/287/213 126/86/213 127/99/213
f 290/293/214 289/288/214 123/88/214 124/101/214
f 310/101/28 309/297/28 318/298/28 319/102/28
f 415/103/29 314/92/29 325/95/29
f 308/104/30 307/96/30 315/98/30 316/105/30
f 484/299/31 312/99/31 322/100/31 323/107/31
f 311/23/32 310/101/32 319/102/32 320/25/32
f 482/89/33 308/104/33 316/105/33 317/90/33
f 313/93/34 484/299/34 323/107/34 324/94/34
f 483/300/23 311/23/23 320/25/23 321/87/23
f 309/297/24 482/89/24 317/90/24 318/298/24
f 314/92/25 313/93/25 324/94/25 325/95/25
f 307/96/215 326/97/215 315/98/215
f 312/99/27 483/300/27 321/87/27 322/100/27
f 317/90/40 316/105/40 328/113/40 329/7/40
f 324/94/41 323/107/41 335/3/41 336/115/41
f 321/87/42 320/25/42 332/5/42 333/116/42
f 318/298/216 317/90/216 329/7/216 330/301/216
f 325/95/217 324/94/217 336/115/217 337/111/217
f 315/98/45 326/117/45 327/112/45
f 322/100/46 321/87/46 333/116/46 334/114/46
f 319/102/35 318/298/35 330/301/35 331/109/35
f 415/110/36 325/95/36 337/111/36
f 316/105/37 315/98/37 327/112/37 328/113/37
f 323/107/38 322/100/38 334/114/38 335/3/38
f 320/25/39 319/102/39 331/109/39 332/5/39
f 415/127/52 337/111/52 348/121/52
f 328/113/53 327/112/53 338/123/53 339/128/53
f 335/3/218 334/114/218 345/125/218 346/129/218
f 332/5/55 331/109/55 342/126/55 343/27/55
f 329/7/56 328/113/56 339/128/56 340/118/56
f 336/115/219 335/3/219 346/129/219 347/120/219
f 333/116/58 332/5/58 343/27/58 344/124/58
f 330/301/47 329/7/47 340/118/47 341/302/47
f 337/111/48 336/115/48 347/120/48 348/121/48
f 327/112/49 326/122/49 338/123/49
f 334/114/50 333/116/50 344/124/50 345/125/50
f 331/109/51 330/301/51 341/302/51 342/126/51
f 341/302/63 340/118/63 351/133/63 352/137/63
f 348/121/64 347/120/64 358/303/64 359/304/64
f 338/123/65 326/139/65 349/305/65
f 345/125/66 344/124/66 355/136/66 356/141/66
f 342/126/67 341/302/67 352/137/67 353/130/67
f 415/142/68 348/121/68 359/304/68
f 339/128/69 338/123/69 349/305/69 350/306/69
f 346/129/70 345/125/70 356/141/70 357/134/70
f 343/27/59 342/126/59 353/130/59 354/29/59
f 340/118/60 339/128/60 350/306/60 351/133/60
f 347/120/61 346/129/61 357/134/61 358/303/61
f 344/124/62 343/27/62 354/29/62 355/136/62
f 351/133/76 350/306/76 361/148/76 362/152/76
f 358/303/220 357/134/220 368/150/220 369/153/220
f 355/136/78 354/29/78 365/151/78 366/307/78
f 352/137/79 351/133/79 362/152/79 363/143/79
f 359/304/80 358/303/80 369/153/80 370/308/80
f 349/305/81 326/155/81 360/309/81
f 356/141/82 355/136/82 366/307/82 367/149/82
f 353/130/71 352/137/71 363/143/71 364/310/71
f 415/145/72 359/304/72 370/308/72
f 350/306/73 349/305/73 360/309/73 361/148/73
f 357/134/74 356/141/74 367/149/74 368/150/74
f 354/29/75 353/130/75 364/310/75 365/151/75
f 364/310/88 363/143/88 374/159/88 375/311/88
f 415/312/89 370/308/89 381/313/89
f 361/148/90 360/309/90 371/314/90 372/315/90
f 368/150/91 367/149/91 378/164/91 379/316/91
f 365/151/92 364/310/92 375/311/92 376/6/92
f 362/152/93 361/148/93 372/315/93 373/317/93
f 369/153/94 368/150/94 379/316/94 380/318/94
f 366/307/83 365/151/83 376/6/83 377/319/83
f 363/143/221 362/152/221 373/317/221 374/159/221
f 370/308/85 369/153/85 380/318/85 381/313/85
f 360/309/86 326/320/86 371/314/86
f 367/149/87 366/307/87 377/319/87 378/164/87
f 374/159/222 373/317/222 384/321/222 385/176/222
f 381/313/100 380/318/100 391/322/100 392/177/100
f 371/314/101 326/323/101 382/179/101
f 378/164/102 377/319/102 388/324/102 389/180/102
f 375/311/103 374/159/103 385/176/103 386/325/103
f 415/326/104 381/313/104 392/177/104
f 372/315/105 371/314/105 382/179/105 383/327/105
f 379/316/223 378/164/223 389/180/223 390/173/223
f 376/6/95 375/311/95 386/325/95 387/328/95
f 373/317/96 372/315/96 383/327/96 384/321/96
f 380/318/97 379/316/97 390/173/97 391/322/97
f 377/319/98 376/6/98 387/328/98 388/324/98
f 387/328/112 386/325/112 397/185/112 398/329/112
f 384/321/113 383/327/113 394/330/113 395/331/113
f 391/322/114 390/173/114 401/190/114 402/332/114
f 388/324/115 387/328/115 398/329/115 399/333/115
f 385/176/116 384/321/116 395/331/116 396/184/116
f 392/177/117 391/322/117 402/332/117 403/187/117
f 382/179/224 326/334/224 393/188/224
f 389/180/107 388/324/107 399/333/107 400/183/107
f 386/325/108 385/176/108 396/184/108 397/185/108
f 415/335/109 392/177/109 403/187/109
f 383/327/110 382/179/110 393/188/110 394/330/110
f 390/173/111 389/180/111 400/183/111 401/190/111
f 397/185/124 396/184/124 407/198/124 408/204/124
f 415/205/125 403/187/125 414/200/125
f 394/330/126 393/188/126 404/202/126 405/336/126
f 401/190/127 400/183/127 411/203/127 412/207/127
f 398/329/128 397/185/128 408/204/128 409/337/128
f 395/331/129 394/330/129 405/336/129 406/338/129
f 402/332/130 401/190/130 412/207/130 413/339/130
f 399/333/119 398/329/119 409/337/119 410/340/119
f 396/184/120 395/331/120 406/338/120 407/198/120
f 403/187/121 402/332/121 413/339/121 414/200/121
f 393/188/225 326/201/225 404/202/225
f 400/183/123 399/333/123 410/340/123 411/203/123
f 410/340/135 409/337/135 421/341/135 422/342/135
f 407/198/226 406/338/226 418/343/226 419/344/226
f 414/200/227 413/339/227 425/345/227 426/346/227
f 404/202/138 326/347/138 416/348/138
f 411/203/139 410/340/139 422/342/139 423/208/139
f 408/204/140 407/198/140 419/344/140 420/349/140
f 415/350/141 414/200/141 426/346/141
f 405/336/142 404/202/142 416/348/142 417/351/142
f 412/207/131 411/203/131 423/208/131 424/352/131
f 409/337/132 408/204/132 420/349/132 421/341/132
f 406/338/133 405/336/133 417/351/133 418/343/133
f 413/339/134 412/207/134 424/352/134 425/345/134
f 421/341/149 420/349/149 431/226/149 432/56/149
f 418/343/150 417/351/150 428/353/150 429/354/150
f 425/345/151 424/352/151 435/355/151 436/356/151
f 422/342/152 421/341/152 432/56/152 433/357/152
f 419/344/153 418/343/153 429/354/153 430/358/153
f 426/346/154 425/345/154 436/356/154 437/359/154
f 416/348/143 326/221/143 427/360/143
f 423/208/144 422/342/144 433/357/144 434/224/144
f 420/349/145 419/344/145 430/358/145 431/226/145
f 415/227/146 426/346/146 437/359/146
f 417/351/147 416/348/147 427/360/147 428/353/147
f 424/352/148 423/208/148 434/224/148 435/355/148
f 434/224/160 433/357/160 444/361/160 445/242/160
f 431/226/161 430/358/161 441/238/161 442/243/161
f 415/362/162 437/359/162 448/239/162
f 428/353/163 427/360/163 438/241/163 439/245/163
f 435/355/164 434/224/164 445/242/164 446/363/164
f 432/56/165 431/226/165 442/243/165 443/58/165
f 429/354/228 428/353/228 439/245/228 440/237/228
f 436/356/155 435/355/155 446/363/155 447/364/155
f 433/357/156 432/56/156 443/58/156 444/361/156
f 430/358/157 429/354/157 440/237/157 441/238/157
f 437/359/158 436/356/158 447/364/158 448/239/158
f 427/360/159 326/365/159 438/241/159
f 444/366/172 443/15/172 454/367/172 455/368/172
f 441/263/173 440/257/173 451/258/173 452/369/173
f 448/265/174 447/370/174 458/371/174 459/266/174
f 438/247/175 326/372/175 449/248/175
f 445/251/176 444/366/176 455/368/176 456/373/176
f 442/254/177 441/263/177 452/369/177 453/374/177
f 415/375/178 448/265/178 459/266/178
f 439/246/167 438/247/167 449/248/167 450/376/167
f 446/377/168 445/251/168 456/373/168 457/378/168
f 443/15/169 442/254/169 453/374/169 454/367/169
f 440/257/170 439/246/170 450/376/170 451/258/170
f 447/370/229 446/377/229 457/378/229 458/371/229
f 457/378/185 456/373/185 467/274/185 468/379/185
f 454/367/186 453/374/186 464/276/186 465/280/186
f 451/258/187 450/376/187 461/278/187 462/281/187
f 458/371/188 457/378/188 468/379/188 469/380/188
f 455/368/189 454/367/189 465/280/189 466/381/189
f 452/369/190 451/258/190 462/281/190 463/382/190
f 459/266/179 458/371/179 469/380/179 470/270/179
f 449/248/180 326/271/180 460/272/180
f 456/373/181 455/368/181 466/381/181 467/274/181
f 453/374/182 452/369/182 463/382/182 464/276/182
f 415/277/183 459/266/183 470/270/183
f 450/376/184 449/248/184 460/272/184 461/278/184
f 460/272/196 326/383/196 471/384/196
f 467/274/197 466/381/197 477/385/197 478/292/197
f 464/276/198 463/382/198 474/386/198 475/293/198
f 415/387/199 470/270/199 481/388/199
f 461/278/200 460/272/200 471/384/200 472/389/200
f 468/379/230 467/274/230 478/292/230 479/390/230
f 465/280/202 464/276/202 475/293/202 476/391/202
f 462/281/191 461/278/191 472/389/191 473/283/191
f 469/380/192 468/379/192 479/390/192 480/392/192
f 466/381/193 465/280/193 476/391/193 477/385/193
f 463/382/231 462/281/231 473/283/231 474/386/231
f 470/270/195 469/380/195 480/392/195 481/388/195
f 480/392/208 479/390/208 484/299/208 313/93/208
f 477/385/209 476/391/209 311/23/209 483/300/209
f 474/386/210 473/283/210 482/89/210 309/297/210
f 481/388/211 480/392/211 313/93/211 314/92/211
f 471/384/232 326/296/232 307/96/232
f 478/292/213 477/385/213 483/300/213 312/99/213
f 475/293/214 474/386/214 309/297/214 310/101/214
f 415/295/203 481/388/203 314/92/203
f 472/389/204 471/384/204 307/96/204 308/104/204
f 479/390/205 478/292/205 312/99/205 484/299/205
f 476/391/206 475/293/206 310/101/206 311/23/206
f 473/283/207 472/389/207 308/104/207 482/89/207
f 593/103/29 492/92/29 503/95/29
f 486/104/30 485/96/30 493/98/30 494/105/30
f 662/299/31 490/99/31 500/100/31 501/107/31
f 489/23/32 488/101/32 497/102/32 498/25/32
f 660/89/33 486/104/33 494/105/33 495/90/33
f 491/93/34 662/299/34 501/107/34 502/94/34
f 661/300/23 489/23/23 498/25/23 499/87/23
f 487/297/24 660/89/24 495/90/24 496/298/24
f 492/92/25 491/93/25 502/94/25 503/95/25
f 485/96/215 504/97/215 493/98/215
f 490/99/27 661/300/27 499/87/27 500/100/27
f 488/101/28 487/297/28 496/298/28 497/102/28
f 499/87/42 498/25/42 510/5/42 511/116/42
f 496/298/216 495/90/216 507/7/216 508/301/216
f 503/95/217 502/94/217 514/115/217 515/111/217
f 493/98/45 504/117/45 505/112/45
f 500/100/46 499/87/46 511/116/46 512/114/46
f 497/102/35 496/298/35 508/301/35 509/109/35
f 593/110/36 503/95/36 515/111/36
f 494/105/37 493/98/37 505/112/37 506/113/37
f 501/107/38 500/100/38 512/114/38 513/3/38
f 498/25/39 497/102/39 509/109/39 510/5/39
f 495/90/40 494/105/40 506/113/40 507/7/40
f 502/94/41 501/107/41 513/3/41 514/115/41
f 513/3/218 512/114/218 523/125/218 524/129/218
f 510/5/55 509/109/55 520/126/55 521/27/55
f 507/7/56 506/113/56 517/128/56 518/118/56
f 514/115/219 513/3/219 524/129/219 525/120/219
f 511/116/58 510/5/58 521/27/58 522/124/58
f 508/301/47 507/7/47 518/118/47 519/302/47
f 515/111/48 514/115/48 525/120/48 526/121/48
f 505/112/49 504/122/49 516/123/49
f 512/114/50 511/116/50 522/124/50 523/125/50
f 509/109/51 508/301/51 519/302/51 520/126/51
f 593/127/52 515/111/52 526/121/52
f 506/113/53 505/112/53 516/123/53 517/128/53
f 516/123/65 504/139/65 527/305/65
f 523/125/66 522/124/66 533/136/66 534/141/66
f 520/126/67 519/302/67 530/137/67 531/130/67
f 593/142/68 526/121/68 537/304/68
f 517/128/69 516/123/69 527/305/69 528/306/69
f 524/129/70 523/125/70 534/141/70 535/134/70
f 521/27/59 520/126/59 531/130/59 532/29/59
f 518/118/60 517/128/60 528/306/60 529/133/60
f 525/120/61 524/129/61 535/134/61 536/303/61
f 522/124/62 521/27/62 532/29/62 533/136/62
f 519/302/63 518/118/63 529/133/63 530/137/63
f 526/121/64 525/120/64 536/303/64 537/304/64
f 536/303/220 535/134/220 546/150/220 547/153/220
f 533/136/78 532/29/78 543/151/78 544/307/78
f 530/137/79 529/133/79 540/152/79 541/143/79
f 537/304/80 536/303/80 547/153/80 548/308/80
f 527/305/81 504/155/81 538/309/81
f 534/141/82 533/136/82 544/307/82 545/149/82
f 531/130/71 530/137/71 541/143/71 542/310/71
f 593/145/72 537/304/72 548/308/72
f 528/306/73 527/305/73 538/309/73 539/148/73
f 535/134/74 534/141/74 545/149/74 546/150/74
f 532/29/75 531/130/75 542/310/75 543/151/75
f 529/133/76 528/306/76 539/148/76 540/152/76
f 539/148/90 538/309/90 549/314/90 550/315/90
f 546/150/91 545/149/91 556/164/91 557/316/91
f 543/151/92 542/310/92 553/311/92 554/6/92
f 540/152/93 539/148/93 550/315/93 551/317/93
f 547/153/94 546/150/94 557/316/94 558/318/94
f 544/307/83 543/151/83 554/6/83 555/319/83
f 541/143/221 540/152/221 551/317/221 552/159/221
f 548/308/85 547/153/85 558/318/85 559/313/85
f 538/309/86 504/320/86 549/314/86
f 545/149/87 544/307/87 555/319/87 556/164/87
f 542/310/88 541/143/88 552/159/88 553/311/88
f 593/312/89 548/308/89 559/313/89
f 559/313/100 558/318/100 569/322/100 570/177/100
f 549/314/101 504/323/101 560/179/101
f 556/164/102 555/319/102 566/324/102 567/180/102
f 553/311/103 552/159/103 563/176/103 564/325/103
f 593/326/104 559/313/104 570/177/104
f 550/315/105 549/314/105 560/179/105 561/327/105
f 557/316/223 556/164/223 567/180/223 568/173/223
f 554/6/95 553/311/95 564/325/95 565/328/95
f 551/317/96 550/315/96 561/327/96 562/321/96
f 558/318/97 557/316/97 568/173/97 569/322/97
f 555/319/98 554/6/98 565/328/98 566/324/98
f 552/159/99 551/317/99 562/321/99 563/176/99
f 562/321/113 561/327/113 572/330/113 573/331/113
f 569/322/114 568/173/114 579/190/114 580/332/114
f 566/324/115 565/328/115 576/329/115 577/333/115
f 563/176/116 562/321/116 573/331/116 574/184/116
f 570/177/117 569/322/117 580/332/117 581/187/117
f 560/179/224 504/334/224 571/188/224
f 567/180/107 566/324/107 577/333/107 578/183/107
f 564/325/108 563/176/108 574/184/108 575/185/108
f 593/335/109 570/177/109 581/187/109
f 561/327/110 560/179/110 571/188/110 572/330/110
f 568/173/111 567/180/111 578/183/111 579/190/111
f 565/328/112 564/325/112 575/185/112 576/329/112
f 593/205/125 581/187/125 592/200/125
f 572/330/126 571/188/126 582/202/126 583/336/126
f 579/190/127 578/183/127 589/203/127 590/207/127
f 576/329/128 575/185/128 586/204/128 587/337/128
f 573/331/129 572/330/129 583/336/129 584/338/129
f 580/332/130 579/190/130 590/207/130 591/339/130
f 577/333/119 576/329/119 587/337/119 588/340/119
f 574/184/120 573/331/120 584/338/120 585/198/120
f 581/187/121 580/332/121 591/339/121 592/200/121
f 571/188/225 504/201/225 582/202/225
f 578/183/123 577/333/123 588/340/123 589/203/123
f 575/185/124 574/184/124 585/198/124 586/204/124
f 585/198/226 584/338/226 596/343/226 597/344/226
f 592/200/227 591/339/227 603/345/227 604/346/227
f 582/202/138 504/347/138 594/348/138
f 589/203/139 588/340/139 600/342/139 601/208/139
f 586/204/140 585/198/140 597/344/140 598/349/140
f 593/350/141 592/200/141 604/346/141
f 583/336/142 582/202/142 594/348/142 595/351/142
f 590/207/131 589/203/131 601/208/131 602/352/131
f 587/337/132 586/204/132 598/349/132 599/341/132
f 584/338/133 583/336/133 595/351/133 596/343/133
f 591/339/134 590/207/134 602/352/134 603/345/134
f 588/340/135 587/337/135 599/341/135 600/342/135
f 596/343/150 595/351/150 606/353/150 607/354/150
f 603/345/151 602/352/151 613/355/151 614/356/151
f 600/342/152 599/341/152 610/56/152 611/357/152
f 597/344/153 596/343/153 607/354/153 608/358/153
f 604/346/154 603/345/154 614/356/154 615/359/154
f 594/348/143 504/221/143 605/360/143
f 601/208/144 600/342/144 611/357/144 612/224/144
f 598/349/145 597/344/145 608/358/145 609/226/145
f 593/227/146 604/346/146 615/359/146
f 595/351/147 594/348/147 605/360/147 606/353/147
f 602/352/233 601/208/233 612/224/233 613/355/233
f 599/341/149 598/349/149 609/226/149 610/56/149
f 609/226/161 608/358/161 619/238/161 620/243/161
f 593/362/162 615/359/162 626/239/162
f 606/353/163 605/360/163 616/241/163 617/245/163
f 613/355/164 612/224/164 623/242/164 624/363/164
f 610/56/165 609/226/165 620/243/165 621/58/165
f 607/354/228 606/353/228 617/245/228 618/237/228
f 614/356/155 613/355/155 624/363/155 625/364/155
f 611/357/156 610/56/156 621/58/156 622/361/156
f 608/358/157 607/354/157 618/237/157 619/238/157
f 615/359/158 614/356/158 625/364/158 626/239/158
f 605/360/159 504/365/159 616/241/159
f 612/224/160 611/357/160 622/361/160 623/242/160
f 619/263/173 618/257/173 629/258/173 630/369/173
f 626/265/174 625/370/174 636/371/174 637/266/174
f 616/247/175 504/372/175 627/248/175
f 623/251/176 622/366/176 633/368/176 634/373/176
f 620/254/177 619/263/177 630/369/177 631/374/177
f 593/375/178 626/265/178 637/266/178
f 617/246/167 616/247/167 627/248/167 628/376/167
f 624/377/168 623/251/168 634/373/168 635/378/168
f 621/15/169 620/254/169 631/374/169 632/367/169
f 618/257/170 617/246/170 628/376/170 629/258/170
f 625/370/229 624/377/229 635/378/229 636/371/229
f 622/366/172 621/15/172 632/367/172 633/368/172
f 632/367/186 631/374/186 642/276/186 643/280/186
f 629/258/187 628/376/187 639/278/187 640/281/187
f 636/371/188 635/378/188 646/379/188 647/380/188
f 633/368/189 632/367/189 643/280/189 644/381/189
f 630/369/190 629/258/190 640/281/190 641/382/190
f 637/266/179 636/371/179 647/380/179 648/270/179
f 627/248/180 504/271/180 638/272/180
f 634/373/181 633/368/181 644/381/181 645/274/181
f 631/374/182 630/369/182 641/382/182 642/276/182
f 593/277/183 637/266/183 648/270/183
f 628/376/184 627/248/184 638/272/184 639/278/184
f 635/378/185 634/373/185 645/274/185 646/379/185
f 642/276/198 641/382/198 652/386/198 653/293/198
f 593/387/199 648/270/199 659/388/199
f 639/278/200 638/272/200 649/384/200 650/389/200
f 646/379/230 645/274/230 656/292/230 657/390/230
f 643/280/202 642/276/202 653/293/202 654/391/202
f 640/281/191 639/278/191 650/389/191 651/283/191
f 647/380/192 646/379/192 657/390/192 658/392/192
f 644/381/193 643/280/193 654/391/193 655/385/193
f 641/382/231 640/281/231 651/283/231 652/386/231
f 648/270/195 647/380/195 658/392/195 659/388/195
f 638/272/196 504/383/196 649/384/196
f 645/274/197 644/381/197 655/385/197 656/292/197
f 655/385/209 654/391/209 489/23/209 661/300/209
f 652/386/210 651/283/210 660/89/210 487/297/210
f 659/388/211 658/392/211 491/93/211 492/92/211
f 649/384/232 504/296/232 485/96/232
f 656/292/213 655/385/213 661/300/213 490/99/213
f 653/293/214 652/386/214 487/297/214 488/101/214
f 593/295/203 659/388/203 492/92/203
f 650/389/204 649/384/204 485/96/204 486/104/204
f 657/390/205 656/292/205 490/99/205 662/299/205
f 654/391/206 653/293/206 488/101/206 489/23/206
f 651/283/207 650/389/207 486/104/207 660/89/207
f 658/392/208 657/390/208 662/299/208 491/93/208
usemtl Mat_PistolPolymer
f 663/1/1 664/2/1 666/3/1 665/4/1
f 665/4/2 666/3/2 670/5/2 669/6/2
f 669/6/3 670/5/3 668/7/3 667/8/3
f 667/8/4 668/7/4 664/9/4 663/10/4
f 665/11/5 669/6/5 667/8/5 663/12/5
f 670/5/6 666/13/6 664/14/6 668/7/6
f 671/1/1 672/2/1 674/3/1 673/4/1
f 673/4/2 674/3/2 678/5/2 677/6/2
f 677/6/3 678/5/3 676/7/3 675/8/3
f 675/8/4 676/7/4 672/9/4 671/10/4
f 673/11/5 677/6/5 675/8/5 671/12/5
f 678/5/6 674/13/6 672/14/6 676/7/6
f 679/1/1 680/2/1 682/3/1 681/4/1
f 681/4/2 682/3/2 686/5/2 685/6/2
f 685/6/3 686/5/3 684/7/3 683/8/3
f 683/8/4 684/7/4 680/9/4 679/10/4
f 681/11/5 685/6/5 683/8/5 679/12/5
f 686/5/6 682/13/6 680/14/6 684/7/6
f 687/1/1 688/2/1 690/3/1 689/4/1
f 689/4/2 690/3/2 694/5/2 693/6/2
f 693/6/3 694/5/3 692/7/3 691/8/3
f 691/8/4 692/7/4 688/9/4 687/10/4
f 689/11/5 693/6/5 691/8/5 687/12/5
f 694/5/6 690/13/6 688/14/6 692/7/6
f 711/1/1 712/2/1 714/3/1 713/4/1
f 713/4/2 714/3/2 718/5/2 717/6/2
f 717/6/3 718/5/3 716/7/3 715/8/3
f 715/8/4 716/7/4 712/9/4 711/10/4
f 713/11/5 717/6/5 715/8/5 711/12/5
f 718/5/6 714/13/6 712/14/6 716/7/6
f 719/1/1 720/2/1 722/3/1 721/4/1
f 721/4/2 722/3/2 726/5/2 725/6/2
f 725/6/3 726/5/3 724/7/3 723/8/3
f 723/8/4 724/7/4 720/9/4 719/10/4
f 721/11/5 725/6/5 723/8/5 719/12/5
f 726/5/6 722/13/6 720/14/6 724/7/6
