# Blender 4.0.2
# www.blender.org
mtllib rifle.mtl
o Rifle_M4A1
v -0.021000 -0.160000 -0.007500
v -0.021000 0.060000 -0.007500
v -0.021000 -0.160000 -0.082500
v -0.021000 0.060000 -0.082500
v 0.021000 -0.160000 -0.007500
v 0.021000 0.060000 -0.007500
v 0.021000 -0.160000 -0.082500
v 0.021000 0.060000 -0.082500
v 0.017000 -0.052500 -0.049000
v 0.017000 -0.027500 -0.049000
v 0.017000 -0.052500 -0.067000
v 0.017000 -0.027500 -0.067000
v 0.031000 -0.052500 -0.049000
v 0.031000 -0.027500 -0.049000
v 0.031000 -0.052500 -0.067000
v 0.031000 -0.027500 -0.067000
v 0.018000 0.000759 -0.065145
v 0.018000 0.032479 -0.050354
v 0.018000 0.007521 -0.079646
v 0.018000 0.039241 -0.064855
v 0.034000 0.000759 -0.065145
v 0.034000 0.032479 -0.050354
v 0.034000 0.007521 -0.079646
v 0.034000 0.039241 -0.064855
v -0.016000 -0.097500 -0.083000
v -0.016000 -0.002500 -0.083000
v -0.016000 -0.097500 -0.101000
v -0.016000 -0.002500 -0.101000
v 0.016000 -0.097500 -0.083000
v 0.016000 -0.002500 -0.083000
v 0.016000 -0.097500 -0.101000
v 0.016000 -0.002500 -0.101000
v 0.000000 -0.032000 -0.172500
v 0.000000 -0.032000 -0.077500
v 0.006888 -0.033370 -0.172500
v 0.006888 -0.033370 -0.077500
v 0.012728 -0.037272 -0.172500
v 0.012728 -0.037272 -0.077500
v 0.016630 -0.043112 -0.172500
v 0.016630 -0.043112 -0.077500
v 0.018000 -0.050000 -0.172500
v 0.018000 -0.050000 -0.077500
v 0.016630 -0.056888 -0.172500
v 0.016630 -0.056888 -0.077500
v 0.012728 -0.062728 -0.172500
v 0.012728 -0.062728 -0.077500
v 0.006888 -0.066630 -0.172500
v 0.006888 -0.066630 -0.077500
v 0.000000 -0.068000 -0.172500
v 0.000000 -0.068000 -0.077500
v -0.006888 -0.066630 -0.172500
v -0.006888 -0.066630 -0.077500
v -0.012728 -0.062728 -0.172500
v -0.012728 -0.062728 -0.077500
v -0.016630 -0.056888 -0.172500
v -0.016630 -0.056888 -0.077500
v -0.018000 -0.050000 -0.172500
v -0.018000 -0.050000 -0.077500
v -0.016630 -0.043112 -0.172500
v -0.016630 -0.043112 -0.077500
v -0.012728 -0.037272 -0.172500
v -0.012728 -0.037272 -0.077500
v -0.006888 -0.033370 -0.172500
v -0.006888 -0.033370 -0.077500
v 0.001237 -0.046969 -0.126237
v 0.002143 -0.048250 -0.127143
v 0.002475 -0.050000 -0.127475
v 0.002143 -0.051750 -0.127143
v 0.001237 -0.053031 -0.126237
v 0.001750 -0.046969 -0.125000
v 0.003031 -0.048250 -0.125000
v 0.003500 -0.050000 -0.125000
v 0.003031 -0.051750 -0.125000
v 0.001750 -0.053031 -0.125000
v 0.001237 -0.046969 -0.123763
v 0.002143 -0.048250 -0.122857
v 0.002475 -0.050000 -0.122525
v 0.002143 -0.051750 -0.122857
v 0.001237 -0.053031 -0.123763
v 0.000000 -0.046969 -0.123250
v 0.000000 -0.048250 -0.121969
v 0.000000 -0.050000 -0.121500
v 0.000000 -0.051750 -0.121969
v 0.000000 -0.053031 -0.123250
v 0.000000 -0.046500 -0.125000
v -0.001237 -0.046969 -0.123763
v -0.002143 -0.048250 -0.122857
v -0.002475 -0.050000 -0.122525
v -0.002143 -0.051750 -0.122857
v -0.001237 -0.053031 -0.123763
v 0.000000 -0.053500 -0.125000
v -0.001750 -0.046969 -0.125000
v -0.003031 -0.048250 -0.125000
v -0.003500 -0.050000 -0.125000
v -0.003031 -0.051750 -0.125000
v -0.001750 -0.053031 -0.125000
v -0.001237 -0.046969 -0.126237
v -0.002143 -0.048250 -0.127143
v -0.002475 -0.050000 -0.127475
v -0.002143 -0.051750 -0.127143
v -0.001237 -0.053031 -0.126237
v 0.000000 -0.046969 -0.126750
v 0.000000 -0.048250 -0.128031
v 0.000000 -0.050000 -0.128500
v 0.000000 -0.051750 -0.128031
v 0.000000 -0.053031 -0.126750
v 0.000000 -0.234000 -0.172000
v 0.000000 -0.234000 0.068000
v 0.018385 -0.241615 -0.172000
v 0.018385 -0.241615 0.068000
v 0.026000 -0.260000 -0.172000
v 0.026000 -0.260000 0.068000
v 0.018385 -0.278385 -0.172000
v 0.018385 -0.278385 0.068000
v 0.000000 -0.286000 -0.172000
v 0.000000 -0.286000 0.068000
v -0.018385 -0.278385 -0.172000
v -0.018385 -0.278385 0.068000
v -0.026000 -0.260000 -0.172000
v -0.026000 -0.260000 0.068000
v -0.018385 -0.241615 -0.172000
v -0.018385 -0.241615 0.068000
v -0.011000 -0.370000 -0.077000
v -0.011000 0.010000 -0.077000
v -0.011000 -0.370000 -0.087000
v -0.011000 0.010000 -0.087000
v 0.011000 -0.370000 -0.077000
v 0.011000 0.010000 -0.077000
v 0.011000 -0.370000 -0.087000
v 0.011000 0.010000 -0.087000
v 0.000000 -0.411000 -0.122000
v 0.000000 -0.411000 0.018000
v 0.003905 -0.411891 -0.122000
v 0.003905 -0.411891 0.018000
v 0.007036 -0.414389 -0.122000
v 0.007036 -0.414389 0.018000
v 0.008774 -0.417997 -0.122000
v 0.008774 -0.417997 0.018000
v 0.008774 -0.422003 -0.122000
v 0.008774 -0.422003 0.018000
v 0.007036 -0.425611 -0.122000
v 0.007036 -0.425611 0.018000
v 0.003905 -0.428109 -0.122000
v 0.003905 -0.428109 0.018000
v 0.000000 -0.429000 -0.122000
v 0.000000 -0.429000 0.018000
v -0.003905 -0.428109 -0.122000
v -0.003905 -0.428109 0.018000
v -0.007036 -0.425611 -0.122000
v -0.007036 -0.425611 0.018000
v -0.008774 -0.422003 -0.122000
v -0.008774 -0.422003 0.018000
v -0.008774 -0.417997 -0.122000
v -0.008774 -0.417997 0.018000
v -0.007036 -0.414389 -0.122000
v -0.007036 -0.414389 0.018000
v -0.003905 -0.411891 -0.122000
v -0.003905 -0.411891 0.018000
v 0.000000 -0.488000 -0.071000
v 0.000000 -0.488000 -0.033000
v 0.006000 -0.489608 -0.071000
v 0.006000 -0.489608 -0.033000
v 0.010392 -0.494000 -0.071000
v 0.010392 -0.494000 -0.033000
v 0.012000 -0.500000 -0.071000
v 0.012000 -0.500000 -0.033000
v 0.010392 -0.506000 -0.071000
v 0.010392 -0.506000 -0.033000
v 0.006000 -0.510392 -0.071000
v 0.006000 -0.510392 -0.033000
v 0.000000 -0.512000 -0.071000
v 0.000000 -0.512000 -0.033000
v -0.006000 -0.510392 -0.071000
v -0.006000 -0.510392 -0.033000
v -0.010392 -0.506000 -0.071000
v -0.010392 -0.506000 -0.033000
v -0.012000 -0.500000 -0.071000
v -0.012000 -0.500000 -0.033000
v -0.010392 -0.494000 -0.071000
v -0.010392 -0.494000 -0.033000
v -0.006000 -0.489608 -0.071000
v -0.006000 -0.489608 -0.033000
v -0.013000 -0.101576 0.152912
v -0.013000 -0.038507 0.137187
v -0.013000 -0.141493 -0.007187
v -0.013000 -0.078424 -0.022912
v 0.013000 -0.101576 0.152912
v 0.013000 -0.038507 0.137187
v 0.013000 -0.141493 -0.007187
v 0.013000 -0.078424 -0.022912
v -0.016000 -0.022402 0.082884
v -0.016000 0.019322 0.099742
v -0.016000 0.020678 -0.023742
v -0.016000 0.062402 -0.006884
v 0.016000 -0.022402 0.082884
v 0.016000 0.019322 0.099742
v 0.016000 0.020678 -0.023742
v 0.016000 0.062402 -0.006884
v -0.003000 -0.022690 0.001144
v -0.003000 -0.011099 -0.001962
v -0.003000 -0.028901 -0.022038
v -0.003000 -0.017310 -0.025144
v 0.003000 -0.022690 0.001144
v 0.003000 -0.011099 -0.001962
v 0.003000 -0.028901 -0.022038
v 0.003000 -0.017310 -0.025144
v 0.000000 0.145000 -0.132000
v 0.000000 0.145000 0.028000
v 0.007500 0.142990 -0.132000
v 0.007500 0.142990 0.028000
v 0.012990 0.137500 -0.132000
v 0.012990 0.137500 0.028000
v 0.015000 0.130000 -0.132000
v 0.015000 0.130000 0.028000
v 0.012990 0.122500 -0.132000
v 0.012990 0.122500 0.028000
v 0.007500 0.117010 -0.132000
v 0.007500 0.117010 0.028000
v 0.000000 0.115000 -0.132000
v 0.000000 0.115000 0.028000
v -0.007500 0.117010 -0.132000
v -0.007500 0.117010 0.028000
v -0.012990 0.122500 -0.132000
v -0.012990 0.122500 0.028000
v -0.015000 0.130000 -0.132000
v -0.015000 0.130000 0.028000
v -0.012990 0.137500 -0.132000
v -0.012990 0.137500 0.028000
v -0.007500 0.142990 -0.132000
v -0.007500 0.142990 0.028000
v -0.022500 0.130000 0.012500
v -0.022500 0.270000 0.012500
v -0.022500 0.130000 -0.102500
v -0.022500 0.270000 -0.102500
v 0.022500 0.130000 0.012500
v 0.022500 0.270000 0.012500
v 0.022500 0.130000 -0.102500
v 0.022500 0.270000 -0.102500
v -0.023000 0.264500 0.014000
v -0.023000 0.279500 0.014000
v -0.023000 0.264500 -0.104000
v -0.023000 0.279500 -0.104000
v 0.023000 0.264500 0.014000
v 0.023000 0.279500 0.014000
v 0.023000 0.264500 -0.104000
v 0.023000 0.279500 -0.104000
vn -1.0000 -0.0000 -0.0000
vn -0.0000 -0.0000 -1.0000
vn 1.0000 -0.0000 -0.0000
vn -0.0000 -0.0000 1.0000
vn -0.0000 -1.0000 -0.0000
vn -0.0000 1.0000 -0.0000
vn -0.0000 0.4226 -0.9063
vn -0.0000 -0.4226 0.9063
vn -0.0000 -0.9063 -0.4226
vn -0.0000 0.9063 0.4226
vn -0.0000 0.7462 -0.6657
vn -0.0000 0.7462 0.6657
vn 0.2856 0.6894 0.6657
vn 0.2856 0.6894 -0.6657
vn 0.5276 0.5276 0.6657
vn 0.5276 0.5276 -0.6657
vn 0.6894 0.2856 0.6657
vn 0.6894 0.2856 -0.6657
vn 0.7462 -0.0000 0.6657
vn 0.7462 -0.0000 -0.6657
vn 0.6894 -0.2856 0.6657
vn 0.6894 -0.2856 -0.6657
vn 0.5276 -0.5276 0.6657
vn 0.5276 -0.5276 -0.6657
vn 0.2856 -0.6894 0.6657
vn 0.2856 -0.6894 -0.6657
vn -0.0000 -0.7462 0.6657
vn -0.0000 -0.7462 -0.6657
vn -0.2856 -0.6894 0.6657
vn -0.2856 -0.6894 -0.6657
vn -0.5276 -0.5276 0.6657
vn -0.5276 -0.5276 -0.6657
vn -0.6894 -0.2856 0.6657
vn -0.6894 -0.2856 -0.6657
vn -0.7462 -0.0000 0.6657
vn -0.7462 -0.0000 -0.6657
vn -0.6894 0.2856 0.6657
vn -0.6894 0.2856 -0.6657
vn -0.5276 0.5276 0.6657
vn -0.5276 0.5276 -0.6657
vn -0.2856 0.6894 0.6657
vn -0.2856 0.6894 -0.6657
vn -0.0000 -0.8383 -0.5452
vn -0.0000 -0.4744 -0.8803
vn 0.6225 -0.4744 -0.6225
vn 0.3855 -0.8383 -0.3855
vn -0.0000 0.4744 -0.8803
vn 0.6225 0.4744 -0.6225
vn 0.7071 -0.0000 -0.7071
vn -0.0000 0.8383 -0.5452
vn 0.3855 0.8383 -0.3855
vn 0.8803 -0.4744 -0.0000
vn 0.5452 -0.8383 -0.0000
vn 0.8803 0.4744 -0.0000
vn 0.5452 0.8383 -0.0000
vn 0.6225 0.4744 0.6225
vn 0.7071 -0.0000 0.7071
vn 0.3855 0.8383 0.3855
vn 0.3855 -0.8383 0.3855
vn 0.6225 -0.4744 0.6225
vn -0.0000 0.8383 0.5452
vn -0.0000 -0.8383 0.5452
vn -0.0000 -0.4744 0.8803
vn -0.0000 0.4744 0.8803
vn -0.3855 -0.8383 0.3855
vn -0.7071 -0.0000 0.7071
vn -0.6225 -0.4744 0.6225
vn -0.3855 0.8383 0.3855
vn -0.6225 0.4744 0.6225
vn -0.5452 -0.8383 -0.0000
vn -0.8803 -0.4744 -0.0000
vn -0.5452 0.8383 -0.0000
vn -0.8803 0.4744 -0.0000
vn -0.3855 -0.8383 -0.3855
vn -0.7071 -0.0000 -0.7071
vn -0.6225 -0.4744 -0.6225
vn -0.3855 0.8383 -0.3855
vn -0.6225 0.4744 -0.6225
vn -0.0000 0.7764 -0.6303
vn -0.0000 0.7764 0.6303
vn 0.5490 0.5490 0.6303
vn 0.5490 0.5490 -0.6303
vn 0.7764 -0.0000 0.6303
vn 0.7764 -0.0000 -0.6303
vn 0.5490 -0.5490 0.6303
vn 0.5490 -0.5490 -0.6303
vn -0.0000 -0.7764 0.6303
vn -0.0000 -0.7764 -0.6303
vn -0.5490 -0.5490 0.6303
vn -0.5490 -0.5490 -0.6303
vn -0.7764 -0.0000 0.6303
vn -0.7764 -0.0000 -0.6303
vn -0.5490 0.5490 0.6303
vn -0.5490 0.5490 -0.6303
vn -0.0000 0.7510 -0.6603
vn -0.0000 0.7510 0.6603
vn 0.3259 0.6766 0.6603
vn 0.3259 0.6766 -0.6603
vn 0.5872 0.4683 0.6603
vn 0.5872 0.4683 -0.6603
vn 0.7322 0.1671 0.6603
vn 0.7322 0.1671 -0.6603
vn 0.7322 -0.1671 0.6603
vn 0.7322 -0.1671 -0.6603
vn 0.5872 -0.4683 0.6603
vn 0.5872 -0.4683 -0.6603
vn 0.3259 -0.6766 0.6603
vn 0.3259 -0.6766 -0.6603
vn -0.0000 -0.7510 0.6603
vn -0.0000 -0.7510 -0.6603
vn -0.3259 -0.6766 0.6603
vn -0.3259 -0.6766 -0.6603
vn -0.5872 -0.4683 0.6603
vn -0.5872 -0.4683 -0.6603
vn -0.7322 -0.1671 0.6603
vn -0.7322 -0.1671 -0.6603
vn -0.7322 0.1671 0.6603
vn -0.7322 0.1671 -0.6603
vn -0.5872 0.4683 0.6603
vn -0.5872 0.4683 -0.6603
vn -0.3259 0.6766 0.6603
vn -0.3259 0.6766 -0.6603
vn -0.0000 0.7572 -0.6532
vn -0.0000 0.7572 0.6532
vn 0.3786 0.6557 0.6532
vn 0.3786 0.6557 -0.6532
vn 0.6557 0.3786 0.6532
vn 0.6557 0.3786 -0.6532
vn 0.7572 -0.0000 0.6532
vn 0.7572 -0.0000 -0.6532
vn 0.6557 -0.3786 0.6532
vn 0.6557 -0.3786 -0.6532
vn 0.3786 -0.6557 0.6532
vn 0.3786 -0.6557 -0.6532
vn -0.0000 -0.7572 0.6532
vn -0.0000 -0.7572 -0.6532
vn -0.3786 -0.6557 0.6532
vn -0.3786 -0.6557 -0.6532
vn -0.6557 -0.3786 0.6532
vn -0.6557 -0.3786 -0.6532
vn -0.7572 -0.0000 0.6532
vn -0.7572 -0.0000 -0.6532
vn -0.6557 0.3786 0.6532
vn -0.6557 0.3786 -0.6532
vn -0.3786 0.6557 0.6532
vn -0.3786 0.6557 -0.6532
vn -0.0000 -0.2419 -0.9703
vn -0.0000 0.2419 0.9703
vn -0.0000 -0.9703 0.2419
vn -0.0000 0.9703 -0.2419
vn -0.0000 0.3746 -0.9272
vn -0.0000 -0.3746 0.9272
vn -0.0000 -0.9272 -0.3746
vn -0.0000 0.9272 0.3746
vn -0.0000 -0.2588 -0.9659
vn -0.0000 0.2588 0.9659
vn -0.0000 -0.9659 0.2588
vn -0.0000 0.9659 -0.2588
vt 0.375000 0.000000
vt 0.625000 0.000000
vt 0.625000 0.250000
vt 0.375000 0.250000
vt 0.625000 0.500000
vt 0.375000 0.500000
vt 0.625000 0.750000
vt 0.375000 0.750000
vt 0.625000 1.000000
vt 0.375000 1.000000
vt 0.125000 0.500000
vt 0.125000 0.750000
vt 0.875000 0.500000
vt 0.875000 0.750000
vt 1.000000 0.500000
vt 1.000000 1.000000
vt 0.937500 1.000000
vt 0.937500 0.500000
vt 0.875000 1.000000
vt 0.812500 1.000000
vt 0.812500 0.500000
vt 0.750000 1.000000
vt 0.750000 0.500000
vt 0.687500 1.000000
vt 0.687500 0.500000
vt 0.562500 1.000000
vt 0.562500 0.500000
vt 0.500000 1.000000
vt 0.500000 0.500000
vt 0.437500 1.000000
vt 0.437500 0.500000
vt 0.312500 1.000000
vt 0.312500 0.500000
vt 0.250000 1.000000
vt 0.250000 0.500000
vt 0.187500 1.000000
vt 0.187500 0.500000
vt 0.125000 1.000000
vt 0.341844 0.471731
vt 0.250000 0.490000
vt 0.158156 0.471731
vt 0.080294 0.419706
vt 0.028269 0.341844
vt 0.010000 0.250000
vt 0.028269 0.158156
vt 0.080294 0.080294
vt 0.158156 0.028269
vt 0.250000 0.010000
vt 0.341844 0.028269
vt 0.419706 0.080294
vt 0.471731 0.158156
vt 0.490000 0.250000
vt 0.471731 0.341844
vt 0.419706 0.419706
vt 0.062500 1.000000
vt 0.062500 0.500000
vt 0.000000 1.000000
vt 0.000000 0.500000
vt 0.750000 0.490000
vt 0.841844 0.471731
vt 0.919706 0.419706
vt 0.971731 0.341844
vt 0.990000 0.250000
vt 0.971731 0.158156
vt 0.919706 0.080294
vt 0.841844 0.028269
vt 0.750000 0.010000
vt 0.658156 0.028269
vt 0.580294 0.080294
vt 0.528269 0.158156
vt 0.510000 0.250000
vt 0.528269 0.341844
vt 0.580294 0.419706
vt 0.658156 0.471731
vt 0.750000 0.166667
vt 0.750000 0.333333
vt 0.625000 0.333333
vt 0.625000 0.166667
vt 0.750000 0.666667
vt 0.625000 0.666667
vt 0.750000 0.833333
vt 0.625000 0.833333
vt 0.687500 0.000000
vt 0.500000 0.333333
vt 0.500000 0.166667
vt 0.500000 0.666667
vt 0.500000 0.833333
vt 0.562500 0.000000
vt 0.375000 0.666667
vt 0.375000 0.833333
vt 0.437500 0.000000
vt 0.375000 0.166667
vt 0.375000 0.333333
vt 0.250000 0.833333
vt 0.312500 0.000000
vt 0.250000 0.166667
vt 0.250000 0.333333
vt 0.250000 0.666667
vt 0.187500 0.000000
vt 0.125000 0.166667
vt 0.125000 0.333333
vt 0.125000 0.833333
vt 0.125000 0.666667
vt 0.062500 0.000000
vt 0.000000 0.166667
vt 0.000000 0.333333
vt 0.000000 0.833333
vt 0.000000 0.666667
vt 0.062500 1.000000
vt 0.937500 0.000000
vt 1.000000 0.166667
vt 0.875000 0.166667
vt 1.000000 0.333333
vt 0.875000 0.333333
vt 1.000000 0.666667
vt 1.000000 0.833333
vt 0.875000 0.833333
vt 0.875000 0.666667
vt 0.812500 0.000000
vt 0.080294 0.419706
vt 0.010000 0.250000
vt 0.080294 0.080294
vt 0.250000 0.010000
vt 0.419706 0.080294
vt 0.919706 0.080294
vt 0.750000 0.010000
vt 0.580294 0.080294
vt 0.928571 1.000000
vt 0.928571 0.500000
vt 0.857143 1.000000
vt 0.857143 0.500000
vt 0.785714 1.000000
vt 0.785714 0.500000
vt 0.714286 1.000000
vt 0.714286 0.500000
vt 0.642857 1.000000
vt 0.642857 0.500000
vt 0.571428 1.000000
vt 0.571428 0.500000
vt 0.500000 1.000000
vt 0.500000 0.500000
vt 0.428571 1.000000
vt 0.428571 0.500000
vt 0.357143 1.000000
vt 0.357143 0.500000
vt 0.285714 1.000000
vt 0.285714 0.500000
vt 0.214286 1.000000
vt 0.214286 0.500000
vt 0.142857 1.000000
vt 0.142857 0.500000
vt 0.354132 0.466233
vt 0.145868 0.466233
vt 0.062360 0.399638
vt 0.016017 0.303405
vt 0.016017 0.196595
vt 0.062360 0.100362
vt 0.145868 0.033767
vt 0.354132 0.033767
vt 0.437640 0.100362
vt 0.483983 0.196595
vt 0.483983 0.303405
vt 0.437640 0.399638
vt 0.071428 1.000000
vt 0.071428 0.500000
vt -0.000000 1.000000
vt -0.000000 0.500000
vt 0.854132 0.466233
vt 0.937640 0.399638
vt 0.983983 0.303405
vt 0.983983 0.196595
vt 0.937640 0.100362
vt 0.854132 0.033767
vt 0.645868 0.033767
vt 0.562360 0.100362
vt 0.516017 0.196595
vt 0.516017 0.303405
vt 0.562360 0.399638
vt 0.645868 0.466233
vt 0.916667 1.000000
vt 0.916667 0.500000
vt 0.833333 1.000000
vt 0.833333 0.500000
vt 0.750000 1.000000
vt 0.750000 0.500000
vt 0.666667 1.000000
vt 0.666667 0.500000
vt 0.583333 1.000000
vt 0.583333 0.500000
vt 0.500000 1.000000
vt 0.500000 0.500000
vt 0.416667 1.000000
vt 0.416667 0.500000
vt 0.333333 1.000000
vt 0.333333 0.500000
vt 0.250000 1.000000
vt 0.250000 0.500000
vt 0.166667 1.000000
vt 0.166667 0.500000
vt 0.370000 0.457846
vt 0.130000 0.457846
vt 0.042154 0.370000
vt 0.042154 0.130000
vt 0.130000 0.042154
vt 0.370000 0.042154
vt 0.457846 0.130000
vt 0.457846 0.370000
vt 0.083333 1.000000
vt 0.083333 0.500000
vt 0.000000 1.000000
vt 0.000000 0.500000
vt 0.870000 0.457846
vt 0.957846 0.370000
vt 0.957846 0.130000
vt 0.870000 0.042154
vt 0.630000 0.042154
vt 0.542154 0.130000
vt 0.542154 0.370000
vt 0.630000 0.457846
s 0
usemtl Mat_RifleAnodized
f 1/1/1 2/2/1 4/3/1 3/4/1
f 3/4/2 4/3/2 8/5/2 7/6/2
f 7/6/3 8/5/3 6/7/3 5/8/3
f 5/8/4 6/7/4 2/9/4 1/10/4
f 3/11/5 7/6/5 5/8/5 1/12/5
f 8/5/6 4/13/6 2/14/6 6/7/6
f 25/1/1 26/2/1 28/3/1 27/4/1
f 27/4/2 28/3/2 32/5/2 31/6/2
f 31/6/3 32/5/3 30/7/3 29/8/3
f 29/8/4 30/7/4 26/9/4 25/10/4
f 27/11/5 31/6/5 29/8/5 25/12/5
f 32/5/6 28/13/6 26/14/6 30/7/6
s 1
f 33/15/11 34/16/12 36/17/13 35/18/14
f 35/18/14 36/17/13 38/19/15 37/13/16
f 37/13/16 38/19/15 40/20/17 39/21/18
f 39/21/18 40/20/17 42/22/19 41/23/20
f 41/23/20 42/22/19 44/24/21 43/25/22
f 43/25/22 44/24/21 46/9/23 45/5/24
f 45/5/24 46/9/23 48/26/25 47/27/26
f 47/27/26 48/26/25 50/28/27 49/29/28
f 49/29/28 50/28/27 52/30/29 51/31/30
f 51/31/30 52/30/29 54/10/31 53/6/32
f 53/6/32 54/10/31 56/32/33 55/33/34
f 55/33/34 56/32/33 58/34/35 57/35/36
f 57/35/36 58/34/35 60/36/37 59/37/38
f 59/37/38 60/36/37 62/38/39 61/11/40
f 36/39/13 34/40/12 64/41/41 62/42/39 60/43/37 58/44/35 56/45/33 54/46/31 52/47/29 50/48/27 48/49/25 46/50/23 44/51/21 42/52/19 40/53/17 38/54/15
f 61/11/40 62/38/39 64/55/41 63/56/42
f 63/56/42 64/55/41 34/57/12 33/58/11
f 33/59/11 35/60/14 37/61/16 39/62/18 41/63/20 43/64/22 45/65/24 47/66/26 49/67/28 51/68/30 53/69/32 55/70/34 57/71/36 59/72/38 61/73/40 63/74/42
f 107/15/79 108/16/80 110/19/81 109/13/82
f 109/13/82 110/19/81 112/22/83 111/23/84
f 111/23/84 112/22/83 114/9/85 113/5/86
f 113/5/86 114/9/85 116/28/87 115/29/88
f 115/29/88 116/28/87 118/10/89 117/6/90
f 117/6/90 118/10/89 120/34/91 119/35/92
f 110/54/81 108/40/80 122/120/93 120/121/91 118/122/89 116/123/87 114/124/85 112/52/83
f 119/35/92 120/34/91 122/38/93 121/11/94
f 121/11/94 122/38/93 108/57/80 107/58/79
f 107/59/79 109/61/82 111/63/84 113/125/86 115/126/88 117/127/90 119/71/92 121/73/94
s 0
usemtl Mat_RifleSteel
f 9/1/1 10/2/1 12/3/1 11/4/1
f 11/4/2 12/3/2 16/5/2 15/6/2
f 15/6/3 16/5/3 14/7/3 13/8/3
f 13/8/4 14/7/4 10/9/4 9/10/4
f 11/11/5 15/6/5 13/8/5 9/12/5
f 16/5/6 12/13/6 10/14/6 14/7/6
f 17/1/1 18/2/1 20/3/1 19/4/1
f 19/4/7 20/3/7 24/5/7 23/6/7
f 23/6/3 24/5/3 22/7/3 21/8/3
f 21/8/8 22/7/8 18/9/8 17/10/8
f 19/11/9 23/6/9 21/8/9 17/12/9
f 24/5/10 20/13/10 18/14/10 22/7/10
f 123/1/1 124/2/1 126/3/1 125/4/1
f 125/4/2 126/3/2 130/5/2 129/6/2
f 129/6/3 130/5/3 128/7/3 127/8/3
f 127/8/4 128/7/4 124/9/4 123/10/4
f 125/11/5 129/6/5 127/8/5 123/12/5
f 130/5/6 126/13/6 124/14/6 128/7/6
s 1
f 131/15/95 132/16/96 134/128/97 133/129/98
f 133/129/98 134/128/97 136/130/99 135/131/100
f 135/131/100 136/130/99 138/132/101 137/133/102
f 137/133/102 138/132/101 140/134/103 139/135/104
f 139/135/104 140/134/103 142/136/105 141/137/106
f 141/137/106 142/136/105 144/138/107 143/139/108
f 143/139/108 144/138/107 146/140/109 145/141/110
f 145/141/110 146/140/109 148/142/111 147/143/112
f 147/143/112 148/142/111 150/144/113 149/145/114
f 149/145/114 150/144/113 152/146/115 151/147/116
f 151/147/116 152/146/115 154/148/117 153/149/118
f 153/149/118 154/148/117 156/150/119 155/151/120
f 134/152/97 132/40/96 158/153/121 156/154/119 154/155/117 152/156/115 150/157/113 148/158/111 146/48/109 144/159/107 142/160/105 140/161/103 138/162/101 136/163/99
f 155/151/120 156/150/119 158/164/121 157/165/122
f 157/165/122 158/164/121 132/166/96 131/167/95
f 131/59/95 133/168/98 135/169/100 137/170/102 139/171/104 141/172/106 143/173/108 145/67/110 147/174/112 149/175/114 151/176/116 153/177/118 155/178/120 157/179/122
f 159/15/123 160/16/124 162/180/125 161/181/126
f 161/181/126 162/180/125 164/182/127 163/183/128
f 163/183/128 164/182/127 166/184/129 165/185/130
f 165/185/130 166/184/129 168/186/131 167/187/132
f 167/187/132 168/186/131 170/188/133 169/189/134
f 169/189/134 170/188/133 172/190/135 171/191/136
f 171/191/136 172/190/135 174/192/137 173/193/138
f 173/193/138 174/192/137 176/194/139 175/195/140
f 175/195/140 176/194/139 178/196/141 177/197/142
f 177/197/142 178/196/141 180/198/143 179/199/144
f 162/200/125 160/40/124 182/201/145 180/202/143 178/121/141 176/203/139 174/204/137 172/123/135 170/205/133 168/206/131 166/52/129 164/207/127
f 179/199/144 180/198/143 182/208/145 181/209/146
f 181/209/146 182/208/145 160/210/124 159/211/123
f 159/59/123 161/212/126 163/213/128 165/63/130 167/214/132 169/215/134 171/126/136 173/216/138 175/217/140 177/71/142 179/218/144 181/219/146
s 0
f 183/1/1 184/2/1 186/3/1 185/4/1
f 185/4/147 186/3/147 190/5/147 189/6/147
f 189/6/3 190/5/3 188/7/3 187/8/3
f 187/8/148 188/7/148 184/9/148 183/10/148
f 185/11/149 189/6/149 187/8/149 183/12/149
f 190/5/150 186/13/150 184/14/150 188/7/150
f 199/1/1 200/2/1 202/3/1 201/4/1
f 201/4/155 202/3/155 206/5/155 205/6/155
f 205/6/3 206/5/3 204/7/3 203/8/3
f 203/8/156 204/7/156 200/9/156 199/10/156
f 201/11/157 205/6/157 203/8/157 199/12/157
f 206/5/158 202/13/158 200/14/158 204/7/158
s 1
f 207/15/123 208/16/124 210/180/125 209/181/126
f 209/181/126 210/180/125 212/182/127 211/183/128
f 211/183/128 212/182/127 214/184/129 213/185/130
f 213/185/130 214/184/129 216/186/131 215/187/132
f 215/187/132 216/186/131 218/188/133 217/189/134
f 217/189/134 218/188/133 220/190/135 219/191/136
f 219/191/136 220/190/135 222/192/137 221/193/138
f 221/193/138 222/192/137 224/194/139 223/195/140
f 223/195/140 224/194/139 226/196/141 225/197/142
f 225/197/142 226/196/141 228/198/143 227/199/144
f 210/200/125 208/40/124 230/201/145 228/202/143 226/44/141 224/203/139 222/204/137 220/48/135 218/205/133 216/206/131 214/52/129 212/207/127
f 227/199/144 228/198/143 230/208/145 229/209/146
f 229/209/146 230/208/145 208/210/124 207/211/123
f 207/59/123 209/212/126 211/213/128 213/63/130 215/214/132 217/215/134 219/67/136 221/216/138 223/217/140 225/71/142 227/218/144 229/219/146
usemtl Mat_RedDotReticle
f 106/75/43 105/76/44 68/77/45 69/78/46
f 104/23/2 103/79/47 66/80/48 67/5/49
f 102/81/50 85/24/6 65/82/51
f 91/83/5 106/75/43 69/78/46
f 105/76/44 104/23/2 67/5/49 68/77/45
f 103/79/47 102/81/50 65/82/51 66/80/48
f 69/78/46 68/77/45 73/84/52 74/85/53
f 67/5/49 66/80/48 71/86/54 72/29/3
f 65/82/51 85/26/6 70/87/55
f 91/88/5 69/78/46 74/85/53
f 68/77/45 67/5/49 72/29/3 73/84/52
f 66/80/48 65/82/51 70/87/55 71/86/54
f 72/29/3 71/86/54 76/89/56 77/6/57
f 70/87/55 85/30/6 75/90/58
f 91/91/5 74/85/53 79/92/59
f 73/84/52 72/29/3 77/6/57 78/93/60
f 71/86/54 70/87/55 75/90/58 76/89/56
f 74/85/53 73/84/52 78/93/60 79/92/59
f 75/90/58 85/32/6 80/94/61
f 91/95/5 79/92/59 84/96/62
f 78/93/60 77/6/57 82/35/4 83/97/63
f 76/89/56 75/90/58 80/94/61 81/98/64
f 79/92/59 78/93/60 83/97/63 84/96/62
f 77/6/57 76/89/56 81/98/64 82/35/4
f 91/99/5 84/96/62 90/100/65
f 83/97/63 82/35/4 88/11/66 89/101/67
f 81/98/64 80/94/61 86/102/68 87/103/69
f 84/96/62 83/97/63 89/101/67 90/100/65
f 82/35/4 81/98/64 87/103/69 88/11/66
f 80/94/61 85/36/6 86/102/68
f 91/104/5 90/100/65 96/105/70
f 89/101/67 88/11/66 94/58/1 95/106/71
f 87/103/69 86/102/68 92/107/72 93/108/73
f 90/100/65 89/101/67 95/106/71 96/105/70
f 88/11/66 87/103/69 93/108/73 94/58/1
f 86/102/68 85/109/6 92/107/72
f 91/110/5 96/111/70 101/112/74
f 95/113/71 94/15/1 99/13/75 100/114/76
f 93/115/73 92/116/72 97/117/77 98/118/78
f 96/111/70 95/113/71 100/114/76 101/112/74
f 94/15/1 93/115/73 98/118/78 99/13/75
f 92/116/72 85/17/6 97/117/77
f 100/114/76 99/13/75 104/23/2 105/76/44
f 98/118/78 97/117/77 102/81/50 103/79/47
f 101/112/74 100/114/76 105/76/44 106/75/43
f 99/13/75 98/118/78 103/79/47 104/23/2
f 97/117/77 85/20/6 102/81/50
f 91/119/5 101/112/74 106/75/43
s 0
usemtl Mat_RiflePolymer
f 191/1/1 192/2/1 194/3/1 193/4/1
f 193/4/151 194/3/151 198/5/151 197/6/151
f 197/6/3 198/5/3 196/7/3 195/8/3
f 195/8/152 196/7/152 192/9/152 191/10/152
f 193/11/153 197/6/153 195/8/153 191/12/153
f 198/5/154 194/13/154 192/14/154 196/7/154
f 231/1/1 232/2/1 234/3/1 233/4/1
f 233/4/2 234/3/2 238/5/2 237/6/2
f 237/6/3 238/5/3 236/7/3 235/8/3
f 235/8/4 236/7/4 232/9/4 231/10/4
f 233/11/5 237/6/5 235/8/5 231/12/5
f 238/5/6 234/13/6 232/14/6 236/7/6
f 239/1/1 240/2/1 242/3/1 241/4/1
f 241/4/2 242/3/2 246/5/2 245/6/2
f 245/6/3 246/5/3 244/7/3 243/8/3
f 243/8/4 244/7/4 240/9/4 239/10/4
f 241/11/5 245/6/5 243/8/5 239/12/5
f 246/5/6 242/13/6 240/14/6 244/7/6
