# Blender 4.0.2
# www.blender.org
mtllib shotgun.mtl
o Shotgun_Remington870
v -0.019000 -0.065000 0.012000
v -0.019000 0.145000 0.012000
v -0.019000 -0.065000 -0.052000
v -0.019000 0.145000 -0.052000
v 0.019000 -0.065000 0.012000
v 0.019000 0.145000 0.012000
v 0.019000 -0.065000 -0.052000
v 0.019000 0.145000 -0.052000
v 0.015500 -0.012500 -0.017000
v 0.015500 0.052500 -0.017000
v 0.015500 -0.012500 -0.043000
v 0.015500 0.052500 -0.043000
v 0.020500 -0.012500 -0.017000
v 0.020500 0.052500 -0.017000
v 0.020500 -0.012500 -0.043000
v 0.020500 0.052500 -0.043000
v -0.012000 -0.007500 0.018000
v -0.012000 0.067500 0.018000
v -0.012000 -0.007500 0.010000
v -0.012000 0.067500 0.010000
v 0.012000 -0.007500 0.018000
v 0.012000 0.067500 0.018000
v 0.012000 -0.007500 0.010000
v 0.012000 0.067500 0.010000
v 0.000000 -0.307000 -0.298000
v 0.000000 -0.307000 0.222000
v 0.004975 -0.307990 -0.298000
v 0.004975 -0.307990 0.222000
v 0.009192 -0.310808 -0.298000
v 0.009192 -0.310808 0.222000
v 0.012010 -0.315025 -0.298000
v 0.012010 -0.315025 0.222000
v 0.013000 -0.320000 -0.298000
v 0.013000 -0.320000 0.222000
v 0.012010 -0.324975 -0.298000
v 0.012010 -0.324975 0.222000
v 0.009192 -0.329192 -0.298000
v 0.009192 -0.329192 0.222000
v 0.004975 -0.332010 -0.298000
v 0.004975 -0.332010 0.222000
v 0.000000 -0.333000 -0.298000
v 0.000000 -0.333000 0.222000
v -0.004975 -0.332010 -0.298000
v -0.004975 -0.332010 0.222000
v -0.009192 -0.329192 -0.298000
v -0.009192 -0.329192 0.222000
v -0.012010 -0.324975 -0.298000
v -0.012010 -0.324975 0.222000
v -0.013000 -0.320000 -0.298000
v -0.013000 -0.320000 0.222000
v -0.012010 -0.315025 -0.298000
v -0.012010 -0.315025 0.222000
v -0.009192 -0.310808 -0.298000
v -0.009192 -0.310808 0.222000
v -0.004975 -0.307990 -0.298000
v -0.004975 -0.307990 0.222000
v -0.015000 -0.460000 -0.041000
v -0.015000 -0.100000 -0.041000
v -0.015000 -0.460000 -0.059000
v -0.015000 -0.100000 -0.059000
v 0.015000 -0.460000 -0.041000
v 0.015000 -0.100000 -0.041000
v 0.015000 -0.460000 -0.059000
v 0.015000 -0.100000 -0.059000
v 0.000000 -0.556619 -0.053906
v 0.000000 -0.556969 -0.054750
v 0.000000 -0.558250 -0.056031
v 0.000000 -0.559094 -0.056381
v 0.000000 -0.560000 -0.056500
v 0.000000 -0.561750 -0.056031
v 0.000000 -0.563031 -0.054750
v 0.000000 -0.563381 -0.053906
v 0.000347 -0.556619 -0.053837
v 0.000670 -0.556969 -0.054617
v 0.000947 -0.557525 -0.055286
v 0.001160 -0.558250 -0.055800
v 0.001294 -0.559094 -0.056123
v 0.001339 -0.560000 -0.056234
v 0.001294 -0.560906 -0.056123
v 0.001160 -0.561750 -0.055800
v 0.000947 -0.562475 -0.055286
v 0.000670 -0.563031 -0.054617
v 0.000347 -0.563381 -0.053837
v 0.000000 -0.556500 -0.053000
v 0.000641 -0.556619 -0.053641
v 0.001237 -0.556969 -0.054237
v 0.001750 -0.557525 -0.054750
v 0.002143 -0.558250 -0.055143
v 0.002391 -0.559094 -0.055391
v 0.002475 -0.560000 -0.055475
v 0.002391 -0.560906 -0.055391
v 0.002143 -0.561750 -0.055143
v 0.001750 -0.562475 -0.054750
v 0.001237 -0.563031 -0.054237
v 0.000641 -0.563381 -0.053641
v 0.000837 -0.556619 -0.053347
v 0.001617 -0.556969 -0.053670
v 0.002286 -0.557525 -0.053947
v 0.002800 -0.558250 -0.054160
v 0.003123 -0.559094 -0.054294
v 0.003234 -0.560000 -0.054339
v 0.003123 -0.560906 -0.054294
v 0.002800 -0.561750 -0.054160
v 0.002286 -0.562475 -0.053947
v 0.001617 -0.563031 -0.053670
v 0.000837 -0.563381 -0.053347
v 0.000906 -0.556619 -0.053000
v 0.001750 -0.556969 -0.053000
v 0.002475 -0.557525 -0.053000
v 0.003031 -0.558250 -0.053000
v 0.003381 -0.559094 -0.053000
v 0.003500 -0.560000 -0.053000
v 0.003381 -0.560906 -0.053000
v 0.003031 -0.561750 -0.053000
v 0.002475 -0.562475 -0.053000
v 0.001750 -0.563031 -0.053000
v 0.000906 -0.563381 -0.053000
v 0.000837 -0.556619 -0.052653
v 0.001617 -0.556969 -0.052330
v 0.002286 -0.557525 -0.052053
v 0.002800 -0.558250 -0.051840
v 0.003123 -0.559094 -0.051706
v 0.003234 -0.560000 -0.051661
v 0.003123 -0.560906 -0.051706
v 0.002800 -0.561750 -0.051840
v 0.002286 -0.562475 -0.052053
v 0.001617 -0.563031 -0.052330
v 0.000837 -0.563381 -0.052653
v 0.000641 -0.556619 -0.052359
v 0.001237 -0.556969 -0.051763
v 0.001750 -0.557525 -0.051250
v 0.002143 -0.558250 -0.050857
v 0.002391 -0.559094 -0.050609
v 0.002475 -0.560000 -0.050525
v 0.002391 -0.560906 -0.050609
v 0.002143 -0.561750 -0.050857
v 0.001750 -0.562475 -0.051250
v 0.001237 -0.563031 -0.051763
v 0.000641 -0.563381 -0.052359
v 0.000347 -0.556619 -0.052163
v 0.000670 -0.556969 -0.051383
v 0.000947 -0.557525 -0.050714
v 0.001160 -0.558250 -0.050200
v 0.001294 -0.559094 -0.049877
v 0.001339 -0.560000 -0.049766
v 0.001294 -0.560906 -0.049877
v 0.001160 -0.561750 -0.050200
v 0.000947 -0.562475 -0.050714
v 0.000670 -0.563031 -0.051383
v 0.000347 -0.563381 -0.052163
v -0.000000 -0.556619 -0.052094
v -0.000000 -0.556969 -0.051250
v -0.000000 -0.557525 -0.050525
v -0.000000 -0.558250 -0.049969
v -0.000000 -0.559094 -0.049619
v -0.000000 -0.560000 -0.049500
v -0.000000 -0.560906 -0.049619
v -0.000000 -0.561750 -0.049969
v -0.000000 -0.562475 -0.050525
v -0.000000 -0.563031 -0.051250
v -0.000000 -0.563381 -0.052094
v -0.000347 -0.556619 -0.052163
v -0.000670 -0.556969 -0.051383
v -0.000947 -0.557525 -0.050714
v -0.001160 -0.558250 -0.050200
v -0.001294 -0.559094 -0.049877
v -0.001339 -0.560000 -0.049766
v -0.001294 -0.560906 -0.049877
v -0.001160 -0.561750 -0.050200
v -0.000947 -0.562475 -0.050714
v -0.000670 -0.563031 -0.051383
v -0.000347 -0.563381 -0.052163
v 0.000000 -0.563500 -0.053000
v -0.000641 -0.556619 -0.052359
v -0.001237 -0.556969 -0.051763
v -0.001750 -0.557525 -0.051250
v -0.002143 -0.558250 -0.050857
v -0.002391 -0.559094 -0.050609
v -0.002475 -0.560000 -0.050525
v -0.002391 -0.560906 -0.050609
v -0.002143 -0.561750 -0.050857
v -0.001750 -0.562475 -0.051250
v -0.001237 -0.563031 -0.051763
v -0.000641 -0.563381 -0.052359
v -0.000837 -0.556619 -0.052653
v -0.001617 -0.556969 -0.052330
v -0.002286 -0.557525 -0.052053
v -0.002800 -0.558250 -0.051840
v -0.003123 -0.559094 -0.051706
v -0.003234 -0.560000 -0.051661
v -0.003123 -0.560906 -0.051706
v -0.002800 -0.561750 -0.051840
v -0.002286 -0.562475 -0.052053
v -0.001617 -0.563031 -0.052330
v -0.000837 -0.563381 -0.052653
v -0.000906 -0.556619 -0.053000
v -0.001750 -0.556969 -0.053000
v -0.002475 -0.557525 -0.053000
v -0.003031 -0.558250 -0.053000
v -0.003381 -0.559094 -0.053000
v -0.003500 -0.560000 -0.053000
v -0.003381 -0.560906 -0.053000
v -0.003031 -0.561750 -0.053000
v -0.002475 -0.562475 -0.053000
v -0.001750 -0.563031 -0.053000
v -0.000906 -0.563381 -0.053000
v -0.000837 -0.556619 -0.053347
v -0.001617 -0.556969 -0.053670
v -0.002286 -0.557525 -0.053947
v -0.002800 -0.558250 -0.054160
v -0.003123 -0.559094 -0.054294
v -0.003234 -0.560000 -0.054339
v -0.003123 -0.560906 -0.054294
v -0.002800 -0.561750 -0.054160
v -0.002286 -0.562475 -0.053947
v -0.001617 -0.563031 -0.053670
v -0.000837 -0.563381 -0.053347
v -0.000641 -0.556619 -0.053641
v -0.001237 -0.556969 -0.054237
v -0.001750 -0.557525 -0.054750
v -0.002143 -0.558250 -0.055143
v -0.002391 -0.559094 -0.055391
v -0.002475 -0.560000 -0.055475
v -0.002391 -0.560906 -0.055391
v -0.002143 -0.561750 -0.055143
v -0.001750 -0.562475 -0.054750
v -0.001237 -0.563031 -0.054237
v -0.000641 -0.563381 -0.053641
v -0.000347 -0.556619 -0.053837
v -0.000670 -0.556969 -0.054617
v -0.000947 -0.557525 -0.055286
v -0.001160 -0.558250 -0.055800
v -0.001294 -0.559094 -0.056123
v -0.001339 -0.560000 -0.056234
v -0.001294 -0.560906 -0.056123
v -0.001160 -0.561750 -0.055800
v -0.000947 -0.562475 -0.055286
v -0.000670 -0.563031 -0.054617
v -0.000347 -0.563381 -0.053837
v 0.000000 -0.557525 -0.055475
v 0.000000 -0.560906 -0.056381
v 0.000000 -0.562475 -0.055475
v 0.000000 -0.286000 -0.262000
v 0.000000 -0.286000 0.238000
v 0.005358 -0.287066 -0.262000
v 0.005358 -0.287066 0.238000
v 0.009899 -0.290101 -0.262000
v 0.009899 -0.290101 0.238000
v 0.012934 -0.294642 -0.262000
v 0.012934 -0.294642 0.238000
v 0.014000 -0.300000 -0.262000
v 0.014000 -0.300000 0.238000
v 0.012934 -0.305358 -0.262000
v 0.012934 -0.305358 0.238000
v 0.009899 -0.309900 -0.262000
v 0.009899 -0.309900 0.238000
v 0.005358 -0.312934 -0.262000
v 0.005358 -0.312934 0.238000
v 0.000000 -0.314000 -0.262000
v 0.000000 -0.314000 0.238000
v -0.005358 -0.312934 -0.262000
v -0.005358 -0.312934 0.238000
v -0.009899 -0.309900 -0.262000
v -0.009899 -0.309900 0.238000
v -0.012934 -0.305358 -0.262000
v -0.012934 -0.305358 0.238000
v -0.014000 -0.300000 -0.262000
v -0.014000 -0.300000 0.238000
v -0.012934 -0.294642 -0.262000
v -0.012934 -0.294642 0.238000
v -0.009899 -0.290101 -0.262000
v -0.009899 -0.290101 0.238000
v -0.005358 -0.287066 -0.262000
v -0.005358 -0.287066 0.238000
v -0.016000 -0.510000 -0.002500
v -0.016000 -0.490000 -0.002500
v -0.016000 -0.510000 -0.047500
v -0.016000 -0.490000 -0.047500
v 0.016000 -0.510000 -0.002500
v 0.016000 -0.490000 -0.002500
v 0.016000 -0.510000 -0.047500
v 0.016000 -0.490000 -0.047500
v 0.000000 -0.217000 -0.112000
v 0.000000 -0.217000 0.088000
v 0.008802 -0.218751 -0.112000
v 0.008802 -0.218751 0.088000
v 0.016263 -0.223737 -0.112000
v 0.016263 -0.223737 0.088000
v 0.021249 -0.231198 -0.112000
v 0.021249 -0.231198 0.088000
v 0.023000 -0.240000 -0.112000
v 0.023000 -0.240000 0.088000
v 0.021249 -0.248802 -0.112000
v 0.021249 -0.248802 0.088000
v 0.016263 -0.256263 -0.112000
v 0.016263 -0.256263 0.088000
v 0.008802 -0.261249 -0.112000
v 0.008802 -0.261249 0.088000
v 0.000000 -0.263000 -0.112000
v 0.000000 -0.263000 0.088000
v -0.008802 -0.261249 -0.112000
v -0.008802 -0.261249 0.088000
v -0.016263 -0.256263 -0.112000
v -0.016263 -0.256263 0.088000
v -0.021249 -0.248802 -0.112000
v -0.021249 -0.248802 0.088000
v -0.023000 -0.240000 -0.112000
v -0.023000 -0.240000 0.088000
v -0.021249 -0.231198 -0.112000
v -0.021249 -0.231198 0.088000
v -0.016263 -0.223737 -0.112000
v -0.016263 -0.223737 0.088000
v -0.008802 -0.218751 -0.112000
v -0.008802 -0.218751 0.088000
v 0.000000 -0.135000 -0.018000
v 0.000000 -0.135000 -0.006000
v 0.009567 -0.136903 -0.018000
v 0.009567 -0.136903 -0.006000
v 0.017678 -0.142322 -0.018000
v 0.017678 -0.142322 -0.006000
v 0.023097 -0.150433 -0.018000
v 0.023097 -0.150433 -0.006000
v 0.025000 -0.160000 -0.018000
v 0.025000 -0.160000 -0.006000
v 0.023097 -0.169567 -0.018000
v 0.023097 -0.169567 -0.006000
v 0.017678 -0.177678 -0.018000
v 0.017678 -0.177678 -0.006000
v 0.009567 -0.183097 -0.018000
v 0.009567 -0.183097 -0.006000
v 0.000000 -0.185000 -0.018000
v 0.000000 -0.185000 -0.006000
v -0.009567 -0.183097 -0.018000
v -0.009567 -0.183097 -0.006000
v -0.017678 -0.177678 -0.018000
v -0.017678 -0.177678 -0.006000
v -0.023097 -0.169567 -0.018000
v -0.023097 -0.169567 -0.006000
v -0.025000 -0.160000 -0.018000
v -0.025000 -0.160000 -0.006000
v -0.023097 -0.150433 -0.018000
v -0.023097 -0.150433 -0.006000
v -0.017678 -0.142322 -0.018000
v -0.017678 -0.142322 -0.006000
v -0.009567 -0.136903 -0.018000
v -0.009567 -0.136903 -0.006000
v 0.000000 -0.175000 -0.018000
v 0.000000 -0.175000 -0.006000
v 0.009567 -0.176903 -0.018000
v 0.009567 -0.176903 -0.006000
v 0.017678 -0.182322 -0.018000
v 0.017678 -0.182322 -0.006000
v 0.023097 -0.190433 -0.018000
v 0.023097 -0.190433 -0.006000
v 0.025000 -0.200000 -0.018000
v 0.025000 -0.200000 -0.006000
v 0.023097 -0.209567 -0.018000
v 0.023097 -0.209567 -0.006000
v 0.017678 -0.217678 -0.018000
v 0.017678 -0.217678 -0.006000
v 0.009567 -0.223097 -0.018000
v 0.009567 -0.223097 -0.006000
v 0.000000 -0.225000 -0.018000
v 0.000000 -0.225000 -0.006000
v -0.009567 -0.223097 -0.018000
v -0.009567 -0.223097 -0.006000
v -0.017678 -0.217678 -0.018000
v -0.017678 -0.217678 -0.006000
v -0.023097 -0.209567 -0.018000
v -0.023097 -0.209567 -0.006000
v -0.025000 -0.200000 -0.018000
v -0.025000 -0.200000 -0.006000
v -0.023097 -0.190433 -0.018000
v -0.023097 -0.190433 -0.006000
v -0.017678 -0.182322 -0.018000
v -0.017678 -0.182322 -0.006000
v -0.009567 -0.176903 -0.018000
v -0.009567 -0.176903 -0.006000
v 0.000000 -0.215000 -0.018000
v 0.000000 -0.215000 -0.006000
v 0.009567 -0.216903 -0.018000
v 0.009567 -0.216903 -0.006000
v 0.017678 -0.222322 -0.018000
v 0.017678 -0.222322 -0.006000
v 0.023097 -0.230433 -0.018000
v 0.023097 -0.230433 -0.006000
v 0.025000 -0.240000 -0.018000
v 0.025000 -0.240000 -0.006000
v 0.023097 -0.249567 -0.018000
v 0.023097 -0.249567 -0.006000
v 0.017678 -0.257678 -0.018000
v 0.017678 -0.257678 -0.006000
v 0.009567 -0.263097 -0.018000
v 0.009567 -0.263097 -0.006000
v 0.000000 -0.265000 -0.018000
v 0.000000 -0.265000 -0.006000
v -0.009567 -0.263097 -0.018000
v -0.009567 -0.263097 -0.006000
v -0.017678 -0.257678 -0.018000
v -0.017678 -0.257678 -0.006000
v -0.023097 -0.249567 -0.018000
v -0.023097 -0.249567 -0.006000
v -0.025000 -0.240000 -0.018000
v -0.025000 -0.240000 -0.006000
v -0.023097 -0.230433 -0.018000
v -0.023097 -0.230433 -0.006000
v -0.017678 -0.222322 -0.018000
v -0.017678 -0.222322 -0.006000
v -0.009567 -0.216903 -0.018000
v -0.009567 -0.216903 -0.006000
v 0.000000 -0.255000 -0.018000
v 0.000000 -0.255000 -0.006000
v 0.009567 -0.256903 -0.018000
v 0.009567 -0.256903 -0.006000
v 0.017678 -0.262322 -0.018000
v 0.017678 -0.262322 -0.006000
v 0.023097 -0.270433 -0.018000
v 0.023097 -0.270433 -0.006000
v 0.025000 -0.280000 -0.018000
v 0.025000 -0.280000 -0.006000
v 0.023097 -0.289567 -0.018000
v 0.023097 -0.289567 -0.006000
v 0.017678 -0.297678 -0.018000
v 0.017678 -0.297678 -0.006000
v 0.009567 -0.303097 -0.018000
v 0.009567 -0.303097 -0.006000
v 0.000000 -0.305000 -0.018000
v 0.000000 -0.305000 -0.006000
v -0.009567 -0.303097 -0.018000
v -0.009567 -0.303097 -0.006000
v -0.017678 -0.297678 -0.018000
v -0.017678 -0.297678 -0.006000
v -0.023097 -0.289567 -0.018000
v -0.023097 -0.289567 -0.006000
v -0.025000 -0.280000 -0.018000
v -0.025000 -0.280000 -0.006000
v -0.023097 -0.270433 -0.018000
v -0.023097 -0.270433 -0.006000
v -0.017678 -0.262322 -0.018000
v -0.017678 -0.262322 -0.006000
v -0.009567 -0.256903 -0.018000
v -0.009567 -0.256903 -0.006000
v 0.000000 -0.295000 -0.018000
v 0.000000 -0.295000 -0.006000
v 0.009567 -0.296903 -0.018000
v 0.009567 -0.296903 -0.006000
v 0.017678 -0.302322 -0.018000
v 0.017678 -0.302322 -0.006000
v 0.023097 -0.310433 -0.018000
v 0.023097 -0.310433 -0.006000
v 0.025000 -0.320000 -0.018000
v 0.025000 -0.320000 -0.006000
v 0.023097 -0.329567 -0.018000
v 0.023097 -0.329567 -0.006000
v 0.017678 -0.337678 -0.018000
v 0.017678 -0.337678 -0.006000
v 0.009567 -0.343097 -0.018000
v 0.009567 -0.343097 -0.006000
v 0.000000 -0.345000 -0.018000
v 0.000000 -0.345000 -0.006000
v -0.009567 -0.343097 -0.018000
v -0.009567 -0.343097 -0.006000
v -0.017678 -0.337678 -0.018000
v -0.017678 -0.337678 -0.006000
v -0.023097 -0.329567 -0.018000
v -0.023097 -0.329567 -0.006000
v -0.025000 -0.320000 -0.018000
v -0.025000 -0.320000 -0.006000
v -0.023097 -0.310433 -0.018000
v -0.023097 -0.310433 -0.006000
v -0.017678 -0.302322 -0.018000
v -0.017678 -0.302322 -0.006000
v -0.009567 -0.296903 -0.018000
v -0.009567 -0.296903 -0.006000
v -0.007000 0.034000 0.042000
v -0.007000 0.086000 0.042000
v -0.007000 0.034000 0.010000
v -0.007000 0.086000 0.010000
v 0.007000 0.034000 0.042000
v 0.007000 0.086000 0.042000
v 0.007000 0.034000 0.010000
v 0.007000 0.086000 0.010000
v -0.002500 0.059000 0.032000
v -0.002500 0.071000 0.032000
v -0.002500 0.059000 0.012000
v -0.002500 0.071000 0.012000
v 0.002500 0.059000 0.032000
v 0.002500 0.071000 0.032000
v 0.002500 0.059000 0.012000
v 0.002500 0.071000 0.012000
v -0.004000 0.079000 0.014000
v -0.004000 0.101000 0.014000
v -0.003696 0.079000 0.012469
v -0.003696 0.101000 0.012469
v -0.002828 0.079000 0.011172
v -0.002828 0.101000 0.011172
v -0.001531 0.079000 0.010304
v -0.001531 0.101000 0.010304
v -0.000000 0.079000 0.010000
v -0.000000 0.101000 0.010000
v 0.001531 0.079000 0.010304
v 0.001531 0.101000 0.010304
v 0.002828 0.079000 0.011172
v 0.002828 0.101000 0.011172
v 0.003696 0.079000 0.012469
v 0.003696 0.101000 0.012469
v 0.004000 0.079000 0.014000
v 0.004000 0.101000 0.014000
v 0.003696 0.079000 0.015531
v 0.003696 0.101000 0.015531
v 0.002828 0.079000 0.016828
v 0.002828 0.101000 0.016828
v 0.001531 0.079000 0.017696
v 0.001531 0.101000 0.017696
v 0.000000 0.079000 0.018000
v 0.000000 0.101000 0.018000
v -0.001531 0.079000 0.017696
v -0.001531 0.101000 0.017696
v -0.002828 0.079000 0.016828
v -0.002828 0.101000 0.016828
v -0.003696 0.079000 0.015531
v -0.003696 0.101000 0.015531
v -0.016000 0.120000 0.034000
v -0.016000 0.200000 0.034000
v -0.016000 0.120000 -0.024000
v -0.016000 0.200000 -0.024000
v 0.016000 0.120000 0.034000
v 0.016000 0.200000 0.034000
v 0.016000 0.120000 -0.024000
v 0.016000 0.200000 -0.024000
v -0.016000 0.116000 0.130000
v -0.016000 0.164000 0.130000
v -0.016000 0.116000 0.020000
v -0.016000 0.164000 0.020000
v 0.016000 0.116000 0.130000
v 0.016000 0.164000 0.130000
v 0.016000 0.116000 0.020000
v 0.016000 0.164000 0.020000
v -0.018000 0.190000 0.067500
v -0.018000 0.390000 0.067500
v -0.018000 0.190000 -0.027500
v -0.018000 0.390000 -0.027500
v 0.018000 0.190000 0.067500
v 0.018000 0.390000 0.067500
v 0.018000 0.190000 -0.027500
v 0.018000 0.390000 -0.027500
v -0.019000 0.382500 0.087500
v -0.019000 0.407500 0.087500
v -0.019000 0.382500 -0.037500
v -0.019000 0.407500 -0.037500
v 0.019000 0.382500 0.087500
v 0.019000 0.407500 0.087500
v 0.019000 0.382500 -0.037500
v 0.019000 0.407500 -0.037500
vn -1.0000 -0.0000 -0.0000
vn -0.0000 -0.0000 -1.0000
vn 1.0000 -0.0000 -0.0000
vn -0.0000 -0.0000 1.0000
vn -0.0000 -1.0000 -0.0000
vn -0.0000 1.0000 -0.0000
vn 0.1951 0.9808 -0.0000
vn 0.5556 0.8315 -0.0000
vn 0.8315 0.5556 -0.0000
vn 0.9808 0.1951 -0.0000
vn 0.9808 -0.1951 -0.0000
vn 0.8315 -0.5556 -0.0000
vn 0.5556 -0.8315 -0.0000
vn 0.1951 -0.9808 -0.0000
vn -0.1951 -0.9808 -0.0000
vn -0.5556 -0.8315 -0.0000
vn -0.8315 -0.5556 -0.0000
vn -0.9808 -0.1951 -0.0000
vn -0.9808 0.1951 -0.0000
vn -0.8315 0.5556 -0.0000
vn -0.5556 0.8315 -0.0000
vn -0.1951 0.9808 -0.0000
vn 0.1559 0.6013 -0.7836
vn 0.0758 -0.9212 -0.3816
vn 0.0257 0.9911 -0.1305
vn 0.1807 -0.3764 -0.9087
vn 0.1807 0.3764 -0.9087
vn 0.0261 -0.9911 -0.1305
vn 0.0759 0.9212 -0.3816
vn 0.1559 -0.6013 -0.7836
vn 0.1935 0.1281 -0.9727
vn 0.1202 0.7876 -0.6044
vn 0.1202 -0.7876 -0.6044
vn 0.1935 -0.1281 -0.9727
vn 0.4439 -0.6013 -0.6643
vn 0.5510 0.1281 -0.8246
vn 0.3424 0.7876 -0.5123
vn 0.3424 -0.7876 -0.5123
vn 0.5510 -0.1281 -0.8246
vn 0.4439 0.6013 -0.6643
vn 0.2161 -0.9212 -0.3235
vn 0.0740 0.9911 -0.1106
vn 0.5147 -0.3764 -0.7703
vn 0.5147 0.3764 -0.7703
vn 0.0739 -0.9911 -0.1106
vn 0.2161 0.9212 -0.3235
vn 0.1107 0.9911 -0.0739
vn 0.7703 -0.3764 -0.5147
vn 0.7703 0.3764 -0.5147
vn 0.1108 -0.9911 -0.0739
vn 0.3235 0.9212 -0.2161
vn 0.6643 -0.6013 -0.4439
vn 0.8246 0.1281 -0.5510
vn 0.5123 0.7876 -0.3423
vn 0.5124 -0.7876 -0.3423
vn 0.8246 -0.1281 -0.5510
vn 0.6643 0.6013 -0.4439
vn 0.3234 -0.9212 -0.2161
vn 0.6043 -0.7876 -0.1202
vn 0.9727 -0.1281 -0.1935
vn 0.7836 0.6014 -0.1559
vn 0.3816 -0.9212 -0.0759
vn 0.1306 0.9911 -0.0260
vn 0.9087 -0.3764 -0.1807
vn 0.9087 0.3764 -0.1807
vn 0.1305 -0.9911 -0.0260
vn 0.3816 0.9212 -0.0759
vn 0.7837 -0.6013 -0.1559
vn 0.9727 0.1281 -0.1935
vn 0.6044 0.7876 -0.1202
vn 0.3816 0.9212 0.0759
vn 0.7837 -0.6013 0.1559
vn 0.9727 0.1281 0.1935
vn 0.6044 0.7876 0.1202
vn 0.6043 -0.7876 0.1202
vn 0.9727 -0.1281 0.1935
vn 0.7836 0.6014 0.1559
vn 0.3816 -0.9212 0.0759
vn 0.1306 0.9911 0.0260
vn 0.9087 -0.3764 0.1807
vn 0.9087 0.3764 0.1807
vn 0.1305 -0.9911 0.0260
vn 0.3234 -0.9212 0.2161
vn 0.1108 0.9911 0.0739
vn 0.7703 -0.3764 0.5147
vn 0.7704 0.3764 0.5147
vn 0.1108 -0.9911 0.0739
vn 0.3235 0.9212 0.2161
vn 0.6643 -0.6013 0.4439
vn 0.8246 0.1281 0.5510
vn 0.5123 0.7876 0.3423
vn 0.5124 -0.7876 0.3423
vn 0.8246 -0.1281 0.5510
vn 0.6643 0.6013 0.4439
vn 0.3423 0.7876 0.5124
vn 0.3423 -0.7876 0.5124
vn 0.5510 -0.1281 0.8246
vn 0.4439 0.6013 0.6643
vn 0.2162 -0.9212 0.3235
vn 0.0739 0.9911 0.1106
vn 0.5147 -0.3764 0.7703
vn 0.5147 0.3764 0.7703
vn 0.0739 -0.9911 0.1106
vn 0.2161 0.9212 0.3235
vn 0.4439 -0.6013 0.6643
vn 0.5510 0.1281 0.8246
vn 0.0261 -0.9911 0.1305
vn 0.0760 0.9212 0.3816
vn 0.1559 -0.6013 0.7836
vn 0.1935 0.1281 0.9727
vn 0.1202 0.7876 0.6044
vn 0.1202 -0.7876 0.6044
vn 0.1935 -0.1281 0.9727
vn 0.1559 0.6013 0.7836
vn 0.0759 -0.9212 0.3816
vn 0.0257 0.9911 0.1305
vn 0.1807 -0.3764 0.9087
vn 0.1807 0.3764 0.9087
vn -0.1559 0.6013 0.7836
vn -0.0758 -0.9212 0.3816
vn -0.0257 0.9911 0.1305
vn -0.1807 -0.3764 0.9087
vn -0.1807 0.3764 0.9087
vn -0.0261 -0.9911 0.1305
vn -0.0759 0.9212 0.3816
vn -0.1559 -0.6013 0.7836
vn -0.1935 0.1281 0.9727
vn -0.1202 0.7876 0.6044
vn -0.1202 -0.7876 0.6044
vn -0.1935 -0.1281 0.9727
vn -0.3424 0.7876 0.5123
vn -0.3424 -0.7876 0.5123
vn -0.5510 -0.1281 0.8246
vn -0.4439 0.6013 0.6644
vn -0.2161 -0.9212 0.3235
vn -0.0740 0.9911 0.1106
vn -0.5147 -0.3764 0.7703
vn -0.5147 0.3764 0.7703
vn -0.0739 -0.9911 0.1106
vn -0.2161 0.9212 0.3235
vn -0.4439 -0.6013 0.6643
vn -0.5510 0.1281 0.8246
vn -0.7703 0.3764 0.5147
vn -0.1108 -0.9911 0.0739
vn -0.3235 0.9212 0.2161
vn -0.6643 -0.6014 0.4439
vn -0.8246 0.1281 0.5510
vn -0.5123 0.7876 0.3423
vn -0.5124 -0.7876 0.3423
vn -0.8246 -0.1281 0.5510
vn -0.6643 0.6013 0.4439
vn -0.3234 -0.9212 0.2161
vn -0.1107 0.9911 0.0739
vn -0.7703 -0.3764 0.5147
vn -0.7836 0.6014 0.1559
vn -0.3816 -0.9212 0.0759
vn -0.1306 0.9911 0.0260
vn -0.9087 -0.3764 0.1807
vn -0.9087 0.3764 0.1807
vn -0.1305 -0.9911 0.0260
vn -0.3816 0.9212 0.0759
vn -0.7837 -0.6013 0.1559
vn -0.9727 0.1281 0.1935
vn -0.6044 0.7876 0.1202
vn -0.6043 -0.7876 0.1202
vn -0.9727 -0.1281 0.1935
vn -0.9727 0.1281 -0.1935
vn -0.6044 0.7876 -0.1202
vn -0.6044 -0.7876 -0.1202
vn -0.9727 -0.1281 -0.1935
vn -0.7836 0.6013 -0.1559
vn -0.3816 -0.9212 -0.0759
vn -0.1306 0.9911 -0.0260
vn -0.9087 -0.3764 -0.1807
vn -0.9087 0.3764 -0.1807
vn -0.1305 -0.9911 -0.0260
vn -0.3816 0.9212 -0.0759
vn -0.7836 -0.6013 -0.1559
vn -0.7703 0.3764 -0.5147
vn -0.1108 -0.9911 -0.0739
vn -0.3235 0.9212 -0.2161
vn -0.6643 -0.6013 -0.4439
vn -0.8246 0.1281 -0.5510
vn -0.5123 0.7876 -0.3423
vn -0.5124 -0.7876 -0.3423
vn -0.8246 -0.1281 -0.5510
vn -0.6643 0.6014 -0.4439
vn -0.3234 -0.9212 -0.2161
vn -0.1108 0.9911 -0.0739
vn -0.7703 -0.3764 -0.5147
vn -0.5510 -0.1281 -0.8246
vn -0.4439 0.6013 -0.6643
vn -0.2161 -0.9212 -0.3235
vn -0.0739 0.9911 -0.1106
vn -0.5147 -0.3764 -0.7703
vn -0.5147 0.3764 -0.7703
vn -0.0739 -0.9911 -0.1106
vn -0.2161 0.9212 -0.3235
vn -0.4439 -0.6013 -0.6643
vn -0.5510 0.1281 -0.8246
vn -0.3424 0.7876 -0.5123
vn -0.3424 -0.7876 -0.5123
vn -0.1935 0.1281 -0.9727
vn -0.1202 0.7876 -0.6044
vn -0.1202 -0.7876 -0.6044
vn -0.1935 -0.1281 -0.9727
vn -0.1559 0.6013 -0.7836
vn -0.0758 -0.9212 -0.3816
vn -0.0257 0.9911 -0.1305
vn -0.1807 -0.3764 -0.9087
vn -0.1807 0.3764 -0.9087
vn -0.0261 -0.9911 -0.1305
vn -0.0759 0.9212 -0.3816
vn -0.1559 -0.6013 -0.7836
vn -0.9808 -0.0000 -0.1951
vn -0.8315 -0.0000 -0.5556
vn -0.5556 -0.0000 -0.8315
vn -0.1951 -0.0000 -0.9808
vn 0.1951 -0.0000 -0.9808
vn 0.5556 -0.0000 -0.8315
vn 0.8315 -0.0000 -0.5556
vn 0.9808 -0.0000 -0.1951
vn 0.9808 -0.0000 0.1951
vn 0.8315 -0.0000 0.5556
vn 0.5556 -0.0000 0.8315
vn 0.1951 -0.0000 0.9808
vn -0.1951 -0.0000 0.9808
vn -0.5556 -0.0000 0.8315
vn -0.8315 -0.0000 0.5556
vn -0.9808 -0.0000 0.1951
vt 0.375000 0.000000
vt 0.625000 0.000000
vt 0.625000 0.250000
vt 0.375000 0.250000
vt 0.625000 0.500000
vt 0.375000 0.500000
vt 0.625000 0.750000
vt 0.375000 0.750000
vt 0.625000 1.000000
vt 0.375000 1.000000
vt 0.125000 0.500000
vt 0.125000 0.750000
vt 0.875000 0.500000
vt 0.875000 0.750000
vt 1.000000 0.500000
vt 1.000000 1.000000
vt 0.937500 1.000000
vt 0.937500 0.500000
vt 0.875000 1.000000
vt 0.812500 1.000000
vt 0.812500 0.500000
vt 0.750000 1.000000
vt 0.750000 0.500000
vt 0.687500 1.000000
vt 0.687500 0.500000
vt 0.562500 1.000000
vt 0.562500 0.500000
vt 0.500000 1.000000
vt 0.500000 0.500000
vt 0.437500 1.000000
vt 0.437500 0.500000
vt 0.312500 1.000000
vt 0.312500 0.500000
vt 0.250000 1.000000
vt 0.250000 0.500000
vt 0.187500 1.000000
vt 0.187500 0.500000
vt 0.125000 1.000000
vt 0.341844 0.471731
vt 0.250000 0.490000
vt 0.158156 0.471731
vt 0.080294 0.419706
vt 0.028269 0.341844
vt 0.010000 0.250000
vt 0.028269 0.158156
vt 0.080294 0.080294
vt 0.158156 0.028269
vt 0.250000 0.010000
vt 0.341844 0.028269
vt 0.419706 0.080294
vt 0.471731 0.158156
vt 0.490000 0.250000
vt 0.471731 0.341844
vt 0.419706 0.419706
vt 0.062500 1.000000
vt 0.062500 0.500000
vt 0.000000 1.000000
vt 0.000000 0.500000
vt 0.750000 0.490000
vt 0.841844 0.471731
vt 0.919706 0.419706
vt 0.971731 0.341844
vt 0.990000 0.250000
vt 0.971731 0.158156
vt 0.919706 0.080294
vt 0.841844 0.028269
vt 0.750000 0.010000
vt 0.658156 0.028269
vt 0.580294 0.080294
vt 0.528269 0.158156
vt 0.510000 0.250000
vt 0.528269 0.341844
vt 0.580294 0.419706
vt 0.658156 0.471731
vt 0.750000 0.666667
vt 0.750000 0.750000
vt 0.687500 0.750000
vt 0.687500 0.666667
vt 0.750000 0.083333
vt 0.750000 0.166667
vt 0.687500 0.166667
vt 0.687500 0.083333
vt 0.750000 0.916667
vt 0.718750 1.000000
vt 0.687500 0.916667
vt 0.750000 0.333333
vt 0.750000 0.416667
vt 0.687500 0.416667
vt 0.687500 0.333333
vt 0.750000 0.583333
vt 0.687500 0.583333
vt 0.718750 0.000000
vt 0.750000 0.833333
vt 0.687500 0.833333
vt 0.750000 0.250000
vt 0.687500 0.250000
vt 0.625000 0.333333
vt 0.625000 0.583333
vt 0.625000 0.833333
vt 0.625000 0.166667
vt 0.625000 0.416667
vt 0.625000 0.666667
vt 0.625000 0.083333
vt 0.656250 1.000000
vt 0.625000 0.916667
vt 0.656250 0.000000
vt 0.593750 1.000000
vt 0.562500 0.916667
vt 0.562500 0.416667
vt 0.562500 0.333333
vt 0.562500 0.666667
vt 0.562500 0.583333
vt 0.593750 0.000000
vt 0.562500 0.083333
vt 0.562500 0.833333
vt 0.562500 0.250000
vt 0.562500 0.750000
vt 0.562500 0.166667
vt 0.500000 0.250000
vt 0.500000 0.166667
vt 0.500000 0.500000
vt 0.500000 0.416667
vt 0.500000 0.750000
vt 0.500000 0.666667
vt 0.500000 0.083333
vt 0.531250 1.000000
vt 0.500000 0.916667
vt 0.500000 0.333333
vt 0.500000 0.583333
vt 0.531250 0.000000
vt 0.500000 0.833333
vt 0.437500 0.916667
vt 0.437500 0.833333
vt 0.437500 0.333333
vt 0.437500 0.250000
vt 0.437500 0.583333
vt 0.437500 0.500000
vt 0.437500 0.750000
vt 0.437500 0.166667
vt 0.437500 0.416667
vt 0.437500 0.666667
vt 0.437500 0.083333
vt 0.468750 1.000000
vt 0.468750 0.000000
vt 0.375000 0.166667
vt 0.375000 0.083333
vt 0.406250 1.000000
vt 0.375000 0.916667
vt 0.375000 0.416667
vt 0.375000 0.333333
vt 0.375000 0.666667
vt 0.375000 0.583333
vt 0.406250 0.000000
vt 0.375000 0.833333
vt 0.375000 0.250000
vt 0.375000 0.500000
vt 0.375000 0.750000
vt 0.312500 0.833333
vt 0.312500 0.750000
vt 0.312500 0.250000
vt 0.312500 0.166667
vt 0.312500 0.500000
vt 0.312500 0.416667
vt 0.312500 0.666667
vt 0.312500 0.083333
vt 0.343750 1.000000
vt 0.312500 0.916667
vt 0.312500 0.333333
vt 0.312500 0.583333
vt 0.343750 0.000000
vt 0.281250 0.000000
vt 0.250000 0.083333
vt 0.250000 0.916667
vt 0.250000 0.833333
vt 0.250000 0.333333
vt 0.250000 0.250000
vt 0.250000 0.583333
vt 0.250000 0.500000
vt 0.250000 0.750000
vt 0.250000 0.166667
vt 0.250000 0.416667
vt 0.250000 0.666667
vt 0.281250 1.000000
vt 0.187500 0.750000
vt 0.187500 0.666667
vt 0.187500 0.166667
vt 0.187500 0.083333
vt 0.218750 1.000000
vt 0.187500 0.916667
vt 0.187500 0.416667
vt 0.187500 0.333333
vt 0.187500 0.583333
vt 0.218750 0.000000
vt 0.187500 0.833333
vt 0.187500 0.250000
vt 0.187500 0.500000
vt 0.125000 0.833333
vt 0.125000 0.750000
vt 0.125000 0.250000
vt 0.125000 0.166667
vt 0.125000 0.500000
vt 0.125000 0.416667
vt 0.125000 0.666667
vt 0.125000 0.083333
vt 0.156250 1.000000
vt 0.125000 0.916667
vt 0.125000 0.333333
vt 0.125000 0.583333
vt 0.156250 0.000000
vt 0.062500 0.666667
vt 0.062500 0.583333
vt 0.093750 0.000000
vt 0.062500 0.083333
vt 0.062500 0.916667
vt 0.062500 0.833333
vt 0.062500 0.333333
vt 0.062500 0.250000
vt 0.062500 0.500000
vt 0.062500 0.750000
vt 0.062500 0.166667
vt 0.062500 0.416667
vt 0.093750 1.000000
vt 0.000000 0.750000
vt 0.000000 0.666667
vt 0.000000 0.166667
vt 0.000000 0.083333
vt 0.031250 1.000000
vt 0.000000 0.916667
vt 0.000000 0.416667
vt 0.000000 0.333333
vt 0.000000 0.583333
vt 0.031250 0.000000
vt 0.000000 0.833333
vt 0.000000 0.250000
vt 1.000000 0.583333
vt 0.937500 0.583333
vt 0.937500 0.500000
vt 1.000000 0.750000
vt 1.000000 0.833333
vt 0.937500 0.833333
vt 0.937500 0.750000
vt 1.000000 0.166667
vt 1.000000 0.250000
vt 0.937500 0.250000
vt 0.937500 0.166667
vt 1.000000 0.416667
vt 0.937500 0.416667
vt 1.000000 0.666667
vt 0.937500 0.666667
vt 1.000000 0.083333
vt 0.937500 0.083333
vt 1.000000 0.916667
vt 0.968750 1.000000
vt 0.937500 0.916667
vt 1.000000 0.333333
vt 0.937500 0.333333
vt 0.968750 0.000000
vt 0.875000 0.666667
vt 0.875000 0.583333
vt 0.906250 0.000000
vt 0.875000 0.083333
vt 0.875000 0.916667
vt 0.875000 0.833333
vt 0.875000 0.333333
vt 0.875000 0.250000
vt 0.875000 0.500000
vt 0.875000 0.750000
vt 0.875000 0.166667
vt 0.875000 0.416667
vt 0.906250 1.000000
vt 0.812500 0.500000
vt 0.812500 0.416667
vt 0.812500 0.750000
vt 0.812500 0.666667
vt 0.812500 0.166667
vt 0.812500 0.083333
vt 0.843750 1.000000
vt 0.812500 0.916667
vt 0.812500 0.333333
vt 0.812500 0.583333
vt 0.843750 0.000000
vt 0.812500 0.833333
vt 0.812500 0.250000
vt 0.781250 1.000000
vt 0.781250 0.000000
vt 0.010000 0.250000
vt 0.250000 0.010000
vt 0.750000 0.010000
vt 0.250000 0.490000
vt 0.080294 0.419706
vt 0.028269 0.341844
vt 0.010000 0.250000
vt 0.028269 0.158156
vt 0.080294 0.080294
vt 0.158156 0.028269
vt 0.250000 0.010000
vt 0.341844 0.028269
vt 0.419706 0.080294
vt 0.490000 0.250000
vt 0.750000 0.490000
vt 0.919706 0.080294
vt 0.841844 0.028269
vt 0.750000 0.010000
vt 0.658156 0.028269
vt 0.580294 0.080294
s 0
usemtl Mat_ShotgunSteel
f 1/1/1 2/2/1 4/3/1 3/4/1
f 3/4/2 4/3/2 8/5/2 7/6/2
f 7/6/3 8/5/3 6/7/3 5/8/3
f 5/8/4 6/7/4 2/9/4 1/10/4
f 3/11/5 7/6/5 5/8/5 1/12/5
f 8/5/6 4/13/6 2/14/6 6/7/6
f 9/1/1 10/2/1 12/3/1 11/4/1
f 11/4/2 12/3/2 16/5/2 15/6/2
f 15/6/3 16/5/3 14/7/3 13/8/3
f 13/8/4 14/7/4 10/9/4 9/10/4
f 11/11/5 15/6/5 13/8/5 9/12/5
f 16/5/6 12/13/6 10/14/6 14/7/6
f 17/1/1 18/2/1 20/3/1 19/4/1
f 19/4/2 20/3/2 24/5/2 23/6/2
f 23/6/3 24/5/3 22/7/3 21/8/3
f 21/8/4 22/7/4 18/9/4 17/10/4
f 19/11/5 23/6/5 21/8/5 17/12/5
f 24/5/6 20/13/6 18/14/6 22/7/6
f 25/15/7 26/16/7 28/17/7 27/18/7
f 27/18/8 28/17/8 30/19/8 29/13/8
f 29/13/9 30/19/9 32/20/9 31/21/9
f 31/21/10 32/20/10 34/22/10 33/23/10
f 33/23/11 34/22/11 36/24/11 35/25/11
f 35/25/12 36/24/12 38/9/12 37/5/12
f 37/5/13 38/9/13 40/26/13 39/27/13
f 39/27/14 40/26/14 42/28/14 41/29/14
f 41/29/15 42/28/15 44/30/15 43/31/15
f 43/31/16 44/30/16 46/10/16 45/6/16
f 45/6/17 46/10/17 48/32/17 47/33/17
f 47/33/18 48/32/18 50/34/18 49/35/18
f 49/35/19 50/34/19 52/36/19 51/37/19
f 51/37/20 52/36/20 54/38/20 53/11/20
f 28/39/4 26/40/4 56/41/4 54/42/4 52/43/4 50/44/4 48/45/4 46/46/4 44/47/4 42/48/4 40/49/4 38/50/4 36/51/4 34/52/4 32/53/4 30/54/4
f 53/11/21 54/38/21 56/55/21 55/56/21
f 55/56/22 56/55/22 26/57/22 25/58/22
f 25/59/2 27/60/2 29/61/2 31/62/2 33/63/2 35/64/2 37/65/2 39/66/2 41/67/2 43/68/2 45/69/2 47/70/2 49/71/2 51/72/2 53/73/2 55/74/2
f 57/1/1 58/2/1 60/3/1 59/4/1
f 59/4/2 60/3/2 64/5/2 63/6/2
f 63/6/3 64/5/3 62/7/3 61/8/3
f 61/8/4 62/7/4 58/9/4 57/10/4
f 59/11/5 63/6/5 61/8/5 57/12/5
f 64/5/6 60/13/6 58/14/6 62/7/6
f 243/15/7 244/16/7 246/17/7 245/18/7
f 245/18/8 246/17/8 248/19/8 247/13/8
f 247/13/9 248/19/9 250/20/9 249/21/9
f 249/21/10 250/20/10 252/22/10 251/23/10
f 251/23/11 252/22/11 254/24/11 253/25/11
f 253/25/12 254/24/12 256/9/12 255/5/12
f 255/5/13 256/9/13 258/26/13 257/27/13
f 257/27/14 258/26/14 260/28/14 259/29/14
f 259/29/15 260/28/15 262/30/15 261/31/15
f 261/31/16 262/30/16 264/10/16 263/6/16
f 263/6/17 264/10/17 266/32/17 265/33/17
f 265/33/18 266/32/18 268/34/18 267/35/18
f 267/35/19 268/34/19 270/36/19 269/37/19
f 269/37/20 270/36/20 272/38/20 271/11/20
f 246/39/4 244/40/4 274/41/4 272/42/4 270/43/4 268/286/4 266/45/4 264/46/4 262/47/4 260/287/4 258/49/4 256/50/4 254/51/4 252/52/4 250/53/4 248/54/4
f 271/11/21 272/38/21 274/55/21 273/56/21
f 273/56/22 274/55/22 244/57/22 243/58/22
f 243/59/2 245/60/2 247/61/2 249/62/2 251/63/2 253/64/2 255/65/2 257/66/2 259/288/2 261/68/2 263/69/2 265/70/2 267/71/2 269/72/2 271/73/2 273/74/2
f 275/1/1 276/2/1 278/3/1 277/4/1
f 277/4/2 278/3/2 282/5/2 281/6/2
f 281/6/3 282/5/3 280/7/3 279/8/3
f 279/8/4 280/7/4 276/9/4 275/10/4
f 277/11/5 281/6/5 279/8/5 275/12/5
f 282/5/6 278/13/6 276/14/6 280/7/6
f 483/1/1 484/2/1 486/3/1 485/4/1
f 485/4/2 486/3/2 490/5/2 489/6/2
f 489/6/3 490/5/3 488/7/3 487/8/3
f 487/8/4 488/7/4 484/9/4 483/10/4
f 485/11/5 489/6/5 487/8/5 483/12/5
f 490/5/6 486/13/6 484/14/6 488/7/6
f 491/15/215 492/16/215 494/17/215 493/18/215
f 493/18/216 494/17/216 496/19/216 495/13/216
f 495/13/217 496/19/217 498/20/217 497/21/217
f 497/21/218 498/20/218 500/22/218 499/23/218
f 499/23/219 500/22/219 502/24/219 501/25/219
f 501/25/220 502/24/220 504/9/220 503/5/220
f 503/5/221 504/9/221 506/26/221 505/27/221
f 505/27/222 506/26/222 508/28/222 507/29/222
f 507/29/223 508/28/223 510/30/223 509/31/223
f 509/31/224 510/30/224 512/10/224 511/6/224
f 511/6/225 512/10/225 514/32/225 513/33/225
f 513/33/226 514/32/226 516/34/226 515/35/226
f 515/35/227 516/34/227 518/36/227 517/37/227
f 517/37/228 518/36/228 520/38/228 519/11/228
f 494/39/6 492/40/6 522/41/6 520/290/6 518/43/6 516/286/6 514/45/6 512/294/6 510/47/6 508/287/6 506/49/6 504/298/6 502/51/6 500/52/6 498/53/6 496/54/6
f 519/11/229 520/38/229 522/55/229 521/56/229
f 521/56/230 522/55/230 492/57/230 491/58/230
f 491/59/5 493/60/5 495/61/5 497/62/5 499/63/5 501/64/5 503/301/5 505/66/5 507/288/5 509/68/5 511/305/5 513/70/5 515/71/5 517/72/5 519/73/5 521/74/5
usemtl Mat_BeadSight
f 67/75/23 240/76/23 75/77/23 76/78/23
f 72/79/24 71/80/24 82/81/24 83/82/24
f 65/83/25 84/84/25 73/85/25
f 70/86/26 241/87/26 79/88/26 80/89/26
f 68/90/27 67/75/27 76/78/27 77/91/27
f 173/92/28 72/79/28 83/82/28
f 66/93/29 65/83/29 73/85/29 74/94/29
f 242/95/30 70/86/30 80/89/30 81/96/30
f 69/23/31 68/90/31 77/91/31 78/25/31
f 240/76/32 66/93/32 74/94/32 75/77/32
f 71/80/33 242/95/33 81/96/33 82/81/33
f 241/87/34 69/23/34 78/25/34 79/88/34
f 81/96/35 80/89/35 92/97/35 93/3/35
f 78/25/36 77/91/36 89/98/36 90/5/36
f 75/77/37 74/94/37 86/99/37 87/7/37
f 82/81/38 81/96/38 93/3/38 94/100/38
f 79/88/39 78/25/39 90/5/39 91/101/39
f 76/78/40 75/77/40 87/7/40 88/102/40
f 83/82/41 82/81/41 94/100/41 95/103/41
f 73/85/42 84/104/42 85/105/42
f 80/89/43 79/88/43 91/101/43 92/97/43
f 77/91/44 76/78/44 88/102/44 89/98/44
f 173/106/45 83/82/45 95/103/45
f 74/94/46 73/85/46 85/105/46 86/99/46
f 85/105/47 84/107/47 96/108/47
f 92/97/48 91/101/48 102/109/48 103/110/48
f 89/98/49 88/102/49 99/111/49 100/112/49
f 173/113/50 95/103/50 106/114/50
f 86/99/51 85/105/51 96/108/51 97/115/51
f 93/3/52 92/97/52 103/110/52 104/116/52
f 90/5/53 89/98/53 100/112/53 101/27/53
f 87/7/54 86/99/54 97/115/54 98/117/54
f 94/100/55 93/3/55 104/116/55 105/118/55
f 91/101/56 90/5/56 101/27/56 102/109/56
f 88/102/57 87/7/57 98/117/57 99/111/57
f 95/103/58 94/100/58 105/118/58 106/114/58
f 105/118/59 104/116/59 115/119/59 116/120/59
f 102/109/60 101/27/60 112/121/60 113/122/60
f 99/111/61 98/117/61 109/123/61 110/124/61
f 106/114/62 105/118/62 116/120/62 117/125/62
f 96/108/63 84/126/63 107/127/63
f 103/110/64 102/109/64 113/122/64 114/128/64
f 100/112/65 99/111/65 110/124/65 111/129/65
f 173/130/66 106/114/66 117/125/66
f 97/115/67 96/108/67 107/127/67 108/131/67
f 104/116/68 103/110/68 114/128/68 115/119/68
f 101/27/69 100/112/69 111/129/69 112/121/69
f 98/117/70 97/115/70 108/131/70 109/123/70
f 108/131/71 107/127/71 118/132/71 119/133/71
f 115/119/72 114/128/72 125/134/72 126/135/72
f 112/121/73 111/129/73 122/136/73 123/137/73
f 109/123/74 108/131/74 119/133/74 120/138/74
f 116/120/75 115/119/75 126/135/75 127/139/75
f 113/122/76 112/121/76 123/137/76 124/140/76
f 110/124/77 109/123/77 120/138/77 121/141/77
f 117/125/78 116/120/78 127/139/78 128/142/78
f 107/127/79 84/143/79 118/132/79
f 114/128/80 113/122/80 124/140/80 125/134/80
f 111/129/81 110/124/81 121/141/81 122/136/81
f 173/144/82 117/125/82 128/142/82
f 128/142/83 127/139/83 138/145/83 139/146/83
f 118/132/84 84/147/84 129/148/84
f 125/134/85 124/140/85 135/149/85 136/150/85
f 122/136/86 121/141/86 132/151/86 133/152/86
f 173/153/87 128/142/87 139/146/87
f 119/133/88 118/132/88 129/148/88 130/154/88
f 126/135/89 125/134/89 136/150/89 137/155/89
f 123/137/90 122/136/90 133/152/90 134/156/90
f 120/138/91 119/133/91 130/154/91 131/157/91
f 127/139/92 126/135/92 137/155/92 138/145/92
f 124/140/93 123/137/93 134/156/93 135/149/93
f 121/141/94 120/138/94 131/157/94 132/151/94
f 131/157/95 130/154/95 141/158/95 142/159/95
f 138/145/96 137/155/96 148/160/96 149/161/96
f 135/149/97 134/156/97 145/162/97 146/163/97
f 132/151/98 131/157/98 142/159/98 143/164/98
f 139/146/99 138/145/99 149/161/99 150/165/99
f 129/148/100 84/166/100 140/167/100
f 136/150/101 135/149/101 146/163/101 147/168/101
f 133/152/102 132/151/102 143/164/102 144/169/102
f 173/170/103 139/146/103 150/165/103
f 130/154/104 129/148/104 140/167/104 141/158/104
f 137/155/105 136/150/105 147/168/105 148/160/105
f 134/156/106 133/152/106 144/169/106 145/162/106
f 173/171/107 150/165/107 161/172/107
f 141/158/108 140/167/108 151/173/108 152/174/108
f 148/160/109 147/168/109 158/175/109 159/176/109
f 145/162/110 144/169/110 155/177/110 156/178/110
f 142/159/111 141/158/111 152/174/111 153/179/111
f 149/161/112 148/160/112 159/176/112 160/180/112
f 146/163/113 145/162/113 156/178/113 157/181/113
f 143/164/114 142/159/114 153/179/114 154/182/114
f 150/165/115 149/161/115 160/180/115 161/172/115
f 140/167/116 84/183/116 151/173/116
f 147/168/117 146/163/117 157/181/117 158/175/117
f 144/169/118 143/164/118 154/182/118 155/177/118
f 154/182/119 153/179/119 164/184/119 165/185/119
f 161/172/120 160/180/120 171/186/120 172/187/120
f 151/173/121 84/188/121 162/189/121
f 158/175/122 157/181/122 168/190/122 169/191/122
f 155/177/123 154/182/123 165/185/123 166/192/123
f 173/193/124 161/172/124 172/187/124
f 152/174/125 151/173/125 162/189/125 163/194/125
f 159/176/126 158/175/126 169/191/126 170/195/126
f 156/178/127 155/177/127 166/192/127 167/196/127
f 153/179/128 152/174/128 163/194/128 164/184/128
f 160/180/129 159/176/129 170/195/129 171/186/129
f 157/181/130 156/178/130 167/196/130 168/190/130
f 164/184/131 163/194/131 175/197/131 176/198/131
f 171/186/132 170/195/132 182/199/132 183/200/132
f 168/190/133 167/196/133 179/201/133 180/202/133
f 165/185/134 164/184/134 176/198/134 177/203/134
f 172/187/135 171/186/135 183/200/135 184/204/135
f 162/189/136 84/205/136 174/206/136
f 169/191/137 168/190/137 180/202/137 181/207/137
f 166/192/138 165/185/138 177/203/138 178/208/138
f 173/209/139 172/187/139 184/204/139
f 163/194/140 162/189/140 174/206/140 175/197/140
f 170/195/141 169/191/141 181/207/141 182/199/141
f 167/196/142 166/192/142 178/208/142 179/201/142
f 178/208/143 177/203/143 188/210/143 189/211/143
f 173/212/144 184/204/144 195/213/144
f 175/197/145 174/206/145 185/214/145 186/215/145
f 182/199/146 181/207/146 192/216/146 193/217/146
f 179/201/147 178/208/147 189/211/147 190/218/147
f 176/198/148 175/197/148 186/215/148 187/219/148
f 183/200/149 182/199/149 193/217/149 194/220/149
f 180/202/150 179/201/150 190/218/150 191/221/150
f 177/203/151 176/198/151 187/219/151 188/210/151
f 184/204/152 183/200/152 194/220/152 195/213/152
f 174/206/153 84/222/153 185/214/153
f 181/207/154 180/202/154 191/221/154 192/216/154
f 188/210/155 187/219/155 198/223/155 199/224/155
f 195/213/156 194/220/156 205/225/156 206/226/156
f 185/214/157 84/227/157 196/228/157
f 192/216/158 191/221/158 202/229/158 203/230/158
f 189/211/159 188/210/159 199/224/159 200/231/159
f 173/232/160 195/213/160 206/226/160
f 186/215/161 185/214/161 196/228/161 197/233/161
f 193/217/162 192/216/162 203/230/162 204/234/162
f 190/218/163 189/211/163 200/231/163 201/58/163
f 187/219/164 186/215/164 197/233/164 198/223/164
f 194/220/165 193/217/165 204/234/165 205/225/165
f 191/221/166 190/218/166 201/58/166 202/229/166
f 201/15/167 200/235/167 211/236/167 212/237/167
f 198/238/168 197/239/168 208/240/168 209/241/168
f 205/242/169 204/243/169 215/244/169 216/245/169
f 202/246/170 201/15/170 212/237/170 213/247/170
f 199/248/171 198/238/171 209/241/171 210/249/171
f 206/250/172 205/242/172 216/245/172 217/251/172
f 196/252/173 84/253/173 207/254/173
f 203/255/174 202/246/174 213/247/174 214/256/174
f 200/235/175 199/248/175 210/249/175 211/236/175
f 173/257/176 206/250/176 217/251/176
f 197/239/177 196/252/177 207/254/177 208/240/177
f 204/243/178 203/255/178 214/256/178 215/244/178
f 211/236/179 210/249/179 221/258/179 222/259/179
f 173/260/180 217/251/180 228/261/180
f 208/240/181 207/254/181 218/262/181 219/263/181
f 215/244/182 214/256/182 225/264/182 226/265/182
f 212/237/183 211/236/183 222/259/183 223/266/183
f 209/241/184 208/240/184 219/263/184 220/267/184
f 216/245/185 215/244/185 226/265/185 227/268/185
f 213/247/186 212/237/186 223/266/186 224/269/186
f 210/249/187 209/241/187 220/267/187 221/258/187
f 217/251/188 216/245/188 227/268/188 228/261/188
f 207/254/189 84/270/189 218/262/189
f 214/256/190 213/247/190 224/269/190 225/264/190
f 224/269/191 223/266/191 234/271/191 235/272/191
f 221/258/192 220/267/192 231/273/192 232/274/192
f 228/261/193 227/268/193 238/275/193 239/276/193
f 218/262/194 84/277/194 229/278/194
f 225/264/195 224/269/195 235/272/195 236/279/195
f 222/259/196 221/258/196 232/274/196 233/280/196
f 173/281/197 228/261/197 239/276/197
f 219/263/198 218/262/198 229/278/198 230/282/198
f 226/265/199 225/264/199 236/279/199 237/283/199
f 223/266/200 222/259/200 233/280/200 234/271/200
f 220/267/201 219/263/201 230/282/201 231/273/201
f 227/268/202 226/265/202 237/283/202 238/275/202
f 234/271/203 233/280/203 68/90/203 69/23/203
f 231/273/204 230/282/204 66/93/204 240/76/204
f 238/275/205 237/283/205 242/95/205 71/80/205
f 235/272/206 234/271/206 69/23/206 241/87/206
f 232/274/207 231/273/207 240/76/207 67/75/207
f 239/276/208 238/275/208 71/80/208 72/79/208
f 229/278/209 84/284/209 65/83/209
f 236/279/210 235/272/210 241/87/210 70/86/210
f 233/280/211 232/274/211 67/75/211 68/90/211
f 173/285/212 239/276/212 72/79/212
f 230/282/213 229/278/213 65/83/213 66/93/213
f 237/283/214 236/279/214 70/86/214 242/95/214
usemtl Mat_ShotgunStock
f 283/15/7 284/16/7 286/17/7 285/18/7
f 285/18/8 286/17/8 288/19/8 287/13/8
f 287/13/9 288/19/9 290/20/9 289/21/9
f 289/21/10 290/20/10 292/22/10 291/23/10
f 291/23/11 292/22/11 294/24/11 293/25/11
f 293/25/12 294/24/12 296/9/12 295/5/12
f 295/5/13 296/9/13 298/26/13 297/27/13
f 297/27/14 298/26/14 300/28/14 299/29/14
f 299/29/15 300/28/15 302/30/15 301/31/15
f 301/31/16 302/30/16 304/10/16 303/6/16
f 303/6/17 304/10/17 306/32/17 305/33/17
f 305/33/18 306/32/18 308/34/18 307/35/18
f 307/35/19 308/34/19 310/36/19 309/37/19
f 309/37/20 310/36/20 312/38/20 311/11/20
f 286/39/4 284/289/4 314/41/4 312/290/4 310/291/4 308/292/4 306/293/4 304/294/4 302/295/4 300/296/4 298/297/4 296/298/4 294/51/4 292/299/4 290/53/4 288/54/4
f 311/11/21 312/38/21 314/55/21 313/56/21
f 313/56/22 314/55/22 284/57/22 283/58/22
f 283/300/2 285/60/2 287/61/2 289/62/2 291/63/2 293/64/2 295/301/2 297/302/2 299/303/2 301/304/2 303/305/2 305/70/2 307/71/2 309/72/2 311/73/2 313/74/2
f 315/15/7 316/16/7 318/17/7 317/18/7
f 317/18/8 318/17/8 320/19/8 319/13/8
f 319/13/9 320/19/9 322/20/9 321/21/9
f 321/21/10 322/20/10 324/22/10 323/23/10
f 323/23/11 324/22/11 326/24/11 325/25/11
f 325/25/12 326/24/12 328/9/12 327/5/12
f 327/5/13 328/9/13 330/26/13 329/27/13
f 329/27/14 330/26/14 332/28/14 331/29/14
f 331/29/15 332/28/15 334/30/15 333/31/15
f 333/31/16 334/30/16 336/10/16 335/6/16
f 335/6/17 336/10/17 338/32/17 337/33/17
f 337/33/18 338/32/18 340/34/18 339/35/18
f 339/35/19 340/34/19 342/36/19 341/37/19
f 341/37/20 342/36/20 344/38/20 343/11/20
f 318/39/4 316/40/4 346/41/4 344/42/4 342/291/4 340/286/4 338/293/4 336/46/4 334/295/4 332/287/4 330/297/4 328/50/4 326/51/4 324/52/4 322/53/4 320/54/4
f 343/11/21 344/38/21 346/55/21 345/56/21
f 345/56/22 346/55/22 316/57/22 315/58/22
f 315/59/2 317/60/2 319/61/2 321/62/2 323/63/2 325/64/2 327/65/2 329/302/2 331/288/2 333/304/2 335/69/2 337/70/2 339/71/2 341/72/2 343/73/2 345/74/2
f 347/15/7 348/16/7 350/17/7 349/18/7
f 349/18/8 350/17/8 352/19/8 351/13/8
f 351/13/9 352/19/9 354/20/9 353/21/9
f 353/21/10 354/20/10 356/22/10 355/23/10
f 355/23/11 356/22/11 358/24/11 357/25/11
f 357/25/12 358/24/12 360/9/12 359/5/12
f 359/5/13 360/9/13 362/26/13 361/27/13
f 361/27/14 362/26/14 364/28/14 363/29/14
f 363/29/15 364/28/15 366/30/15 365/31/15
f 365/31/16 366/30/16 368/10/16 367/6/16
f 367/6/17 368/10/17 370/32/17 369/33/17
f 369/33/18 370/32/18 372/34/18 371/35/18
f 371/35/19 372/34/19 374/36/19 373/37/19
f 373/37/20 374/36/20 376/38/20 375/11/20
f 350/39/4 348/40/4 378/41/4 376/42/4 374/291/4 372/286/4 370/293/4 368/46/4 366/295/4 364/287/4 362/297/4 360/50/4 358/51/4 356/52/4 354/53/4 352/54/4
f 375/11/21 376/38/21 378/55/21 377/56/21
f 377/56/22 378/55/22 348/57/22 347/58/22
f 347/59/2 349/60/2 351/61/2 353/62/2 355/63/2 357/64/2 359/65/2 361/302/2 363/288/2 365/304/2 367/69/2 369/70/2 371/71/2 373/72/2 375/73/2 377/74/2
f 379/15/7 380/16/7 382/17/7 381/18/7
f 381/18/8 382/17/8 384/19/8 383/13/8
f 383/13/9 384/19/9 386/20/9 385/21/9
f 385/21/10 386/20/10 388/22/10 387/23/10
f 387/23/11 388/22/11 390/24/11 389/25/11
f 389/25/12 390/24/12 392/9/12 391/5/12
f 391/5/13 392/9/13 394/26/13 393/27/13
f 393/27/14 394/26/14 396/28/14 395/29/14
f 395/29/15 396/28/15 398/30/15 397/31/15
f 397/31/16 398/30/16 400/10/16 399/6/16
f 399/6/17 400/10/17 402/32/17 401/33/17
f 401/33/18 402/32/18 404/34/18 403/35/18
f 403/35/19 404/34/19 406/36/19 405/37/19
f 405/37/20 406/36/20 408/38/20 407/11/20
f 382/39/4 380/40/4 410/41/4 408/42/4 406/291/4 404/286/4 402/293/4 400/46/4 398/295/4 396/287/4 394/297/4 392/50/4 390/51/4 388/52/4 386/53/4 384/54/4
f 407/11/21 408/38/21 410/55/21 409/56/21
f 409/56/22 410/55/22 380/57/22 379/58/22
f 379/59/2 381/60/2 383/61/2 385/62/2 387/63/2 389/64/2 391/65/2 393/302/2 395/288/2 397/304/2 399/69/2 401/70/2 403/71/2 405/72/2 407/73/2 409/74/2
f 411/15/7 412/16/7 414/17/7 413/18/7
f 413/18/8 414/17/8 416/19/8 415/13/8
f 415/13/9 416/19/9 418/20/9 417/21/9
f 417/21/10 418/20/10 420/22/10 419/23/10
f 419/23/11 420/22/11 422/24/11 421/25/11
f 421/25/12 422/24/12 424/9/12 423/5/12
f 423/5/13 424/9/13 426/26/13 425/27/13
f 425/27/14 426/26/14 428/28/14 427/29/14
f 427/29/15 428/28/15 430/30/15 429/31/15
f 429/31/16 430/30/16 432/10/16 431/6/16
f 431/6/17 432/10/17 434/32/17 433/33/17
f 433/33/18 434/32/18 436/34/18 435/35/18
f 435/35/19 436/34/19 438/36/19 437/37/19
f 437/37/20 438/36/20 440/38/20 439/11/20
f 414/39/4 412/40/4 442/41/4 440/42/4 438/291/4 436/286/4 434/293/4 432/46/4 430/295/4 428/287/4 426/297/4 424/50/4 422/51/4 420/52/4 418/53/4 416/54/4
f 439/11/21 440/38/21 442/55/21 441/56/21
f 441/56/22 442/55/22 412/57/22 411/58/22
f 411/59/2 413/60/2 415/61/2 417/62/2 419/63/2 421/64/2 423/65/2 425/302/2 427/288/2 429/304/2 431/69/2 433/70/2 435/71/2 437/72/2 439/73/2 441/74/2
f 443/15/7 444/16/7 446/17/7 445/18/7
f 445/18/8 446/17/8 448/19/8 447/13/8
f 447/13/9 448/19/9 450/20/9 449/21/9
f 449/21/10 450/20/10 452/22/10 451/23/10
f 451/23/11 452/22/11 454/24/11 453/25/11
f 453/25/12 454/24/12 456/9/12 455/5/12
f 455/5/13 456/9/13 458/26/13 457/27/13
f 457/27/14 458/26/14 460/28/14 459/29/14
f 459/29/15 460/28/15 462/30/15 461/31/15
f 461/31/16 462/30/16 464/10/16 463/6/16
f 463/6/17 464/10/17 466/32/17 465/33/17
f 465/33/18 466/32/18 468/34/18 467/35/18
f 467/35/19 468/34/19 470/36/19 469/37/19
f 469/37/20 470/36/20 472/38/20 471/11/20
f 446/39/4 444/40/4 474/41/4 472/42/4 470/291/4 468/286/4 466/293/4 464/46/4 462/295/4 460/287/4 458/297/4 456/50/4 454/51/4 452/52/4 450/53/4 448/54/4
f 471/11/21 472/38/21 474/55/21 473/56/21
f 473/56/22 474/55/22 444/57/22 443/58/22
f 443/59/2 445/60/2 447/61/2 449/62/2 451/63/2 453/64/2 455/65/2 457/302/2 459/288/2 461/304/2 463/69/2 465/70/2 467/71/2 469/72/2 471/73/2 473/74/2
f 475/1/1 476/2/1 478/3/1 477/4/1
f 477/4/2 478/3/2 482/5/2 481/6/2
f 481/6/3 482/5/3 480/7/3 479/8/3
f 479/8/4 480/7/4 476/9/4 475/10/4
f 477/11/5 481/6/5 479/8/5 475/12/5
f 482/5/6 478/13/6 476/14/6 480/7/6
f 523/1/1 524/2/1 526/3/1 525/4/1
f 525/4/2 526/3/2 530/5/2 529/6/2
f 529/6/3 530/5/3 528/7/3 527/8/3
f 527/8/4 528/7/4 524/9/4 523/10/4
f 525/11/5 529/6/5 527/8/5 523/12/5
f 530/5/6 526/13/6 524/14/6 528/7/6
f 531/1/1 532/2/1 534/3/1 533/4/1
f 533/4/2 534/3/2 538/5/2 537/6/2
f 537/6/3 538/5/3 536/7/3 535/8/3
f 535/8/4 536/7/4 532/9/4 531/10/4
f 533/11/5 537/6/5 535/8/5 531/12/5
f 538/5/6 534/13/6 532/14/6 536/7/6
f 539/1/1 540/2/1 542/3/1 541/4/1
f 541/4/2 542/3/2 546/5/2 545/6/2
f 545/6/3 546/5/3 544/7/3 543/8/3
f 543/8/4 544/7/4 540/9/4 539/10/4
f 541/11/5 545/6/5 543/8/5 539/12/5
f 546/5/6 542/13/6 540/14/6 544/7/6
usemtl Mat_RecoilPad
f 547/1/1 548/2/1 550/3/1 549/4/1
f 549/4/2 550/3/2 554/5/2 553/6/2
f 553/6/3 554/5/3 552/7/3 551/8/3
f 551/8/4 552/7/4 548/9/4 547/10/4
f 549/11/5 553/6/5 551/8/5 547/12/5
f 554/5/6 550/13/6 548/14/6 552/7/6
