# Blender 4.0.2
# www.blender.org
mtllib usp45.mtl
o Weapon_USP45
v -0.017000 -0.160000 -0.002000
v -0.017000 0.060000 -0.002000
v -0.017000 -0.160000 -0.042000
v -0.017000 0.060000 -0.042000
v 0.017000 -0.160000 -0.002000
v 0.017000 0.060000 -0.002000
v 0.017000 -0.160000 -0.042000
v 0.017000 0.060000 -0.042000
v 0.005500 -0.064000 -0.015500
v 0.005500 -0.016000 -0.015500
v 0.005500 -0.064000 -0.040500
v 0.005500 -0.016000 -0.040500
v 0.020500 -0.064000 -0.015500
v 0.020500 -0.016000 -0.015500
v 0.020500 -0.064000 -0.040500
v 0.020500 -0.016000 -0.040500
v 0.000000 -0.161000 -0.052000
v 0.000000 -0.161000 0.008000
v 0.003444 -0.161685 -0.052000
v 0.003444 -0.161685 0.008000
v 0.006364 -0.163636 -0.052000
v 0.006364 -0.163636 0.008000
v 0.008315 -0.166556 -0.052000
v 0.008315 -0.166556 0.008000
v 0.009000 -0.170000 -0.052000
v 0.009000 -0.170000 0.008000
v 0.008315 -0.173444 -0.052000
v 0.008315 -0.173444 0.008000
v 0.006364 -0.176364 -0.052000
v 0.006364 -0.176364 0.008000
v 0.003444 -0.178315 -0.052000
v 0.003444 -0.178315 0.008000
v 0.000000 -0.179000 -0.052000
v 0.000000 -0.179000 0.008000
v -0.003444 -0.178315 -0.052000
v -0.003444 -0.178315 0.008000
v -0.006364 -0.176364 -0.052000
v -0.006364 -0.176364 0.008000
v -0.008315 -0.173444 -0.052000
v -0.008315 -0.173444 0.008000
v -0.009000 -0.170000 -0.052000
v -0.009000 -0.170000 0.008000
v -0.008315 -0.166556 -0.052000
v -0.008315 -0.166556 0.008000
v -0.006364 -0.163636 -0.052000
v -0.006364 -0.163636 0.008000
v -0.003444 -0.161685 -0.052000
v -0.003444 -0.161685 0.008000
v 0.000000 -0.155000 -0.028500
v 0.000000 -0.155000 0.016500
v 0.001913 -0.155381 -0.028500
v 0.001913 -0.155381 0.016500
v 0.003536 -0.156464 -0.028500
v 0.003536 -0.156464 0.016500
v 0.004619 -0.158087 -0.028500
v 0.004619 -0.158087 0.016500
v 0.005000 -0.160000 -0.028500
v 0.005000 -0.160000 0.016500
v 0.004619 -0.161913 -0.028500
v 0.004619 -0.161913 0.016500
v 0.003536 -0.163536 -0.028500
v 0.003536 -0.163536 0.016500
v 0.001913 -0.164619 -0.028500
v 0.001913 -0.164619 0.016500
v 0.000000 -0.165000 -0.028500
v 0.000000 -0.165000 0.016500
v -0.001913 -0.164619 -0.028500
v -0.001913 -0.164619 0.016500
v -0.003536 -0.163536 -0.028500
v -0.003536 -0.163536 0.016500
v -0.004619 -0.161913 -0.028500
v -0.004619 -0.161913 0.016500
v -0.005000 -0.160000 -0.028500
v -0.005000 -0.160000 0.016500
v -0.004619 -0.158087 -0.028500
v -0.004619 -0.158087 0.016500
v -0.003536 -0.156464 -0.028500
v -0.003536 -0.156464 0.016500
v -0.001913 -0.155381 -0.028500
v -0.001913 -0.155381 0.016500
v -0.003500 -0.148000 -0.039000
v -0.003500 -0.132000 -0.039000
v -0.003500 -0.148000 -0.051000
v -0.003500 -0.132000 -0.051000
v 0.003500 -0.148000 -0.039000
v 0.003500 -0.132000 -0.039000
v 0.003500 -0.148000 -0.051000
v 0.003500 -0.132000 -0.051000
v 0.000000 -0.129102 -0.045776
v 0.000000 -0.129402 -0.046500
v 0.000000 -0.130500 -0.047598
v 0.000000 -0.131224 -0.047898
v 0.000000 -0.132000 -0.048000
v 0.000000 -0.132776 -0.047898
v 0.000000 -0.133500 -0.047598
v 0.000000 -0.134598 -0.046500
v 0.000000 -0.134898 -0.045776
v 0.000297 -0.129102 -0.045717
v 0.000574 -0.129402 -0.046386
v 0.000812 -0.129879 -0.046960
v 0.000994 -0.130500 -0.047400
v 0.001109 -0.131224 -0.047677
v 0.001148 -0.132000 -0.047772
v 0.001109 -0.132776 -0.047677
v 0.000994 -0.133500 -0.047400
v 0.000812 -0.134121 -0.046960
v 0.000574 -0.134598 -0.046386
v 0.000297 -0.134898 -0.045717
v 0.000000 -0.129000 -0.045000
v 0.000549 -0.129102 -0.045549
v 0.001061 -0.129402 -0.046061
v 0.001500 -0.129879 -0.046500
v 0.001837 -0.130500 -0.046837
v 0.002049 -0.131224 -0.047049
v 0.002121 -0.132000 -0.047121
v 0.002049 -0.132776 -0.047049
v 0.001837 -0.133500 -0.046837
v 0.001500 -0.134121 -0.046500
v 0.001061 -0.134598 -0.046061
v 0.000549 -0.134898 -0.045549
v 0.000717 -0.129102 -0.045297
v 0.001386 -0.129402 -0.045574
v 0.001960 -0.129879 -0.045812
v 0.002400 -0.130500 -0.045994
v 0.002677 -0.131224 -0.046109
v 0.002772 -0.132000 -0.046148
v 0.002677 -0.132776 -0.046109
v 0.002400 -0.133500 -0.045994
v 0.001960 -0.134121 -0.045812
v 0.001386 -0.134598 -0.045574
v 0.000717 -0.134898 -0.045297
v 0.000776 -0.129102 -0.045000
v 0.001500 -0.129402 -0.045000
v 0.002121 -0.129879 -0.045000
v 0.002598 -0.130500 -0.045000
v 0.002898 -0.131224 -0.045000
v 0.003000 -0.132000 -0.045000
v 0.002898 -0.132776 -0.045000
v 0.002598 -0.133500 -0.045000
v 0.002121 -0.134121 -0.045000
v 0.001500 -0.134598 -0.045000
v 0.000776 -0.134898 -0.045000
v 0.000717 -0.129102 -0.044703
v 0.001386 -0.129402 -0.044426
v 0.001960 -0.129879 -0.044188
v 0.002400 -0.130500 -0.044006
v 0.002677 -0.131224 -0.043891
v 0.002772 -0.132000 -0.043852
v 0.002677 -0.132776 -0.043891
v 0.002400 -0.133500 -0.044006
v 0.001960 -0.134121 -0.044188
v 0.001386 -0.134598 -0.044426
v 0.000717 -0.134898 -0.044703
v 0.000549 -0.129102 -0.044451
v 0.001061 -0.129402 -0.043939
v 0.001500 -0.129879 -0.043500
v 0.001837 -0.130500 -0.043163
v 0.002049 -0.131224 -0.042951
v 0.002121 -0.132000 -0.042879
v 0.002049 -0.132776 -0.042951
v 0.001837 -0.133500 -0.043163
v 0.001500 -0.134121 -0.043500
v 0.001061 -0.134598 -0.043939
v 0.000549 -0.134898 -0.044451
v 0.000297 -0.129102 -0.044283
v 0.000574 -0.129402 -0.043614
v 0.000812 -0.129879 -0.043040
v 0.000994 -0.130500 -0.042600
v 0.001109 -0.131224 -0.042323
v 0.001148 -0.132000 -0.042228
v 0.001109 -0.132776 -0.042323
v 0.000994 -0.133500 -0.042600
v 0.000812 -0.134121 -0.043040
v 0.000574 -0.134598 -0.043614
v 0.000297 -0.134898 -0.044283
v -0.000000 -0.129102 -0.044224
v -0.000000 -0.129402 -0.043500
v -0.000000 -0.129879 -0.042879
v -0.000000 -0.130500 -0.042402
v -0.000000 -0.131224 -0.042102
v -0.000000 -0.132000 -0.042000
v -0.000000 -0.132776 -0.042102
v -0.000000 -0.133500 -0.042402
v -0.000000 -0.134121 -0.042879
v -0.000000 -0.134598 -0.043500
v -0.000000 -0.134898 -0.044224
v -0.000297 -0.129102 -0.044283
v -0.000574 -0.129402 -0.043614
v -0.000812 -0.129879 -0.043040
v -0.000994 -0.130500 -0.042600
v -0.001109 -0.131224 -0.042323
v -0.001148 -0.132000 -0.042228
v -0.001109 -0.132776 -0.042323
v -0.000994 -0.133500 -0.042600
v -0.000812 -0.134121 -0.043040
v -0.000574 -0.134598 -0.043614
v -0.000297 -0.134898 -0.044283
v 0.000000 -0.135000 -0.045000
v -0.000549 -0.129102 -0.044451
v -0.001061 -0.129402 -0.043939
v -0.001500 -0.129879 -0.043500
v -0.001837 -0.130500 -0.043163
v -0.002049 -0.131224 -0.042951
v -0.002121 -0.132000 -0.042879
v -0.002049 -0.132776 -0.042951
v -0.001837 -0.133500 -0.043163
v -0.001500 -0.134121 -0.043500
v -0.001061 -0.134598 -0.043939
v -0.000549 -0.134898 -0.044451
v -0.000717 -0.129102 -0.044703
v -0.001386 -0.129402 -0.044426
v -0.001960 -0.129879 -0.044188
v -0.002400 -0.130500 -0.044006
v -0.002677 -0.131224 -0.043891
v -0.002772 -0.132000 -0.043852
v -0.002677 -0.132776 -0.043891
v -0.002400 -0.133500 -0.044006
v -0.001960 -0.134121 -0.044188
v -0.001386 -0.134598 -0.044426
v -0.000717 -0.134898 -0.044703
v -0.000776 -0.129102 -0.045000
v -0.001500 -0.129402 -0.045000
v -0.002121 -0.129879 -0.045000
v -0.002598 -0.130500 -0.045000
v -0.002898 -0.131224 -0.045000
v -0.003000 -0.132000 -0.045000
v -0.002898 -0.132776 -0.045000
v -0.002598 -0.133500 -0.045000
v -0.002121 -0.134121 -0.045000
v -0.001500 -0.134598 -0.045000
v -0.000776 -0.134898 -0.045000
v -0.000717 -0.129102 -0.045297
v -0.001386 -0.129402 -0.045574
v -0.001960 -0.129879 -0.045812
v -0.002400 -0.130500 -0.045994
v -0.002677 -0.131224 -0.046109
v -0.002772 -0.132000 -0.046148
v -0.002677 -0.132776 -0.046109
v -0.002400 -0.133500 -0.045994
v -0.001960 -0.134121 -0.045812
v -0.001386 -0.134598 -0.045574
v -0.000717 -0.134898 -0.045297
v -0.000549 -0.129102 -0.045549
v -0.001061 -0.129402 -0.046061
v -0.001500 -0.129879 -0.046500
v -0.001837 -0.130500 -0.046837
v -0.002049 -0.131224 -0.047049
v -0.002121 -0.132000 -0.047121
v -0.002049 -0.132776 -0.047049
v -0.001837 -0.133500 -0.046837
v -0.001500 -0.134121 -0.046500
v -0.001061 -0.134598 -0.046061
v -0.000549 -0.134898 -0.045549
v -0.000297 -0.129102 -0.045717
v -0.000574 -0.129402 -0.046386
v -0.000812 -0.129879 -0.046960
v -0.000994 -0.130500 -0.047400
v -0.001109 -0.131224 -0.047677
v -0.001148 -0.132000 -0.047772
v -0.001109 -0.132776 -0.047677
v -0.000994 -0.133500 -0.047400
v -0.000812 -0.134121 -0.046960
v -0.000574 -0.134598 -0.046386
v -0.000297 -0.134898 -0.045717
v 0.000000 -0.129879 -0.047121
v 0.000000 -0.134121 -0.047121
v -0.008000 0.031000 -0.039000
v -0.008000 0.045000 -0.039000
v -0.008000 0.031000 -0.051000
v -0.008000 0.045000 -0.051000
v 0.008000 0.031000 -0.039000
v 0.008000 0.045000 -0.039000
v 0.008000 0.031000 -0.051000
v 0.008000 0.045000 -0.051000
v -0.016000 -0.155000 0.012000
v -0.016000 0.015000 0.012000
v -0.016000 -0.155000 -0.008000
v -0.016000 0.015000 -0.008000
v 0.016000 -0.155000 0.012000
v 0.016000 0.015000 0.012000
v 0.016000 -0.155000 -0.008000
v 0.016000 0.015000 -0.008000
v -0.016000 -0.011000 0.114000
v -0.016000 0.041000 0.114000
v -0.016000 -0.011000 -0.004000
v -0.016000 0.041000 -0.004000
v 0.016000 -0.011000 0.114000
v 0.016000 0.041000 0.114000
v 0.016000 -0.011000 -0.004000
v 0.016000 0.041000 -0.004000
v -0.007000 -0.065000 0.046000
v -0.007000 -0.015000 0.046000
v -0.007000 -0.065000 0.010000
v -0.007000 -0.015000 0.010000
v 0.007000 -0.065000 0.046000
v 0.007000 -0.015000 0.046000
v 0.007000 -0.065000 0.010000
v 0.007000 -0.015000 0.010000
v -0.003000 -0.041000 0.035000
v -0.003000 -0.029000 0.035000
v -0.003000 -0.041000 0.013000
v -0.003000 -0.029000 0.013000
v 0.003000 -0.041000 0.035000
v 0.003000 -0.029000 0.035000
v 0.003000 -0.041000 0.013000
v 0.003000 -0.029000 0.013000
v -0.004500 0.041000 -0.014000
v -0.004500 0.055000 -0.014000
v -0.004500 0.041000 -0.038000
v -0.004500 0.055000 -0.038000
v 0.004500 0.041000 -0.014000
v 0.004500 0.055000 -0.014000
v 0.004500 0.041000 -0.038000
v 0.004500 0.055000 -0.038000
v -0.018000 -0.009000 0.125000
v -0.018000 0.049000 0.125000
v -0.018000 -0.009000 0.111000
v -0.018000 0.049000 0.111000
v 0.018000 -0.009000 0.125000
v 0.018000 0.049000 0.125000
v 0.018000 -0.009000 0.111000
v 0.018000 0.049000 0.111000
vn -1.0000 -0.0000 -0.0000
vn -0.0000 -0.0000 -1.0000
vn 1.0000 -0.0000 -0.0000
vn -0.0000 -0.0000 1.0000
vn -0.0000 -1.0000 -0.0000
vn -0.0000 1.0000 -0.0000
vn 0.1951 0.9808 -0.0000
vn 0.5556 0.8315 -0.0000
vn 0.8315 0.5556 -0.0000
vn 0.9808 0.1951 -0.0000
vn 0.9808 -0.1951 -0.0000
vn 0.8315 -0.5556 -0.0000
vn 0.5556 -0.8315 -0.0000
vn 0.1951 -0.9808 -0.0000
vn -0.1951 -0.9808 -0.0000
vn -0.5556 -0.8315 -0.0000
vn -0.8315 -0.5556 -0.0000
vn -0.9808 -0.1951 -0.0000
vn -0.9808 0.1951 -0.0000
vn -0.8315 0.5556 -0.0000
vn -0.5556 0.8315 -0.0000
vn -0.1951 0.9808 -0.0000
vn 0.1935 0.1281 -0.9727
vn 0.1202 0.7876 -0.6043
vn 0.1202 -0.7876 -0.6043
vn 0.1935 -0.1281 -0.9727
vn 0.1559 0.6013 -0.7837
vn 0.0759 -0.9212 -0.3816
vn 0.0259 0.9911 -0.1305
vn 0.1807 -0.3764 -0.9087
vn 0.1807 0.3764 -0.9087
vn 0.0260 -0.9911 -0.1305
vn 0.0759 0.9212 -0.3816
vn 0.1559 -0.6013 -0.7837
vn 0.4439 0.6013 -0.6643
vn 0.2161 -0.9212 -0.3235
vn 0.0739 0.9911 -0.1106
vn 0.5147 -0.3764 -0.7703
vn 0.5147 0.3764 -0.7703
vn 0.0739 -0.9911 -0.1106
vn 0.2161 0.9212 -0.3235
vn 0.4439 -0.6013 -0.6644
vn 0.5510 0.1281 -0.8246
vn 0.3423 0.7876 -0.5123
vn 0.3423 -0.7876 -0.5123
vn 0.5510 -0.1281 -0.8246
vn 0.5123 0.7876 -0.3423
vn 0.5124 -0.7876 -0.3423
vn 0.8246 -0.1281 -0.5510
vn 0.6644 0.6013 -0.4439
vn 0.3235 -0.9212 -0.2161
vn 0.1106 0.9911 -0.0739
vn 0.7703 -0.3764 -0.5147
vn 0.7703 0.3764 -0.5147
vn 0.1106 -0.9911 -0.0739
vn 0.3235 0.9212 -0.2161
vn 0.6644 -0.6013 -0.4439
vn 0.8246 0.1281 -0.5510
vn 0.9087 0.3764 -0.1807
vn 0.1305 -0.9911 -0.0260
vn 0.3816 0.9212 -0.0759
vn 0.7837 -0.6013 -0.1559
vn 0.9727 0.1281 -0.1935
vn 0.6043 0.7876 -0.1202
vn 0.6043 -0.7876 -0.1202
vn 0.9727 -0.1281 -0.1935
vn 0.7837 0.6013 -0.1559
vn 0.3816 -0.9212 -0.0759
vn 0.1305 0.9911 -0.0260
vn 0.9087 -0.3764 -0.1807
vn 0.7837 0.6013 0.1559
vn 0.3816 -0.9212 0.0759
vn 0.1305 0.9911 0.0260
vn 0.9087 -0.3764 0.1807
vn 0.9087 0.3764 0.1807
vn 0.1305 -0.9911 0.0260
vn 0.3816 0.9212 0.0759
vn 0.7837 -0.6013 0.1559
vn 0.9727 0.1281 0.1935
vn 0.6043 0.7876 0.1202
vn 0.6044 -0.7876 0.1202
vn 0.9727 -0.1281 0.1935
vn 0.8246 0.1281 0.5510
vn 0.5123 0.7876 0.3423
vn 0.5123 -0.7876 0.3423
vn 0.8246 -0.1281 0.5510
vn 0.6644 0.6013 0.4439
vn 0.3235 -0.9212 0.2161
vn 0.1106 0.9911 0.0739
vn 0.7703 -0.3764 0.5147
vn 0.7703 0.3764 0.5147
vn 0.1106 -0.9911 0.0739
vn 0.3235 0.9212 0.2161
vn 0.6643 -0.6013 0.4439
vn 0.5147 0.3764 0.7703
vn 0.0739 -0.9911 0.1106
vn 0.2162 0.9212 0.3235
vn 0.4439 -0.6013 0.6643
vn 0.5510 0.1281 0.8246
vn 0.3423 0.7876 0.5123
vn 0.3423 -0.7876 0.5123
vn 0.5510 -0.1281 0.8246
vn 0.4439 0.6013 0.6643
vn 0.2161 -0.9212 0.3235
vn 0.0739 0.9911 0.1106
vn 0.5147 -0.3764 0.7703
vn 0.1935 -0.1281 0.9727
vn 0.1559 0.6013 0.7837
vn 0.0759 -0.9212 0.3816
vn 0.0259 0.9911 0.1305
vn 0.1807 -0.3764 0.9087
vn 0.1807 0.3764 0.9087
vn 0.0260 -0.9911 0.1305
vn 0.0759 0.9212 0.3816
vn 0.1559 -0.6013 0.7837
vn 0.1935 0.1281 0.9727
vn 0.1202 0.7876 0.6043
vn 0.1202 -0.7876 0.6043
vn -0.1935 0.1281 0.9727
vn -0.1202 0.7876 0.6043
vn -0.1202 -0.7876 0.6043
vn -0.1935 -0.1281 0.9727
vn -0.1559 0.6013 0.7837
vn -0.0759 -0.9212 0.3816
vn -0.0259 0.9911 0.1305
vn -0.1807 -0.3764 0.9087
vn -0.1807 0.3764 0.9087
vn -0.0260 -0.9911 0.1305
vn -0.0759 0.9212 0.3816
vn -0.1559 -0.6013 0.7837
vn -0.5147 -0.3764 0.7703
vn -0.5147 0.3764 0.7703
vn -0.0739 -0.9911 0.1106
vn -0.2161 0.9212 0.3235
vn -0.4439 -0.6013 0.6644
vn -0.5510 0.1281 0.8246
vn -0.3423 0.7876 0.5123
vn -0.3423 -0.7876 0.5123
vn -0.5510 -0.1281 0.8246
vn -0.4439 0.6013 0.6643
vn -0.2161 -0.9212 0.3235
vn -0.0739 0.9911 0.1106
vn -0.8246 -0.1281 0.5510
vn -0.6644 0.6013 0.4439
vn -0.3235 -0.9212 0.2161
vn -0.1106 0.9911 0.0739
vn -0.7703 -0.3764 0.5147
vn -0.7703 0.3764 0.5147
vn -0.1106 -0.9911 0.0739
vn -0.3235 0.9212 0.2161
vn -0.6643 -0.6013 0.4439
vn -0.8246 0.1281 0.5510
vn -0.5123 0.7876 0.3423
vn -0.5123 -0.7876 0.3423
vn -0.7837 -0.6013 0.1559
vn -0.9727 0.1281 0.1935
vn -0.6044 0.7876 0.1202
vn -0.6043 -0.7876 0.1202
vn -0.9727 -0.1281 0.1935
vn -0.7837 0.6013 0.1559
vn -0.3816 -0.9212 0.0759
vn -0.1305 0.9911 0.0260
vn -0.9087 -0.3764 0.1807
vn -0.9087 0.3764 0.1807
vn -0.1305 -0.9911 0.0260
vn -0.3816 0.9212 0.0759
vn -0.1305 0.9911 -0.0260
vn -0.9087 -0.3764 -0.1807
vn -0.9087 0.3764 -0.1807
vn -0.1305 -0.9911 -0.0260
vn -0.3816 0.9212 -0.0759
vn -0.7837 -0.6013 -0.1559
vn -0.9727 0.1281 -0.1935
vn -0.6043 0.7876 -0.1202
vn -0.6044 -0.7876 -0.1202
vn -0.9727 -0.1281 -0.1935
vn -0.7837 0.6013 -0.1559
vn -0.3816 -0.9212 -0.0759
vn -0.5123 -0.7876 -0.3423
vn -0.8246 -0.1281 -0.5510
vn -0.6644 0.6013 -0.4439
vn -0.3235 -0.9212 -0.2161
vn -0.1106 0.9911 -0.0739
vn -0.7703 -0.3764 -0.5147
vn -0.7703 0.3764 -0.5147
vn -0.1106 -0.9911 -0.0739
vn -0.3235 0.9212 -0.2161
vn -0.6643 -0.6013 -0.4439
vn -0.8246 0.1281 -0.5510
vn -0.5123 0.7876 -0.3423
vn -0.2162 0.9212 -0.3235
vn -0.4439 -0.6013 -0.6643
vn -0.5510 0.1281 -0.8246
vn -0.3423 0.7876 -0.5123
vn -0.3423 -0.7876 -0.5123
vn -0.5510 -0.1281 -0.8246
vn -0.4439 0.6013 -0.6643
vn -0.2161 -0.9212 -0.3235
vn -0.0739 0.9911 -0.1106
vn -0.5147 -0.3764 -0.7703
vn -0.5147 0.3764 -0.7703
vn -0.0739 -0.9911 -0.1106
vn -0.0759 -0.9212 -0.3816
vn -0.0259 0.9911 -0.1305
vn -0.1807 -0.3764 -0.9087
vn -0.1807 0.3764 -0.9087
vn -0.0260 -0.9911 -0.1305
vn -0.0759 0.9212 -0.3816
vn -0.1559 -0.6013 -0.7837
vn -0.1935 0.1281 -0.9727
vn -0.1202 0.7876 -0.6043
vn -0.1202 -0.7876 -0.6043
vn -0.1935 -0.1281 -0.9727
vn -0.1559 0.6013 -0.7837
vt 0.375000 0.000000
vt 0.625000 0.000000
vt 0.625000 0.250000
vt 0.375000 0.250000
vt 0.625000 0.500000
vt 0.375000 0.500000
vt 0.625000 0.750000
vt 0.375000 0.750000
vt 0.625000 1.000000
vt 0.375000 1.000000
vt 0.125000 0.500000
vt 0.125000 0.750000
vt 0.875000 0.500000
vt 0.875000 0.750000
vt 1.000000 0.500000
vt 1.000000 1.000000
vt 0.937500 1.000000
vt 0.937500 0.500000
vt 0.875000 1.000000
vt 0.812500 1.000000
vt 0.812500 0.500000
vt 0.750000 1.000000
vt 0.750000 0.500000
vt 0.687500 1.000000
vt 0.687500 0.500000
vt 0.562500 1.000000
vt 0.562500 0.500000
vt 0.500000 1.000000
vt 0.500000 0.500000
vt 0.437500 1.000000
vt 0.437500 0.500000
vt 0.312500 1.000000
vt 0.312500 0.500000
vt 0.250000 1.000000
vt 0.250000 0.500000
vt 0.187500 1.000000
vt 0.187500 0.500000
vt 0.125000 1.000000
vt 0.341844 0.471731
vt 0.250000 0.490000
vt 0.158156 0.471731
vt 0.080294 0.419706
vt 0.028269 0.341844
vt 0.010000 0.250000
vt 0.028269 0.158156
vt 0.080294 0.080294
vt 0.158156 0.028269
vt 0.250000 0.010000
vt 0.341844 0.028269
vt 0.419706 0.080294
vt 0.471731 0.158156
vt 0.490000 0.250000
vt 0.471731 0.341844
vt 0.419706 0.419706
vt 0.062500 1.000000
vt 0.062500 0.500000
vt 0.000000 1.000000
vt 0.000000 0.500000
vt 0.750000 0.490000
vt 0.841844 0.471731
vt 0.919706 0.419706
vt 0.971731 0.341844
vt 0.990000 0.250000
vt 0.971731 0.158156
vt 0.919706 0.080294
vt 0.841844 0.028269
vt 0.750000 0.010000
vt 0.658156 0.028269
vt 0.580294 0.080294
vt 0.528269 0.158156
vt 0.510000 0.250000
vt 0.528269 0.341844
vt 0.580294 0.419706
vt 0.658156 0.471731
vt 0.080294 0.419706
vt 0.028269 0.341844
vt 0.028269 0.158156
vt 0.080294 0.080294
vt 0.158156 0.028269
vt 0.341844 0.028269
vt 0.419706 0.080294
vt 0.919706 0.080294
vt 0.841844 0.028269
vt 0.658156 0.028269
vt 0.580294 0.080294
vt 0.750000 0.583333
vt 0.687500 0.583333
vt 0.750000 0.750000
vt 0.750000 0.833333
vt 0.687500 0.833333
vt 0.687500 0.750000
vt 0.750000 0.166667
vt 0.750000 0.250000
vt 0.687500 0.250000
vt 0.687500 0.166667
vt 0.750000 0.416667
vt 0.687500 0.416667
vt 0.750000 0.666667
vt 0.687500 0.666667
vt 0.750000 0.083333
vt 0.687500 0.083333
vt 0.750000 0.916667
vt 0.718750 1.000000
vt 0.687500 0.916667
vt 0.750000 0.333333
vt 0.687500 0.333333
vt 0.718750 0.000000
vt 0.625000 0.666667
vt 0.625000 0.166667
vt 0.625000 0.083333
vt 0.656250 1.000000
vt 0.625000 0.916667
vt 0.625000 0.416667
vt 0.625000 0.333333
vt 0.625000 0.583333
vt 0.656250 0.000000
vt 0.625000 0.833333
vt 0.562500 0.833333
vt 0.562500 0.750000
vt 0.562500 0.250000
vt 0.562500 0.166667
vt 0.562500 0.416667
vt 0.562500 0.666667
vt 0.562500 0.083333
vt 0.593750 1.000000
vt 0.562500 0.916667
vt 0.562500 0.333333
vt 0.562500 0.583333
vt 0.593750 0.000000
vt 0.500000 0.666667
vt 0.500000 0.583333
vt 0.531250 0.000000
vt 0.500000 0.083333
vt 0.500000 0.916667
vt 0.500000 0.833333
vt 0.500000 0.333333
vt 0.500000 0.250000
vt 0.500000 0.500000
vt 0.500000 0.750000
vt 0.500000 0.166667
vt 0.500000 0.416667
vt 0.531250 1.000000
vt 0.437500 0.750000
vt 0.437500 0.666667
vt 0.437500 0.166667
vt 0.437500 0.083333
vt 0.468750 1.000000
vt 0.437500 0.916667
vt 0.437500 0.416667
vt 0.437500 0.333333
vt 0.437500 0.583333
vt 0.468750 0.000000
vt 0.437500 0.833333
vt 0.437500 0.250000
vt 0.437500 0.500000
vt 0.375000 0.583333
vt 0.375000 0.500000
vt 0.375000 0.833333
vt 0.375000 0.750000
vt 0.375000 0.250000
vt 0.375000 0.166667
vt 0.375000 0.416667
vt 0.375000 0.666667
vt 0.375000 0.083333
vt 0.406250 1.000000
vt 0.375000 0.916667
vt 0.375000 0.333333
vt 0.406250 0.000000
vt 0.312500 0.666667
vt 0.312500 0.583333
vt 0.343750 0.000000
vt 0.312500 0.083333
vt 0.312500 0.916667
vt 0.312500 0.833333
vt 0.312500 0.333333
vt 0.312500 0.250000
vt 0.312500 0.500000
vt 0.312500 0.750000
vt 0.312500 0.166667
vt 0.312500 0.416667
vt 0.343750 1.000000
vt 0.250000 0.500000
vt 0.250000 0.416667
vt 0.250000 0.750000
vt 0.250000 0.666667
vt 0.250000 0.166667
vt 0.250000 0.083333
vt 0.281250 1.000000
vt 0.250000 0.916667
vt 0.250000 0.333333
vt 0.250000 0.583333
vt 0.281250 0.000000
vt 0.250000 0.833333
vt 0.250000 0.250000
vt 0.187500 0.583333
vt 0.187500 0.500000
vt 0.187500 0.833333
vt 0.187500 0.750000
vt 0.187500 0.250000
vt 0.187500 0.166667
vt 0.187500 0.416667
vt 0.187500 0.666667
vt 0.187500 0.083333
vt 0.218750 1.000000
vt 0.187500 0.916667
vt 0.187500 0.333333
vt 0.218750 0.000000
vt 0.125000 0.416667
vt 0.125000 0.333333
vt 0.125000 0.666667
vt 0.125000 0.583333
vt 0.156250 0.000000
vt 0.125000 0.083333
vt 0.125000 0.916667
vt 0.125000 0.833333
vt 0.125000 0.250000
vt 0.125000 0.500000
vt 0.125000 0.750000
vt 0.125000 0.166667
vt 0.156250 1.000000
vt 0.062500 0.500000
vt 0.062500 0.416667
vt 0.062500 0.750000
vt 0.062500 0.666667
vt 0.062500 0.166667
vt 0.062500 0.083333
vt 0.093750 1.000000
vt 0.062500 0.916667
vt 0.062500 0.333333
vt 0.062500 0.583333
vt 0.093750 0.000000
vt 0.062500 0.833333
vt 0.062500 0.250000
vt 0.000000 0.333333
vt 0.000000 0.250000
vt 0.000000 0.583333
vt 0.000000 0.833333
vt 0.000000 0.750000
vt 0.000000 0.166667
vt 0.000000 0.416667
vt 0.000000 0.666667
vt 0.000000 0.083333
vt 0.031250 1.000000
vt 0.000000 0.916667
vt 0.031250 0.000000
vt 1.000000 0.916667
vt 0.968750 1.000000
vt 0.937500 0.916667
vt 1.000000 0.333333
vt 1.000000 0.416667
vt 0.937500 0.416667
vt 0.937500 0.333333
vt 1.000000 0.583333
vt 1.000000 0.666667
vt 0.937500 0.666667
vt 0.937500 0.583333
vt 0.968750 0.000000
vt 1.000000 0.083333
vt 0.937500 0.083333
vt 1.000000 0.833333
vt 0.937500 0.833333
vt 1.000000 0.250000
vt 0.937500 0.250000
vt 0.937500 0.500000
vt 1.000000 0.750000
vt 0.937500 0.750000
vt 1.000000 0.166667
vt 0.937500 0.166667
vt 0.875000 0.250000
vt 0.875000 0.166667
vt 0.875000 0.500000
vt 0.875000 0.416667
vt 0.875000 0.750000
vt 0.875000 0.666667
vt 0.875000 0.083333
vt 0.906250 1.000000
vt 0.875000 0.916667
vt 0.875000 0.333333
vt 0.875000 0.583333
vt 0.906250 0.000000
vt 0.875000 0.833333
vt 0.812500 0.916667
vt 0.812500 0.833333
vt 0.812500 0.333333
vt 0.812500 0.250000
vt 0.812500 0.583333
vt 0.812500 0.500000
vt 0.812500 0.750000
vt 0.812500 0.166667
vt 0.812500 0.416667
vt 0.812500 0.666667
vt 0.812500 0.083333
vt 0.843750 1.000000
vt 0.843750 0.000000
vt 0.781250 1.000000
vt 0.781250 0.000000
s 0
usemtl Mat_Steel
f 1/1/1 2/2/1 4/3/1 3/4/1
f 3/4/2 4/3/2 8/5/2 7/6/2
f 7/6/3 8/5/3 6/7/3 5/8/3
f 5/8/4 6/7/4 2/9/4 1/10/4
f 3/11/5 7/6/5 5/8/5 1/12/5
f 8/5/6 4/13/6 2/14/6 6/7/6
f 49/15/7 50/16/7 52/17/7 51/18/7
f 51/18/8 52/17/8 54/19/8 53/13/8
f 53/13/9 54/19/9 56/20/9 55/21/9
f 55/21/10 56/20/10 58/22/10 57/23/10
f 57/23/11 58/22/11 60/24/11 59/25/11
f 59/25/12 60/24/12 62/9/12 61/5/12
f 61/5/13 62/9/13 64/26/13 63/27/13
f 63/27/14 64/26/14 66/28/14 65/29/14
f 65/29/15 66/28/15 68/30/15 67/31/15
f 67/31/16 68/30/16 70/10/16 69/6/16
f 69/6/17 70/10/17 72/32/17 71/33/17
f 71/33/18 72/32/18 74/34/18 73/35/18
f 73/35/19 74/34/19 76/36/19 75/37/19
f 75/37/20 76/36/20 78/38/20 77/11/20
f 52/39/4 50/40/4 80/41/4 78/75/4 76/76/4 74/44/4 72/77/4 70/78/4 68/79/4 66/48/4 64/80/4 62/81/4 60/51/4 58/52/4 56/53/4 54/54/4
f 77/11/21 78/38/21 80/55/21 79/56/21
f 79/56/22 80/55/22 50/57/22 49/58/22
f 49/59/2 51/60/2 53/61/2 55/62/2 57/63/2 59/64/2 61/82/2 63/83/2 65/67/2 67/84/2 69/85/2 71/70/2 73/71/2 75/72/2 77/73/2 79/74/2
f 81/1/1 82/2/1 84/3/1 83/4/1
f 83/4/2 84/3/2 88/5/2 87/6/2
f 87/6/3 88/5/3 86/7/3 85/8/3
f 85/8/4 86/7/4 82/9/4 81/10/4
f 83/11/5 87/6/5 85/8/5 81/12/5
f 88/5/6 84/13/6 82/14/6 86/7/6
f 267/1/1 268/2/1 270/3/1 269/4/1
f 269/4/2 270/3/2 274/5/2 273/6/2
f 273/6/3 274/5/3 272/7/3 271/8/3
f 271/8/4 272/7/4 268/9/4 267/10/4
f 269/11/5 273/6/5 271/8/5 267/12/5
f 274/5/6 270/13/6 268/14/6 272/7/6
f 299/1/1 300/2/1 302/3/1 301/4/1
f 301/4/2 302/3/2 306/5/2 305/6/2
f 305/6/3 306/5/3 304/7/3 303/8/3
f 303/8/4 304/7/4 300/9/4 299/10/4
f 301/11/5 305/6/5 303/8/5 299/12/5
f 306/5/6 302/13/6 300/14/6 304/7/6
f 307/1/1 308/2/1 310/3/1 309/4/1
f 309/4/2 310/3/2 314/5/2 313/6/2
f 313/6/3 314/5/3 312/7/3 311/8/3
f 311/8/4 312/7/4 308/9/4 307/10/4
f 309/11/5 313/6/5 311/8/5 307/12/5
f 314/5/6 310/13/6 308/14/6 312/7/6
usemtl Mat_PolishedSteel
f 9/1/1 10/2/1 12/3/1 11/4/1
f 11/4/2 12/3/2 16/5/2 15/6/2
f 15/6/3 16/5/3 14/7/3 13/8/3
f 13/8/4 14/7/4 10/9/4 9/10/4
f 11/11/5 15/6/5 13/8/5 9/12/5
f 16/5/6 12/13/6 10/14/6 14/7/6
f 17/15/7 18/16/7 20/17/7 19/18/7
f 19/18/8 20/17/8 22/19/8 21/13/8
f 21/13/9 22/19/9 24/20/9 23/21/9
f 23/21/10 24/20/10 26/22/10 25/23/10
f 25/23/11 26/22/11 28/24/11 27/25/11
f 27/25/12 28/24/12 30/9/12 29/5/12
f 29/5/13 30/9/13 32/26/13 31/27/13
f 31/27/14 32/26/14 34/28/14 33/29/14
f 33/29/15 34/28/15 36/30/15 35/31/15
f 35/31/16 36/30/16 38/10/16 37/6/16
f 37/6/17 38/10/17 40/32/17 39/33/17
f 39/33/18 40/32/18 42/34/18 41/35/18
f 41/35/19 42/34/19 44/36/19 43/37/19
f 43/37/20 44/36/20 46/38/20 45/11/20
f 20/39/4 18/40/4 48/41/4 46/42/4 44/43/4 42/44/4 40/45/4 38/46/4 36/47/4 34/48/4 32/49/4 30/50/4 28/51/4 26/52/4 24/53/4 22/54/4
f 45/11/21 46/38/21 48/55/21 47/56/21
f 47/56/22 48/55/22 18/57/22 17/58/22
f 17/59/2 19/60/2 21/61/2 23/62/2 25/63/2 27/64/2 29/65/2 31/66/2 33/67/2 35/68/2 37/69/2 39/70/2 41/71/2 43/72/2 45/73/2 47/74/2
usemtl Mat_Tritium
f 93/23/23 92/86/23 102/87/23 103/25/23
f 265/88/24 90/89/24 99/90/24 100/91/24
f 96/92/25 266/93/25 106/94/25 107/95/25
f 94/96/26 93/23/26 103/25/26 104/97/26
f 91/98/27 265/88/27 100/91/27 101/99/27
f 97/100/28 96/92/28 107/95/28 108/101/28
f 89/102/29 109/103/29 98/104/29
f 95/105/30 94/96/30 104/97/30 105/106/30
f 92/86/31 91/98/31 101/99/31 102/87/31
f 198/107/32 97/100/32 108/101/32
f 90/89/33 89/102/33 98/104/33 99/90/33
f 266/93/34 95/105/34 105/106/34 106/94/34
f 101/99/35 100/91/35 112/7/35 113/108/35
f 108/101/36 107/95/36 119/109/36 120/110/36
f 98/104/37 109/111/37 110/112/37
f 105/106/38 104/97/38 116/113/38 117/114/38
f 102/87/39 101/99/39 113/108/39 114/115/39
f 198/116/40 108/101/40 120/110/40
f 99/90/41 98/104/41 110/112/41 111/117/41
f 106/94/42 105/106/42 117/114/42 118/3/42
f 103/25/43 102/87/43 114/115/43 115/5/43
f 100/91/44 99/90/44 111/117/44 112/7/44
f 107/95/45 106/94/45 118/3/45 119/109/45
f 104/97/46 103/25/46 115/5/46 116/113/46
f 112/7/47 111/117/47 122/118/47 123/119/47
f 119/109/48 118/3/48 129/120/48 130/121/48
f 116/113/49 115/5/49 126/27/49 127/122/49
f 113/108/50 112/7/50 123/119/50 124/123/50
f 120/110/51 119/109/51 130/121/51 131/124/51
f 110/112/52 109/125/52 121/126/52
f 117/114/53 116/113/53 127/122/53 128/127/53
f 114/115/54 113/108/54 124/123/54 125/128/54
f 198/129/55 120/110/55 131/124/55
f 111/117/56 110/112/56 121/126/56 122/118/56
f 118/3/57 117/114/57 128/127/57 129/120/57
f 115/5/58 114/115/58 125/128/58 126/27/58
f 125/128/59 124/123/59 135/130/59 136/131/59
f 198/132/60 131/124/60 142/133/60
f 122/118/61 121/126/61 132/134/61 133/135/61
f 129/120/62 128/127/62 139/136/62 140/137/62
f 126/27/63 125/128/63 136/131/63 137/138/63
f 123/119/64 122/118/64 133/135/64 134/139/64
f 130/121/65 129/120/65 140/137/65 141/140/65
f 127/122/66 126/27/66 137/138/66 138/141/66
f 124/123/67 123/119/67 134/139/67 135/130/67
f 131/124/68 130/121/68 141/140/68 142/133/68
f 121/126/69 109/142/69 132/134/69
f 128/127/70 127/122/70 138/141/70 139/136/70
f 135/130/71 134/139/71 145/143/71 146/144/71
f 142/133/72 141/140/72 152/145/72 153/146/72
f 132/134/73 109/147/73 143/148/73
f 139/136/74 138/141/74 149/149/74 150/150/74
f 136/131/75 135/130/75 146/144/75 147/151/75
f 198/152/76 142/133/76 153/146/76
f 133/135/77 132/134/77 143/148/77 144/153/77
f 140/137/78 139/136/78 150/150/78 151/154/78
f 137/138/79 136/131/79 147/151/79 148/155/79
f 134/139/80 133/135/80 144/153/80 145/143/80
f 141/140/81 140/137/81 151/154/81 152/145/81
f 138/141/82 137/138/82 148/155/82 149/149/82
f 148/155/83 147/151/83 158/156/83 159/157/83
f 145/143/84 144/153/84 155/158/84 156/159/84
f 152/145/85 151/154/85 162/160/85 163/161/85
f 149/149/86 148/155/86 159/157/86 160/162/86
f 146/144/87 145/143/87 156/159/87 157/163/87
f 153/146/88 152/145/88 163/161/88 164/164/88
f 143/148/89 109/165/89 154/166/89
f 150/150/90 149/149/90 160/162/90 161/167/90
f 147/151/91 146/144/91 157/163/91 158/156/91
f 198/168/92 153/146/92 164/164/92
f 144/153/93 143/148/93 154/166/93 155/158/93
f 151/154/94 150/150/94 161/167/94 162/160/94
f 158/156/95 157/163/95 168/169/95 169/170/95
f 198/171/96 164/164/96 175/172/96
f 155/158/97 154/166/97 165/173/97 166/174/97
f 162/160/98 161/167/98 172/175/98 173/176/98
f 159/157/99 158/156/99 169/170/99 170/177/99
f 156/159/100 155/158/100 166/174/100 167/178/100
f 163/161/101 162/160/101 173/176/101 174/179/101
f 160/162/102 159/157/102 170/177/102 171/180/102
f 157/163/103 156/159/103 167/178/103 168/169/103
f 164/164/104 163/161/104 174/179/104 175/172/104
f 154/166/105 109/181/105 165/173/105
f 161/167/106 160/162/106 171/180/106 172/175/106
f 171/180/107 170/177/107 181/182/107 182/183/107
f 168/169/108 167/178/108 178/184/108 179/185/108
f 175/172/109 174/179/109 185/186/109 186/187/109
f 165/173/110 109/188/110 176/189/110
f 172/175/111 171/180/111 182/183/111 183/190/111
f 169/170/112 168/169/112 179/185/112 180/191/112
f 198/192/113 175/172/113 186/187/113
f 166/174/114 165/173/114 176/189/114 177/193/114
f 173/176/115 172/175/115 183/190/115 184/194/115
f 170/177/116 169/170/116 180/191/116 181/182/116
f 167/178/117 166/174/117 177/193/117 178/184/117
f 174/179/118 173/176/118 184/194/118 185/186/118
f 181/182/119 180/191/119 191/195/119 192/196/119
f 178/184/120 177/193/120 188/197/120 189/198/120
f 185/186/121 184/194/121 195/199/121 196/200/121
f 182/183/122 181/182/122 192/196/122 193/201/122
f 179/185/123 178/184/123 189/198/123 190/202/123
f 186/187/124 185/186/124 196/200/124 197/203/124
f 176/189/125 109/204/125 187/205/125
f 183/190/126 182/183/126 193/201/126 194/206/126
f 180/191/127 179/185/127 190/202/127 191/195/127
f 198/207/128 186/187/128 197/203/128
f 177/193/129 176/189/129 187/205/129 188/197/129
f 184/194/130 183/190/130 194/206/130 195/199/130
f 194/206/131 193/201/131 205/208/131 206/209/131
f 191/195/132 190/202/132 202/210/132 203/211/132
f 198/212/133 197/203/133 209/213/133
f 188/197/134 187/205/134 199/214/134 200/215/134
f 195/199/135 194/206/135 206/209/135 207/216/135
f 192/196/136 191/195/136 203/211/136 204/217/136
f 189/198/137 188/197/137 200/215/137 201/218/137
f 196/200/138 195/199/138 207/216/138 208/219/138
f 193/201/139 192/196/139 204/217/139 205/208/139
f 190/202/140 189/198/140 201/218/140 202/210/140
f 197/203/141 196/200/141 208/219/141 209/213/141
f 187/205/142 109/220/142 199/214/142
f 205/208/143 204/217/143 215/221/143 216/222/143
f 202/210/144 201/218/144 212/223/144 213/224/144
f 209/213/145 208/219/145 219/225/145 220/226/145
f 199/214/146 109/227/146 210/228/146
f 206/209/147 205/208/147 216/222/147 217/229/147
f 203/211/148 202/210/148 213/224/148 214/230/148
f 198/231/149 209/213/149 220/226/149
f 200/215/150 199/214/150 210/228/150 211/232/150
f 207/216/151 206/209/151 217/229/151 218/233/151
f 204/217/152 203/211/152 214/230/152 215/221/152
f 201/218/153 200/215/153 211/232/153 212/223/153
f 208/219/154 207/216/154 218/233/154 219/225/154
f 218/233/155 217/229/155 228/234/155 229/235/155
f 215/221/156 214/230/156 225/236/156 226/58/156
f 212/223/157 211/232/157 222/237/157 223/238/157
f 219/225/158 218/233/158 229/235/158 230/239/158
f 216/222/159 215/221/159 226/58/159 227/240/159
f 213/224/160 212/223/160 223/238/160 224/241/160
f 220/226/161 219/225/161 230/239/161 231/242/161
f 210/228/162 109/243/162 221/244/162
f 217/229/163 216/222/163 227/240/163 228/234/163
f 214/230/164 213/224/164 224/241/164 225/236/164
f 198/245/165 220/226/165 231/242/165
f 211/232/166 210/228/166 221/244/166 222/237/166
f 221/246/167 109/247/167 232/248/167
f 228/249/168 227/250/168 238/251/168 239/252/168
f 225/253/169 224/254/169 235/255/169 236/256/169
f 198/257/170 231/258/170 242/259/170
f 222/260/171 221/246/171 232/248/171 233/261/171
f 229/262/172 228/249/172 239/252/172 240/263/172
f 226/15/173 225/253/173 236/256/173 237/264/173
f 223/265/174 222/260/174 233/261/174 234/266/174
f 230/267/175 229/262/175 240/263/175 241/268/175
f 227/250/176 226/15/176 237/264/176 238/251/176
f 224/254/177 223/265/177 234/266/177 235/255/177
f 231/258/178 230/267/178 241/268/178 242/259/178
f 241/268/179 240/263/179 251/269/179 252/270/179
f 238/251/180 237/264/180 248/271/180 249/272/180
f 235/255/181 234/266/181 245/273/181 246/274/181
f 242/259/182 241/268/182 252/270/182 253/275/182
f 232/248/183 109/276/183 243/277/183
f 239/252/184 238/251/184 249/272/184 250/278/184
f 236/256/185 235/255/185 246/274/185 247/279/185
f 198/280/186 242/259/186 253/275/186
f 233/261/187 232/248/187 243/277/187 244/281/187
f 240/263/188 239/252/188 250/278/188 251/269/188
f 237/264/189 236/256/189 247/279/189 248/271/189
f 234/266/190 233/261/190 244/281/190 245/273/190
f 244/281/191 243/277/191 254/282/191 255/283/191
f 251/269/192 250/278/192 261/284/192 262/285/192
f 248/271/193 247/279/193 258/286/193 259/287/193
f 245/273/194 244/281/194 255/283/194 256/288/194
f 252/270/195 251/269/195 262/285/195 263/289/195
f 249/272/196 248/271/196 259/287/196 260/290/196
f 246/274/197 245/273/197 256/288/197 257/291/197
f 253/275/198 252/270/198 263/289/198 264/292/198
f 243/277/199 109/293/199 254/282/199
f 250/278/200 249/272/200 260/290/200 261/284/200
f 247/279/201 246/274/201 257/291/201 258/286/201
f 198/294/202 253/275/202 264/292/202
f 264/292/203 263/289/203 96/92/203 97/100/203
f 254/282/204 109/295/204 89/102/204
f 261/284/205 260/290/205 94/96/205 95/105/205
f 258/286/206 257/291/206 91/98/206 92/86/206
f 198/296/207 264/292/207 97/100/207
f 255/283/208 254/282/208 89/102/208 90/89/208
f 262/285/209 261/284/209 95/105/209 266/93/209
f 259/287/210 258/286/210 92/86/210 93/23/210
f 256/288/211 255/283/211 90/89/211 265/88/211
f 263/289/212 262/285/212 266/93/212 96/92/212
f 260/290/213 259/287/213 93/23/213 94/96/213
f 257/291/214 256/288/214 265/88/214 91/98/214
usemtl Mat_PolymerBlack
f 275/1/1 276/2/1 278/3/1 277/4/1
f 277/4/2 278/3/2 282/5/2 281/6/2
f 281/6/3 282/5/3 280/7/3 279/8/3
f 279/8/4 280/7/4 276/9/4 275/10/4
f 277/11/5 281/6/5 279/8/5 275/12/5
f 282/5/6 278/13/6 276/14/6 280/7/6
f 283/1/1 284/2/1 286/3/1 285/4/1
f 285/4/2 286/3/2 290/5/2 289/6/2
f 289/6/3 290/5/3 288/7/3 287/8/3
f 287/8/4 288/7/4 284/9/4 283/10/4
f 285/11/5 289/6/5 287/8/5 283/12/5
f 290/5/6 286/13/6 284/14/6 288/7/6
f 291/1/1 292/2/1 294/3/1 293/4/1
f 293/4/2 294/3/2 298/5/2 297/6/2
f 297/6/3 298/5/3 296/7/3 295/8/3
f 295/8/4 296/7/4 292/9/4 291/10/4
f 293/11/5 297/6/5 295/8/5 291/12/5
f 298/5/6 294/13/6 292/14/6 296/7/6
f 315/1/1 316/2/1 318/3/1 317/4/1
f 317/4/2 318/3/2 322/5/2 321/6/2
f 321/6/3 322/5/3 320/7/3 319/8/3
f 319/8/4 320/7/4 316/9/4 315/10/4
f 317/11/5 321/6/5 319/8/5 315/12/5
f 322/5/6 318/13/6 316/14/6 320/7/6
