# Blender 4.0.2
# www.blender.org
mtllib fps_arms.mtl
o FPS_CombatArms
v 0.118510 -0.196653 0.217368
v 0.189936 -0.104791 0.139523
v 0.138325 -0.204203 0.226639
v 0.209750 -0.112341 0.148794
v 0.155359 -0.204172 0.242304
v 0.226784 -0.112310 0.164460
v 0.166239 -0.196568 0.261261
v 0.237664 -0.104706 0.183416
v 0.168810 -0.182895 0.279754
v 0.240235 -0.091033 0.201910
v 0.162562 -0.165863 0.294122
v 0.233988 -0.074001 0.216277
v 0.148734 -0.148844 0.301518
v 0.220160 -0.056982 0.223673
v 0.130064 -0.135209 0.300477
v 0.201490 -0.043347 0.222632
v 0.110250 -0.127659 0.291206
v 0.181675 -0.035797 0.213361
v 0.093216 -0.127690 0.275540
v 0.164641 -0.035828 0.197696
v 0.082336 -0.135294 0.256584
v 0.153761 -0.043432 0.178739
v 0.079765 -0.148967 0.238090
v 0.151190 -0.057105 0.160246
v 0.086012 -0.165999 0.223723
v 0.157438 -0.074137 0.145878
v 0.099840 -0.183018 0.216327
v 0.171266 -0.091156 0.138482
v 0.069196 -0.285050 0.164881
v 0.161028 -0.166941 0.064795
v 0.085962 -0.291438 0.172726
v 0.177794 -0.173330 0.072640
v 0.100375 -0.291412 0.185981
v 0.192208 -0.173304 0.085896
v 0.109581 -0.284978 0.202022
v 0.201414 -0.166869 0.101936
v 0.111757 -0.273409 0.217670
v 0.203589 -0.155300 0.117584
v 0.106470 -0.258996 0.229827
v 0.198303 -0.140888 0.129741
v 0.094770 -0.244596 0.236085
v 0.186602 -0.126487 0.135999
v 0.078972 -0.233059 0.235205
v 0.170804 -0.114950 0.135119
v 0.062206 -0.226670 0.227360
v 0.154038 -0.108562 0.127274
v 0.047792 -0.226696 0.214105
v 0.139625 -0.108588 0.114019
v 0.038586 -0.233131 0.198064
v 0.130419 -0.115022 0.097978
v 0.036411 -0.244700 0.182416
v 0.128244 -0.126592 0.082330
v 0.041697 -0.259112 0.170259
v 0.133530 -0.141004 0.070173
v 0.053398 -0.273513 0.164001
v 0.145230 -0.155404 0.063915
v 0.059817 -0.321892 0.079012
v 0.087728 -0.259567 0.037339
v 0.077777 -0.324986 0.086413
v 0.105688 -0.262661 0.044741
v 0.091253 -0.321696 0.100359
v 0.119164 -0.259372 0.058686
v 0.096636 -0.312905 0.117112
v 0.124547 -0.250580 0.075439
v 0.092481 -0.300967 0.132183
v 0.120392 -0.238642 0.090511
v 0.079903 -0.289082 0.141535
v 0.107814 -0.226757 0.099862
v 0.062272 -0.280433 0.142661
v 0.090183 -0.218108 0.100988
v 0.044312 -0.277339 0.135259
v 0.072223 -0.215014 0.093587
v 0.030836 -0.280628 0.121314
v 0.058747 -0.218304 0.079641
v 0.025453 -0.289420 0.104561
v 0.053364 -0.227095 0.062888
v 0.029608 -0.301358 0.089489
v 0.057519 -0.239033 0.047817
v 0.042186 -0.313243 0.080138
v 0.070097 -0.250918 0.038465
v 0.015007 -0.357295 0.077003
v 0.018843 -0.313446 0.086359
v 0.016366 -0.341761 0.003641
v 0.020202 -0.297912 0.012997
v 0.069798 -0.362088 0.077002
v 0.073634 -0.318239 0.086359
v 0.071157 -0.346554 0.003641
v 0.074993 -0.302705 0.012997
v 0.048519 -0.336404 0.069503
v 0.050395 -0.314967 0.074077
v 0.049697 -0.322941 0.005923
v 0.051572 -0.301504 0.010497
v 0.072428 -0.338496 0.069503
v 0.074303 -0.317059 0.074077
v 0.073606 -0.325033 0.005923
v 0.075481 -0.303596 0.010497
v 0.022616 -0.337961 -0.008763
v 0.023283 -0.330336 0.045701
v 0.030086 -0.341817 -0.008315
v 0.030753 -0.334192 0.046150
v 0.032625 -0.349771 -0.007232
v 0.033292 -0.342146 0.047232
v 0.028744 -0.357164 -0.006150
v 0.029411 -0.349538 0.048315
v 0.020717 -0.359664 -0.005701
v 0.021384 -0.352039 0.048763
v 0.013247 -0.355808 -0.006150
v 0.013914 -0.348183 0.048315
v 0.010708 -0.347854 -0.007232
v 0.011375 -0.340229 0.047232
v 0.014589 -0.340462 -0.008315
v 0.015256 -0.332836 0.046150
v 0.025688 -0.386470 0.001116
v 0.030081 -0.365800 0.046432
v 0.032052 -0.390536 0.002354
v 0.036446 -0.369867 0.047669
v 0.033585 -0.397414 0.005342
v 0.037978 -0.376745 0.050658
v 0.029388 -0.403073 0.008331
v 0.033781 -0.382404 0.053646
v 0.021919 -0.404200 0.009569
v 0.026312 -0.383530 0.054884
v 0.015554 -0.400133 0.008331
v 0.019948 -0.379464 0.053646
v 0.014022 -0.393255 0.005342
v 0.018415 -0.372586 0.050658
v 0.018219 -0.387596 0.002354
v 0.022613 -0.366927 0.047669
v 0.010000 -0.376000 0.055000
v 0.010000 -0.354000 0.055000
v 0.010000 -0.376000 0.041000
v 0.010000 -0.354000 0.041000
v 0.050000 -0.376000 0.055000
v 0.050000 -0.354000 0.055000
v 0.050000 -0.376000 0.041000
v 0.050000 -0.354000 0.041000
v 0.010000 -0.373000 0.071000
v 0.010000 -0.351000 0.071000
v 0.010000 -0.373000 0.057000
v 0.010000 -0.351000 0.057000
v 0.050000 -0.373000 0.071000
v 0.050000 -0.351000 0.071000
v 0.050000 -0.373000 0.057000
v 0.050000 -0.351000 0.057000
v 0.010000 -0.369000 0.085000
v 0.010000 -0.347000 0.085000
v 0.010000 -0.369000 0.071000
v 0.010000 -0.347000 0.071000
v 0.050000 -0.369000 0.085000
v 0.050000 -0.347000 0.085000
v 0.050000 -0.369000 0.071000
v 0.050000 -0.347000 0.071000
v -0.118510 -0.196653 0.217368
v -0.189936 -0.104791 0.139523
v -0.099840 -0.183018 0.216327
v -0.171266 -0.091156 0.138482
v -0.086012 -0.165999 0.223723
v -0.157438 -0.074137 0.145878
v -0.079765 -0.148967 0.238090
v -0.151190 -0.057105 0.160246
v -0.082336 -0.135294 0.256584
v -0.153761 -0.043432 0.178739
v -0.093216 -0.127690 0.275540
v -0.164641 -0.035828 0.197696
v -0.110250 -0.127659 0.291206
v -0.181675 -0.035797 0.213361
v -0.130064 -0.135209 0.300477
v -0.201490 -0.043347 0.222632
v -0.148734 -0.148844 0.301518
v -0.220160 -0.056982 0.223673
v -0.162562 -0.165863 0.294122
v -0.233988 -0.074001 0.216277
v -0.168810 -0.182895 0.279754
v -0.240235 -0.091033 0.201910
v -0.166239 -0.196568 0.261261
v -0.237664 -0.104706 0.183416
v -0.155359 -0.204172 0.242304
v -0.226784 -0.112310 0.164460
v -0.138325 -0.204203 0.226639
v -0.209750 -0.112341 0.148794
v -0.069196 -0.285050 0.164881
v -0.161028 -0.166941 0.064796
v -0.053398 -0.273513 0.164001
v -0.145230 -0.155404 0.063915
v -0.041697 -0.259112 0.170259
v -0.133530 -0.141004 0.070173
v -0.036411 -0.244700 0.182416
v -0.128244 -0.126592 0.082330
v -0.038586 -0.233131 0.198064
v -0.130419 -0.115022 0.097978
v -0.047792 -0.226696 0.214105
v -0.139625 -0.108588 0.114019
v -0.062206 -0.226670 0.227360
v -0.154038 -0.108562 0.127274
v -0.078972 -0.233059 0.235205
v -0.170804 -0.114950 0.135119
v -0.094770 -0.244596 0.236085
v -0.186602 -0.126487 0.135999
v -0.106470 -0.258996 0.229827
v -0.198303 -0.140888 0.129741
v -0.111756 -0.273409 0.217670
v -0.203589 -0.155300 0.117584
v -0.109581 -0.284978 0.202022
v -0.201414 -0.166869 0.101936
v -0.100375 -0.291412 0.185981
v -0.192208 -0.173304 0.085896
v -0.085961 -0.291438 0.172726
v -0.177794 -0.173330 0.072640
v -0.059817 -0.321892 0.079012
v -0.087728 -0.259567 0.037339
v -0.042186 -0.313243 0.080138
v -0.070097 -0.250918 0.038465
v -0.029608 -0.301358 0.089489
v -0.057519 -0.239033 0.047817
v -0.025453 -0.289420 0.104561
v -0.053364 -0.227095 0.062888
v -0.030836 -0.280628 0.121314
v -0.058747 -0.218304 0.079641
v -0.044312 -0.277339 0.135259
v -0.072223 -0.215014 0.093587
v -0.062272 -0.280433 0.142661
v -0.090183 -0.218109 0.100988
v -0.079903 -0.289082 0.141535
v -0.107814 -0.226757 0.099862
v -0.092481 -0.300967 0.132183
v -0.120392 -0.238642 0.090511
v -0.096636 -0.312905 0.117112
v -0.124547 -0.250580 0.075439
v -0.091253 -0.321696 0.100359
v -0.119164 -0.259372 0.058686
v -0.077777 -0.324986 0.086413
v -0.105688 -0.262661 0.044741
v -0.090123 -0.284751 0.093693
v -0.101985 -0.258263 0.075982
v -0.089606 -0.293479 0.080293
v -0.101468 -0.266991 0.062583
v -0.054532 -0.273009 0.087417
v -0.066394 -0.246521 0.069707
v -0.054015 -0.281737 0.074018
v -0.065877 -0.255249 0.056307
v -0.085450 -0.281460 0.074968
v -0.093125 -0.264320 0.063508
v -0.085353 -0.283096 0.072456
v -0.093029 -0.265957 0.060996
v -0.062971 -0.274043 0.071004
v -0.070647 -0.256904 0.059544
v -0.062874 -0.275680 0.068492
v -0.070550 -0.258540 0.057032
v -0.036961 -0.373820 0.082535
v -0.044604 -0.330472 0.091891
v -0.039560 -0.359078 0.012109
v -0.047204 -0.315730 0.021465
v 0.017204 -0.364270 0.082535
v 0.009560 -0.320922 0.091891
v 0.014604 -0.349528 0.012109
v 0.006961 -0.306180 0.021465
v -0.040830 -0.359027 0.078036
v -0.044567 -0.337835 0.082610
v -0.043068 -0.346333 0.017390
v -0.046805 -0.325140 0.021964
v -0.017195 -0.354860 0.078036
v -0.020931 -0.333667 0.082610
v -0.019433 -0.342165 0.017390
v -0.023170 -0.320973 0.021964
v -0.008616 -0.347961 -0.006763
v -0.009283 -0.340336 0.047701
v -0.000589 -0.350462 -0.006315
v -0.001256 -0.342836 0.048150
v 0.003292 -0.357854 -0.005232
v 0.002625 -0.350229 0.049232
v 0.000753 -0.365808 -0.004150
v 0.000086 -0.358183 0.050315
v -0.006717 -0.369664 -0.003701
v -0.007384 -0.362039 0.050763
v -0.014744 -0.367164 -0.004150
v -0.015411 -0.359538 0.050315
v -0.018625 -0.359771 -0.005232
v -0.019292 -0.352146 0.049232
v -0.016086 -0.351817 -0.006315
v -0.016753 -0.344192 0.048150
v -0.014000 -0.389000 0.052500
v -0.014000 -0.371000 0.052500
v -0.014000 -0.389000 0.039500
v -0.014000 -0.371000 0.039500
v 0.034000 -0.389000 0.052500
v 0.034000 -0.371000 0.052500
v 0.034000 -0.389000 0.039500
v 0.034000 -0.371000 0.039500
v -0.014000 -0.387000 0.068500
v -0.014000 -0.369000 0.068500
v -0.014000 -0.387000 0.055500
v -0.014000 -0.369000 0.055500
v 0.034000 -0.387000 0.068500
v 0.034000 -0.369000 0.068500
v 0.034000 -0.387000 0.055500
v 0.034000 -0.369000 0.055500
v -0.014000 -0.383000 0.082500
v -0.014000 -0.365000 0.082500
v -0.014000 -0.383000 0.069500
v -0.014000 -0.365000 0.069500
v 0.034000 -0.383000 0.082500
v 0.034000 -0.365000 0.082500
v 0.034000 -0.383000 0.069500
v 0.034000 -0.365000 0.069500
v -0.014000 -0.379000 0.094500
v -0.014000 -0.361000 0.094500
v -0.014000 -0.379000 0.081500
v -0.014000 -0.361000 0.081500
v 0.034000 -0.379000 0.094500
v 0.034000 -0.361000 0.094500
v 0.034000 -0.379000 0.081500
v 0.034000 -0.361000 0.081500
vn -0.4203 -0.8770 -0.2330
vn 0.2534 -0.0105 -0.9673
vn 0.5396 -0.1195 -0.8334
vn -0.1341 -0.9860 -0.0991
vn 0.7856 -0.1191 -0.6071
vn 0.1119 -0.9856 0.1271
vn 0.9428 -0.0092 -0.3334
vn 0.2690 -0.8757 0.4009
vn 0.9799 0.1882 -0.0663
vn 0.3062 -0.6783 0.6680
vn 0.8897 0.4342 0.1412
vn 0.2159 -0.4323 0.8755
vn 0.6899 0.6800 0.2481
vn 0.0162 -0.1865 0.9823
vn 0.4203 0.8770 0.2330
vn -0.2534 0.0105 0.9673
vn 0.1341 0.9860 0.0991
vn -0.5396 0.1195 0.8334
vn -0.1119 0.9856 -0.1271
vn -0.7856 0.1191 0.6071
vn -0.2690 0.8757 -0.4009
vn -0.9428 0.0092 0.3334
vn -0.3062 0.6783 -0.6680
vn -0.9799 -0.1882 0.0663
vn -0.2159 0.4323 -0.8755
vn -0.8897 -0.4342 -0.1412
vn -0.0162 0.1865 -0.9823
vn -0.6899 -0.6800 -0.2481
vn -0.2524 -0.9219 -0.2938
vn 0.2034 0.0959 -0.9744
vn 0.5613 0.0342 -0.8269
vn 0.1055 -0.9836 -0.1464
vn 0.8298 0.0998 -0.5490
vn 0.3740 -0.9180 0.1315
vn 0.9371 0.2749 -0.2152
vn 0.4813 -0.7429 0.4653
vn 0.8543 0.5128 0.0851
vn 0.3985 -0.5050 0.7656
vn 0.6037 0.7496 0.2714
vn 0.1479 -0.2682 0.9520
vn 0.2524 0.9219 0.2938
vn -0.2034 -0.0959 0.9744
vn -0.1055 0.9836 0.1464
vn -0.5613 -0.0342 0.8269
vn -0.3740 0.9180 -0.1315
vn -0.8298 -0.0998 0.5490
vn -0.4813 0.7429 -0.4653
vn -0.9371 -0.2749 0.2152
vn -0.3985 0.5050 -0.7656
vn -0.8543 -0.5128 -0.0851
vn -0.1479 0.2682 -0.9520
vn -0.6037 -0.7496 -0.2714
vn -0.9962 0.0872 -0.0000
vn 0.0181 0.2071 -0.9781
vn 0.9962 -0.0872 -0.0000
vn -0.0181 -0.2071 0.9781
vn -0.0853 -0.9744 -0.2079
vn 0.0853 0.9744 0.2079
vn 0.0594 0.6785 -0.7322
vn 0.0747 0.8533 0.5161
vn 0.6019 0.5811 0.5477
vn 0.5866 0.4063 -0.7005
vn 0.7811 0.0197 0.6241
vn 0.7658 -0.1550 -0.6241
vn 0.5072 -0.5020 0.7005
vn 0.4919 -0.6768 -0.5477
vn -0.0594 -0.6785 0.7322
vn -0.0747 -0.8533 -0.5161
vn -0.5866 -0.4063 0.7005
vn -0.6019 -0.5811 -0.5477
vn -0.7658 0.1550 0.6241
vn -0.7811 -0.0197 -0.6241
vn -0.4919 0.6768 0.5477
vn -0.5072 0.5020 -0.7005
vn 0.0909 0.4277 -0.8993
vn 0.2017 0.9488 0.2431
vn 0.6958 0.6331 0.3392
vn 0.5851 0.1120 -0.8032
vn 0.8148 0.0991 0.5712
vn 0.7040 -0.4220 -0.5712
vn 0.4889 -0.3403 0.8032
vn 0.3782 -0.8614 -0.3392
vn -0.0909 -0.4277 0.8993
vn -0.2017 -0.9488 -0.2431
vn -0.5851 -0.1120 0.8032
vn -0.6958 -0.6331 -0.3392
vn -0.7040 0.4220 0.5712
vn -0.8148 -0.0991 -0.5712
vn -0.3782 0.8614 0.3392
vn -0.4889 0.3403 -0.8032
vn -1.0000 -0.0000 -0.0000
vn -0.0000 -0.0000 -1.0000
vn 1.0000 -0.0000 -0.0000
vn -0.0000 -0.0000 1.0000
vn -0.0000 -1.0000 -0.0000
vn -0.0000 1.0000 -0.0000
vn 0.4203 -0.8770 -0.2330
vn -0.2534 -0.0105 -0.9673
vn 0.0162 0.1865 -0.9823
vn 0.6899 -0.6800 -0.2481
vn 0.2159 0.4323 -0.8755
vn 0.8897 -0.4342 -0.1412
vn 0.3062 0.6783 -0.6680
vn 0.9799 -0.1882 0.0663
vn 0.2690 0.8757 -0.4009
vn 0.9428 0.0092 0.3334
vn 0.1119 0.9856 -0.1271
vn 0.7856 0.1191 0.6071
vn -0.1341 0.9860 0.0991
vn 0.5396 0.1195 0.8334
vn -0.4203 0.8770 0.2330
vn 0.2534 0.0105 0.9673
vn -0.6899 0.6800 0.2481
vn -0.0162 -0.1865 0.9823
vn -0.8897 0.4342 0.1412
vn -0.2159 -0.4323 0.8755
vn -0.9799 0.1882 -0.0663
vn -0.3062 -0.6783 0.6680
vn -0.9428 -0.0092 -0.3334
vn -0.2690 -0.8757 0.4009
vn -0.7856 -0.1191 -0.6071
vn -0.1119 -0.9856 0.1271
vn -0.5396 -0.1195 -0.8334
vn 0.1341 -0.9860 -0.0991
vn 0.2524 -0.9219 -0.2938
vn -0.2034 0.0959 -0.9744
vn 0.1479 0.2682 -0.9520
vn 0.6037 -0.7496 -0.2714
vn 0.3985 0.5050 -0.7656
vn 0.8543 -0.5128 -0.0851
vn 0.4813 0.7429 -0.4653
vn 0.9371 -0.2749 0.2152
vn 0.3740 0.9180 -0.1315
vn 0.8298 -0.0998 0.5490
vn 0.1055 0.9836 0.1464
vn 0.5613 -0.0342 0.8269
vn -0.2524 0.9219 0.2938
vn 0.2034 -0.0959 0.9744
vn -0.6037 0.7496 0.2714
vn -0.1479 -0.2682 0.9520
vn -0.8543 0.5128 0.0851
vn -0.3985 -0.5050 0.7656
vn -0.9371 0.2749 -0.2152
vn -0.4813 -0.7429 0.4653
vn -0.8298 0.0998 -0.5490
vn -0.3740 -0.9180 0.1315
vn -0.5613 0.0342 -0.8269
vn -0.1055 -0.9836 -0.1464
vn -0.9366 -0.3090 0.1651
vn 0.0323 -0.5455 -0.8375
vn 0.9366 0.3090 -0.1651
vn -0.0323 0.5455 0.8375
vn 0.3489 -0.7791 0.5209
vn -0.3489 0.7791 -0.5209
vn -0.9848 -0.1736 -0.0000
vn -0.0361 0.2048 -0.9781
vn 0.9848 0.1736 -0.0000
vn 0.0361 -0.2048 0.9781
vn 0.1699 -0.9633 -0.2079
vn -0.1699 0.9633 0.2079
vn -0.0594 0.6785 -0.7322
vn -0.0747 0.8533 0.5161
vn 0.4919 0.6768 0.5477
vn 0.5072 0.5020 -0.7005
vn 0.7658 0.1550 0.6241
vn 0.7811 -0.0197 -0.6241
vn 0.5866 -0.4063 0.7005
vn 0.6019 -0.5811 -0.5477
vn 0.0594 -0.6785 0.7322
vn 0.0747 -0.8533 -0.5161
vn -0.5072 -0.5020 0.7005
vn -0.4919 -0.6768 -0.5477
vn -0.7811 0.0197 0.6241
vn -0.7658 -0.1550 -0.6241
vn -0.6019 0.5811 0.5477
vn -0.5866 0.4063 -0.7005
vt 1.000000 0.500000
vt 1.000000 1.000000
vt 0.928571 1.000000
vt 0.928571 0.500000
vt 0.857143 1.000000
vt 0.857143 0.500000
vt 0.785714 1.000000
vt 0.785714 0.500000
vt 0.714286 1.000000
vt 0.714286 0.500000
vt 0.642857 1.000000
vt 0.642857 0.500000
vt 0.571428 1.000000
vt 0.571428 0.500000
vt 0.500000 1.000000
vt 0.500000 0.500000
vt 0.428571 1.000000
vt 0.428571 0.500000
vt 0.357143 1.000000
vt 0.357143 0.500000
vt 0.285714 1.000000
vt 0.285714 0.500000
vt 0.214286 1.000000
vt 0.214286 0.500000
vt 0.142857 1.000000
vt 0.142857 0.500000
vt 0.354132 0.466233
vt 0.250000 0.490000
vt 0.145868 0.466233
vt 0.062360 0.399638
vt 0.016017 0.303405
vt 0.016017 0.196595
vt 0.062360 0.100362
vt 0.145868 0.033767
vt 0.250000 0.010000
vt 0.354132 0.033767
vt 0.437640 0.100362
vt 0.483983 0.196595
vt 0.483983 0.303405
vt 0.437640 0.399638
vt 0.071428 1.000000
vt 0.071428 0.500000
vt -0.000000 1.000000
vt -0.000000 0.500000
vt 0.750000 0.490000
vt 0.854132 0.466233
vt 0.937640 0.399638
vt 0.983983 0.303405
vt 0.983983 0.196595
vt 0.937640 0.100362
vt 0.854132 0.033767
vt 0.750000 0.010000
vt 0.645868 0.033767
vt 0.562360 0.100362
vt 0.516017 0.196595
vt 0.516017 0.303405
vt 0.562360 0.399638
vt 0.645868 0.466233
vt 0.145868 0.466233
vt 0.062360 0.399638
vt 0.016017 0.303405
vt 0.016017 0.196595
vt 0.062360 0.100362
vt 0.145868 0.033767
vt 0.250000 0.010000
vt 0.483983 0.196595
vt 0.483983 0.303405
vt 0.750000 0.010000
vt 0.916667 1.000000
vt 0.916667 0.500000
vt 0.833333 1.000000
vt 0.833333 0.500000
vt 0.750000 1.000000
vt 0.750000 0.500000
vt 0.666667 1.000000
vt 0.666667 0.500000
vt 0.583333 1.000000
vt 0.583333 0.500000
vt 0.500000 1.000000
vt 0.500000 0.500000
vt 0.416667 1.000000
vt 0.416667 0.500000
vt 0.333333 1.000000
vt 0.333333 0.500000
vt 0.250000 1.000000
vt 0.250000 0.500000
vt 0.166667 1.000000
vt 0.166667 0.500000
vt 0.370000 0.457846
vt 0.130000 0.457846
vt 0.042154 0.370000
vt 0.010000 0.250000
vt 0.042154 0.130000
vt 0.130000 0.042154
vt 0.370000 0.042154
vt 0.457846 0.130000
vt 0.490000 0.250000
vt 0.457846 0.370000
vt 0.083333 1.000000
vt 0.083333 0.500000
vt 0.000000 1.000000
vt 0.000000 0.500000
vt 0.870000 0.457846
vt 0.957846 0.370000
vt 0.990000 0.250000
vt 0.957846 0.130000
vt 0.870000 0.042154
vt 0.630000 0.042154
vt 0.542154 0.130000
vt 0.510000 0.250000
vt 0.542154 0.370000
vt 0.630000 0.457846
vt 0.375000 0.000000
vt 0.625000 0.000000
vt 0.625000 0.250000
vt 0.375000 0.250000
vt 0.625000 0.500000
vt 0.375000 0.500000
vt 0.625000 0.750000
vt 0.375000 0.750000
vt 0.625000 1.000000
vt 0.375000 1.000000
vt 0.125000 0.500000
vt 0.125000 0.750000
vt 0.875000 0.500000
vt 0.875000 0.750000
vt 0.875000 1.000000
vt 0.750000 1.000000
vt 0.750000 0.500000
vt 0.500000 1.000000
vt 0.500000 0.500000
vt 0.250000 1.000000
vt 0.250000 0.500000
vt 0.419706 0.419706
vt 0.080294 0.419706
vt 0.080294 0.080294
vt 0.419706 0.080294
vt 0.125000 1.000000
vt 0.000000 1.000000
vt 0.000000 0.500000
vt 0.919706 0.419706
vt 0.919706 0.080294
vt 0.580294 0.080294
vt 0.580294 0.419706
vt 0.080294 0.419706
vt 0.080294 0.080294
vt 0.419706 0.080294
vt 0.919706 0.080294
vt 0.580294 0.080294
s 1
usemtl Mat_TacticalSleeve
f 1/1/1 2/2/2 4/3/3 3/4/4
f 3/4/4 4/3/3 6/5/5 5/6/6
f 5/6/6 6/5/5 8/7/7 7/8/8
f 7/8/8 8/7/7 10/9/9 9/10/10
f 9/10/10 10/9/9 12/11/11 11/12/12
f 11/12/12 12/11/11 14/13/13 13/14/14
f 13/14/14 14/13/13 16/15/15 15/16/16
f 15/16/16 16/15/15 18/17/17 17/18/18
f 17/18/18 18/17/17 20/19/19 19/20/20
f 19/20/20 20/19/19 22/21/21 21/22/22
f 21/22/22 22/21/21 24/23/23 23/24/24
f 23/24/24 24/23/23 26/25/25 25/26/26
f 4/27/3 2/28/2 28/29/27 26/30/25 24/31/23 22/32/21 20/33/19 18/34/17 16/35/15 14/36/13 12/37/11 10/38/9 8/39/7 6/40/5
f 25/26/26 26/25/25 28/41/27 27/42/28
f 27/42/28 28/41/27 2/43/2 1/44/1
f 1/45/1 3/46/4 5/47/6 7/48/8 9/49/10 11/50/12 13/51/14 15/52/16 17/53/18 19/54/20 21/55/22 23/56/24 25/57/26 27/58/28
f 153/1/97 154/2/98 156/3/99 155/4/100
f 155/4/100 156/3/99 158/5/101 157/6/102
f 157/6/102 158/5/101 160/7/103 159/8/104
f 159/8/104 160/7/103 162/9/105 161/10/106
f 161/10/106 162/9/105 164/11/107 163/12/108
f 163/12/108 164/11/107 166/13/109 165/14/110
f 165/14/110 166/13/109 168/15/111 167/16/112
f 167/16/112 168/15/111 170/17/113 169/18/114
f 169/18/114 170/17/113 172/19/115 171/20/116
f 171/20/116 172/19/115 174/21/117 173/22/118
f 173/22/118 174/21/117 176/23/119 175/24/120
f 175/24/120 176/23/119 178/25/121 177/26/122
f 156/27/99 154/28/98 180/29/123 178/30/121 176/31/119 174/32/117 172/33/115 170/34/113 168/35/111 166/36/109 164/37/107 162/38/105 160/39/103 158/40/101
f 177/26/122 178/25/121 180/41/123 179/42/124
f 179/42/124 180/41/123 154/43/98 153/44/97
f 153/45/97 155/46/100 157/47/102 159/48/104 161/49/106 163/50/108 165/51/110 167/52/112 169/53/114 171/54/116 173/55/118 175/56/120 177/57/122 179/58/124
usemtl Mat_ArmSkin
f 29/1/1 30/2/2 32/3/3 31/4/4
f 31/4/4 32/3/3 34/5/5 33/6/6
f 33/6/6 34/5/5 36/7/7 35/8/8
f 35/8/8 36/7/7 38/9/9 37/10/10
f 37/10/10 38/9/9 40/11/11 39/12/12
f 39/12/12 40/11/11 42/13/13 41/14/14
f 41/14/14 42/13/13 44/15/15 43/16/16
f 43/16/16 44/15/15 46/17/17 45/18/18
f 45/18/18 46/17/17 48/19/19 47/20/20
f 47/20/20 48/19/19 50/21/21 49/22/22
f 49/22/22 50/21/21 52/23/23 51/24/24
f 51/24/24 52/23/23 54/25/25 53/26/26
f 32/27/3 30/28/2 56/59/27 54/60/25 52/61/23 50/62/21 48/63/19 46/64/17 44/65/15 42/36/13 40/37/11 38/66/9 36/67/7 34/40/5
f 53/26/26 54/25/25 56/41/27 55/42/28
f 55/42/28 56/41/27 30/43/2 29/44/1
f 29/45/1 31/46/4 33/47/6 35/48/8 37/49/10 39/50/12 41/51/14 43/68/16 45/53/18 47/54/20 49/55/22 51/56/24 53/57/26 55/58/28
f 57/1/29 58/2/30 60/69/31 59/70/32
f 59/70/32 60/69/31 62/71/33 61/72/34
f 61/72/34 62/71/33 64/73/35 63/74/36
f 63/74/36 64/73/35 66/75/37 65/76/38
f 65/76/38 66/75/37 68/77/39 67/78/40
f 67/78/40 68/77/39 70/79/41 69/80/42
f 69/80/42 70/79/41 72/81/43 71/82/44
f 71/82/44 72/81/43 74/83/45 73/84/46
f 73/84/46 74/83/45 76/85/47 75/86/48
f 75/86/48 76/85/47 78/87/49 77/88/50
f 60/89/31 58/28/30 80/90/51 78/91/49 76/92/47 74/93/45 72/94/43 70/65/41 68/95/39 66/96/37 64/97/35 62/98/33
f 77/88/50 78/87/49 80/99/51 79/100/52
f 79/100/52 80/99/51 58/101/30 57/102/29
f 57/45/29 59/103/32 61/104/34 63/105/36 65/106/38 67/107/40 69/68/42 71/108/44 73/109/46 75/110/48 77/111/50 79/112/52
f 181/1/97 182/2/98 184/3/99 183/4/100
f 183/4/100 184/3/99 186/5/101 185/6/102
f 185/6/102 186/5/101 188/7/103 187/8/104
f 187/8/104 188/7/103 190/9/105 189/10/106
f 189/10/106 190/9/105 192/11/107 191/12/108
f 191/12/108 192/11/107 194/13/109 193/14/110
f 193/14/110 194/13/109 196/15/111 195/16/112
f 195/16/112 196/15/111 198/17/113 197/18/114
f 197/18/114 198/17/113 200/19/115 199/20/116
f 199/20/116 200/19/115 202/21/117 201/22/118
f 201/22/118 202/21/117 204/23/119 203/24/120
f 203/24/120 204/23/119 206/25/121 205/26/122
f 184/27/99 182/28/98 208/59/123 206/60/121 204/61/119 202/62/117 200/63/115 198/64/113 196/65/111 194/36/109 192/37/107 190/66/105 188/67/103 186/40/101
f 205/26/122 206/25/121 208/41/123 207/42/124
f 207/42/124 208/41/123 182/43/98 181/44/97
f 181/45/97 183/46/100 185/47/102 187/48/104 189/49/106 191/50/108 193/51/110 195/68/112 197/53/114 199/54/116 201/55/118 203/56/120 205/57/122 207/58/124
f 209/1/125 210/2/126 212/69/127 211/70/128
f 211/70/128 212/69/127 214/71/129 213/72/130
f 213/72/130 214/71/129 216/73/131 215/74/132
f 215/74/132 216/73/131 218/75/133 217/76/134
f 217/76/134 218/75/133 220/77/135 219/78/136
f 219/78/136 220/77/135 222/79/137 221/80/138
f 221/80/138 222/79/137 224/81/139 223/82/140
f 223/82/140 224/81/139 226/83/141 225/84/142
f 225/84/142 226/83/141 228/85/143 227/86/144
f 227/86/144 228/85/143 230/87/145 229/88/146
f 212/89/127 210/28/126 232/90/147 230/91/145 228/92/143 226/93/141 224/94/139 222/65/137 220/95/135 218/96/133 216/97/131 214/98/129
f 229/88/146 230/87/145 232/99/147 231/100/148
f 231/100/148 232/99/147 210/101/126 209/102/125
f 209/45/125 211/103/128 213/104/130 215/105/132 217/106/134 219/107/136 221/68/138 223/108/140 225/109/142 227/110/144 229/111/146 231/112/148
s 0
usemtl Mat_TacticalGlove
f 81/113/53 82/114/53 84/115/53 83/116/53
f 83/116/54 84/115/54 88/117/54 87/118/54
f 87/118/55 88/117/55 86/119/55 85/120/55
f 85/120/56 86/119/56 82/121/56 81/122/56
f 83/123/57 87/118/57 85/120/57 81/124/57
f 88/117/58 84/125/58 82/126/58 86/119/58
s 1
f 97/1/59 98/2/60 100/127/61 99/125/62
f 99/125/62 100/127/61 102/128/63 101/129/64
f 101/129/64 102/128/63 104/121/65 103/117/66
f 103/117/66 104/121/65 106/130/67 105/131/68
f 105/131/68 106/130/67 108/122/69 107/118/70
f 107/118/70 108/122/69 110/132/71 109/133/72
f 100/134/61 98/28/60 112/135/73 110/92/71 108/136/69 106/65/67 104/137/65 102/97/63
f 109/133/72 110/132/71 112/138/73 111/123/74
f 111/123/74 112/138/73 98/139/60 97/140/59
f 97/45/59 99/141/62 101/105/64 103/142/66 105/68/68 107/143/70 109/110/72 111/144/74
f 113/1/75 114/2/76 116/127/77 115/125/78
f 115/125/78 116/127/77 118/128/79 117/129/80
f 117/129/80 118/128/79 120/121/81 119/117/82
f 119/117/82 120/121/81 122/130/83 121/131/84
f 121/131/84 122/130/83 124/122/85 123/118/86
f 123/118/86 124/122/85 126/132/87 125/133/88
f 116/134/77 114/28/76 128/145/89 126/92/87 124/146/85 122/65/83 120/147/81 118/97/79
f 125/133/88 126/132/87 128/138/89 127/123/90
f 127/123/90 128/138/89 114/139/76 113/140/75
f 113/45/75 115/141/78 117/105/80 119/148/82 121/68/84 123/149/86 125/110/88 127/144/90
s 0
f 129/113/91 130/114/91 132/115/91 131/116/91
f 131/116/92 132/115/92 136/117/92 135/118/92
f 135/118/93 136/117/93 134/119/93 133/120/93
f 133/120/94 134/119/94 130/121/94 129/122/94
f 131/123/95 135/118/95 133/120/95 129/124/95
f 136/117/96 132/125/96 130/126/96 134/119/96
f 137/113/91 138/114/91 140/115/91 139/116/91
f 139/116/92 140/115/92 144/117/92 143/118/92
f 143/118/93 144/117/93 142/119/93 141/120/93
f 141/120/94 142/119/94 138/121/94 137/122/94
f 139/123/95 143/118/95 141/120/95 137/124/95
f 144/117/96 140/125/96 138/126/96 142/119/96
f 145/113/91 146/114/91 148/115/91 147/116/91
f 147/116/92 148/115/92 152/117/92 151/118/92
f 151/118/93 152/117/93 150/119/93 149/120/93
f 149/120/94 150/119/94 146/121/94 145/122/94
f 147/123/95 151/118/95 149/120/95 145/124/95
f 152/117/96 148/125/96 146/126/96 150/119/96
f 249/113/155 250/114/155 252/115/155 251/116/155
f 251/116/156 252/115/156 256/117/156 255/118/156
f 255/118/157 256/117/157 254/119/157 253/120/157
f 253/120/158 254/119/158 250/121/158 249/122/158
f 251/123/159 255/118/159 253/120/159 249/124/159
f 256/117/160 252/125/160 250/126/160 254/119/160
s 1
f 265/1/161 266/2/162 268/127/163 267/125/164
f 267/125/164 268/127/163 270/128/165 269/129/166
f 269/129/166 270/128/165 272/121/167 271/117/168
f 271/117/168 272/121/167 274/130/169 273/131/170
f 273/131/170 274/130/169 276/122/171 275/118/172
f 275/118/172 276/122/171 278/132/173 277/133/174
f 268/134/163 266/28/162 280/135/175 278/92/173 276/136/171 274/65/169 272/137/167 270/97/165
f 277/133/174 278/132/173 280/138/175 279/123/176
f 279/123/176 280/138/175 266/139/162 265/140/161
f 265/45/161 267/141/164 269/105/166 271/142/168 273/68/170 275/143/172 277/110/174 279/144/176
s 0
f 281/113/91 282/114/91 284/115/91 283/116/91
f 283/116/92 284/115/92 288/117/92 287/118/92
f 287/118/93 288/117/93 286/119/93 285/120/93
f 285/120/94 286/119/94 282/121/94 281/122/94
f 283/123/95 287/118/95 285/120/95 281/124/95
f 288/117/96 284/125/96 282/126/96 286/119/96
f 289/113/91 290/114/91 292/115/91 291/116/91
f 291/116/92 292/115/92 296/117/92 295/118/92
f 295/118/93 296/117/93 294/119/93 293/120/93
f 293/120/94 294/119/94 290/121/94 289/122/94
f 291/123/95 295/118/95 293/120/95 289/124/95
f 296/117/96 292/125/96 290/126/96 294/119/96
f 297/113/91 298/114/91 300/115/91 299/116/91
f 299/116/92 300/115/92 304/117/92 303/118/92
f 303/118/93 304/117/93 302/119/93 301/120/93
f 301/120/94 302/119/94 298/121/94 297/122/94
f 299/123/95 303/118/95 301/120/95 297/124/95
f 304/117/96 300/125/96 298/126/96 302/119/96
f 305/113/91 306/114/91 308/115/91 307/116/91
f 307/116/92 308/115/92 312/117/92 311/118/92
f 311/118/93 312/117/93 310/119/93 309/120/93
f 309/120/94 310/119/94 306/121/94 305/122/94
f 307/123/95 311/118/95 309/120/95 305/124/95
f 312/117/96 308/125/96 306/126/96 310/119/96
usemtl Mat_CarbonKnuckle
f 89/113/53 90/114/53 92/115/53 91/116/53
f 91/116/54 92/115/54 96/117/54 95/118/54
f 95/118/55 96/117/55 94/119/55 93/120/55
f 93/120/56 94/119/56 90/121/56 89/122/56
f 91/123/57 95/118/57 93/120/57 89/124/57
f 96/117/58 92/125/58 90/126/58 94/119/58
f 257/113/155 258/114/155 260/115/155 259/116/155
f 259/116/156 260/115/156 264/117/156 263/118/156
f 263/118/157 264/117/157 262/119/157 261/120/157
f 261/120/158 262/119/158 258/121/158 257/122/158
f 259/123/159 263/118/159 261/120/159 257/124/159
f 264/117/160 260/125/160 258/126/160 262/119/160
usemtl Mat_WatchCase
f 233/113/149 234/114/149 236/115/149 235/116/149
f 235/116/150 236/115/150 240/117/150 239/118/150
f 239/118/151 240/117/151 238/119/151 237/120/151
f 237/120/152 238/119/152 234/121/152 233/122/152
f 235/123/153 239/118/153 237/120/153 233/124/153
f 240/117/154 236/125/154 234/126/154 238/119/154
usemtl Mat_WatchScreen
f 241/113/149 242/114/149 244/115/149 243/116/149
f 243/116/150 244/115/150 248/117/150 247/118/150
f 247/118/151 248/117/151 246/119/151 245/120/151
f 245/120/152 246/119/152 242/121/152 241/122/152
f 243/123/153 247/118/153 245/120/153 241/124/153
f 248/117/154 244/125/154 242/126/154 246/119/154
