# Blender 4.0.2
# www.blender.org
mtllib airport_terminal.mtl
o AirportTerminalMesh
v -18.000000 -18.000000 0.200000
v -18.000000 18.000000 0.200000
v -18.000000 -18.000000 0.000000
v -18.000000 18.000000 0.000000
v 18.000000 -18.000000 0.200000
v 18.000000 18.000000 0.200000
v 18.000000 -18.000000 0.000000
v 18.000000 18.000000 0.000000
v -0.125000 -15.000000 -0.001000
v -0.125000 15.000000 -0.001000
v -0.125000 -15.000000 -0.003000
v -0.125000 15.000000 -0.003000
v 0.125000 -15.000000 -0.001000
v 0.125000 15.000000 -0.001000
v 0.125000 -15.000000 -0.003000
v 0.125000 15.000000 -0.003000
v -17.000000 -17.840000 0.000000
v -17.000000 -17.759998 0.000000
v -17.000000 -17.840000 -6.000000
v -17.000000 -17.759998 -6.000000
v 17.000000 -17.840000 0.000000
v 17.000000 -17.759998 0.000000
v 17.000000 -17.840000 -6.000000
v 17.000000 -17.759998 -6.000000
v -16.070000 -17.830000 0.000000
v -16.070000 -17.670000 0.000000
v -16.070000 -17.830000 -6.000000
v -16.070000 -17.670000 -6.000000
v -15.930000 -17.830000 0.000000
v -15.930000 -17.670000 0.000000
v -15.930000 -17.830000 -6.000000
v -15.930000 -17.670000 -6.000000
v -12.070000 -17.830000 0.000000
v -12.070000 -17.670000 0.000000
v -12.070000 -17.830000 -6.000000
v -12.070000 -17.670000 -6.000000
v -11.930000 -17.830000 0.000000
v -11.930000 -17.670000 0.000000
v -11.930000 -17.830000 -6.000000
v -11.930000 -17.670000 -6.000000
v -8.070000 -17.830000 0.000000
v -8.070000 -17.670000 0.000000
v -8.070000 -17.830000 -6.000000
v -8.070000 -17.670000 -6.000000
v -7.930000 -17.830000 0.000000
v -7.930000 -17.670000 0.000000
v -7.930000 -17.830000 -6.000000
v -7.930000 -17.670000 -6.000000
v -4.070000 -17.830000 0.000000
v -4.070000 -17.670000 0.000000
v -4.070000 -17.830000 -6.000000
v -4.070000 -17.670000 -6.000000
v -3.930000 -17.830000 0.000000
v -3.930000 -17.670000 0.000000
v -3.930000 -17.830000 -6.000000
v -3.930000 -17.670000 -6.000000
v -0.070000 -17.830000 0.000000
v -0.070000 -17.670000 0.000000
v -0.070000 -17.830000 -6.000000
v -0.070000 -17.670000 -6.000000
v 0.070000 -17.830000 0.000000
v 0.070000 -17.670000 0.000000
v 0.070000 -17.830000 -6.000000
v 0.070000 -17.670000 -6.000000
v 3.930000 -17.830000 0.000000
v 3.930000 -17.670000 0.000000
v 3.930000 -17.830000 -6.000000
v 3.930000 -17.670000 -6.000000
v 4.070000 -17.830000 0.000000
v 4.070000 -17.670000 0.000000
v 4.070000 -17.830000 -6.000000
v 4.070000 -17.670000 -6.000000
v 7.930000 -17.830000 0.000000
v 7.930000 -17.670000 0.000000
v 7.930000 -17.830000 -6.000000
v 7.930000 -17.670000 -6.000000
v 8.070000 -17.830000 0.000000
v 8.070000 -17.670000 0.000000
v 8.070000 -17.830000 -6.000000
v 8.070000 -17.670000 -6.000000
v 11.930000 -17.830000 0.000000
v 11.930000 -17.670000 0.000000
v 11.930000 -17.830000 -6.000000
v 11.930000 -17.670000 -6.000000
v 12.070000 -17.830000 0.000000
v 12.070000 -17.670000 0.000000
v 12.070000 -17.830000 -6.000000
v 12.070000 -17.670000 -6.000000
v 15.930000 -17.830000 0.000000
v 15.930000 -17.670000 0.000000
v 15.930000 -17.830000 -6.000000
v 15.930000 -17.670000 -6.000000
v 16.070000 -17.830000 0.000000
v 16.070000 -17.670000 0.000000
v 16.070000 -17.830000 -6.000000
v 16.070000 -17.670000 -6.000000
v -17.000000 -17.820000 -1.440000
v -17.000000 -17.680000 -1.440000
v -17.000000 -17.820000 -1.560000
v -17.000000 -17.680000 -1.560000
v 17.000000 -17.820000 -1.440000
v 17.000000 -17.680000 -1.440000
v 17.000000 -17.820000 -1.560000
v 17.000000 -17.680000 -1.560000
v -17.000000 -17.820000 -2.940000
v -17.000000 -17.680000 -2.940000
v -17.000000 -17.820000 -3.060000
v -17.000000 -17.680000 -3.060000
v 17.000000 -17.820000 -2.940000
v 17.000000 -17.680000 -2.940000
v 17.000000 -17.820000 -3.060000
v 17.000000 -17.680000 -3.060000
v -17.000000 -17.820000 -4.440000
v -17.000000 -17.680000 -4.440000
v -17.000000 -17.820000 -4.560000
v -17.000000 -17.680000 -4.560000
v 17.000000 -17.820000 -4.440000
v 17.000000 -17.680000 -4.440000
v 17.000000 -17.820000 -4.560000
v 17.000000 -17.680000 -4.560000
v -17.000000 -17.820000 -5.940000
v -17.000000 -17.680000 -5.940000
v -17.000000 -17.820000 -6.060000
v -17.000000 -17.680000 -6.060000
v 17.000000 -17.820000 -5.940000
v 17.000000 -17.680000 -5.940000
v 17.000000 -17.820000 -6.060000
v 17.000000 -17.680000 -6.060000
v -22.000000 -38.000000 0.200000
v -22.000000 -18.000000 0.200000
v -22.000000 -38.000000 0.100000
v -22.000000 -18.000000 0.100000
v 22.000000 -38.000000 0.200000
v 22.000000 -18.000000 0.200000
v 22.000000 -38.000000 0.100000
v 22.000000 -18.000000 0.100000
v -16.693333 -28.329372 -5.000000
v 0.693333 -23.670628 -5.000000
v -16.491198 -29.083752 -4.821744
v 0.895468 -24.425007 -4.821744
v -16.329098 -29.688715 -4.322282
v 1.057568 -25.029972 -4.322282
v -16.239140 -30.024446 -3.600538
v 1.147527 -25.365704 -3.600538
v -16.239140 -30.024446 -2.799462
v 1.147527 -25.365704 -2.799462
v -16.329098 -29.688715 -2.077718
v 1.057568 -25.029972 -2.077718
v -16.491198 -29.083752 -1.578256
v 0.895468 -24.425007 -1.578256
v -16.693333 -28.329372 -1.400000
v 0.693333 -23.670628 -1.400000
v -16.895468 -27.574993 -1.578256
v 0.491198 -22.916248 -1.578256
v -17.057568 -26.970028 -2.077718
v 0.329098 -22.311285 -2.077718
v -17.147526 -26.634296 -2.799462
v 0.239139 -21.975554 -2.799462
v -17.147526 -26.634296 -3.600538
v 0.239139 -21.975554 -3.600538
v -17.057568 -26.970028 -4.322282
v 0.329098 -22.311285 -4.322282
v -16.895468 -27.574993 -4.821744
v 0.491198 -22.916248 -4.821744
v -13.177427 -25.050329 -2.410000
v -11.698263 -21.878252 -2.410000
v -13.177427 -25.050329 -2.590000
v -11.698263 -21.878252 -2.590000
v -2.301736 -30.121748 -2.410000
v -0.822572 -26.949671 -2.410000
v -2.301736 -30.121748 -2.590000
v -0.822572 -26.949671 -2.590000
v -17.500000 -12.140000 -5.860000
v -17.500000 -11.860000 -5.860000
v -17.500000 -12.140000 -6.140000
v -17.500000 -11.860000 -6.140000
v 17.500000 -12.140000 -5.860000
v 17.500000 -11.860000 -5.860000
v 17.500000 -12.140000 -6.140000
v 17.500000 -11.860000 -6.140000
v -14.714293 -12.040000 -5.151015
v -14.714293 -11.960000 -5.151015
v -14.760180 -12.040000 -5.216547
v -14.760180 -11.960000 -5.216547
v -13.239820 -12.040000 -6.183453
v -13.239820 -11.960000 -6.183453
v -13.285707 -12.040000 -6.248985
v -13.285707 -11.960000 -6.248985
v -10.714293 -12.040000 -5.151015
v -10.714293 -11.960000 -5.151015
v -10.760180 -12.040000 -5.216547
v -10.760180 -11.960000 -5.216547
v -9.239820 -12.040000 -6.183453
v -9.239820 -11.960000 -6.183453
v -9.285707 -12.040000 -6.248985
v -9.285707 -11.960000 -6.248985
v -6.714294 -12.040000 -5.151015
v -6.714294 -11.960000 -5.151015
v -6.760180 -12.040000 -5.216547
v -6.760180 -11.960000 -5.216547
v -5.239820 -12.040000 -6.183453
v -5.239820 -11.960000 -6.183453
v -5.285706 -12.040000 -6.248985
v -5.285706 -11.960000 -6.248985
v -2.714294 -12.040000 -5.151015
v -2.714294 -11.960000 -5.151015
v -2.760180 -12.040000 -5.216547
v -2.760180 -11.960000 -5.216547
v -1.239820 -12.040000 -6.183453
v -1.239820 -11.960000 -6.183453
v -1.285706 -12.040000 -6.248985
v -1.285706 -11.960000 -6.248985
v 1.285706 -12.040000 -5.151015
v 1.285706 -11.960000 -5.151015
v 1.239820 -12.040000 -5.216547
v 1.239820 -11.960000 -5.216547
v 2.760180 -12.040000 -6.183453
v 2.760180 -11.960000 -6.183453
v 2.714294 -12.040000 -6.248985
v 2.714294 -11.960000 -6.248985
v 5.285706 -12.040000 -5.151015
v 5.285706 -11.960000 -5.151015
v 5.239820 -12.040000 -5.216547
v 5.239820 -11.960000 -5.216547
v 6.760180 -12.040000 -6.183453
v 6.760180 -11.960000 -6.183453
v 6.714294 -12.040000 -6.248985
v 6.714294 -11.960000 -6.248985
v 9.285707 -12.040000 -5.151015
v 9.285707 -11.960000 -5.151015
v 9.239820 -12.040000 -5.216547
v 9.239820 -11.960000 -5.216547
v 10.760180 -12.040000 -6.183453
v 10.760180 -11.960000 -6.183453
v 10.714293 -12.040000 -6.248985
v 10.714293 -11.960000 -6.248985
v 13.285707 -12.040000 -5.151015
v 13.285707 -11.960000 -5.151015
v 13.239820 -12.040000 -5.216547
v 13.239820 -11.960000 -5.216547
v 14.760180 -12.040000 -6.183453
v 14.760180 -11.960000 -6.183453
v 14.714293 -12.040000 -6.248985
v 14.714293 -11.960000 -6.248985
v -17.500000 -4.140000 -5.860000
v -17.500000 -3.860000 -5.860000
v -17.500000 -4.140000 -6.140000
v -17.500000 -3.860000 -6.140000
v 17.500000 -4.140000 -5.860000
v 17.500000 -3.860000 -5.860000
v 17.500000 -4.140000 -6.140000
v 17.500000 -3.860000 -6.140000
v -14.714293 -4.040000 -5.151015
v -14.714293 -3.960000 -5.151015
v -14.760180 -4.040000 -5.216547
v -14.760180 -3.960000 -5.216547
v -13.239820 -4.040000 -6.183453
v -13.239820 -3.960000 -6.183453
v -13.285707 -4.040000 -6.248985
v -13.285707 -3.960000 -6.248985
v -10.714293 -4.040000 -5.151015
v -10.714293 -3.960000 -5.151015
v -10.760180 -4.040000 -5.216547
v -10.760180 -3.960000 -5.216547
v -9.239820 -4.040000 -6.183453
v -9.239820 -3.960000 -6.183453
v -9.285707 -4.040000 -6.248985
v -9.285707 -3.960000 -6.248985
v -6.714294 -4.040000 -5.151015
v -6.714294 -3.960000 -5.151015
v -6.760180 -4.040000 -5.216547
v -6.760180 -3.960000 -5.216547
v -5.239820 -4.040000 -6.183453
v -5.239820 -3.960000 -6.183453
v -5.285706 -4.040000 -6.248985
v -5.285706 -3.960000 -6.248985
v -2.714294 -4.040000 -5.151015
v -2.714294 -3.960000 -5.151015
v -2.760180 -4.040000 -5.216547
v -2.760180 -3.960000 -5.216547
v -1.239820 -4.040000 -6.183453
v -1.239820 -3.960000 -6.183453
v -1.285706 -4.040000 -6.248985
v -1.285706 -3.960000 -6.248985
v 1.285706 -4.040000 -5.151015
v 1.285706 -3.960000 -5.151015
v 1.239820 -4.040000 -5.216547
v 1.239820 -3.960000 -5.216547
v 2.760180 -4.040000 -6.183453
v 2.760180 -3.960000 -6.183453
v 2.714294 -4.040000 -6.248985
v 2.714294 -3.960000 -6.248985
v 5.285706 -4.040000 -5.151015
v 5.285706 -3.960000 -5.151015
v 5.239820 -4.040000 -5.216547
v 5.239820 -3.960000 -5.216547
v 6.760180 -4.040000 -6.183453
v 6.760180 -3.960000 -6.183453
v 6.714294 -4.040000 -6.248985
v 6.714294 -3.960000 -6.248985
v 9.285707 -4.040000 -5.151015
v 9.285707 -3.960000 -5.151015
v 9.239820 -4.040000 -5.216547
v 9.239820 -3.960000 -5.216547
v 10.760180 -4.040000 -6.183453
v 10.760180 -3.960000 -6.183453
v 10.714293 -4.040000 -6.248985
v 10.714293 -3.960000 -6.248985
v 13.285707 -4.040000 -5.151015
v 13.285707 -3.960000 -5.151015
v 13.239820 -4.040000 -5.216547
v 13.239820 -3.960000 -5.216547
v 14.760180 -4.040000 -6.183453
v 14.760180 -3.960000 -6.183453
v 14.714293 -4.040000 -6.248985
v 14.714293 -3.960000 -6.248985
v -17.500000 3.860000 -5.860000
v -17.500000 4.140000 -5.860000
v -17.500000 3.860000 -6.140000
v -17.500000 4.140000 -6.140000
v 17.500000 3.860000 -5.860000
v 17.500000 4.140000 -5.860000
v 17.500000 3.860000 -6.140000
v 17.500000 4.140000 -6.140000
v -14.714293 3.960000 -5.151015
v -14.714293 4.040000 -5.151015
v -14.760180 3.960000 -5.216547
v -14.760180 4.040000 -5.216547
v -13.239820 3.960000 -6.183453
v -13.239820 4.040000 -6.183453
v -13.285707 3.960000 -6.248985
v -13.285707 4.040000 -6.248985
v -10.714293 3.960000 -5.151015
v -10.714293 4.040000 -5.151015
v -10.760180 3.960000 -5.216547
v -10.760180 4.040000 -5.216547
v -9.239820 3.960000 -6.183453
v -9.239820 4.040000 -6.183453
v -9.285707 3.960000 -6.248985
v -9.285707 4.040000 -6.248985
v -6.714294 3.960000 -5.151015
v -6.714294 4.040000 -5.151015
v -6.760180 3.960000 -5.216547
v -6.760180 4.040000 -5.216547
v -5.239820 3.960000 -6.183453
v -5.239820 4.040000 -6.183453
v -5.285706 3.960000 -6.248985
v -5.285706 4.040000 -6.248985
v -2.714294 3.960000 -5.151015
v -2.714294 4.040000 -5.151015
v -2.760180 3.960000 -5.216547
v -2.760180 4.040000 -5.216547
v -1.239820 3.960000 -6.183453
v -1.239820 4.040000 -6.183453
v -1.285706 3.960000 -6.248985
v -1.285706 4.040000 -6.248985
v 1.285706 3.960000 -5.151015
v 1.285706 4.040000 -5.151015
v 1.239820 3.960000 -5.216547
v 1.239820 4.040000 -5.216547
v 2.760180 3.960000 -6.183453
v 2.760180 4.040000 -6.183453
v 2.714294 3.960000 -6.248985
v 2.714294 4.040000 -6.248985
v 5.285706 3.960000 -5.151015
v 5.285706 4.040000 -5.151015
v 5.239820 3.960000 -5.216547
v 5.239820 4.040000 -5.216547
v 6.760180 3.960000 -6.183453
v 6.760180 4.040000 -6.183453
v 6.714294 3.960000 -6.248985
v 6.714294 4.040000 -6.248985
v 9.285707 3.960000 -5.151015
v 9.285707 4.040000 -5.151015
v 9.239820 3.960000 -5.216547
v 9.239820 4.040000 -5.216547
v 10.760180 3.960000 -6.183453
v 10.760180 4.040000 -6.183453
v 10.714293 3.960000 -6.248985
v 10.714293 4.040000 -6.248985
v 13.285707 3.960000 -5.151015
v 13.285707 4.040000 -5.151015
v 13.239820 3.960000 -5.216547
v 13.239820 4.040000 -5.216547
v 14.760180 3.960000 -6.183453
v 14.760180 4.040000 -6.183453
v 14.714293 3.960000 -6.248985
v 14.714293 4.040000 -6.248985
v -17.500000 11.860000 -5.860000
v -17.500000 12.140000 -5.860000
v -17.500000 11.860000 -6.140000
v -17.500000 12.140000 -6.140000
v 17.500000 11.860000 -5.860000
v 17.500000 12.140000 -5.860000
v 17.500000 11.860000 -6.140000
v 17.500000 12.140000 -6.140000
v -14.714293 11.960000 -5.151015
v -14.714293 12.040000 -5.151015
v -14.760180 11.960000 -5.216547
v -14.760180 12.040000 -5.216547
v -13.239820 11.960000 -6.183453
v -13.239820 12.040000 -6.183453
v -13.285707 11.960000 -6.248985
v -13.285707 12.040000 -6.248985
v -10.714293 11.960000 -5.151015
v -10.714293 12.040000 -5.151015
v -10.760180 11.960000 -5.216547
v -10.760180 12.040000 -5.216547
v -9.239820 11.960000 -6.183453
v -9.239820 12.040000 -6.183453
v -9.285707 11.960000 -6.248985
v -9.285707 12.040000 -6.248985
v -6.714294 11.960000 -5.151015
v -6.714294 12.040000 -5.151015
v -6.760180 11.960000 -5.216547
v -6.760180 12.040000 -5.216547
v -5.239820 11.960000 -6.183453
v -5.239820 12.040000 -6.183453
v -5.285706 11.960000 -6.248985
v -5.285706 12.040000 -6.248985
v -2.714294 11.960000 -5.151015
v -2.714294 12.040000 -5.151015
v -2.760180 11.960000 -5.216547
v -2.760180 12.040000 -5.216547
v -1.239820 11.960000 -6.183453
v -1.239820 12.040000 -6.183453
v -1.285706 11.960000 -6.248985
v -1.285706 12.040000 -6.248985
v 1.285706 11.960000 -5.151015
v 1.285706 12.040000 -5.151015
v 1.239820 11.960000 -5.216547
v 1.239820 12.040000 -5.216547
v 2.760180 11.960000 -6.183453
v 2.760180 12.040000 -6.183453
v 2.714294 11.960000 -6.248985
v 2.714294 12.040000 -6.248985
v 5.285706 11.960000 -5.151015
v 5.285706 12.040000 -5.151015
v 5.239820 11.960000 -5.216547
v 5.239820 12.040000 -5.216547
v 6.760180 11.960000 -6.183453
v 6.760180 12.040000 -6.183453
v 6.714294 11.960000 -6.248985
v 6.714294 12.040000 -6.248985
v 9.285707 11.960000 -5.151015
v 9.285707 12.040000 -5.151015
v 9.239820 11.960000 -5.216547
v 9.239820 12.040000 -5.216547
v 10.760180 11.960000 -6.183453
v 10.760180 12.040000 -6.183453
v 10.714293 11.960000 -6.248985
v 10.714293 12.040000 -6.248985
v 13.285707 11.960000 -5.151015
v 13.285707 12.040000 -5.151015
v 13.239820 11.960000 -5.216547
v 13.239820 12.040000 -5.216547
v 14.760180 11.960000 -6.183453
v 14.760180 12.040000 -6.183453
v 14.714293 11.960000 -6.248985
v 14.714293 12.040000 -6.248985
v -7.200000 -8.600000 -5.408000
v -7.200000 -7.400000 -5.408000
v -7.193072 -8.600000 -5.404000
v -7.193072 -7.400000 -5.404000
v -7.193072 -8.600000 -5.396000
v -7.193072 -7.400000 -5.396000
v -7.200000 -8.600000 -5.392000
v -7.200000 -7.400000 -5.392000
v -7.206928 -8.600000 -5.396000
v -7.206928 -7.400000 -5.396000
v -7.206928 -8.600000 -5.404000
v -7.206928 -7.400000 -5.404000
v -4.800000 -8.600000 -5.408000
v -4.800000 -7.400000 -5.408000
v -4.793072 -8.600000 -5.404000
v -4.793072 -7.400000 -5.404000
v -4.793072 -8.600000 -5.396000
v -4.793072 -7.400000 -5.396000
v -4.800000 -8.600000 -5.392000
v -4.800000 -7.400000 -5.392000
v -4.806928 -8.600000 -5.396000
v -4.806928 -7.400000 -5.396000
v -4.806928 -8.600000 -5.404000
v -4.806928 -7.400000 -5.404000
v -7.400000 -8.225000 -4.740000
v -7.400000 -7.775000 -4.740000
v -7.400000 -8.225000 -4.860000
v -7.400000 -7.775000 -4.860000
v -4.600000 -8.225000 -4.740000
v -4.600000 -7.775000 -4.740000
v -4.600000 -8.225000 -4.860000
v -4.600000 -7.775000 -4.860000
v -7.300000 -8.175000 -4.710000
v -7.300000 -7.825000 -4.710000
v -7.300000 -8.175000 -4.750000
v -7.300000 -7.825000 -4.750000
v -4.700000 -8.175000 -4.710000
v -4.700000 -7.825000 -4.710000
v -4.700000 -8.175000 -4.750000
v -4.700000 -7.825000 -4.750000
v 4.800000 -8.600000 -5.408000
v 4.800000 -7.400000 -5.408000
v 4.806928 -8.600000 -5.404000
v 4.806928 -7.400000 -5.404000
v 4.806928 -8.600000 -5.396000
v 4.806928 -7.400000 -5.396000
v 4.800000 -8.600000 -5.392000
v 4.800000 -7.400000 -5.392000
v 4.793072 -8.600000 -5.396000
v 4.793072 -7.400000 -5.396000
v 4.793072 -8.600000 -5.404000
v 4.793072 -7.400000 -5.404000
v 7.200000 -8.600000 -5.408000
v 7.200000 -7.400000 -5.408000
v 7.206928 -8.600000 -5.404000
v 7.206928 -7.400000 -5.404000
v 7.206928 -8.600000 -5.396000
v 7.206928 -7.400000 -5.396000
v 7.200000 -8.600000 -5.392000
v 7.200000 -7.400000 -5.392000
v 7.193072 -8.600000 -5.396000
v 7.193072 -7.400000 -5.396000
v 7.193072 -8.600000 -5.404000
v 7.193072 -7.400000 -5.404000
v 4.600000 -8.225000 -4.740000
v 4.600000 -7.775000 -4.740000
v 4.600000 -8.225000 -4.860000
v 4.600000 -7.775000 -4.860000
v 7.400000 -8.225000 -4.740000
v 7.400000 -7.775000 -4.740000
v 7.400000 -8.225000 -4.860000
v 7.400000 -7.775000 -4.860000
v 4.700000 -8.175000 -4.710000
v 4.700000 -7.825000 -4.710000
v 4.700000 -8.175000 -4.750000
v 4.700000 -7.825000 -4.750000
v 7.300000 -8.175000 -4.710000
v 7.300000 -7.825000 -4.710000
v 7.300000 -8.175000 -4.750000
v 7.300000 -7.825000 -4.750000
v -7.200000 -0.600000 -5.408000
v -7.200000 0.600000 -5.408000
v -7.193072 -0.600000 -5.404000
v -7.193072 0.600000 -5.404000
v -7.193072 -0.600000 -5.396000
v -7.193072 0.600000 -5.396000
v -7.200000 -0.600000 -5.392000
v -7.200000 0.600000 -5.392000
v -7.206928 -0.600000 -5.396000
v -7.206928 0.600000 -5.396000
v -7.206928 -0.600000 -5.404000
v -7.206928 0.600000 -5.404000
v -4.800000 -0.600000 -5.408000
v -4.800000 0.600000 -5.408000
v -4.793072 -0.600000 -5.404000
v -4.793072 0.600000 -5.404000
v -4.793072 -0.600000 -5.396000
v -4.793072 0.600000 -5.396000
v -4.800000 -0.600000 -5.392000
v -4.800000 0.600000 -5.392000
v -4.806928 -0.600000 -5.396000
v -4.806928 0.600000 -5.396000
v -4.806928 -0.600000 -5.404000
v -4.806928 0.600000 -5.404000
v -7.400000 -0.225000 -4.740000
v -7.400000 0.225000 -4.740000
v -7.400000 -0.225000 -4.860000
v -7.400000 0.225000 -4.860000
v -4.600000 -0.225000 -4.740000
v -4.600000 0.225000 -4.740000
v -4.600000 -0.225000 -4.860000
v -4.600000 0.225000 -4.860000
v -7.300000 -0.175000 -4.710000
v -7.300000 0.175000 -4.710000
v -7.300000 -0.175000 -4.750000
v -7.300000 0.175000 -4.750000
v -4.700000 -0.175000 -4.710000
v -4.700000 0.175000 -4.710000
v -4.700000 -0.175000 -4.750000
v -4.700000 0.175000 -4.750000
v 4.800000 -0.600000 -5.408000
v 4.800000 0.600000 -5.408000
v 4.806928 -0.600000 -5.404000
v 4.806928 0.600000 -5.404000
v 4.806928 -0.600000 -5.396000
v 4.806928 0.600000 -5.396000
v 4.800000 -0.600000 -5.392000
v 4.800000 0.600000 -5.392000
v 4.793072 -0.600000 -5.396000
v 4.793072 0.600000 -5.396000
v 4.793072 -0.600000 -5.404000
v 4.793072 0.600000 -5.404000
v 7.200000 -0.600000 -5.408000
v 7.200000 0.600000 -5.408000
v 7.206928 -0.600000 -5.404000
v 7.206928 0.600000 -5.404000
v 7.206928 -0.600000 -5.396000
v 7.206928 0.600000 -5.396000
v 7.200000 -0.600000 -5.392000
v 7.200000 0.600000 -5.392000
v 7.193072 -0.600000 -5.396000
v 7.193072 0.600000 -5.396000
v 7.193072 -0.600000 -5.404000
v 7.193072 0.600000 -5.404000
v 4.600000 -0.225000 -4.740000
v 4.600000 0.225000 -4.740000
v 4.600000 -0.225000 -4.860000
v 4.600000 0.225000 -4.860000
v 7.400000 -0.225000 -4.740000
v 7.400000 0.225000 -4.740000
v 7.400000 -0.225000 -4.860000
v 7.400000 0.225000 -4.860000
v 4.700000 -0.175000 -4.710000
v 4.700000 0.175000 -4.710000
v 4.700000 -0.175000 -4.750000
v 4.700000 0.175000 -4.750000
v 7.300000 -0.175000 -4.710000
v 7.300000 0.175000 -4.710000
v 7.300000 -0.175000 -4.750000
v 7.300000 0.175000 -4.750000
v -7.200000 7.400000 -5.408000
v -7.200000 8.600000 -5.408000
v -7.193072 7.400000 -5.404000
v -7.193072 8.600000 -5.404000
v -7.193072 7.400000 -5.396000
v -7.193072 8.600000 -5.396000
v -7.200000 7.400000 -5.392000
v -7.200000 8.600000 -5.392000
v -7.206928 7.400000 -5.396000
v -7.206928 8.600000 -5.396000
v -7.206928 7.400000 -5.404000
v -7.206928 8.600000 -5.404000
v -4.800000 7.400000 -5.408000
v -4.800000 8.600000 -5.408000
v -4.793072 7.400000 -5.404000
v -4.793072 8.600000 -5.404000
v -4.793072 7.400000 -5.396000
v -4.793072 8.600000 -5.396000
v -4.800000 7.400000 -5.392000
v -4.800000 8.600000 -5.392000
v -4.806928 7.400000 -5.396000
v -4.806928 8.600000 -5.396000
v -4.806928 7.400000 -5.404000
v -4.806928 8.600000 -5.404000
v -7.400000 7.775000 -4.740000
v -7.400000 8.225000 -4.740000
v -7.400000 7.775000 -4.860000
v -7.400000 8.225000 -4.860000
v -4.600000 7.775000 -4.740000
v -4.600000 8.225000 -4.740000
v -4.600000 7.775000 -4.860000
v -4.600000 8.225000 -4.860000
v -7.300000 7.825000 -4.710000
v -7.300000 8.175000 -4.710000
v -7.300000 7.825000 -4.750000
v -7.300000 8.175000 -4.750000
v -4.700000 7.825000 -4.710000
v -4.700000 8.175000 -4.710000
v -4.700000 7.825000 -4.750000
v -4.700000 8.175000 -4.750000
v 4.800000 7.400000 -5.408000
v 4.800000 8.600000 -5.408000
v 4.806928 7.400000 -5.404000
v 4.806928 8.600000 -5.404000
v 4.806928 7.400000 -5.396000
v 4.806928 8.600000 -5.396000
v 4.800000 7.400000 -5.392000
v 4.800000 8.600000 -5.392000
v 4.793072 7.400000 -5.396000
v 4.793072 8.600000 -5.396000
v 4.793072 7.400000 -5.404000
v 4.793072 8.600000 -5.404000
v 7.200000 7.400000 -5.408000
v 7.200000 8.600000 -5.408000
v 7.206928 7.400000 -5.404000
v 7.206928 8.600000 -5.404000
v 7.206928 7.400000 -5.396000
v 7.206928 8.600000 -5.396000
v 7.200000 7.400000 -5.392000
v 7.200000 8.600000 -5.392000
v 7.193072 7.400000 -5.396000
v 7.193072 8.600000 -5.396000
v 7.193072 7.400000 -5.404000
v 7.193072 8.600000 -5.404000
v 4.600000 7.775000 -4.740000
v 4.600000 8.225000 -4.740000
v 4.600000 7.775000 -4.860000
v 4.600000 8.225000 -4.860000
v 7.400000 7.775000 -4.740000
v 7.400000 8.225000 -4.740000
v 7.400000 7.775000 -4.860000
v 7.400000 8.225000 -4.860000
v 4.700000 7.825000 -4.710000
v 4.700000 8.175000 -4.710000
v 4.700000 7.825000 -4.750000
v 4.700000 8.175000 -4.750000
v 7.300000 7.825000 -4.710000
v 7.300000 8.175000 -4.710000
v 7.300000 7.825000 -4.750000
v 7.300000 8.175000 -4.750000
v -7.000000 -10.000000 -3.650000
v -7.000000 -4.000000 -3.650000
v -6.540380 -10.000000 -3.459619
v -6.540380 -4.000000 -3.459619
v -6.350000 -10.000000 -3.000000
v -6.350000 -4.000000 -3.000000
v -6.540380 -10.000000 -2.540381
v -6.540380 -4.000000 -2.540381
v -7.000000 -10.000000 -2.350000
v -7.000000 -4.000000 -2.350000
v -7.459620 -10.000000 -2.540381
v -7.459620 -4.000000 -2.540381
v -7.650000 -10.000000 -3.000000
v -7.650000 -4.000000 -3.000000
v -7.459620 -10.000000 -3.459619
v -7.459620 -4.000000 -3.459619
v -7.000000 -7.175000 -2.670000
v -7.000000 -6.825000 -2.670000
v -6.526238 -7.175000 -2.473762
v -6.526238 -6.825000 -2.473762
v -6.330000 -7.175000 -2.000000
v -6.330000 -6.825000 -2.000000
v -6.526238 -7.175000 -1.526238
v -6.526238 -6.825000 -1.526238
v -7.000000 -7.175000 -1.330000
v -7.000000 -6.825000 -1.330000
v -7.473762 -7.175000 -1.526238
v -7.473762 -6.825000 -1.526238
v -7.670000 -7.175000 -2.000000
v -7.670000 -6.825000 -2.000000
v -7.473762 -7.175000 -2.473762
v -7.473762 -6.825000 -2.473762
v -7.140000 -6.440000 -1.175000
v -7.140000 -6.240000 -1.175000
v -7.140000 -6.440000 -1.825000
v -7.140000 -6.240000 -1.825000
v -6.860000 -6.440000 -1.175000
v -6.860000 -6.240000 -1.175000
v -6.860000 -6.440000 -1.825000
v -6.860000 -6.240000 -1.825000
v 7.000000 -10.000000 -3.650000
v 7.000000 -4.000000 -3.650000
v 7.459620 -10.000000 -3.459619
v 7.459620 -4.000000 -3.459619
v 7.650000 -10.000000 -3.000000
v 7.650000 -4.000000 -3.000000
v 7.459620 -10.000000 -2.540381
v 7.459620 -4.000000 -2.540381
v 7.000000 -10.000000 -2.350000
v 7.000000 -4.000000 -2.350000
v 6.540380 -10.000000 -2.540381
v 6.540380 -4.000000 -2.540381
v 6.350000 -10.000000 -3.000000
v 6.350000 -4.000000 -3.000000
v 6.540380 -10.000000 -3.459619
v 6.540380 -4.000000 -3.459619
v 7.000000 -7.175000 -2.670000
v 7.000000 -6.825000 -2.670000
v 7.473762 -7.175000 -2.473762
v 7.473762 -6.825000 -2.473762
v 7.670000 -7.175000 -2.000000
v 7.670000 -6.825000 -2.000000
v 7.473762 -7.175000 -1.526238
v 7.473762 -6.825000 -1.526238
v 7.000000 -7.175000 -1.330000
v 7.000000 -6.825000 -1.330000
v 6.526238 -7.175000 -1.526238
v 6.526238 -6.825000 -1.526238
v 6.330000 -7.175000 -2.000000
v 6.330000 -6.825000 -2.000000
v 6.526238 -7.175000 -2.473762
v 6.526238 -6.825000 -2.473762
v 6.860000 -6.440000 -1.175000
v 6.860000 -6.240000 -1.175000
v 6.860000 -6.440000 -1.825000
v 6.860000 -6.240000 -1.825000
v 7.140000 -6.440000 -1.175000
v 7.140000 -6.240000 -1.175000
v 7.140000 -6.440000 -1.825000
v 7.140000 -6.240000 -1.825000
v -7.000000 4.000000 -3.650000
v -7.000000 10.000000 -3.650000
v -6.540380 4.000000 -3.459619
v -6.540380 10.000000 -3.459619
v -6.350000 4.000000 -3.000000
v -6.350000 10.000000 -3.000000
v -6.540380 4.000000 -2.540381
v -6.540380 10.000000 -2.540381
v -7.000000 4.000000 -2.350000
v -7.000000 10.000000 -2.350000
v -7.459620 4.000000 -2.540381
v -7.459620 10.000000 -2.540381
v -7.650000 4.000000 -3.000000
v -7.650000 10.000000 -3.000000
v -7.459620 4.000000 -3.459619
v -7.459620 10.000000 -3.459619
v -7.000000 6.825000 -2.670000
v -7.000000 7.175000 -2.670000
v -6.526238 6.825000 -2.473762
v -6.526238 7.175000 -2.473762
v -6.330000 6.825000 -2.000000
v -6.330000 7.175000 -2.000000
v -6.526238 6.825000 -1.526238
v -6.526238 7.175000 -1.526238
v -7.000000 6.825000 -1.330000
v -7.000000 7.175000 -1.330000
v -7.473762 6.825000 -1.526238
v -7.473762 7.175000 -1.526238
v -7.670000 6.825000 -2.000000
v -7.670000 7.175000 -2.000000
v -7.473762 6.825000 -2.473762
v -7.473762 7.175000 -2.473762
v -7.140000 7.560000 -1.175000
v -7.140000 7.760000 -1.175000
v -7.140000 7.560000 -1.825000
v -7.140000 7.760000 -1.825000
v -6.860000 7.560000 -1.175000
v -6.860000 7.760000 -1.175000
v -6.860000 7.560000 -1.825000
v -6.860000 7.760000 -1.825000
v 7.000000 4.000000 -3.650000
v 7.000000 10.000000 -3.650000
v 7.459620 4.000000 -3.459619
v 7.459620 10.000000 -3.459619
v 7.650000 4.000000 -3.000000
v 7.650000 10.000000 -3.000000
v 7.459620 4.000000 -2.540381
v 7.459620 10.000000 -2.540381
v 7.000000 4.000000 -2.350000
v 7.000000 10.000000 -2.350000
v 6.540380 4.000000 -2.540381
v 6.540380 10.000000 -2.540381
v 6.350000 4.000000 -3.000000
v 6.350000 10.000000 -3.000000
v 6.540380 4.000000 -3.459619
v 6.540380 10.000000 -3.459619
v 7.000000 6.825000 -2.670000
v 7.000000 7.175000 -2.670000
v 7.473762 6.825000 -2.473762
v 7.473762 7.175000 -2.473762
v 7.670000 6.825000 -2.000000
v 7.670000 7.175000 -2.000000
v 7.473762 6.825000 -1.526238
v 7.473762 7.175000 -1.526238
v 7.000000 6.825000 -1.330000
v 7.000000 7.175000 -1.330000
v 6.526238 6.825000 -1.526238
v 6.526238 7.175000 -1.526238
v 6.330000 6.825000 -2.000000
v 6.330000 7.175000 -2.000000
v 6.526238 6.825000 -2.473762
v 6.526238 7.175000 -2.473762
v 6.860000 7.560000 -1.175000
v 6.860000 7.760000 -1.175000
v 6.860000 7.560000 -1.825000
v 6.860000 7.760000 -1.825000
v 7.140000 7.560000 -1.175000
v 7.140000 7.760000 -1.175000
v 7.140000 7.560000 -1.825000
v 7.140000 7.760000 -1.825000
v -1.600000 -10.925000 -0.000000
v -1.600000 -10.075000 -0.000000
v -1.600000 -10.925000 -1.100000
v -1.600000 -10.075000 -1.100000
v 1.600000 -10.925000 -0.000000
v 1.600000 -10.075000 -0.000000
v 1.600000 -10.925000 -1.100000
v 1.600000 -10.075000 -1.100000
v -1.650000 -10.975000 -1.095000
v -1.650000 -10.025000 -1.095000
v -1.650000 -10.975000 -1.145000
v -1.650000 -10.025000 -1.145000
v 1.650000 -10.975000 -1.095000
v 1.650000 -10.025000 -1.095000
v 1.650000 -10.975000 -1.145000
v 1.650000 -10.025000 -1.145000
v 0.775000 -11.000000 -0.005000
v 0.775000 -9.799999 -0.005000
v 0.775000 -11.000000 -0.355000
v 0.775000 -9.799999 -0.355000
v 1.625000 -11.000000 -0.005000
v 1.625000 -9.799999 -0.005000
v 1.625000 -11.000000 -0.355000
v 1.625000 -9.799999 -0.355000
v -0.630000 -10.679999 -1.125000
v -0.630000 -10.620000 -1.125000
v -0.630000 -10.679999 -1.475000
v -0.630000 -10.620000 -1.475000
v -0.570000 -10.679999 -1.125000
v -0.570000 -10.620000 -1.125000
v -0.570000 -10.679999 -1.475000
v -0.570000 -10.620000 -1.475000
v -0.825000 -10.670000 -1.340000
v -0.825000 -10.629999 -1.340000
v -0.825000 -10.670000 -1.620000
v -0.825000 -10.629999 -1.620000
v -0.375000 -10.670000 -1.340000
v -0.375000 -10.629999 -1.340000
v -0.375000 -10.670000 -1.620000
v -0.375000 -10.629999 -1.620000
v -8.100000 -10.925000 -0.000000
v -8.100000 -10.075000 -0.000000
v -8.100000 -10.925000 -1.100000
v -8.100000 -10.075000 -1.100000
v -4.900000 -10.925000 -0.000000
v -4.900000 -10.075000 -0.000000
v -4.900000 -10.925000 -1.100000
v -4.900000 -10.075000 -1.100000
v -8.150000 -10.975000 -1.095000
v -8.150000 -10.025000 -1.095000
v -8.150000 -10.975000 -1.145000
v -8.150000 -10.025000 -1.145000
v -4.850000 -10.975000 -1.095000
v -4.850000 -10.025000 -1.095000
v -4.850000 -10.975000 -1.145000
v -4.850000 -10.025000 -1.145000
v -5.725000 -11.000000 -0.005000
v -5.725000 -9.799999 -0.005000
v -5.725000 -11.000000 -0.355000
v -5.725000 -9.799999 -0.355000
v -4.875000 -11.000000 -0.005000
v -4.875000 -9.799999 -0.005000
v -4.875000 -11.000000 -0.355000
v -4.875000 -9.799999 -0.355000
v -7.130000 -10.679999 -1.125000
v -7.130000 -10.620000 -1.125000
v -7.130000 -10.679999 -1.475000
v -7.130000 -10.620000 -1.475000
v -7.070000 -10.679999 -1.125000
v -7.070000 -10.620000 -1.125000
v -7.070000 -10.679999 -1.475000
v -7.070000 -10.620000 -1.475000
v -7.325000 -10.670000 -1.340000
v -7.325000 -10.629999 -1.340000
v -7.325000 -10.670000 -1.620000
v -7.325000 -10.629999 -1.620000
v -6.875000 -10.670000 -1.340000
v -6.875000 -10.629999 -1.340000
v -6.875000 -10.670000 -1.620000
v -6.875000 -10.629999 -1.620000
v -2.000000 -8.450000 -0.475000
v -2.000000 -7.550000 -0.475000
v -1.982322 -8.450000 -0.467678
v -1.982322 -7.550000 -0.467678
v -1.975000 -8.450000 -0.450000
v -1.975000 -7.550000 -0.450000
v -1.982322 -8.450000 -0.432322
v -1.982322 -7.550000 -0.432322
v -2.000000 -8.450000 -0.425000
v -2.000000 -7.550000 -0.425000
v -2.017678 -8.450000 -0.432322
v -2.017678 -7.550000 -0.432322
v -2.025000 -8.450000 -0.450000
v -2.025000 -7.550000 -0.450000
v -2.017678 -8.450000 -0.467678
v -2.017678 -7.550000 -0.467678
v -2.000000 -8.020000 -0.180000
v -2.000000 -7.980000 -0.180000
v -1.905954 -8.020000 -0.149443
v -1.905954 -7.980000 -0.149443
v -1.847831 -8.020000 -0.069443
v -1.847831 -7.980000 -0.069443
v -1.847831 -8.020000 0.029443
v -1.847831 -7.980000 0.029443
v -1.905954 -8.020000 0.109443
v -1.905954 -7.980000 0.109443
v -2.000000 -8.020000 0.140000
v -2.000000 -7.980000 0.140000
v -2.094046 -8.020000 0.109443
v -2.094046 -7.980000 0.109443
v -2.152169 -8.020000 0.029443
v -2.152169 -7.980000 0.029443
v -2.152169 -8.020000 -0.069443
v -2.152169 -7.980000 -0.069443
v -2.094046 -8.020000 -0.149443
v -2.094046 -7.980000 -0.149443
v 0.000000 -8.450000 -0.475000
v 0.000000 -7.550000 -0.475000
v 0.017678 -8.450000 -0.467678
v 0.017678 -7.550000 -0.467678
v 0.025000 -8.450000 -0.450000
v 0.025000 -7.550000 -0.450000
v 0.017678 -8.450000 -0.432322
v 0.017678 -7.550000 -0.432322
v 0.000000 -8.450000 -0.425000
v 0.000000 -7.550000 -0.425000
v -0.017678 -8.450000 -0.432322
v -0.017678 -7.550000 -0.432322
v -0.025000 -8.450000 -0.450000
v -0.025000 -7.550000 -0.450000
v -0.017678 -8.450000 -0.467678
v -0.017678 -7.550000 -0.467678
v 0.000000 -8.020000 -0.180000
v 0.000000 -7.980000 -0.180000
v 0.094046 -8.020000 -0.149443
v 0.094046 -7.980000 -0.149443
v 0.152169 -8.020000 -0.069443
v 0.152169 -7.980000 -0.069443
v 0.152169 -8.020000 0.029443
v 0.152169 -7.980000 0.029443
v 0.094046 -8.020000 0.109443
v 0.094046 -7.980000 0.109443
v 0.000000 -8.020000 0.140000
v 0.000000 -7.980000 0.140000
v -0.094046 -8.020000 0.109443
v -0.094046 -7.980000 0.109443
v -0.152169 -8.020000 0.029443
v -0.152169 -7.980000 0.029443
v -0.152169 -8.020000 -0.069443
v -0.152169 -7.980000 -0.069443
v -0.094046 -8.020000 -0.149443
v -0.094046 -7.980000 -0.149443
v 2.000000 -8.450000 -0.475000
v 2.000000 -7.550000 -0.475000
v 2.017678 -8.450000 -0.467678
v 2.017678 -7.550000 -0.467678
v 2.025000 -8.450000 -0.450000
v 2.025000 -7.550000 -0.450000
v 2.017678 -8.450000 -0.432322
v 2.017678 -7.550000 -0.432322
v 2.000000 -8.450000 -0.425000
v 2.000000 -7.550000 -0.425000
v 1.982322 -8.450000 -0.432322
v 1.982322 -7.550000 -0.432322
v 1.975000 -8.450000 -0.450000
v 1.975000 -7.550000 -0.450000
v 1.982322 -8.450000 -0.467678
v 1.982322 -7.550000 -0.467678
v 2.000000 -8.020000 -0.180000
v 2.000000 -7.980000 -0.180000
v 2.094046 -8.020000 -0.149443
v 2.094046 -7.980000 -0.149443
v 2.152169 -8.020000 -0.069443
v 2.152169 -7.980000 -0.069443
v 2.152169 -8.020000 0.029443
v 2.152169 -7.980000 0.029443
v 2.094046 -8.020000 0.109443
v 2.094046 -7.980000 0.109443
v 2.000000 -8.020000 0.140000
v 2.000000 -7.980000 0.140000
v 1.905954 -8.020000 0.109443
v 1.905954 -7.980000 0.109443
v 1.847831 -8.020000 0.029443
v 1.847831 -7.980000 0.029443
v 1.847831 -8.020000 -0.069443
v 1.847831 -7.980000 -0.069443
v 1.905954 -8.020000 -0.149443
v 1.905954 -7.980000 -0.149443
v -2.000000 -8.002500 -0.780000
v -2.000000 -7.997500 -0.780000
v -2.000000 -8.002500 -0.820000
v -2.000000 -7.997500 -0.820000
v 2.000000 -8.002500 -0.780000
v 2.000000 -7.997500 -0.780000
v 2.000000 -8.002500 -0.820000
v 2.000000 -7.997500 -0.820000
v 2.340000 -4.325000 -0.000000
v 2.340000 -3.675000 -0.000000
v 2.340000 -4.325000 -2.300000
v 2.340000 -3.675000 -2.300000
v 2.460000 -4.325000 -0.000000
v 2.460000 -3.675000 -0.000000
v 2.460000 -4.325000 -2.300000
v 2.460000 -3.675000 -2.300000
v 3.540000 -4.325000 -0.000000
v 3.540000 -3.675000 -0.000000
v 3.540000 -4.325000 -2.300000
v 3.540000 -3.675000 -2.300000
v 3.660000 -4.325000 -0.000000
v 3.660000 -3.675000 -0.000000
v 3.660000 -4.325000 -2.300000
v 3.660000 -3.675000 -2.300000
v 2.340000 -4.325000 -2.175000
v 2.340000 -3.675000 -2.175000
v 2.340000 -4.325000 -2.325000
v 2.340000 -3.675000 -2.325000
v 3.660000 -4.325000 -2.175000
v 3.660000 -3.675000 -2.175000
v 3.660000 -4.325000 -2.325000
v 3.660000 -3.675000 -2.325000
v 2.600000 -3.680000 -2.135000
v 2.600000 -3.660000 -2.135000
v 2.600000 -3.680000 -2.165000
v 2.600000 -3.660000 -2.165000
v 3.400000 -3.680000 -2.135000
v 3.400000 -3.660000 -2.135000
v 3.400000 -3.680000 -2.165000
v 3.400000 -3.660000 -2.165000
v 5.100000 -4.800000 -0.350000
v 5.100000 -3.200000 -0.350000
v 5.100000 -4.800000 -1.550000
v 5.100000 -3.200000 -1.550000
v 6.500000 -4.800000 -0.350000
v 6.500000 -3.200000 -0.350000
v 6.500000 -4.800000 -1.550000
v 6.500000 -3.200000 -1.550000
v 5.350000 -3.200000 -0.550000
v 5.350000 -3.180000 -0.550000
v 5.350000 -3.200000 -1.350000
v 5.350000 -3.180000 -1.350000
v 6.250000 -3.200000 -0.550000
v 6.250000 -3.180000 -0.550000
v 6.250000 -3.200000 -1.350000
v 6.250000 -3.180000 -1.350000
v 5.375000 -2.700000 -0.490000
v 5.375000 -1.300000 -0.490000
v 5.375000 -2.700000 -0.610000
v 5.375000 -1.300000 -0.610000
v 6.225000 -2.700000 -0.490000
v 6.225000 -1.300000 -0.490000
v 6.225000 -2.700000 -0.610000
v 6.225000 -1.300000 -0.610000
v 5.375000 -6.700000 -0.490000
v 5.375000 -5.300000 -0.490000
v 5.375000 -6.700000 -0.610000
v 5.375000 -5.300000 -0.610000
v 6.225000 -6.700000 -0.490000
v 6.225000 -5.300000 -0.490000
v 6.225000 -6.700000 -0.610000
v 6.225000 -5.300000 -0.610000
v -5.300000 2.470000 -0.370000
v -5.300000 2.530000 -0.370000
v -5.300000 2.470000 -0.430000
v -5.300000 2.530000 -0.430000
v -2.700000 2.470000 -0.370000
v -2.700000 2.530000 -0.370000
v -2.700000 2.470000 -0.430000
v -2.700000 2.530000 -0.430000
v -5.130000 2.280000 -0.430000
v -5.130000 2.720000 -0.430000
v -5.130000 2.280000 -0.490000
v -5.130000 2.720000 -0.490000
v -4.670000 2.280000 -0.430000
v -4.670000 2.720000 -0.430000
v -4.670000 2.280000 -0.490000
v -4.670000 2.720000 -0.490000
v -5.130000 2.310395 -0.488285
v -5.130000 2.369483 -0.498704
v -5.130000 2.230517 -0.941296
v -5.130000 2.289605 -0.951715
v -4.670000 2.310395 -0.488285
v -4.670000 2.369483 -0.498704
v -4.670000 2.230517 -0.941296
v -4.670000 2.289605 -0.951715
v -4.530000 2.280000 -0.430000
v -4.530000 2.720000 -0.430000
v -4.530000 2.280000 -0.490000
v -4.530000 2.720000 -0.490000
v -4.070000 2.280000 -0.430000
v -4.070000 2.720000 -0.430000
v -4.070000 2.280000 -0.490000
v -4.070000 2.720000 -0.490000
v -4.530000 2.310395 -0.488285
v -4.530000 2.369483 -0.498704
v -4.530000 2.230517 -0.941296
v -4.530000 2.289605 -0.951715
v -4.070000 2.310395 -0.488285
v -4.070000 2.369483 -0.498704
v -4.070000 2.230517 -0.941296
v -4.070000 2.289605 -0.951715
v -3.930000 2.280000 -0.430000
v -3.930000 2.720000 -0.430000
v -3.930000 2.280000 -0.490000
v -3.930000 2.720000 -0.490000
v -3.470000 2.280000 -0.430000
v -3.470000 2.720000 -0.430000
v -3.470000 2.280000 -0.490000
v -3.470000 2.720000 -0.490000
v -3.930000 2.310395 -0.488285
v -3.930000 2.369483 -0.498704
v -3.930000 2.230517 -0.941296
v -3.930000 2.289605 -0.951715
v -3.470000 2.310395 -0.488285
v -3.470000 2.369483 -0.498704
v -3.470000 2.230517 -0.941296
v -3.470000 2.289605 -0.951715
v -3.330000 2.280000 -0.430000
v -3.330000 2.720000 -0.430000
v -3.330000 2.280000 -0.490000
v -3.330000 2.720000 -0.490000
v -2.870000 2.280000 -0.430000
v -2.870000 2.720000 -0.430000
v -2.870000 2.280000 -0.490000
v -2.870000 2.720000 -0.490000
v -3.330000 2.310395 -0.488285
v -3.330000 2.369483 -0.498704
v -3.330000 2.230517 -0.941296
v -3.330000 2.289605 -0.951715
v -2.870000 2.310395 -0.488285
v -2.870000 2.369483 -0.498704
v -2.870000 2.230517 -0.941296
v -2.870000 2.289605 -0.951715
v 0.700000 3.970000 -0.370000
v 0.700000 4.030000 -0.370000
v 0.700000 3.970000 -0.430000
v 0.700000 4.030000 -0.430000
v 3.300000 3.970000 -0.370000
v 3.300000 4.030000 -0.370000
v 3.300000 3.970000 -0.430000
v 3.300000 4.030000 -0.430000
v 0.870000 3.780000 -0.430000
v 0.870000 4.220000 -0.430000
v 0.870000 3.780000 -0.490000
v 0.870000 4.220000 -0.490000
v 1.330000 3.780000 -0.430000
v 1.330000 4.220000 -0.430000
v 1.330000 3.780000 -0.490000
v 1.330000 4.220000 -0.490000
v 0.870000 3.810395 -0.488285
v 0.870000 3.869483 -0.498704
v 0.870000 3.730517 -0.941296
v 0.870000 3.789605 -0.951715
v 1.330000 3.810395 -0.488285
v 1.330000 3.869483 -0.498704
v 1.330000 3.730517 -0.941296
v 1.330000 3.789605 -0.951715
v 1.470000 3.780000 -0.430000
v 1.470000 4.220000 -0.430000
v 1.470000 3.780000 -0.490000
v 1.470000 4.220000 -0.490000
v 1.930000 3.780000 -0.430000
v 1.930000 4.220000 -0.430000
v 1.930000 3.780000 -0.490000
v 1.930000 4.220000 -0.490000
v 1.470000 3.810395 -0.488285
v 1.470000 3.869483 -0.498704
v 1.470000 3.730517 -0.941296
v 1.470000 3.789605 -0.951715
v 1.930000 3.810395 -0.488285
v 1.930000 3.869483 -0.498704
v 1.930000 3.730517 -0.941296
v 1.930000 3.789605 -0.951715
v 2.070000 3.780000 -0.430000
v 2.070000 4.220000 -0.430000
v 2.070000 3.780000 -0.490000
v 2.070000 4.220000 -0.490000
v 2.530000 3.780000 -0.430000
v 2.530000 4.220000 -0.430000
v 2.530000 3.780000 -0.490000
v 2.530000 4.220000 -0.490000
v 2.070000 3.810395 -0.488285
v 2.070000 3.869483 -0.498704
v 2.070000 3.730517 -0.941296
v 2.070000 3.789605 -0.951715
v 2.530000 3.810395 -0.488285
v 2.530000 3.869483 -0.498704
v 2.530000 3.730517 -0.941296
v 2.530000 3.789605 -0.951715
v 2.670000 3.780000 -0.430000
v 2.670000 4.220000 -0.430000
v 2.670000 3.780000 -0.490000
v 2.670000 4.220000 -0.490000
v 3.130000 3.780000 -0.430000
v 3.130000 4.220000 -0.430000
v 3.130000 3.780000 -0.490000
v 3.130000 4.220000 -0.490000
v 2.670000 3.810395 -0.488285
v 2.670000 3.869483 -0.498704
v 2.670000 3.730517 -0.941296
v 2.670000 3.789605 -0.951715
v 3.130000 3.810395 -0.488285
v 3.130000 3.869483 -0.498704
v 3.130000 3.730517 -0.941296
v 3.130000 3.789605 -0.951715
v -2.440452 8.398026 -0.370000
v -2.398026 8.440452 -0.370000
v -2.440452 8.398026 -0.430000
v -2.398026 8.440452 -0.430000
v -0.601974 6.559548 -0.370000
v -0.559548 6.601974 -0.370000
v -0.601974 6.559548 -0.430000
v -0.559548 6.601974 -0.430000
v -2.718198 7.507071 -0.430000
v -2.407071 7.818198 -0.430000
v -2.718198 7.507071 -0.490000
v -2.407071 7.818198 -0.490000
v -2.392929 7.181802 -0.430000
v -2.081802 7.492929 -0.430000
v -2.392929 7.181802 -0.490000
v -2.081802 7.492929 -0.490000
v -2.555285 7.469985 -0.488285
v -2.513503 7.511767 -0.498704
v -2.611767 7.413503 -0.941296
v -2.569985 7.455285 -0.951715
v -2.230015 7.144716 -0.488285
v -2.188233 7.186498 -0.498704
v -2.286498 7.088233 -0.941296
v -2.244716 7.130015 -0.951715
v -2.118198 7.507071 -0.430000
v -1.807071 7.818198 -0.430000
v -2.118198 7.507071 -0.490000
v -1.807071 7.818198 -0.490000
v -1.792929 7.181802 -0.430000
v -1.481802 7.492929 -0.430000
v -1.792929 7.181802 -0.490000
v -1.481802 7.492929 -0.490000
v -1.955284 7.469985 -0.488285
v -1.913502 7.511767 -0.498704
v -2.011767 7.413503 -0.941296
v -1.969985 7.455285 -0.951715
v -1.630015 7.144716 -0.488285
v -1.588233 7.186498 -0.498704
v -1.686498 7.088233 -0.941296
v -1.644716 7.130015 -0.951715
v -1.518198 7.507071 -0.430000
v -1.207071 7.818198 -0.430000
v -1.518198 7.507071 -0.490000
v -1.207071 7.818198 -0.490000
v -1.192929 7.181802 -0.430000
v -0.881802 7.492929 -0.430000
v -1.192929 7.181802 -0.490000
v -0.881802 7.492929 -0.490000
v -1.355284 7.469985 -0.488285
v -1.313502 7.511767 -0.498704
v -1.411767 7.413503 -0.941296
v -1.369985 7.455285 -0.951715
v -1.030015 7.144716 -0.488285
v -0.988233 7.186498 -0.498704
v -1.086498 7.088233 -0.941296
v -1.044716 7.130015 -0.951715
v -0.918198 7.507071 -0.430000
v -0.607071 7.818198 -0.430000
v -0.918198 7.507071 -0.490000
v -0.607071 7.818198 -0.490000
v -0.592929 7.181802 -0.430000
v -0.281802 7.492929 -0.430000
v -0.592929 7.181802 -0.490000
v -0.281802 7.492929 -0.490000
v -0.755284 7.469985 -0.488285
v -0.713502 7.511767 -0.498704
v -0.811767 7.413503 -0.941296
v -0.769985 7.455285 -0.951715
v -0.430015 7.144716 -0.488285
v -0.388233 7.186498 -0.498704
v -0.486498 7.088233 -0.941296
v -0.444716 7.130015 -0.951715
v -3.000000 -0.900000 -4.235000
v -3.000000 0.900000 -4.235000
v -2.975251 -0.900000 -4.224749
v -2.975251 0.900000 -4.224749
v -2.965000 -0.900000 -4.200000
v -2.965000 0.900000 -4.200000
v -2.975251 -0.900000 -4.175251
v -2.975251 0.900000 -4.175251
v -3.000000 -0.900000 -4.165000
v -3.000000 0.900000 -4.165000
v -3.024749 -0.900000 -4.175251
v -3.024749 0.900000 -4.175251
v -3.035000 -0.900000 -4.200000
v -3.035000 0.900000 -4.200000
v -3.024749 -0.900000 -4.224749
v -3.024749 0.900000 -4.224749
v -4.100000 -0.075000 -2.775000
v -4.100000 0.075000 -2.775000
v -4.100000 -0.075000 -3.625000
v -4.100000 0.075000 -3.625000
v -1.900000 -0.075000 -2.775000
v -1.900000 0.075000 -2.775000
v -1.900000 -0.075000 -3.625000
v -1.900000 0.075000 -3.625000
v 3.000000 -0.900000 -4.235000
v 3.000000 0.900000 -4.235000
v 3.024749 -0.900000 -4.224749
v 3.024749 0.900000 -4.224749
v 3.035000 -0.900000 -4.200000
v 3.035000 0.900000 -4.200000
v 3.024749 -0.900000 -4.175251
v 3.024749 0.900000 -4.175251
v 3.000000 -0.900000 -4.165000
v 3.000000 0.900000 -4.165000
v 2.975251 -0.900000 -4.175251
v 2.975251 0.900000 -4.175251
v 2.965000 -0.900000 -4.200000
v 2.965000 0.900000 -4.200000
v 2.975251 -0.900000 -4.224749
v 2.975251 0.900000 -4.224749
v 1.900000 -0.075000 -2.775000
v 1.900000 0.075000 -2.775000
v 1.900000 -0.075000 -3.625000
v 1.900000 0.075000 -3.625000
v 4.100000 -0.075000 -2.775000
v 4.100000 0.075000 -2.775000
v 4.100000 -0.075000 -3.625000
v 4.100000 0.075000 -3.625000
v -1.833758 -9.065042 -0.010000
v -1.664711 -8.702518 -0.010000
v -1.833758 -9.065042 -0.290000
v -1.664711 -8.702518 -0.290000
v -1.335289 -9.297482 -0.010000
v -1.166242 -8.934958 -0.010000
v -1.335289 -9.297482 -0.290000
v -1.166242 -8.934958 -0.290000
v -1.578844 -8.979785 -0.280000
v -1.566165 -8.952596 -0.280000
v -1.578844 -8.979785 -0.320000
v -1.566165 -8.952596 -0.320000
v -1.433835 -9.047404 -0.280000
v -1.421156 -9.020215 -0.280000
v -1.433835 -9.047404 -0.320000
v -1.421156 -9.020215 -0.320000
v 1.146967 -6.835876 -0.010000
v 0.864124 -6.553033 -0.010000
v 1.146967 -6.835876 -0.290000
v 0.864124 -6.553033 -0.290000
v 1.535876 -6.446967 -0.010000
v 1.253033 -6.164124 -0.010000
v 1.535876 -6.446967 -0.290000
v 1.253033 -6.164124 -0.290000
v 1.154038 -6.567175 -0.280000
v 1.132825 -6.545962 -0.280000
v 1.154038 -6.567175 -0.320000
v 1.132825 -6.545962 -0.320000
v 1.267175 -6.454038 -0.280000
v 1.245962 -6.432825 -0.280000
v 1.267175 -6.454038 -0.320000
v 1.245962 -6.432825 -0.320000
v 4.189295 1.638157 -0.010000
v 4.535705 1.838157 -0.010000
v 4.189295 1.638157 -0.290000
v 4.535705 1.838157 -0.290000
v 4.464295 1.161843 -0.010000
v 4.810705 1.361843 -0.010000
v 4.464295 1.161843 -0.290000
v 4.810705 1.361843 -0.290000
v 4.447010 1.561782 -0.280000
v 4.472991 1.576782 -0.280000
v 4.447010 1.561782 -0.320000
v 4.472991 1.576782 -0.320000
v 4.527009 1.423218 -0.280000
v 4.552990 1.438218 -0.280000
v 4.527009 1.423218 -0.320000
v 4.552990 1.438218 -0.320000
v -3.817393 4.877990 -0.010000
v -3.713866 5.264360 -0.010000
v -3.817393 4.877990 -0.290000
v -3.713866 5.264360 -0.290000
v -3.286134 4.735640 -0.010000
v -3.182607 5.122010 -0.010000
v -3.286134 4.735640 -0.290000
v -3.182607 5.122010 -0.290000
v -3.581156 5.006217 -0.280000
v -3.573392 5.035194 -0.280000
v -3.581156 5.006217 -0.320000
v -3.573392 5.035194 -0.320000
v -3.426608 4.964806 -0.280000
v -3.418844 4.993783 -0.280000
v -3.426608 4.964806 -0.320000
v -3.418844 4.993783 -0.320000
v 0.663387 -5.576156 -0.002000
v 1.621043 -2.945016 -0.002000
v 0.663387 -5.576156 -0.004000
v 1.621043 -2.945016 -0.004000
v 1.978957 -6.054984 -0.002000
v 2.936613 -3.423845 -0.002000
v 1.978957 -6.054984 -0.004000
v 2.936613 -3.423845 -0.004000
v 0.272389 -3.389209 -0.002000
v -0.141722 -1.843728 -0.002000
v 0.272389 -3.389209 -0.004000
v -0.141722 -1.843728 -0.004000
v 1.141722 -3.156272 -0.002000
v 0.727611 -1.610791 -0.002000
v 1.141722 -3.156272 -0.004000
v 0.727611 -1.610791 -0.004000
vn -1.0000 -0.0000 -0.0000
vn -0.0000 -0.0000 -1.0000
vn 1.0000 -0.0000 -0.0000
vn -0.0000 -0.0000 1.0000
vn -0.0000 -1.0000 -0.0000
vn -0.0000 1.0000 -0.0000
vn -0.6378 -0.1709 -0.7510
vn 0.6378 0.1709 -0.7510
vn 0.7221 -0.1439 -0.6766
vn -0.5534 -0.4856 -0.6766
vn 0.7898 -0.3963 -0.4683
vn -0.4858 -0.7381 -0.4683
vn 0.8273 -0.5363 -0.1671
vn -0.4483 -0.8781 -0.1671
vn 0.8273 -0.5363 0.1671
vn -0.4483 -0.8781 0.1671
vn 0.7898 -0.3963 0.4683
vn -0.4858 -0.7381 0.4683
vn 0.7221 -0.1439 0.6766
vn -0.5534 -0.4856 0.6766
vn 0.6378 0.1709 0.7510
vn -0.6378 -0.1709 0.7510
vn 0.5534 0.4856 0.6766
vn -0.7221 0.1439 0.6766
vn 0.4858 0.7381 0.4683
vn -0.7898 0.3963 0.4683
vn 0.4483 0.8781 0.1671
vn -0.8273 0.5363 0.1671
vn 0.4483 0.8781 -0.1671
vn -0.8273 0.5363 -0.1671
vn 0.4858 0.7381 -0.4683
vn -0.7898 0.3963 -0.4683
vn 0.5534 0.4856 -0.6766
vn -0.7221 0.1439 -0.6766
vn -0.9063 0.4226 -0.0000
vn 0.9063 -0.4226 -0.0000
vn -0.4226 -0.9063 -0.0000
vn 0.4226 0.9063 -0.0000
vn -0.8192 -0.0000 0.5736
vn -0.5736 -0.0000 -0.8191
vn 0.8192 -0.0000 -0.5736
vn 0.5736 -0.0000 0.8191
vn -0.5736 -0.0000 -0.8192
vn 0.5736 -0.0000 0.8192
vn -0.0000 -0.6100 -0.7924
vn -0.0000 0.6100 -0.7924
vn 0.6862 0.6100 -0.3962
vn 0.6862 -0.6100 -0.3962
vn 0.6862 0.6100 0.3962
vn 0.6862 -0.6100 0.3962
vn -0.0000 0.6100 0.7924
vn -0.0000 -0.6100 0.7924
vn -0.6862 0.6100 0.3962
vn -0.6862 -0.6100 0.3962
vn -0.6862 0.6100 -0.3962
vn -0.6862 -0.6100 -0.3962
vn -0.0000 -0.6303 -0.7764
vn -0.0000 0.6303 -0.7764
vn 0.5490 0.6303 -0.5490
vn 0.5490 -0.6303 -0.5490
vn 0.7764 0.6303 -0.0000
vn 0.7764 -0.6303 -0.0000
vn 0.5490 0.6303 0.5490
vn 0.5490 -0.6303 0.5490
vn -0.0000 0.6303 0.7764
vn -0.0000 -0.6303 0.7764
vn -0.5490 0.6303 0.5490
vn -0.5490 -0.6303 0.5490
vn -0.7764 0.6303 -0.0000
vn -0.7764 -0.6303 -0.0000
vn -0.5490 0.6303 -0.5490
vn -0.5490 -0.6303 -0.5490
vn -0.0000 -0.6437 -0.7653
vn -0.0000 0.6437 -0.7653
vn 0.4498 0.6437 -0.6191
vn 0.4498 -0.6437 -0.6191
vn 0.7278 0.6437 -0.2365
vn 0.7278 -0.6437 -0.2365
vn 0.7278 0.6437 0.2365
vn 0.7278 -0.6437 0.2365
vn 0.4498 0.6437 0.6191
vn 0.4498 -0.6437 0.6191
vn -0.0000 0.6437 0.7653
vn -0.0000 -0.6437 0.7653
vn -0.4498 0.6437 0.6191
vn -0.4498 -0.6437 0.6191
vn -0.7278 0.6437 0.2365
vn -0.7278 -0.6437 0.2365
vn -0.7278 0.6437 -0.2365
vn -0.7278 -0.6437 -0.2365
vn -0.4498 0.6437 -0.6191
vn -0.4498 -0.6437 -0.6191
vn -0.0000 -0.1736 -0.9848
vn -0.0000 0.1736 0.9848
vn -0.0000 -0.9848 0.1736
vn -0.0000 0.9848 -0.1736
vn -0.7071 0.7071 -0.0000
vn 0.7071 -0.7071 -0.0000
vn -0.7071 -0.7071 -0.0000
vn 0.7071 0.7071 -0.0000
vn -0.1228 -0.1228 -0.9848
vn 0.1228 0.1228 0.9848
vn -0.6964 -0.6964 0.1736
vn 0.6964 0.6964 -0.1736
vn -0.5000 0.8660 -0.0000
vn 0.5000 -0.8660 -0.0000
vn -0.8660 -0.5000 -0.0000
vn 0.8660 0.5000 -0.0000
vn -0.9659 0.2588 -0.0000
vn 0.9659 -0.2588 -0.0000
vn -0.2588 -0.9659 -0.0000
vn 0.2588 0.9659 -0.0000
vn -0.9397 0.3420 -0.0000
vn 0.9397 -0.3420 -0.0000
vn -0.3420 -0.9397 -0.0000
vn 0.3420 0.9397 -0.0000
vn -0.9659 -0.2588 -0.0000
vn 0.9659 0.2588 -0.0000
vn 0.2588 -0.9659 -0.0000
vn -0.2588 0.9659 -0.0000
vt 0.375000 0.000000
vt 0.625000 0.000000
vt 0.625000 0.250000
vt 0.375000 0.250000
vt 0.625000 0.500000
vt 0.375000 0.500000
vt 0.625000 0.750000
vt 0.375000 0.750000
vt 0.625000 1.000000
vt 0.375000 1.000000
vt 0.125000 0.500000
vt 0.125000 0.750000
vt 0.875000 0.500000
vt 0.875000 0.750000
vt 1.000000 0.500000
vt 1.000000 1.000000
vt 0.928571 1.000000
vt 0.928571 0.500000
vt 0.857143 1.000000
vt 0.857143 0.500000
vt 0.785714 1.000000
vt 0.785714 0.500000
vt 0.714286 1.000000
vt 0.714286 0.500000
vt 0.642857 1.000000
vt 0.642857 0.500000
vt 0.571428 1.000000
vt 0.571428 0.500000
vt 0.500000 1.000000
vt 0.500000 0.500000
vt 0.428571 1.000000
vt 0.428571 0.500000
vt 0.357143 1.000000
vt 0.357143 0.500000
vt 0.285714 1.000000
vt 0.285714 0.500000
vt 0.214286 1.000000
vt 0.214286 0.500000
vt 0.142857 1.000000
vt 0.142857 0.500000
vt 0.354132 0.466233
vt 0.250000 0.490000
vt 0.145868 0.466233
vt 0.062360 0.399638
vt 0.016017 0.303405
vt 0.016017 0.196595
vt 0.062360 0.100362
vt 0.145868 0.033767
vt 0.250000 0.010000
vt 0.354132 0.033767
vt 0.437640 0.100362
vt 0.483983 0.196595
vt 0.483983 0.303405
vt 0.437640 0.399638
vt 0.071428 1.000000
vt 0.071428 0.500000
vt -0.000000 1.000000
vt -0.000000 0.500000
vt 0.750000 0.490000
vt 0.854132 0.466233
vt 0.937640 0.399638
vt 0.983983 0.303405
vt 0.983983 0.196595
vt 0.937640 0.100362
vt 0.854132 0.033767
vt 0.750000 0.010000
vt 0.645868 0.033767
vt 0.562360 0.100362
vt 0.516017 0.196595
vt 0.516017 0.303405
vt 0.562360 0.399638
vt 0.645868 0.466233
vt 0.833333 1.000000
vt 0.833333 0.500000
vt 0.666667 1.000000
vt 0.666667 0.500000
vt 0.500000 1.000000
vt 0.500000 0.500000
vt 0.333333 1.000000
vt 0.333333 0.500000
vt 0.457846 0.370000
vt 0.042154 0.370000
vt 0.042154 0.130000
vt 0.250000 0.010000
vt 0.457846 0.130000
vt 0.166667 1.000000
vt 0.166667 0.500000
vt -0.000000 1.000000
vt -0.000000 0.500000
vt 0.957846 0.370000
vt 0.957846 0.130000
vt 0.750000 0.010000
vt 0.542154 0.130000
vt 0.542154 0.370000
vt 0.875000 1.000000
vt 0.750000 1.000000
vt 0.750000 0.500000
vt 0.500000 1.000000
vt 0.500000 0.500000
vt 0.250000 1.000000
vt 0.250000 0.500000
vt 0.419706 0.419706
vt 0.080294 0.419706
vt 0.010000 0.250000
vt 0.080294 0.080294
vt 0.419706 0.080294
vt 0.490000 0.250000
vt 0.125000 1.000000
vt 0.000000 1.000000
vt 0.000000 0.500000
vt 0.919706 0.419706
vt 0.990000 0.250000
vt 0.919706 0.080294
vt 0.580294 0.080294
vt 0.510000 0.250000
vt 0.580294 0.419706
vt 0.250000 0.490000
vt 0.010000 0.250000
vt 0.250000 0.010000
vt 0.490000 0.250000
vt 0.750000 0.490000
vt 0.750000 0.010000
vt 0.080294 0.419706
vt 0.080294 0.080294
vt 0.419706 0.080294
vt 0.919706 0.080294
vt 0.580294 0.080294
vt 0.900000 1.000000
vt 0.900000 0.500000
vt 0.800000 1.000000
vt 0.800000 0.500000
vt 0.700000 1.000000
vt 0.700000 0.500000
vt 0.600000 1.000000
vt 0.600000 0.500000
vt 0.500000 1.000000
vt 0.500000 0.500000
vt 0.400000 1.000000
vt 0.400000 0.500000
vt 0.300000 1.000000
vt 0.300000 0.500000
vt 0.200000 1.000000
vt 0.200000 0.500000
vt 0.391068 0.444164
vt 0.108932 0.444164
vt 0.021746 0.324164
vt 0.021746 0.175836
vt 0.108932 0.055836
vt 0.391068 0.055836
vt 0.478254 0.175836
vt 0.478254 0.324164
vt 0.100000 1.000000
vt 0.100000 0.500000
vt -0.000000 1.000000
vt -0.000000 0.500000
vt 0.891068 0.444164
vt 0.978254 0.324164
vt 0.978254 0.175836
vt 0.891068 0.055836
vt 0.608932 0.055836
vt 0.521746 0.175836
vt 0.521746 0.324164
vt 0.608932 0.444164
s 0
usemtl Mat_AirportFloorTiles
f 1/1/1 2/2/1 4/3/1 3/4/1
f 3/4/2 4/3/2 8/5/2 7/6/2
f 7/6/3 8/5/3 6/7/3 5/8/3
f 5/8/4 6/7/4 2/9/4 1/10/4
f 3/11/5 7/6/5 5/8/5 1/12/5
f 8/5/6 4/13/6 2/14/6 6/7/6
usemtl Mat_MonitorScreen
f 9/1/1 10/2/1 12/3/1 11/4/1
f 11/4/2 12/3/2 16/5/2 15/6/2
f 15/6/3 16/5/3 14/7/3 13/8/3
f 13/8/4 14/7/4 10/9/4 9/10/4
f 11/11/5 15/6/5 13/8/5 9/12/5
f 16/5/6 12/13/6 10/14/6 14/7/6
s 1
f 717/15/57 718/16/58 720/95/59 719/13/60
f 719/13/60 720/95/59 722/96/61 721/97/62
f 721/97/62 722/96/61 724/9/63 723/5/64
f 723/5/64 724/9/63 726/98/65 725/99/66
f 725/99/66 726/98/65 728/10/67 727/6/68
f 727/6/68 728/10/67 730/100/69 729/101/70
f 720/102/59 718/117/58 732/103/71 730/118/69 728/105/67 726/119/65 724/106/63 722/120/61
f 729/101/70 730/100/69 732/108/71 731/11/72
f 731/11/72 732/108/71 718/109/58 717/110/57
f 717/121/57 719/111/60 721/112/62 723/113/64 725/122/66 727/114/68 729/115/70 731/116/72
f 757/15/57 758/16/58 760/95/59 759/13/60
f 759/13/60 760/95/59 762/96/61 761/97/62
f 761/97/62 762/96/61 764/9/63 763/5/64
f 763/5/64 764/9/63 766/98/65 765/99/66
f 765/99/66 766/98/65 768/10/67 767/6/68
f 767/6/68 768/10/67 770/100/69 769/101/70
f 760/102/59 758/117/58 772/103/71 770/118/69 768/105/67 766/119/65 764/106/63 762/120/61
f 769/101/70 770/100/69 772/108/71 771/11/72
f 771/11/72 772/108/71 758/109/58 757/110/57
f 757/121/57 759/111/60 761/112/62 763/113/64 765/122/66 767/114/68 769/115/70 771/116/72
f 797/15/57 798/16/58 800/95/59 799/13/60
f 799/13/60 800/95/59 802/96/61 801/97/62
f 801/97/62 802/96/61 804/9/63 803/5/64
f 803/5/64 804/9/63 806/98/65 805/99/66
f 805/99/66 806/98/65 808/10/67 807/6/68
f 807/6/68 808/10/67 810/100/69 809/101/70
f 800/102/59 798/117/58 812/103/71 810/118/69 808/105/67 806/119/65 804/106/63 802/120/61
f 809/101/70 810/100/69 812/108/71 811/11/72
f 811/11/72 812/108/71 798/109/58 797/110/57
f 797/121/57 799/111/60 801/112/62 803/113/64 805/122/66 807/114/68 809/115/70 811/116/72
f 837/15/57 838/16/58 840/95/59 839/13/60
f 839/13/60 840/95/59 842/96/61 841/97/62
f 841/97/62 842/96/61 844/9/63 843/5/64
f 843/5/64 844/9/63 846/98/65 845/99/66
f 845/99/66 846/98/65 848/10/67 847/6/68
f 847/6/68 848/10/67 850/100/69 849/101/70
f 840/102/59 838/117/58 852/103/71 850/118/69 848/105/67 846/119/65 844/106/63 842/120/61
f 849/101/70 850/100/69 852/108/71 851/11/72
f 851/11/72 852/108/71 838/109/58 837/110/57
f 837/121/57 839/111/60 841/112/62 843/113/64 845/122/66 847/114/68 849/115/70 851/116/72
s 0
f 893/1/1 894/2/1 896/3/1 895/4/1
f 895/4/2 896/3/2 900/5/2 899/6/2
f 899/6/3 900/5/3 898/7/3 897/8/3
f 897/8/4 898/7/4 894/9/4 893/10/4
f 895/11/5 899/6/5 897/8/5 893/12/5
f 900/5/6 896/13/6 894/14/6 898/7/6
f 933/1/1 934/2/1 936/3/1 935/4/1
f 935/4/2 936/3/2 940/5/2 939/6/2
f 939/6/3 940/5/3 938/7/3 937/8/3
f 937/8/4 938/7/4 934/9/4 933/10/4
f 935/11/5 939/6/5 937/8/5 933/12/5
f 940/5/6 936/13/6 934/14/6 938/7/6
f 1049/1/1 1050/2/1 1052/3/1 1051/4/1
f 1051/4/2 1052/3/2 1056/5/2 1055/6/2
f 1055/6/3 1056/5/3 1054/7/3 1053/8/3
f 1053/8/4 1054/7/4 1050/9/4 1049/10/4
f 1051/11/5 1055/6/5 1053/8/5 1049/12/5
f 1056/5/6 1052/13/6 1050/14/6 1054/7/6
f 1353/1/1 1354/2/1 1356/3/1 1355/4/1
f 1355/4/2 1356/3/2 1360/5/2 1359/6/2
f 1359/6/3 1360/5/3 1358/7/3 1357/8/3
f 1357/8/4 1358/7/4 1354/9/4 1353/10/4
f 1355/11/5 1359/6/5 1357/8/5 1353/12/5
f 1360/5/6 1356/13/6 1354/14/6 1358/7/6
f 1377/1/1 1378/2/1 1380/3/1 1379/4/1
f 1379/4/2 1380/3/2 1384/5/2 1383/6/2
f 1383/6/3 1384/5/3 1382/7/3 1381/8/3
f 1381/8/4 1382/7/4 1378/9/4 1377/10/4
f 1379/11/5 1383/6/5 1381/8/5 1377/12/5
f 1384/5/6 1380/13/6 1378/14/6 1382/7/6
usemtl Mat_CurtainWallGlass
f 17/1/1 18/2/1 20/3/1 19/4/1
f 19/4/2 20/3/2 24/5/2 23/6/2
f 23/6/3 24/5/3 22/7/3 21/8/3
f 21/8/4 22/7/4 18/9/4 17/10/4
f 19/11/5 23/6/5 21/8/5 17/12/5
f 24/5/6 20/13/6 18/14/6 22/7/6
usemtl Mat_SteelMullions
f 25/1/1 26/2/1 28/3/1 27/4/1
f 27/4/2 28/3/2 32/5/2 31/6/2
f 31/6/3 32/5/3 30/7/3 29/8/3
f 29/8/4 30/7/4 26/9/4 25/10/4
f 27/11/5 31/6/5 29/8/5 25/12/5
f 32/5/6 28/13/6 26/14/6 30/7/6
f 33/1/1 34/2/1 36/3/1 35/4/1
f 35/4/2 36/3/2 40/5/2 39/6/2
f 39/6/3 40/5/3 38/7/3 37/8/3
f 37/8/4 38/7/4 34/9/4 33/10/4
f 35/11/5 39/6/5 37/8/5 33/12/5
f 40/5/6 36/13/6 34/14/6 38/7/6
f 41/1/1 42/2/1 44/3/1 43/4/1
f 43/4/2 44/3/2 48/5/2 47/6/2
f 47/6/3 48/5/3 46/7/3 45/8/3
f 45/8/4 46/7/4 42/9/4 41/10/4
f 43/11/5 47/6/5 45/8/5 41/12/5
f 48/5/6 44/13/6 42/14/6 46/7/6
f 49/1/1 50/2/1 52/3/1 51/4/1
f 51/4/2 52/3/2 56/5/2 55/6/2
f 55/6/3 56/5/3 54/7/3 53/8/3
f 53/8/4 54/7/4 50/9/4 49/10/4
f 51/11/5 55/6/5 53/8/5 49/12/5
f 56/5/6 52/13/6 50/14/6 54/7/6
f 57/1/1 58/2/1 60/3/1 59/4/1
f 59/4/2 60/3/2 64/5/2 63/6/2
f 63/6/3 64/5/3 62/7/3 61/8/3
f 61/8/4 62/7/4 58/9/4 57/10/4
f 59/11/5 63/6/5 61/8/5 57/12/5
f 64/5/6 60/13/6 58/14/6 62/7/6
f 65/1/1 66/2/1 68/3/1 67/4/1
f 67/4/2 68/3/2 72/5/2 71/6/2
f 71/6/3 72/5/3 70/7/3 69/8/3
f 69/8/4 70/7/4 66/9/4 65/10/4
f 67/11/5 71/6/5 69/8/5 65/12/5
f 72/5/6 68/13/6 66/14/6 70/7/6
f 73/1/1 74/2/1 76/3/1 75/4/1
f 75/4/2 76/3/2 80/5/2 79/6/2
f 79/6/3 80/5/3 78/7/3 77/8/3
f 77/8/4 78/7/4 74/9/4 73/10/4
f 75/11/5 79/6/5 77/8/5 73/12/5
f 80/5/6 76/13/6 74/14/6 78/7/6
f 81/1/1 82/2/1 84/3/1 83/4/1
f 83/4/2 84/3/2 88/5/2 87/6/2
f 87/6/3 88/5/3 86/7/3 85/8/3
f 85/8/4 86/7/4 82/9/4 81/10/4
f 83/11/5 87/6/5 85/8/5 81/12/5
f 88/5/6 84/13/6 82/14/6 86/7/6
f 89/1/1 90/2/1 92/3/1 91/4/1
f 91/4/2 92/3/2 96/5/2 95/6/2
f 95/6/3 96/5/3 94/7/3 93/8/3
f 93/8/4 94/7/4 90/9/4 89/10/4
f 91/11/5 95/6/5 93/8/5 89/12/5
f 96/5/6 92/13/6 90/14/6 94/7/6
f 97/1/1 98/2/1 100/3/1 99/4/1
f 99/4/2 100/3/2 104/5/2 103/6/2
f 103/6/3 104/5/3 102/7/3 101/8/3
f 101/8/4 102/7/4 98/9/4 97/10/4
f 99/11/5 103/6/5 101/8/5 97/12/5
f 104/5/6 100/13/6 98/14/6 102/7/6
f 105/1/1 106/2/1 108/3/1 107/4/1
f 107/4/2 108/3/2 112/5/2 111/6/2
f 111/6/3 112/5/3 110/7/3 109/8/3
f 109/8/4 110/7/4 106/9/4 105/10/4
f 107/11/5 111/6/5 109/8/5 105/12/5
f 112/5/6 108/13/6 106/14/6 110/7/6
f 113/1/1 114/2/1 116/3/1 115/4/1
f 115/4/2 116/3/2 120/5/2 119/6/2
f 119/6/3 120/5/3 118/7/3 117/8/3
f 117/8/4 118/7/4 114/9/4 113/10/4
f 115/11/5 119/6/5 117/8/5 113/12/5
f 120/5/6 116/13/6 114/14/6 118/7/6
f 121/1/1 122/2/1 124/3/1 123/4/1
f 123/4/2 124/3/2 128/5/2 127/6/2
f 127/6/3 128/5/3 126/7/3 125/8/3
f 125/8/4 126/7/4 122/9/4 121/10/4
f 123/11/5 127/6/5 125/8/5 121/12/5
f 128/5/6 124/13/6 122/14/6 126/7/6
s 1
f 137/15/7 138/16/8 140/17/9 139/18/10
f 139/18/10 140/17/9 142/19/11 141/20/12
f 141/20/12 142/19/11 144/21/13 143/22/14
f 143/22/14 144/21/13 146/23/15 145/24/16
f 145/24/16 146/23/15 148/25/17 147/26/18
f 147/26/18 148/25/17 150/27/19 149/28/20
f 149/28/20 150/27/19 152/29/21 151/30/22
f 151/30/22 152/29/21 154/31/23 153/32/24
f 153/32/24 154/31/23 156/33/25 155/34/26
f 155/34/26 156/33/25 158/35/27 157/36/28
f 157/36/28 158/35/27 160/37/29 159/38/30
f 159/38/30 160/37/29 162/39/31 161/40/32
f 140/41/9 138/42/8 164/43/33 162/44/31 160/45/29 158/46/27 156/47/25 154/48/23 152/49/21 150/50/19 148/51/17 146/52/15 144/53/13 142/54/11
f 161/40/32 162/39/31 164/55/33 163/56/34
f 163/56/34 164/55/33 138/57/8 137/58/7
f 137/59/7 139/60/10 141/61/12 143/62/14 145/63/16 147/64/18 149/65/20 151/66/22 153/67/24 155/68/26 157/69/28 159/70/30 161/71/32 163/72/34
s 0
f 165/1/35 166/2/35 168/3/35 167/4/35
f 167/4/2 168/3/2 172/5/2 171/6/2
f 171/6/36 172/5/36 170/7/36 169/8/36
f 169/8/4 170/7/4 166/9/4 165/10/4
f 167/11/37 171/6/37 169/8/37 165/12/37
f 172/5/38 168/13/38 166/14/38 170/7/38
s 1
f 461/15/45 462/16/46 464/73/47 463/74/48
f 463/74/48 464/73/47 466/75/49 465/76/50
f 465/76/50 466/75/49 468/77/51 467/78/52
f 467/78/52 468/77/51 470/79/53 469/80/54
f 464/81/47 462/42/46 472/82/55 470/83/53 468/84/51 466/85/49
f 469/80/54 470/79/53 472/86/55 471/87/56
f 471/87/56 472/86/55 462/88/46 461/89/45
f 461/59/45 463/90/48 465/91/50 467/92/52 469/93/54 471/94/56
f 473/15/45 474/16/46 476/73/47 475/74/48
f 475/74/48 476/73/47 478/75/49 477/76/50
f 477/76/50 478/75/49 480/77/51 479/78/52
f 479/78/52 480/77/51 482/79/53 481/80/54
f 476/81/47 474/42/46 484/82/55 482/83/53 480/84/51 478/85/49
f 481/80/54 482/79/53 484/86/55 483/87/56
f 483/87/56 484/86/55 474/88/46 473/89/45
f 473/59/45 475/90/48 477/91/50 479/92/52 481/93/54 483/94/56
s 0
f 485/1/1 486/2/1 488/3/1 487/4/1
f 487/4/2 488/3/2 492/5/2 491/6/2
f 491/6/3 492/5/3 490/7/3 489/8/3
f 489/8/4 490/7/4 486/9/4 485/10/4
f 487/11/5 491/6/5 489/8/5 485/12/5
f 492/5/6 488/13/6 486/14/6 490/7/6
s 1
f 501/15/45 502/16/46 504/73/47 503/74/48
f 503/74/48 504/73/47 506/75/49 505/76/50
f 505/76/50 506/75/49 508/77/51 507/78/52
f 507/78/52 508/77/51 510/79/53 509/80/54
f 504/81/47 502/42/46 512/82/55 510/83/53 508/84/51 506/85/49
f 509/80/54 510/79/53 512/86/55 511/87/56
f 511/87/56 512/86/55 502/88/46 501/89/45
f 501/59/45 503/90/48 505/91/50 507/92/52 509/93/54 511/94/56
f 513/15/45 514/16/46 516/73/47 515/74/48
f 515/74/48 516/73/47 518/75/49 517/76/50
f 517/76/50 518/75/49 520/77/51 519/78/52
f 519/78/52 520/77/51 522/79/53 521/80/54
f 516/81/47 514/42/46 524/82/55 522/83/53 520/84/51 518/85/49
f 521/80/54 522/79/53 524/86/55 523/87/56
f 523/87/56 524/86/55 514/88/46 513/89/45
f 513/59/45 515/90/48 517/91/50 519/92/52 521/93/54 523/94/56
s 0
f 525/1/1 526/2/1 528/3/1 527/4/1
f 527/4/2 528/3/2 532/5/2 531/6/2
f 531/6/3 532/5/3 530/7/3 529/8/3
f 529/8/4 530/7/4 526/9/4 525/10/4
f 527/11/5 531/6/5 529/8/5 525/12/5
f 532/5/6 528/13/6 526/14/6 530/7/6
s 1
f 541/15/45 542/16/46 544/73/47 543/74/48
f 543/74/48 544/73/47 546/75/49 545/76/50
f 545/76/50 546/75/49 548/77/51 547/78/52
f 547/78/52 548/77/51 550/79/53 549/80/54
f 544/81/47 542/42/46 552/82/55 550/83/53 548/84/51 546/85/49
f 549/80/54 550/79/53 552/86/55 551/87/56
f 551/87/56 552/86/55 542/88/46 541/89/45
f 541/59/45 543/90/48 545/91/50 547/92/52 549/93/54 551/94/56
f 553/15/45 554/16/46 556/73/47 555/74/48
f 555/74/48 556/73/47 558/75/49 557/76/50
f 557/76/50 558/75/49 560/77/51 559/78/52
f 559/78/52 560/77/51 562/79/53 561/80/54
f 556/81/47 554/42/46 564/82/55 562/83/53 560/84/51 558/85/49
f 561/80/54 562/79/53 564/86/55 563/87/56
f 563/87/56 564/86/55 554/88/46 553/89/45
f 553/59/45 555/90/48 557/91/50 559/92/52 561/93/54 563/94/56
s 0
f 565/1/1 566/2/1 568/3/1 567/4/1
f 567/4/2 568/3/2 572/5/2 571/6/2
f 571/6/3 572/5/3 570/7/3 569/8/3
f 569/8/4 570/7/4 566/9/4 565/10/4
f 567/11/5 571/6/5 569/8/5 565/12/5
f 572/5/6 568/13/6 566/14/6 570/7/6
s 1
f 581/15/45 582/16/46 584/73/47 583/74/48
f 583/74/48 584/73/47 586/75/49 585/76/50
f 585/76/50 586/75/49 588/77/51 587/78/52
f 587/78/52 588/77/51 590/79/53 589/80/54
f 584/81/47 582/42/46 592/82/55 590/83/53 588/84/51 586/85/49
f 589/80/54 590/79/53 592/86/55 591/87/56
f 591/87/56 592/86/55 582/88/46 581/89/45
f 581/59/45 583/90/48 585/91/50 587/92/52 589/93/54 591/94/56
f 593/15/45 594/16/46 596/73/47 595/74/48
f 595/74/48 596/73/47 598/75/49 597/76/50
f 597/76/50 598/75/49 600/77/51 599/78/52
f 599/78/52 600/77/51 602/79/53 601/80/54
f 596/81/47 594/42/46 604/82/55 602/83/53 600/84/51 598/85/49
f 601/80/54 602/79/53 604/86/55 603/87/56
f 603/87/56 604/86/55 594/88/46 593/89/45
f 593/59/45 595/90/48 597/91/50 599/92/52 601/93/54 603/94/56
s 0
f 605/1/1 606/2/1 608/3/1 607/4/1
f 607/4/2 608/3/2 612/5/2 611/6/2
f 611/6/3 612/5/3 610/7/3 609/8/3
f 609/8/4 610/7/4 606/9/4 605/10/4
f 607/11/5 611/6/5 609/8/5 605/12/5
f 612/5/6 608/13/6 606/14/6 610/7/6
s 1
f 621/15/45 622/16/46 624/73/47 623/74/48
f 623/74/48 624/73/47 626/75/49 625/76/50
f 625/76/50 626/75/49 628/77/51 627/78/52
f 627/78/52 628/77/51 630/79/53 629/80/54
f 624/81/47 622/42/46 632/82/55 630/83/53 628/84/51 626/85/49
f 629/80/54 630/79/53 632/86/55 631/87/56
f 631/87/56 632/86/55 622/88/46 621/89/45
f 621/59/45 623/90/48 625/91/50 627/92/52 629/93/54 631/94/56
f 633/15/45 634/16/46 636/73/47 635/74/48
f 635/74/48 636/73/47 638/75/49 637/76/50
f 637/76/50 638/75/49 640/77/51 639/78/52
f 639/78/52 640/77/51 642/79/53 641/80/54
f 636/81/47 634/42/46 644/82/55 642/83/53 640/84/51 638/85/49
f 641/80/54 642/79/53 644/86/55 643/87/56
f 643/87/56 644/86/55 634/88/46 633/89/45
f 633/59/45 635/90/48 637/91/50 639/92/52 641/93/54 643/94/56
s 0
f 645/1/1 646/2/1 648/3/1 647/4/1
f 647/4/2 648/3/2 652/5/2 651/6/2
f 651/6/3 652/5/3 650/7/3 649/8/3
f 649/8/4 650/7/4 646/9/4 645/10/4
f 647/11/5 651/6/5 649/8/5 645/12/5
f 652/5/6 648/13/6 646/14/6 650/7/6
s 1
f 661/15/45 662/16/46 664/73/47 663/74/48
f 663/74/48 664/73/47 666/75/49 665/76/50
f 665/76/50 666/75/49 668/77/51 667/78/52
f 667/78/52 668/77/51 670/79/53 669/80/54
f 664/81/47 662/42/46 672/82/55 670/83/53 668/84/51 666/85/49
f 669/80/54 670/79/53 672/86/55 671/87/56
f 671/87/56 672/86/55 662/88/46 661/89/45
f 661/59/45 663/90/48 665/91/50 667/92/52 669/93/54 671/94/56
f 673/15/45 674/16/46 676/73/47 675/74/48
f 675/74/48 676/73/47 678/75/49 677/76/50
f 677/76/50 678/75/49 680/77/51 679/78/52
f 679/78/52 680/77/51 682/79/53 681/80/54
f 676/81/47 674/42/46 684/82/55 682/83/53 680/84/51 678/85/49
f 681/80/54 682/79/53 684/86/55 683/87/56
f 683/87/56 684/86/55 674/88/46 673/89/45
f 673/59/45 675/90/48 677/91/50 679/92/52 681/93/54 683/94/56
s 0
f 685/1/1 686/2/1 688/3/1 687/4/1
f 687/4/2 688/3/2 692/5/2 691/6/2
f 691/6/3 692/5/3 690/7/3 689/8/3
f 689/8/4 690/7/4 686/9/4 685/10/4
f 687/11/5 691/6/5 689/8/5 685/12/5
f 692/5/6 688/13/6 686/14/6 690/7/6
f 877/1/1 878/2/1 880/3/1 879/4/1
f 879/4/2 880/3/2 884/5/2 883/6/2
f 883/6/3 884/5/3 882/7/3 881/8/3
f 881/8/4 882/7/4 878/9/4 877/10/4
f 879/11/5 883/6/5 881/8/5 877/12/5
f 884/5/6 880/13/6 878/14/6 882/7/6
f 885/1/1 886/2/1 888/3/1 887/4/1
f 887/4/2 888/3/2 892/5/2 891/6/2
f 891/6/3 892/5/3 890/7/3 889/8/3
f 889/8/4 890/7/4 886/9/4 885/10/4
f 887/11/5 891/6/5 889/8/5 885/12/5
f 892/5/6 888/13/6 886/14/6 890/7/6
f 917/1/1 918/2/1 920/3/1 919/4/1
f 919/4/2 920/3/2 924/5/2 923/6/2
f 923/6/3 924/5/3 922/7/3 921/8/3
f 921/8/4 922/7/4 918/9/4 917/10/4
f 919/11/5 923/6/5 921/8/5 917/12/5
f 924/5/6 920/13/6 918/14/6 922/7/6
f 925/1/1 926/2/1 928/3/1 927/4/1
f 927/4/2 928/3/2 932/5/2 931/6/2
f 931/6/3 932/5/3 930/7/3 929/8/3
f 929/8/4 930/7/4 926/9/4 925/10/4
f 927/11/5 931/6/5 929/8/5 925/12/5
f 932/5/6 928/13/6 926/14/6 930/7/6
s 1
f 941/15/57 942/16/58 944/95/59 943/13/60
f 943/13/60 944/95/59 946/96/61 945/97/62
f 945/97/62 946/96/61 948/9/63 947/5/64
f 947/5/64 948/9/63 950/98/65 949/99/66
f 949/99/66 950/98/65 952/10/67 951/6/68
f 951/6/68 952/10/67 954/100/69 953/101/70
f 944/102/59 942/42/58 956/123/71 954/104/69 952/124/67 950/84/65 948/125/63 946/107/61
f 953/101/70 954/100/69 956/108/71 955/11/72
f 955/11/72 956/108/71 942/109/58 941/110/57
f 941/59/57 943/111/60 945/112/62 947/126/64 949/92/66 951/127/68 953/115/70 955/116/72
f 957/15/73 958/16/74 960/128/75 959/129/76
f 959/129/76 960/128/75 962/130/77 961/131/78
f 961/131/78 962/130/77 964/132/79 963/133/80
f 963/133/80 964/132/79 966/134/81 965/135/82
f 965/135/82 966/134/81 968/136/83 967/137/84
f 967/137/84 968/136/83 970/138/85 969/139/86
f 969/139/86 970/138/85 972/140/87 971/141/88
f 971/141/88 972/140/87 974/142/89 973/143/90
f 960/144/75 958/42/74 976/145/91 974/146/89 972/147/87 970/148/85 968/84/83 966/149/81 964/150/79 962/151/77
f 973/143/90 974/142/89 976/152/91 975/153/92
f 975/153/92 976/152/91 958/154/74 957/155/73
f 957/59/73 959/156/76 961/157/78 963/158/80 965/159/82 967/92/84 969/160/86 971/161/88 973/162/90 975/163/92
f 977/15/57 978/16/58 980/95/59 979/13/60
f 979/13/60 980/95/59 982/96/61 981/97/62
f 981/97/62 982/96/61 984/9/63 983/5/64
f 983/5/64 984/9/63 986/98/65 985/99/66
f 985/99/66 986/98/65 988/10/67 987/6/68
f 987/6/68 988/10/67 990/100/69 989/101/70
f 980/102/59 978/42/58 992/123/71 990/104/69 988/124/67 986/84/65 984/125/63 982/107/61
f 989/101/70 990/100/69 992/108/71 991/11/72
f 991/11/72 992/108/71 978/109/58 977/110/57
f 977/59/57 979/111/60 981/112/62 983/126/64 985/92/66 987/127/68 989/115/70 991/116/72
f 993/15/73 994/16/74 996/128/75 995/129/76
f 995/129/76 996/128/75 998/130/77 997/131/78
f 997/131/78 998/130/77 1000/132/79 999/133/80
f 999/133/80 1000/132/79 1002/134/81 1001/135/82
f 1001/135/82 1002/134/81 1004/136/83 1003/137/84
f 1003/137/84 1004/136/83 1006/138/85 1005/139/86
f 1005/139/86 1006/138/85 1008/140/87 1007/141/88
f 1007/141/88 1008/140/87 1010/142/89 1009/143/90
f 996/144/75 994/42/74 1012/145/91 1010/146/89 1008/147/87 1006/148/85 1004/84/83 1002/149/81 1000/150/79 998/151/77
f 1009/143/90 1010/142/89 1012/152/91 1011/153/92
f 1011/153/92 1012/152/91 994/154/74 993/155/73
f 993/59/73 995/156/76 997/157/78 999/158/80 1001/159/82 1003/92/84 1005/160/86 1007/161/88 1009/162/90 1011/163/92
f 1013/15/57 1014/16/58 1016/95/59 1015/13/60
f 1015/13/60 1016/95/59 1018/96/61 1017/97/62
f 1017/97/62 1018/96/61 1020/9/63 1019/5/64
f 1019/5/64 1020/9/63 1022/98/65 1021/99/66
f 1021/99/66 1022/98/65 1024/10/67 1023/6/68
f 1023/6/68 1024/10/67 1026/100/69 1025/101/70
f 1016/102/59 1014/42/58 1028/123/71 1026/104/69 1024/124/67 1022/84/65 1020/125/63 1018/107/61
f 1025/101/70 1026/100/69 1028/108/71 1027/11/72
f 1027/11/72 1028/108/71 1014/109/58 1013/110/57
f 1013/59/57 1015/111/60 1017/112/62 1019/126/64 1021/92/66 1023/127/68 1025/115/70 1027/116/72
f 1029/15/73 1030/16/74 1032/128/75 1031/129/76
f 1031/129/76 1032/128/75 1034/130/77 1033/131/78
f 1033/131/78 1034/130/77 1036/132/79 1035/133/80
f 1035/133/80 1036/132/79 1038/134/81 1037/135/82
f 1037/135/82 1038/134/81 1040/136/83 1039/137/84
f 1039/137/84 1040/136/83 1042/138/85 1041/139/86
f 1041/139/86 1042/138/85 1044/140/87 1043/141/88
f 1043/141/88 1044/140/87 1046/142/89 1045/143/90
f 1032/144/75 1030/42/74 1048/145/91 1046/146/89 1044/147/87 1042/148/85 1040/84/83 1038/149/81 1036/150/79 1034/151/77
f 1045/143/90 1046/142/89 1048/152/91 1047/153/92
f 1047/153/92 1048/152/91 1030/154/74 1029/155/73
f 1029/59/73 1031/156/76 1033/157/78 1035/158/80 1037/159/82 1039/92/84 1041/160/86 1043/161/88 1045/162/90 1047/163/92
s 0
f 1097/1/1 1098/2/1 1100/3/1 1099/4/1
f 1099/4/2 1100/3/2 1104/5/2 1103/6/2
f 1103/6/3 1104/5/3 1102/7/3 1101/8/3
f 1101/8/4 1102/7/4 1098/9/4 1097/10/4
f 1099/11/5 1103/6/5 1101/8/5 1097/12/5
f 1104/5/6 1100/13/6 1098/14/6 1102/7/6
f 1105/1/1 1106/2/1 1108/3/1 1107/4/1
f 1107/4/2 1108/3/2 1112/5/2 1111/6/2
f 1111/6/3 1112/5/3 1110/7/3 1109/8/3
f 1109/8/4 1110/7/4 1106/9/4 1105/10/4
f 1107/11/5 1111/6/5 1109/8/5 1105/12/5
f 1112/5/6 1108/13/6 1106/14/6 1110/7/6
f 1113/1/1 1114/2/1 1116/3/1 1115/4/1
f 1115/4/2 1116/3/2 1120/5/2 1119/6/2
f 1119/6/3 1120/5/3 1118/7/3 1117/8/3
f 1117/8/4 1118/7/4 1114/9/4 1113/10/4
f 1115/11/5 1119/6/5 1117/8/5 1113/12/5
f 1120/5/6 1116/13/6 1114/14/6 1118/7/6
f 1121/1/1 1122/2/1 1124/3/1 1123/4/1
f 1123/4/2 1124/3/2 1128/5/2 1127/6/2
f 1127/6/3 1128/5/3 1126/7/3 1125/8/3
f 1125/8/4 1126/7/4 1122/9/4 1121/10/4
f 1123/11/5 1127/6/5 1125/8/5 1121/12/5
f 1128/5/6 1124/13/6 1122/14/6 1126/7/6
f 1193/1/1 1194/2/1 1196/3/1 1195/4/1
f 1195/4/2 1196/3/2 1200/5/2 1199/6/2
f 1199/6/3 1200/5/3 1198/7/3 1197/8/3
f 1197/8/4 1198/7/4 1194/9/4 1193/10/4
f 1195/11/5 1199/6/5 1197/8/5 1193/12/5
f 1200/5/6 1196/13/6 1194/14/6 1198/7/6
f 1265/1/97 1266/2/97 1268/3/97 1267/4/97
f 1267/4/2 1268/3/2 1272/5/2 1271/6/2
f 1271/6/98 1272/5/98 1270/7/98 1269/8/98
f 1269/8/4 1270/7/4 1266/9/4 1265/10/4
f 1267/11/99 1271/6/99 1269/8/99 1265/12/99
f 1272/5/100 1268/13/100 1266/14/100 1270/7/100
s 1
f 1337/15/57 1338/16/58 1340/95/59 1339/13/60
f 1339/13/60 1340/95/59 1342/96/61 1341/97/62
f 1341/97/62 1342/96/61 1344/9/63 1343/5/64
f 1343/5/64 1344/9/63 1346/98/65 1345/99/66
f 1345/99/66 1346/98/65 1348/10/67 1347/6/68
f 1347/6/68 1348/10/67 1350/100/69 1349/101/70
f 1340/102/59 1338/117/58 1352/103/71 1350/118/69 1348/105/67 1346/119/65 1344/106/63 1342/120/61
f 1349/101/70 1350/100/69 1352/108/71 1351/11/72
f 1351/11/72 1352/108/71 1338/109/58 1337/110/57
f 1337/121/57 1339/111/60 1341/112/62 1343/113/64 1345/122/66 1347/114/68 1349/115/70 1351/116/72
f 1361/15/57 1362/16/58 1364/95/59 1363/13/60
f 1363/13/60 1364/95/59 1366/96/61 1365/97/62
f 1365/97/62 1366/96/61 1368/9/63 1367/5/64
f 1367/5/64 1368/9/63 1370/98/65 1369/99/66
f 1369/99/66 1370/98/65 1372/10/67 1371/6/68
f 1371/6/68 1372/10/67 1374/100/69 1373/101/70
f 1364/102/59 1362/117/58 1376/103/71 1374/118/69 1372/105/67 1370/119/65 1368/106/63 1366/120/61
f 1373/101/70 1374/100/69 1376/108/71 1375/11/72
f 1375/11/72 1376/108/71 1362/109/58 1361/110/57
f 1361/121/57 1363/111/60 1365/112/62 1367/113/64 1369/122/66 1371/114/68 1373/115/70 1375/116/72
s 0
f 1393/1/35 1394/2/35 1396/3/35 1395/4/35
f 1395/4/2 1396/3/2 1400/5/2 1399/6/2
f 1399/6/36 1400/5/36 1398/7/36 1397/8/36
f 1397/8/4 1398/7/4 1394/9/4 1393/10/4
f 1395/11/37 1399/6/37 1397/8/37 1393/12/37
f 1400/5/38 1396/13/38 1394/14/38 1398/7/38
f 1401/1/99 1402/2/99 1404/3/99 1403/4/99
f 1403/4/2 1404/3/2 1408/5/2 1407/6/2
f 1407/6/100 1408/5/100 1406/7/100 1405/8/100
f 1405/8/4 1406/7/4 1402/9/4 1401/10/4
f 1403/11/98 1407/6/98 1405/8/98 1401/12/98
f 1408/5/97 1404/13/97 1402/14/97 1406/7/97
f 1409/1/99 1410/2/99 1412/3/99 1411/4/99
f 1411/4/2 1412/3/2 1416/5/2 1415/6/2
f 1415/6/100 1416/5/100 1414/7/100 1413/8/100
f 1413/8/4 1414/7/4 1410/9/4 1409/10/4
f 1411/11/98 1415/6/98 1413/8/98 1409/12/98
f 1416/5/97 1412/13/97 1410/14/97 1414/7/97
f 1425/1/105 1426/2/105 1428/3/105 1427/4/105
f 1427/4/2 1428/3/2 1432/5/2 1431/6/2
f 1431/6/106 1432/5/106 1430/7/106 1429/8/106
f 1429/8/4 1430/7/4 1426/9/4 1425/10/4
f 1427/11/107 1431/6/107 1429/8/107 1425/12/107
f 1432/5/108 1428/13/108 1426/14/108 1430/7/108
f 1441/1/109 1442/2/109 1444/3/109 1443/4/109
f 1443/4/2 1444/3/2 1448/5/2 1447/6/2
f 1447/6/110 1448/5/110 1446/7/110 1445/8/110
f 1445/8/4 1446/7/4 1442/9/4 1441/10/4
f 1443/11/111 1447/6/111 1445/8/111 1441/12/111
f 1448/5/112 1444/13/112 1442/14/112 1446/7/112
usemtl Mat_DistantTarmac
f 129/1/1 130/2/1 132/3/1 131/4/1
f 131/4/2 132/3/2 136/5/2 135/6/2
f 135/6/3 136/5/3 134/7/3 133/8/3
f 133/8/4 134/7/4 130/9/4 129/10/4
f 131/11/5 135/6/5 133/8/5 129/12/5
f 136/5/6 132/13/6 130/14/6 134/7/6
usemtl Mat_RoofTrussSteel
f 173/1/1 174/2/1 176/3/1 175/4/1
f 175/4/2 176/3/2 180/5/2 179/6/2
f 179/6/3 180/5/3 178/7/3 177/8/3
f 177/8/4 178/7/4 174/9/4 173/10/4
f 175/11/5 179/6/5 177/8/5 173/12/5
f 180/5/6 176/13/6 174/14/6 178/7/6
f 181/1/39 182/2/39 184/3/39 183/4/39
f 183/4/40 184/3/40 188/5/40 187/6/40
f 187/6/41 188/5/41 186/7/41 185/8/41
f 185/8/42 186/7/42 182/9/42 181/10/42
f 183/11/5 187/6/5 185/8/5 181/12/5
f 188/5/6 184/13/6 182/14/6 186/7/6
f 189/1/39 190/2/39 192/3/39 191/4/39
f 191/4/40 192/3/40 196/5/40 195/6/40
f 195/6/41 196/5/41 194/7/41 193/8/41
f 193/8/42 194/7/42 190/9/42 189/10/42
f 191/11/5 195/6/5 193/8/5 189/12/5
f 196/5/6 192/13/6 190/14/6 194/7/6
f 197/1/39 198/2/39 200/3/39 199/4/39
f 199/4/40 200/3/40 204/5/40 203/6/40
f 203/6/41 204/5/41 202/7/41 201/8/41
f 201/8/42 202/7/42 198/9/42 197/10/42
f 199/11/5 203/6/5 201/8/5 197/12/5
f 204/5/6 200/13/6 198/14/6 202/7/6
f 205/1/39 206/2/39 208/3/39 207/4/39
f 207/4/40 208/3/40 212/5/40 211/6/40
f 211/6/41 212/5/41 210/7/41 209/8/41
f 209/8/42 210/7/42 206/9/42 205/10/42
f 207/11/5 211/6/5 209/8/5 205/12/5
f 212/5/6 208/13/6 206/14/6 210/7/6
f 213/1/39 214/2/39 216/3/39 215/4/39
f 215/4/40 216/3/40 220/5/40 219/6/40
f 219/6/41 220/5/41 218/7/41 217/8/41
f 217/8/42 218/7/42 214/9/42 213/10/42
f 215/11/5 219/6/5 217/8/5 213/12/5
f 220/5/6 216/13/6 214/14/6 218/7/6
f 221/1/39 222/2/39 224/3/39 223/4/39
f 223/4/40 224/3/40 228/5/40 227/6/40
f 227/6/41 228/5/41 226/7/41 225/8/41
f 225/8/42 226/7/42 222/9/42 221/10/42
f 223/11/5 227/6/5 225/8/5 221/12/5
f 228/5/6 224/13/6 222/14/6 226/7/6
f 229/1/39 230/2/39 232/3/39 231/4/39
f 231/4/40 232/3/40 236/5/40 235/6/40
f 235/6/41 236/5/41 234/7/41 233/8/41
f 233/8/42 234/7/42 230/9/42 229/10/42
f 231/11/5 235/6/5 233/8/5 229/12/5
f 236/5/6 232/13/6 230/14/6 234/7/6
f 237/1/39 238/2/39 240/3/39 239/4/39
f 239/4/40 240/3/40 244/5/40 243/6/40
f 243/6/41 244/5/41 242/7/41 241/8/41
f 241/8/42 242/7/42 238/9/42 237/10/42
f 239/11/5 243/6/5 241/8/5 237/12/5
f 244/5/6 240/13/6 238/14/6 242/7/6
f 245/1/1 246/2/1 248/3/1 247/4/1
f 247/4/2 248/3/2 252/5/2 251/6/2
f 251/6/3 252/5/3 250/7/3 249/8/3
f 249/8/4 250/7/4 246/9/4 245/10/4
f 247/11/5 251/6/5 249/8/5 245/12/5
f 252/5/6 248/13/6 246/14/6 250/7/6
f 253/1/39 254/2/39 256/3/39 255/4/39
f 255/4/43 256/3/43 260/5/43 259/6/43
f 259/6/41 260/5/41 258/7/41 257/8/41
f 257/8/44 258/7/44 254/9/44 253/10/44
f 255/11/5 259/6/5 257/8/5 253/12/5
f 260/5/6 256/13/6 254/14/6 258/7/6
f 261/1/39 262/2/39 264/3/39 263/4/39
f 263/4/43 264/3/43 268/5/43 267/6/43
f 267/6/41 268/5/41 266/7/41 265/8/41
f 265/8/44 266/7/44 262/9/44 261/10/44
f 263/11/5 267/6/5 265/8/5 261/12/5
f 268/5/6 264/13/6 262/14/6 266/7/6
f 269/1/39 270/2/39 272/3/39 271/4/39
f 271/4/43 272/3/43 276/5/43 275/6/43
f 275/6/41 276/5/41 274/7/41 273/8/41
f 273/8/44 274/7/44 270/9/44 269/10/44
f 271/11/5 275/6/5 273/8/5 269/12/5
f 276/5/6 272/13/6 270/14/6 274/7/6
f 277/1/39 278/2/39 280/3/39 279/4/39
f 279/4/43 280/3/43 284/5/43 283/6/43
f 283/6/41 284/5/41 282/7/41 281/8/41
f 281/8/44 282/7/44 278/9/44 277/10/44
f 279/11/5 283/6/5 281/8/5 277/12/5
f 284/5/6 280/13/6 278/14/6 282/7/6
f 285/1/39 286/2/39 288/3/39 287/4/39
f 287/4/43 288/3/43 292/5/43 291/6/43
f 291/6/41 292/5/41 290/7/41 289/8/41
f 289/8/44 290/7/44 286/9/44 285/10/44
f 287/11/5 291/6/5 289/8/5 285/12/5
f 292/5/6 288/13/6 286/14/6 290/7/6
f 293/1/39 294/2/39 296/3/39 295/4/39
f 295/4/43 296/3/43 300/5/43 299/6/43
f 299/6/41 300/5/41 298/7/41 297/8/41
f 297/8/44 298/7/44 294/9/44 293/10/44
f 295/11/5 299/6/5 297/8/5 293/12/5
f 300/5/6 296/13/6 294/14/6 298/7/6
f 301/1/39 302/2/39 304/3/39 303/4/39
f 303/4/43 304/3/43 308/5/43 307/6/43
f 307/6/41 308/5/41 306/7/41 305/8/41
f 305/8/44 306/7/44 302/9/44 301/10/44
f 303/11/5 307/6/5 305/8/5 301/12/5
f 308/5/6 304/13/6 302/14/6 306/7/6
f 309/1/39 310/2/39 312/3/39 311/4/39
f 311/4/43 312/3/43 316/5/43 315/6/43
f 315/6/41 316/5/41 314/7/41 313/8/41
f 313/8/44 314/7/44 310/9/44 309/10/44
f 311/11/5 315/6/5 313/8/5 309/12/5
f 316/5/6 312/13/6 310/14/6 314/7/6
f 317/1/1 318/2/1 320/3/1 319/4/1
f 319/4/2 320/3/2 324/5/2 323/6/2
f 323/6/3 324/5/3 322/7/3 321/8/3
f 321/8/4 322/7/4 318/9/4 317/10/4
f 319/11/5 323/6/5 321/8/5 317/12/5
f 324/5/6 320/13/6 318/14/6 322/7/6
f 325/1/39 326/2/39 328/3/39 327/4/39
f 327/4/43 328/3/43 332/5/43 331/6/43
f 331/6/41 332/5/41 330/7/41 329/8/41
f 329/8/44 330/7/44 326/9/44 325/10/44
f 327/11/5 331/6/5 329/8/5 325/12/5
f 332/5/6 328/13/6 326/14/6 330/7/6
f 333/1/39 334/2/39 336/3/39 335/4/39
f 335/4/43 336/3/43 340/5/43 339/6/43
f 339/6/41 340/5/41 338/7/41 337/8/41
f 337/8/44 338/7/44 334/9/44 333/10/44
f 335/11/5 339/6/5 337/8/5 333/12/5
f 340/5/6 336/13/6 334/14/6 338/7/6
f 341/1/39 342/2/39 344/3/39 343/4/39
f 343/4/43 344/3/43 348/5/43 347/6/43
f 347/6/41 348/5/41 346/7/41 345/8/41
f 345/8/44 346/7/44 342/9/44 341/10/44
f 343/11/5 347/6/5 345/8/5 341/12/5
f 348/5/6 344/13/6 342/14/6 346/7/6
f 349/1/39 350/2/39 352/3/39 351/4/39
f 351/4/43 352/3/43 356/5/43 355/6/43
f 355/6/41 356/5/41 354/7/41 353/8/41
f 353/8/44 354/7/44 350/9/44 349/10/44
f 351/11/5 355/6/5 353/8/5 349/12/5
f 356/5/6 352/13/6 350/14/6 354/7/6
f 357/1/39 358/2/39 360/3/39 359/4/39
f 359/4/43 360/3/43 364/5/43 363/6/43
f 363/6/41 364/5/41 362/7/41 361/8/41
f 361/8/44 362/7/44 358/9/44 357/10/44
f 359/11/5 363/6/5 361/8/5 357/12/5
f 364/5/6 360/13/6 358/14/6 362/7/6
f 365/1/39 366/2/39 368/3/39 367/4/39
f 367/4/43 368/3/43 372/5/43 371/6/43
f 371/6/41 372/5/41 370/7/41 369/8/41
f 369/8/44 370/7/44 366/9/44 365/10/44
f 367/11/5 371/6/5 369/8/5 365/12/5
f 372/5/6 368/13/6 366/14/6 370/7/6
f 373/1/39 374/2/39 376/3/39 375/4/39
f 375/4/43 376/3/43 380/5/43 379/6/43
f 379/6/41 380/5/41 378/7/41 377/8/41
f 377/8/44 378/7/44 374/9/44 373/10/44
f 375/11/5 379/6/5 377/8/5 373/12/5
f 380/5/6 376/13/6 374/14/6 378/7/6
f 381/1/39 382/2/39 384/3/39 383/4/39
f 383/4/43 384/3/43 388/5/43 387/6/43
f 387/6/41 388/5/41 386/7/41 385/8/41
f 385/8/44 386/7/44 382/9/44 381/10/44
f 383/11/5 387/6/5 385/8/5 381/12/5
f 388/5/6 384/13/6 382/14/6 386/7/6
f 389/1/1 390/2/1 392/3/1 391/4/1
f 391/4/2 392/3/2 396/5/2 395/6/2
f 395/6/3 396/5/3 394/7/3 393/8/3
f 393/8/4 394/7/4 390/9/4 389/10/4
f 391/11/5 395/6/5 393/8/5 389/12/5
f 396/5/6 392/13/6 390/14/6 394/7/6
f 397/1/39 398/2/39 400/3/39 399/4/39
f 399/4/40 400/3/40 404/5/40 403/6/40
f 403/6/41 404/5/41 402/7/41 401/8/41
f 401/8/42 402/7/42 398/9/42 397/10/42
f 399/11/5 403/6/5 401/8/5 397/12/5
f 404/5/6 400/13/6 398/14/6 402/7/6
f 405/1/39 406/2/39 408/3/39 407/4/39
f 407/4/40 408/3/40 412/5/40 411/6/40
f 411/6/41 412/5/41 410/7/41 409/8/41
f 409/8/42 410/7/42 406/9/42 405/10/42
f 407/11/5 411/6/5 409/8/5 405/12/5
f 412/5/6 408/13/6 406/14/6 410/7/6
f 413/1/39 414/2/39 416/3/39 415/4/39
f 415/4/40 416/3/40 420/5/40 419/6/40
f 419/6/41 420/5/41 418/7/41 417/8/41
f 417/8/42 418/7/42 414/9/42 413/10/42
f 415/11/5 419/6/5 417/8/5 413/12/5
f 420/5/6 416/13/6 414/14/6 418/7/6
f 421/1/39 422/2/39 424/3/39 423/4/39
f 423/4/40 424/3/40 428/5/40 427/6/40
f 427/6/41 428/5/41 426/7/41 425/8/41
f 425/8/42 426/7/42 422/9/42 421/10/42
f 423/11/5 427/6/5 425/8/5 421/12/5
f 428/5/6 424/13/6 422/14/6 426/7/6
f 429/1/39 430/2/39 432/3/39 431/4/39
f 431/4/40 432/3/40 436/5/40 435/6/40
f 435/6/41 436/5/41 434/7/41 433/8/41
f 433/8/42 434/7/42 430/9/42 429/10/42
f 431/11/5 435/6/5 433/8/5 429/12/5
f 436/5/6 432/13/6 430/14/6 434/7/6
f 437/1/39 438/2/39 440/3/39 439/4/39
f 439/4/40 440/3/40 444/5/40 443/6/40
f 443/6/41 444/5/41 442/7/41 441/8/41
f 441/8/42 442/7/42 438/9/42 437/10/42
f 439/11/5 443/6/5 441/8/5 437/12/5
f 444/5/6 440/13/6 438/14/6 442/7/6
f 445/1/39 446/2/39 448/3/39 447/4/39
f 447/4/40 448/3/40 452/5/40 451/6/40
f 451/6/41 452/5/41 450/7/41 449/8/41
f 449/8/42 450/7/42 446/9/42 445/10/42
f 447/11/5 451/6/5 449/8/5 445/12/5
f 452/5/6 448/13/6 446/14/6 450/7/6
f 453/1/39 454/2/39 456/3/39 455/4/39
f 455/4/40 456/3/40 460/5/40 459/6/40
f 459/6/41 460/5/41 458/7/41 457/8/41
f 457/8/42 458/7/42 454/9/42 453/10/42
f 455/11/5 459/6/5 457/8/5 453/12/5
f 460/5/6 456/13/6 454/14/6 458/7/6
usemtl Mat_FluorescentLight
f 493/1/1 494/2/1 496/3/1 495/4/1
f 495/4/2 496/3/2 500/5/2 499/6/2
f 499/6/3 500/5/3 498/7/3 497/8/3
f 497/8/4 498/7/4 494/9/4 493/10/4
f 495/11/5 499/6/5 497/8/5 493/12/5
f 500/5/6 496/13/6 494/14/6 498/7/6
f 533/1/1 534/2/1 536/3/1 535/4/1
f 535/4/2 536/3/2 540/5/2 539/6/2
f 539/6/3 540/5/3 538/7/3 537/8/3
f 537/8/4 538/7/4 534/9/4 533/10/4
f 535/11/5 539/6/5 537/8/5 533/12/5
f 540/5/6 536/13/6 534/14/6 538/7/6
f 573/1/1 574/2/1 576/3/1 575/4/1
f 575/4/2 576/3/2 580/5/2 579/6/2
f 579/6/3 580/5/3 578/7/3 577/8/3
f 577/8/4 578/7/4 574/9/4 573/10/4
f 575/11/5 579/6/5 577/8/5 573/12/5
f 580/5/6 576/13/6 574/14/6 578/7/6
f 613/1/1 614/2/1 616/3/1 615/4/1
f 615/4/2 616/3/2 620/5/2 619/6/2
f 619/6/3 620/5/3 618/7/3 617/8/3
f 617/8/4 618/7/4 614/9/4 613/10/4
f 615/11/5 619/6/5 617/8/5 613/12/5
f 620/5/6 616/13/6 614/14/6 618/7/6
f 653/1/1 654/2/1 656/3/1 655/4/1
f 655/4/2 656/3/2 660/5/2 659/6/2
f 659/6/3 660/5/3 658/7/3 657/8/3
f 657/8/4 658/7/4 654/9/4 653/10/4
f 655/11/5 659/6/5 657/8/5 653/12/5
f 660/5/6 656/13/6 654/14/6 658/7/6
f 693/1/1 694/2/1 696/3/1 695/4/1
f 695/4/2 696/3/2 700/5/2 699/6/2
f 699/6/3 700/5/3 698/7/3 697/8/3
f 697/8/4 698/7/4 694/9/4 693/10/4
f 695/11/5 699/6/5 697/8/5 693/12/5
f 700/5/6 696/13/6 694/14/6 698/7/6
s 1
usemtl Mat_PillarConcrete
f 701/15/57 702/16/58 704/95/59 703/13/60
f 703/13/60 704/95/59 706/96/61 705/97/62
f 705/97/62 706/96/61 708/9/63 707/5/64
f 707/5/64 708/9/63 710/98/65 709/99/66
f 709/99/66 710/98/65 712/10/67 711/6/68
f 711/6/68 712/10/67 714/100/69 713/101/70
f 704/102/59 702/42/58 716/103/71 714/104/69 712/105/67 710/84/65 708/106/63 706/107/61
f 713/101/70 714/100/69 716/108/71 715/11/72
f 715/11/72 716/108/71 702/109/58 701/110/57
f 701/59/57 703/111/60 705/112/62 707/113/64 709/92/66 711/114/68 713/115/70 715/116/72
f 741/15/57 742/16/58 744/95/59 743/13/60
f 743/13/60 744/95/59 746/96/61 745/97/62
f 745/97/62 746/96/61 748/9/63 747/5/64
f 747/5/64 748/9/63 750/98/65 749/99/66
f 749/99/66 750/98/65 752/10/67 751/6/68
f 751/6/68 752/10/67 754/100/69 753/101/70
f 744/102/59 742/42/58 756/103/71 754/104/69 752/105/67 750/84/65 748/106/63 746/107/61
f 753/101/70 754/100/69 756/108/71 755/11/72
f 755/11/72 756/108/71 742/109/58 741/110/57
f 741/59/57 743/111/60 745/112/62 747/113/64 749/92/66 751/114/68 753/115/70 755/116/72
f 781/15/57 782/16/58 784/95/59 783/13/60
f 783/13/60 784/95/59 786/96/61 785/97/62
f 785/97/62 786/96/61 788/9/63 787/5/64
f 787/5/64 788/9/63 790/98/65 789/99/66
f 789/99/66 790/98/65 792/10/67 791/6/68
f 791/6/68 792/10/67 794/100/69 793/101/70
f 784/102/59 782/42/58 796/103/71 794/104/69 792/105/67 790/84/65 788/106/63 786/107/61
f 793/101/70 794/100/69 796/108/71 795/11/72
f 795/11/72 796/108/71 782/109/58 781/110/57
f 781/59/57 783/111/60 785/112/62 787/113/64 789/92/66 791/114/68 793/115/70 795/116/72
f 821/15/57 822/16/58 824/95/59 823/13/60
f 823/13/60 824/95/59 826/96/61 825/97/62
f 825/97/62 826/96/61 828/9/63 827/5/64
f 827/5/64 828/9/63 830/98/65 829/99/66
f 829/99/66 830/98/65 832/10/67 831/6/68
f 831/6/68 832/10/67 834/100/69 833/101/70
f 824/102/59 822/42/58 836/103/71 834/104/69 832/105/67 830/84/65 828/106/63 826/107/61
f 833/101/70 834/100/69 836/108/71 835/11/72
f 835/11/72 836/108/71 822/109/58 821/110/57
f 821/59/57 823/111/60 825/112/62 827/113/64 829/92/66 831/114/68 833/115/70 835/116/72
s 0
usemtl Mat_SecurityLED
f 733/1/1 734/2/1 736/3/1 735/4/1
f 735/4/2 736/3/2 740/5/2 739/6/2
f 739/6/3 740/5/3 738/7/3 737/8/3
f 737/8/4 738/7/4 734/9/4 733/10/4
f 735/11/5 739/6/5 737/8/5 733/12/5
f 740/5/6 736/13/6 734/14/6 738/7/6
f 773/1/1 774/2/1 776/3/1 775/4/1
f 775/4/2 776/3/2 780/5/2 779/6/2
f 779/6/3 780/5/3 778/7/3 777/8/3
f 777/8/4 778/7/4 774/9/4 773/10/4
f 775/11/5 779/6/5 777/8/5 773/12/5
f 780/5/6 776/13/6 774/14/6 778/7/6
f 813/1/1 814/2/1 816/3/1 815/4/1
f 815/4/2 816/3/2 820/5/2 819/6/2
f 819/6/3 820/5/3 818/7/3 817/8/3
f 817/8/4 818/7/4 814/9/4 813/10/4
f 815/11/5 819/6/5 817/8/5 813/12/5
f 820/5/6 816/13/6 814/14/6 818/7/6
f 853/1/1 854/2/1 856/3/1 855/4/1
f 855/4/2 856/3/2 860/5/2 859/6/2
f 859/6/3 860/5/3 858/7/3 857/8/3
f 857/8/4 858/7/4 854/9/4 853/10/4
f 855/11/5 859/6/5 857/8/5 853/12/5
f 860/5/6 856/13/6 854/14/6 858/7/6
f 1081/1/1 1082/2/1 1084/3/1 1083/4/1
f 1083/4/2 1084/3/2 1088/5/2 1087/6/2
f 1087/6/3 1088/5/3 1086/7/3 1085/8/3
f 1085/8/4 1086/7/4 1082/9/4 1081/10/4
f 1083/11/5 1087/6/5 1085/8/5 1081/12/5
f 1088/5/6 1084/13/6 1082/14/6 1086/7/6
usemtl Mat_CheckinCounter
f 861/1/1 862/2/1 864/3/1 863/4/1
f 863/4/2 864/3/2 868/5/2 867/6/2
f 867/6/3 868/5/3 866/7/3 865/8/3
f 865/8/4 866/7/4 862/9/4 861/10/4
f 863/11/5 867/6/5 865/8/5 861/12/5
f 868/5/6 864/13/6 862/14/6 866/7/6
f 869/1/1 870/2/1 872/3/1 871/4/1
f 871/4/2 872/3/2 876/5/2 875/6/2
f 875/6/3 876/5/3 874/7/3 873/8/3
f 873/8/4 874/7/4 870/9/4 869/10/4
f 871/11/5 875/6/5 873/8/5 869/12/5
f 876/5/6 872/13/6 870/14/6 874/7/6
f 901/1/1 902/2/1 904/3/1 903/4/1
f 903/4/2 904/3/2 908/5/2 907/6/2
f 907/6/3 908/5/3 906/7/3 905/8/3
f 905/8/4 906/7/4 902/9/4 901/10/4
f 903/11/5 907/6/5 905/8/5 901/12/5
f 908/5/6 904/13/6 902/14/6 906/7/6
f 909/1/1 910/2/1 912/3/1 911/4/1
f 911/4/2 912/3/2 916/5/2 915/6/2
f 915/6/3 916/5/3 914/7/3 913/8/3
f 913/8/4 914/7/4 910/9/4 909/10/4
f 911/11/5 915/6/5 913/8/5 909/12/5
f 916/5/6 912/13/6 910/14/6 914/7/6
f 1057/1/1 1058/2/1 1060/3/1 1059/4/1
f 1059/4/2 1060/3/2 1064/5/2 1063/6/2
f 1063/6/3 1064/5/3 1062/7/3 1061/8/3
f 1061/8/4 1062/7/4 1058/9/4 1057/10/4
f 1059/11/5 1063/6/5 1061/8/5 1057/12/5
f 1064/5/6 1060/13/6 1058/14/6 1062/7/6
f 1065/1/1 1066/2/1 1068/3/1 1067/4/1
f 1067/4/2 1068/3/2 1072/5/2 1071/6/2
f 1071/6/3 1072/5/3 1070/7/3 1069/8/3
f 1069/8/4 1070/7/4 1066/9/4 1065/10/4
f 1067/11/5 1071/6/5 1069/8/5 1065/12/5
f 1072/5/6 1068/13/6 1066/14/6 1070/7/6
f 1073/1/1 1074/2/1 1076/3/1 1075/4/1
f 1075/4/2 1076/3/2 1080/5/2 1079/6/2
f 1079/6/3 1080/5/3 1078/7/3 1077/8/3
f 1077/8/4 1078/7/4 1074/9/4 1073/10/4
f 1075/11/5 1079/6/5 1077/8/5 1073/12/5
f 1080/5/6 1076/13/6 1074/14/6 1078/7/6
usemtl Mat_XrayScanner
f 1089/1/1 1090/2/1 1092/3/1 1091/4/1
f 1091/4/2 1092/3/2 1096/5/2 1095/6/2
f 1095/6/3 1096/5/3 1094/7/3 1093/8/3
f 1093/8/4 1094/7/4 1090/9/4 1089/10/4
f 1091/11/5 1095/6/5 1093/8/5 1089/12/5
f 1096/5/6 1092/13/6 1090/14/6 1094/7/6
usemtl Mat_AirportSeat
f 1129/1/1 1130/2/1 1132/3/1 1131/4/1
f 1131/4/2 1132/3/2 1136/5/2 1135/6/2
f 1135/6/3 1136/5/3 1134/7/3 1133/8/3
f 1133/8/4 1134/7/4 1130/9/4 1129/10/4
f 1131/11/5 1135/6/5 1133/8/5 1129/12/5
f 1136/5/6 1132/13/6 1130/14/6 1134/7/6
f 1137/1/1 1138/2/1 1140/3/1 1139/4/1
f 1139/4/93 1140/3/93 1144/5/93 1143/6/93
f 1143/6/3 1144/5/3 1142/7/3 1141/8/3
f 1141/8/94 1142/7/94 1138/9/94 1137/10/94
f 1139/11/95 1143/6/95 1141/8/95 1137/12/95
f 1144/5/96 1140/13/96 1138/14/96 1142/7/96
f 1145/1/1 1146/2/1 1148/3/1 1147/4/1
f 1147/4/2 1148/3/2 1152/5/2 1151/6/2
f 1151/6/3 1152/5/3 1150/7/3 1149/8/3
f 1149/8/4 1150/7/4 1146/9/4 1145/10/4
f 1147/11/5 1151/6/5 1149/8/5 1145/12/5
f 1152/5/6 1148/13/6 1146/14/6 1150/7/6
f 1153/1/1 1154/2/1 1156/3/1 1155/4/1
f 1155/4/93 1156/3/93 1160/5/93 1159/6/93
f 1159/6/3 1160/5/3 1158/7/3 1157/8/3
f 1157/8/94 1158/7/94 1154/9/94 1153/10/94
f 1155/11/95 1159/6/95 1157/8/95 1153/12/95
f 1160/5/96 1156/13/96 1154/14/96 1158/7/96
f 1161/1/1 1162/2/1 1164/3/1 1163/4/1
f 1163/4/2 1164/3/2 1168/5/2 1167/6/2
f 1167/6/3 1168/5/3 1166/7/3 1165/8/3
f 1165/8/4 1166/7/4 1162/9/4 1161/10/4
f 1163/11/5 1167/6/5 1165/8/5 1161/12/5
f 1168/5/6 1164/13/6 1162/14/6 1166/7/6
f 1169/1/1 1170/2/1 1172/3/1 1171/4/1
f 1171/4/93 1172/3/93 1176/5/93 1175/6/93
f 1175/6/3 1176/5/3 1174/7/3 1173/8/3
f 1173/8/94 1174/7/94 1170/9/94 1169/10/94
f 1171/11/95 1175/6/95 1173/8/95 1169/12/95
f 1176/5/96 1172/13/96 1170/14/96 1174/7/96
f 1177/1/1 1178/2/1 1180/3/1 1179/4/1
f 1179/4/2 1180/3/2 1184/5/2 1183/6/2
f 1183/6/3 1184/5/3 1182/7/3 1181/8/3
f 1181/8/4 1182/7/4 1178/9/4 1177/10/4
f 1179/11/5 1183/6/5 1181/8/5 1177/12/5
f 1184/5/6 1180/13/6 1178/14/6 1182/7/6
f 1185/1/1 1186/2/1 1188/3/1 1187/4/1
f 1187/4/93 1188/3/93 1192/5/93 1191/6/93
f 1191/6/3 1192/5/3 1190/7/3 1189/8/3
f 1189/8/94 1190/7/94 1186/9/94 1185/10/94
f 1187/11/95 1191/6/95 1189/8/95 1185/12/95
f 1192/5/96 1188/13/96 1186/14/96 1190/7/96
f 1201/1/1 1202/2/1 1204/3/1 1203/4/1
f 1203/4/2 1204/3/2 1208/5/2 1207/6/2
f 1207/6/3 1208/5/3 1206/7/3 1205/8/3
f 1205/8/4 1206/7/4 1202/9/4 1201/10/4
f 1203/11/5 1207/6/5 1205/8/5 1201/12/5
f 1208/5/6 1204/13/6 1202/14/6 1206/7/6
f 1209/1/1 1210/2/1 1212/3/1 1211/4/1
f 1211/4/93 1212/3/93 1216/5/93 1215/6/93
f 1215/6/3 1216/5/3 1214/7/3 1213/8/3
f 1213/8/94 1214/7/94 1210/9/94 1209/10/94
f 1211/11/95 1215/6/95 1213/8/95 1209/12/95
f 1216/5/96 1212/13/96 1210/14/96 1214/7/96
f 1217/1/1 1218/2/1 1220/3/1 1219/4/1
f 1219/4/2 1220/3/2 1224/5/2 1223/6/2
f 1223/6/3 1224/5/3 1222/7/3 1221/8/3
f 1221/8/4 1222/7/4 1218/9/4 1217/10/4
f 1219/11/5 1223/6/5 1221/8/5 1217/12/5
f 1224/5/6 1220/13/6 1218/14/6 1222/7/6
f 1225/1/1 1226/2/1 1228/3/1 1227/4/1
f 1227/4/93 1228/3/93 1232/5/93 1231/6/93
f 1231/6/3 1232/5/3 1230/7/3 1229/8/3
f 1229/8/94 1230/7/94 1226/9/94 1225/10/94
f 1227/11/95 1231/6/95 1229/8/95 1225/12/95
f 1232/5/96 1228/13/96 1226/14/96 1230/7/96
f 1233/1/1 1234/2/1 1236/3/1 1235/4/1
f 1235/4/2 1236/3/2 1240/5/2 1239/6/2
f 1239/6/3 1240/5/3 1238/7/3 1237/8/3
f 1237/8/4 1238/7/4 1234/9/4 1233/10/4
f 1235/11/5 1239/6/5 1237/8/5 1233/12/5
f 1240/5/6 1236/13/6 1234/14/6 1238/7/6
f 1241/1/1 1242/2/1 1244/3/1 1243/4/1
f 1243/4/93 1244/3/93 1248/5/93 1247/6/93
f 1247/6/3 1248/5/3 1246/7/3 1245/8/3
f 1245/8/94 1246/7/94 1242/9/94 1241/10/94
f 1243/11/95 1247/6/95 1245/8/95 1241/12/95
f 1248/5/96 1244/13/96 1242/14/96 1246/7/96
f 1249/1/1 1250/2/1 1252/3/1 1251/4/1
f 1251/4/2 1252/3/2 1256/5/2 1255/6/2
f 1255/6/3 1256/5/3 1254/7/3 1253/8/3
f 1253/8/4 1254/7/4 1250/9/4 1249/10/4
f 1251/11/5 1255/6/5 1253/8/5 1249/12/5
f 1256/5/6 1252/13/6 1250/14/6 1254/7/6
f 1257/1/1 1258/2/1 1260/3/1 1259/4/1
f 1259/4/93 1260/3/93 1264/5/93 1263/6/93
f 1263/6/3 1264/5/3 1262/7/3 1261/8/3
f 1261/8/94 1262/7/94 1258/9/94 1257/10/94
f 1259/11/95 1263/6/95 1261/8/95 1257/12/95
f 1264/5/96 1260/13/96 1258/14/96 1262/7/96
f 1273/1/97 1274/2/97 1276/3/97 1275/4/97
f 1275/4/2 1276/3/2 1280/5/2 1279/6/2
f 1279/6/98 1280/5/98 1278/7/98 1277/8/98
f 1277/8/4 1278/7/4 1274/9/4 1273/10/4
f 1275/11/99 1279/6/99 1277/8/99 1273/12/99
f 1280/5/100 1276/13/100 1274/14/100 1278/7/100
f 1281/1/97 1282/2/97 1284/3/97 1283/4/97
f 1283/4/101 1284/3/101 1288/5/101 1287/6/101
f 1287/6/98 1288/5/98 1286/7/98 1285/8/98
f 1285/8/102 1286/7/102 1282/9/102 1281/10/102
f 1283/11/103 1287/6/103 1285/8/103 1281/12/103
f 1288/5/104 1284/13/104 1282/14/104 1286/7/104
f 1289/1/97 1290/2/97 1292/3/97 1291/4/97
f 1291/4/2 1292/3/2 1296/5/2 1295/6/2
f 1295/6/98 1296/5/98 1294/7/98 1293/8/98
f 1293/8/4 1294/7/4 1290/9/4 1289/10/4
f 1291/11/99 1295/6/99 1293/8/99 1289/12/99
f 1296/5/100 1292/13/100 1290/14/100 1294/7/100
f 1297/1/97 1298/2/97 1300/3/97 1299/4/97
f 1299/4/101 1300/3/101 1304/5/101 1303/6/101
f 1303/6/98 1304/5/98 1302/7/98 1301/8/98
f 1301/8/102 1302/7/102 1298/9/102 1297/10/102
f 1299/11/103 1303/6/103 1301/8/103 1297/12/103
f 1304/5/104 1300/13/104 1298/14/104 1302/7/104
f 1305/1/97 1306/2/97 1308/3/97 1307/4/97
f 1307/4/2 1308/3/2 1312/5/2 1311/6/2
f 1311/6/98 1312/5/98 1310/7/98 1309/8/98
f 1309/8/4 1310/7/4 1306/9/4 1305/10/4
f 1307/11/99 1311/6/99 1309/8/99 1305/12/99
f 1312/5/100 1308/13/100 1306/14/100 1310/7/100
f 1313/1/97 1314/2/97 1316/3/97 1315/4/97
f 1315/4/101 1316/3/101 1320/5/101 1319/6/101
f 1319/6/98 1320/5/98 1318/7/98 1317/8/98
f 1317/8/102 1318/7/102 1314/9/102 1313/10/102
f 1315/11/103 1319/6/103 1317/8/103 1313/12/103
f 1320/5/104 1316/13/104 1314/14/104 1318/7/104
f 1321/1/97 1322/2/97 1324/3/97 1323/4/97
f 1323/4/2 1324/3/2 1328/5/2 1327/6/2
f 1327/6/98 1328/5/98 1326/7/98 1325/8/98
f 1325/8/4 1326/7/4 1322/9/4 1321/10/4
f 1323/11/99 1327/6/99 1325/8/99 1321/12/99
f 1328/5/100 1324/13/100 1322/14/100 1326/7/100
f 1329/1/97 1330/2/97 1332/3/97 1331/4/97
f 1331/4/101 1332/3/101 1336/5/101 1335/6/101
f 1335/6/98 1336/5/98 1334/7/98 1333/8/98
f 1333/8/102 1334/7/102 1330/9/102 1329/10/102
f 1331/11/103 1335/6/103 1333/8/103 1329/12/103
f 1336/5/104 1332/13/104 1330/14/104 1334/7/104
usemtl Mat_LuggageLeather
f 1385/1/35 1386/2/35 1388/3/35 1387/4/35
f 1387/4/2 1388/3/2 1392/5/2 1391/6/2
f 1391/6/36 1392/5/36 1390/7/36 1389/8/36
f 1389/8/4 1390/7/4 1386/9/4 1385/10/4
f 1387/11/37 1391/6/37 1389/8/37 1385/12/37
f 1392/5/38 1388/13/38 1386/14/38 1390/7/38
f 1417/1/105 1418/2/105 1420/3/105 1419/4/105
f 1419/4/2 1420/3/2 1424/5/2 1423/6/2
f 1423/6/106 1424/5/106 1422/7/106 1421/8/106
f 1421/8/4 1422/7/4 1418/9/4 1417/10/4
f 1419/11/107 1423/6/107 1421/8/107 1417/12/107
f 1424/5/108 1420/13/108 1418/14/108 1422/7/108
f 1433/1/109 1434/2/109 1436/3/109 1435/4/109
f 1435/4/2 1436/3/2 1440/5/2 1439/6/2
f 1439/6/110 1440/5/110 1438/7/110 1437/8/110
f 1437/8/4 1438/7/4 1434/9/4 1433/10/4
f 1435/11/111 1439/6/111 1437/8/111 1433/12/111
f 1440/5/112 1436/13/112 1434/14/112 1438/7/112
usemtl Mat_FloorBloodDecal
f 1449/1/113 1450/2/113 1452/3/113 1451/4/113
f 1451/4/2 1452/3/2 1456/5/2 1455/6/2
f 1455/6/114 1456/5/114 1454/7/114 1453/8/114
f 1453/8/4 1454/7/4 1450/9/4 1449/10/4
f 1451/11/115 1455/6/115 1453/8/115 1449/12/115
f 1456/5/116 1452/13/116 1450/14/116 1454/7/116
f 1457/1/117 1458/2/117 1460/3/117 1459/4/117
f 1459/4/2 1460/3/2 1464/5/2 1463/6/2
f 1463/6/118 1464/5/118 1462/7/118 1461/8/118
f 1461/8/4 1462/7/4 1458/9/4 1457/10/4
f 1459/11/119 1463/6/119 1461/8/119 1457/12/119
f 1464/5/120 1460/13/120 1458/14/120 1462/7/120
