# Blender 4.0.2
# www.blender.org
mtllib luggage_trolley.mtl
o Luggage_Trolley
v -0.350000 -0.550000 -0.110000
v -0.350000 0.550000 -0.110000
v -0.350000 -0.550000 -0.170000
v -0.350000 0.550000 -0.170000
v 0.350000 -0.550000 -0.110000
v 0.350000 0.550000 -0.110000
v 0.350000 -0.550000 -0.170000
v 0.350000 0.550000 -0.170000
v -0.325000 0.525000 -0.170000
v -0.325000 0.575000 -0.170000
v -0.325000 0.525000 -1.070000
v -0.325000 0.575000 -1.070000
v 0.325000 0.525000 -0.170000
v 0.325000 0.575000 -0.170000
v 0.325000 0.525000 -1.070000
v 0.325000 0.575000 -1.070000
v -0.275000 -0.475000 -0.180000
v -0.275000 0.275000 -0.180000
v -0.275000 -0.475000 -0.420000
v -0.275000 0.275000 -0.420000
v 0.275000 -0.475000 -0.180000
v 0.275000 0.275000 -0.180000
v 0.275000 -0.475000 -0.420000
v 0.275000 0.275000 -0.420000
v -0.220000 -0.360000 -0.410000
v -0.220000 0.260000 -0.410000
v -0.220000 -0.360000 -0.590000
v -0.220000 0.260000 -0.590000
v 0.260000 -0.360000 -0.410000
v 0.260000 0.260000 -0.410000
v 0.260000 -0.360000 -0.590000
v 0.260000 0.260000 -0.590000
vn -1.0000 -0.0000 -0.0000
vn -0.0000 -0.0000 -1.0000
vn 1.0000 -0.0000 -0.0000
vn -0.0000 -0.0000 1.0000
vn -0.0000 -1.0000 -0.0000
vn -0.0000 1.0000 -0.0000
vt 0.375000 0.000000
vt 0.625000 0.000000
vt 0.625000 0.250000
vt 0.375000 0.250000
vt 0.625000 0.500000
vt 0.375000 0.500000
vt 0.625000 0.750000
vt 0.375000 0.750000
vt 0.625000 1.000000
vt 0.375000 1.000000
vt 0.125000 0.500000
vt 0.125000 0.750000
vt 0.875000 0.500000
vt 0.875000 0.750000
s 0
usemtl Mat_SteelBeam
f 1/1/1 2/2/1 4/3/1 3/4/1
f 3/4/2 4/3/2 8/5/2 7/6/2
f 7/6/3 8/5/3 6/7/3 5/8/3
f 5/8/4 6/7/4 2/9/4 1/10/4
f 3/11/5 7/6/5 5/8/5 1/12/5
f 8/5/6 4/13/6 2/14/6 6/7/6
f 9/1/1 10/2/1 12/3/1 11/4/1
f 11/4/2 12/3/2 16/5/2 15/6/2
f 15/6/3 16/5/3 14/7/3 13/8/3
f 13/8/4 14/7/4 10/9/4 9/10/4
f 11/11/5 15/6/5 13/8/5 9/12/5
f 16/5/6 12/13/6 10/14/6 14/7/6
usemtl Mat_SuitcaseBrown
f 17/1/1 18/2/1 20/3/1 19/4/1
f 19/4/2 20/3/2 24/5/2 23/6/2
f 23/6/3 24/5/3 22/7/3 21/8/3
f 21/8/4 22/7/4 18/9/4 17/10/4
f 19/11/5 23/6/5 21/8/5 17/12/5
f 24/5/6 20/13/6 18/14/6 22/7/6
usemtl Mat_SuitcaseRed
f 25/1/1 26/2/1 28/3/1 27/4/1
f 27/4/2 28/3/2 32/5/2 31/6/2
f 31/6/3 32/5/3 30/7/3 29/8/3
f 29/8/4 30/7/4 26/9/4 25/10/4
f 27/11/5 31/6/5 29/8/5 25/12/5
f 32/5/6 28/13/6 26/14/6 30/7/6
