# Blender 4.0.2
# www.blender.org
mtllib terminal_pillar.mtl
o Terminal_Pillar
v -0.550000 -0.550000 0.000000
v -0.550000 0.550000 0.000000
v -0.550000 -0.550000 -0.500000
v -0.550000 0.550000 -0.500000
v 0.550000 -0.550000 0.000000
v 0.550000 0.550000 0.000000
v 0.550000 -0.550000 -0.500000
v 0.550000 0.550000 -0.500000
v -0.400000 -0.400000 -0.500000
v -0.400000 0.400000 -0.500000
v -0.400000 -0.400000 -6.000000
v -0.400000 0.400000 -6.000000
v 0.400000 -0.400000 -0.500000
v 0.400000 0.400000 -0.500000
v 0.400000 -0.400000 -6.000000
v 0.400000 0.400000 -6.000000
v -0.550000 -0.550000 -6.000000
v -0.550000 0.550000 -6.000000
v -0.550000 -0.550000 -6.300000
v -0.550000 0.550000 -6.300000
v 0.550000 -0.550000 -6.000000
v 0.550000 0.550000 -6.000000
v 0.550000 -0.550000 -6.300000
v 0.550000 0.550000 -6.300000
v -0.120000 0.390000 -2.840000
v -0.120000 0.510000 -2.840000
v -0.120000 0.390000 -3.160000
v -0.120000 0.510000 -3.160000
v 0.120000 0.390000 -2.840000
v 0.120000 0.510000 -2.840000
v 0.120000 0.390000 -3.160000
v 0.120000 0.510000 -3.160000
v 0.000000 0.610000 -3.060000
v 0.000000 0.610000 -2.940000
v 0.026788 0.604672 -3.060000
v 0.026788 0.604672 -2.940000
v 0.049497 0.589498 -3.060000
v 0.049497 0.589498 -2.940000
v 0.064672 0.566788 -3.060000
v 0.064672 0.566788 -2.940000
v 0.070000 0.540000 -3.060000
v 0.070000 0.540000 -2.940000
v 0.064672 0.513212 -3.060000
v 0.064672 0.513212 -2.940000
v 0.049497 0.490503 -3.060000
v 0.049497 0.490503 -2.940000
v 0.026788 0.475328 -3.060000
v 0.026788 0.475328 -2.940000
v 0.000000 0.470000 -3.060000
v 0.000000 0.470000 -2.940000
v -0.026788 0.475328 -3.060000
v -0.026788 0.475328 -2.940000
v -0.049497 0.490503 -3.060000
v -0.049497 0.490503 -2.940000
v -0.064672 0.513212 -3.060000
v -0.064672 0.513212 -2.940000
v -0.070000 0.540000 -3.060000
v -0.070000 0.540000 -2.940000
v -0.064672 0.566788 -3.060000
v -0.064672 0.566788 -2.940000
v -0.049497 0.589498 -3.060000
v -0.049497 0.589498 -2.940000
v -0.026788 0.604672 -3.060000
v -0.026788 0.604672 -2.940000
vn -1.0000 -0.0000 -0.0000
vn -0.0000 -0.0000 -1.0000
vn 1.0000 -0.0000 -0.0000
vn -0.0000 -0.0000 1.0000
vn -0.0000 -1.0000 -0.0000
vn -0.0000 1.0000 -0.0000
vn 0.1951 0.9808 -0.0000
vn 0.5556 0.8315 -0.0000
vn 0.8315 0.5556 -0.0000
vn 0.9808 0.1951 -0.0000
vn 0.9808 -0.1951 -0.0000
vn 0.8315 -0.5556 -0.0000
vn 0.5556 -0.8315 -0.0000
vn 0.1951 -0.9808 -0.0000
vn -0.1951 -0.9808 -0.0000
vn -0.5556 -0.8315 -0.0000
vn -0.8315 -0.5556 -0.0000
vn -0.9808 -0.1951 -0.0000
vn -0.9808 0.1951 -0.0000
vn -0.8315 0.5556 -0.0000
vn -0.5556 0.8315 -0.0000
vn -0.1951 0.9808 -0.0000
vt 0.375000 0.000000
vt 0.625000 0.000000
vt 0.625000 0.250000
vt 0.375000 0.250000
vt 0.625000 0.500000
vt 0.375000 0.500000
vt 0.625000 0.750000
vt 0.375000 0.750000
vt 0.625000 1.000000
vt 0.375000 1.000000
vt 0.125000 0.500000
vt 0.125000 0.750000
vt 0.875000 0.500000
vt 0.875000 0.750000
vt 1.000000 0.500000
vt 1.000000 1.000000
vt 0.937500 1.000000
vt 0.937500 0.500000
vt 0.875000 1.000000
vt 0.812500 1.000000
vt 0.812500 0.500000
vt 0.750000 1.000000
vt 0.750000 0.500000
vt 0.687500 1.000000
vt 0.687500 0.500000
vt 0.562500 1.000000
vt 0.562500 0.500000
vt 0.500000 1.000000
vt 0.500000 0.500000
vt 0.437500 1.000000
vt 0.437500 0.500000
vt 0.312500 1.000000
vt 0.312500 0.500000
vt 0.250000 1.000000
vt 0.250000 0.500000
vt 0.187500 1.000000
vt 0.187500 0.500000
vt 0.125000 1.000000
vt 0.341844 0.471731
vt 0.250000 0.490000
vt 0.158156 0.471731
vt 0.080294 0.419706
vt 0.028269 0.341844
vt 0.010000 0.250000
vt 0.028269 0.158156
vt 0.080294 0.080294
vt 0.158156 0.028269
vt 0.250000 0.010000
vt 0.341844 0.028269
vt 0.419706 0.080294
vt 0.471731 0.158156
vt 0.490000 0.250000
vt 0.471731 0.341844
vt 0.419706 0.419706
vt 0.062500 1.000000
vt 0.062500 0.500000
vt 0.000000 1.000000
vt 0.000000 0.500000
vt 0.750000 0.490000
vt 0.841844 0.471731
vt 0.919706 0.419706
vt 0.971731 0.341844
vt 0.990000 0.250000
vt 0.971731 0.158156
vt 0.919706 0.080294
vt 0.841844 0.028269
vt 0.750000 0.010000
vt 0.658156 0.028269
vt 0.580294 0.080294
vt 0.528269 0.158156
vt 0.510000 0.250000
vt 0.528269 0.341844
vt 0.580294 0.419706
vt 0.658156 0.471731
s 0
usemtl Mat_SteelBeam
f 1/1/1 2/2/1 4/3/1 3/4/1
f 3/4/2 4/3/2 8/5/2 7/6/2
f 7/6/3 8/5/3 6/7/3 5/8/3
f 5/8/4 6/7/4 2/9/4 1/10/4
f 3/11/5 7/6/5 5/8/5 1/12/5
f 8/5/6 4/13/6 2/14/6 6/7/6
f 17/1/1 18/2/1 20/3/1 19/4/1
f 19/4/2 20/3/2 24/5/2 23/6/2
f 23/6/3 24/5/3 22/7/3 21/8/3
f 21/8/4 22/7/4 18/9/4 17/10/4
f 19/11/5 23/6/5 21/8/5 17/12/5
f 24/5/6 20/13/6 18/14/6 22/7/6
f 25/1/1 26/2/1 28/3/1 27/4/1
f 27/4/2 28/3/2 32/5/2 31/6/2
f 31/6/3 32/5/3 30/7/3 29/8/3
f 29/8/4 30/7/4 26/9/4 25/10/4
f 27/11/5 31/6/5 29/8/5 25/12/5
f 32/5/6 28/13/6 26/14/6 30/7/6
usemtl Mat_ConcretePillar
f 9/1/1 10/2/1 12/3/1 11/4/1
f 11/4/2 12/3/2 16/5/2 15/6/2
f 15/6/3 16/5/3 14/7/3 13/8/3
f 13/8/4 14/7/4 10/9/4 9/10/4
f 11/11/5 15/6/5 13/8/5 9/12/5
f 16/5/6 12/13/6 10/14/6 14/7/6
usemtl Mat_EmergencyBeacon
f 33/15/7 34/16/7 36/17/7 35/18/7
f 35/18/8 36/17/8 38/19/8 37/13/8
f 37/13/9 38/19/9 40/20/9 39/21/9
f 39/21/10 40/20/10 42/22/10 41/23/10
f 41/23/11 42/22/11 44/24/11 43/25/11
f 43/25/12 44/24/12 46/9/12 45/5/12
f 45/5/13 46/9/13 48/26/13 47/27/13
f 47/27/14 48/26/14 50/28/14 49/29/14
f 49/29/15 50/28/15 52/30/15 51/31/15
f 51/31/16 52/30/16 54/10/16 53/6/16
f 53/6/17 54/10/17 56/32/17 55/33/17
f 55/33/18 56/32/18 58/34/18 57/35/18
f 57/35/19 58/34/19 60/36/19 59/37/19
f 59/37/20 60/36/20 62/38/20 61/11/20
f 36/39/4 34/40/4 64/41/4 62/42/4 60/43/4 58/44/4 56/45/4 54/46/4 52/47/4 50/48/4 48/49/4 46/50/4 44/51/4 42/52/4 40/53/4 38/54/4
f 61/11/21 62/38/21 64/55/21 63/56/21
f 63/56/22 64/55/22 34/57/22 33/58/22
f 33/59/2 35/60/2 37/61/2 39/62/2 41/63/2 43/64/2 45/65/2 47/66/2 49/67/2 51/68/2 53/69/2 55/70/2 57/71/2 59/72/2 61/73/2 63/74/2
