# Blender 4.0.2
# www.blender.org
mtllib industrial_street.mtl
o DarkIndustrialGLB
v -6.000000 -18.000000 0.100000
v -6.000000 18.000000 0.100000
v -6.000000 -18.000000 -0.100000
v -6.000000 18.000000 -0.100000
v 6.000000 -18.000000 0.100000
v 6.000000 18.000000 0.100000
v 6.000000 -18.000000 -0.100000
v 6.000000 18.000000 -0.100000
v -0.100000 -15.000000 -0.100000
v -0.100000 -13.000000 -0.100000
v -0.100000 -15.000000 -0.110000
v -0.100000 -13.000000 -0.110000
v 0.100000 -15.000000 -0.100000
v 0.100000 -13.000000 -0.100000
v 0.100000 -15.000000 -0.110000
v 0.100000 -13.000000 -0.110000
v -0.100000 -11.000000 -0.100000
v -0.100000 -9.000000 -0.100000
v -0.100000 -11.000000 -0.110000
v -0.100000 -9.000000 -0.110000
v 0.100000 -11.000000 -0.100000
v 0.100000 -9.000000 -0.100000
v 0.100000 -11.000000 -0.110000
v 0.100000 -9.000000 -0.110000
v -0.100000 -7.000000 -0.100000
v -0.100000 -5.000000 -0.100000
v -0.100000 -7.000000 -0.110000
v -0.100000 -5.000000 -0.110000
v 0.100000 -7.000000 -0.100000
v 0.100000 -5.000000 -0.100000
v 0.100000 -7.000000 -0.110000
v 0.100000 -5.000000 -0.110000
v -0.100000 -3.000000 -0.100000
v -0.100000 -1.000000 -0.100000
v -0.100000 -3.000000 -0.110000
v -0.100000 -1.000000 -0.110000
v 0.100000 -3.000000 -0.100000
v 0.100000 -1.000000 -0.100000
v 0.100000 -3.000000 -0.110000
v 0.100000 -1.000000 -0.110000
v -0.100000 1.000000 -0.100000
v -0.100000 3.000000 -0.100000
v -0.100000 1.000000 -0.110000
v -0.100000 3.000000 -0.110000
v 0.100000 1.000000 -0.100000
v 0.100000 3.000000 -0.100000
v 0.100000 1.000000 -0.110000
v 0.100000 3.000000 -0.110000
v -0.100000 5.000000 -0.100000
v -0.100000 7.000000 -0.100000
v -0.100000 5.000000 -0.110000
v -0.100000 7.000000 -0.110000
v 0.100000 5.000000 -0.100000
v 0.100000 7.000000 -0.100000
v 0.100000 5.000000 -0.110000
v 0.100000 7.000000 -0.110000
v -0.100000 9.000000 -0.100000
v -0.100000 11.000000 -0.100000
v -0.100000 9.000000 -0.110000
v -0.100000 11.000000 -0.110000
v 0.100000 9.000000 -0.100000
v 0.100000 11.000000 -0.100000
v 0.100000 9.000000 -0.110000
v 0.100000 11.000000 -0.110000
v -0.100000 13.000000 -0.100000
v -0.100000 15.000000 -0.100000
v -0.100000 13.000000 -0.110000
v -0.100000 15.000000 -0.110000
v 0.100000 13.000000 -0.100000
v 0.100000 15.000000 -0.100000
v 0.100000 13.000000 -0.110000
v 0.100000 15.000000 -0.110000
v -11.000000 -18.000000 0.000000
v -11.000000 18.000000 0.000000
v -11.000000 -18.000000 -0.300000
v -11.000000 18.000000 -0.300000
v -6.000000 -18.000000 0.000000
v -6.000000 18.000000 0.000000
v -6.000000 -18.000000 -0.300000
v -6.000000 18.000000 -0.300000
v 6.000000 -18.000000 0.000000
v 6.000000 18.000000 0.000000
v 6.000000 -18.000000 -0.300000
v 6.000000 18.000000 -0.300000
v 11.000000 -18.000000 0.000000
v 11.000000 18.000000 0.000000
v 11.000000 -18.000000 -0.300000
v 11.000000 18.000000 -0.300000
v -12.000000 -18.000000 0.000000
v -12.000000 18.000000 0.000000
v -12.000000 -18.000000 -9.000000
v -12.000000 18.000000 -9.000000
v -11.000000 -18.000000 0.000000
v -11.000000 18.000000 0.000000
v -11.000000 -18.000000 -9.000000
v -11.000000 18.000000 -9.000000
v -11.010000 -10.500000 -0.100000
v -11.010000 -5.500000 -0.100000
v -11.010000 -10.500000 -4.300000
v -11.010000 -5.500000 -4.300000
v -10.889999 -10.500000 -0.100000
v -10.889999 -5.500000 -0.100000
v -10.889999 -10.500000 -4.300000
v -10.889999 -5.500000 -4.300000
v -11.010000 5.500000 -0.100000
v -11.010000 10.500000 -0.100000
v -11.010000 5.500000 -4.300000
v -11.010000 10.500000 -4.300000
v -10.889999 5.500000 -0.100000
v -10.889999 10.500000 -0.100000
v -10.889999 5.500000 -4.300000
v -10.889999 10.500000 -4.300000
v -9.700000 -7.400000 -0.200000
v -9.700000 -4.600000 -0.200000
v -9.700000 -7.400000 -2.800000
v -9.700000 -4.600000 -2.800000
v -7.300000 -7.400000 -0.200000
v -7.300000 -4.600000 -0.200000
v -7.300000 -7.400000 -2.800000
v -7.300000 -4.600000 -2.800000
v -9.600000 -7.400000 -1.350000
v -9.600000 -7.300000 -1.350000
v -9.600000 -7.400000 -2.250000
v -9.600000 -7.300000 -2.250000
v -7.400000 -7.400000 -1.350000
v -7.400000 -7.300000 -1.350000
v -7.400000 -7.400000 -2.250000
v -7.400000 -7.300000 -2.250000
v -9.750000 -4.400000 -0.400000
v -9.750000 1.400000 -0.400000
v -9.750000 -4.400000 -3.600000
v -9.750000 1.400000 -3.600000
v -7.250000 -4.400000 -0.400000
v -7.250000 1.400000 -0.400000
v -7.250000 -4.400000 -3.600000
v -7.250000 1.400000 -3.600000
v -10.259999 -7.130000 -0.480000
v -10.259999 -6.870000 -0.480000
v -10.212464 -7.130000 -0.688264
v -10.212464 -6.870000 -0.688264
v -10.079275 -7.130000 -0.855279
v -10.079275 -6.870000 -0.855279
v -9.886809 -7.130000 -0.947965
v -9.886809 -6.870000 -0.947965
v -9.673190 -7.130000 -0.947965
v -9.673190 -6.870000 -0.947965
v -9.480724 -7.130000 -0.855279
v -9.480724 -6.870000 -0.855279
v -9.347535 -7.130000 -0.688264
v -9.347535 -6.870000 -0.688264
v -9.300000 -7.130000 -0.480000
v -9.300000 -6.870000 -0.480000
v -9.347535 -7.130000 -0.271736
v -9.347535 -6.870000 -0.271736
v -9.480724 -7.130000 -0.104721
v -9.480724 -6.870000 -0.104721
v -9.673190 -7.130000 -0.012035
v -9.673190 -6.870000 -0.012035
v -9.886809 -7.130000 -0.012035
v -9.886809 -6.870000 -0.012035
v -10.079275 -7.130000 -0.104721
v -10.079275 -6.870000 -0.104721
v -10.212464 -7.130000 -0.271736
v -10.212464 -6.870000 -0.271736
v -7.700000 -7.130000 -0.480000
v -7.700000 -6.870000 -0.480000
v -7.652465 -7.130000 -0.688264
v -7.652465 -6.870000 -0.688264
v -7.519275 -7.130000 -0.855279
v -7.519275 -6.870000 -0.855279
v -7.326810 -7.130000 -0.947965
v -7.326810 -6.870000 -0.947965
v -7.113190 -7.130000 -0.947965
v -7.113190 -6.870000 -0.947965
v -6.920725 -7.130000 -0.855279
v -6.920725 -6.870000 -0.855279
v -6.787535 -7.130000 -0.688264
v -6.787535 -6.870000 -0.688264
v -6.740000 -7.130000 -0.480000
v -6.740000 -6.870000 -0.480000
v -6.787535 -7.130000 -0.271736
v -6.787535 -6.870000 -0.271736
v -6.920725 -7.130000 -0.104721
v -6.920725 -6.870000 -0.104721
v -7.113190 -7.130000 -0.012035
v -7.113190 -6.870000 -0.012035
v -7.326810 -7.130000 -0.012035
v -7.326810 -6.870000 -0.012035
v -7.519275 -7.130000 -0.104721
v -7.519275 -6.870000 -0.104721
v -7.652465 -7.130000 -0.271736
v -7.652465 -6.870000 -0.271736
v -10.259999 -5.130000 -0.480000
v -10.259999 -4.870000 -0.480000
v -10.212464 -5.130000 -0.688264
v -10.212464 -4.870000 -0.688264
v -10.079275 -5.130000 -0.855279
v -10.079275 -4.870000 -0.855279
v -9.886809 -5.130000 -0.947965
v -9.886809 -4.870000 -0.947965
v -9.673190 -5.130000 -0.947965
v -9.673190 -4.870000 -0.947965
v -9.480724 -5.130000 -0.855279
v -9.480724 -4.870000 -0.855279
v -9.347535 -5.130000 -0.688264
v -9.347535 -4.870000 -0.688264
v -9.300000 -5.130000 -0.480000
v -9.300000 -4.870000 -0.480000
v -9.347535 -5.130000 -0.271736
v -9.347535 -4.870000 -0.271736
v -9.480724 -5.130000 -0.104721
v -9.480724 -4.870000 -0.104721
v -9.673190 -5.130000 -0.012035
v -9.673190 -4.870000 -0.012035
v -9.886809 -5.130000 -0.012035
v -9.886809 -4.870000 -0.012035
v -10.079275 -5.130000 -0.104721
v -10.079275 -4.870000 -0.104721
v -10.212464 -5.130000 -0.271736
v -10.212464 -4.870000 -0.271736
v -7.700000 -5.130000 -0.480000
v -7.700000 -4.870000 -0.480000
v -7.652465 -5.130000 -0.688264
v -7.652465 -4.870000 -0.688264
v -7.519275 -5.130000 -0.855279
v -7.519275 -4.870000 -0.855279
v -7.326810 -5.130000 -0.947965
v -7.326810 -4.870000 -0.947965
v -7.113190 -5.130000 -0.947965
v -7.113190 -4.870000 -0.947965
v -6.920725 -5.130000 -0.855279
v -6.920725 -4.870000 -0.855279
v -6.787535 -5.130000 -0.688264
v -6.787535 -4.870000 -0.688264
v -6.740000 -5.130000 -0.480000
v -6.740000 -4.870000 -0.480000
v -6.787535 -5.130000 -0.271736
v -6.787535 -4.870000 -0.271736
v -6.920725 -5.130000 -0.104721
v -6.920725 -4.870000 -0.104721
v -7.113190 -5.130000 -0.012035
v -7.113190 -4.870000 -0.012035
v -7.326810 -5.130000 -0.012035
v -7.326810 -4.870000 -0.012035
v -7.519275 -5.130000 -0.104721
v -7.519275 -4.870000 -0.104721
v -7.652465 -5.130000 -0.271736
v -7.652465 -4.870000 -0.271736
v -10.259999 -3.130000 -0.480000
v -10.259999 -2.870000 -0.480000
v -10.212464 -3.130000 -0.688264
v -10.212464 -2.870000 -0.688264
v -10.079275 -3.130000 -0.855279
v -10.079275 -2.870000 -0.855279
v -9.886809 -3.130000 -0.947965
v -9.886809 -2.870000 -0.947965
v -9.673190 -3.130000 -0.947965
v -9.673190 -2.870000 -0.947965
v -9.480724 -3.130000 -0.855279
v -9.480724 -2.870000 -0.855279
v -9.347535 -3.130000 -0.688264
v -9.347535 -2.870000 -0.688264
v -9.300000 -3.130000 -0.480000
v -9.300000 -2.870000 -0.480000
v -9.347535 -3.130000 -0.271736
v -9.347535 -2.870000 -0.271736
v -9.480724 -3.130000 -0.104721
v -9.480724 -2.870000 -0.104721
v -9.673190 -3.130000 -0.012035
v -9.673190 -2.870000 -0.012035
v -9.886809 -3.130000 -0.012035
v -9.886809 -2.870000 -0.012035
v -10.079275 -3.130000 -0.104721
v -10.079275 -2.870000 -0.104721
v -10.212464 -3.130000 -0.271736
v -10.212464 -2.870000 -0.271736
v -7.700000 -3.130000 -0.480000
v -7.700000 -2.870000 -0.480000
v -7.652465 -3.130000 -0.688264
v -7.652465 -2.870000 -0.688264
v -7.519275 -3.130000 -0.855279
v -7.519275 -2.870000 -0.855279
v -7.326810 -3.130000 -0.947965
v -7.326810 -2.870000 -0.947965
v -7.113190 -3.130000 -0.947965
v -7.113190 -2.870000 -0.947965
v -6.920725 -3.130000 -0.855279
v -6.920725 -2.870000 -0.855279
v -6.787535 -3.130000 -0.688264
v -6.787535 -2.870000 -0.688264
v -6.740000 -3.130000 -0.480000
v -6.740000 -2.870000 -0.480000
v -6.787535 -3.130000 -0.271736
v -6.787535 -2.870000 -0.271736
v -6.920725 -3.130000 -0.104721
v -6.920725 -2.870000 -0.104721
v -7.113190 -3.130000 -0.012035
v -7.113190 -2.870000 -0.012035
v -7.326810 -3.130000 -0.012035
v -7.326810 -2.870000 -0.012035
v -7.519275 -3.130000 -0.104721
v -7.519275 -2.870000 -0.104721
v -7.652465 -3.130000 -0.271736
v -7.652465 -2.870000 -0.271736
v -10.259999 0.370000 -0.480000
v -10.259999 0.630000 -0.480000
v -10.212464 0.370000 -0.688264
v -10.212464 0.630000 -0.688264
v -10.079275 0.370000 -0.855279
v -10.079275 0.630000 -0.855279
v -9.886809 0.370000 -0.947965
v -9.886809 0.630000 -0.947965
v -9.673190 0.370000 -0.947965
v -9.673190 0.630000 -0.947965
v -9.480724 0.370000 -0.855279
v -9.480724 0.630000 -0.855279
v -9.347535 0.370000 -0.688264
v -9.347535 0.630000 -0.688264
v -9.300000 0.370000 -0.480000
v -9.300000 0.630000 -0.480000
v -9.347535 0.370000 -0.271736
v -9.347535 0.630000 -0.271736
v -9.480724 0.370000 -0.104721
v -9.480724 0.630000 -0.104721
v -9.673190 0.370000 -0.012035
v -9.673190 0.630000 -0.012035
v -9.886809 0.370000 -0.012035
v -9.886809 0.630000 -0.012035
v -10.079275 0.370000 -0.104721
v -10.079275 0.630000 -0.104721
v -10.212464 0.370000 -0.271736
v -10.212464 0.630000 -0.271736
v -7.700000 0.370000 -0.480000
v -7.700000 0.630000 -0.480000
v -7.652465 0.370000 -0.688264
v -7.652465 0.630000 -0.688264
v -7.519275 0.370000 -0.855279
v -7.519275 0.630000 -0.855279
v -7.326810 0.370000 -0.947965
v -7.326810 0.630000 -0.947965
v -7.113190 0.370000 -0.947965
v -7.113190 0.630000 -0.947965
v -6.920725 0.370000 -0.855279
v -6.920725 0.630000 -0.855279
v -6.787535 0.370000 -0.688264
v -6.787535 0.630000 -0.688264
v -6.740000 0.370000 -0.480000
v -6.740000 0.630000 -0.480000
v -6.787535 0.370000 -0.271736
v -6.787535 0.630000 -0.271736
v -6.920725 0.370000 -0.104721
v -6.920725 0.630000 -0.104721
v -7.113190 0.370000 -0.012035
v -7.113190 0.630000 -0.012035
v -7.326810 0.370000 -0.012035
v -7.326810 0.630000 -0.012035
v -7.519275 0.370000 -0.104721
v -7.519275 0.630000 -0.104721
v -7.652465 0.370000 -0.271736
v -7.652465 0.630000 -0.271736
v 6.600000 -11.200000 -0.150000
v 6.600000 -8.800000 -0.150000
v 6.600000 -11.200000 -1.550000
v 6.600000 -8.800000 -1.550000
v 8.400000 -11.200000 -0.150000
v 8.400000 -8.800000 -0.150000
v 8.400000 -11.200000 -1.550000
v 8.400000 -8.800000 -1.550000
v 6.900000 -8.100000 -0.030000
v 6.900000 -6.900000 -0.030000
v 6.900000 -8.100000 -0.210000
v 6.900000 -6.900000 -0.210000
v 8.100000 -8.100000 -0.030000
v 8.100000 -6.900000 -0.030000
v 8.100000 -8.100000 -0.210000
v 8.100000 -6.900000 -0.210000
v 6.600000 8.800000 -0.150000
v 6.600000 11.200000 -0.150000
v 6.600000 8.800000 -1.550000
v 6.600000 11.200000 -1.550000
v 8.400000 8.800000 -0.150000
v 8.400000 11.200000 -0.150000
v 8.400000 8.800000 -1.550000
v 8.400000 11.200000 -1.550000
v 6.900000 11.900000 -0.030000
v 6.900000 13.100000 -0.030000
v 6.900000 11.900000 -0.210000
v 6.900000 13.100000 -0.210000
v 8.100000 11.900000 -0.030000
v 8.100000 13.100000 -0.030000
v 8.100000 11.900000 -0.210000
v 8.100000 13.100000 -0.210000
vn -1.0000 -0.0000 -0.0000
vn -0.0000 -0.0000 -1.0000
vn 1.0000 -0.0000 -0.0000
vn -0.0000 -0.0000 1.0000
vn -0.0000 -1.0000 -0.0000
vn -0.0000 1.0000 -0.0000
vn -0.7510 -0.6603 -0.0000
vn -0.7510 0.6603 -0.0000
vn -0.6766 0.6603 -0.3259
vn -0.6766 -0.6603 -0.3259
vn -0.4683 0.6603 -0.5872
vn -0.4683 -0.6603 -0.5872
vn -0.1671 0.6603 -0.7322
vn -0.1671 -0.6603 -0.7322
vn 0.1671 0.6603 -0.7322
vn 0.1671 -0.6603 -0.7322
vn 0.4683 0.6603 -0.5872
vn 0.4683 -0.6603 -0.5872
vn 0.6766 0.6603 -0.3259
vn 0.6766 -0.6603 -0.3259
vn 0.7510 0.6603 -0.0000
vn 0.7510 -0.6603 -0.0000
vn 0.6766 0.6603 0.3259
vn 0.6766 -0.6603 0.3259
vn 0.4683 0.6603 0.5872
vn 0.4683 -0.6603 0.5872
vn 0.1671 0.6603 0.7322
vn 0.1671 -0.6603 0.7322
vn -0.1671 0.6603 0.7322
vn -0.1671 -0.6603 0.7322
vn -0.4683 0.6603 0.5872
vn -0.4683 -0.6603 0.5872
vn -0.6766 0.6603 0.3259
vn -0.6766 -0.6603 0.3259
vt 0.375000 0.000000
vt 0.625000 0.000000
vt 0.625000 0.250000
vt 0.375000 0.250000
vt 0.625000 0.500000
vt 0.375000 0.500000
vt 0.625000 0.750000
vt 0.375000 0.750000
vt 0.625000 1.000000
vt 0.375000 1.000000
vt 0.125000 0.500000
vt 0.125000 0.750000
vt 0.875000 0.500000
vt 0.875000 0.750000
vt 1.000000 0.500000
vt 1.000000 1.000000
vt 0.928571 1.000000
vt 0.928571 0.500000
vt 0.857143 1.000000
vt 0.857143 0.500000
vt 0.785714 1.000000
vt 0.785714 0.500000
vt 0.714286 1.000000
vt 0.714286 0.500000
vt 0.642857 1.000000
vt 0.642857 0.500000
vt 0.571428 1.000000
vt 0.571428 0.500000
vt 0.500000 1.000000
vt 0.500000 0.500000
vt 0.428571 1.000000
vt 0.428571 0.500000
vt 0.357143 1.000000
vt 0.357143 0.500000
vt 0.285714 1.000000
vt 0.285714 0.500000
vt 0.214286 1.000000
vt 0.214286 0.500000
vt 0.142857 1.000000
vt 0.142857 0.500000
vt 0.354132 0.466233
vt 0.250000 0.490000
vt 0.145868 0.466233
vt 0.062360 0.399638
vt 0.016017 0.303405
vt 0.016017 0.196595
vt 0.062360 0.100362
vt 0.145868 0.033767
vt 0.250000 0.010000
vt 0.354132 0.033767
vt 0.437640 0.100362
vt 0.483983 0.196595
vt 0.483983 0.303405
vt 0.437640 0.399638
vt 0.071428 1.000000
vt 0.071428 0.500000
vt -0.000000 1.000000
vt -0.000000 0.500000
vt 0.750000 0.490000
vt 0.854132 0.466233
vt 0.937640 0.399638
vt 0.983983 0.303405
vt 0.983983 0.196595
vt 0.937640 0.100362
vt 0.854132 0.033767
vt 0.750000 0.010000
vt 0.645868 0.033767
vt 0.562360 0.100362
vt 0.516017 0.196595
vt 0.516017 0.303405
vt 0.562360 0.399638
vt 0.645868 0.466233
s 0
usemtl Mat_AsphaltRoad
f 1/1/1 2/2/1 4/3/1 3/4/1
f 3/4/2 4/3/2 8/5/2 7/6/2
f 7/6/3 8/5/3 6/7/3 5/8/3
f 5/8/4 6/7/4 2/9/4 1/10/4
f 3/11/5 7/6/5 5/8/5 1/12/5
f 8/5/6 4/13/6 2/14/6 6/7/6
usemtl Mat_WhiteLine
f 9/1/1 10/2/1 12/3/1 11/4/1
f 11/4/2 12/3/2 16/5/2 15/6/2
f 15/6/3 16/5/3 14/7/3 13/8/3
f 13/8/4 14/7/4 10/9/4 9/10/4
f 11/11/5 15/6/5 13/8/5 9/12/5
f 16/5/6 12/13/6 10/14/6 14/7/6
f 17/1/1 18/2/1 20/3/1 19/4/1
f 19/4/2 20/3/2 24/5/2 23/6/2
f 23/6/3 24/5/3 22/7/3 21/8/3
f 21/8/4 22/7/4 18/9/4 17/10/4
f 19/11/5 23/6/5 21/8/5 17/12/5
f 24/5/6 20/13/6 18/14/6 22/7/6
f 25/1/1 26/2/1 28/3/1 27/4/1
f 27/4/2 28/3/2 32/5/2 31/6/2
f 31/6/3 32/5/3 30/7/3 29/8/3
f 29/8/4 30/7/4 26/9/4 25/10/4
f 27/11/5 31/6/5 29/8/5 25/12/5
f 32/5/6 28/13/6 26/14/6 30/7/6
f 33/1/1 34/2/1 36/3/1 35/4/1
f 35/4/2 36/3/2 40/5/2 39/6/2
f 39/6/3 40/5/3 38/7/3 37/8/3
f 37/8/4 38/7/4 34/9/4 33/10/4
f 35/11/5 39/6/5 37/8/5 33/12/5
f 40/5/6 36/13/6 34/14/6 38/7/6
f 41/1/1 42/2/1 44/3/1 43/4/1
f 43/4/2 44/3/2 48/5/2 47/6/2
f 47/6/3 48/5/3 46/7/3 45/8/3
f 45/8/4 46/7/4 42/9/4 41/10/4
f 43/11/5 47/6/5 45/8/5 41/12/5
f 48/5/6 44/13/6 42/14/6 46/7/6
f 49/1/1 50/2/1 52/3/1 51/4/1
f 51/4/2 52/3/2 56/5/2 55/6/2
f 55/6/3 56/5/3 54/7/3 53/8/3
f 53/8/4 54/7/4 50/9/4 49/10/4
f 51/11/5 55/6/5 53/8/5 49/12/5
f 56/5/6 52/13/6 50/14/6 54/7/6
f 57/1/1 58/2/1 60/3/1 59/4/1
f 59/4/2 60/3/2 64/5/2 63/6/2
f 63/6/3 64/5/3 62/7/3 61/8/3
f 61/8/4 62/7/4 58/9/4 57/10/4
f 59/11/5 63/6/5 61/8/5 57/12/5
f 64/5/6 60/13/6 58/14/6 62/7/6
f 65/1/1 66/2/1 68/3/1 67/4/1
f 67/4/2 68/3/2 72/5/2 71/6/2
f 71/6/3 72/5/3 70/7/3 69/8/3
f 69/8/4 70/7/4 66/9/4 65/10/4
f 67/11/5 71/6/5 69/8/5 65/12/5
f 72/5/6 68/13/6 66/14/6 70/7/6
usemtl Mat_ConcreteSidewalk
f 73/1/1 74/2/1 76/3/1 75/4/1
f 75/4/2 76/3/2 80/5/2 79/6/2
f 79/6/3 80/5/3 78/7/3 77/8/3
f 77/8/4 78/7/4 74/9/4 73/10/4
f 75/11/5 79/6/5 77/8/5 73/12/5
f 80/5/6 76/13/6 74/14/6 78/7/6
f 81/1/1 82/2/1 84/3/1 83/4/1
f 83/4/2 84/3/2 88/5/2 87/6/2
f 87/6/3 88/5/3 86/7/3 85/8/3
f 85/8/4 86/7/4 82/9/4 81/10/4
f 83/11/5 87/6/5 85/8/5 81/12/5
f 88/5/6 84/13/6 82/14/6 86/7/6
usemtl Mat_WarehouseWall
f 89/1/1 90/2/1 92/3/1 91/4/1
f 91/4/2 92/3/2 96/5/2 95/6/2
f 95/6/3 96/5/3 94/7/3 93/8/3
f 93/8/4 94/7/4 90/9/4 89/10/4
f 91/11/5 95/6/5 93/8/5 89/12/5
f 96/5/6 92/13/6 90/14/6 94/7/6
usemtl Mat_IndustrialMetal
f 97/1/1 98/2/1 100/3/1 99/4/1
f 99/4/2 100/3/2 104/5/2 103/6/2
f 103/6/3 104/5/3 102/7/3 101/8/3
f 101/8/4 102/7/4 98/9/4 97/10/4
f 99/11/5 103/6/5 101/8/5 97/12/5
f 104/5/6 100/13/6 98/14/6 102/7/6
f 105/1/1 106/2/1 108/3/1 107/4/1
f 107/4/2 108/3/2 112/5/2 111/6/2
f 111/6/3 112/5/3 110/7/3 109/8/3
f 109/8/4 110/7/4 106/9/4 105/10/4
f 107/11/5 111/6/5 109/8/5 105/12/5
f 112/5/6 108/13/6 106/14/6 110/7/6
f 369/1/1 370/2/1 372/3/1 371/4/1
f 371/4/2 372/3/2 376/5/2 375/6/2
f 375/6/3 376/5/3 374/7/3 373/8/3
f 373/8/4 374/7/4 370/9/4 369/10/4
f 371/11/5 375/6/5 373/8/5 369/12/5
f 376/5/6 372/13/6 370/14/6 374/7/6
f 385/1/1 386/2/1 388/3/1 387/4/1
f 387/4/2 388/3/2 392/5/2 391/6/2
f 391/6/3 392/5/3 390/7/3 389/8/3
f 389/8/4 390/7/4 386/9/4 385/10/4
f 387/11/5 391/6/5 389/8/5 385/12/5
f 392/5/6 388/13/6 386/14/6 390/7/6
usemtl Mat_TruckPaint
f 113/1/1 114/2/1 116/3/1 115/4/1
f 115/4/2 116/3/2 120/5/2 119/6/2
f 119/6/3 120/5/3 118/7/3 117/8/3
f 117/8/4 118/7/4 114/9/4 113/10/4
f 115/11/5 119/6/5 117/8/5 113/12/5
f 120/5/6 116/13/6 114/14/6 118/7/6
f 129/1/1 130/2/1 132/3/1 131/4/1
f 131/4/2 132/3/2 136/5/2 135/6/2
f 135/6/3 136/5/3 134/7/3 133/8/3
f 133/8/4 134/7/4 130/9/4 129/10/4
f 131/11/5 135/6/5 133/8/5 129/12/5
f 136/5/6 132/13/6 130/14/6 134/7/6
usemtl Mat_IndustrialGlass
f 121/1/1 122/2/1 124/3/1 123/4/1
f 123/4/2 124/3/2 128/5/2 127/6/2
f 127/6/3 128/5/3 126/7/3 125/8/3
f 125/8/4 126/7/4 122/9/4 121/10/4
f 123/11/5 127/6/5 125/8/5 121/12/5
f 128/5/6 124/13/6 122/14/6 126/7/6
s 1
usemtl Mat_TruckWheel
f 137/15/7 138/16/8 140/17/9 139/18/10
f 139/18/10 140/17/9 142/19/11 141/20/12
f 141/20/12 142/19/11 144/21/13 143/22/14
f 143/22/14 144/21/13 146/23/15 145/24/16
f 145/24/16 146/23/15 148/25/17 147/26/18
f 147/26/18 148/25/17 150/27/19 149/28/20
f 149/28/20 150/27/19 152/29/21 151/30/22
f 151/30/22 152/29/21 154/31/23 153/32/24
f 153/32/24 154/31/23 156/33/25 155/34/26
f 155/34/26 156/33/25 158/35/27 157/36/28
f 157/36/28 158/35/27 160/37/29 159/38/30
f 159/38/30 160/37/29 162/39/31 161/40/32
f 140/41/9 138/42/8 164/43/33 162/44/31 160/45/29 158/46/27 156/47/25 154/48/23 152/49/21 150/50/19 148/51/17 146/52/15 144/53/13 142/54/11
f 161/40/32 162/39/31 164/55/33 163/56/34
f 163/56/34 164/55/33 138/57/8 137/58/7
f 137/59/7 139/60/10 141/61/12 143/62/14 145/63/16 147/64/18 149/65/20 151/66/22 153/67/24 155/68/26 157/69/28 159/70/30 161/71/32 163/72/34
f 165/15/7 166/16/8 168/17/9 167/18/10
f 167/18/10 168/17/9 170/19/11 169/20/12
f 169/20/12 170/19/11 172/21/13 171/22/14
f 171/22/14 172/21/13 174/23/15 173/24/16
f 173/24/16 174/23/15 176/25/17 175/26/18
f 175/26/18 176/25/17 178/27/19 177/28/20
f 177/28/20 178/27/19 180/29/21 179/30/22
f 179/30/22 180/29/21 182/31/23 181/32/24
f 181/32/24 182/31/23 184/33/25 183/34/26
f 183/34/26 184/33/25 186/35/27 185/36/28
f 185/36/28 186/35/27 188/37/29 187/38/30
f 187/38/30 188/37/29 190/39/31 189/40/32
f 168/41/9 166/42/8 192/43/33 190/44/31 188/45/29 186/46/27 184/47/25 182/48/23 180/49/21 178/50/19 176/51/17 174/52/15 172/53/13 170/54/11
f 189/40/32 190/39/31 192/55/33 191/56/34
f 191/56/34 192/55/33 166/57/8 165/58/7
f 165/59/7 167/60/10 169/61/12 171/62/14 173/63/16 175/64/18 177/65/20 179/66/22 181/67/24 183/68/26 185/69/28 187/70/30 189/71/32 191/72/34
f 193/15/7 194/16/8 196/17/9 195/18/10
f 195/18/10 196/17/9 198/19/11 197/20/12
f 197/20/12 198/19/11 200/21/13 199/22/14
f 199/22/14 200/21/13 202/23/15 201/24/16
f 201/24/16 202/23/15 204/25/17 203/26/18
f 203/26/18 204/25/17 206/27/19 205/28/20
f 205/28/20 206/27/19 208/29/21 207/30/22
f 207/30/22 208/29/21 210/31/23 209/32/24
f 209/32/24 210/31/23 212/33/25 211/34/26
f 211/34/26 212/33/25 214/35/27 213/36/28
f 213/36/28 214/35/27 216/37/29 215/38/30
f 215/38/30 216/37/29 218/39/31 217/40/32
f 196/41/9 194/42/8 220/43/33 218/44/31 216/45/29 214/46/27 212/47/25 210/48/23 208/49/21 206/50/19 204/51/17 202/52/15 200/53/13 198/54/11
f 217/40/32 218/39/31 220/55/33 219/56/34
f 219/56/34 220/55/33 194/57/8 193/58/7
f 193/59/7 195/60/10 197/61/12 199/62/14 201/63/16 203/64/18 205/65/20 207/66/22 209/67/24 211/68/26 213/69/28 215/70/30 217/71/32 219/72/34
f 221/15/7 222/16/8 224/17/9 223/18/10
f 223/18/10 224/17/9 226/19/11 225/20/12
f 225/20/12 226/19/11 228/21/13 227/22/14
f 227/22/14 228/21/13 230/23/15 229/24/16
f 229/24/16 230/23/15 232/25/17 231/26/18
f 231/26/18 232/25/17 234/27/19 233/28/20
f 233/28/20 234/27/19 236/29/21 235/30/22
f 235/30/22 236/29/21 238/31/23 237/32/24
f 237/32/24 238/31/23 240/33/25 239/34/26
f 239/34/26 240/33/25 242/35/27 241/36/28
f 241/36/28 242/35/27 244/37/29 243/38/30
f 243/38/30 244/37/29 246/39/31 245/40/32
f 224/41/9 222/42/8 248/43/33 246/44/31 244/45/29 242/46/27 240/47/25 238/48/23 236/49/21 234/50/19 232/51/17 230/52/15 228/53/13 226/54/11
f 245/40/32 246/39/31 248/55/33 247/56/34
f 247/56/34 248/55/33 222/57/8 221/58/7
f 221/59/7 223/60/10 225/61/12 227/62/14 229/63/16 231/64/18 233/65/20 235/66/22 237/67/24 239/68/26 241/69/28 243/70/30 245/71/32 247/72/34
f 249/15/7 250/16/8 252/17/9 251/18/10
f 251/18/10 252/17/9 254/19/11 253/20/12
f 253/20/12 254/19/11 256/21/13 255/22/14
f 255/22/14 256/21/13 258/23/15 257/24/16
f 257/24/16 258/23/15 260/25/17 259/26/18
f 259/26/18 260/25/17 262/27/19 261/28/20
f 261/28/20 262/27/19 264/29/21 263/30/22
f 263/30/22 264/29/21 266/31/23 265/32/24
f 265/32/24 266/31/23 268/33/25 267/34/26
f 267/34/26 268/33/25 270/35/27 269/36/28
f 269/36/28 270/35/27 272/37/29 271/38/30
f 271/38/30 272/37/29 274/39/31 273/40/32
f 252/41/9 250/42/8 276/43/33 274/44/31 272/45/29 270/46/27 268/47/25 266/48/23 264/49/21 262/50/19 260/51/17 258/52/15 256/53/13 254/54/11
f 273/40/32 274/39/31 276/55/33 275/56/34
f 275/56/34 276/55/33 250/57/8 249/58/7
f 249/59/7 251/60/10 253/61/12 255/62/14 257/63/16 259/64/18 261/65/20 263/66/22 265/67/24 267/68/26 269/69/28 271/70/30 273/71/32 275/72/34
f 277/15/7 278/16/8 280/17/9 279/18/10
f 279/18/10 280/17/9 282/19/11 281/20/12
f 281/20/12 282/19/11 284/21/13 283/22/14
f 283/22/14 284/21/13 286/23/15 285/24/16
f 285/24/16 286/23/15 288/25/17 287/26/18
f 287/26/18 288/25/17 290/27/19 289/28/20
f 289/28/20 290/27/19 292/29/21 291/30/22
f 291/30/22 292/29/21 294/31/23 293/32/24
f 293/32/24 294/31/23 296/33/25 295/34/26
f 295/34/26 296/33/25 298/35/27 297/36/28
f 297/36/28 298/35/27 300/37/29 299/38/30
f 299/38/30 300/37/29 302/39/31 301/40/32
f 280/41/9 278/42/8 304/43/33 302/44/31 300/45/29 298/46/27 296/47/25 294/48/23 292/49/21 290/50/19 288/51/17 286/52/15 284/53/13 282/54/11
f 301/40/32 302/39/31 304/55/33 303/56/34
f 303/56/34 304/55/33 278/57/8 277/58/7
f 277/59/7 279/60/10 281/61/12 283/62/14 285/63/16 287/64/18 289/65/20 291/66/22 293/67/24 295/68/26 297/69/28 299/70/30 301/71/32 303/72/34
f 305/15/7 306/16/8 308/17/9 307/18/10
f 307/18/10 308/17/9 310/19/11 309/20/12
f 309/20/12 310/19/11 312/21/13 311/22/14
f 311/22/14 312/21/13 314/23/15 313/24/16
f 313/24/16 314/23/15 316/25/17 315/26/18
f 315/26/18 316/25/17 318/27/19 317/28/20
f 317/28/20 318/27/19 320/29/21 319/30/22
f 319/30/22 320/29/21 322/31/23 321/32/24
f 321/32/24 322/31/23 324/33/25 323/34/26
f 323/34/26 324/33/25 326/35/27 325/36/28
f 325/36/28 326/35/27 328/37/29 327/38/30
f 327/38/30 328/37/29 330/39/31 329/40/32
f 308/41/9 306/42/8 332/43/33 330/44/31 328/45/29 326/46/27 324/47/25 322/48/23 320/49/21 318/50/19 316/51/17 314/52/15 312/53/13 310/54/11
f 329/40/32 330/39/31 332/55/33 331/56/34
f 331/56/34 332/55/33 306/57/8 305/58/7
f 305/59/7 307/60/10 309/61/12 311/62/14 313/63/16 315/64/18 317/65/20 319/66/22 321/67/24 323/68/26 325/69/28 327/70/30 329/71/32 331/72/34
f 333/15/7 334/16/8 336/17/9 335/18/10
f 335/18/10 336/17/9 338/19/11 337/20/12
f 337/20/12 338/19/11 340/21/13 339/22/14
f 339/22/14 340/21/13 342/23/15 341/24/16
f 341/24/16 342/23/15 344/25/17 343/26/18
f 343/26/18 344/25/17 346/27/19 345/28/20
f 345/28/20 346/27/19 348/29/21 347/30/22
f 347/30/22 348/29/21 350/31/23 349/32/24
f 349/32/24 350/31/23 352/33/25 351/34/26
f 351/34/26 352/33/25 354/35/27 353/36/28
f 353/36/28 354/35/27 356/37/29 355/38/30
f 355/38/30 356/37/29 358/39/31 357/40/32
f 336/41/9 334/42/8 360/43/33 358/44/31 356/45/29 354/46/27 352/47/25 350/48/23 348/49/21 346/50/19 344/51/17 342/52/15 340/53/13 338/54/11
f 357/40/32 358/39/31 360/55/33 359/56/34
f 359/56/34 360/55/33 334/57/8 333/58/7
f 333/59/7 335/60/10 337/61/12 339/62/14 341/63/16 343/64/18 345/65/20 347/66/22 349/67/24 351/68/26 353/69/28 355/70/30 357/71/32 359/72/34
s 0
usemtl Mat_DumpsterGreen
f 361/1/1 362/2/1 364/3/1 363/4/1
f 363/4/2 364/3/2 368/5/2 367/6/2
f 367/6/3 368/5/3 366/7/3 365/8/3
f 365/8/4 366/7/4 362/9/4 361/10/4
f 363/11/5 367/6/5 365/8/5 361/12/5
f 368/5/6 364/13/6 362/14/6 366/7/6
f 377/1/1 378/2/1 380/3/1 379/4/1
f 379/4/2 380/3/2 384/5/2 383/6/2
f 383/6/3 384/5/3 382/7/3 381/8/3
f 381/8/4 382/7/4 378/9/4 377/10/4
f 379/11/5 383/6/5 381/8/5 377/12/5
f 384/5/6 380/13/6 378/14/6 382/7/6
