# Blender 4.0.2
# www.blender.org
mtllib street_lamp.mtl
o Street_Lamp
v 0.000000 -0.300000 -0.520000
v 0.000000 0.300000 -0.520000
v 0.084190 -0.300000 -0.503254
v 0.084190 0.300000 -0.503254
v 0.155563 -0.300000 -0.455563
v 0.155563 0.300000 -0.455563
v 0.203253 -0.300000 -0.384190
v 0.203253 0.300000 -0.384190
v 0.220000 -0.300000 -0.300000
v 0.220000 0.300000 -0.300000
v 0.203253 -0.300000 -0.215810
v 0.203253 0.300000 -0.215810
v 0.155563 -0.300000 -0.144437
v 0.155563 0.300000 -0.144437
v 0.084190 -0.300000 -0.096747
v 0.084190 0.300000 -0.096747
v 0.000000 -0.300000 -0.080000
v 0.000000 0.300000 -0.080000
v -0.084190 -0.300000 -0.096747
v -0.084190 0.300000 -0.096747
v -0.155563 -0.300000 -0.144437
v -0.155563 0.300000 -0.144437
v -0.203253 -0.300000 -0.215810
v -0.203253 0.300000 -0.215810
v -0.220000 -0.300000 -0.300000
v -0.220000 0.300000 -0.300000
v -0.203253 -0.300000 -0.384190
v -0.203253 0.300000 -0.384190
v -0.155563 -0.300000 -0.455563
v -0.155563 0.300000 -0.455563
v -0.084190 -0.300000 -0.503254
v -0.084190 0.300000 -0.503254
v 0.000000 -2.750000 -3.300000
v 0.000000 2.750000 -3.300000
v 0.038268 -2.750000 -3.292388
v 0.038268 2.750000 -3.292388
v 0.070711 -2.750000 -3.270711
v 0.070711 2.750000 -3.270711
v 0.092388 -2.750000 -3.238268
v 0.092388 2.750000 -3.238268
v 0.100000 -2.750000 -3.200000
v 0.100000 2.750000 -3.200000
v 0.092388 -2.750000 -3.161732
v 0.092388 2.750000 -3.161732
v 0.070711 -2.750000 -3.129289
v 0.070711 2.750000 -3.129289
v 0.038268 -2.750000 -3.107612
v 0.038268 2.750000 -3.107612
v 0.000000 -2.750000 -3.100000
v 0.000000 2.750000 -3.100000
v -0.038268 -2.750000 -3.107612
v -0.038268 2.750000 -3.107612
v -0.070711 -2.750000 -3.129289
v -0.070711 2.750000 -3.129289
v -0.092388 -2.750000 -3.161732
v -0.092388 2.750000 -3.161732
v -0.100000 -2.750000 -3.200000
v -0.100000 2.750000 -3.200000
v -0.092388 -2.750000 -3.238268
v -0.092388 2.750000 -3.238268
v -0.070711 -2.750000 -3.270711
v -0.070711 2.750000 -3.270711
v -0.038268 -2.750000 -3.292388
v -0.038268 2.750000 -3.292388
v 0.000000 -0.060000 -5.740000
v 0.000000 0.060000 -5.740000
v 0.000000 -0.060000 -5.860000
v 0.000000 0.060000 -5.860000
v 1.200000 -0.060000 -5.740000
v 1.200000 0.060000 -5.740000
v 1.200000 -0.060000 -5.860000
v 1.200000 0.060000 -5.860000
v 0.900000 -0.150000 -5.625000
v 0.900000 0.150000 -5.625000
v 0.900000 -0.150000 -5.775000
v 0.900000 0.150000 -5.775000
v 1.400000 -0.150000 -5.625000
v 1.400000 0.150000 -5.625000
v 1.400000 -0.150000 -5.775000
v 1.400000 0.150000 -5.775000
v 0.930000 -0.120000 -5.600000
v 0.930000 0.120000 -5.600000
v 0.930000 -0.120000 -5.620000
v 0.930000 0.120000 -5.620000
v 1.370000 -0.120000 -5.600000
v 1.370000 0.120000 -5.600000
v 1.370000 -0.120000 -5.620000
v 1.370000 0.120000 -5.620000
vn 0.1951 -0.0000 -0.9808
vn 0.5556 -0.0000 -0.8315
vn 0.8315 -0.0000 -0.5556
vn 0.9808 -0.0000 -0.1951
vn 0.9808 -0.0000 0.1951
vn 0.8315 -0.0000 0.5556
vn 0.5556 -0.0000 0.8315
vn 0.1951 -0.0000 0.9808
vn -0.1951 -0.0000 0.9808
vn -0.5556 -0.0000 0.8315
vn -0.8315 -0.0000 0.5556
vn -0.9808 -0.0000 0.1951
vn -0.9808 -0.0000 -0.1951
vn -0.8315 -0.0000 -0.5556
vn -0.0000 1.0000 -0.0000
vn -0.5556 -0.0000 -0.8315
vn -0.1951 -0.0000 -0.9808
vn -0.0000 -1.0000 -0.0000
vn -1.0000 -0.0000 -0.0000
vn -0.0000 -0.0000 -1.0000
vn 1.0000 -0.0000 -0.0000
vn -0.0000 -0.0000 1.0000
vt 1.000000 0.500000
vt 1.000000 1.000000
vt 0.937500 1.000000
vt 0.937500 0.500000
vt 0.875000 1.000000
vt 0.875000 0.500000
vt 0.812500 1.000000
vt 0.812500 0.500000
vt 0.750000 1.000000
vt 0.750000 0.500000
vt 0.687500 1.000000
vt 0.687500 0.500000
vt 0.625000 1.000000
vt 0.625000 0.500000
vt 0.562500 1.000000
vt 0.562500 0.500000
vt 0.500000 1.000000
vt 0.500000 0.500000
vt 0.437500 1.000000
vt 0.437500 0.500000
vt 0.375000 1.000000
vt 0.375000 0.500000
vt 0.312500 1.000000
vt 0.312500 0.500000
vt 0.250000 1.000000
vt 0.250000 0.500000
vt 0.187500 1.000000
vt 0.187500 0.500000
vt 0.125000 1.000000
vt 0.125000 0.500000
vt 0.341844 0.471731
vt 0.250000 0.490000
vt 0.158156 0.471731
vt 0.080294 0.419706
vt 0.028269 0.341844
vt 0.010000 0.250000
vt 0.028269 0.158156
vt 0.080294 0.080294
vt 0.158156 0.028269
vt 0.250000 0.010000
vt 0.341844 0.028269
vt 0.419706 0.080294
vt 0.471731 0.158156
vt 0.490000 0.250000
vt 0.471731 0.341844
vt 0.419706 0.419706
vt 0.062500 1.000000
vt 0.062500 0.500000
vt 0.000000 1.000000
vt 0.000000 0.500000
vt 0.750000 0.490000
vt 0.841844 0.471731
vt 0.919706 0.419706
vt 0.971731 0.341844
vt 0.990000 0.250000
vt 0.971731 0.158156
vt 0.919706 0.080294
vt 0.841844 0.028269
vt 0.750000 0.010000
vt 0.658156 0.028269
vt 0.580294 0.080294
vt 0.528269 0.158156
vt 0.510000 0.250000
vt 0.528269 0.341844
vt 0.580294 0.419706
vt 0.658156 0.471731
vt 0.341844 0.471731
vt 0.158156 0.471731
vt 0.028269 0.341844
vt 0.010000 0.250000
vt 0.028269 0.158156
vt 0.158156 0.028269
vt 0.250000 0.010000
vt 0.341844 0.028269
vt 0.471731 0.158156
vt 0.471731 0.341844
vt 0.841844 0.471731
vt 0.841844 0.028269
vt 0.750000 0.010000
vt 0.658156 0.028269
vt 0.658156 0.471731
vt 0.375000 0.000000
vt 0.625000 0.000000
vt 0.625000 0.250000
vt 0.375000 0.250000
vt 0.625000 0.750000
vt 0.375000 0.750000
vt 0.125000 0.750000
vt 0.875000 0.750000
s 0
usemtl Mat_GalvanizedSteel
f 1/1/1 2/2/1 4/3/1 3/4/1
f 3/4/2 4/3/2 6/5/2 5/6/2
f 5/6/3 6/5/3 8/7/3 7/8/3
f 7/8/4 8/7/4 10/9/4 9/10/4
f 9/10/5 10/9/5 12/11/5 11/12/5
f 11/12/6 12/11/6 14/13/6 13/14/6
f 13/14/7 14/13/7 16/15/7 15/16/7
f 15/16/8 16/15/8 18/17/8 17/18/8
f 17/18/9 18/17/9 20/19/9 19/20/9
f 19/20/10 20/19/10 22/21/10 21/22/10
f 21/22/11 22/21/11 24/23/11 23/24/11
f 23/24/12 24/23/12 26/25/12 25/26/12
f 25/26/13 26/25/13 28/27/13 27/28/13
f 27/28/14 28/27/14 30/29/14 29/30/14
f 4/31/15 2/32/15 32/33/15 30/34/15 28/35/15 26/36/15 24/37/15 22/38/15 20/39/15 18/40/15 16/41/15 14/42/15 12/43/15 10/44/15 8/45/15 6/46/15
f 29/30/16 30/29/16 32/47/16 31/48/16
f 31/48/17 32/47/17 2/49/17 1/50/17
f 1/51/18 3/52/18 5/53/18 7/54/18 9/55/18 11/56/18 13/57/18 15/58/18 17/59/18 19/60/18 21/61/18 23/62/18 25/63/18 27/64/18 29/65/18 31/66/18
f 33/1/1 34/2/1 36/3/1 35/4/1
f 35/4/2 36/3/2 38/5/2 37/6/2
f 37/6/3 38/5/3 40/7/3 39/8/3
f 39/8/4 40/7/4 42/9/4 41/10/4
f 41/10/5 42/9/5 44/11/5 43/12/5
f 43/12/6 44/11/6 46/13/6 45/14/6
f 45/14/7 46/13/7 48/15/7 47/16/7
f 47/16/8 48/15/8 50/17/8 49/18/8
f 49/18/9 50/17/9 52/19/9 51/20/9
f 51/20/10 52/19/10 54/21/10 53/22/10
f 53/22/11 54/21/11 56/23/11 55/24/11
f 55/24/12 56/23/12 58/25/12 57/26/12
f 57/26/13 58/25/13 60/27/13 59/28/13
f 59/28/14 60/27/14 62/29/14 61/30/14
f 36/67/15 34/32/15 64/68/15 62/34/15 60/69/15 58/70/15 56/71/15 54/38/15 52/72/15 50/73/15 48/74/15 46/42/15 44/75/15 42/44/15 40/76/15 38/46/15
f 61/30/16 62/29/16 64/47/16 63/48/16
f 63/48/17 64/47/17 34/49/17 33/50/17
f 33/51/18 35/77/18 37/53/18 39/54/18 41/55/18 43/56/18 45/57/18 47/78/18 49/79/18 51/80/18 53/61/18 55/62/18 57/63/18 59/64/18 61/65/18 63/81/18
f 65/82/19 66/83/19 68/84/19 67/85/19
f 67/85/20 68/84/20 72/14/20 71/22/20
f 71/22/21 72/14/21 70/86/21 69/87/21
f 69/87/22 70/86/22 66/13/22 65/21/22
f 67/30/18 71/22/18 69/87/18 65/88/18
f 72/14/15 68/6/15 66/89/15 70/86/15
f 73/82/19 74/83/19 76/84/19 75/85/19
f 75/85/20 76/84/20 80/14/20 79/22/20
f 79/22/21 80/14/21 78/86/21 77/87/21
f 77/87/22 78/86/22 74/13/22 73/21/22
f 75/30/18 79/22/18 77/87/18 73/88/18
f 80/14/15 76/6/15 74/89/15 78/86/15
usemtl Mat_SodiumStreetGlow
f 81/82/19 82/83/19 84/84/19 83/85/19
f 83/85/20 84/84/20 88/14/20 87/22/20
f 87/22/21 88/14/21 86/86/21 85/87/21
f 85/87/22 86/86/22 82/13/22 81/21/22
f 83/30/18 87/22/18 85/87/18 81/88/18
f 88/14/15 84/6/15 82/89/15 86/86/15
